<svg width="345" height="240" viewBox="0 0 345 240" fill="none" xmlns="http://www.w3.org/2000/svg">
<rect x="0.643066" y="0.261902" width="343.438" height="239.623" rx="23" fill="white"/>
<path d="M158.06 159.942C157.516 158.728 156.873 157.559 156.139 156.449L155.964 156.205C155.964 156.205 156.174 156.205 156.279 156.205L156.768 156.449C157.256 156.624 157.815 156.834 158.2 156.449C158.584 156.065 158.2 155.506 157.955 155.087L156.174 152.084C153.128 152.8 149.932 152.518 147.058 151.28C147.042 154.875 147.743 158.437 149.119 161.758C149.298 162.484 149.657 163.153 150.164 163.702C150.671 164.252 151.309 164.665 152.017 164.902C153.17 164.518 152.262 163.679 152.472 163.051L153.345 163.889C153.457 164.023 153.608 164.118 153.777 164.162C153.946 164.206 154.125 164.196 154.288 164.133C154.672 163.924 154.567 163.54 154.532 163.19C154.497 162.841 154.183 162.492 154.323 162.073C154.655 162.416 155.005 162.743 155.37 163.051C155.545 163.051 155.755 163.4 156.034 163.051C156.313 162.701 156.034 162.666 156.034 162.422C156.034 162.178 155.685 161.444 155.825 160.92L156.942 161.758C157.068 161.852 157.222 161.902 157.379 161.902C157.536 161.902 157.689 161.852 157.815 161.758C157.95 161.679 158.054 161.557 158.111 161.411C158.168 161.265 158.175 161.105 158.13 160.955C158.142 160.616 158.119 160.276 158.06 159.942Z" fill="#F7BDA9"/>
<path d="M195.012 151.385C192.359 152.401 189.46 152.584 186.7 151.909C185.853 152.991 185.127 154.162 184.534 155.402C184.185 156.135 184.534 156.554 185.338 156.484C185.801 156.402 186.248 156.249 186.665 156.03C186.665 156.275 186.386 156.554 186.246 156.764C185.531 157.857 184.945 159.029 184.5 160.256C184.325 160.78 184.15 161.339 184.709 161.688C185.268 162.038 185.617 161.688 186.036 161.304C186.455 160.92 186.386 160.676 186.84 160.815V161.165C186.84 161.549 186.63 161.898 186.56 162.247C186.518 162.369 186.52 162.502 186.564 162.623C186.609 162.744 186.694 162.845 186.805 162.911C186.899 162.97 187.008 163.001 187.119 163.001C187.23 163.001 187.339 162.97 187.433 162.911L188.376 162.038C188.376 162.038 188.376 161.758 188.376 161.828C188.376 161.898 188.376 162.038 188.376 162.108V162.666C188.027 163.924 188.376 164.133 189.494 163.854C189.559 163.682 189.661 163.526 189.794 163.399C189.927 163.272 190.087 163.177 190.262 163.12C190.262 163.679 189.739 164.343 190.472 164.622C191.205 164.902 191.694 164.378 192.183 163.889C192.855 163.186 193.378 162.354 193.72 161.444C194.985 158.174 195.693 154.715 195.816 151.21L195.012 151.385Z" fill="#F7BDA9"/>
<path d="M163.753 205.941L163.578 206.535V208.246C163.474 208.894 163.19 209.501 162.758 209.995C162.325 210.489 161.762 210.851 161.133 211.04C158.912 212.071 156.562 212.799 154.148 213.206C152.599 213.536 151.005 213.607 149.433 213.415C147.058 213.066 146.254 211.494 147.407 209.399C148.401 207.851 149.71 206.53 151.249 205.522C151.249 206.22 151.843 206.115 152.297 206.22C155.944 207.023 159.722 207.023 163.368 206.22L163.753 205.941Z" fill="#034C47"/>
<path d="M192.777 212.856H192.532C191.577 213.275 190.534 213.455 189.494 213.38H189.144C188.708 213.485 188.253 213.485 187.817 213.38C184.951 213.06 182.162 212.244 179.574 210.97C178.634 210.636 177.859 209.952 177.41 209.061C176.961 208.17 176.873 207.14 177.165 206.185C179.797 206.702 182.484 206.89 185.163 206.744C186.425 206.697 187.679 206.51 188.9 206.185C189.179 206.185 189.459 206.185 189.529 205.696C190.896 206.637 192.08 207.821 193.021 209.189C194.139 210.621 194.069 211.913 192.777 212.856Z" fill="#034C47"/>
<path d="M178.876 103.78C177.305 108.216 176.536 110.451 175.733 110.416C174.93 110.381 173.952 108.53 173.078 99.938C177.13 105.212 177.829 110.241 176.082 111.708C174.336 113.175 171.297 111.988 168.154 110.032C165.702 108.269 163.801 105.847 162.67 103.046C161.273 99.1696 161.727 95.1879 162.67 94.8736C162.67 94.8736 164.172 94.4545 164.696 94.3846C164.775 94.4112 164.861 94.4112 164.941 94.3846C164.941 94.3846 164.941 94.0353 164.941 93.8258V91.2761L168.433 92.0445C170.848 92.4116 173.309 92.3407 175.698 91.835V92.6033C175.698 93.3019 175.698 93.6511 175.698 93.8607C175.863 94.0096 176.056 94.1236 176.266 94.1956C176.476 94.2677 176.699 94.2963 176.92 94.2798C177.928 94.2311 178.935 94.3734 179.889 94.6989C180.762 94.9784 181.636 96.1309 178.876 103.78Z" fill="#F8F7F7"/>
<path d="M173.498 111.219C172.729 114.223 171.926 117.262 171.088 120.615C170.11 117.366 169.446 114.293 168.782 111.184C168.888 110.198 168.888 109.202 168.782 108.216C168.782 105.945 168.782 103.71 168.957 101.475C169.107 100.288 168.938 99.0823 168.468 97.9821C168.292 97.5664 168.237 97.1091 168.312 96.6637C168.386 96.2183 168.586 95.8033 168.887 95.4673C170.187 94.9429 171.639 94.9429 172.939 95.4673C173.29 95.9424 173.48 96.5178 173.48 97.1089C173.48 97.7 173.29 98.2754 172.939 98.7505C172.775 99.049 172.702 99.389 172.729 99.7284C172.729 103.221 172.904 106.888 173.009 110.451C173.253 110.765 173.253 111.08 173.498 111.219Z" fill="#3B8A86"/>
<path d="M174.859 185.893V185.02C174.946 185.304 174.946 185.608 174.859 185.893Z" fill="#2E3D6D"/>
<path d="M165.534 189.735C165.534 189.49 165.534 189.246 165.534 189.036C165.624 189.26 165.624 189.51 165.534 189.735Z" fill="#2E3D6D"/>
<path d="M197.771 135.668C197.624 140.344 197.216 145.008 196.549 149.639C196.549 150.233 196.549 150.791 195.781 151.071L195.012 151.35C192.359 152.366 189.459 152.549 186.7 151.874C186.7 150.896 186.7 149.953 186.7 149.01C186.7 148.661 186.7 148.102 186.106 148.312C185.465 148.471 184.81 148.564 184.15 148.591C181.257 149.102 178.321 149.336 175.383 149.29C171.891 149.29 168.223 149.29 164.626 149.29C162.041 149.29 159.457 148.835 156.907 148.416C156.383 148.416 156.243 148.416 156.243 148.94V151.979C153.197 152.695 150.002 152.413 147.128 151.176C146.887 151.071 146.681 150.901 146.533 150.685C146.385 150.469 146.3 150.215 146.289 149.953C145.056 141.526 144.693 132.993 145.207 124.492C145.371 120.74 145.874 117.011 146.708 113.35C146.867 112.5 147.113 111.669 147.442 110.87C148.134 107.722 149.497 104.76 151.438 102.186C153.379 99.6127 155.852 97.4877 158.688 95.9563C159.743 95.4575 160.842 95.0599 161.971 94.7688C162.6 94.5942 162.81 94.7688 162.984 95.3276L168.398 109.298C168.465 109.479 168.547 109.655 168.642 109.822C169.369 111.79 170.209 113.714 171.157 115.585C171.995 113.49 172.799 111.638 173.567 109.752C175.523 104.863 177.514 100.008 179.47 95.1181C179.749 94.3846 180.203 94.664 180.622 94.7688C184.909 95.8379 188.645 98.4651 191.1 102.138C193.749 106.141 195.545 110.648 196.374 115.376C197.641 122.061 198.11 128.872 197.771 135.668Z" fill="#21224B"/>
<path d="M189.529 205.626C189.529 205.976 189.18 206.046 188.9 206.115C187.681 206.452 186.427 206.651 185.163 206.709C182.486 206.866 179.799 206.691 177.165 206.185C177.061 206.092 176.976 205.98 176.916 205.854C176.856 205.728 176.822 205.591 176.816 205.452C176.14 198.909 175.488 192.401 174.86 185.928C174.946 185.643 174.946 185.339 174.86 185.055V184.67L174.371 180.27C174.022 177.475 173.672 174.681 173.288 171.887C173.044 170.246 172.764 168.639 172.555 166.997C172.555 166.508 172.31 166.334 171.786 166.299C168.538 166.299 168.573 166.299 168.119 169.442C167.246 175.869 166.512 182.33 165.814 188.792C165.829 188.884 165.829 188.979 165.814 189.071C165.639 189.281 165.814 189.525 165.814 189.77L165.395 193.472C165.395 193.647 165.395 193.786 165.395 193.926C165.482 194.293 165.482 194.676 165.395 195.044L164.347 205.731C164.347 205.731 164.347 205.731 164.172 205.731H163.928C160.281 206.534 156.503 206.534 152.856 205.731C152.402 205.731 151.843 205.731 151.808 205.033C151.808 201.365 151.808 197.663 151.808 193.996C151.808 184.042 152.157 174.088 152.542 164.133C153.694 163.749 152.786 162.911 152.996 162.282L153.869 163.121C153.981 163.254 154.132 163.35 154.301 163.394C154.47 163.438 154.649 163.428 154.812 163.365C155.196 163.155 155.091 162.771 155.056 162.422C155.021 162.073 154.707 161.723 154.847 161.304C155.179 161.648 155.529 161.974 155.895 162.282C156.069 162.282 156.279 162.632 156.558 162.282C156.838 161.933 156.558 161.898 156.558 161.654C156.558 161.409 156.209 160.676 156.349 160.152L157.466 160.99C157.593 161.084 157.746 161.134 157.903 161.134C158.06 161.134 158.213 161.084 158.339 160.99C158.474 160.911 158.578 160.788 158.635 160.643C158.692 160.497 158.699 160.336 158.654 160.187C158.609 159.841 158.527 159.502 158.409 159.174C157.865 157.959 157.223 156.791 156.488 155.681V155.506L156.977 155.751C157.466 155.926 158.025 156.135 158.409 155.751C158.793 155.367 158.409 154.808 158.165 154.389L156.384 151.385V148.346C156.384 147.858 156.384 147.718 157.047 147.823C159.597 148.242 162.181 148.521 164.766 148.696C168.259 148.94 171.926 148.696 175.523 148.696C178.461 148.743 181.397 148.509 184.29 147.997C184.95 147.97 185.605 147.877 186.246 147.718C186.84 147.508 186.84 148.067 186.84 148.416C186.84 149.359 186.84 150.302 186.84 151.28C185.993 152.362 185.266 153.533 184.674 154.773C184.325 155.506 184.674 155.926 185.478 155.856C185.941 155.773 186.388 155.62 186.805 155.402C186.805 155.646 186.525 155.926 186.386 156.135C185.671 157.228 185.085 158.4 184.639 159.628C184.465 160.152 184.29 160.711 184.849 161.06C185.408 161.409 185.757 161.06 186.176 160.676C186.595 160.291 186.525 160.047 186.979 160.187V160.536C186.979 160.92 186.77 161.269 186.7 161.619C186.658 161.741 186.659 161.873 186.704 161.994C186.748 162.115 186.833 162.217 186.944 162.282C187.039 162.341 187.148 162.372 187.259 162.372C187.37 162.372 187.479 162.341 187.573 162.282L188.516 161.409V161.968C188.167 163.225 188.516 163.435 189.634 163.155V175.31C189.774 184.624 189.774 193.938 189.634 203.251C189.368 204.016 189.332 204.841 189.529 205.626Z" fill="#37998F"/>
<path d="M156.279 156.1V156.275L156.104 156.03C156.104 156.03 156.174 156.03 156.279 156.1Z" fill="#232245"/>
<path d="M177.269 86.5261H165.883V94.1401H177.269V86.5261Z" fill="#F7BDA9"/>
<path d="M194.663 53.2059C195.942 52.3053 196.973 51.0975 197.663 49.6938C198.353 48.29 198.678 46.7353 198.61 45.1727C198.644 44.9608 198.635 44.7441 198.582 44.5359C198.53 44.3278 198.435 44.1326 198.304 43.9624C198.173 43.7922 198.009 43.6507 197.821 43.5465C197.633 43.4423 197.426 43.3776 197.212 43.3566C196.775 43.2947 196.355 43.1452 195.977 42.9172C195.599 42.6891 195.271 42.3872 195.012 42.0293C193.63 40.0029 191.771 38.3476 189.598 37.2094C186.165 35.408 182.44 34.2257 178.596 33.7168C171.999 32.4879 165.182 33.4444 159.177 36.441C156.488 37.6484 154.346 39.8154 153.17 42.5183C153.028 42.8042 152.811 43.0458 152.541 43.2168C151.031 44.3441 149.83 45.8336 149.048 47.5478C146.95 52.1488 146.363 57.2966 147.372 62.2519C147.83 64.3115 148.449 66.3318 149.223 68.2943C149.957 68.2943 150.376 67.5957 151.109 67.491C152.541 67.2814 152.855 67.491 152.96 68.8531C153.205 71.9267 153.798 74.9653 154.148 78.0389V78.3881C154.478 80.2036 155.175 81.9327 156.196 83.4699C157.217 85.0072 158.54 86.3204 160.085 87.3294C161.718 88.3522 163.449 89.2065 165.254 89.879L168.747 90.6474C171.162 91.0146 173.623 90.9436 176.012 90.4379C176.24 90.3521 176.473 90.2821 176.71 90.2283C179.071 89.6807 181.317 88.7232 183.347 87.3992C185.007 86.3051 186.421 84.8763 187.497 83.2043C188.574 81.5324 189.29 79.654 189.598 77.6896L190.332 71.9616C190.372 71.8992 190.394 71.8264 190.394 71.752C190.394 71.6776 190.372 71.6048 190.332 71.5425C190.349 71.3683 190.349 71.1928 190.332 71.0186C190.332 70.32 190.507 69.6564 190.611 68.9579C190.821 67.2814 190.961 67.2116 192.462 68.1546C192.777 68.3641 192.847 68.923 193.371 68.8531C193.631 68.1668 193.807 67.4514 193.894 66.7226C194.113 66.4183 194.224 66.0494 194.209 65.6748C194.192 65.4772 194.192 65.2786 194.209 65.081C194.209 64.6619 194.209 64.2079 194.453 63.7538C195.106 60.5989 195.022 57.3361 194.209 54.2188C194.383 53.7298 194.279 53.4504 194.663 53.2059ZM188.62 71.5425C188.475 72.041 188.416 72.5608 188.446 73.0793C188.26 74.7202 187.897 76.3362 187.363 77.8992C186.844 79.1827 186.068 80.3466 185.083 81.3196C184.098 82.2926 182.925 83.054 181.635 83.5573C175.486 85.9855 168.644 85.9855 162.495 83.5573C160.539 82.8688 158.83 81.6152 157.587 79.955C156.343 78.2949 155.62 76.3031 155.51 74.2318C154.951 68.3541 154.951 62.4366 155.51 56.5589C155.468 55.0894 155.951 53.653 156.872 52.5074C157.836 53.2294 158.865 53.8607 159.946 54.3934C164.448 56.6691 169.397 57.9214 174.44 58.0607C174.981 58.0739 175.521 58.0152 176.047 57.8861C176.508 57.8183 176.951 57.6589 177.35 57.4173C177.748 57.1756 178.095 56.8566 178.368 56.479C178.642 56.1014 178.837 55.6729 178.942 55.2187C179.047 54.7646 179.06 54.2939 178.981 53.8346C179.26 53.8346 179.33 53.8346 179.505 54.0791C180.58 54.9474 181.826 55.5796 183.162 55.9347C184.498 56.2897 185.894 56.3596 187.258 56.1398C187.608 56.1398 187.677 56.3144 187.747 56.5589C188.243 57.907 188.549 59.3176 188.655 60.7501C188.655 63.2648 188.655 65.8145 188.655 68.3292V69.3072V71.5774L188.62 71.5425Z" fill="#542419"/>
<path d="M154.008 77.8293C153.345 77.85 152.686 77.7192 152.08 77.4469C151.475 77.1745 150.94 76.7678 150.516 76.2576C149.777 75.5827 149.185 74.7631 148.777 73.8499C148.368 72.9366 148.152 71.9491 148.141 70.9487C148.141 69.866 148.839 69.0627 149.119 68.0847C149.852 68.0847 150.271 67.3862 151.005 67.2814C152.437 67.0718 152.751 67.2814 152.856 68.6435C153.065 71.7171 153.694 74.7557 154.008 77.8293Z" fill="#F7BDA9"/>
<path d="M192.952 74.7907C192.623 75.4371 192.165 76.0092 191.606 76.4717C191.048 76.9343 190.4 77.2774 189.704 77.48L190.437 71.7521C190.478 71.6897 190.499 71.6169 190.499 71.5425C190.499 71.4681 190.478 71.3953 190.437 71.3329C190.454 71.1587 190.454 70.9832 190.437 70.809C190.437 70.1105 190.612 69.4469 190.716 68.7483C190.926 67.0719 191.066 67.002 192.568 67.945C192.882 68.1546 192.952 68.7134 193.476 68.6436C193.902 69.632 194.077 70.7104 193.985 71.7829C193.894 72.8553 193.539 73.8886 192.952 74.7907Z" fill="#F7BDA9"/>
<path d="M188.621 60.7152C188.514 59.2827 188.209 57.8721 187.713 56.524C187.713 56.2795 187.713 56.035 187.224 56.1048C185.859 56.3247 184.464 56.2548 183.128 55.8998C181.792 55.5447 180.546 54.9125 179.47 54.0442C179.295 54.0442 179.226 53.66 178.946 53.7997C179.026 54.259 179.012 54.7297 178.907 55.1838C178.802 55.638 178.607 56.0665 178.334 56.4441C178.06 56.8217 177.714 57.1407 177.315 57.3824C176.917 57.624 176.474 57.7834 176.012 57.8512C175.487 57.9803 174.947 58.039 174.406 58.0258C169.363 57.8865 164.413 56.6341 159.911 54.3585C158.844 53.8351 157.827 53.2155 156.872 52.5074C155.822 53.6627 155.249 55.1725 155.266 56.7335C154.707 62.6113 154.707 68.5288 155.266 74.4065C155.376 76.4777 156.099 78.4696 157.343 80.1297C158.586 81.7898 160.295 83.0435 162.251 83.7319C168.4 86.1601 175.242 86.1601 181.391 83.7319C182.707 83.2448 183.907 82.4907 184.917 81.5169C185.927 80.5431 186.724 79.3708 187.259 78.0738C187.9 76.4658 188.357 74.7902 188.621 73.0793C188.591 72.5608 188.65 72.041 188.796 71.5425V69.2722V68.2943C188.621 65.7796 188.621 63.2299 188.621 60.7152ZM158.724 77.2705C158.028 77.2445 157.368 76.9565 156.875 76.4642C156.383 75.972 156.095 75.3118 156.069 74.616C156.073 74.2492 156.152 73.8869 156.299 73.551C156.447 73.2152 156.661 72.9126 156.928 72.6614C157.196 72.4103 157.511 72.2157 157.856 72.0895C158.2 71.9632 158.567 71.9078 158.933 71.9267C159.298 71.8985 159.665 71.9513 160.007 72.0816C160.349 72.2118 160.658 72.4161 160.911 72.6799C161.165 72.9436 161.357 73.2603 161.474 73.6071C161.591 73.954 161.63 74.3224 161.588 74.6859C161.574 75.0422 161.49 75.3924 161.34 75.7159C161.19 76.0394 160.977 76.3299 160.714 76.5704C160.451 76.8109 160.142 76.9966 159.807 77.1168C159.471 77.237 159.115 77.2893 158.758 77.2705H158.724ZM161.622 69.9708C161.353 69.9955 161.081 69.9629 160.825 69.8752C160.569 69.7876 160.335 69.6468 160.137 69.4621C159.939 69.2775 159.782 69.0531 159.677 68.8037C159.572 68.5543 159.521 68.2855 159.527 68.0149C159.513 67.7523 159.552 67.4895 159.641 67.2423C159.731 66.9951 159.87 66.7685 160.049 66.5762C160.229 66.3838 160.445 66.2296 160.685 66.1227C160.925 66.0158 161.185 65.9585 161.448 65.9542C161.709 65.9401 161.971 65.9777 162.218 66.0649C162.465 66.1521 162.692 66.2872 162.887 66.4624C163.082 66.6376 163.24 66.8495 163.353 67.0859C163.465 67.3223 163.53 67.5787 163.543 67.8402C163.568 68.1085 163.536 68.3788 163.451 68.6342C163.365 68.8897 163.228 69.1248 163.048 69.3248C162.868 69.5248 162.648 69.6854 162.403 69.7966C162.157 69.9077 161.892 69.9671 161.622 69.9708ZM163.334 63.8237C161.697 63.5631 160.021 63.6947 158.444 64.2079C158.333 64.2867 158.204 64.336 158.068 64.3511C157.933 64.3662 157.796 64.3466 157.67 64.2942C157.545 64.2418 157.434 64.1583 157.35 64.0516C157.265 63.9448 157.209 63.8183 157.187 63.684C157.138 63.5583 157.117 63.4237 157.125 63.2892C157.133 63.1547 157.17 63.0235 157.233 62.9043C157.295 62.7852 157.383 62.6809 157.49 62.5985C157.596 62.5161 157.719 62.4575 157.85 62.4266C159.041 62.0176 160.294 61.8168 161.553 61.8328C162.174 61.8234 162.795 61.8819 163.404 62.0075C163.963 62.0075 164.312 62.3567 164.242 62.9156C164.172 63.4744 163.928 63.9983 163.334 63.8935V63.8237ZM177.305 75.6289C176.553 76.4682 175.624 77.1294 174.585 77.5644C173.546 77.9994 172.422 78.1973 171.297 78.1437C170.38 78.1021 169.484 77.8507 168.678 77.4087C167.873 76.9667 167.18 76.3459 166.652 75.594C166.023 74.7208 166.198 74.2319 167.211 73.9175C170.322 72.9926 173.635 72.9926 176.746 73.9175C178.143 74.2668 178.143 74.7907 177.479 75.6988L177.305 75.6289ZM182.125 70.1454C181.613 70.1386 181.122 69.9417 180.748 69.5931C180.373 69.2445 180.142 68.7691 180.099 68.2594C180.103 67.9995 180.159 67.7431 180.264 67.5052C180.369 67.2673 180.52 67.0526 180.709 66.8738C180.897 66.6949 181.119 66.5555 181.363 66.4635C181.606 66.3716 181.865 66.3291 182.125 66.3384C182.372 66.3231 182.619 66.3604 182.851 66.4481C183.082 66.5357 183.292 66.6715 183.467 66.8465C183.643 67.0216 183.778 67.2318 183.866 67.4634C183.954 67.6949 183.991 67.9424 183.976 68.1895C184.015 68.679 183.862 69.1644 183.549 69.5427C183.236 69.921 182.787 70.1623 182.299 70.2153L182.125 70.1454ZM185.128 63.684C184.919 64.4174 184.43 64.4523 183.766 64.2777C182.526 63.9797 181.234 63.9797 179.994 64.2777C179.622 64.3139 179.248 64.3139 178.876 64.2777C178.632 64.2779 178.397 64.1833 178.222 64.014C178.046 63.8446 177.942 63.6136 177.933 63.3696C177.913 63.2587 177.917 63.1449 177.944 63.0355C177.971 62.9261 178.021 62.8236 178.09 62.7347C178.159 62.6457 178.246 62.5724 178.346 62.5193C178.445 62.4662 178.554 62.4346 178.667 62.4266C179.65 62.1901 180.659 62.0728 181.67 62.0773C182.53 62.0302 183.391 62.1246 184.22 62.3567C185.128 62.6362 185.512 62.9854 185.303 63.7538L185.128 63.684Z" fill="#F7BDA9"/>
<path d="M183.068 71.9616C183.432 71.9231 183.801 71.9595 184.15 72.0686C184.5 72.1777 184.824 72.3571 185.102 72.5959C185.38 72.8346 185.606 73.1277 185.767 73.4571C185.928 73.7864 186.019 74.1452 186.036 74.5112C186.021 75.2086 185.772 75.8806 185.328 76.4191C184.885 76.9576 184.273 77.3313 183.592 77.48C181.356 77.48 180.553 76.3624 180.378 74.3366C180.273 73.1491 181.636 71.9266 183.068 71.9616Z" fill="#F5AB97"/>
<path d="M171.472 78.2135C170.554 78.1719 169.658 77.9205 168.853 77.4785C168.047 77.0365 167.354 76.4157 166.826 75.6638C166.198 74.7906 166.372 74.3017 167.385 73.9873C170.496 73.0624 173.809 73.0624 176.92 73.9873C177.968 74.3017 178.108 74.8256 177.479 75.7337C176.724 76.5666 175.794 77.2213 174.755 77.6502C173.716 78.079 172.594 78.2715 171.472 78.2135Z" fill="white"/>
<path d="M158.759 77.2705C158.382 77.2961 158.004 77.2421 157.65 77.1122C157.296 76.9822 156.973 76.7791 156.702 76.5161C156.431 76.2531 156.219 75.936 156.079 75.5855C155.939 75.2351 155.874 74.8591 155.889 74.4819C155.904 74.1048 155.998 73.735 156.165 73.3966C156.332 73.0582 156.568 72.7587 156.859 72.5177C157.149 72.2767 157.487 72.0995 157.851 71.9977C158.214 71.8958 158.595 71.8717 158.968 71.9267C159.333 71.8984 159.7 71.9513 160.042 72.0816C160.384 72.2118 160.693 72.4161 160.946 72.6799C161.2 72.9436 161.392 73.2603 161.509 73.6071C161.626 73.9539 161.665 74.3224 161.623 74.6859C161.609 75.0454 161.524 75.3985 161.372 75.7244C161.22 76.0504 161.004 76.3425 160.737 76.5835C160.47 76.8245 160.157 77.0094 159.817 77.1274C159.478 77.2454 159.117 77.2941 158.759 77.2705Z" fill="#F5AB97"/>
<path d="M181.845 62.1821C182.704 62.135 183.566 62.2293 184.395 62.4615C185.058 62.6361 185.512 62.9854 185.303 63.7538C185.093 64.5222 184.604 64.5222 183.941 64.3475C182.701 64.0495 181.408 64.0495 180.169 64.3475C179.797 64.3837 179.423 64.3837 179.051 64.3475C178.807 64.3477 178.572 64.2532 178.396 64.0838C178.22 63.9144 178.117 63.6834 178.108 63.4394C178.088 63.3285 178.092 63.2147 178.119 63.1053C178.146 62.9959 178.195 62.8934 178.264 62.8045C178.334 62.7156 178.421 62.6422 178.52 62.5891C178.619 62.536 178.729 62.5044 178.841 62.4964C179.826 62.2717 180.835 62.1661 181.845 62.1821Z" fill="#542419"/>
<path d="M161.692 61.8328C162.314 61.8234 162.934 61.8819 163.543 62.0075C164.067 62.0075 164.451 62.3567 164.382 62.9156C164.312 63.4744 163.928 63.9983 163.334 63.8935C161.696 63.6329 160.021 63.7646 158.444 64.2777C158.335 64.3274 158.216 64.352 158.096 64.3499C157.977 64.3477 157.859 64.3188 157.752 64.2652C157.645 64.2116 157.551 64.1347 157.477 64.0402C157.404 63.9457 157.352 63.8359 157.326 63.7189C157.278 63.5908 157.257 63.454 157.264 63.3173C157.272 63.1806 157.308 63.047 157.371 62.9251C157.433 62.8033 157.521 62.696 157.627 62.6101C157.734 62.5242 157.858 62.4617 157.99 62.4266C159.181 62.0176 160.433 61.8168 161.692 61.8328Z" fill="#542419"/>
<path d="M163.543 67.9101C163.567 68.1783 163.536 68.4486 163.451 68.7041C163.365 68.9595 163.228 69.1946 163.048 69.3946C162.868 69.5946 162.648 69.7553 162.403 69.8664C162.157 69.9776 161.892 70.0369 161.622 70.0406C161.353 70.0653 161.081 70.0327 160.825 69.9451C160.569 69.8574 160.334 69.7166 160.137 69.532C159.939 69.3473 159.782 69.1229 159.677 68.8735C159.572 68.6241 159.521 68.3553 159.527 68.0847C159.513 67.8221 159.552 67.5593 159.641 67.3121C159.731 67.0649 159.87 66.8383 160.049 66.646C160.228 66.4536 160.445 66.2994 160.685 66.1925C160.925 66.0856 161.185 66.0283 161.448 66.024C161.974 66.0046 162.486 66.1907 162.877 66.5427C163.269 66.8947 163.507 67.3851 163.543 67.9101Z" fill="#542419"/>
<path d="M184.15 68.2593C184.16 68.5099 184.119 68.7598 184.03 68.9945C183.942 69.2291 183.808 69.4438 183.635 69.6259C183.463 69.808 183.256 69.954 183.027 70.0551C182.797 70.1563 182.55 70.2107 182.299 70.2152C181.788 70.2084 181.297 70.0115 180.923 69.6629C180.548 69.3143 180.317 68.8389 180.273 68.3292C180.278 68.0693 180.334 67.8129 180.439 67.575C180.544 67.3371 180.695 67.1224 180.883 66.9436C181.072 66.7647 181.294 66.6253 181.537 66.5334C181.78 66.4414 182.039 66.3989 182.299 66.4082C182.546 66.3929 182.794 66.4302 183.025 66.5179C183.257 66.6055 183.467 66.7413 183.642 66.9163C183.817 67.0914 183.953 67.3017 184.041 67.5332C184.128 67.7647 184.166 68.0122 184.15 68.2593Z" fill="#542419"/>
</svg>
