<svg width="345" height="240" viewBox="0 0 345 240" fill="none" xmlns="http://www.w3.org/2000/svg">
<rect x="0.643066" y="0.261902" width="343.438" height="239.623" rx="23" fill="white"/>
<path d="M166.451 101.953C166.451 102.12 166.451 102.32 166.451 102.487L166.817 102.22C166.72 102.101 166.594 102.01 166.451 101.953ZM202.19 109.555V109.121C201.323 106.187 200.39 103.287 199.59 100.353C199.287 98.9658 198.84 97.6138 198.256 96.3191C197.956 95.6856 197.223 95.0188 197.356 94.5521C197.356 95.0188 191.288 93.952 184.554 94.9522C178.198 95.9465 172.173 98.4502 166.984 102.253C167.172 102.464 167.309 102.714 167.384 102.986C167.459 103.258 167.471 103.543 167.417 103.82C167.751 103.987 167.784 104.32 167.851 104.621C169.484 110.088 171.185 115.589 172.718 121.09C172.885 121.657 172.952 122.257 173.085 122.824C173.977 122.835 174.858 122.629 175.652 122.224C177.347 121.596 179.085 121.095 180.853 120.723C182.487 120.29 183.154 119.623 183.287 117.99C183.519 116.71 183.686 115.419 183.787 114.122C183.599 112.748 182.896 111.497 181.82 110.622C181.32 110.055 180.32 110.388 179.586 110.622C177.519 111.022 176.686 110.622 175.786 109.221C174.885 107.821 175.786 107.221 176.886 107.188C177.374 107.155 177.864 107.155 178.353 107.188C179.086 107.188 179.153 106.921 178.886 106.354C178.684 106.015 178.381 105.747 178.019 105.587C176.711 104.909 175.471 104.105 174.319 103.187C173.452 102.387 173.185 101.52 173.619 100.987C173.988 100.708 174.439 100.557 174.902 100.557C175.365 100.557 175.816 100.708 176.186 100.987C176.919 101.52 177.586 102.087 178.286 102.62C178.453 102.62 178.553 102.987 178.853 102.92C178.853 101.92 178.053 101.42 177.586 100.72C177.119 100.02 177.186 100.32 177.052 100.086C176.919 99.853 176.552 98.7195 177.052 98.2194C177.336 97.9775 177.697 97.8447 178.069 97.8447C178.442 97.8447 178.803 97.9775 179.086 98.2194C180.001 99.0342 180.748 100.019 181.287 101.12C181.709 101.93 182.236 102.681 182.853 103.354C182.78 102.452 182.624 101.559 182.387 100.687C182.387 99.9864 182.087 99.2529 182.853 98.8862C183.199 98.7425 183.583 98.7169 183.944 98.8134C184.306 98.9098 184.626 99.1229 184.854 99.4196C185.153 99.6928 185.389 100.029 185.545 100.403C185.701 100.777 185.772 101.182 185.754 101.587C185.606 102.615 185.606 103.659 185.754 104.687C186.354 103.887 186.187 103.02 186.387 102.253C186.402 102.095 186.45 101.941 186.53 101.803C186.609 101.666 186.718 101.547 186.848 101.455C186.978 101.363 187.126 101.3 187.283 101.271C187.439 101.242 187.6 101.247 187.754 101.287C188.079 101.297 188.396 101.383 188.682 101.537C188.967 101.69 189.213 101.908 189.401 102.173C189.588 102.438 189.711 102.742 189.761 103.063C189.811 103.383 189.786 103.711 189.688 104.02C189.597 104.36 189.486 104.694 189.355 105.021C188.755 106.221 188.188 107.354 189.355 108.555C189.653 108.919 189.797 109.386 189.755 109.855C189.899 111.916 190.177 113.965 190.588 115.989C190.57 116.189 190.57 116.39 190.588 116.589C190.564 116.733 190.564 116.879 190.588 117.023C190.703 117.128 190.843 117.202 190.995 117.237C191.147 117.272 191.306 117.267 191.455 117.223H191.755H192.622C194.489 116.656 196.356 115.956 198.256 115.522C198.96 115.509 199.65 115.325 200.266 114.986C200.883 114.647 201.407 114.162 201.795 113.575C202.182 112.987 202.42 112.314 202.489 111.614C202.558 110.913 202.456 110.207 202.19 109.555ZM166.617 102.487L166.984 102.22C166.842 102.073 166.654 101.979 166.451 101.953C166.517 102.253 166.551 102.253 166.617 102.487ZM202.19 109.555V109.121C201.323 106.187 200.39 103.287 199.59 100.353C199.287 98.9658 198.84 97.6138 198.256 96.3191C197.956 95.6856 197.223 95.0188 197.356 94.5521C197.356 95.0188 191.288 93.952 184.554 94.9522C178.198 95.9465 172.173 98.4502 166.984 102.253C167.172 102.464 167.309 102.714 167.384 102.986C167.459 103.258 167.471 103.543 167.417 103.82C167.751 103.987 167.784 104.32 167.851 104.621C169.484 110.088 171.185 115.589 172.718 121.09C172.885 121.657 172.952 122.257 173.085 122.824C173.977 122.835 174.858 122.629 175.652 122.224C177.347 121.596 179.085 121.095 180.853 120.723C182.487 120.29 183.154 119.623 183.287 117.99C183.519 116.71 183.686 115.419 183.787 114.122C183.599 112.748 182.896 111.497 181.82 110.622C181.32 110.055 180.32 110.388 179.586 110.622C177.519 111.022 176.686 110.622 175.786 109.221C174.885 107.821 175.786 107.221 176.886 107.188C177.374 107.155 177.864 107.155 178.353 107.188C179.086 107.188 179.153 106.921 178.886 106.354C178.684 106.015 178.381 105.747 178.019 105.587C176.711 104.909 175.471 104.105 174.319 103.187C173.452 102.387 173.185 101.52 173.619 100.987C173.988 100.708 174.439 100.557 174.902 100.557C175.365 100.557 175.816 100.708 176.186 100.987C176.919 101.52 177.586 102.087 178.286 102.62C178.453 102.62 178.553 102.987 178.853 102.92C178.853 101.92 178.053 101.42 177.586 100.72C177.119 100.02 177.186 100.32 177.052 100.086C176.919 99.853 176.552 98.7195 177.052 98.2194C177.336 97.9775 177.697 97.8447 178.069 97.8447C178.442 97.8447 178.803 97.9775 179.086 98.2194C180.001 99.0342 180.748 100.019 181.287 101.12C181.709 101.93 182.236 102.681 182.853 103.354C182.78 102.452 182.624 101.559 182.387 100.687C182.387 99.9864 182.087 99.2529 182.853 98.8862C183.199 98.7425 183.583 98.7169 183.944 98.8134C184.306 98.9098 184.626 99.1229 184.854 99.4196C185.153 99.6928 185.389 100.029 185.545 100.403C185.701 100.777 185.772 101.182 185.754 101.587C185.606 102.615 185.606 103.659 185.754 104.687C186.354 103.887 186.187 103.02 186.387 102.253C186.402 102.095 186.45 101.941 186.53 101.803C186.609 101.666 186.718 101.547 186.848 101.455C186.978 101.363 187.126 101.3 187.283 101.271C187.439 101.242 187.6 101.247 187.754 101.287C188.079 101.297 188.396 101.383 188.682 101.537C188.967 101.69 189.213 101.908 189.401 102.173C189.588 102.438 189.711 102.742 189.761 103.063C189.811 103.383 189.786 103.711 189.688 104.02C189.597 104.36 189.486 104.694 189.355 105.021C188.755 106.221 188.188 107.354 189.355 108.555C189.653 108.919 189.797 109.386 189.755 109.855C189.899 111.916 190.177 113.965 190.588 115.989C190.57 116.189 190.57 116.39 190.588 116.589C190.564 116.733 190.564 116.879 190.588 117.023C190.703 117.128 190.843 117.202 190.995 117.237C191.147 117.272 191.306 117.267 191.455 117.223H191.755H192.622C194.489 116.656 196.356 115.956 198.256 115.522C198.96 115.509 199.65 115.325 200.266 114.986C200.883 114.647 201.407 114.162 201.795 113.575C202.182 112.987 202.42 112.314 202.489 111.614C202.558 110.913 202.456 110.207 202.19 109.555ZM166.617 102.487L166.984 102.22C166.842 102.073 166.654 101.979 166.451 101.953C166.517 102.253 166.551 102.253 166.617 102.487ZM166.451 101.953C166.451 102.12 166.451 102.32 166.451 102.487L166.817 102.22C166.72 102.101 166.594 102.01 166.451 101.953ZM166.451 101.953C166.451 102.12 166.451 102.32 166.451 102.487L166.817 102.22C166.72 102.101 166.594 102.01 166.451 101.953Z" fill="white"/>
<path d="M194.089 124.091C193.555 121.824 192.889 119.556 192.222 117.423H191.922C191.772 117.467 191.614 117.472 191.462 117.437C191.31 117.402 191.17 117.328 191.055 117.223C191.031 117.079 191.031 116.933 191.055 116.789C191.037 116.59 191.037 116.389 191.055 116.189C190.644 114.165 190.366 112.116 190.222 110.055C190.263 109.586 190.12 109.119 189.822 108.755C188.621 107.554 189.188 106.421 189.822 105.221C189.953 104.894 190.064 104.56 190.155 104.22C190.253 103.911 190.278 103.584 190.228 103.263C190.178 102.942 190.055 102.638 189.867 102.373C189.68 102.108 189.434 101.89 189.148 101.737C188.863 101.583 188.545 101.497 188.221 101.487C188.067 101.447 187.906 101.442 187.75 101.471C187.593 101.5 187.445 101.563 187.315 101.655C187.185 101.747 187.076 101.866 186.997 102.004C186.917 102.141 186.869 102.295 186.854 102.453C186.654 103.22 186.854 104.087 186.221 104.887C186.073 103.859 186.073 102.815 186.221 101.787C186.239 101.382 186.167 100.978 186.012 100.603C185.856 100.229 185.62 99.8928 185.321 99.6196C185.092 99.3229 184.773 99.1098 184.411 99.0134C184.049 98.9169 183.666 98.9425 183.32 99.0862C182.554 99.4529 182.754 100.186 182.854 100.887C183.091 101.759 183.247 102.652 183.32 103.554C182.703 102.881 182.176 102.13 181.753 101.32C181.215 100.219 180.468 99.2342 179.553 98.4194C179.269 98.1776 178.909 98.0447 178.536 98.0447C178.163 98.0447 177.803 98.1776 177.519 98.4194C176.953 98.9195 177.119 99.653 177.519 100.286C177.919 100.92 177.919 100.686 178.053 100.92C178.186 101.153 179.386 102.12 179.32 103.12C179.02 103.12 178.92 102.92 178.753 102.82C178.053 102.287 177.386 101.72 176.653 101.187C176.283 100.908 175.832 100.757 175.369 100.757C174.906 100.757 174.455 100.908 174.085 101.187C173.652 101.72 174.085 102.587 174.786 103.387C175.798 104.212 176.88 104.948 178.019 105.587C178.423 105.737 178.764 106.019 178.986 106.388C179.253 106.954 179.186 107.288 178.453 107.221C177.964 107.188 177.474 107.188 176.986 107.221C175.719 107.221 175.252 108.188 175.886 109.255C176.519 110.322 177.619 111.055 179.686 110.655C180.42 110.655 181.42 110.188 181.92 110.655C182.996 111.53 183.699 112.781 183.887 114.156C183.786 115.452 183.619 116.743 183.387 118.023C183.387 119.657 182.587 120.323 180.953 120.757C179.185 121.128 177.447 121.629 175.752 122.257C174.958 122.662 174.077 122.868 173.185 122.857C172.931 123.265 172.584 123.607 172.173 123.856C171.761 124.105 171.297 124.254 170.818 124.291C169.551 124.557 169.151 124.291 168.684 123.024C168.684 122.79 168.684 122.257 168.151 122.357C167.618 122.457 167.351 122.924 166.917 123.157C165.851 123.724 165.684 123.624 165.617 122.257C165.25 121.855 164.977 121.377 164.817 120.857C163.484 121.323 163.117 121.19 162.55 120.057C162.477 119.749 162.353 119.456 162.183 119.19C160.95 117.723 160.983 117.723 159.183 118.59C158.884 118.767 158.552 118.881 158.208 118.923C157.863 118.965 157.513 118.935 157.181 118.835C156.848 118.735 156.54 118.566 156.277 118.34C156.013 118.114 155.799 117.836 155.649 117.523C155.35 116.963 155.228 116.325 155.299 115.694C155.37 115.062 155.632 114.468 156.049 113.989C156.582 113.489 157.316 113.622 157.983 113.489C158.29 113.477 158.591 113.395 158.862 113.248C159.133 113.101 159.366 112.894 159.543 112.643C159.721 112.391 159.838 112.102 159.885 111.797C159.932 111.493 159.909 111.182 159.816 110.888C159.483 109.188 159.516 109.121 161.116 108.421V108.088L160.683 107.321C160.25 106.554 159.783 105.821 159.283 105.087C158.171 103.521 156.945 102.039 155.615 100.653C153.356 98.3092 150.801 96.2695 148.014 94.5854C147.891 94.5389 147.779 94.4669 147.686 94.3742C147.593 94.2815 147.52 94.1701 147.473 94.0473C147.426 93.9245 147.405 93.7932 147.412 93.6619C147.419 93.5305 147.454 93.4022 147.514 93.2852C147.81 92.244 147.721 91.131 147.263 90.1502C146.805 89.1693 146.009 88.3864 145.021 87.9449C144.032 87.5034 142.918 87.4329 141.882 87.7463C140.846 88.0597 139.957 88.736 139.379 89.6512C138.846 90.5847 138.312 90.518 137.512 90.3513C135.948 89.9247 134.355 89.6127 132.745 89.4178C130.525 89.2626 128.297 89.2626 126.077 89.4178C123.235 89.6468 120.421 90.1493 117.675 90.9181C112.64 92.4274 107.985 94.9919 104.018 98.4411C100.051 101.89 96.8652 106.145 94.6714 110.922C94.5416 111.242 94.5416 111.601 94.6714 111.922H95.5049C95.9562 111.879 96.4108 111.958 96.8213 112.15C97.2318 112.343 97.583 112.642 97.8384 113.017C98.0939 113.391 98.2441 113.828 98.2734 114.28C98.3028 114.733 98.2102 115.185 98.0053 115.589C97.5541 116.863 96.7988 118.007 95.8049 118.923C96.4598 119.319 97.1948 119.563 97.9563 119.638C98.7177 119.713 99.4862 119.617 100.206 119.356C101.051 119.03 101.784 118.466 102.316 117.733C102.849 116.999 103.158 116.127 103.206 115.222C103.309 116.043 103.209 116.877 102.916 117.65C102.622 118.423 102.144 119.113 101.522 119.659C100.9 120.205 100.155 120.59 99.35 120.782C98.5452 120.973 97.7058 120.964 96.9051 120.757C95.2616 120.224 93.5782 119.822 91.8709 119.556C91.154 123.85 91.154 128.232 91.8709 132.525C92.7429 137.548 94.6874 142.324 97.5719 146.528C99.7051 149.677 102.289 152.497 105.24 154.896C107.818 156.929 110.641 158.631 113.641 159.964C113.874 160.027 114.075 160.174 114.205 160.378C114.334 160.581 114.383 160.826 114.342 161.064C114.264 161.768 114.32 162.481 114.508 163.164C114.757 164.04 115.273 164.816 115.984 165.383C116.696 165.951 117.567 166.283 118.476 166.331C119.384 166.443 120.305 166.252 121.094 165.788C121.884 165.324 122.498 164.613 122.843 163.764C122.944 163.434 123.163 163.153 123.458 162.975C123.753 162.796 124.104 162.733 124.443 162.797C127.399 163.164 130.389 163.164 133.345 162.797C139.12 162.09 144.647 160.034 149.481 156.796C151.928 155.162 154.167 153.237 156.149 151.062C156.682 150.495 157.016 150.395 157.582 151.062C158.083 151.662 158.653 152.2 159.283 152.662C162.677 155.086 166.484 156.871 170.518 157.93C174.387 159.005 178.333 159.785 182.32 160.264L189.521 161.331C189.98 160.475 190.392 159.596 190.755 158.697L191.022 157.997L191.522 156.663L192.022 155.129C192.189 154.629 192.322 154.129 192.455 153.596L192.755 152.562C192.955 151.862 193.122 151.162 193.289 150.462C193.964 147.588 194.432 144.668 194.689 141.727C194.956 139.227 195.256 136.726 195.289 134.226C195.287 130.812 194.885 127.41 194.089 124.091ZM129.478 142.694C128.445 143.161 127.274 143.222 126.198 142.863C125.123 142.505 124.222 141.754 123.677 140.76C122.843 138.86 124.21 137.16 127.01 137.193C127.714 137.252 128.391 137.491 128.975 137.888C129.559 138.286 130.031 138.827 130.344 139.46C130.514 139.725 130.627 140.023 130.675 140.335C130.723 140.646 130.706 140.964 130.624 141.268C130.542 141.572 130.398 141.856 130.201 142.102C130.004 142.347 129.757 142.549 129.478 142.694ZM136.345 116.956C135.603 116.949 134.874 116.763 134.218 116.415C133.562 116.067 133 115.566 132.578 114.956C132.363 114.663 132.217 114.326 132.151 113.97C132.085 113.613 132.101 113.246 132.197 112.896C132.294 112.547 132.468 112.223 132.707 111.95C132.946 111.678 133.244 111.463 133.578 111.322C134.6 110.915 135.735 110.894 136.772 111.262C137.808 111.63 138.676 112.362 139.213 113.322C140.046 115.156 138.679 116.956 136.345 116.956Z" fill="#F8BC8F"/>
<path d="M226.461 135.959C226.309 133.652 225.941 131.364 225.361 129.125C224.816 127.83 224.478 126.457 224.361 125.057C224.361 125.057 224.128 125.057 224.061 124.757C223.994 124.457 223.461 123.357 223.194 122.624C222.927 121.89 222.361 122.624 221.961 122.624C221.961 123.357 221.694 124.024 220.86 124.257C220.895 124.467 220.895 124.681 220.86 124.891C220.867 124.968 220.867 125.046 220.86 125.124L220.56 125.458C220.36 125.658 220.127 125.824 219.927 126.058C219.927 126.324 219.927 126.491 219.593 126.491V126.658C219.593 127.291 219.227 127.925 219.593 128.558C219.705 128.72 219.765 128.912 219.765 129.108C219.765 129.305 219.705 129.497 219.593 129.658C219.593 129.825 219.593 129.958 219.593 130.125C220.124 130.942 220.423 131.886 220.46 132.859C221.183 136.723 220.837 140.712 219.46 144.394C218.404 146.465 216.741 148.163 214.693 149.262C212.073 150.841 208.979 151.443 205.958 150.962C204.697 151.01 203.441 150.77 202.286 150.262C201.131 149.754 200.107 148.99 199.29 148.028C198.785 147.263 198.36 146.447 198.023 145.594C197.54 144.507 197.117 143.394 196.756 142.26C196.653 142.089 196.599 141.893 196.599 141.694C196.599 141.494 196.653 141.298 196.756 141.127V139.593C196.463 138.501 196.463 137.351 196.756 136.259C196.972 135.41 197.073 134.535 197.056 133.659C197.164 133.878 197.287 134.09 197.423 134.292L199.19 125.591C199.365 124.117 199.643 122.658 200.023 121.223C200.921 118.752 202.304 116.485 204.091 114.556C205.424 113.022 207.025 111.788 208.425 110.388C208.225 109.588 207.458 109.788 207.025 109.755C205.426 109.471 203.789 109.471 202.19 109.755C202.434 110.359 202.538 111.01 202.496 111.66C202.453 112.309 202.265 112.941 201.945 113.508C201.624 114.075 201.18 114.563 200.646 114.934C200.111 115.306 199.499 115.553 198.856 115.656C196.956 116.089 195.089 116.789 193.222 117.356C192.889 118.223 193.222 119.023 193.556 119.79C193.889 120.557 193.889 120.957 194.022 121.524C194.156 122.09 194.022 122.157 194.622 121.99C195.223 121.824 194.956 122.224 194.922 122.39C194.889 122.557 195.223 122.924 194.689 122.757C194.156 122.59 194.522 122.757 194.522 122.957C194.522 123.157 194.522 124.091 194.789 124.624C195.672 128.086 196.076 131.654 195.989 135.226C195.889 138.915 195.521 142.592 194.889 146.228C194.415 149.207 193.769 152.157 192.955 155.063C192.603 156.745 191.972 158.356 191.088 159.83C190.788 160.33 191.088 160.997 190.355 161.464C194.722 162.164 198.856 163.064 203.124 163.364C205.217 163.368 207.305 163.167 209.358 162.764C210.677 162.611 211.975 162.309 213.226 161.864C213.792 161.664 214.159 161.564 213.626 160.764C215.226 161.797 216.16 160.43 216.96 159.83C218.222 159.053 219.349 158.073 220.294 156.93C221.16 155.496 222.594 154.496 223.161 152.762C223.461 151.862 224.194 150.929 224.561 149.962C225.153 148.312 225.61 146.618 225.928 144.894C226.488 141.951 226.667 138.948 226.461 135.959ZM211.359 160.597C209.084 161.698 206.597 162.291 204.07 162.337C201.543 162.383 199.036 161.881 196.723 160.864C200.761 161.786 204.978 161.555 208.892 160.197C211.317 159.417 213.577 158.197 215.559 156.596C216.746 155.658 217.771 154.532 218.593 153.262C219.552 151.799 220.67 150.446 221.927 149.228C221.127 151.793 219.763 154.145 217.934 156.113C216.105 158.08 213.858 159.613 211.359 160.597Z" fill="#48BCCE"/>
<path d="M226.962 140.46C226.752 146.041 224.896 151.435 221.627 155.963C218.853 159.513 214.905 161.959 210.492 162.864C207.464 163.547 204.353 163.783 201.257 163.564C197.743 163.222 194.257 162.643 190.822 161.831C190.363 161.758 189.941 161.535 189.622 161.197C190.08 160.342 190.492 159.463 190.855 158.563L191.122 157.863L191.622 156.53L192.122 154.996C192.289 154.496 192.422 153.996 192.555 153.462L192.855 152.429C193.056 151.729 193.222 151.029 193.389 150.329C194.024 147.496 194.459 144.621 194.689 141.727C194.956 139.227 195.256 136.726 195.289 134.226C195.234 130.851 194.786 127.495 193.956 124.224C193.422 121.957 192.755 119.69 192.089 117.556H192.956C192.622 118.423 192.956 119.223 193.289 119.99C193.622 120.757 193.622 121.157 193.756 121.724C193.889 122.29 193.756 122.357 194.356 122.19C194.956 122.024 194.689 122.424 194.656 122.59C194.622 122.757 194.956 123.124 194.422 122.957C193.889 122.79 194.256 122.957 194.256 123.157C194.256 123.357 194.256 124.291 194.522 124.824C195.405 128.287 195.809 131.854 195.723 135.426C195.622 139.115 195.254 142.792 194.622 146.428C194.148 149.408 193.502 152.357 192.689 155.263C192.336 156.945 191.705 158.556 190.822 160.03C190.522 160.53 190.822 161.197 190.088 161.664C194.456 162.364 198.59 163.264 202.857 163.564C204.95 163.568 207.038 163.367 209.092 162.964C210.411 162.811 211.708 162.509 212.959 162.064C213.526 161.864 213.893 161.764 213.359 160.964C214.959 161.997 215.893 160.63 216.693 160.03C217.956 159.253 219.082 158.273 220.027 157.13C220.894 155.696 222.327 154.696 222.894 152.962C223.194 152.062 223.928 151.129 224.294 150.162C224.886 148.512 225.343 146.818 225.661 145.094C226.227 142.219 226.428 139.285 226.261 136.359C226.109 134.052 225.741 131.764 225.161 129.525C224.616 128.23 224.278 126.858 224.161 125.458C224.45 125.638 224.672 125.907 224.794 126.224C224.877 126.532 224.944 126.843 224.994 127.158C224.979 127.257 224.979 127.358 224.994 127.458C226.475 131.626 227.143 136.04 226.962 140.46Z" fill="#45AFB6"/>
<path d="M103.273 115.122C103.225 116.027 102.916 116.899 102.383 117.633C101.851 118.366 101.118 118.93 100.272 119.256C99.5603 119.532 98.7957 119.644 98.0344 119.587C97.2731 119.529 96.5343 119.302 95.8717 118.923C96.8413 118 97.5734 116.856 98.0054 115.589C98.1987 115.172 98.2749 114.71 98.2259 114.253C98.1768 113.796 98.0042 113.361 97.7268 112.994C97.4493 112.628 97.0773 112.344 96.6507 112.172C96.224 112.001 95.7588 111.949 95.3049 112.022H94.4714C93.4287 112.374 92.5543 113.102 92.0182 114.063C91.4821 115.024 91.3227 116.15 91.5709 117.223C91.5709 117.489 91.871 117.79 91.5709 117.99C91.2709 118.19 91.0042 117.99 90.7708 117.823C89.8347 117.267 89.0442 116.496 88.4645 115.574C87.8848 114.653 87.5326 113.607 87.4369 112.522C87.3506 112.722 87.3062 112.938 87.3062 113.155C87.3062 113.373 87.3506 113.589 87.4369 113.789C87.5217 115.098 87.9909 116.353 88.7855 117.397C89.5802 118.44 90.665 119.226 91.9043 119.657C93.6116 119.922 95.295 120.324 96.9385 120.857C97.7599 121.082 98.6246 121.096 99.4529 120.898C100.281 120.701 101.046 120.297 101.678 119.726C102.309 119.154 102.786 118.433 103.065 117.628C103.344 116.824 103.415 115.962 103.273 115.122ZM93.2712 116.923C93.2006 116.716 93.1449 116.504 93.1045 116.289C93.0594 115.697 93.2207 115.108 93.5611 114.622C93.9015 114.136 94.3999 113.782 94.9715 113.622C96.0384 113.389 96.5385 113.855 96.3384 114.922C96.1683 115.815 95.7393 116.638 95.1049 117.289C94.3714 118.19 93.838 118.09 93.3712 116.923H93.2712Z" fill="#4A2E1C"/>
<path d="M172.719 121.057C171.085 115.556 169.385 110.055 167.851 104.587C167.851 104.287 167.851 103.954 167.418 103.787C167.471 103.51 167.459 103.225 167.384 102.953C167.309 102.681 167.172 102.43 166.984 102.22C166.842 102.073 166.654 101.979 166.451 101.953C166.109 101.888 165.759 101.888 165.417 101.953L164.317 102.253C163.184 102.62 162.883 103.12 163.184 104.22C163.35 104.754 163.417 105.254 162.75 105.387C162.298 105.48 161.882 105.7 161.55 106.021C161.345 106.349 161.198 106.71 161.116 107.088C161.099 107.343 161.099 107.599 161.116 107.854V108.188C161.869 110.077 162.492 112.015 162.983 113.989C163.517 115.689 164.017 117.323 164.517 119.09C164.649 119.594 164.749 120.106 164.817 120.623C164.977 121.144 165.25 121.622 165.617 122.024C166.451 122.59 167.318 122.257 168.151 122.024C168.985 121.79 168.584 122.457 168.684 122.69C169.151 123.891 169.551 124.224 170.818 123.957C171.297 123.921 171.761 123.772 172.173 123.523C172.584 123.274 172.931 122.931 173.185 122.524C172.952 122.257 172.885 121.624 172.719 121.057ZM171.718 122.49C171.49 122.515 171.27 122.595 171.079 122.723C170.887 122.85 170.729 123.022 170.618 123.224C170.618 123.624 170.351 123.891 169.918 123.757C169.485 123.624 169.085 123.424 169.085 122.89C169.101 122.646 169.101 122.401 169.085 122.157C169.085 121.624 168.885 121.357 168.251 121.69C167.87 121.86 167.465 121.973 167.051 122.024C166.82 122.107 166.569 122.112 166.334 122.04C166.1 121.968 165.895 121.822 165.751 121.624C165.669 121.543 165.604 121.447 165.56 121.341C165.516 121.235 165.493 121.122 165.493 121.007C165.493 120.892 165.516 120.778 165.56 120.673C165.604 120.567 165.669 120.471 165.751 120.39C165.82 120.349 165.877 120.29 165.916 120.22C165.956 120.15 165.977 120.07 165.977 119.99C165.977 119.909 165.956 119.83 165.916 119.76C165.877 119.69 165.82 119.631 165.751 119.59C164.917 118.923 164.95 118.723 165.751 118.123L166.517 117.656C165.851 117.289 165.384 117.356 164.984 117.89C164.584 118.423 164.384 118.323 164.217 117.69C163.484 114.989 162.717 112.289 161.783 109.655C161.685 109.066 161.541 108.486 161.35 107.921C161.35 107.688 161.15 107.254 161.717 107.288C162.283 107.321 162.117 107.121 162.05 106.888C161.85 106.121 162.45 105.854 162.917 105.821C164.05 105.821 163.984 105.154 163.617 104.387C163.25 103.62 163.15 103.487 163.617 103.187C164.084 102.887 165.284 102.02 166.351 102.487C166.551 102.487 166.617 103.02 166.684 103.32C166.751 103.62 166.684 103.787 167.151 103.787C166.951 104.887 167.884 105.887 167.384 107.121C168.484 107.954 168.318 109.321 168.751 110.455C169.385 112.189 169.818 113.989 170.351 115.789C170.711 117.663 171.293 119.487 172.085 121.223C172.685 121.69 172.619 122.257 171.718 122.49Z" fill="#45AFB6"/>
<path d="M224.394 125.057C224.394 125.057 224.161 125.057 224.094 124.757C224.027 124.457 223.494 123.357 223.227 122.624C222.96 121.89 222.394 122.624 221.994 122.624C222.294 122.157 222.26 121.423 222.96 121.223C223.687 122.394 224.174 123.697 224.394 125.057Z" fill="#45AFB6"/>
<path d="M208.425 110.255C208.225 109.455 207.458 109.655 207.025 109.621C205.427 109.322 203.788 109.322 202.19 109.621V109.188H206.224C206.848 109.185 207.468 109.286 208.058 109.488C208.258 109.721 208.558 109.488 208.792 109.655C209.025 109.821 209.125 109.888 208.792 110.088L208.525 110.255H208.425Z" fill="#45AFB6"/>
<path d="M161.017 108.354C161.769 110.244 162.392 112.182 162.884 114.156C163.417 115.856 163.917 117.489 164.417 119.256C164.549 119.761 164.649 120.273 164.717 120.79C163.384 121.257 163.017 121.123 162.45 119.99C162.377 119.683 162.253 119.39 162.083 119.123C160.883 117.656 160.883 117.656 159.083 118.523C158.785 118.701 158.452 118.814 158.108 118.857C157.763 118.899 157.413 118.869 157.081 118.768C156.748 118.668 156.44 118.5 156.177 118.274C155.913 118.048 155.699 117.769 155.549 117.456C155.25 116.896 155.128 116.258 155.199 115.627C155.271 114.996 155.532 114.401 155.949 113.922C156.516 113.422 157.216 113.555 157.883 113.422C158.194 113.412 158.499 113.33 158.773 113.181C159.047 113.032 159.283 112.822 159.461 112.566C159.639 112.31 159.755 112.016 159.799 111.707C159.844 111.399 159.815 111.084 159.716 110.788C159.383 109.121 159.416 108.921 161.017 108.354Z" fill="#EFAF2E"/>
<path d="M126.977 137.193C127.681 137.252 128.358 137.491 128.942 137.888C129.526 138.286 129.997 138.827 130.311 139.46C130.494 139.737 130.614 140.051 130.662 140.379C130.71 140.708 130.686 141.043 130.591 141.361C130.495 141.679 130.331 141.972 130.11 142.22C129.889 142.467 129.616 142.663 129.311 142.794C128.278 143.261 127.107 143.322 126.031 142.963C124.956 142.605 124.055 141.854 123.51 140.86C122.843 138.927 124.21 137.16 126.977 137.193Z" fill="#4A2E1C"/>
<path d="M136.346 116.956C135.603 116.949 134.874 116.763 134.218 116.415C133.562 116.067 133 115.566 132.578 114.956C132.363 114.663 132.217 114.326 132.151 113.97C132.085 113.613 132.101 113.246 132.197 112.896C132.294 112.546 132.468 112.223 132.707 111.95C132.946 111.678 133.244 111.463 133.578 111.322C134.6 110.915 135.735 110.894 136.772 111.262C137.809 111.63 138.676 112.362 139.213 113.322C140.046 115.156 138.679 116.956 136.346 116.956Z" fill="#4A2E1C"/>
<path d="M219.16 130.192C219.676 131.015 219.974 131.956 220.027 132.926C220.749 136.79 220.404 140.778 219.027 144.461C218.076 146.446 216.571 148.113 214.693 149.262C212.073 150.841 208.979 151.443 205.958 150.962C204.697 151.01 203.442 150.77 202.286 150.262C201.131 149.754 200.107 148.99 199.29 148.028C198.785 147.263 198.361 146.447 198.023 145.594C197.541 144.507 197.118 143.394 196.756 142.261C196.66 142.087 196.609 141.892 196.609 141.694C196.609 141.495 196.66 141.3 196.756 141.127C197.004 142.197 197.338 143.245 197.756 144.261C198.278 145.484 199.103 146.555 200.153 147.371C201.203 148.188 202.443 148.724 203.757 148.928C205.55 149.256 207.37 149.401 209.192 149.362C211.678 149.201 214.033 148.188 215.86 146.495C217.151 145.52 218.187 144.246 218.878 142.782C219.569 141.319 219.895 139.71 219.827 138.093C219.911 135.546 219.642 132.999 219.027 130.525C219.027 130.525 219.16 130.325 219.16 130.192Z" fill="#45AFB6"/>
<path d="M196.89 139.493C196.634 138.388 196.692 137.234 197.056 136.159C197.243 135.305 197.333 134.433 197.323 133.559L197.69 134.192L196.89 139.493Z" fill="#45AFB6"/>
<path d="M219.026 126.724C219.026 127.358 218.66 127.991 219.026 128.625C219.138 128.786 219.198 128.978 219.198 129.175C219.198 129.371 219.138 129.563 219.026 129.725C218.652 129.099 218.445 128.387 218.426 127.658C218.386 127.455 218.426 127.244 218.538 127.07C218.65 126.896 218.825 126.772 219.026 126.724Z" fill="#45AFB6"/>
<path d="M221.827 122.557C221.827 123.29 221.561 123.957 220.727 124.191C220.763 123.849 220.882 123.522 221.074 123.237C221.266 122.952 221.524 122.719 221.827 122.557Z" fill="#45AFB6"/>
<path d="M220.727 124.191C220.727 125.124 219.927 125.524 219.427 126.124C219.613 125.344 220.075 124.658 220.727 124.191Z" fill="#45AFB6"/>
<path d="M206.158 109.088H202.424C203.654 108.821 204.927 108.821 206.158 109.088Z" fill="#48BCCE"/>
<path d="M208.725 109.555C208.491 109.555 208.191 109.555 207.991 109.388C208.325 109.155 208.591 109.155 208.725 109.555Z" fill="#48BCCE"/>
<path d="M219.426 126.124C219.426 126.391 219.426 126.524 219.093 126.558C219.077 126.507 219.073 126.452 219.083 126.399C219.092 126.346 219.114 126.297 219.147 126.254C219.18 126.212 219.222 126.178 219.271 126.155C219.319 126.132 219.373 126.122 219.426 126.124Z" fill="#45AFB6"/>
<path d="M223.494 93.3852L223.294 93.1852L223.494 93.4186V93.3852Z" fill="white"/>
<path d="M223.494 93.4185L223.561 93.4519L223.494 93.3852V93.4185Z" fill="white"/>
<path d="M196.856 160.864C200.895 161.786 205.111 161.555 209.025 160.197C211.45 159.417 213.71 158.197 215.693 156.596C216.879 155.658 217.904 154.532 218.726 153.262C219.685 151.799 220.804 150.446 222.06 149.228C221.242 151.804 219.856 154.163 218.003 156.131C216.151 158.099 213.88 159.625 211.359 160.597C209.099 161.669 206.637 162.248 204.136 162.294C201.635 162.34 199.153 161.852 196.856 160.864Z" fill="#45AFB6"/>
<path d="M93.2042 116.289C93.1591 115.697 93.3204 115.108 93.6608 114.622C94.0012 114.136 94.4996 113.782 95.0712 113.622C96.1381 113.389 96.6382 113.855 96.4381 114.922C96.268 115.815 95.839 116.638 95.2046 117.289C94.3711 118.19 93.8377 118.09 93.3709 116.923C93.3003 116.716 93.2445 116.504 93.2042 116.289Z" fill="#F8BC8F"/>
<path d="M172.352 121.057C171.557 119.31 170.975 117.474 170.618 115.589C170.085 113.789 169.651 111.988 169.018 110.255C168.584 109.155 168.751 107.788 167.651 106.921C168.151 105.821 167.217 104.821 167.417 103.587C167.084 103.587 167.017 103.42 166.951 103.12C166.884 102.82 166.951 102.353 166.617 102.287C165.55 101.82 164.717 102.553 163.884 102.987C163.05 103.42 163.55 103.787 163.884 104.187C164.217 104.587 164.317 105.487 163.183 105.621C162.717 105.621 162.117 105.921 162.317 106.688C162.317 106.921 162.317 107.121 161.983 107.088C161.65 107.054 161.516 107.488 161.616 107.721C161.818 108.285 161.975 108.865 162.083 109.455C163.017 112.088 163.784 114.789 164.517 117.489C164.684 118.123 164.85 118.29 165.284 117.689C165.717 117.089 166.151 117.089 166.817 117.456L166.051 117.923C165.184 118.523 165.15 118.723 166.051 119.39C166.12 119.431 166.177 119.49 166.216 119.56C166.256 119.63 166.277 119.709 166.277 119.79C166.277 119.87 166.256 119.95 166.216 120.02C166.177 120.09 166.12 120.148 166.051 120.19C165.969 120.271 165.904 120.367 165.86 120.472C165.816 120.578 165.793 120.692 165.793 120.807C165.793 120.921 165.816 121.035 165.86 121.141C165.904 121.247 165.969 121.343 166.051 121.423C166.195 121.622 166.4 121.768 166.634 121.84C166.868 121.912 167.12 121.907 167.351 121.824C167.765 121.773 168.17 121.66 168.551 121.49C169.184 121.157 169.318 121.49 169.385 121.957C169.401 122.201 169.401 122.446 169.385 122.69C169.385 123.224 169.818 123.424 170.218 123.557C170.618 123.691 170.785 123.557 170.918 123.024C171.029 122.822 171.187 122.65 171.379 122.523C171.57 122.395 171.79 122.315 172.018 122.29C172.618 122.257 172.685 121.69 172.352 121.057ZM167.117 117.456C166.262 114.948 165.572 112.386 165.05 109.788C164.402 108.695 164.035 107.458 163.984 106.187C164.753 107.211 165.132 108.476 165.05 109.755C165.717 110.188 165.651 110.955 165.784 111.555C166.184 113.222 166.784 114.889 167.251 116.489C167.333 116.644 167.364 116.821 167.34 116.994C167.316 117.168 167.238 117.329 167.117 117.456Z" fill="#48BCCE"/>
<path d="M165.05 109.755C165.717 110.188 165.65 110.955 165.784 111.555C166.184 113.222 166.784 114.889 167.251 116.489C167.35 116.637 167.402 116.811 167.402 116.989C167.402 117.167 167.35 117.341 167.251 117.489C166.395 114.959 165.705 112.375 165.184 109.755H165.05Z" fill="#45AFB6"/>
<path d="M165.05 109.755C164.398 108.675 164.031 107.448 163.983 106.187C164.738 107.219 165.115 108.478 165.05 109.755Z" fill="#45AFB6"/>
<path d="M148.181 115.722C150.814 115.722 152.948 113.588 152.948 110.955C152.948 108.322 150.814 106.187 148.181 106.187C145.548 106.187 143.413 108.322 143.413 110.955C143.413 113.588 145.548 115.722 148.181 115.722Z" fill="#F5B1C6"/>
<path d="M139.979 152.662C142.612 152.662 144.747 150.528 144.747 147.895C144.747 145.262 142.612 143.127 139.979 143.127C137.346 143.127 135.212 145.262 135.212 147.895C135.212 150.528 137.346 152.662 139.979 152.662Z" fill="#F5B1C6"/>
<path d="M151.481 136.259C152.862 136.259 153.982 133.752 153.982 130.658C153.982 127.565 152.862 125.057 151.481 125.057C150.1 125.057 148.981 127.565 148.981 130.658C148.981 133.752 150.1 136.259 151.481 136.259Z" fill="#E9477E"/>
</svg>
