<svg width="345" height="240" viewBox="0 0 345 240" fill="none" xmlns="http://www.w3.org/2000/svg">
<rect x="0.643066" y="0.262024" width="343.438" height="239.623" rx="23" fill="white"/>
<path d="M183.748 144.019C187.505 148.753 185.326 152.962 187.956 166.563C189.171 173.119 191.033 179.537 193.516 185.725H142.417C145.304 177.702 147.234 169.365 148.166 160.889C149.331 150.068 148.166 146.161 151.36 142.404C157.822 134.588 176.684 135.265 183.748 144.019Z" fill="#E2B28F"/>
<path d="M167.892 148.19C194.308 148.19 215.722 121.746 215.722 89.1254C215.722 56.5051 194.308 30.061 167.892 30.061C141.476 30.061 120.062 56.5051 120.062 89.1254C120.062 121.746 141.476 148.19 167.892 148.19Z" fill="#F3C096"/>
<path d="M167.892 118.62H178.449C178.209 121.222 177.013 123.642 175.092 125.412C173.171 127.183 170.662 128.179 168.05 128.207C165.437 128.235 162.907 127.293 160.949 125.564C158.99 123.835 157.742 121.441 157.446 118.845L167.892 118.62Z" fill="white"/>
<path d="M122.429 104.117C119.237 100.713 116.838 96.6461 115.403 92.2064C113.825 87.2468 112.397 78.1918 116.079 76.501C116.943 76.1253 118.559 75.8998 121.715 77.6657C119.866 86.3655 120.11 95.3801 122.429 103.967V104.117Z" fill="#F3C096"/>
<path d="M213.467 104.117C216.659 100.713 219.058 96.6461 220.493 92.2064C222.071 87.2468 223.499 78.1918 219.817 76.501C218.953 76.1253 217.337 75.8998 214.181 77.6657C216.03 86.3655 215.785 95.3801 213.467 103.967V104.117Z" fill="#F3C096"/>
<path d="M152.637 99.2325C155.356 99.2325 157.559 95.6831 157.559 91.3046C157.559 86.9262 155.356 83.3768 152.637 83.3768C149.919 83.3768 147.715 86.9262 147.715 91.3046C147.715 95.6831 149.919 99.2325 152.637 99.2325Z" fill="#161515"/>
<path d="M183.109 99.2325C185.827 99.2325 188.031 95.6831 188.031 91.3046C188.031 86.9262 185.827 83.3768 183.109 83.3768C180.39 83.3768 178.187 86.9262 178.187 91.3046C178.187 95.6831 180.39 99.2325 183.109 99.2325Z" fill="#161515"/>
</svg>
