<svg width="345" height="240" viewBox="0 0 345 240" fill="none" xmlns="http://www.w3.org/2000/svg">
<rect x="0.643066" y="0.262024" width="343.438" height="239.623" rx="23" fill="white"/>
<path d="M218.322 108.315C221.52 104.868 223.941 100.774 225.419 96.3103C226.966 91.3652 228.401 82.2676 224.701 80.5689C223.871 80.1914 222.21 79.9272 219.039 81.7014C219.692 84.8707 220.058 88.0924 220.134 91.3274C220.398 97.049 219.787 102.777 218.322 108.315Z" fill="#F3C096"/>
<path d="M126.402 108.315C123.204 104.874 120.795 100.778 119.343 96.3103C117.758 91.3652 116.323 82.2676 120.023 80.5689C120.891 80.1914 122.514 79.9272 125.685 81.7014C123.806 90.5034 124.052 99.6265 126.402 108.315Z" fill="#F3C096"/>
<path d="M188.236 152.254C192.011 157.049 189.859 161.314 192.539 175.206C193.813 181.842 195.761 188.331 198.353 194.571H146.41C149.329 186.451 151.267 178.011 152.185 169.43C153.393 158.483 152.185 154.331 155.432 150.556C162.189 142.779 181.29 143.459 188.236 152.254Z" fill="#E2B28F"/>
<path d="M172.381 156.558C199.15 156.558 220.851 129.77 220.851 96.7255C220.851 63.681 199.15 36.8931 172.381 36.8931C145.612 36.8931 123.911 63.681 123.911 96.7255C123.911 129.77 145.612 156.558 172.381 156.558Z" fill="#F3C096"/>
<path d="M172.683 189.173C153.091 170.526 138 147.664 128.554 122.319L216.585 121.225C215.793 124.207 214.887 127.265 213.83 130.322C205.517 153.211 191.326 173.507 172.683 189.173Z" fill="#432613"/>
<path d="M172.57 128.51H183.177C183.202 131.324 182.109 134.032 180.137 136.039C178.166 138.046 175.478 139.187 172.664 139.212C169.851 139.237 167.143 138.144 165.136 136.172C163.129 134.2 161.987 131.512 161.962 128.699L172.57 128.51Z" fill="white"/>
<path d="M157.282 104.842C160.013 104.842 162.227 101.276 162.227 96.8765C162.227 92.4775 160.013 88.9114 157.282 88.9114C154.55 88.9114 152.336 92.4775 152.336 96.8765C152.336 101.276 154.55 104.842 157.282 104.842Z" fill="#161515"/>
<path d="M187.896 104.842C190.627 104.842 192.841 101.276 192.841 96.8765C192.841 92.4775 190.627 88.9114 187.896 88.9114C185.165 88.9114 182.951 92.4775 182.951 96.8765C182.951 101.276 185.165 104.842 187.896 104.842Z" fill="#161515"/>
</svg>
