<svg width="345" height="240" viewBox="0 0 345 240" fill="none" xmlns="http://www.w3.org/2000/svg">
<rect x="0.643066" y="0.261963" width="343.438" height="239.623" rx="23" fill="white"/>
<path d="M108.387 120.445C106.563 118.866 105.116 116.899 104.153 114.687C104.153 114.137 103.603 113.502 104.153 113.121C104.703 112.739 105.169 113.375 105.592 113.713C108.325 116.195 111.405 118.263 114.737 119.852C115.394 120.222 116.146 120.392 116.898 120.339C117.651 120.286 118.371 120.014 118.97 119.556C117.235 117.481 114.991 115.788 114.737 112.782C120.029 115.237 123.966 120.529 130.443 119.979C130.02 118.793 129.427 117.269 129.004 115.745C128.581 114.221 128.242 113.375 129.385 112.909C130.528 112.443 130.74 113.967 131.248 114.645C132.518 116.38 133.619 118.201 134.846 119.894C136.75 122.705 139.179 125.12 142.001 127.007C148.904 131.108 154.611 136.946 158.554 143.941C159.74 146.058 159.697 146.1 157.326 146.481C154.942 146.987 152.655 147.873 150.553 149.106C141.801 153.722 132.119 156.298 122.23 156.641C118.612 156.864 114.98 156.593 111.435 155.837C110.519 155.573 109.56 155.497 108.614 155.614C107.668 155.73 106.756 156.036 105.931 156.514L102.925 158.081C102.375 158.377 101.698 158.885 101.274 158.335C100.851 157.784 101.274 157.149 101.782 156.641C102.685 155.529 103.849 154.657 105.169 154.101C100.428 151.646 95.5589 153.72 90.394 153.509C92.6294 151.616 95.4274 150.515 98.3531 150.376C93.1923 147.274 87.4096 145.351 81.4189 144.745C85.0491 143.305 89.0922 143.305 92.7225 144.745C91.4101 142.713 90.2247 140.977 89.2086 139.157C88.6159 138.014 87.8115 138.437 87.0072 138.606C82.798 139.686 78.3563 139.42 74.3065 137.844C72.7529 137.345 71.3211 136.526 70.1034 135.439C68.8857 134.353 67.9091 133.023 67.2365 131.536C66.9401 130.774 66.6438 129.97 67.2365 129.25C67.8292 128.531 68.6336 128.827 69.3533 129.039C75.6636 130.432 82.2193 130.258 88.4466 128.531C82.9399 127.571 77.8501 124.974 73.8408 121.08C75.1689 120.837 76.5398 121.046 77.7357 121.672C83.1847 123.709 88.8785 125.019 94.6699 125.567C95.5288 125.782 96.4375 125.661 97.21 125.228C93.8669 124.513 90.6728 123.223 87.7692 121.418C87.0072 120.868 86.3298 120.275 85.6101 119.64C84.8904 119.005 85.1021 119.174 85.1021 118.751C85.1021 118.328 85.6948 118.412 86.0758 118.539C87.2188 118.836 88.3619 119.09 89.505 119.428C93.1349 120.639 96.8591 121.545 100.639 122.138C100.004 121.08 99.0728 120.826 98.3954 120.318C95.5684 118.552 93.2602 116.069 91.7064 113.121C91.4947 112.655 90.9867 112.02 91.4524 111.596C91.9181 111.173 92.6378 111.596 93.1035 112.062C96.6856 115.094 100.641 117.655 104.873 119.683C105.799 120.198 106.798 120.569 107.836 120.783C107.876 120.836 107.927 120.878 107.986 120.908C108.044 120.937 108.109 120.953 108.175 120.953C108.241 120.953 108.305 120.937 108.364 120.908C108.423 120.878 108.474 120.836 108.514 120.783C108.514 120.783 108.641 120.487 108.387 120.445ZM137.598 139.707C138.264 137.126 138.101 134.401 137.132 131.917C136.218 133.758 135.002 135.433 133.534 136.871C132.805 136.943 132.117 137.244 131.57 137.731C131.022 138.217 130.643 138.865 130.486 139.58C129.981 140.803 129.167 141.875 128.125 142.69C127.083 143.506 125.847 144.038 124.539 144.234C123.23 144.43 121.893 144.284 120.657 143.809C119.422 143.335 118.33 142.549 117.489 141.528L116.219 139.961C115.575 138.324 115.458 136.527 115.883 134.82C116.308 133.113 117.254 131.58 118.589 130.436L110.842 131.24C110.494 131.251 110.159 131.377 109.89 131.6C109.622 131.822 109.436 132.128 109.36 132.468C108.725 134.635 108.629 136.925 109.079 139.138C109.529 141.351 110.512 143.421 111.943 145.168C112.573 146.414 113.541 147.455 114.737 148.174C116.679 149.625 118.953 150.566 121.351 150.912C123.75 151.259 126.197 150.999 128.47 150.157C130.743 149.316 132.769 147.918 134.363 146.093C135.957 144.268 137.07 142.072 137.598 139.707ZM140.477 132.68C141.19 136.233 140.817 139.919 139.404 143.257C137.992 146.594 135.607 149.429 132.56 151.392C141.027 149.614 148.267 144.787 157.03 144.449C152.69 139.069 146.968 134.972 140.477 132.595V132.68ZM115.076 152.027C107.328 145.423 106.354 143.306 106.609 133.23C106.609 132.468 106.397 132.426 105.719 132.595C101.593 133.777 97.5366 135.19 93.5692 136.828C92.7225 137.167 92.5955 137.463 93.1881 138.268C96.3382 142.638 100.433 146.241 105.169 148.809C108.151 150.405 111.389 151.465 114.737 151.942L115.076 152.027ZM127.014 131.663C127.353 134.373 128.792 135.897 130.782 135.897C131.868 135.7 132.875 135.196 133.685 134.446C134.495 133.696 135.074 132.731 135.354 131.663C135.354 130.859 134.846 130.944 134.381 130.859C132.518 130.605 130.655 130.393 128.835 130.097C127.014 129.801 126.718 130.732 126.803 131.579L127.014 131.663Z" fill="#101112"/>
<path d="M116.219 139.707L117.489 141.274C118.302 142.307 119.367 143.114 120.582 143.616C121.798 144.119 123.122 144.3 124.427 144.143C125.733 143.985 126.976 143.494 128.037 142.718C129.098 141.941 129.941 140.904 130.486 139.707C130.643 138.992 131.022 138.344 131.57 137.858C132.117 137.371 132.805 137.07 133.534 136.998C134.721 138.241 136.166 139.209 137.767 139.834C137.235 142.217 136.11 144.427 134.498 146.26C132.885 148.094 130.836 149.49 128.54 150.322C126.244 151.153 123.776 151.392 121.363 151.017C118.951 150.641 116.671 149.664 114.737 148.174C113.572 147.443 112.634 146.402 112.027 145.168C113.89 143.941 114.737 141.612 116.219 139.707Z" fill="#81C6DE"/>
<path d="M116.219 139.707C114.737 141.443 113.89 143.687 111.985 144.999C110.554 143.252 109.571 141.182 109.121 138.969C108.671 136.755 108.768 134.466 109.403 132.298C109.478 131.958 109.664 131.653 109.933 131.43C110.201 131.208 110.536 131.081 110.884 131.071L118.632 130.055C117.262 131.203 116.291 132.755 115.858 134.489C115.424 136.223 115.551 138.049 116.219 139.707Z" fill="#3692A9"/>
<path d="M126.802 131.579C126.802 130.732 126.802 129.801 128.623 130.097C130.443 130.393 132.306 130.605 134.169 130.859C134.634 130.859 135.185 130.859 135.142 131.663C134.862 132.731 134.283 133.696 133.473 134.446C132.663 135.196 131.656 135.699 130.57 135.897C128.58 135.728 127.141 134.288 126.802 131.579Z" fill="#F5F5F6"/>
<path d="M137.598 139.707C135.996 139.082 134.551 138.114 133.364 136.871C134.832 135.433 136.049 133.758 136.963 131.917C137.988 134.383 138.21 137.108 137.598 139.707Z" fill="#3692A9"/>
<path d="M226.714 121.164C226.753 121.217 226.805 121.259 226.863 121.289C226.922 121.318 226.987 121.334 227.053 121.334C227.118 121.334 227.183 121.318 227.242 121.289C227.301 121.259 227.352 121.217 227.391 121.164C228.43 120.95 229.429 120.579 230.355 120.063C234.587 118.036 238.542 115.475 242.124 112.443C242.59 112.104 243.183 111.469 243.733 111.977C244.283 112.485 243.733 113.036 243.733 113.501C242.179 116.45 239.871 118.933 237.044 120.699C236.367 121.207 235.435 121.461 234.8 122.519C238.579 121.921 242.303 121.015 245.934 119.809C247.035 119.471 248.22 119.217 249.364 118.92C249.702 118.92 250.126 118.666 250.337 119.132C250.549 119.598 250.337 119.852 249.956 120.063C249.575 120.275 248.517 121.291 247.755 121.842C244.871 123.656 241.689 124.946 238.356 125.652C239.129 126.084 240.038 126.206 240.896 125.99C246.687 125.437 252.38 124.128 257.831 122.096C259.027 121.469 260.397 121.261 261.726 121.503C257.716 125.398 252.626 127.994 247.12 128.954C253.347 130.681 259.903 130.855 266.213 129.462C266.933 129.25 267.737 129.039 268.33 129.674C268.923 130.309 268.669 131.198 268.33 131.96C267.648 133.448 266.664 134.778 265.439 135.864C264.214 136.95 262.776 137.769 261.217 138.268C257.233 139.807 252.87 140.073 248.729 139.03C247.924 139.03 247.12 138.437 246.485 139.58C245.511 141.401 244.283 143.136 243.013 145.168C246.643 143.728 250.687 143.728 254.317 145.168C248.326 145.774 242.543 147.697 237.383 150.799C240.308 150.938 243.106 152.039 245.342 153.932C240.177 153.932 235.308 152.069 230.567 154.525C231.887 155.08 233.05 155.953 233.953 157.065C234.292 157.573 234.885 158.25 234.461 158.758C234.038 159.266 233.318 158.758 232.81 158.504L229.805 156.938C228.98 156.46 228.068 156.153 227.122 156.037C226.176 155.921 225.217 155.997 224.301 156.26C220.755 157.016 217.124 157.287 213.505 157.065C203.614 156.709 193.931 154.118 185.183 149.487C183.08 148.254 180.793 147.368 178.409 146.862C176.038 146.481 175.996 146.439 177.182 144.322C181.121 137.339 186.811 131.502 193.692 127.388C196.664 125.541 199.239 123.124 201.27 120.275C202.498 118.582 203.599 116.761 204.869 115.026C205.377 114.348 205.8 112.909 206.732 113.29C207.663 113.671 207.367 115.153 207.113 116.126C206.859 117.1 206.097 119.217 205.673 120.36C212.151 120.91 216.088 115.618 221.38 113.163C220.956 116.169 218.713 117.862 216.935 119.936C217.538 120.385 218.258 120.651 219.008 120.704C219.758 120.756 220.508 120.593 221.168 120.233C224.485 118.64 227.551 116.572 230.27 114.094C230.694 113.755 231.202 113.205 231.71 113.501C232.218 113.798 231.71 114.518 231.71 115.068C230.747 117.28 229.3 119.247 227.476 120.826C226.714 120.741 226.545 120.953 226.714 121.164ZM220.575 148.428C221.73 147.686 222.666 146.648 223.285 145.422C224.716 143.675 225.699 141.605 226.149 139.392C226.599 137.179 226.502 134.889 225.867 132.722C225.792 132.381 225.606 132.076 225.337 131.854C225.069 131.631 224.734 131.505 224.386 131.494L216.596 130.478C217.939 131.618 218.893 133.148 219.326 134.855C219.758 136.562 219.647 138.362 219.009 140.004C218.586 140.554 218.162 141.062 217.697 141.57C216.851 142.553 215.771 143.307 214.557 143.762C213.343 144.217 212.033 144.358 210.75 144.173C209.467 143.987 208.251 143.48 207.216 142.7C206.18 141.919 205.358 140.89 204.827 139.707C204.678 138.995 204.306 138.349 203.766 137.862C203.226 137.375 202.544 137.072 201.821 136.998C200.353 135.559 199.136 133.885 198.222 132.044C197.28 134.489 197.118 137.166 197.757 139.707C198.255 142.087 199.342 144.304 200.92 146.154C202.498 148.004 204.514 149.428 206.786 150.296C209.057 151.164 211.509 151.448 213.919 151.122C216.328 150.795 218.617 149.869 220.575 148.428ZM178.24 144.618C187.003 144.957 194.2 149.783 202.71 151.561C199.664 149.596 197.277 146.763 195.858 143.427C194.439 140.091 194.053 136.406 194.751 132.849C188.277 135.193 182.568 139.263 178.24 144.618ZM230.186 148.852C234.934 146.285 239.043 142.682 242.209 138.31C242.802 137.506 242.675 137.209 241.828 136.871C237.848 135.226 233.777 133.813 229.635 132.637C229 132.637 228.788 132.637 228.788 133.272C229.127 143.348 228.153 145.465 220.321 152.069C223.802 151.643 227.174 150.581 230.27 148.936L230.186 148.852ZM206.647 130.266C204.827 130.563 202.964 130.774 201.101 131.028C200.635 131.028 200.085 131.028 200.127 131.833C200.408 132.9 200.987 133.866 201.797 134.616C202.607 135.366 203.614 135.869 204.7 136.066C206.689 136.066 208.129 134.542 208.467 131.833C208.637 130.986 208.467 130.055 206.732 130.351L206.647 130.266Z" fill="#101112"/>
<path d="M219.136 140.13C218.713 140.681 218.289 141.189 217.824 141.697C216.973 142.706 215.877 143.479 214.642 143.943C213.406 144.407 212.072 144.546 210.767 144.346C209.463 144.146 208.231 143.615 207.191 142.803C206.151 141.99 205.337 140.924 204.827 139.707C204.678 138.995 204.306 138.349 203.766 137.862C203.226 137.375 202.545 137.072 201.821 136.998C200.634 138.241 199.189 139.209 197.587 139.834C198.11 142.214 199.222 144.423 200.822 146.26C202.422 148.097 204.459 149.502 206.744 150.345C209.029 151.188 211.49 151.443 213.9 151.086C216.31 150.729 218.591 149.771 220.533 148.301C221.688 147.559 222.624 146.521 223.243 145.295C221.465 143.941 220.576 141.866 219.136 140.13Z" fill="#81C6DE"/>
<path d="M219.136 140.131C220.618 141.866 221.465 144.11 223.37 145.422C224.8 143.675 225.784 141.605 226.234 139.392C226.684 137.179 226.587 134.889 225.952 132.722C225.877 132.381 225.69 132.076 225.422 131.854C225.154 131.631 224.819 131.505 224.47 131.494L216.681 130.478C218.057 131.621 219.037 133.171 219.478 134.905C219.919 136.639 219.799 138.469 219.136 140.131Z" fill="#3692A9"/>
<path d="M208.552 131.833C208.552 130.986 208.552 130.055 206.732 130.351C204.912 130.647 203.049 130.859 201.186 131.113C200.72 131.113 200.17 131.113 200.212 131.917C200.493 132.985 201.072 133.95 201.882 134.7C202.691 135.45 203.699 135.954 204.785 136.151C206.774 135.982 208.214 134.542 208.552 131.833Z" fill="#F5F5F6"/>
<path d="M197.757 139.707C199.358 139.082 200.803 138.114 201.99 136.871C200.522 135.433 199.306 133.758 198.392 131.917C197.366 134.383 197.144 137.108 197.757 139.707Z" fill="#3692A9"/>
</svg>
