<svg width="345" height="240" viewBox="0 0 345 240" fill="none" xmlns="http://www.w3.org/2000/svg">
<rect x="0.643066" y="0.261963" width="343.438" height="239.623" rx="23" fill="white"/>
<path d="M112.534 102.198C110.857 100.422 109.624 98.2752 108.935 95.9323C108.935 95.3819 108.512 94.7046 108.935 94.4082C109.359 94.1119 109.909 94.7892 110.248 95.1702C112.716 97.981 115.566 100.432 118.715 102.452C119.323 102.897 120.048 103.155 120.8 103.192C121.552 103.23 122.299 103.046 122.949 102.664C121.083 100.648 119.847 98.1322 119.392 95.4243C124.346 98.5148 127.563 104.272 134.083 104.569C133.829 103.341 133.405 101.732 133.194 100.123C133.194 99.1498 132.77 97.668 133.913 97.3294C135.056 96.9907 135.141 98.5571 135.565 99.3191C136.581 101.182 137.427 103.129 138.486 104.992C140.112 108.074 142.344 110.796 145.048 112.993C151.346 117.983 156.246 124.516 159.272 131.96C160.161 134.246 160.119 134.288 157.706 134.331C155.288 134.547 152.918 135.132 150.678 136.066C141.408 139.567 131.459 140.899 121.594 139.961C117.98 139.754 114.416 139.026 111.01 137.802C110.131 137.435 109.189 137.246 108.237 137.246C107.285 137.246 106.342 137.435 105.464 137.802L102.289 138.988C101.738 138.988 100.976 139.623 100.595 138.988C100.214 138.352 100.934 137.844 101.315 137.379C102.36 136.373 103.641 135.645 105.041 135.262C100.807 132.214 95.5151 133.696 90.4349 132.807C92.9452 131.183 95.9231 130.439 98.902 130.69C94.0898 126.852 88.4757 124.146 82.4758 122.773C86.2579 121.809 90.2645 122.308 93.6947 124.17C92.6786 122.011 91.7049 120.148 90.9429 118.201C90.4772 116.973 89.6305 117.269 88.8261 117.354C84.5734 117.851 80.2708 117.023 76.5065 114.983C75.0389 114.292 73.7314 113.302 72.6672 112.078C71.6031 110.853 70.8056 109.421 70.3255 107.871C70.0715 107.067 69.9021 106.22 70.6218 105.585C71.3415 104.95 72.1036 105.331 72.7386 105.585C78.8207 107.776 85.3471 108.445 91.7473 107.532C86.3933 105.892 81.6672 102.658 78.1999 98.2607C79.5538 98.2202 80.8864 98.6052 82.0101 99.3615C87.1262 102.214 92.5907 104.392 98.2669 105.839C99.0875 106.136 99.9865 106.136 100.807 105.839C97.5988 104.662 94.6086 102.959 91.9589 100.801C91.2707 100.175 90.6337 99.4958 90.0538 98.7688C90.0538 98.5147 89.5035 98.2184 89.7575 97.795C90.0115 97.3717 90.4349 97.541 90.7735 97.795C91.8743 98.2184 92.975 98.6418 94.0757 99.1498C97.5111 100.848 101.079 102.264 104.744 103.383C104.236 102.283 103.39 101.902 102.754 101.309C100.191 99.1969 98.2212 96.4539 97.0392 93.3498C97.0392 92.7995 96.4465 92.1221 97.0392 91.7834C97.6319 91.4447 98.1823 92.0374 98.6056 92.4608C101.784 95.9157 105.382 98.9593 109.316 101.521C110.164 102.149 111.107 102.635 112.111 102.96C112.13 103.028 112.165 103.09 112.215 103.14C112.264 103.191 112.325 103.228 112.392 103.249C112.459 103.271 112.531 103.274 112.6 103.261C112.669 103.247 112.734 103.217 112.788 103.172C112.788 103.172 112.788 102.283 112.534 102.198ZM139.036 124.974C140.061 122.509 140.283 119.783 139.671 117.185C138.534 118.917 137.101 120.436 135.438 121.672C134.716 121.652 134.006 121.857 133.407 122.26C132.807 122.662 132.348 123.241 132.093 123.916C131.437 125.063 130.496 126.02 129.361 126.696C128.226 127.371 126.935 127.742 125.615 127.772C124.294 127.802 122.988 127.49 121.824 126.866C120.659 126.242 119.676 125.328 118.969 124.212L117.868 122.519C117.48 120.81 117.615 119.023 118.257 117.392C118.899 115.76 120.017 114.361 121.467 113.375C118.461 113.375 116.048 113.375 113.677 113.375C113.329 113.341 112.979 113.423 112.681 113.606C112.383 113.789 112.153 114.065 112.026 114.391C111.16 116.429 110.793 118.645 110.955 120.854C111.117 123.062 111.804 125.201 112.957 127.091C113.433 128.376 114.236 129.514 115.286 130.393C117.022 132.08 119.153 133.305 121.484 133.959C123.815 134.612 126.272 134.672 128.632 134.133C130.993 133.595 133.181 132.475 134.998 130.875C136.815 129.276 138.203 127.247 139.036 124.974ZM142.804 118.539C143.058 122.163 142.212 125.78 140.376 128.915C138.541 132.05 135.801 134.557 132.516 136.109C141.237 135.389 148.985 131.579 157.918 132.298C154.227 126.421 149.001 121.664 142.804 118.539ZM114.947 134.458C108.089 126.922 107.411 124.72 108.978 114.772C108.978 114.01 108.978 113.925 108.216 114.01C103.938 114.635 99.6976 115.497 95.5151 116.592C94.6261 116.846 94.4991 117.142 94.9648 117.989C97.6301 122.701 101.337 126.741 105.803 129.801C108.55 131.844 111.65 133.365 114.947 134.288V134.458ZM129.384 115.788C129.384 118.497 130.611 120.021 132.559 120.445C133.648 120.41 134.705 120.059 135.599 119.435C136.493 118.811 137.187 117.941 137.597 116.931C137.597 116.126 137.216 116.169 136.75 116.042C134.972 115.534 133.151 115.11 131.373 114.56C129.595 114.01 129.384 114.814 129.384 115.618V115.788Z" fill="#101112"/>
<path d="M117.783 122.519L118.884 124.212C119.591 125.328 120.575 126.242 121.739 126.866C122.903 127.49 124.209 127.802 125.53 127.772C126.851 127.742 128.141 127.371 129.276 126.696C130.411 126.02 131.352 125.063 132.008 123.916C132.263 123.241 132.722 122.662 133.322 122.26C133.921 121.857 134.631 121.652 135.353 121.672C136.337 123.017 137.592 124.142 139.036 124.974C138.223 127.273 136.844 129.33 135.027 130.955C133.209 132.58 131.012 133.722 128.637 134.274C126.263 134.827 123.787 134.773 121.439 134.117C119.091 133.461 116.945 132.224 115.201 130.52C114.151 129.641 113.348 128.503 112.873 127.218C114.989 126.16 116.09 124.043 117.783 122.519Z" fill="#AE764C"/>
<path d="M117.783 122.519C116.09 124.043 114.989 126.16 112.873 127.218C111.719 125.328 111.032 123.189 110.87 120.981C110.708 118.772 111.075 116.556 111.941 114.518C112.068 114.192 112.298 113.916 112.596 113.733C112.894 113.55 113.244 113.468 113.592 113.502C115.963 113.502 118.376 113.502 121.382 113.502C119.956 114.479 118.853 115.858 118.212 117.463C117.571 119.069 117.422 120.829 117.783 122.519Z" fill="#8C5B32"/>
<path d="M129.383 115.618C129.383 114.814 129.68 113.883 131.373 114.391C133.067 114.899 134.972 115.364 136.75 115.872C137.215 115.872 137.766 115.872 137.596 116.761C137.187 117.772 136.493 118.642 135.599 119.266C134.704 119.889 133.648 120.24 132.559 120.275C130.611 119.979 129.341 118.539 129.383 115.618Z" fill="#F5F5F6"/>
<path d="M139.036 124.974C137.592 124.142 136.338 123.017 135.353 121.672C137.016 120.436 138.449 118.917 139.587 117.185C140.226 119.775 140.033 122.5 139.036 124.974Z" fill="#8C5B32"/>
<path d="M229.718 102.706C229.972 102.706 230.226 102.706 230.396 102.494C231.399 102.169 232.343 101.683 233.19 101.055C237.124 98.4936 240.722 95.45 243.901 91.995C244.282 91.5717 244.79 90.852 245.425 91.3177C246.06 91.7834 245.425 92.3337 245.425 92.8841C244.274 95.9938 242.316 98.741 239.752 100.843C239.117 101.436 238.228 101.817 237.762 102.918C241.425 101.791 244.992 100.375 248.431 98.6841C249.489 98.176 250.632 97.7527 251.733 97.3293C252.072 97.3293 252.453 96.9906 252.707 97.3293C252.961 97.668 252.707 98.049 252.453 98.303C251.87 99.041 251.218 99.7215 250.505 100.335C247.891 102.682 244.881 104.546 241.615 105.839C242.45 106.136 243.362 106.136 244.197 105.839C249.853 104.526 255.317 102.491 260.454 99.7848C261.563 99.0318 262.882 98.6467 264.222 98.6841C260.779 103.088 256.064 106.325 250.717 107.956C257.117 108.816 263.63 108.089 269.683 105.839C270.361 105.542 271.165 105.204 271.842 105.839C272.52 106.474 272.35 107.321 272.139 108.125C271.649 109.676 270.843 111.109 269.772 112.333C268.701 113.557 267.388 114.546 265.915 115.237C262.154 117.285 257.849 118.114 253.596 117.608C252.791 117.608 251.945 117.227 251.479 118.455C250.759 120.402 249.785 122.265 248.769 124.424C252.152 122.479 256.146 121.889 259.946 122.773C254.033 124.12 248.494 126.766 243.731 130.52C246.712 130.253 249.695 130.999 252.199 132.637C247.118 133.526 242.038 132.044 237.635 135.093C239.03 135.487 240.308 136.213 241.361 137.209C241.742 137.675 242.419 138.225 242.038 138.818C241.657 139.411 240.937 138.818 240.345 138.818L237.042 137.76C236.164 137.393 235.221 137.204 234.27 137.204C233.318 137.204 232.375 137.393 231.497 137.76C228.091 138.984 224.526 139.711 220.913 139.919C211.048 140.863 201.097 139.53 191.828 136.024C189.588 135.09 187.218 134.504 184.8 134.288C182.387 134.288 182.345 134.288 183.234 131.917C186.26 124.474 191.16 117.94 197.459 112.951C200.163 110.753 202.395 108.032 204.021 104.95C205.037 103.087 205.926 101.14 206.942 99.2768C207.365 98.5147 207.619 97.033 208.551 97.287C209.482 97.541 209.44 99.1074 209.313 100.081C209.313 101.69 208.678 103.299 208.424 104.526C214.901 104.23 218.119 98.4724 223.114 95.3819C222.659 98.0899 221.423 100.606 219.558 102.621C220.207 103.004 220.954 103.188 221.706 103.15C222.459 103.112 223.184 102.855 223.791 102.41C226.94 100.39 229.79 97.9386 232.259 95.1279C232.597 94.7469 233.021 94.1118 233.571 94.3658C234.121 94.6199 233.867 95.3396 233.571 95.8899C232.897 98.2301 231.679 100.377 230.015 102.156C229.676 102.283 229.549 102.537 229.718 102.706ZM227.263 130.52C228.313 129.641 229.116 128.503 229.591 127.218C230.736 125.324 231.416 123.186 231.578 120.979C231.74 118.772 231.378 116.558 230.523 114.518C230.395 114.192 230.165 113.916 229.868 113.733C229.57 113.55 229.22 113.468 228.872 113.501C226.459 113.501 224.088 113.501 221.082 113.501C222.531 114.488 223.65 115.887 224.292 117.519C224.934 119.15 225.069 120.937 224.681 122.646L223.58 124.339C222.867 125.455 221.88 126.367 220.712 126.99C219.545 127.613 218.236 127.924 216.913 127.894C215.59 127.865 214.297 127.495 213.159 126.82C212.02 126.145 211.075 125.189 210.413 124.043C210.17 123.36 209.713 122.774 209.111 122.37C208.509 121.966 207.793 121.766 207.069 121.799C205.416 120.551 203.985 119.034 202.835 117.312C202.216 119.9 202.393 122.615 203.343 125.101C204.174 127.398 205.569 129.45 207.4 131.066C209.231 132.683 211.439 133.813 213.821 134.353C216.203 134.892 218.683 134.824 221.032 134.154C223.381 133.485 225.524 132.235 227.263 130.52ZM184.927 132.129C193.649 131.409 201.396 135.22 210.075 135.939C206.798 134.413 204.054 131.939 202.198 128.837C200.341 125.736 199.458 122.149 199.66 118.539C193.562 121.649 188.415 126.343 184.758 132.129H184.927ZM237.042 129.801C241.423 126.662 245.028 122.564 247.584 117.82C248.092 116.973 247.923 116.677 247.076 116.423C242.893 115.329 238.653 114.467 234.375 113.84C233.74 113.84 233.486 113.84 233.613 114.602C235.222 124.551 234.545 126.752 227.686 134.288C231.058 133.39 234.231 131.868 237.042 129.801ZM211.091 114.306C209.313 114.856 207.492 115.28 205.714 115.788C205.249 115.788 204.698 115.788 204.867 116.677C205.274 117.681 205.961 118.546 206.847 119.17C207.734 119.793 208.781 120.147 209.863 120.19C211.853 119.894 213.123 118.243 213.081 115.534C213.038 114.814 212.784 113.883 211.091 114.306Z" fill="#101112"/>
<path d="M224.681 122.519L223.58 124.212C222.867 125.328 221.88 126.24 220.712 126.863C219.545 127.486 218.236 127.797 216.913 127.767C215.59 127.738 214.297 127.368 213.159 126.693C212.02 126.018 211.075 125.062 210.413 123.916C210.17 123.233 209.713 122.647 209.111 122.243C208.509 121.839 207.793 121.639 207.069 121.672C206.095 123.027 204.838 124.154 203.386 124.974C204.205 127.273 205.589 129.329 207.41 130.954C209.232 132.578 211.432 133.719 213.809 134.271C216.186 134.823 218.664 134.769 221.015 134.114C223.366 133.458 225.514 132.223 227.263 130.52C228.313 129.641 229.116 128.503 229.591 127.218C227.432 126.16 226.332 124.043 224.681 122.519Z" fill="#AE764C"/>
<path d="M224.681 122.519C226.332 124.043 227.432 126.16 229.591 127.218C230.736 125.324 231.416 123.186 231.578 120.979C231.74 118.772 231.378 116.558 230.523 114.518C230.396 114.192 230.165 113.916 229.868 113.733C229.57 113.55 229.22 113.468 228.872 113.502C226.459 113.502 224.088 113.502 221.082 113.502C222.508 114.479 223.611 115.858 224.252 117.463C224.893 119.069 225.042 120.829 224.681 122.519Z" fill="#8C5B32"/>
<path d="M213.081 115.618C213.081 114.814 212.784 113.883 211.091 114.391C209.398 114.899 207.493 115.364 205.714 115.872C205.249 115.872 204.698 115.872 204.868 116.761C205.274 117.766 205.962 118.631 206.848 119.254C207.734 119.878 208.781 120.232 209.863 120.275C211.853 119.979 213.123 118.539 213.081 115.618Z" fill="#F5F5F6"/>
<path d="M203.386 124.974C204.839 124.154 206.095 123.027 207.069 121.672C205.416 120.424 203.985 118.907 202.836 117.185C202.23 119.777 202.422 122.493 203.386 124.974Z" fill="#8C5B32"/>
</svg>
