<svg width="345" height="241" viewBox="0 0 345 241" fill="none" xmlns="http://www.w3.org/2000/svg">
<rect x="0.643066" y="1.26196" width="343.438" height="239.623" rx="23" fill="white"/>
<path d="M192.662 167.729C195.964 171.962 194.017 175.603 196.345 187.669C197.47 193.464 199.158 199.136 201.383 204.603H156.338C158.856 197.541 160.547 190.21 161.376 182.758C162.392 173.275 161.376 170.057 164.17 166.501C170.013 159.516 186.608 160.151 192.662 167.729Z" fill="#E2B28F"/>
<path d="M228.478 125.393C231.061 150.287 224.245 167.941 215.1 170.015C213.491 170.396 208.327 171.073 200.283 163.58C194.229 167.87 187 170.19 179.581 170.227C174.231 169.966 168.99 168.627 164.171 166.289C150.115 160.913 136.229 155.536 131.191 142.836C129.941 139.624 129.309 136.206 129.328 132.76V128.95C129.328 127.552 129.074 126.198 128.863 124.716C128.649 123.058 128.649 121.379 128.863 119.72C130.218 95.8432 130.895 83.9469 134.112 77.7236C146.347 53.931 206.802 50.9252 222.805 73.49C224.835 76.7223 226.389 80.2297 227.42 83.9046C231.725 97.3497 232.092 111.746 228.478 125.393Z" fill="#F3C096"/>
<path d="M266.241 139.618C265.332 141.198 264.053 142.534 262.516 143.513C261.328 144.312 260.183 145.174 259.086 146.095C258.4 146.515 257.823 147.091 257.403 147.776C256.982 148.462 256.731 149.238 256.669 150.04C256.607 150.841 256.736 151.647 257.046 152.389C257.356 153.131 257.838 153.789 258.451 154.309C260.907 157.272 260.314 159.685 256.631 161.167C252.711 162.725 248.565 163.64 244.354 163.876C243.678 163.813 242.998 163.813 242.322 163.876C241.925 163.909 241.543 164.038 241.209 164.254C240.875 164.469 240.6 164.764 240.407 165.112C240.214 165.459 240.11 165.849 240.105 166.247C240.099 166.644 240.192 167.037 240.374 167.39C240.728 168.393 241.152 169.369 241.644 170.311C242.215 171.348 242.46 172.533 242.346 173.712C242.233 174.89 241.767 176.006 241.009 176.916C240.329 177.997 239.294 178.808 238.081 179.21C236.868 179.611 235.554 179.579 234.363 179.117C230.806 177.339 227.504 179.117 224.117 179.117C223.821 179.117 223.525 179.117 223.228 179.117C220.637 178.712 217.984 179.178 215.686 180.442C213.388 181.706 211.574 183.697 210.528 186.103C210.159 186.861 209.522 187.455 208.739 187.768C207.956 188.082 207.084 188.091 206.294 187.796C202.863 186.707 199.546 185.29 196.388 183.562C195.604 183.008 194.96 182.28 194.505 181.436C194.049 180.591 193.795 179.653 193.763 178.694C193.128 173.868 192.789 168.999 192.281 164.173C192.177 163.696 192.259 163.198 192.511 162.781C192.763 162.363 193.166 162.059 193.636 161.929C204.091 156.875 212.202 147.992 216.285 137.12C216.751 136.062 217.005 135.469 218.487 135.681C219.511 135.767 220.539 135.581 221.468 135.142C222.397 134.704 223.194 134.028 223.779 133.183C226.415 129.488 227.741 125.018 227.547 120.482C225.938 120.948 224.625 122.049 223.017 122.43C221.422 122.835 219.744 122.766 218.187 122.232C216.631 121.698 215.264 120.722 214.253 119.424C213.111 118.196 212.341 116.668 212.034 115.019C211.726 113.37 211.894 111.668 212.517 110.11C213.068 108.671 214.38 107.528 213.66 105.877C212.804 103.722 211.331 101.866 209.427 100.542C208.21 99.6482 206.869 98.9352 205.447 98.4257C204.632 98.2561 203.865 97.9036 203.205 97.3947C202.546 96.8858 202.01 96.2337 201.639 95.4877C201.268 94.7417 201.072 93.9212 201.064 93.0881C201.056 92.255 201.238 91.431 201.595 90.6783C202.103 88.9425 203.034 87.3761 203.5 85.6403C204.412 82.9559 204.277 80.0262 203.124 77.4365C201.97 74.8467 199.882 72.7873 197.277 71.6696C196.261 71.0769 195.118 70.6112 193.636 69.9339C193.939 71.6705 193.803 73.4552 193.241 75.1261C192.679 76.7969 191.709 78.301 190.418 79.5017C189.572 80.4622 188.947 81.5974 188.588 82.8266C188.23 84.0559 188.146 85.349 188.344 86.6141C187.48 86.1182 186.801 85.3536 186.411 84.4365C186.021 83.5195 185.942 82.5002 186.185 81.5338C186.44 79.9673 186.823 78.424 187.328 76.9192C187.634 76.0227 187.758 75.0741 187.693 74.129C187.627 73.1839 187.374 72.2614 186.947 71.4156C186.516 70.636 185.906 69.9697 185.167 69.4716C184.429 68.9735 183.583 68.6577 182.698 68.5503C181.814 68.4429 180.917 68.5468 180.08 68.8535C179.244 69.1603 178.492 69.6611 177.887 70.3149C176.839 71.2924 175.599 72.042 174.246 72.5163C169.547 74.6755 168.997 78.274 172.764 81.8725C174.433 83.1822 176.016 84.5962 177.506 86.106C179.58 88.7732 179.623 91.525 177.083 93.2607C172.595 96.3089 169.759 99.6957 172.849 105.284C172.554 105.386 172.232 105.383 171.939 105.275C171.646 105.167 171.399 104.96 171.24 104.691C168.785 101.855 166.372 99.0184 164.086 96.2242C163.549 95.5668 163.256 94.7443 163.256 93.8958C163.256 93.0473 163.549 92.2248 164.086 91.5673C164.89 90.3819 165.694 89.1965 166.414 87.9688C166.63 87.7031 166.779 87.3888 166.847 87.0531C166.915 86.7173 166.9 86.3701 166.805 86.0411C166.709 85.7122 166.535 85.4114 166.297 85.1647C166.059 84.9179 165.765 84.7324 165.44 84.6243C164.232 84.1382 163.179 83.3334 162.392 82.2958L162.985 81.9148L165.017 82.9732C169.251 85.09 169.759 86.9104 166.456 90.3819C163.747 93.1761 164.213 96.0549 167.896 98.1717C168.145 96.0605 168.932 94.0487 170.182 92.3294C170.668 91.8288 171.037 91.2262 171.262 90.5652C171.486 89.9043 171.56 89.2017 171.479 88.5084C171.398 87.8151 171.164 87.1486 170.793 86.5573C170.422 85.966 169.924 85.4648 169.335 85.09C167.619 83.9288 166.185 82.3985 165.138 80.6111C164.09 78.8237 163.456 76.8245 163.281 74.7601C160.318 77.0039 160.275 77.3426 162.096 81.0681L161.715 81.5338C160.912 80.4713 160.323 79.2638 159.979 77.9776C157.542 80.8726 155.881 84.3399 155.153 88.0535C155.02 88.9507 154.641 89.7935 154.058 90.4884C153.475 91.1834 152.711 91.7034 151.851 91.9907C150.762 92.2696 149.755 92.8024 148.912 93.5456C148.069 94.2887 147.415 95.2211 147.001 96.2661C146.588 97.3112 146.429 98.4392 146.536 99.5578C146.643 100.676 147.013 101.754 147.617 102.702C147.829 103.083 148.04 103.506 148.294 103.887C148.773 104.492 149.107 105.2 149.269 105.955C149.431 106.71 149.417 107.492 149.229 108.24C149.041 108.989 148.683 109.685 148.183 110.273C147.684 110.861 147.055 111.327 146.347 111.634C146.347 111.634 145.839 111.38 146.093 111.169C147.041 110.188 147.638 108.921 147.792 107.566C147.945 106.211 147.645 104.843 146.94 103.675C145.627 100.204 144.315 96.7322 147.236 93.2607C146.517 93.4859 145.871 93.8989 145.365 94.4571C144.859 95.0153 144.511 95.6984 144.357 96.4359C144.226 98.2999 144.622 100.163 145.5 101.813C146.696 104.482 146.848 107.504 145.924 110.28C145.289 111.719 146.94 110.703 146.94 111.38C145.421 112.802 143.761 114.064 141.986 115.148C141.113 115.638 140.35 116.304 139.747 117.104C139.143 117.904 138.713 118.82 138.482 119.795C138.251 120.77 138.225 121.782 138.406 122.768C138.586 123.753 138.969 124.691 139.531 125.52C137.245 125.52 136.187 124.589 135.932 122.472C135.83 120.737 136.12 119.001 136.779 117.392C136.779 116.799 137.838 115.91 136.779 115.445C135.721 114.979 134.916 114.174 133.646 114.979C132.767 115.507 132.03 116.242 131.498 117.12C130.967 117.998 130.658 118.992 130.598 120.017C130.246 124.513 131.441 128.994 133.985 132.717C134.689 133.949 135.809 134.889 137.143 135.37C138.477 135.851 139.939 135.841 141.267 135.342C142.706 134.834 142.579 135.808 142.833 136.443C145.674 143.629 150.136 150.062 155.873 155.24C158.427 157.561 161.273 159.54 164.34 161.125C164.761 161.27 165.112 161.568 165.323 161.96C165.535 162.352 165.592 162.809 165.483 163.241C165.059 168.703 164.424 174.206 163.493 179.625C163.415 180.3 163.163 180.944 162.762 181.493C162.362 182.042 161.826 182.478 161.207 182.758C155.206 185.827 148.597 187.519 141.859 187.711C140.551 187.769 139.261 187.382 138.2 186.613C137.139 185.845 136.37 184.74 136.017 183.478C135.594 182.419 135.297 181.319 134.874 180.26C134.735 179.545 134.435 178.871 133.998 178.288C133.56 177.705 132.997 177.228 132.349 176.894C131.702 176.56 130.987 176.377 130.258 176.359C129.53 176.341 128.806 176.488 128.143 176.789C127 177.085 125.857 177.508 124.714 177.889C123.543 178.31 122.296 178.478 121.056 178.382C119.816 178.285 118.61 177.928 117.518 177.332C116.426 176.736 115.473 175.915 114.721 174.924C113.969 173.933 113.436 172.794 113.156 171.581C113.156 170.692 112.394 170.311 111.844 169.846C108.55 167.07 104.796 164.892 100.752 163.411C93.47 160.786 92.6233 158.457 96.2218 151.557C98.6349 146.985 98.6349 146.984 93.6393 145.545C86.908 143.513 84.2408 137.925 87.5007 132.125C87.8394 131.532 87.924 130.262 89.1941 130.643C89.4904 131.447 88.7284 131.786 88.4321 132.336C87.7068 133.358 87.2511 134.547 87.1071 135.792C86.9631 137.037 87.1354 138.298 87.6081 139.459C88.0808 140.619 88.8386 141.642 89.8115 142.432C90.7843 143.222 91.9407 143.754 93.1736 143.979L98.2539 145.503C98.7619 143.047 98.2539 141.269 95.7561 140.634C94.7644 140.287 93.8133 139.832 92.9196 139.279C92.1954 139.018 91.5359 138.603 90.9856 138.065C90.4354 137.526 90.0073 136.875 89.7303 136.157C89.4534 135.438 89.334 134.669 89.3802 133.9C89.4265 133.131 89.6373 132.382 89.9985 131.701C90.3372 130.685 89.6598 130.855 89.1941 130.643C88.8554 129.373 90.1678 129.204 90.6758 128.569C91.1839 127.934 92.2846 127.002 93.089 126.155C93.3433 125.925 93.5465 125.644 93.6856 125.331C93.8247 125.017 93.8966 124.678 93.8966 124.335C93.8966 123.992 93.8247 123.653 93.6856 123.339C93.5465 123.026 93.3433 122.745 93.089 122.515C92.4282 121.699 91.7215 120.921 90.9722 120.186C89.6466 118.85 88.8624 117.07 88.7707 115.191C88.7707 113.158 88.7707 110.957 88.7707 109.094C88.6402 108.189 88.7843 107.265 89.1843 106.443C89.5843 105.62 90.2218 104.936 91.0145 104.48C92.3693 103.675 92.3693 102.702 91.5649 101.474C90.7605 100.246 90.4642 99.3994 89.7021 98.2563C88.6611 96.8373 88.1284 95.109 88.1898 93.3502C88.2513 91.5913 88.9033 89.9044 90.0408 88.5615C91.5405 86.4152 93.5453 84.6708 95.8783 83.4822C98.2113 82.2935 100.801 81.6971 103.419 81.7455C104.032 81.8513 104.661 81.8207 105.261 81.6559C105.86 81.4911 106.417 81.1961 106.89 80.7919C107.363 80.3877 107.741 79.8842 107.997 79.3173C108.253 78.7504 108.381 78.134 108.372 77.5119C108.71 74.9725 108.837 72.4096 108.753 69.8492V69.4258L108.372 68.6215H109.176L109.473 68.8331C110.245 66.8502 111.53 65.1078 113.196 63.7839C114.862 62.4599 116.85 61.6019 118.956 61.2974C119.464 61.2974 119.887 61.2974 119.93 60.4931C120.298 60.5841 120.685 60.5551 121.035 60.4104C121.386 60.2657 121.681 60.0128 121.877 59.6887C122.609 58.744 123.532 57.9649 124.587 57.4026C125.454 56.9981 126.221 56.4051 126.83 55.6668C127.719 54.5661 127.169 53.423 126.83 52.3223V51.4333V50.5442C127.476 49.352 128.354 48.3012 129.413 47.4537L129.921 48.0464C129.246 49.232 128.835 50.5499 128.719 51.9093C128.602 53.2687 128.781 54.6373 129.243 55.9208C130.133 53.2113 130.006 50.3325 130.979 47.6654C131.191 47.115 130.641 47.1997 130.26 47.2844L129.752 46.9034C131.768 45.1315 134.001 43.6235 136.398 42.4158C138.294 41.4392 140.451 41.0892 142.558 41.4164C144.665 41.7435 146.615 42.7308 148.125 44.2362C148.335 44.4579 148.588 44.6344 148.868 44.7551C149.148 44.8757 149.45 44.9379 149.755 44.9379C150.06 44.9379 150.362 44.8757 150.642 44.7551C150.923 44.6344 151.175 44.4579 151.385 44.2362L156.762 40.0027L157.016 40.5107C155.197 42.5429 153.102 44.31 150.792 45.7603C151.806 45.9638 152.857 45.8903 153.832 45.5476C154.808 45.2049 155.674 44.6057 156.338 43.8129C158.921 41.2304 161.376 38.4363 165.906 39.156C165.541 38.5324 164.962 38.0636 164.275 37.8375C163.589 37.6114 162.844 37.6437 162.181 37.9282C160.561 38.4951 159.012 39.2481 157.566 40.172L157.016 39.7487C158.538 38.431 160.431 37.6175 162.435 37.4202C163.916 37.2085 165.61 37.4202 166.329 38.5633C167.391 39.9838 168.872 41.0352 170.563 41.5691C172.658 42.7964 174.384 44.5661 175.559 46.6917C177.294 49.3588 178.48 49.3165 180.173 46.6917C180.962 45.229 181.839 43.8152 182.798 42.4581C183.667 41.2819 184.77 40.2984 186.038 39.5697C187.305 38.8411 188.711 38.3831 190.164 38.2246C191.976 38.14 193.777 37.8849 195.541 37.4625C196.571 37.1894 197.66 37.2468 198.655 37.6266C199.65 38.0065 200.501 38.6896 201.087 39.5793C204.008 43.2202 204.474 43.2625 208.707 41.4844C209.823 41.0183 210.988 40.6775 212.179 40.4684C212.693 40.3232 213.234 40.2931 213.761 40.3803C214.289 40.4676 214.791 40.6699 215.231 40.973C215.672 41.2761 216.04 41.6725 216.31 42.1341C216.58 42.5956 216.745 43.111 216.793 43.6435C217.471 46.5647 217.979 46.734 221.027 46.8187C227.885 46.8187 232.923 48.8931 234.828 54.7778C235.164 56.1675 235.377 57.5842 235.463 59.0113C235.676 61.6037 236.572 64.0936 238.059 66.2277C239.546 68.3618 241.572 70.0641 243.93 71.1616C244.787 71.6574 245.791 71.8372 246.767 71.6696C253.583 69.8915 259.002 80.6024 256.165 85.7674C255.756 86.3565 255.475 87.0251 255.341 87.7297C255.207 88.4344 255.222 89.1594 255.385 89.8578C255.549 90.5562 255.857 91.2125 256.291 91.7841C256.724 92.3557 257.273 92.8299 257.901 93.1761C259.171 94.2345 260.695 95.1235 261.288 96.7322C262 98.2554 262.136 99.9854 261.669 101.601C260.932 105.223 259.737 108.737 258.113 112.058C257.899 112.317 257.741 112.618 257.648 112.941C257.556 113.265 257.53 113.603 257.574 113.937C257.618 114.27 257.729 114.591 257.902 114.88C258.075 115.168 258.305 115.418 258.578 115.614C259.791 116.52 260.628 117.839 260.933 119.322C261.237 120.805 260.987 122.347 260.23 123.658C259.425 125.563 261.415 126.113 262.262 127.256C262.262 127.68 262.262 128.188 262.516 128.569C262.77 128.95 262.516 129.204 263.193 129.077C263.193 130.304 263.913 131.278 264.251 132.421C265.077 134.227 265.182 136.28 264.545 138.161C263.907 140.041 262.576 141.608 260.822 142.539C259.764 143.114 258.84 143.908 258.113 144.868C257.689 145.249 257.224 145.587 257.393 146.307C257.867 146.128 258.258 145.781 258.494 145.333C261.213 143.747 263.646 141.715 265.691 139.322L266.241 139.618ZM223.652 64.8959C223.529 64.8892 223.407 64.909 223.293 64.954C223.18 64.9991 223.077 65.0682 222.992 65.1567C222.908 65.2453 222.844 65.3511 222.804 65.4668C222.764 65.5826 222.75 65.7056 222.763 65.8273C222.514 65.8262 222.268 65.8772 222.041 65.9769C221.813 66.0767 221.609 66.223 221.441 66.4065C221.274 66.59 221.147 66.8065 221.068 67.0422C220.989 67.2779 220.961 67.5274 220.985 67.7748C221.014 68.3483 221.227 68.897 221.593 69.3394C221.96 69.7818 222.459 70.0942 223.017 70.2302C224.106 70.4364 225.072 71.0619 225.705 71.9724C226.338 72.8828 226.589 74.0054 226.403 75.0988C226.403 75.4375 226.403 75.8608 226.827 76.0302C227.307 75.5531 227.666 74.9678 227.873 74.3233C228.081 73.6789 228.13 72.9941 228.018 72.3265C227.907 71.6588 227.636 71.0278 227.23 70.4862C226.824 69.9447 226.293 69.5085 225.684 69.2142C224.414 68.4521 222.297 68.1981 222.763 65.8273C222.885 65.8341 223.007 65.8143 223.121 65.7692C223.235 65.7242 223.337 65.6551 223.422 65.5665C223.506 65.478 223.571 65.3722 223.61 65.2565C223.65 65.1407 223.664 65.0177 223.652 64.8959ZM189.148 68.0711V67.4784L189.487 67.9441C189.735 69.8112 190.088 71.6628 190.545 73.4901C190.926 71.6273 193.974 72.347 192.958 70.0185C192.323 68.6215 192.747 66.6317 190.715 65.785C190.08 66.7587 191.096 68.3251 189.148 68.0711ZM157.82 75.8185C157.82 76.1149 157.82 76.5382 157.82 76.6652C157.82 76.7922 158.243 76.4112 158.328 76.2419C158.794 75.3105 156.592 71.5003 155.492 71.4156C155.208 71.4718 154.945 71.6035 154.729 71.7966C153.956 72.9246 153.542 74.2603 153.542 75.628C153.542 76.9957 153.956 78.3314 154.729 79.4594C156 78.401 155.83 76.2419 157.82 75.8185ZM205.955 96.6899C205.955 97.0709 206.463 97.3673 206.675 97.0286C206.887 96.6899 206.379 96.5629 206.125 96.3936C205.447 95.4443 205.038 94.3296 204.941 93.1671C204.844 92.0047 205.063 90.8376 205.574 89.7892C206.543 87.0499 206.543 84.0614 205.574 81.3221C205.649 82.9282 205.374 84.5314 204.77 86.0214C204.22 87.4184 203.458 88.7732 202.992 90.2549C202.669 90.8602 202.49 91.5321 202.47 92.218C202.449 92.9039 202.588 93.5852 202.875 94.2085C203.162 94.8318 203.59 95.3801 204.124 95.8106C204.659 96.2412 205.285 96.5421 205.955 96.6899ZM111.632 106.258C112.14 106.087 112.602 105.799 112.979 105.417C113.356 105.036 113.638 104.571 113.803 104.06C113.967 103.549 114.01 103.007 113.927 102.477C113.844 101.947 113.638 101.444 113.325 101.008C112.394 99.4417 110.15 99.0607 109.896 96.7746C109.896 96.7746 109.346 96.5629 109.092 96.5206C108.838 96.4782 107.314 96.5206 107.144 97.579C106.951 98.1555 106.955 98.7797 107.154 99.3541C107.353 99.9285 107.737 100.421 108.245 100.754C110.193 101.982 111.971 103.337 111.59 106.046L111.293 106.554L111.632 106.258ZM236.945 139.83C237.707 141.312 238.892 140.804 239.527 139.83C240.163 138.856 242.11 137.586 242.66 135.935C241.644 134.369 237.622 139.491 238.427 133.945C237.576 134.088 236.774 134.44 236.093 134.969C235.412 135.498 234.873 136.188 234.525 136.978C234.176 137.767 234.029 138.63 234.097 139.49C234.165 140.35 234.445 141.179 234.913 141.904C235.675 141.481 235.463 139.999 236.818 139.83H236.945ZM104.774 163.114C103.235 162.456 101.953 161.316 101.121 159.864C100.288 158.413 99.9506 156.731 100.159 155.071C100.107 153.184 100.249 151.297 100.582 149.44C100.65 149.279 100.683 149.107 100.681 148.932C100.679 148.758 100.641 148.587 100.569 148.428C100.498 148.269 100.394 148.126 100.266 148.009C100.137 147.892 99.9852 147.803 99.8203 147.747C98.9313 147.45 99.0583 148.382 98.8466 148.847C97.9999 150.583 97.0685 152.319 96.3065 154.139C96.0046 154.711 95.8187 155.338 95.7596 155.982C95.7005 156.626 95.7693 157.276 95.9621 157.894C96.1549 158.511 96.4678 159.085 96.8829 159.581C97.298 160.078 97.8071 160.487 98.3809 160.786C100.169 162.026 102.161 162.943 104.266 163.495C107.073 164.902 109.788 166.486 112.394 168.237C110.658 165.104 107.398 164.427 104.647 163.114H104.774ZM232.457 177.17C234.828 178.313 236.691 179.075 239.019 177.508C239.924 176.755 240.561 175.73 240.835 174.586C241.11 173.442 241.008 172.239 240.544 171.158C240.332 170.354 239.993 169.634 239.739 168.83C238.511 165.019 239.951 162.987 243.973 162.903C244.565 162.903 245.158 162.903 246.174 162.903C245.259 162.115 244.078 161.706 242.872 161.76C237.241 160.913 234.405 163.411 235.082 169.041C235.499 170.516 235.459 172.081 234.968 173.533C234.477 174.984 233.557 176.252 232.33 177.17H232.457ZM122.385 103.802C121.708 104.945 121.2 105.665 120.819 106.469C119.512 109.248 119.256 112.407 120.099 115.36C120.48 116.842 121.2 117.604 122.046 117.773C122.893 117.942 122.978 116.63 123.105 115.826C123.232 115.021 123.698 113.751 124.714 113.666C125.73 113.582 125.687 114.64 125.814 115.402C125.941 116.164 126.449 117.053 127.381 117.011C128.312 116.969 128.566 116.037 128.693 115.36C129.286 112.439 129.709 109.433 130.217 106.469C128.227 108.121 125.73 108.713 124.248 110.703C123.909 111.169 123.444 111.761 122.766 111.55C122.089 111.338 122.216 110.407 122.216 109.814C122.537 107.82 122.509 105.786 122.131 103.802H122.385ZM203.923 182.038L208.623 174.46C207.989 174.58 207.366 174.75 206.76 174.968C206.141 175.233 205.558 175.575 205.024 175.984C204.05 176.662 203.585 176.323 203.288 175.265C202.526 172.597 201.51 171.962 199.055 173.021C197.658 173.614 197.827 173.021 197.912 172.089C197.996 171.158 198.504 171.158 197.912 170.65C196.913 172.497 196.511 174.608 196.761 176.693C197.011 178.778 197.901 180.734 199.309 182.292C200.663 180.938 200.367 178.863 201.383 177.212C202.061 178.904 202.912 180.522 203.923 182.038ZM203.923 49.9092C198.801 45.2099 194.694 44.4479 193.043 47.9194C194.274 48.2394 195.417 48.8327 196.388 49.6552C197.488 50.4172 197.319 50.9252 196.134 51.2639C195.435 51.468 194.794 51.8299 194.258 52.3218C193.722 52.8137 193.306 53.4222 193.043 54.1004C196.896 53.4654 200.536 53.1267 202.992 57.1062C202.188 55.4975 202.611 53.677 201.595 52.3223C200.579 50.9676 200.833 50.3325 202.611 50.3749C203.077 50.3749 203.542 50.5442 203.966 49.9092H203.923ZM100.328 83.4812C89.2364 86.9527 86.8233 93.7264 93.6393 101.262C94.74 99.8651 94.105 98.2987 93.6393 97.0286C93.1838 95.6222 93.1205 94.1182 93.4562 92.6784C93.7919 91.2387 94.5139 89.9178 95.5444 88.8578C97.0685 87.0374 98.5926 85.5557 100.328 83.4812ZM122.131 176.154C125.476 176.154 126.661 175.011 126.576 172.259C126.576 171.793 126.576 171.243 127.169 171.37C128.651 171.666 128.185 170.904 128.016 170.1C127.785 168.927 127.309 167.816 126.619 166.84C126.195 166.289 125.899 165.57 125.052 165.866C124.206 166.162 124.206 166.84 124.206 167.517C124.163 168.053 124.163 168.591 124.206 169.126C124.502 171.158 123.571 171.243 122.046 170.523C120.522 169.803 119.168 168.872 119.93 171.751C119.93 172.089 119.93 172.386 119.506 172.386C117.178 172.386 118.533 173.614 118.914 174.079C119.708 175.128 120.848 175.863 122.131 176.154ZM146.051 161.252C143.595 161.929 142.495 163.792 140.97 165.104C140.166 164.427 140.97 163.326 139.997 162.649C139.065 163.814 138.375 165.152 137.965 166.586C137.55 167.757 137.499 169.025 137.816 170.226C138.133 171.426 138.804 172.504 139.743 173.317C140.124 173.614 140.462 173.952 140.97 173.783C141.478 173.614 141.436 173.063 141.436 172.64C141.548 171.432 141.448 170.214 141.14 169.041C141.022 168.783 141.011 168.489 141.111 168.223C141.21 167.957 141.411 167.741 141.669 167.623C141.927 167.505 142.222 167.495 142.488 167.594C142.754 167.693 142.969 167.894 143.087 168.152C143.384 168.576 143.595 169.041 144.103 169.846L146.051 161.252ZM115.188 73.8287C119.93 71.5426 124.714 73.109 129.37 72.6433C127.283 72.1744 125.158 71.8911 123.02 71.7966C120.861 71.7966 120.988 70.9076 121.708 69.5105C122.427 68.1134 123.274 66.7164 124.46 64.6419C122.656 65.5761 120.711 66.2055 118.702 66.5047C117.178 66.8857 115.019 66.5047 114.257 68.4945C113.96 69.2988 112.86 70.1879 113.622 70.9076C114.384 71.6273 114.553 70.0609 115.315 69.9339C116.077 69.8069 117.093 68.9602 117.644 70.1879C118.194 71.4156 117.39 71.839 116.458 72.1353C115.527 72.4317 115.4 72.347 115.188 73.8287ZM259.806 104.141C260.501 102.784 260.767 101.248 260.571 99.7365C260.374 98.2248 259.724 96.8082 258.705 95.6739C257.097 93.6841 254.472 92.4987 253.837 89.5776C253.031 90.9009 252.697 92.4582 252.889 93.9957C253.081 95.5333 253.788 96.9604 254.895 98.0447C256.784 99.8607 258.434 101.909 259.806 104.141ZM149.438 56.9792C149.141 56.9792 149.014 56.7675 148.887 56.9792C146.77 57.2332 144.357 58.3763 143.511 55.0318C143.511 54.4814 142.791 54.7354 142.325 55.0318C141.643 55.2268 141.01 55.5648 140.469 56.0235C139.928 56.4821 139.49 57.0507 139.186 57.6916C138.881 58.3324 138.717 59.0308 138.704 59.7401C138.69 60.4494 138.828 61.1535 139.108 61.8055C141.309 59.604 141.351 59.604 142.833 62.3135C143.299 63.0755 143.595 62.7368 144.019 62.3135C146.046 60.7755 147.868 58.9826 149.438 56.9792ZM160.783 168.279C160.694 168.47 160.623 168.668 160.572 168.872C160.572 169.761 161.63 170.904 160.233 171.454C158.836 172.005 158.582 170.692 158.074 169.93C157.963 169.774 157.799 169.662 157.613 169.615C157.427 169.569 157.23 169.59 157.058 169.676C156.592 169.888 156.762 170.269 157.058 170.608C157.57 171.871 157.734 173.247 157.533 174.595C157.332 175.943 156.773 177.212 155.915 178.27C155.661 178.736 155.195 179.202 155.619 179.668C155.879 179.888 156.209 180.009 156.55 180.009C156.891 180.009 157.221 179.888 157.481 179.668C158.209 179.01 158.875 178.287 159.471 177.508C159.767 177.212 159.852 176.408 160.318 176.619C162.308 177.635 161.926 175.9 162.265 175.011C162.548 173.85 162.561 172.64 162.305 171.473C162.048 170.306 161.527 169.214 160.783 168.279ZM95.4174 132.125C95.6291 130.897 95.8831 129.881 96.0101 128.865C96.0101 128.526 96.0101 128.103 95.7138 127.891C95.4174 127.68 95.0364 127.891 94.74 128.23C93.9273 128.843 93.2888 129.657 92.8878 130.593C92.4868 131.529 92.3372 132.553 92.4539 133.564C92.4539 135.173 93.724 136.316 95.2057 135.639C95.988 135.302 96.8307 135.128 97.6824 135.128C98.534 135.128 99.3767 135.302 100.159 135.639V131.659C100.159 130.262 99.397 130.304 98.3386 130.601C97.2802 130.897 96.8568 132.125 95.4174 132.125ZM231.653 162.268C228.732 162.733 227.928 165.231 226.319 167.136L225.641 165.993C225.345 165.443 225.641 164.342 224.752 164.469C223.863 164.596 223.694 165.485 223.694 166.247C223.371 168.016 223.718 169.842 224.668 171.37C225.387 171.37 225.472 170.608 225.726 170.184C225.98 169.761 226.573 168.11 227.547 170.184C228.182 171.454 229.113 170.438 229.325 169.761C230.478 167.381 231.263 164.841 231.653 162.225V162.268ZM216.793 149.567C217.217 149.567 217.217 149.228 217.344 148.974C218.825 145.884 219.291 145.714 222.382 147.069C223.271 147.45 224.202 147.831 225.091 147.069C225.44 146.775 225.7 146.39 225.842 145.956C225.984 145.522 226.003 145.057 225.895 144.614C225.599 142.92 224.456 142.582 222.89 142.624C217.471 142.751 215.862 144.36 216.793 149.567ZM240.755 113.793C240.265 114.134 239.692 114.338 239.096 114.382C238.501 114.427 237.904 114.311 237.368 114.047C235.711 114.558 234.171 115.392 232.838 116.503C232.796 116.641 232.796 116.788 232.838 116.926C233.14 117.781 233.256 118.69 233.177 119.593C233.177 120.144 233.177 120.736 233.728 120.948C234.278 121.16 234.49 120.271 234.786 119.847C235.178 119.309 235.532 118.743 235.844 118.154C236.649 116.842 237.453 116.757 238.469 118.154C239.485 119.551 239.4 120.482 240.713 121.414L240.755 113.793ZM100.667 97.1133C101.541 96.4414 102.148 95.4813 102.381 94.4038C102.613 93.3262 102.456 92.2011 101.937 91.2286C101.217 89.7892 101.556 88.9849 103.08 88.6462C103.715 88.6462 104.393 88.3075 104.096 87.4608C103.974 87.1767 103.749 86.9491 103.467 86.8236C103.184 86.698 102.865 86.6837 102.572 86.7834C101.852 86.7834 101.133 87.1221 100.371 87.1644C99.6956 87.2491 99.0625 87.5376 98.5557 87.9914C98.0489 88.4453 97.6925 89.0429 97.5342 89.7046C97.2681 90.3055 97.2334 90.9836 97.4365 91.6086C97.6396 92.2336 98.0664 92.7617 98.6349 93.0914C99.3179 93.5025 99.871 94.098 100.231 94.8095C100.59 95.521 100.741 96.3196 100.667 97.1133ZM255.276 104.649C253.583 107.316 252.778 107.612 250.027 106.512C249.476 106.3 249.011 106.173 248.587 106.512C248.164 106.85 248.587 107.274 248.587 107.697C249.113 108.848 249.551 110.037 249.9 111.253C250.281 112.989 250.789 112.65 251.635 111.55C251.85 111.152 252.167 110.821 252.555 110.59C252.943 110.359 253.386 110.237 253.837 110.237C256.335 110.237 256.546 110.237 256.292 107.612C256.178 106.561 255.831 105.549 255.276 104.649ZM127.762 85.5557C126.661 86.1907 127.127 87.6301 126.365 88.4768C125.603 89.3235 126.365 89.9586 127.084 90.1279C128.482 90.277 129.821 90.7717 130.979 91.5673C131.572 91.9907 132.461 91.3556 132.842 90.6783C133.299 89.9845 133.615 89.2078 133.773 88.3922C134.197 85.598 134.197 85.5557 131.657 86.3177C130.991 86.4768 130.298 86.4911 129.626 86.3596C128.954 86.2282 128.319 85.954 127.762 85.5557ZM114.468 144.825C114.558 144.635 114.629 144.437 114.68 144.233C115.019 142.92 115.273 141.439 116.628 140.846C117.982 140.253 118.617 141.481 119.506 142.074C120.395 142.666 120.607 141.82 120.565 141.185C120.31 139.517 119.825 137.893 119.125 136.358C118.871 135.766 118.702 134.834 117.898 134.919C117.093 135.004 117.559 135.935 117.347 136.485C117.136 137.036 116.839 138.136 115.823 138.263C114.807 138.39 114.172 137.755 113.791 136.866C113.41 135.977 113.791 136.231 112.944 136.358C112.775 139.364 114.426 141.989 114.468 144.825ZM204.77 68.6215C205.18 69.908 206.056 70.995 207.226 71.6696C207.903 72.1353 208.538 73.0244 207.226 73.2784C205.151 73.6594 205.744 74.8448 206.294 75.8608C206.831 76.8458 207.23 77.9 207.48 78.9937C207.48 79.4594 207.734 79.9251 208.242 79.9674C208.75 80.0097 208.792 79.3324 208.961 78.9513C209.131 78.5703 209.004 77.0886 210.358 77.0886C211.713 77.0886 211.036 72.855 210.358 72.6433C208.332 71.5458 206.454 70.1943 204.77 68.6215ZM219.714 90.5936C219.679 91.3775 219.936 92.1467 220.434 92.7527C221.662 94.4461 223.652 95.7162 223.525 98.214C223.525 98.5103 223.906 98.8067 224.16 98.5527C225.195 97.5757 225.992 96.3734 226.488 95.0388C226.565 94.663 226.516 94.2722 226.347 93.9275C226.179 93.5828 225.901 93.3037 225.557 93.1337C224.853 92.5862 224.023 92.2225 223.144 92.0753C221.196 92.0753 220.942 91.1863 221.831 89.6622C222.17 89.0695 222.932 88.1805 221.831 87.7148C220.731 87.2491 220.265 88.1381 220.011 89.1119L219.714 90.5936ZM217.936 48.6391C217.209 48.205 216.613 47.5823 216.21 46.8371C215.808 46.0919 215.614 45.2517 215.65 44.4056C215.65 41.8231 214.423 41.1457 211.882 41.8654L209.723 42.6275C212.136 44.9136 212.644 49.5282 217.725 48.8085L217.936 48.6391ZM223.948 54.8201C224.677 54.8838 225.387 55.0914 226.036 55.4308C226.685 55.7702 227.26 56.2347 227.728 56.7975C228.197 57.3603 228.549 58.0103 228.765 58.71C228.981 59.4097 229.056 60.1452 228.986 60.8741C229.875 59.9427 230.298 59.0113 230.849 58.969C232.246 58.969 232.669 58.2493 232.5 56.9792C232.497 56.3472 232.289 55.7331 231.907 55.2293C231.525 54.7255 230.991 54.3591 230.383 54.1851C228.141 53.6877 225.795 53.9715 223.736 54.9894L223.948 54.8201ZM166.075 71.3309C164.97 73.4583 164.727 75.93 165.398 78.2316C165.443 78.4154 165.545 78.5802 165.689 78.702C165.834 78.8238 166.014 78.8963 166.202 78.909C166.668 78.909 166.753 78.528 166.88 78.147C167.261 77.0462 167.176 75.7762 168.023 74.7601C168.333 75.5892 168.859 76.3201 169.547 76.8769C170.013 74.5061 171.494 72.6433 171.833 69.8492C170.406 70.3834 169.138 71.2721 168.15 72.4317C167.007 73.9981 166.668 73.3207 166.075 71.3309ZM144.908 151.768C145.195 150.016 145.079 148.22 144.569 146.519C144.569 145.926 144.103 145.206 143.384 145.63C142.868 146.017 142.257 146.258 141.616 146.325C140.975 146.392 140.327 146.283 139.743 146.011C139.126 145.687 138.599 145.217 138.207 144.641C137.816 144.065 137.572 143.401 137.499 142.709C136.06 145.587 136.991 148.128 139.404 148.043C140.604 147.934 141.805 148.235 142.812 148.896C143.819 149.557 144.572 150.54 144.95 151.684L144.908 151.768ZM240.163 98.2563C240.713 96.5206 239.824 95.5045 240.163 94.4038C240.501 93.3031 240.163 92.7951 239.146 92.668C238.13 92.541 237.157 92.2447 236.606 93.4301C236.056 94.6155 235.802 94.7848 235.167 93.6418C234.913 93.1761 234.617 92.9221 234.151 93.2607C233.685 93.5994 234.151 94.0228 234.151 94.4461C234.151 94.8695 235.082 95.5045 235.717 95.8855C236.987 96.8169 239.019 96.2242 240.163 98.2563ZM260.357 135.469C260.982 133.965 261.005 132.279 260.422 130.758C259.839 129.237 258.694 127.999 257.224 127.298C256.589 127.002 255.869 126.198 255.234 127.002C254.599 127.807 255.234 128.611 255.7 129.246C256.136 129.873 256.681 130.418 257.308 130.855C258.187 131.286 258.934 131.946 259.47 132.766C260.006 133.585 260.313 134.533 260.357 135.512V135.469ZM95.2481 116.884C96.1371 116.588 95.8408 115.783 96.2218 115.36C96.658 114.78 96.8939 114.074 96.8939 113.349C96.8939 112.623 96.658 111.918 96.2218 111.338C95.5444 110.195 94.359 110.83 93.343 111.042C92.9063 111.079 92.4672 111.079 92.0306 111.042C91.1415 111.042 91.0569 111.846 90.9299 112.481C90.8526 112.784 90.8678 113.103 90.9734 113.397C91.079 113.692 91.2703 113.948 91.5225 114.132C92.3269 114.556 92.3693 113.582 92.6656 113.158C92.962 112.735 93.2583 112.227 93.851 112.312C94.4437 112.396 94.486 113.243 94.5284 113.793C94.6192 114.885 94.9211 115.949 95.4174 116.926L95.2481 116.884ZM256.673 116.08C256.552 117.313 256.676 118.558 257.04 119.742C257.403 120.927 257.998 122.028 258.79 122.98C260.23 120.059 259.806 118.662 256.843 116.122L256.673 116.08ZM214.888 105.03C215.109 104.248 215.138 103.424 214.972 102.629C214.806 101.833 214.449 101.09 213.934 100.462C213.418 99.834 212.758 99.3401 212.01 99.0224C211.262 98.7046 210.449 98.5725 209.639 98.6373C211.845 100.348 213.64 102.533 214.888 105.03ZM256.927 154.52L256.377 159.346C259.298 157.738 259.425 156.595 256.927 154.52ZM200.536 42.5428C200.54 41.9498 200.403 41.3644 200.135 40.8354C199.867 40.3063 199.476 39.8489 198.996 39.501C198.516 39.1532 197.959 38.9251 197.373 38.8356C196.787 38.7461 196.188 38.7979 195.626 38.9866C197.553 39.7083 199.249 40.9369 200.536 42.5428ZM123.274 60.4084C125.319 60.0659 127.186 59.0353 128.566 57.4872C126.407 58.2493 124.333 58.4186 123.274 60.4084ZM204.77 67.5631C204.77 67.5631 204.558 67.0551 204.389 67.0127C204.22 66.9704 203.881 67.3091 203.923 67.5631C203.966 67.8171 203.923 68.1981 204.262 68.2405C204.601 68.2828 204.474 67.9864 204.77 67.5631Z" fill="#2A1C13"/>
<path d="M262.516 128.484C262.135 128.103 262.262 127.595 262.262 127.171C267.088 130.431 268.443 133.733 266.834 138.052V137.29C267.118 135.686 266.934 134.034 266.303 132.532C265.673 131.03 264.622 129.742 263.278 128.823C263.193 128.526 262.897 128.442 262.516 128.484Z" fill="#543A29"/>
<path d="M266.622 138.687L266.241 139.618L265.648 139.195L266.283 138.433L266.622 138.687Z" fill="#2A1C13"/>
<path d="M266.707 137.29V138.052V138.687L266.368 138.433L266.707 137.29Z" fill="#2A1C13"/>
<path d="M127.338 50.3749V51.2639C126.788 50.8829 127 50.6289 127.338 50.3749Z" fill="#DAD4D1"/>
<path d="M162.816 81.9148L162.435 81.3221L163.027 80.9834L163.451 81.4491L162.816 81.9148Z" fill="#2A1C13"/>
<path d="M162.435 81.3221C162.375 81.3039 162.32 81.2712 162.276 81.2269C162.232 81.1826 162.199 81.1281 162.181 81.0681L162.562 80.6024L163.027 80.9834L162.435 81.3221Z" fill="#2A1C13"/>
<path d="M108.626 69.5105V69.9339L108.415 69.6375L108.626 69.5105Z" fill="#543A29"/>
<path d="M110.828 62.2711C110.802 62.1884 110.802 62.0998 110.828 62.0171L111.378 62.3134L110.955 62.7368L110.828 62.2711Z" fill="#543A29"/>
<path d="M129.413 47.4537C129.483 47.3142 129.604 47.2078 129.752 47.1573L130.26 47.5384L129.921 48.0464L129.413 47.4537Z" fill="#2A1C13"/>
<path d="M156.762 40.426C156.78 40.366 156.813 40.3115 156.857 40.2672C156.901 40.2229 156.956 40.1902 157.016 40.172L157.566 40.5954L157.016 40.934L156.762 40.426Z" fill="#2A1C13"/>
<path d="M122.131 103.802C122.481 105.791 122.481 107.825 122.131 109.814C122.131 110.407 121.793 111.296 122.682 111.55C123.571 111.804 123.825 111.169 124.163 110.703C125.645 108.713 128.143 108.12 130.133 106.469C129.625 109.433 129.201 112.439 128.609 115.36C128.609 116.037 128.228 117.011 127.296 117.011C126.365 117.011 125.899 116.291 125.73 115.402C125.561 114.513 125.476 113.582 124.629 113.666C123.782 113.751 123.19 114.809 123.02 115.826C122.851 116.842 123.274 118.027 121.962 117.773C120.65 117.519 120.396 116.842 120.015 115.36C119.172 112.407 119.427 109.248 120.734 106.469C120.946 105.665 121.454 104.945 122.131 103.802Z" fill="#543A29"/>
<path d="M203.923 182.038C202.925 180.506 202.088 178.875 201.426 177.17C200.41 178.821 200.706 180.895 199.351 182.25C197.944 180.692 197.054 178.735 196.804 176.651C196.554 174.566 196.956 172.455 197.954 170.608C198.462 171.116 197.954 171.539 197.954 172.047C197.954 172.555 197.7 173.571 199.097 172.978C201.595 171.92 202.611 172.555 203.331 175.222C203.627 176.281 204.093 176.619 205.067 175.942C205.601 175.532 206.184 175.191 206.802 174.926C207.409 174.707 208.032 174.538 208.665 174.418L203.923 182.038Z" fill="#543A29"/>
<path d="M203.966 49.9092C203.542 50.5442 203.077 50.3749 202.653 50.3749C200.875 50.3749 200.579 50.8829 201.637 52.3223C202.696 53.7617 202.23 55.4975 203.034 57.1062C200.579 53.1267 196.938 53.4654 193.085 54.1004C193.361 53.408 193.796 52.7904 194.355 52.2975C194.914 51.8047 195.581 51.4506 196.303 51.2639C197.488 50.9252 197.658 50.4172 196.557 49.6552C195.587 48.8327 194.444 48.2394 193.212 47.9194C194.737 44.4479 198.843 45.2099 203.966 49.9092Z" fill="#543A29"/>
<path d="M122.131 176.154C120.848 175.863 119.709 175.128 118.914 174.079C118.533 173.614 117.178 172.174 119.506 172.386C119.887 172.386 120.014 172.089 119.93 171.751C119.168 168.872 120.776 169.973 122.047 170.523C123.317 171.073 124.502 171.158 124.206 169.126C124.163 168.591 124.163 168.053 124.206 167.517C124.206 166.84 124.206 166.078 125.052 165.866C125.899 165.654 126.195 166.289 126.619 166.84C127.309 167.816 127.786 168.927 128.016 170.1C128.016 170.904 128.651 171.666 127.169 171.37C126.492 171.37 126.576 171.793 126.576 172.259C126.661 175.011 125.476 176.238 122.131 176.154Z" fill="#543A29"/>
<path d="M146.051 161.252L144.103 169.719C143.595 168.914 143.384 168.449 143.087 168.025C142.969 167.767 142.754 167.566 142.488 167.467C142.222 167.368 141.927 167.378 141.669 167.496C141.411 167.614 141.21 167.83 141.111 168.096C141.011 168.362 141.022 168.656 141.14 168.914C141.448 170.087 141.549 171.305 141.436 172.513C141.436 172.936 141.436 173.444 140.97 173.656C140.505 173.868 140.124 173.656 139.743 173.19C138.804 172.377 138.133 171.299 137.816 170.099C137.499 168.898 137.551 167.63 137.965 166.459C138.375 165.025 139.065 163.687 139.997 162.522C141.013 163.199 139.997 164.3 140.97 164.977C142.495 163.792 143.595 161.76 146.051 161.252Z" fill="#543A29"/>
<path d="M115.188 73.8287C115.4 72.347 115.95 72.3046 116.458 72.1353C116.966 71.9659 118.194 71.3309 117.644 70.1879C117.093 69.0448 116.162 69.7645 115.315 69.9338C114.468 70.1032 114.341 71.6273 113.622 70.9076C112.902 70.1879 113.96 69.2988 114.257 68.4944C115.019 66.42 117.178 66.8857 118.702 66.5047C120.667 66.192 122.569 65.563 124.333 64.6419C123.147 66.7163 122.3 68.0711 121.581 69.5105C120.861 70.9499 120.734 71.7543 122.893 71.7966C125.031 71.891 127.156 72.1744 129.243 72.6433C124.714 73.109 120.099 71.5426 115.188 73.8287Z" fill="#543A29"/>
<path d="M149.438 56.9792C147.854 58.9081 146.033 60.6293 144.019 62.1018C143.595 62.3982 143.299 62.7368 142.833 62.1018C141.351 59.3923 141.309 59.3923 139.108 61.5938C138.828 60.9418 138.69 60.2378 138.704 59.5284C138.717 58.8191 138.881 58.1207 139.186 57.4799C139.49 56.8391 139.928 56.2704 140.469 55.8118C141.01 55.3532 141.643 55.0151 142.325 54.8201C142.791 54.8201 143.384 54.4391 143.511 54.8201C144.357 58.1646 146.77 57.0215 148.887 56.7675C149.014 56.7675 149.141 56.8945 149.438 56.9792Z" fill="#543A29"/>
<path d="M160.784 168.279C161.464 169.229 161.924 170.318 162.129 171.468C162.334 172.618 162.28 173.8 161.969 174.926C161.63 175.815 161.969 177.551 160.022 176.535C159.556 176.323 159.471 177.127 159.175 177.424C158.579 178.203 157.913 178.925 157.185 179.583C156.925 179.804 156.595 179.925 156.254 179.925C155.912 179.925 155.582 179.804 155.322 179.583C154.899 179.117 155.322 178.651 155.619 178.186C156.477 177.127 157.036 175.858 157.237 174.51C157.438 173.163 157.274 171.786 156.762 170.523C156.762 170.184 156.423 169.803 156.762 169.592C156.933 169.506 157.13 169.484 157.317 169.531C157.503 169.577 157.667 169.689 157.778 169.846C158.286 170.608 158.709 171.835 159.937 171.37C161.165 170.904 160.191 169.676 160.276 168.787C160.426 168.6 160.596 168.43 160.784 168.279Z" fill="#543A29"/>
<path d="M95.4176 132.125C96.857 132.125 97.3227 130.855 98.3387 130.558C99.3548 130.262 100.159 130.22 100.159 131.617V135.596C99.3769 135.26 98.5342 135.086 97.6825 135.086C96.8309 135.086 95.9882 135.26 95.2059 135.596C93.7242 136.274 92.5811 135.131 92.4541 133.522C92.3327 132.514 92.4757 131.493 92.8691 130.557C93.2626 129.622 93.8928 128.805 94.6979 128.188C94.9942 127.976 95.2482 127.595 95.6716 127.849C96.095 128.103 96.0526 128.484 95.968 128.823C95.8833 129.839 95.6293 130.855 95.4176 132.125Z" fill="#543A29"/>
<path d="M231.653 162.225C231.25 164.797 230.465 167.294 229.325 169.634C229.325 170.311 228.181 171.327 227.546 170.057C226.573 168.152 226.276 169.38 225.726 170.057C225.176 170.735 225.387 171.116 224.668 171.243C223.718 169.715 223.371 167.889 223.694 166.12C223.694 165.358 223.694 164.427 224.752 164.342C225.811 164.257 225.345 165.316 225.641 165.866L226.319 166.925C227.927 165.189 228.732 162.691 231.653 162.225Z" fill="#543A29"/>
<path d="M216.793 149.567C215.862 144.36 217.344 142.751 222.89 142.539C224.456 142.539 225.599 142.836 225.896 144.529C226.003 144.973 225.985 145.437 225.842 145.871C225.7 146.305 225.44 146.69 225.091 146.984C224.202 147.831 223.271 147.45 222.382 146.984C219.291 145.63 218.826 145.799 217.344 148.89C217.217 149.059 217.217 149.567 216.793 149.567Z" fill="#543A29"/>
<path d="M240.755 113.793V121.287C239.443 120.355 239.231 118.958 238.512 118.027C237.792 117.096 236.691 116.842 235.887 118.027C235.574 118.616 235.221 119.182 234.828 119.72C234.532 120.144 234.828 121.16 233.77 120.821C232.712 120.482 233.22 120.017 233.22 119.466C233.298 118.563 233.183 117.654 232.881 116.799C232.839 116.661 232.839 116.514 232.881 116.376C234.213 115.265 235.753 114.431 237.411 113.92C237.93 114.195 238.513 114.328 239.1 114.305C239.687 114.283 240.258 114.107 240.755 113.793Z" fill="#543A29"/>
<path d="M100.667 97.1133C100.742 96.3196 100.59 95.521 100.231 94.8095C99.8713 94.098 99.3182 93.5025 98.6352 93.0914C98.0667 92.7617 97.6399 92.2336 97.4368 91.6086C97.2336 90.9836 97.2684 90.3055 97.5344 89.7046C97.6928 89.0429 98.0491 88.4453 98.5559 87.9915C99.0627 87.5376 99.6959 87.2491 100.371 87.1644C101.133 87.1644 101.853 86.8681 102.572 86.7834C102.865 86.6837 103.185 86.698 103.467 86.8236C103.75 86.9492 103.974 87.1767 104.096 87.4608C104.393 88.3075 103.715 88.5192 103.08 88.6462C101.556 88.9849 101.218 89.7892 101.937 91.2286C102.456 92.2012 102.614 93.3262 102.381 94.4038C102.148 95.4813 101.541 96.4414 100.667 97.1133Z" fill="#543A29"/>
<path d="M255.276 104.649C255.864 105.583 256.227 106.641 256.335 107.739C256.589 110.237 256.335 110.534 253.879 110.364C253.428 110.364 252.985 110.486 252.598 110.717C252.21 110.948 251.892 111.279 251.678 111.677C250.831 112.777 250.323 113.116 249.942 111.38C249.594 110.164 249.155 108.975 248.63 107.824C248.63 107.401 248.164 107.02 248.63 106.639C249.096 106.258 249.519 106.3 250.069 106.639C252.779 107.612 253.583 107.316 255.276 104.649Z" fill="#543A29"/>
<path d="M127.762 85.5557C128.318 85.954 128.954 86.2282 129.626 86.3596C130.298 86.4911 130.991 86.4768 131.656 86.3177C134.197 85.5557 134.197 85.598 133.773 88.3921C133.615 89.2078 133.299 89.9845 132.842 90.6783C132.461 91.3556 131.572 91.9907 130.979 91.5673C129.82 90.7717 128.482 90.277 127.084 90.1279C126.238 90.1279 125.645 89.2812 126.365 88.4768C127.084 87.6724 126.661 86.1907 127.762 85.5557Z" fill="#543A29"/>
<path d="M114.469 144.825C114.469 141.947 112.775 139.322 112.945 136.358C113.664 136.358 113.664 136.57 113.791 136.866C113.918 137.163 114.765 138.433 115.823 138.263C116.882 138.094 117.009 137.205 117.347 136.485C117.686 135.766 117.093 135.046 117.898 134.919C118.702 134.792 118.871 135.766 119.126 136.358C119.815 137.853 120.299 139.433 120.565 141.058C120.565 141.693 120.565 142.709 119.507 141.947C118.448 141.185 117.898 140.084 116.628 140.719C115.358 141.354 115.019 142.793 114.68 144.106C114.637 144.353 114.566 144.594 114.469 144.825Z" fill="#543A29"/>
<path d="M236.818 139.83C235.464 139.83 235.675 141.481 234.913 142.116C234.443 141.377 234.167 140.531 234.11 139.656C234.054 138.782 234.219 137.907 234.591 137.114C234.962 136.32 235.528 135.633 236.236 135.116C236.943 134.599 237.77 134.269 238.639 134.157C237.707 139.703 241.729 134.58 242.872 136.147C242.322 137.798 240.798 138.729 239.739 140.041C238.681 141.354 237.919 141.312 237.157 140.041H238.173C238.173 140.041 238.173 139.618 237.919 139.533C237.665 139.449 236.903 139.449 236.818 139.83Z" fill="#543A29"/>
<path d="M111.632 106.215C112.013 103.506 110.235 101.982 108.288 100.923C107.779 100.59 107.395 100.098 107.196 99.5234C106.997 98.949 106.994 98.3248 107.187 97.7483C107.187 96.6899 108.288 96.6475 109.134 96.6899C109.981 96.7322 109.939 96.6899 109.939 96.9439C110.193 99.0607 112.436 99.4417 113.368 101.177C113.681 101.613 113.887 102.117 113.97 102.647C114.053 103.177 114.01 103.719 113.845 104.229C113.681 104.74 113.398 105.205 113.021 105.587C112.644 105.968 112.183 106.256 111.674 106.427L111.632 106.215Z" fill="#543A29"/>
<path d="M204.77 68.6215C206.542 70.0755 208.49 71.2989 210.57 72.2623C211.247 72.474 211.247 76.4959 210.57 76.7075C209.893 76.9192 209.427 78.1046 209.046 78.9513C208.665 79.798 209.046 79.9674 208.326 79.9674C207.606 79.9674 207.649 79.4594 207.564 78.9937C207.315 77.9 206.916 76.8458 206.379 75.8608C205.828 74.8448 205.236 73.6594 207.31 73.2784C208.538 73.0244 207.903 72.1353 207.31 71.6696C206.109 71.0112 205.201 69.9221 204.77 68.6215Z" fill="#543A29"/>
<path d="M219.503 90.7629L219.884 89.2812C220.138 88.3075 220.646 87.4184 221.704 87.8841C222.763 88.3498 221.958 89.2388 221.704 89.8315C220.815 91.3556 221.069 92.1177 223.017 92.2447C223.896 92.3918 224.726 92.7556 225.43 93.303C225.774 93.473 226.052 93.7521 226.22 94.0968C226.389 94.4415 226.438 94.8323 226.361 95.2081C225.865 96.5427 225.068 97.745 224.033 98.722C223.779 98.976 223.355 98.722 223.398 98.3833C223.398 95.8855 221.535 94.6154 220.307 92.922C219.778 92.3284 219.491 91.5579 219.503 90.7629Z" fill="#543A29"/>
<path d="M223.736 54.9894C225.753 54.0765 228.015 53.8533 230.171 54.3544C230.779 54.5284 231.314 54.8948 231.695 55.3987C232.077 55.9025 232.285 56.5165 232.288 57.1485C232.288 58.4186 232.034 59.0113 230.637 59.1383C230.087 59.1383 229.663 60.112 228.774 61.0434C228.844 60.3145 228.769 59.579 228.553 58.8793C228.337 58.1797 227.985 57.5297 227.517 56.9668C227.048 56.404 226.473 55.9395 225.824 55.6001C225.175 55.2607 224.466 55.0532 223.736 54.9894Z" fill="#543A29"/>
<path d="M166.076 71.3309C166.499 73.3207 167.007 73.9981 168.15 72.4316C169.139 71.2721 170.406 70.3834 171.833 69.8492C171.495 72.5587 170.013 74.5061 169.547 76.8769C168.859 76.3201 168.333 75.5892 168.023 74.7601C167.176 75.7762 167.261 77.0462 166.88 78.1469C166.88 78.528 166.668 78.8666 166.203 78.909C166.014 78.8963 165.834 78.8238 165.69 78.702C165.545 78.5802 165.443 78.4154 165.398 78.2316C164.728 75.9299 164.97 73.4582 166.076 71.3309Z" fill="#543A29"/>
<path d="M157.82 75.8185C155.83 76.2418 156 78.4009 154.814 79.4593C154.041 78.3314 153.626 76.9957 153.626 75.628C153.626 74.2602 154.041 72.9245 154.814 71.7966C155.029 71.6034 155.293 71.4718 155.576 71.4156C156.677 71.4156 158.878 75.3105 158.413 76.2418C158.413 76.2418 158.413 77.0039 157.905 76.6652C157.397 76.3265 157.905 76.1148 157.905 75.8185V75.6068L157.82 75.8185Z" fill="#543A29"/>
<path d="M144.95 151.684C144.589 150.532 143.849 149.536 142.849 148.859C141.849 148.182 140.65 147.865 139.446 147.958C137.033 147.958 136.102 145.503 137.541 142.624C137.615 143.316 137.858 143.98 138.249 144.556C138.641 145.132 139.168 145.603 139.785 145.926C140.369 146.199 141.017 146.307 141.658 146.24C142.299 146.173 142.91 145.933 143.426 145.545C144.145 145.122 144.442 145.841 144.611 146.434C145.122 148.135 145.237 149.931 144.95 151.684Z" fill="#543A29"/>
<path d="M222.763 65.8273C222.297 68.1981 224.414 68.4521 225.684 69.2141C226.294 69.5084 226.824 69.9447 227.23 70.4862C227.636 71.0277 227.907 71.6588 228.019 72.3265C228.131 72.9941 228.081 73.6789 227.873 74.3233C227.666 74.9677 227.307 75.553 226.827 76.0301C226.361 76.0301 226.404 75.4375 226.404 75.0988C226.589 74.0054 226.338 72.8828 225.705 71.9723C225.072 71.0619 224.106 70.4363 223.017 70.2302C222.459 70.0942 221.96 69.7818 221.594 69.3394C221.227 68.897 221.014 68.3482 220.985 67.7747C220.961 67.5274 220.989 67.2778 221.068 67.0422C221.147 66.8065 221.274 66.5899 221.442 66.4064C221.609 66.223 221.813 66.0766 222.041 65.9769C222.268 65.8771 222.514 65.8262 222.763 65.8273Z" fill="#543A29"/>
<path d="M240.163 98.2563C239.02 96.1819 236.988 96.7746 235.506 95.8855C234.871 95.5045 234.236 95.2082 233.939 94.4461C233.643 93.6841 233.516 93.5571 233.939 93.2607C234.363 92.9644 234.701 93.2607 234.955 93.6418C235.591 94.7848 236.014 94.4038 236.395 93.4301C236.776 92.4564 238.004 92.4987 238.935 92.668C239.866 92.8374 240.078 93.5994 239.951 94.4038C239.824 95.2082 240.713 96.5629 240.163 98.2563Z" fill="#543A29"/>
<path d="M260.357 135.512C260.306 134.541 259.996 133.601 259.46 132.79C258.924 131.979 258.182 131.325 257.309 130.897C256.681 130.461 256.136 129.916 255.7 129.288C255.234 128.653 254.599 127.806 255.234 127.044C255.869 126.282 256.589 127.044 257.224 127.341C258.694 128.041 259.839 129.28 260.422 130.8C261.006 132.321 260.982 134.008 260.357 135.512Z" fill="#543A29"/>
<path d="M95.4176 116.926C94.9692 115.911 94.7246 114.818 94.6979 113.709C94.6979 113.158 94.9096 112.396 94.0205 112.227C93.1315 112.058 93.1315 112.65 92.8351 113.074C92.5388 113.497 92.4964 114.471 91.6921 114.047C91.4398 113.863 91.2485 113.607 91.1429 113.313C91.0373 113.018 91.0221 112.699 91.0994 112.396C91.0994 111.761 91.0994 110.999 92.2001 110.957C92.6367 110.995 93.0758 110.995 93.5125 110.957C94.5285 110.745 95.7139 110.11 96.3913 111.253C96.8275 111.833 97.0634 112.539 97.0634 113.264C97.0634 113.99 96.8275 114.696 96.3913 115.275C96.0103 115.826 96.3066 116.63 95.4176 116.926Z" fill="#543A29"/>
<path d="M189.148 68.0711C191.096 68.3251 190.08 66.7587 190.376 65.8696C192.408 66.7587 191.985 68.7484 192.62 70.1032C193.636 72.4316 190.588 71.7119 190.207 73.5747C189.75 71.7474 189.397 69.8958 189.148 68.0287V68.0711Z" fill="#543A29"/>
<path d="M204.77 67.5631C204.77 67.9865 204.77 68.4098 204.262 68.2405C203.754 68.0711 203.924 67.8171 203.924 67.5631C203.924 67.3091 203.924 66.8857 204.389 67.0127C204.855 67.1397 204.516 67.4361 204.77 67.5631Z" fill="#543A29"/>
<path d="M222.763 65.8273C222.75 65.7056 222.764 65.5826 222.804 65.4668C222.844 65.351 222.908 65.2453 222.993 65.1567C223.077 65.0682 223.18 64.9991 223.294 64.954C223.407 64.909 223.53 64.8892 223.652 64.8959C223.664 65.0177 223.65 65.1407 223.61 65.2565C223.571 65.3722 223.506 65.478 223.422 65.5665C223.337 65.6551 223.235 65.7242 223.121 65.7692C223.007 65.8143 222.885 65.8341 222.763 65.8273Z" fill="#543A29"/>
<path d="M111.632 106.258L111.42 106.85L111.717 106.342L111.632 106.258Z" fill="#543A29"/>
<path d="M189.148 68.0711L188.81 67.6054V68.1981L189.148 68.0711Z" fill="#543A29"/>
<path d="M236.818 139.83C236.818 139.449 236.818 138.941 237.58 139.152C238.342 139.364 237.58 139.491 237.834 139.66H236.818V139.83Z" fill="#2A1C13"/>
<path d="M179.708 138.136H191.604C191.423 141.174 190.088 144.028 187.873 146.115C185.658 148.202 182.73 149.364 179.686 149.364C176.643 149.364 173.715 148.202 171.5 146.115C169.285 144.028 167.95 141.174 167.769 138.136H179.708Z" fill="white"/>
<path d="M164.89 124.631C167.532 124.631 169.674 121.182 169.674 116.926C169.674 112.671 167.532 109.221 164.89 109.221C162.248 109.221 160.106 112.671 160.106 116.926C160.106 121.182 162.248 124.631 164.89 124.631Z" fill="#161515"/>
<path d="M194.525 124.631C197.167 124.631 199.309 121.182 199.309 116.926C199.309 112.671 197.167 109.221 194.525 109.221C191.883 109.221 189.741 112.671 189.741 116.926C189.741 121.182 191.883 124.631 194.525 124.631Z" fill="#161515"/>
</svg>
