<svg width="345" height="240" viewBox="0 0 345 240" fill="none" xmlns="http://www.w3.org/2000/svg">
<rect x="0.643066" y="0.261902" width="343.438" height="239.623" rx="23" fill="white"/>
<g clip-path="url(#clip0_55_2)">
<path d="M157.871 134.34L157.647 136.172C157.491 137.886 157.153 139.579 156.637 141.221C155.908 143.256 155.652 145.43 155.889 147.578C154.53 147.548 153.178 147.385 151.85 147.092L150.953 146.643C150.355 146.381 149.849 145.945 149.502 145.391C149.155 144.837 148.983 144.192 149.008 143.539C149.142 141.817 149.392 140.105 149.756 138.416C150.205 134.327 150.205 130.202 149.756 126.113C149.059 120.718 148.958 115.262 149.457 109.845C149.536 106.791 150.718 103.868 152.785 101.618C153.322 101.006 154.044 100.586 154.842 100.421C154.842 101.581 155.066 102.703 154.842 103.862C154.996 107.293 155.421 110.707 156.114 114.071C156.674 117.811 157.123 121.55 157.647 125.29C157.834 128.17 157.909 131.236 157.871 134.34Z" fill="#3D3D3D"/>
<path d="M157.647 151.505C157.161 153.861 156.675 156.254 156.226 158.61C154.867 157.895 153.797 156.733 153.197 155.319C151.954 152.821 151.486 150.008 151.85 147.242C153.178 147.535 154.53 147.697 155.889 147.728C155.994 149.159 156.619 150.503 157.647 151.505Z" fill="#F7BDA9"/>
<path d="M194.108 167.137C193.128 176.149 193.33 185.251 194.707 194.212C194.707 194.436 194.707 194.66 194.707 194.847C194.817 195.123 194.817 195.431 194.707 195.707C194.707 195.707 194.707 196.119 194.707 196.306C195.099 197.356 195.215 198.489 195.043 199.597C195.043 200.008 195.716 200.345 195.529 200.943C195.342 201.541 196.277 202.626 195.529 203.448C194.295 203.448 193.248 204.234 191.79 204.122L191.154 204.533C190.468 204.347 189.745 204.347 189.06 204.533H188.237H188.013H185.47L181.73 204.084C181.181 203.814 180.753 203.347 180.533 202.775C177.728 196.417 176.118 189.597 175.784 182.656C175.427 175.208 175.916 167.743 177.242 160.405C177.242 159.433 177.242 159.209 176.233 159.246C174.475 159.246 174.438 159.246 174.026 160.891C173.615 162.537 173.129 164.968 172.68 166.987C172.616 167.906 172.479 168.819 172.269 169.717C170.774 180.593 171.23 191.648 173.615 202.364C173.615 202.738 173.989 203.149 173.615 203.486C171.069 204.278 168.427 204.718 165.762 204.795C163.705 204.795 161.686 204.346 159.666 204.309C159.703 204.033 159.637 203.753 159.479 203.523C156.709 197.563 155.109 191.127 154.767 184.563C154.272 176.324 154.724 168.055 156.114 159.919C156.114 159.545 156.114 159.134 156.114 158.76C156.562 156.404 157.048 154.01 157.535 151.654C159.063 152.688 160.891 153.187 162.733 153.076C166.472 153.076 170.212 153.076 173.952 153.076L186.666 152.44C190.335 152.405 193.983 151.877 197.511 150.869C197.063 152.739 196.315 154.609 195.978 156.329C195.038 159.869 194.412 163.486 194.108 167.137Z" fill="#859ACF"/>
<path d="M197.249 65.8298C196.866 66.5257 196.335 67.13 195.695 67.6012C195.055 68.0724 194.321 68.3992 193.542 68.5592C192.764 68.7192 191.96 68.7084 191.186 68.5278C190.412 68.3471 189.687 68.0007 189.06 67.5126C187.253 66.3335 185.825 64.6586 184.946 62.6885C183.269 59.5248 182.011 56.1555 181.206 52.6663C180.982 51.6566 180.72 50.6469 180.458 49.5624C178.178 50.6111 175.798 51.4256 173.353 51.9931C167.793 53.3292 161.982 53.2003 156.487 51.6192C156.338 51.5527 156.177 51.5174 156.014 51.5155C155.85 51.5136 155.689 51.5452 155.538 51.6082C155.387 51.6713 155.251 51.7645 155.138 51.8822C155.025 51.9998 154.937 52.1394 154.879 52.2923C152.725 56.3349 151.913 60.9584 152.561 65.4932C152.748 67.9988 153.047 70.4669 153.309 72.9725C153.389 73.3055 153.451 73.6425 153.496 73.9822C153.892 77.6643 155.064 81.2204 156.936 84.4158C158 86.3966 159.492 88.1157 161.303 89.4482C163.114 90.7806 165.199 91.6932 167.407 92.1194C168.978 92.4186 168.94 92.456 169.053 93.9519C169.053 94.8494 169.053 95.5225 167.893 95.4851C167.696 95.4477 167.493 95.4477 167.295 95.4851C168.384 97.7727 170.273 99.5821 172.605 100.571C173.761 100.992 175.016 101.063 176.212 100.777C177.409 100.492 178.495 99.8607 179.337 98.963C180.804 97.7233 182.066 96.2592 183.076 94.625C182.415 94.5372 181.764 94.387 181.132 94.1762C179.299 94.1762 177.392 94.4754 175.634 94.3632L170.025 93.9519C169.389 93.9519 169.389 93.4657 169.389 92.9796C169.389 92.4934 169.389 92.269 170.025 92.269C173.486 92.4457 176.954 92.0926 180.309 91.2219C180.795 91.2219 180.907 91.2219 180.907 91.7455C180.907 92.269 180.683 92.9796 181.132 93.5405C181.169 93.1925 181.169 92.8414 181.132 92.4934C180.907 91.3341 181.431 90.7732 182.515 90.3618C185.634 89.2774 188.33 87.2356 190.219 84.528C191.612 82.4642 192.52 80.1117 192.874 77.6471C192.874 77.1983 192.874 76.6373 193.51 76.413C194.908 75.9087 196.125 74.999 197.004 73.8C197.884 72.601 198.386 71.1672 198.446 69.6816C198.61 68.9912 198.585 68.2697 198.374 67.5921C198.164 66.9146 197.775 66.306 197.249 65.8298ZM181.206 64.147C181.466 64.2488 181.717 64.374 181.954 64.5209C182.07 64.5965 182.17 64.6944 182.248 64.8089C182.326 64.9233 182.38 65.0521 182.408 65.1877C182.436 65.3234 182.437 65.4632 182.41 65.5991C182.384 65.7349 182.33 65.8642 182.253 65.9794C182.2 66.1024 182.12 66.212 182.019 66.3C181.918 66.3881 181.799 66.4524 181.67 66.4883C181.541 66.5241 181.405 66.5306 181.273 66.5073C181.141 66.4839 181.016 66.4313 180.907 66.3533C179.371 65.6127 177.675 65.2657 175.971 65.3436C175.736 65.3827 175.496 65.3827 175.26 65.3436C175.009 65.2733 174.793 65.1116 174.655 64.8902C174.516 64.6688 174.465 64.4038 174.512 64.147C174.512 63.5486 174.961 63.3242 175.522 63.2868H176.27C177.918 63.2708 179.554 63.5626 181.094 64.147H181.206ZM159.554 56.2563C159.942 56.0196 160.375 55.8667 160.825 55.8076C163.14 55.6204 165.466 55.6204 167.781 55.8076C169.752 55.9672 171.731 55.6331 173.54 54.8353C173.74 54.7443 173.957 54.6973 174.176 54.6973C174.395 54.6973 174.612 54.7443 174.812 54.8353C174.854 54.9563 174.854 55.0882 174.812 55.2092C174.812 55.6954 174.251 55.7702 173.839 55.9572C172.9 56.3824 171.924 56.7204 170.922 56.9669C169.604 57.0981 168.276 57.0981 166.958 56.9669C164.465 56.7837 161.96 56.8463 159.479 57.1538C159.217 57.1538 158.993 57.1538 158.956 56.8173C158.918 56.4807 159.105 56.4059 159.442 56.2563H159.554ZM158.881 61.604C159.329 61.0805 160.003 61.1179 160.601 61.0057C162.963 60.4436 165.396 60.2418 167.818 60.4073C169.467 60.4498 171.117 60.3748 172.755 60.1829C173.679 60.0421 174.54 59.6249 175.223 58.9863C175.597 58.6123 176.083 58.3131 176.457 58.9863C176.831 59.6594 176.457 59.809 176.12 60.2203C174.558 61.3924 172.651 62.0108 170.698 61.978C169.457 62.1449 168.199 62.1449 166.958 61.978C164.988 61.7915 163.001 62.0208 161.125 62.6511C160.414 62.6511 159.741 62.9503 159.105 62.4267C158.469 61.9032 158.619 61.791 158.769 61.604H158.881ZM155.739 68.1484C157.22 66.6046 159.075 65.4707 161.125 64.8575C161.272 64.7952 161.434 64.7737 161.593 64.7952C161.752 64.8167 161.902 64.8804 162.028 64.9796C162.154 65.0789 162.251 65.2101 162.31 65.3596C162.368 65.5092 162.385 65.6715 162.359 65.8298C162.382 66.0949 162.308 66.3596 162.149 66.5733C161.991 66.7871 161.759 66.9351 161.498 66.9891C159.907 67.5192 158.469 68.4308 157.31 69.6442C156.824 70.1304 156.338 70.3922 155.777 69.8312C155.642 69.7411 155.529 69.622 155.447 69.4826C155.364 69.3432 155.314 69.187 155.299 69.0256C155.285 68.8642 155.307 68.7016 155.364 68.5498C155.42 68.3979 155.511 68.2608 155.627 68.1484H155.739ZM161.985 81.7233C161.748 82.2062 161.387 82.6174 160.94 82.9148C160.492 83.2122 159.973 83.385 159.436 83.4155C158.899 83.4459 158.364 83.3329 157.885 83.0881C157.406 82.8433 157.001 82.4755 156.712 82.0224C156.51 81.8689 156.347 81.6709 156.234 81.4439C156.122 81.2168 156.063 80.9669 156.063 80.7136C156.063 80.4602 156.122 80.2103 156.234 79.9832C156.347 79.7562 156.51 79.5582 156.712 79.4047C157.123 79.0681 157.609 78.7315 157.31 78.021C157.796 78.021 157.983 78.4324 158.208 78.6568C158.432 78.8811 158.656 79.0681 159.03 78.8437C159.404 78.6194 159.629 78.4698 159.442 78.0584C159.255 77.6471 159.666 77.3105 160.152 77.3853C160.604 77.4818 161.024 77.6883 161.377 77.9864C161.729 78.2845 162.003 78.665 162.173 79.0941C162.343 79.5232 162.405 79.9877 162.352 80.4463C162.3 80.905 162.135 81.3436 161.872 81.7233H161.985ZM160.302 74.9919C159.707 74.9349 159.157 74.6502 158.766 74.1973C158.376 73.7443 158.176 73.1582 158.208 72.5611C158.208 71.9661 158.444 71.3953 158.865 70.9746C159.286 70.5538 159.856 70.3174 160.451 70.3174C161.046 70.3174 161.617 70.5538 162.038 70.9746C162.459 71.3953 162.695 71.9661 162.695 72.5611C162.726 72.8945 162.681 73.2304 162.565 73.5442C162.448 73.8581 162.263 74.1419 162.023 74.375C161.783 74.6081 161.493 74.7844 161.176 74.8912C160.859 74.9979 160.522 75.0323 160.19 74.9919H160.302ZM175.933 78.7315C175.268 79.8524 174.343 80.7974 173.237 81.4871C172.131 82.1768 170.876 82.5912 169.576 82.6956C167.666 82.7887 165.792 82.1463 164.341 80.9005C163.256 79.9282 163.406 79.1429 164.715 78.582C167.161 77.4779 169.809 76.8922 172.493 76.8617C173.371 76.842 174.249 76.9172 175.111 77.0861C176.12 77.3479 176.382 77.8714 175.821 78.8437L175.933 78.7315ZM177.915 72.4116C177.317 72.4217 176.738 72.196 176.304 71.7832C175.871 71.3704 175.616 70.8036 175.597 70.2052C175.645 69.6331 175.914 69.1021 176.347 68.7251C176.779 68.3481 177.342 68.1546 177.915 68.1858C178.195 68.1673 178.476 68.2107 178.737 68.3129C178.998 68.4151 179.233 68.5736 179.426 68.7771C179.619 68.9807 179.764 69.2242 179.852 69.4905C179.94 69.7567 179.968 70.039 179.935 70.3174C179.945 70.6035 179.897 70.8888 179.795 71.1561C179.692 71.4234 179.537 71.6673 179.338 71.8732C179.139 72.0791 178.9 72.2429 178.637 72.3546C178.373 72.4664 178.09 72.5239 177.803 72.5237L177.915 72.4116ZM183.974 79.5169C181.506 79.5169 180.608 78.2828 180.234 76.0764C180.234 74.7675 181.73 73.4213 183.188 73.4587C183.588 73.4175 183.993 73.4585 184.376 73.5791C184.76 73.6996 185.115 73.8973 185.42 74.1598C185.724 74.4224 185.972 74.7444 186.148 75.1061C186.324 75.4678 186.424 75.8616 186.442 76.2634C186.47 77.0369 186.228 77.7961 185.757 78.4104C185.286 79.0247 184.616 79.4556 183.862 79.6291L183.974 79.5169Z" fill="#F7BDA9"/>
<path d="M197.25 65.8298C196.866 66.5257 196.336 67.13 195.696 67.6012C195.056 68.0724 194.321 68.3992 193.543 68.5592C192.764 68.7192 191.96 68.7084 191.187 68.5278C190.413 68.3471 189.687 68.0007 189.06 67.5126C187.253 66.3335 185.825 64.6586 184.946 62.6885C183.269 59.5248 182.012 56.1555 181.207 52.6663C180.982 51.6566 180.721 50.6469 180.459 49.5624C178.179 50.6111 175.798 51.4256 173.353 51.9931C167.794 53.3292 161.983 53.2003 156.488 51.6192C156.339 51.5527 156.177 51.5174 156.014 51.5155C155.851 51.5136 155.689 51.5452 155.538 51.6082C155.388 51.6713 155.251 51.7645 155.138 51.8822C155.025 51.9998 154.937 52.1394 154.88 52.2923C152.725 56.3349 151.913 60.9584 152.561 65.4932C152.748 67.9988 153.047 70.4669 153.309 72.9725C152.534 73.0396 151.756 72.8631 151.086 72.4676C150.416 72.0721 149.886 71.4773 149.569 70.7661C148.379 68.8484 147.614 66.6982 147.323 64.46C147.033 62.2218 147.225 59.9474 147.886 57.7896C148.631 55.0754 149.901 52.5341 151.626 50.3103C151.963 49.8242 152 49.5998 151.626 49.151C151.194 48.8339 150.857 48.4054 150.65 47.9114C150.443 47.4173 150.374 46.8763 150.451 46.3462C150.528 45.8161 150.748 45.3168 151.086 44.9018C151.425 44.4869 151.87 44.1718 152.374 43.9903C151.983 43.6179 151.7 43.1467 151.555 42.6266C151.411 42.1065 151.409 41.5569 151.551 41.036C151.713 40.498 151.987 40.0002 152.354 39.5749C152.722 39.1497 153.174 38.8065 153.683 38.5678C156.227 37.1657 159 36.2286 161.873 35.8005C169.356 34.4026 177.092 35.814 183.6 39.7645C185.138 40.5616 186.334 41.8907 186.966 43.5042C186.966 43.9529 187.564 43.9529 187.901 44.1025C189.925 44.8386 191.744 46.0471 193.208 47.6276C194.671 49.2081 195.736 51.115 196.315 53.1898C196.948 55.6383 197.337 58.1437 197.474 60.6691C197.657 62.3909 197.582 64.1304 197.25 65.8298Z" fill="#A8A7A7"/>
<path d="M196.951 114.669C196.951 117.175 196.689 119.681 196.577 122.149C196.34 122.13 196.103 122.13 195.866 122.149C192.345 123.072 188.774 123.796 185.171 124.318C181.99 124.833 178.78 125.145 175.56 125.253C170.319 125.507 165.066 125.331 159.853 124.729C159.18 124.729 158.32 124.355 157.722 125.103C157.198 121.363 156.749 117.624 156.189 113.884C155.567 110.564 155.204 107.201 155.104 103.825C155.104 102.665 155.104 101.543 155.104 100.384C155.824 99.1492 156.946 98.1988 158.283 97.6915C159.834 97.0593 161.452 96.6075 163.107 96.3453C163.593 96.3453 163.593 96.9062 163.743 97.2428C165.966 102.979 168.933 108.397 172.568 113.361C173.398 114.197 174.161 115.097 174.849 116.053C175.896 116.502 175.784 115.492 176.121 115.043C176.632 114.528 177.016 113.901 177.243 113.211V112.987C177.953 112.65 178.028 111.865 178.402 111.304C178.705 111.035 178.892 110.66 178.925 110.257H179.299C179.409 109.759 179.64 109.296 179.973 108.91L180.384 108.275C180.715 107.355 181.195 106.496 181.805 105.732C181.805 105.732 181.805 105.732 181.805 105.507L181.618 105.32C181.622 105.258 181.622 105.196 181.618 105.133C182.216 105.133 182.179 104.46 182.59 104.273C182.573 104.074 182.573 103.874 182.59 103.675C182.944 103.235 183.165 102.703 183.226 102.142L184.385 100.496C184.428 100.047 184.596 99.6195 184.872 99.2622C185.71 98.0677 186.307 96.7212 186.629 95.2982C189.184 95.3495 191.713 95.8299 194.108 96.7192C195.23 97.168 196.39 97.6541 196.764 99.0004C196.892 100.62 197.117 102.231 197.437 103.825C197.549 107.564 197.25 111.005 196.951 114.669Z" fill="#518445"/>
<path d="M205.215 143.951C203.77 144.885 202.135 145.485 200.428 145.708C200.337 144.839 200.187 143.977 199.98 143.128C200.026 141.942 199.713 140.769 199.082 139.762C199.082 138.902 198.446 138.192 198.222 137.332C197.811 135.574 197.362 133.592 197.063 131.984C196.764 128.731 196.577 125.44 196.577 122.186C196.577 119.681 196.801 117.175 196.951 114.707C197.175 110.967 197.549 107.415 197.437 103.75C197.28 102.147 197.218 100.536 197.25 98.9256C198.262 99.3827 199.16 100.06 199.878 100.907C200.596 101.754 201.116 102.751 201.401 103.825C202.649 107.08 203.368 110.514 203.532 113.996C203.832 117.736 203.532 121.85 203.794 125.776C203.798 129.188 204.111 132.593 204.729 135.948C205.015 136.711 205.228 137.5 205.365 138.304C205.715 139.23 205.942 140.198 206.038 141.183C206.091 141.676 206.046 142.175 205.904 142.65C205.763 143.125 205.529 143.567 205.215 143.951Z" fill="#3D3D3D"/>
<path d="M187.04 95.2234C186.718 96.6464 186.121 97.9929 185.283 99.1874C185.008 99.5447 184.839 99.9725 184.797 100.421L183.637 102.067C183.576 102.628 183.356 103.16 183.001 103.6C182.984 103.799 182.984 103.999 183.001 104.198C182.59 104.385 182.628 105.096 182.029 105.059H181.543L181.805 105.283L181.992 105.47C181.992 105.47 181.992 105.47 181.992 105.694C181.382 106.458 180.902 107.317 180.571 108.237L180.159 108.873C179.827 109.259 179.595 109.722 179.486 110.219H179.112C179.096 110.428 179.038 110.632 178.941 110.818C178.845 111.005 178.712 111.17 178.551 111.304C178.177 111.865 178.103 112.65 177.392 112.987V113.211C177.165 113.901 176.781 114.528 176.27 115.043C175.934 115.492 176.046 116.502 174.999 116.053C174.31 115.097 173.547 114.197 172.717 113.361C168.978 108.414 165.91 102.994 163.593 97.2428C163.593 96.9062 163.593 96.4948 162.957 96.3452C164.399 96.016 165.86 95.7787 167.332 95.6347C168.421 97.9223 170.31 99.7317 172.643 100.721C173.799 101.141 175.053 101.213 176.25 100.927C177.446 100.641 178.533 100.01 179.374 99.1126C180.842 97.8729 182.104 96.4088 183.114 94.7746C184.434 94.7971 185.749 94.9474 187.04 95.2234Z" fill="#3D3D3D"/>
<path d="M172.194 212.012C167.445 213.644 162.443 214.417 157.422 214.293C156.895 214.275 156.375 214.161 155.889 213.957C155.507 213.862 155.153 213.678 154.855 213.421C154.557 213.164 154.324 212.84 154.175 212.476C154.025 212.111 153.964 211.717 153.995 211.325C154.027 210.932 154.15 210.553 154.356 210.217C155.584 207.761 157.492 205.71 159.853 204.309C161.872 204.309 163.892 204.795 165.949 204.795C168.614 204.718 171.256 204.278 173.802 203.486C174.398 204.976 174.739 206.557 174.812 208.16C174.938 209.014 174.738 209.883 174.254 210.597C173.769 211.31 173.034 211.815 172.194 212.012Z" fill="#2E3D6D"/>
<path d="M196.801 209.058C196.746 209.777 196.463 210.459 195.991 211.004C195.52 211.549 194.886 211.929 194.183 212.087C191.03 213.09 187.786 213.779 184.497 214.144C183.045 214.312 181.584 214.387 180.122 214.368C179.461 214.354 178.805 214.24 178.177 214.032C177.788 213.946 177.423 213.771 177.113 213.521C176.802 213.271 176.554 212.952 176.387 212.59C176.22 212.227 176.14 211.831 176.152 211.433C176.164 211.034 176.269 210.644 176.457 210.292C177.382 208.374 178.754 206.707 180.459 205.43C180.945 204.982 181.468 204.57 181.992 204.159L185.731 204.608H188.274H188.499H189.322C190.007 204.422 190.73 204.422 191.416 204.608L192.051 204.196C193.323 204.196 194.37 203.411 195.791 203.523C196.592 205.252 196.94 207.157 196.801 209.058Z" fill="#2E3D6D"/>
<path d="M200.578 156.815C200.26 157.091 199.884 157.293 199.478 157.407C199.072 157.52 198.647 157.542 198.231 157.47C197.816 157.398 197.422 157.235 197.078 156.993C196.733 156.75 196.447 156.434 196.24 156.067C196.576 154.235 197.324 152.328 197.773 150.607C198.902 149.852 199.735 148.729 200.129 147.429C200.129 146.868 200.129 146.232 200.428 145.708C202.134 145.485 203.77 144.885 205.215 143.951C205.882 146.311 205.794 148.82 204.962 151.128C204.13 153.435 202.597 155.424 200.578 156.815Z" fill="#F7BDA9"/>
<path d="M181.132 94.3258C179.299 94.3258 177.392 94.625 175.634 94.5128L170.025 94.1015C169.389 94.1015 169.389 93.6153 169.389 93.1291C169.389 92.643 169.389 92.4186 170.025 92.4186C173.486 92.5953 176.954 92.2422 180.309 91.3715C180.795 91.3715 180.907 91.3715 180.907 91.8577C180.907 92.3438 180.683 93.1292 181.132 93.6901V94.3258Z" fill="#F7BDA9"/>
<path d="M200.428 145.708C200.054 146.232 200.428 146.868 200.129 147.429C199.735 148.729 198.902 149.852 197.773 150.607C194.245 151.615 190.597 152.144 186.928 152.178L174.213 152.814C170.474 152.814 166.734 152.814 162.994 152.814C161.152 152.926 159.325 152.426 157.796 151.393C156.777 150.4 156.152 149.071 156.039 147.653C155.801 145.505 156.057 143.33 156.787 141.296C157.313 139.605 157.651 137.862 157.796 136.098L158.021 134.265L158.731 134.452C161.387 134.919 164.075 135.182 166.771 135.237C170.209 135.424 173.655 135.424 177.093 135.237C181.019 134.864 184.909 134.639 188.76 133.929C191.638 133.509 194.477 132.859 197.249 131.984C197.549 133.779 197.997 135.724 198.409 137.332C198.633 138.192 199.119 138.902 199.269 139.762C199.899 140.769 200.212 141.942 200.166 143.128C200.311 143.981 200.398 144.844 200.428 145.708Z" fill="#518445"/>
<path d="M169.464 82.8077C167.554 82.9009 165.68 82.2585 164.229 81.0127C163.144 80.0404 163.294 79.2551 164.603 78.6941C167.049 77.5901 169.697 77.0044 172.381 76.9739C173.259 76.9542 174.137 77.0294 174.999 77.1983C176.121 77.1983 176.382 77.8714 175.821 78.8437C175.156 79.9646 174.231 80.9095 173.125 81.5993C172.019 82.289 170.763 82.7034 169.464 82.8077Z" fill="white"/>
<path d="M183.263 73.5709C183.663 73.5297 184.068 73.5707 184.451 73.6913C184.835 73.8118 185.19 74.0095 185.495 74.272C185.799 74.5346 186.047 74.8566 186.223 75.2183C186.399 75.5801 186.499 75.9738 186.517 76.3756C186.516 77.1404 186.251 77.8814 185.767 78.4739C185.284 79.0665 184.611 79.4744 183.862 79.6291C183.378 79.7106 182.882 79.6805 182.412 79.5411C181.942 79.4016 181.51 79.1566 181.149 78.8246C180.789 78.4926 180.508 78.0825 180.33 77.6256C180.152 77.1688 180.081 76.6772 180.122 76.1886C180.197 74.8797 181.805 73.5335 183.263 73.5709Z" fill="#F5AB97"/>
<path d="M158.731 76.6748C159.656 76.6691 160.549 77.0062 161.24 77.6208C161.931 78.2355 162.369 79.0841 162.471 80.003C162.425 80.8889 162.089 81.7352 161.515 82.4111C160.94 83.087 160.159 83.5549 159.292 83.7427C156.413 83.7427 155.365 82.2842 155.141 79.6665C155.141 78.208 157.011 76.6748 158.731 76.6748Z" fill="#F5AB97"/>
<path d="M167.706 60.4074C169.355 60.4498 171.005 60.3749 172.643 60.183C173.567 60.0421 174.428 59.625 175.111 58.9863C175.485 58.6123 175.971 58.3132 176.345 58.9863C176.719 59.6594 176.345 59.809 176.008 60.2204C174.441 61.386 172.539 62.0154 170.586 62.0154C169.343 62.1445 168.09 62.1445 166.846 62.0154C164.876 61.8289 162.889 62.0583 161.013 62.6886C160.339 62.6886 159.629 62.9877 159.031 62.4642C158.432 61.9406 158.731 62.0902 159.031 61.9032C159.33 61.7162 160.152 61.4171 160.751 61.3049C163.017 60.6849 165.358 60.3829 167.706 60.4074Z" fill="#F3A392"/>
<path d="M167.108 57.2286C164.615 57.0455 162.11 57.1081 159.629 57.4156C159.367 57.4156 159.143 57.4156 159.105 57.0791C159.068 56.7425 159.105 56.4059 159.404 56.2563C159.792 56.0196 160.225 55.8667 160.676 55.8076C162.991 55.6204 165.317 55.6204 167.632 55.8076C169.602 55.9673 171.582 55.6331 173.391 54.8353C173.59 54.7443 173.807 54.6973 174.026 54.6973C174.246 54.6973 174.463 54.7443 174.662 54.8353C174.711 54.8846 174.749 54.9431 174.774 55.0073C174.8 55.0715 174.813 55.1401 174.812 55.2092C174.812 55.6954 174.251 55.7702 173.802 55.9572C172.878 56.3877 171.913 56.7259 170.922 56.9669C169.662 57.1757 168.385 57.2634 167.108 57.2286Z" fill="#F3A392"/>
<path d="M176.158 63.1373C177.853 63.1547 179.529 63.4975 181.094 64.147C181.354 64.2488 181.605 64.374 181.842 64.5209C181.958 64.5965 182.058 64.6944 182.136 64.8089C182.214 64.9233 182.268 65.0521 182.296 65.1877C182.324 65.3234 182.325 65.4632 182.298 65.5991C182.272 65.735 182.218 65.8642 182.141 65.9794C182.088 66.1024 182.008 66.212 181.907 66.3C181.806 66.3881 181.687 66.4524 181.558 66.4883C181.429 66.5241 181.293 66.5306 181.161 66.5073C181.029 66.4839 180.904 66.4313 180.795 66.3534C179.259 65.6127 177.563 65.2657 175.859 65.3437C175.624 65.3827 175.384 65.3827 175.148 65.3437C174.897 65.2733 174.681 65.1116 174.542 64.8902C174.404 64.6689 174.353 64.4038 174.4 64.147C174.4 63.5486 174.849 63.3242 175.41 63.2869L176.158 63.1373Z" fill="#A8A7A7"/>
<path d="M162.247 65.8298C162.271 66.0949 162.196 66.3596 162.038 66.5733C161.879 66.7871 161.647 66.9351 161.387 66.9891C159.795 67.5192 158.357 68.4308 157.198 69.6442C156.712 70.1304 156.226 70.3922 155.665 69.8312C155.54 69.7295 155.439 69.6012 155.37 69.4557C155.301 69.3101 155.265 69.151 155.265 68.9898C155.265 68.8286 155.301 68.6695 155.37 68.5239C155.439 68.3784 155.54 68.2501 155.665 68.1484C157.145 66.6046 159.001 65.4708 161.05 64.8575C161.196 64.8041 161.353 64.7895 161.507 64.8151C161.66 64.8407 161.804 64.9057 161.925 65.0037C162.045 65.1017 162.138 65.2294 162.195 65.3742C162.251 65.519 162.269 65.676 162.247 65.8298Z" fill="#A8A7A7"/>
<path d="M162.583 72.7481C162.584 73.0558 162.521 73.3604 162.399 73.6428C162.277 73.9253 162.098 74.1796 161.874 74.3901C161.649 74.6005 161.384 74.7625 161.094 74.8661C160.805 74.9696 160.497 75.0124 160.19 74.9919C159.595 74.9349 159.045 74.6502 158.654 74.1973C158.264 73.7443 158.064 73.1582 158.096 72.5612C158.096 71.9661 158.332 71.3954 158.753 70.9746C159.174 70.5538 159.744 70.3174 160.339 70.3174C160.934 70.3174 161.505 70.5538 161.926 70.9746C162.347 71.3954 162.583 71.9661 162.583 72.5612V72.7481Z" fill="#542419"/>
<path d="M177.803 68.298C178.083 68.2795 178.364 68.3229 178.625 68.4251C178.886 68.5273 179.121 68.6858 179.314 68.8894C179.507 69.0929 179.652 69.3365 179.74 69.6027C179.828 69.8689 179.856 70.1512 179.823 70.4296C179.814 70.9695 179.601 71.486 179.226 71.8747C178.851 72.2635 178.343 72.4954 177.803 72.5238C177.205 72.5339 176.626 72.3082 176.192 71.8954C175.758 71.4827 175.504 70.9159 175.485 70.3174C175.542 69.7489 175.813 69.2234 176.244 68.8481C176.675 68.4729 177.233 68.2761 177.803 68.298Z" fill="#542419"/>
<path d="M197.249 131.984C194.488 132.844 191.662 133.482 188.798 133.891C185.058 134.602 181.057 134.826 177.13 135.2C173.692 135.387 170.247 135.387 166.809 135.2C164.113 135.144 161.425 134.882 158.769 134.415L158.058 134.228C158.058 131.124 158.058 128.057 158.058 124.991C158.656 124.243 159.517 124.505 160.19 124.617C165.414 125.234 170.679 125.421 175.934 125.178C179.154 125.07 182.364 124.758 185.544 124.243C189.148 123.722 192.718 122.998 196.24 122.074C196.476 122.055 196.714 122.055 196.95 122.074C196.576 125.44 196.763 128.731 197.249 131.984Z" fill="#8D8E91"/>
<path d="M181.842 105.021C181.846 105.083 181.846 105.146 181.842 105.208L181.581 104.984H181.88L181.842 105.021Z" fill="#2E3D6D"/>
</g>
<defs>
<clipPath id="clip0_55_2">
<rect width="212" height="212" fill="white" transform="translate(66.3623 14.0732)"/>
</clipPath>
</defs>
</svg>
