<svg width="345" height="240" viewBox="0 0 345 240" fill="none" xmlns="http://www.w3.org/2000/svg">
<rect x="0.643066" y="0.262024" width="343.438" height="239.623" rx="23" fill="white"/>
<path d="M216.034 118.545C219.256 115.119 221.689 111.035 223.164 106.578C224.719 101.633 226.198 92.5354 222.443 90.8367C221.609 90.4592 219.94 90.1949 216.792 91.9691C217.451 95.1409 217.857 98.3596 218.006 101.595C218.208 107.311 217.543 113.025 216.034 118.545Z" fill="#F3C096"/>
<path d="M123.685 118.545C120.463 115.125 118.041 111.039 116.593 106.578C115 101.633 113.559 92.5354 117.313 90.8367C118.148 90.4592 119.779 90.1949 122.964 91.9691C121.098 100.71 121.345 109.767 123.685 118.394V118.545Z" fill="#F3C096"/>
<path d="M186.224 158.672C190.017 163.504 187.817 167.769 190.548 181.661C191.836 188.291 193.779 194.778 196.35 201.026H144.165C147.094 192.89 149.054 184.439 150.005 175.848C151.219 164.938 150.005 160.975 153.267 156.973C160.055 149.235 179.208 149.914 186.224 158.672Z" fill="#E2B28F"/>
<path d="M170.257 163.013C197.152 163.013 218.954 136.225 218.954 103.181C218.954 70.1361 197.152 43.3482 170.257 43.3482C143.363 43.3482 121.561 70.1361 121.561 103.181C121.561 136.225 143.363 163.013 170.257 163.013Z" fill="#F3C096"/>
<path d="M139.424 128.624C153.542 128.624 164.986 117.232 164.986 103.181C164.986 89.1289 153.542 77.7377 139.424 77.7377C125.307 77.7377 113.862 89.1289 113.862 103.181C113.862 117.232 125.307 128.624 139.424 128.624Z" stroke="#1D1D1B" stroke-width="0.5" stroke-miterlimit="10"/>
<path d="M201.129 128.624C215.246 128.624 226.691 117.232 226.691 103.181C226.691 89.1289 215.246 77.7377 201.129 77.7377C187.011 77.7377 175.567 89.1289 175.567 103.181C175.567 117.232 187.011 128.624 201.129 128.624Z" stroke="#1D1D1B" stroke-width="0.5" stroke-miterlimit="10"/>
<path d="M175.529 98.311H164.493V103.181H175.529V98.311Z" fill="#1D1D1B"/>
<path d="M169.423 134.928H180.08C180.095 136.321 179.834 137.703 179.313 138.996C178.791 140.288 178.018 141.466 177.039 142.461C175.062 144.472 172.363 145.618 169.537 145.648C168.137 145.663 166.749 145.404 165.45 144.884C164.151 144.365 162.968 143.596 161.968 142.622C159.948 140.654 158.796 137.967 158.766 135.154L169.423 134.928Z" fill="white"/>
<path d="M156.187 111.146C158.931 111.146 161.155 107.58 161.155 103.181C161.155 98.7817 158.931 95.2156 156.187 95.2156C153.443 95.2156 151.219 98.7817 151.219 103.181C151.219 107.58 153.443 111.146 156.187 111.146Z" fill="#161515"/>
<path d="M186.945 111.146C189.689 111.146 191.913 107.58 191.913 103.181C191.913 98.7817 189.689 95.2156 186.945 95.2156C184.201 95.2156 181.977 98.7817 181.977 103.181C181.977 107.58 184.201 111.146 186.945 111.146Z" fill="#161515"/>
</svg>
