<svg width="345" height="240" viewBox="0 0 345 240" fill="none" xmlns="http://www.w3.org/2000/svg">
<rect x="0.643066" y="0.261963" width="343.438" height="239.623" rx="23" fill="white"/>
<path d="M106.34 107.786C104.322 106.122 102.727 104.004 101.683 101.605C101.683 101.055 101.091 100.42 101.683 99.9965C102.276 99.5731 102.742 100.25 103.165 100.589C106.063 103.156 109.313 105.295 112.818 106.939C113.494 107.255 114.242 107.386 114.986 107.319C115.729 107.252 116.442 106.99 117.051 106.558C115.188 104.399 112.818 102.664 112.309 99.5308C117.94 102.029 122.131 107.532 128.905 106.855C128.482 105.627 127.804 104.061 127.339 102.41C126.873 100.759 126.534 99.9118 127.72 99.4038C128.905 98.8957 129.117 100.504 129.709 101.224C131.022 103.002 132.207 104.907 133.562 106.685C135.741 109.753 138.521 112.345 141.733 114.306C149.028 118.558 155.085 124.644 159.302 131.96C160.572 134.161 160.53 134.246 158.032 134.669C155.538 135.229 153.151 136.187 150.962 137.506C141.854 142.54 131.72 145.435 121.327 145.973C117.53 146.265 113.711 146.023 109.981 145.253C108.022 144.753 105.945 145.026 104.181 146.015L101.091 147.709C100.54 148.047 99.8205 148.555 99.3548 148.005C98.8891 147.455 99.3548 146.777 99.8629 146.227C100.784 145.039 101.993 144.106 103.377 143.517C98.3388 140.977 93.3008 143.263 87.8819 143.094C90.2367 141.029 93.2207 139.82 96.349 139.665C90.8336 136.457 84.6726 134.519 78.3141 133.992C82.1222 132.487 86.3599 132.487 90.168 133.992C88.8133 131.875 87.5009 130.055 86.4425 128.15C85.7651 126.964 84.9608 127.43 84.114 127.599C79.7623 128.726 75.1708 128.505 70.9477 126.964C69.3146 126.457 67.8049 125.615 66.5148 124.493C65.2247 123.371 64.1825 121.992 63.4543 120.445C63.1156 119.64 62.7769 118.793 63.4543 118.031C64.1317 117.269 64.9361 117.566 65.6558 117.777C72.31 119.153 79.2 118.877 85.7228 116.973C79.9115 116.08 74.5161 113.42 70.2703 109.353C71.7077 109.059 73.2025 109.268 74.5039 109.945C80.2406 111.996 86.216 113.305 92.2848 113.84C93.1526 113.826 93.995 113.545 94.6979 113.036C91.1816 112.3 87.8169 110.968 84.7491 109.099C83.9408 108.552 83.1765 107.944 82.463 107.278C82.2089 107.067 81.7856 106.77 82.0396 106.304C82.2936 105.839 82.6746 105.966 83.0557 106.05C84.2834 106.347 85.4688 106.601 86.6965 106.982C90.5084 108.202 94.4175 109.094 98.3811 109.649C97.7037 108.548 96.73 108.294 96.0103 107.786C93.0148 105.971 90.5478 103.402 88.8556 100.335C88.8556 99.8271 88.0936 99.1921 88.6016 98.7264C89.1096 98.2607 89.8293 98.7264 90.295 99.1921C94.1055 102.305 98.286 104.936 102.742 107.024C103.722 107.553 104.779 107.924 105.874 108.125C105.874 108.464 106.425 108.506 106.637 108.125C106.848 107.744 106.637 107.829 106.34 107.786ZM137.245 127.557C137.898 124.838 137.691 121.983 136.652 119.386C135.675 121.354 134.372 123.143 132.8 124.678C132.047 124.766 131.341 125.087 130.78 125.595C130.218 126.104 129.829 126.775 129.667 127.515C129.143 128.799 128.298 129.926 127.213 130.789C126.127 131.652 124.838 132.222 123.469 132.443C122.1 132.664 120.697 132.529 119.395 132.052C118.094 131.574 116.936 130.77 116.035 129.716C115.569 129.208 115.104 128.658 114.68 128.107C114.015 126.391 113.885 124.514 114.308 122.722C114.731 120.931 115.688 119.31 117.051 118.074L108.923 119.217C108.56 119.237 108.213 119.377 107.938 119.614C107.662 119.851 107.473 120.173 107.399 120.529C106.773 122.79 106.704 125.168 107.198 127.461C107.692 129.754 108.734 131.893 110.235 133.696C110.891 134.983 111.886 136.066 113.114 136.828C115.179 138.384 117.606 139.388 120.166 139.747C122.726 140.107 125.336 139.809 127.749 138.881C130.163 137.954 132.301 136.428 133.962 134.447C135.623 132.466 136.753 130.095 137.245 127.557ZM140.209 120.148C140.992 123.879 140.636 127.759 139.187 131.284C137.737 134.81 135.261 137.818 132.08 139.919C141.013 137.887 148.549 132.764 157.735 132.298C153.1 126.737 147.043 122.538 140.209 120.148ZM113.537 140.766C105.324 133.95 104.266 131.748 104.477 121.164C104.477 120.36 104.266 120.318 103.588 120.529C99.267 121.78 95.0256 123.293 90.8877 125.059C89.9987 125.44 89.8717 125.736 90.5067 126.583C93.8577 131.129 98.2015 134.85 103.207 137.463C106.41 139.211 109.915 140.331 113.537 140.766ZM125.815 119.259C126.196 122.096 127.72 123.493 129.836 123.493C130.938 123.298 131.962 122.798 132.793 122.049C133.624 121.301 134.228 120.334 134.536 119.259C134.536 118.412 134.028 118.497 133.52 118.455C131.572 118.201 129.625 118.031 127.72 117.735C125.815 117.439 125.73 118.539 125.815 119.259Z" fill="#101112"/>
<path d="M114.807 128.107C115.231 128.658 115.696 129.208 116.162 129.716C117.063 130.77 118.221 131.574 119.522 132.052C120.824 132.529 122.227 132.664 123.596 132.443C124.965 132.222 126.254 131.652 127.34 130.789C128.425 129.926 129.27 128.799 129.794 127.515C129.956 126.775 130.345 126.104 130.907 125.595C131.468 125.087 132.174 124.766 132.927 124.678C134.128 125.915 135.568 126.895 137.16 127.557C136.658 130.074 135.528 132.423 133.875 134.386C132.222 136.35 130.1 137.864 127.706 138.789C125.312 139.714 122.723 140.019 120.179 139.676C117.636 139.333 115.22 138.354 113.156 136.828C111.929 136.066 110.933 134.983 110.277 133.696C112.436 132.298 113.241 129.928 114.807 128.107Z" fill="#9E9E9E"/>
<path d="M114.807 128.107C113.241 129.928 112.436 132.341 110.362 133.696C108.839 131.905 107.774 129.771 107.258 127.478C106.742 125.184 106.79 122.8 107.398 120.529C107.473 120.173 107.662 119.851 107.938 119.614C108.213 119.377 108.559 119.237 108.923 119.217L117.051 118.074C115.709 119.325 114.777 120.953 114.377 122.743C113.976 124.534 114.126 126.404 114.807 128.107Z" fill="#4D4D4F"/>
<path d="M125.814 119.259C125.814 118.37 125.814 117.396 127.72 117.693C129.625 117.989 131.572 118.158 133.52 118.412C134.028 118.412 134.62 118.412 134.536 119.217C134.227 120.292 133.624 121.259 132.793 122.007C131.962 122.756 130.938 123.256 129.836 123.45C127.72 123.577 126.195 122.096 125.814 119.259Z" fill="#F5F5F6"/>
<path d="M137.245 127.557C135.653 126.895 134.212 125.915 133.011 124.678C134.538 123.133 135.797 121.345 136.737 119.386C137.747 121.992 137.925 124.846 137.245 127.557Z" fill="#4D4D4F"/>
<path d="M233.516 109.056C233.727 109.31 234.066 109.056 234.278 109.056C235.375 108.862 236.433 108.49 237.411 107.956C241.868 105.853 246.048 103.208 249.857 100.081C250.323 99.7425 250.958 99.0651 251.551 99.6155C252.143 100.166 251.551 100.716 251.297 101.224C249.617 104.298 247.166 106.88 244.184 108.718C243.465 109.226 242.491 109.48 241.814 110.58C245.775 109.991 249.682 109.085 253.498 107.871L257.139 106.982C257.52 106.982 257.943 106.982 258.155 107.194C258.367 107.405 258.155 107.956 257.732 108.21C257.05 108.873 256.329 109.495 255.573 110.072C252.502 111.928 249.138 113.245 245.624 113.967C246.431 114.431 247.386 114.567 248.291 114.348C254.358 113.828 260.333 112.533 266.072 110.496C267.366 109.797 268.869 109.587 270.305 109.903C266.038 113.939 260.653 116.595 254.853 117.523C261.381 119.397 268.263 119.673 274.92 118.328C275.64 118.074 276.529 117.862 277.121 118.582C277.714 119.301 277.46 120.191 277.121 120.995C276.393 122.537 275.35 123.91 274.059 125.026C272.769 126.141 271.259 126.975 269.628 127.472C265.413 129.046 260.816 129.282 256.462 128.15C255.657 127.938 254.811 127.515 254.133 128.7C253.075 130.605 251.762 132.383 250.408 134.5C254.216 132.995 258.453 132.995 262.262 134.5C255.9 135.042 249.739 136.994 244.227 140.215C247.359 140.35 250.35 141.562 252.694 143.644C247.275 143.644 242.237 141.528 237.199 144.025C238.577 144.643 239.783 145.588 240.713 146.777C241.094 147.285 241.686 148.005 241.221 148.555C240.755 149.106 240.035 148.555 239.485 148.259L236.395 146.566C235.47 146.007 234.437 145.65 233.364 145.519C232.292 145.388 231.204 145.485 230.171 145.804C226.439 146.552 222.622 146.795 218.825 146.523C208.433 145.984 198.299 143.089 189.19 138.056C186.977 136.844 184.594 135.973 182.12 135.474C179.623 135.05 179.58 135.008 180.85 132.764C185.08 125.458 191.134 119.375 198.42 115.11C201.565 113.231 204.289 110.724 206.421 107.744C207.776 105.966 208.961 104.103 210.274 102.325C210.866 101.563 211.332 100.081 212.263 100.462C213.195 100.843 212.941 102.494 212.644 103.468C212.179 105.119 211.501 106.728 211.078 107.956C217.852 108.633 222.043 103.129 227.673 100.589C226.829 103.352 225.178 105.8 222.932 107.617C223.537 108.055 224.248 108.325 224.992 108.399C225.735 108.473 226.485 108.35 227.165 108.04C230.726 106.368 234.032 104.201 236.987 101.605C237.411 101.224 237.961 100.674 238.469 101.013C238.977 101.351 238.469 102.071 238.469 102.621C237.403 104.959 235.809 107.017 233.812 108.633C233.516 108.633 233.389 108.887 233.516 109.056ZM226.911 137.59C228.137 136.845 229.134 135.776 229.79 134.5C231.292 132.689 232.334 130.543 232.827 128.243C233.321 125.944 233.252 123.559 232.627 121.291C232.545 120.943 232.352 120.631 232.077 120.402C231.802 120.173 231.46 120.039 231.103 120.021L222.974 118.878C224.342 120.111 225.302 121.732 225.726 123.525C226.15 125.317 226.017 127.197 225.345 128.912L223.99 130.52C223.086 131.573 221.926 132.375 220.622 132.85C219.317 133.324 217.913 133.455 216.544 133.23C215.174 133.004 213.886 132.43 212.803 131.563C211.719 130.695 210.878 129.564 210.358 128.277C210.196 127.537 209.807 126.866 209.245 126.357C208.684 125.849 207.978 125.528 207.225 125.44C205.69 123.919 204.429 122.142 203.5 120.191C202.464 122.773 202.257 125.614 202.907 128.319C203.41 130.836 204.54 133.185 206.193 135.148C207.845 137.112 209.967 138.626 212.361 139.551C214.756 140.476 217.345 140.781 219.888 140.438C222.432 140.095 224.847 139.116 226.911 137.59ZM182.417 133.061C191.646 133.569 199.351 138.691 208.072 140.681C204.895 138.587 202.42 135.586 200.971 132.068C199.521 128.55 199.163 124.677 199.944 120.953C193.12 123.342 187.066 127.524 182.417 133.061ZM236.945 138.268C241.953 135.638 246.296 131.903 249.646 127.345C250.281 126.541 250.154 126.202 249.265 125.863C245.127 124.084 240.886 122.557 236.564 121.291C235.887 121.291 235.675 121.291 235.675 121.969C235.887 132.552 234.828 134.669 226.615 141.57C230.232 141.114 233.734 139.995 236.945 138.268ZM212.433 118.539C210.528 118.878 208.58 119.047 206.633 119.301C206.125 119.301 205.532 119.301 205.617 120.106C205.925 121.181 206.529 122.148 207.359 122.896C208.19 123.645 209.215 124.145 210.316 124.339C212.433 124.339 213.957 122.773 214.338 120.106C214.422 119.174 214.253 118.158 212.433 118.539Z" fill="#101112"/>
<path d="M225.345 128.912L223.991 130.52C223.086 131.573 221.926 132.375 220.622 132.85C219.318 133.324 217.913 133.455 216.544 133.23C215.175 133.004 213.886 132.43 212.803 131.563C211.72 130.695 210.878 129.564 210.359 128.277C210.196 127.537 209.807 126.866 209.246 126.357C208.684 125.849 207.978 125.528 207.226 125.44C206.033 126.687 204.59 127.667 202.992 128.319C203.495 130.836 204.625 133.185 206.278 135.148C207.93 137.112 210.052 138.626 212.447 139.551C214.841 140.476 217.43 140.781 219.973 140.438C222.517 140.095 224.932 139.116 226.996 137.59C228.222 136.845 229.219 135.776 229.875 134.5C227.716 133.103 226.912 130.732 225.345 128.912Z" fill="#9E9E9E"/>
<path d="M225.345 128.912C226.912 130.732 227.716 133.145 229.579 134.5C231.08 132.689 232.122 130.543 232.616 128.243C233.11 125.944 233.041 123.559 232.415 121.291C232.333 120.943 232.14 120.631 231.865 120.402C231.59 120.173 231.248 120.039 230.891 120.021L222.763 118.878C224.167 120.086 225.168 121.695 225.63 123.489C226.091 125.283 225.992 127.176 225.345 128.912Z" fill="#4D4D4F"/>
<path d="M214.338 120.021C214.338 119.174 214.338 118.158 212.433 118.455C210.528 118.751 208.58 118.963 206.633 119.217C206.125 119.217 205.532 119.217 205.617 120.021C205.925 121.096 206.529 122.063 207.36 122.812C208.191 123.56 209.215 124.06 210.316 124.255C212.433 124.382 213.957 122.773 214.338 120.021Z" fill="#F5F5F6"/>
<path d="M202.908 128.319C204.505 127.667 205.948 126.687 207.141 125.44C205.605 123.919 204.345 122.142 203.416 120.19C202.408 122.782 202.231 125.622 202.908 128.319Z" fill="#4D4D4F"/>
</svg>
