<svg width="345" height="240" viewBox="0 0 345 240" fill="none" xmlns="http://www.w3.org/2000/svg">
<rect x="0.643066" y="0.261963" width="343.438" height="239.623" rx="23" fill="white"/>
<path d="M193.213 204.862C197.062 194.012 198.252 182.398 196.684 170.993C195.977 166.029 194.551 161.194 192.451 156.641C192.253 155.508 191.789 154.437 191.097 153.517C190.405 152.597 189.505 151.854 188.471 151.349C186.806 150.37 185.363 149.055 184.233 147.488C183.103 145.921 182.312 144.137 181.909 142.247C181.23 138.62 180.974 134.926 181.147 131.24C181.377 130.561 181.863 129.999 182.502 129.674C184.056 128.769 185.359 127.489 186.291 125.951C187.223 124.412 187.754 122.665 187.836 120.868C187.965 118.009 188.391 115.172 189.106 112.401C191.783 101.228 192.315 89.6492 190.673 78.2784C190.094 73.9203 188.174 69.8504 185.177 66.6337C182.18 63.417 178.256 61.2131 173.95 60.3281C168.89 59.906 164.049 58.0725 159.979 55.0362C161.083 55.1851 162.205 54.9931 163.196 54.4862C164.188 53.9792 165 53.1814 165.525 52.1997C164.425 51.861 163.408 51.48 162.35 51.226C161.292 50.972 160.911 50.972 160.911 49.9983C160.911 49.0245 161.757 48.7705 162.646 48.7282C163.535 48.6859 164.848 48.7282 165.483 47.4581C164.721 46.5267 163.747 46.9924 162.9 46.9078C162.054 46.8231 159.556 47.2041 159.895 45.3837C160.233 43.5633 160.106 41.1501 163.281 41.1501C164.763 41.1501 166.541 41.8698 167.896 40.4304C166.88 39.2027 165.61 39.4991 164.425 39.372C163.239 39.245 162.054 39.8801 161.122 38.6947C163.41 37.4279 165.93 36.636 168.531 36.3662C166.414 34.9692 163.832 36.3662 161.588 34.9268C166.706 33.9505 171.922 33.5951 177.125 33.8684V32.8947L160.572 31.159C162.83 30.0833 165.311 29.5609 167.811 29.6349C166.795 28.4071 165.568 28.8305 164.552 28.5342C163.535 28.2378 162.011 29.7195 160.826 28.5342C164.783 26.8883 169.172 26.5908 173.315 27.6874C180.905 28.8699 188.072 31.9578 194.144 36.6626C194.144 37.594 191.943 37.2553 193.043 38.102C197.273 41.4767 200.982 45.4567 204.051 49.9136C206.671 53.1412 208.693 56.8117 210.02 60.7515C210.359 61.8099 210.02 63.0376 210.316 64.096C211.774 68.7863 212.544 73.6633 212.602 78.5747C212.313 79.9689 212.143 81.3852 212.094 82.8083C212.715 89.3227 212.87 95.8731 212.56 102.41C213.008 105.433 212.426 108.52 210.909 111.173C210.359 111.977 210.909 113.163 211.29 114.306C212.687 117.312 213.661 120.487 214.804 123.577C214.89 123.819 214.88 124.085 214.778 124.321C214.676 124.556 214.489 124.744 214.253 124.847C213.11 125.525 213.322 126.372 213.618 127.515C215.439 134.288 217.598 141.02 218.868 147.92C220.35 155.879 218.868 164.05 220.392 172.179C220.749 176.568 219.517 180.94 216.921 184.498C216.37 182.127 218.445 179.926 217.894 176.962C216.286 178.91 217.259 181.196 215.227 182.17L215.015 181.958C214.527 179.879 214.355 177.738 214.507 175.608C215.323 170 215.719 164.34 215.693 158.674C215.693 157.7 215.989 156.514 214.507 156.26V155.033C215.439 154.398 215.015 154.017 214.211 153.72V152.577C214.677 152.577 215.185 152.323 215.185 151.73C215.185 151.138 214.592 150.841 213.999 150.757L213.237 147.539C213.491 144.364 211.332 141.782 210.951 138.776C210.02 130.817 208.284 123.027 206.718 115.195C205.151 107.363 204.728 98.8958 203.881 90.725C205.586 89.0207 206.921 86.983 207.802 84.7394C208.683 82.4958 209.093 80.0946 209.004 77.6857C209.004 75.7806 208.326 76.1193 207.31 77.093C206.125 62.1485 197.277 49.4479 188.344 49.3632C193.059 52.056 196.862 56.0952 199.267 60.9632C200.452 63.2069 201.51 65.4931 202.569 67.8215C202.73 68.093 202.78 68.4159 202.709 68.7233C202.638 69.0307 202.451 69.2991 202.188 69.4726C201.595 69.8113 200.706 69.4726 200.664 68.9646C200.283 65.4507 196.134 64.9427 195.245 61.8522C195.193 61.6758 195.098 61.5146 194.971 61.3823C194.843 61.25 194.685 61.1505 194.51 61.0924C194.336 61.0342 194.15 61.019 193.968 61.0481C193.786 61.0772 193.614 61.1497 193.467 61.2595C192.451 61.8945 192.959 62.6566 193.467 63.2916C194.41 64.0837 195.262 64.9782 196.007 65.9587C197.827 69.2186 201.341 72.1397 198.843 76.5426C197.15 75.9499 197.785 77.1777 197.87 77.8127C198.208 80.4375 199.521 82.8083 200.029 85.2637C202.466 96.5506 203.138 108.147 202.018 119.64C202.018 120.995 201.722 121.672 200.24 120.656C198.759 119.64 199.055 120.656 198.97 121.588C198.886 122.519 199.605 123.323 200.283 124.128C200.96 124.932 202.611 126.71 200.029 127.599C198.589 128.15 198.632 129.377 199.436 130.012C201.214 131.325 200.791 133.061 200.791 134.754C200.519 138.046 200.982 141.357 202.145 144.449C202.95 141.02 202.145 137.548 202.569 134.077C202.865 132.087 202.569 129.843 204.389 128.488C204.635 128.266 204.831 127.995 204.965 127.692C205.099 127.39 205.168 127.062 205.168 126.731C205.168 126.4 205.099 126.073 204.965 125.77C204.831 125.468 204.635 125.197 204.389 124.974C203.585 124.212 203.416 123.535 204.093 123.027C204.77 122.519 205.405 123.45 205.744 124.001C206.232 124.658 206.539 125.431 206.633 126.245C206.633 132.341 209.216 137.971 209.3 144.068C209.3 154.482 211.629 164.939 207.522 175.142C207.01 176.511 206.641 177.93 206.421 179.376C205.75 183.821 204.318 188.117 202.188 192.076C200.373 195.349 198.395 198.528 196.261 201.602C195.753 202.829 195.583 205.073 193.213 204.862ZM219.291 170.4V169.935C219.291 169.935 219.037 170.231 219.037 170.358C218.998 170.511 218.998 170.671 219.037 170.824L219.291 170.4Z" fill="#81443E"/>
<path d="M181.147 131.24C180.977 134.912 181.233 138.592 181.909 142.205C182.31 144.117 183.11 145.923 184.255 147.505C185.4 149.088 186.865 150.412 188.555 151.392C189.585 151.893 190.481 152.629 191.173 153.541C191.864 154.453 192.331 155.515 192.535 156.641C179.204 161.323 164.921 162.632 150.961 160.452C149.353 160.24 147.702 160.24 146.093 160.113C143.849 160.367 142.833 159.266 142.537 157.065C142.24 154.863 141.648 152.831 141.14 150.884V149.19C142.833 148.767 143.426 147.328 144.145 145.973C146.132 141.54 146.948 136.671 146.516 131.833C147.28 131.77 148.048 131.862 148.775 132.102C149.502 132.342 150.174 132.725 150.75 133.23C153.483 135.626 156.845 137.19 160.438 137.737C164.031 138.285 167.706 137.793 171.029 136.32C174.669 134.923 177.548 132.426 181.147 131.24Z" fill="#E3AC86"/>
<path d="M126.238 46.5691C129.111 42.0365 132.928 38.1772 137.428 35.2547C141.929 32.3322 147.007 30.4153 152.317 29.6349C153.517 29.38 154.757 29.38 155.957 29.6349C155.957 30.0582 157.397 30.3123 155.957 30.8203C153.833 31.7218 151.598 32.3341 149.311 32.6407C148.676 32.6407 147.914 32.6407 147.956 33.5721C147.998 34.5035 148.93 34.5458 149.607 34.4188C151.133 34.0544 152.696 33.8697 154.264 33.8684C155.153 33.8684 155.83 34.1648 155.915 35.2655C156 36.3662 155.449 36.8319 154.306 36.9589C152.063 37.2129 150.073 37.594 147.66 37.8903C149.903 39.245 152.571 38.1443 154.603 39.8801C155.111 40.3034 155.915 40.3881 155.873 41.3195C155.83 42.2509 155.111 42.3779 154.391 42.5472C152.613 42.8859 150.835 43.3939 149.014 43.6903C147.956 43.6903 146.898 43.9443 146.263 45.2567C149.48 46.1034 152.655 44.918 155.915 46.1034C155.365 46.4421 155.153 46.6961 154.899 46.7384C154.645 46.7808 152.655 46.7384 152.613 47.7545C152.571 48.7705 153.968 48.4742 154.73 48.6859C156.423 49.1516 155.957 49.9983 155.195 50.8873C154.433 51.7764 152.571 52.1997 150.962 52.7924C151.893 54.0625 154.179 53.6391 153.798 55.4596C153.417 57.28 151.851 57.0683 150.539 57.3223C148.635 57.6197 146.754 58.044 144.908 58.5924C143.511 59.1004 141.479 58.8464 141.098 61.0055C140.982 61.2265 140.804 61.4085 140.586 61.529C140.367 61.6494 140.119 61.7029 139.87 61.6829C139.531 61.0478 139.235 61.4289 138.939 61.6829C138.939 62.9529 137.499 62.9529 136.779 63.5456C134.324 65.5354 131.657 67.2712 131.191 70.785C129.836 70.785 129.54 71.547 129.117 72.5208C127.466 76.2886 125.73 80.0565 124.036 83.8243C123.782 83.3586 123.274 82.8083 123.359 82.4696C124.545 78.0244 123.359 73.1981 126.069 68.8799C127.41 66.9574 128.518 64.8826 129.371 62.6989C128.161 63.0009 127.096 63.7206 126.365 64.731C126.026 65.2814 125.857 66.0011 125.053 65.6201C124.248 65.2391 124.587 64.3923 125.053 63.7996C126.156 62.1314 126.732 60.1692 126.704 58.169C125.645 58.169 125.518 58.7617 125.264 59.4391C124.629 61.1748 123.952 62.8683 123.274 64.604C123.02 65.3237 122.555 65.9164 121.708 65.7047C120.861 65.4931 120.988 64.6464 121.285 63.969C121.477 63.659 121.54 63.2862 121.461 62.9303C121.382 62.5743 121.167 62.2634 120.861 62.0639C121.496 59.8201 122.174 57.5763 122.809 55.3325C123.444 53.0888 125.264 51.7764 124.841 49.4479L125.349 48.6435C126.534 48.5589 126.365 47.6698 126.238 46.5691Z" fill="#81443E"/>
<path d="M141.267 150.968C141.775 153.043 142.368 155.202 142.664 157.149C142.961 159.097 143.977 160.452 146.22 160.198C144.231 168.665 144.104 177.132 141.775 185.599L141.267 186.276C140.209 186.276 139.32 185.98 139.362 184.498C139.174 179.484 138.392 174.511 137.034 169.681C134.705 158.843 131.234 148.513 128.566 137.548C125.679 127.931 124.168 117.954 124.079 107.913C123.994 102.331 124.377 96.7515 125.222 91.233C126.093 84.6789 128.113 78.33 131.191 72.4784L130.175 80.9455C128.016 81.6229 128.863 83.6126 128.312 85.179C127.27 88.5585 126.672 92.0595 126.534 95.5936C126.747 98.6793 127.301 101.732 128.185 104.696C129.498 113.163 131.826 120.91 133.731 128.996C135.171 135.05 137.542 140.935 139.066 147.031C139.235 148.174 139.15 150.249 141.267 150.968Z" fill="#81443E"/>
<path d="M214.423 155.922C215.904 156.176 215.566 157.361 215.608 158.335C215.634 164.001 215.238 169.662 214.423 175.269C214.271 177.399 214.442 179.54 214.931 181.619C214.57 181.654 214.225 181.787 213.934 182.003C213.643 182.22 213.417 182.511 213.28 182.847C211.374 188.012 210.782 193.643 208.411 198.723C208.259 199.52 208.259 200.339 208.411 201.136C208.411 201.771 208.411 202.406 209.258 202.575C210.104 202.745 210.951 202.575 211.12 201.983C211.925 198.427 214.338 195.675 215.354 192.203C216.285 188.809 216.285 185.226 215.354 181.831C217.386 180.9 216.412 178.571 218.021 176.624C218.571 179.587 216.497 181.789 217.047 184.159L216.793 184.498L217.132 184.244C219.728 180.686 220.96 176.314 220.604 171.924C219.164 163.796 220.604 155.625 219.08 147.666C217.809 140.766 215.65 134.034 213.83 127.261C213.534 126.117 213.322 125.271 214.465 124.593C214.7 124.49 214.888 124.302 214.99 124.067C215.092 123.831 215.101 123.565 215.015 123.323C213.872 120.233 212.899 117.058 211.501 114.052C210.993 112.909 210.57 111.723 211.12 110.919C212.638 108.266 213.219 105.179 212.772 102.156C213.082 95.619 212.926 89.0687 212.306 82.5542C212.355 81.1312 212.525 79.7149 212.814 78.3207C212.756 73.4093 211.986 68.5323 210.528 63.8419C210.231 62.7835 210.528 61.5558 210.231 60.4974C208.904 56.5576 206.883 52.8871 204.262 49.6595C201.109 45.2777 197.329 41.3834 193.043 38.1019C191.942 37.2552 194.313 37.5939 194.144 36.6625C199.29 40.1845 203.646 44.7404 206.934 50.0397C210.221 55.3389 212.368 61.2652 213.237 67.4405C213.877 71.3857 214.118 75.3855 213.957 79.3791C212.74 99.6556 214.624 119.999 219.545 139.707C224.537 159.038 222.805 179.491 214.634 197.707C209.512 209.349 204.304 221.076 203.754 234.793C202.379 233.12 201.697 230.984 201.849 228.823C201.93 221.742 202.912 214.701 204.77 207.867C205.066 206.682 205.32 205.454 205.574 204.269C205.76 204.058 205.892 203.805 205.958 203.533C206.024 203.26 206.023 202.975 205.955 202.702C206.621 201.566 207.012 200.291 207.099 198.977C207.381 198.649 207.588 198.262 207.705 197.845C207.822 197.429 207.846 196.991 207.776 196.564L208.03 195.675L208.369 194.701C209.004 193.366 209.419 191.936 209.596 190.467C209.823 190.227 209.994 189.938 210.097 189.624C210.199 189.309 210.231 188.975 210.189 188.647C210.189 188.139 210.189 187.631 210.528 187.165C210.866 186.7 210.528 186.488 210.824 186.192L211.078 184.667C211.21 184.35 211.323 184.025 211.417 183.694L211.967 181.831C212.485 180.903 212.72 179.843 212.645 178.783L213.237 175.692C213.491 174.507 213.83 173.322 214.042 172.136C214.554 166.747 214.681 161.329 214.423 155.922Z" fill="#9C6767"/>
<path d="M123.147 176.2C122.427 185.599 121.073 194.955 120.903 204.396C120.762 210.653 121.258 216.909 122.385 223.066C122.385 223.701 122.935 224.421 122.131 225.14C120.734 224.717 120.607 223.362 120.268 222.304C113.979 204.313 112.12 185.071 114.849 166.209C116.543 153.214 116.996 140.087 116.204 127.007L116.839 123.408C117.582 132.427 118.883 141.391 120.734 150.249C121.877 156.768 124.967 162.949 123.359 169.935C123.359 170.189 123.613 170.485 123.74 170.739L123.443 173.152C123.017 173.528 122.749 174.052 122.694 174.618C122.639 175.184 122.801 175.749 123.147 176.2Z" fill="#81443E"/>
<path d="M128.566 218.748L128.82 216.927C129.54 216.715 129.582 216.123 129.709 215.53C131.547 206.262 131.933 196.764 130.852 187.377C130.411 182.603 129.647 177.865 128.566 173.195C126.661 165.108 124.333 157.022 122.385 148.979C119.606 138.111 118.297 126.919 118.49 115.703C118.49 110.242 119.21 104.78 118.998 99.3191C118.787 94.7468 119.337 90.2169 118.998 85.6447C120.269 85.6447 119.93 86.9994 120.311 87.6768C121.073 89.0739 120.523 91.1483 122.555 91.9104C121.962 97.795 121.031 103.637 120.861 109.48C120.962 118.936 122.126 128.352 124.333 137.548C126.238 146.29 128.698 154.902 131.699 163.33C135.492 173.226 137.054 183.836 136.271 194.405C136.281 195.012 136.396 195.614 136.61 196.183C136.473 196.061 136.309 195.973 136.132 195.928C135.954 195.883 135.768 195.881 135.59 195.922C135.412 195.964 135.246 196.047 135.106 196.167C134.967 196.286 134.858 196.436 134.79 196.606C134.324 197.41 134.79 197.876 135.594 198.257V199.485C135.481 199.527 135.38 199.597 135.301 199.689C135.223 199.78 135.168 199.89 135.143 200.008C135.117 200.126 135.122 200.249 135.157 200.364C135.191 200.48 135.254 200.585 135.34 200.67C134.62 203.972 133.985 207.317 133.139 210.577C132.503 212.905 131.614 215.149 130.852 217.435C130.826 217.455 130.805 217.48 130.79 217.51C130.775 217.539 130.768 217.572 130.768 217.605C130.768 217.637 130.775 217.67 130.79 217.699C130.805 217.729 130.826 217.754 130.852 217.774L129.752 220.483L128.566 218.748Z" fill="#81443E"/>
<path d="M203.881 90.725C204.728 98.8958 205.278 107.067 206.717 115.195C208.157 123.323 209.85 130.817 210.951 138.776C211.332 141.782 213.491 144.364 213.237 147.539C212.992 156.524 212.215 165.487 210.909 174.38L210.655 175.862C210.655 176.2 210.443 176.539 210.358 176.835L210.147 177.851C209.946 178.026 209.8 178.255 209.725 178.51C209.65 178.764 209.65 179.036 209.723 179.291C209.723 179.799 209.511 180.307 209.427 180.773C209.342 181.238 209.13 181.45 208.961 181.746V182.678C208.961 182.974 208.749 183.313 208.622 183.609C208.563 183.759 208.563 183.925 208.622 184.075C208.389 184.214 208.208 184.427 208.109 184.679C208.009 184.932 207.996 185.211 208.072 185.472L207.437 187.292C207.187 187.52 206.995 187.804 206.877 188.12C206.759 188.437 206.719 188.777 206.76 189.113L206.209 190.34C206.001 190.475 205.834 190.665 205.729 190.89C205.624 191.115 205.585 191.364 205.617 191.611C205.578 191.667 205.558 191.733 205.558 191.801C205.558 191.869 205.578 191.935 205.617 191.992C205.417 192.181 205.26 192.412 205.158 192.667C205.055 192.923 205.01 193.198 205.024 193.473V193.727C204.644 193.951 204.333 194.274 204.124 194.663C203.915 195.051 203.816 195.489 203.839 195.929V196.183C203.493 196.426 203.204 196.741 202.992 197.106C202.78 197.472 202.65 197.879 202.611 198.3L201.468 200.205C201.395 200.218 201.326 200.248 201.266 200.291C201.206 200.334 201.156 200.39 201.12 200.455C201.083 200.519 201.062 200.591 201.056 200.665C201.05 200.739 201.061 200.813 201.087 200.882C200.336 201.615 199.795 202.536 199.52 203.549C199.097 203.761 198.674 204.015 198.716 204.608L194.906 209.688C194.313 209.688 194.144 210.153 194.101 210.661L192.916 211.889C192.613 211.955 192.336 212.112 192.125 212.339C191.913 212.566 191.775 212.852 191.731 213.159L191.096 213.71C190.249 213.71 189.91 213.371 189.91 212.609C189.91 211.847 189.91 212.016 190.249 211.762L190.757 210.916C190.887 210.67 191 210.415 191.096 210.153C191.14 210.1 191.165 210.033 191.165 209.963C191.165 209.893 191.14 209.826 191.096 209.772L191.561 208.926L192.154 207.656C192.205 207.589 192.233 207.507 192.233 207.423C192.233 207.339 192.205 207.257 192.154 207.19C192.387 207.051 192.568 206.838 192.668 206.585C192.767 206.333 192.78 206.054 192.704 205.793L193.551 204.904C195.922 204.904 196.091 202.872 196.98 201.559C199.115 198.486 201.093 195.307 202.907 192.034C205.037 188.075 206.469 183.778 207.141 179.333C207.36 177.888 207.729 176.469 208.241 175.1C212.475 164.897 210.147 154.44 210.02 144.025C210.02 137.929 207.31 132.298 207.352 126.202C207.258 125.389 206.952 124.615 206.463 123.958C206.125 123.408 205.574 122.477 204.812 122.985C204.05 123.493 204.304 124.17 205.109 124.932C205.354 125.154 205.55 125.425 205.684 125.728C205.818 126.031 205.888 126.358 205.888 126.689C205.888 127.02 205.818 127.347 205.684 127.65C205.55 127.953 205.354 128.224 205.109 128.446C203.246 130.012 203.585 132.044 203.288 134.034C202.738 137.506 203.669 140.977 202.865 144.406C201.701 141.315 201.238 138.004 201.51 134.712C201.51 133.018 201.933 131.282 200.155 129.97C199.351 129.335 199.309 128.107 200.748 127.557C203.331 126.668 201.933 125.144 201.002 124.085C200.071 123.027 199.563 122.688 199.69 121.545C199.817 120.402 199.986 119.979 200.96 120.614C201.933 121.249 202.611 120.953 202.738 119.598C203.857 108.105 203.186 96.5082 200.748 85.2214C200.24 82.7659 198.928 80.3951 198.589 77.7703C198.589 77.1353 197.869 75.9076 199.563 76.5003C200.785 78.7037 201.805 81.0134 202.611 83.401C202.737 85.8847 203.163 88.3439 203.881 90.725Z" fill="#9C6767"/>
<path d="M136.568 196.183C136.354 195.614 136.239 195.012 136.229 194.405C137.011 183.836 135.45 173.226 131.657 163.33C128.67 154.901 126.224 146.289 124.333 137.548C122.163 128.319 121.041 118.875 120.988 109.395C120.988 103.553 122.089 97.7104 122.682 91.8257C123.19 89.2009 123.655 86.6185 124.163 83.9937C125.857 80.2258 127.593 76.4579 129.244 72.6901C129.667 71.7164 129.963 70.785 131.318 70.9543C131.318 71.42 131.53 71.928 131.064 72.3091C127.986 78.1606 125.965 84.5096 125.095 91.0637C124.249 96.5822 123.867 102.162 123.952 107.744C124.041 117.784 125.552 127.762 128.439 137.379C131.276 148.132 134.747 158.546 136.906 169.511C138.259 174.314 139.04 179.259 139.235 184.244C139.235 185.726 140.082 185.895 141.14 186.022C140.551 189.757 138.972 193.265 136.568 196.183Z" fill="#9C6767"/>
<path d="M141.267 61.1325C141.648 58.9733 143.68 59.2274 145.077 58.7193C146.924 58.171 148.805 57.7467 150.708 57.4493C152.02 57.1953 153.629 57.0682 153.968 55.5865C154.306 54.1048 152.063 54.1894 151.131 52.9194C152.655 52.3267 154.264 52.1997 155.365 51.0143C156.466 49.8289 156.593 49.2785 154.899 48.8128C154.137 48.8128 152.698 49.3632 152.782 47.8814C152.867 46.3997 154.179 47.0347 155.068 46.8654C155.958 46.696 155.534 46.569 156.085 46.2304C152.825 45.045 149.65 46.2304 146.432 45.3836C147.067 44.0712 148.125 43.9866 149.184 43.8172C151.004 43.5209 152.782 43.0129 154.56 42.6742C155.28 42.6742 156 42.4202 156.042 41.4464C156.085 40.4727 155.28 40.4304 154.772 40.007C152.571 38.1019 149.734 39.372 147.66 38.1019C149.861 37.8056 151.893 37.4246 154.306 37.1706C155.449 37.1706 155.958 36.6202 155.915 35.4771C155.873 34.3341 155.153 34.1647 154.264 34.0801C152.741 34.0633 151.222 34.2195 149.734 34.5458C149.057 34.5458 148.125 34.5458 148.083 33.699C148.041 32.8523 148.803 32.8523 149.438 32.7677C151.725 32.461 153.96 31.8487 156.085 30.9472C157.397 30.4392 155.873 30.1852 156.085 29.7618C157.82 29.7618 159.09 27.9838 160.953 28.3224C162.138 29.5925 163.409 28.1108 164.679 28.3224C165.949 28.5341 166.922 28.3224 167.938 29.4232C165.428 29.3887 162.946 29.9547 160.699 31.0742L177.252 32.81V33.8684C172.044 33.6369 166.828 34.0349 161.715 35.0538C163.959 36.6202 166.541 35.0538 168.658 36.4932C166.057 36.7629 163.537 37.5549 161.249 38.8216C162.181 40.007 163.451 39.372 164.552 39.499C165.652 39.626 167.007 39.499 168.023 40.5574C166.668 41.9968 164.89 41.4041 163.409 41.2771C160.233 41.2771 160.318 43.8596 160.022 45.5107C159.725 47.1617 161.8 46.8654 163.028 47.0347C164.255 47.2041 164.848 46.6537 165.61 47.5851C164.975 48.8552 163.832 48.8128 162.774 48.8552C161.715 48.8975 161.038 48.8552 161.038 50.1252C161.038 51.3953 161.757 51.1836 162.477 51.353C163.197 51.5223 164.552 51.988 165.652 52.3267C165.127 53.3084 164.315 54.1062 163.323 54.6132C162.332 55.1201 161.21 55.312 160.106 55.1631C159.514 54.9091 159.006 53.5967 158.244 55.1631C157.525 56.2064 156.581 57.0752 155.482 57.7053C154.383 58.3354 153.157 58.7109 151.893 58.804L141.267 61.1325Z" fill="#61331C"/>
<path d="M119.083 85.6448C119.083 90.217 118.66 94.7469 119.083 99.3191C119.083 104.78 118.66 110.242 118.575 115.703C118.381 126.919 119.691 138.111 122.47 148.979C124.587 157.022 126.704 165.109 128.651 173.195C129.704 177.867 130.439 182.605 130.852 187.377C131.933 196.764 131.547 206.262 129.709 215.53C129.709 216.123 129.709 216.715 128.82 216.927C129.519 209.823 129.816 202.685 129.709 195.548C129.464 186.275 128.041 177.071 125.476 168.157C124.248 168.749 124.798 169.977 124.163 170.654C124.163 170.4 123.74 170.104 123.782 169.85C125.476 162.949 122.301 156.684 121.158 150.164C119.307 141.306 118.006 132.342 117.263 123.323L116.628 126.922C115.781 116.496 115.781 106.019 116.628 95.5936C117.093 87.1265 118.236 78.6594 119.125 70.1923C119.256 69.6029 119.425 69.023 119.634 68.4565C119.933 68.9865 120.114 69.5748 120.165 70.1811C120.216 70.7875 120.136 71.3978 119.93 71.9704C119.179 76.4874 118.896 81.0697 119.083 85.6448Z" fill="#9C6767"/>
<path d="M119.083 85.6447C118.728 81.087 118.841 76.5049 119.422 71.9704C119.628 71.3978 119.708 70.7875 119.657 70.1811C119.606 69.5747 119.424 68.9865 119.125 68.4565L119.76 62.9952C119.986 62.9647 120.2 62.8739 120.379 62.7324C120.558 62.5909 120.695 62.4038 120.777 62.1909C121.082 62.3904 121.297 62.7013 121.376 63.0572C121.455 63.4132 121.392 63.786 121.2 64.096C120.904 64.7733 120.607 65.5354 121.623 65.8317C122.639 66.1281 122.936 65.4507 123.19 64.731C123.867 62.9952 124.544 61.3018 125.179 59.5661C125.433 58.8887 125.56 58.169 126.619 58.296C126.647 60.2962 126.072 62.2584 124.968 63.9266C124.671 64.5193 124.206 65.3237 124.968 65.747C125.73 66.1704 125.941 65.4084 126.28 64.858C127.011 63.8476 128.076 63.1279 129.286 62.8259C128.434 65.0096 127.325 67.0844 125.984 69.0069C123.317 73.2404 124.46 78.1514 123.274 82.5966C123.274 82.9353 123.698 83.4856 123.952 83.9513C123.444 86.5761 122.978 89.1586 122.47 91.7834C120.438 91.106 120.988 89.0316 120.226 87.5498C120.099 86.9995 120.353 85.8141 119.083 85.6447Z" fill="#61331C"/>
<path d="M120.776 62.2332C120.695 62.4461 120.557 62.6332 120.379 62.7747C120.2 62.9162 119.986 63.007 119.76 63.0375C120.537 58.2818 122.234 53.7231 124.756 49.6172C125.179 51.9456 123.274 53.5121 122.724 55.5018C122.173 57.4916 121.411 59.9894 120.776 62.2332Z" fill="#9C6767"/>
<path d="M128.566 218.748L129.709 220.61C129.709 221.33 129.201 222.007 128.693 221.626C128.185 221.245 127.804 219.764 128.566 218.748Z" fill="#9C6767"/>
<path d="M123.147 176.2C122.776 175.744 122.599 175.159 122.654 174.573C122.709 173.987 122.993 173.447 123.443 173.068C123.617 173.581 123.681 174.126 123.63 174.666C123.579 175.205 123.414 175.728 123.147 176.2Z" fill="#9C6767"/>
<path d="M135.509 198.384C134.832 198.003 134.239 197.538 134.705 196.733C134.774 196.563 134.883 196.413 135.022 196.294C135.161 196.175 135.327 196.091 135.506 196.049C135.684 196.008 135.87 196.01 136.047 196.055C136.225 196.1 136.389 196.188 136.526 196.31C136.444 197.1 136.084 197.835 135.509 198.384Z" fill="#9C6767"/>
<path d="M126.238 46.5691C126.238 47.5005 126.534 48.3895 125.264 48.6435C125.259 48.2466 125.344 47.8538 125.512 47.4944C125.681 47.1351 125.929 46.8187 126.238 46.5691Z" fill="#9C6767"/>
<path d="M135.17 200.797C135.085 200.712 135.021 200.607 134.987 200.491C134.953 200.376 134.948 200.253 134.973 200.135C134.998 200.017 135.053 199.907 135.132 199.816C135.211 199.724 135.311 199.654 135.424 199.612C135.522 199.809 135.55 200.034 135.504 200.249C135.458 200.464 135.34 200.658 135.17 200.797Z" fill="#9C6767"/>
<path d="M130.598 217.901C130.572 217.881 130.551 217.856 130.536 217.826C130.521 217.797 130.514 217.764 130.514 217.732C130.514 217.699 130.521 217.666 130.536 217.637C130.551 217.607 130.572 217.582 130.598 217.562V217.901Z" fill="#9C6767"/>
<path d="M141.267 186.276L141.648 185.557C141.682 185.628 141.699 185.706 141.697 185.785C141.695 185.864 141.675 185.942 141.638 186.012C141.601 186.082 141.548 186.142 141.484 186.188C141.419 186.234 141.345 186.264 141.267 186.276Z" fill="#9C6767"/>
<path d="M141.267 61.1325L151.851 58.55C153.104 58.4716 154.323 58.1157 155.421 57.508C156.52 56.9002 157.469 56.0559 158.201 55.0361C158.963 53.6391 159.471 55.0361 160.064 55.0361C164.103 58.0353 168.896 59.8529 173.908 60.2857C178.214 61.1708 182.138 63.3746 185.134 66.5913C188.131 69.808 190.052 73.8779 190.63 78.236C192.272 89.6068 191.741 101.186 189.064 112.358C188.349 115.129 187.923 117.967 187.794 120.826C187.732 122.618 187.224 124.366 186.314 125.911C185.405 127.457 184.123 128.75 182.586 129.674C181.948 129.999 181.462 130.561 181.232 131.24C177.633 132.383 174.754 134.881 171.24 136.363C167.918 137.836 164.243 138.327 160.65 137.78C157.056 137.232 153.695 135.668 150.962 133.272C150.386 132.768 149.714 132.384 148.987 132.144C148.259 131.904 147.491 131.812 146.728 131.875C146.432 131.24 146.262 130.393 145.754 130.055C138.727 124.805 136.314 116.973 133.943 109.141C131.941 101.434 130.693 93.5508 130.217 85.6024V80.7338L131.233 72.2667C131.699 71.8857 131.53 71.3777 131.487 70.912C131.953 67.3981 134.62 65.6624 137.076 63.6726C137.795 63.0799 139.108 63.0799 139.235 61.8098H140.166C140.393 61.8058 140.615 61.7408 140.809 61.6216C141.003 61.5025 141.161 61.3335 141.267 61.1325Z" fill="#F3C096"/>
<path d="M203.881 90.725C202.951 88.3849 202.311 85.9393 201.976 83.4433C201.171 81.0557 200.15 78.746 198.928 76.5426C201.426 72.3091 197.912 69.2186 196.091 65.9587C195.346 64.9782 194.494 64.0836 193.551 63.2916C192.959 62.6566 192.45 61.8945 193.551 61.2595C193.699 61.1497 193.871 61.0772 194.053 61.0481C194.234 61.019 194.42 61.0342 194.595 61.0924C194.769 61.1505 194.927 61.25 195.055 61.3823C195.183 61.5146 195.277 61.6758 195.329 61.8522C196.218 64.9427 200.367 65.4507 200.748 68.9646C200.748 69.5149 201.68 69.8113 202.272 69.4726C202.536 69.2991 202.722 69.0307 202.793 68.7233C202.864 68.4159 202.814 68.093 202.653 67.8215C201.595 65.4931 200.537 63.2069 199.351 60.9631C196.902 56.0712 193.037 52.0294 188.259 49.3632C197.192 49.3632 206.04 62.0639 207.226 77.093C208.242 76.1193 208.919 75.7806 208.919 77.6857C209.019 80.0885 208.623 82.4861 207.756 84.7293C206.89 86.9726 205.57 89.0135 203.881 90.725Z" fill="#61331C"/>
<path d="M213.915 152.408V150.587C214.507 150.587 215.142 150.587 215.1 151.561C215.058 152.535 214.38 152.111 213.915 152.408Z" fill="#9C6767"/>
<path d="M214.338 154.694C214.144 154.543 214.008 154.33 213.954 154.091C213.9 153.851 213.931 153.601 214.041 153.382C214.846 153.678 215.269 154.059 214.338 154.694Z" fill="#9C6767"/>
<path d="M219.291 170.4L219.037 170.824C218.998 170.671 218.998 170.511 219.037 170.358C219.037 170.358 219.037 170.062 219.291 169.935V170.4Z" fill="#9C6767"/>
<path d="M130.133 85.6447C130.608 93.5931 131.856 101.476 133.858 109.183C136.229 117.015 138.642 124.847 145.67 130.097C146.178 130.436 146.347 131.282 146.644 131.917C147.075 136.756 146.259 141.624 144.273 146.057C143.553 147.412 142.96 148.852 141.267 149.275C139.837 146.665 138.985 143.777 138.769 140.808C136.398 132.044 133.647 123.366 131.53 114.518C129.641 105.603 128.929 96.4798 129.413 87.3805C129.413 86.7878 129.371 86.0681 130.133 85.6447Z" fill="#81443E"/>
<path d="M130.133 85.6448C129.371 86.0681 129.413 86.7878 129.413 87.5075C128.929 96.6069 129.641 105.73 131.53 114.645C133.646 123.493 136.398 132.171 138.769 140.935C138.984 143.904 139.836 146.792 141.267 149.402V151.095C139.277 150.376 139.362 148.259 139.023 146.862C137.499 140.766 135.128 134.881 133.689 128.827C131.784 120.741 129.455 112.782 128.143 104.526C127.258 101.563 126.705 98.5099 126.492 95.4243C126.558 91.7821 127.113 88.1654 128.143 84.6711C128.693 83.274 127.846 81.2842 130.006 80.4375L130.133 85.6448Z" fill="#9C6767"/>
<path d="M139.954 61.8099H139.023C139.319 61.5559 139.616 61.1748 139.954 61.8099Z" fill="#61331C"/>
<path d="M215.142 182.043C216.073 185.437 216.073 189.02 215.142 192.415C214.126 195.886 211.713 198.638 210.909 202.194C210.909 202.914 209.808 202.956 209.046 202.787C208.284 202.618 208.199 201.983 208.199 201.348C208.047 200.551 208.047 199.732 208.199 198.935C210.57 193.854 211.163 188.224 213.068 183.059C213.205 182.723 213.431 182.431 213.722 182.215C214.013 181.999 214.358 181.866 214.719 181.831L215.142 182.043ZM210.401 200.586C210.401 200.586 210.655 200.247 210.655 200.12C210.655 199.993 210.655 199.824 210.401 199.654C210.147 199.485 210.401 199.951 210.401 200.12C210.39 200.219 210.39 200.318 210.401 200.416V200.586Z" fill="#81443E"/>
<path d="M216.92 184.286L216.582 184.54L216.836 184.202L216.92 184.286Z" fill="#81443E"/>
<path d="M210.401 200.416C210.376 200.262 210.376 200.105 210.401 199.951C210.401 199.951 210.401 199.654 210.401 199.485C210.401 199.316 210.655 199.781 210.655 199.951C210.655 200.12 210.485 200.247 210.401 200.416Z" fill="#9C6767"/>
<path d="M160.741 112.993H169.674C169.518 115.251 168.512 117.365 166.857 118.909C165.203 120.453 163.025 121.312 160.762 121.312C158.499 121.312 156.321 120.453 154.667 118.909C153.013 117.365 152.006 115.251 151.851 112.993H160.741Z" fill="white"/>
<path d="M147.363 98.811C149.748 98.811 151.681 95.6836 151.681 91.8257C151.681 87.9678 149.748 84.8403 147.363 84.8403C144.978 84.8403 143.045 87.9678 143.045 91.8257C143.045 95.6836 144.978 98.811 147.363 98.811Z" fill="#161515"/>
<path d="M174.161 98.811C176.546 98.811 178.48 95.6836 178.48 91.8257C178.48 87.9678 176.546 84.8403 174.161 84.8403C171.777 84.8403 169.843 87.9678 169.843 91.8257C169.843 95.6836 171.777 98.811 174.161 98.811Z" fill="#161515"/>
</svg>
