<svg width="345" height="240" viewBox="0 0 345 240" fill="none" xmlns="http://www.w3.org/2000/svg">
<rect x="0.643066" y="0.262024" width="343.438" height="239.623" rx="23" fill="white"/>
<path d="M196.188 160.091C200.21 164.997 197.797 169.301 200.572 183.498C201.877 190.249 203.858 196.851 206.484 203.205H153.516C156.494 194.927 158.492 186.329 159.468 177.586C160.675 166.445 159.468 162.383 162.726 158.482C169.644 150.438 189.11 151.122 196.188 160.091Z" fill="#E2B28F"/>
<path d="M180.02 164.515C207.297 164.515 229.409 137.199 229.409 103.503C229.409 69.8071 207.297 42.4911 180.02 42.4911C152.743 42.4911 130.631 69.8071 130.631 103.503C130.631 137.199 152.743 164.515 180.02 164.515Z" fill="#F3C096"/>
<path d="M177.768 139.78H189.109C188.971 142.67 187.733 145.397 185.65 147.405C183.566 149.412 180.795 150.547 177.902 150.578C175.009 150.609 172.214 149.533 170.088 147.57C167.962 145.608 166.667 142.908 166.466 140.022L177.768 139.78Z" fill="white"/>
<path d="M134.372 118.424C130.969 114.755 128.403 110.392 126.851 105.635C125.162 100.366 123.634 90.6732 127.615 88.8634C128.5 88.4612 130.229 88.1796 133.608 90.0699C131.638 99.3832 131.9 109.03 134.372 118.223V118.424Z" fill="#F3C096"/>
<path d="M227.197 118.424C230.685 114.785 233.323 110.417 234.919 105.635C236.608 100.366 238.136 90.6732 234.155 88.8634C233.27 88.4612 231.54 88.1796 228.162 90.0699C230.132 99.3832 229.87 109.03 227.398 118.223L227.197 118.424Z" fill="#F3C096"/>
<path d="M163.692 111.989C166.601 111.989 168.96 108.19 168.96 103.503C168.96 98.8162 166.601 95.0168 163.692 95.0168C160.782 95.0168 158.423 98.8162 158.423 103.503C158.423 108.19 160.782 111.989 163.692 111.989Z" fill="#161515"/>
<path d="M196.309 111.989C199.218 111.989 201.577 108.19 201.577 103.503C201.577 98.8162 199.218 95.0168 196.309 95.0168C193.399 95.0168 191.04 98.8162 191.04 103.503C191.04 108.19 193.399 111.989 196.309 111.989Z" fill="#161515"/>
<path d="M107.546 132.139C108.029 133.144 118.244 152.61 140.083 154.259C147.714 154.766 155.331 153.086 162.041 149.418C168.751 145.749 174.277 140.244 177.969 133.546C179.336 136.08 188.104 151.444 205.398 154.822C223.416 158.321 243.284 147.462 252.494 127.594C241.739 132.986 229.756 135.454 217.745 134.753C198.923 133.305 194.78 123.974 177.165 124.135C161.6 124.135 158.664 131.616 139.077 134.029C128.538 135.289 117.859 134.649 107.546 132.139Z" fill="#663716"/>
</svg>
