<svg width="345" height="240" viewBox="0 0 345 240" fill="none" xmlns="http://www.w3.org/2000/svg">
<rect x="0.643066" y="0.261902" width="343.438" height="239.623" rx="23" fill="white"/>
<path d="M167.254 145.885C167.254 149.566 167.254 153.281 167.254 156.996V157.409C166.567 158.203 166.06 159.138 165.769 160.147C165.478 161.157 165.41 162.218 165.569 163.256C166.494 169.741 166.06 176.348 164.296 182.656C163.222 187.166 163.069 191.846 163.849 196.415C164.044 197.071 164.003 197.775 163.732 198.403C163.462 199.032 162.98 199.545 162.37 199.855C161.164 200.745 160.015 201.71 158.93 202.745C158.07 203.398 157.073 204.017 156.041 203.501C155.009 202.985 153.014 203.02 152.601 201.609C152.188 200.199 153.839 199.511 154.734 198.686C156.034 197.46 156.973 195.901 157.446 194.178C157.919 192.455 157.909 190.634 157.417 188.917C155.964 182.059 155.021 175.103 154.596 168.106C154.421 166.706 154.49 165.286 154.802 163.91C157.589 155.413 155.284 147.192 153.427 138.971C151.634 130.025 151.505 120.825 153.048 111.832C153.048 111.522 153.048 111.213 153.048 110.525C151.879 112.038 152.119 113.655 151.569 114.859C149.471 119.33 150.056 124.077 149.712 128.618C149.712 129.512 150.124 130.922 148.817 131.026C147.51 131.129 148.37 129.546 147.889 128.859L147.407 128.205C147.044 128.955 146.967 129.812 147.188 130.615C147.409 131.419 147.915 132.115 148.611 132.573C149.127 132.986 150.021 133.433 149.333 134.259C148.645 135.084 148.026 134.5 147.338 134.259C145.378 133.399 144.827 131.473 143.898 129.822V127.001C144.809 125.689 145.29 124.127 145.274 122.529V121.669C145.452 121.556 145.58 121.379 145.631 121.174C145.682 120.969 145.653 120.753 145.55 120.569L145.756 114.859C146.753 111.419 145.997 107.601 146.65 103.989C146.889 102.393 147.038 100.786 147.097 99.1734C147.097 98.5542 147.269 97.9351 147.338 97.3503C148.906 92.9438 149.481 88.2458 149.024 83.5913C148.604 78.3668 149.2 73.1105 150.778 68.1124C151.321 66.6361 152.242 65.3284 153.45 64.3203C154.657 63.3121 156.108 62.6389 157.657 62.368C159.721 61.852 161.992 61.8864 163.608 60.0633C165.225 58.2402 164.984 57.4147 162.68 56.6236C161.486 56.4538 160.349 56.0038 159.362 55.3103C158.376 54.6167 157.568 53.6994 157.004 52.6334C157.866 52.403 158.621 51.8776 159.136 51.1487C159.651 50.4197 159.895 49.5332 159.825 48.6433C159.825 46.0635 159.825 43.5181 159.825 40.9383V40.0439C160.437 39.3987 160.802 38.5583 160.856 37.6705C161.642 37.0166 162.286 36.2089 162.748 35.297C166.532 32.7516 170.729 33.6804 174.822 33.9555L175.441 34.2651C175.441 34.5747 175.441 34.6779 175.854 34.5747L178.468 37.1201C180.097 40.4521 181.255 43.9946 181.908 47.6458C182.154 48.588 182.208 49.5699 182.069 50.5336C181.929 51.4973 181.598 52.4232 181.094 53.2568C180.591 54.0903 179.926 54.8147 179.138 55.387C178.35 55.9593 177.456 56.3681 176.507 56.5892C174.34 57.2083 174.787 58.4466 175.51 59.6505C175.895 60.2464 176.399 60.7559 176.991 61.1467C177.584 61.5374 178.25 61.8011 178.95 61.9208C187.411 63.7095 189.854 66.6677 190.438 75.4047C190.438 76.5742 190.163 77.8469 190.92 78.8444V80.7707C190.129 83.7926 190.129 86.9673 190.92 89.9892V90.8836C191.09 93.7639 191.539 96.6208 192.261 99.4142C192.931 104.939 193.275 110.498 193.293 116.063C193.382 119.485 194.045 122.869 195.254 126.072C195.837 127.463 195.889 129.019 195.401 130.445C194.913 131.872 193.918 133.07 192.605 133.812C192.089 134.053 191.505 134.5 191.092 133.812C190.679 133.124 191.092 132.814 191.608 132.436C192.291 131.904 192.748 131.134 192.889 130.279C193.029 129.425 192.842 128.549 192.365 127.827C191.264 128.549 192.365 130.682 191.023 130.51C189.682 130.338 190.301 128.549 190.335 127.551C190.335 117.473 186.551 108.186 185.004 98.4166C184.522 95.3209 184.419 92.1907 184.109 89.0605C184.193 88.1975 184 87.3303 183.559 86.5839C183.149 86.699 182.785 86.9403 182.519 87.2737C182.254 87.6071 182.1 88.0156 182.08 88.4413C181.687 92.2068 182.182 96.0118 183.524 99.5518C186.057 105.855 187.499 112.543 187.79 119.33C188.297 128.693 187.239 138.075 184.66 147.089C183.411 151.591 183.411 156.347 184.66 160.848C185.674 165.854 185.674 171.012 184.66 176.018C184.212 180.077 183.421 184.135 182.596 188.16C182.061 190.167 182.128 192.287 182.789 194.256C183.449 196.226 184.674 197.957 186.311 199.236C188.547 201.093 188.306 201.403 185.657 202.676C184.852 203.128 183.921 203.303 183.006 203.172C182.092 203.042 181.247 202.613 180.601 201.953C179.593 200.856 178.435 199.906 177.161 199.133C176.825 198.96 176.555 198.681 176.393 198.339C176.231 197.997 176.187 197.611 176.267 197.241C178.296 188.986 175.235 181.143 174.34 173.163C173.876 170.361 173.876 167.502 174.34 164.701C174.615 163.571 174.615 162.391 174.34 161.261C173.294 157.708 172.636 154.052 172.38 150.357C172.38 150.047 172.38 149.738 172.38 149.428C173.652 147.536 172.655 145.61 172.38 143.787C171.52 137.905 170.797 132.023 170.419 126.072C170.419 125.694 170.419 125.247 169.525 124.765C169.525 129.959 168.183 134.775 168.802 139.797V140.657C168.011 141.207 168.424 141.998 168.424 142.686V143.581C167.048 144.165 167.289 145.163 167.254 145.885ZM156.178 86.5495L154.906 101.306C158.449 97.0751 159.033 88.8197 156.178 86.5495Z" fill="#91C021"/>
</svg>
