<svg width="345" height="240" viewBox="0 0 345 240" fill="none" xmlns="http://www.w3.org/2000/svg">
<rect x="0.643066" y="0.261902" width="343.438" height="239.623" rx="23" fill="white"/>
<path d="M202.813 137.86C202.921 137.723 203.076 137.633 203.248 137.606C204.204 136.557 204.925 135.316 205.363 133.966C205.8 132.615 205.944 131.187 205.786 129.777C205.001 125.325 204.613 120.813 204.626 116.292C204.626 103.316 201.436 90.6289 201.001 77.6884C200.853 75.119 200.353 72.5821 199.515 70.1489C198.468 67.0031 196.55 64.2191 193.983 62.1208C191.416 60.0224 188.307 58.696 185.015 58.2958C183.143 58.1097 181.403 57.246 180.122 55.8672C179.107 54.526 178.636 53.2574 180.919 52.4237C182.212 52.0467 183.381 51.3354 184.311 50.3616C185.24 49.3878 185.896 48.1861 186.212 46.8777C186.899 41.5515 185.734 36.1509 182.913 31.5811C181.028 27.9563 177.512 27.4851 173.924 26.9051C172.347 26.5112 170.701 26.4843 169.112 26.8267C167.523 27.1691 166.034 27.8716 164.759 28.8801C163.485 29.8886 162.458 31.1761 161.76 32.6436C161.061 34.1111 160.709 35.7193 160.729 37.3445C160.729 39.3744 160.729 41.4043 160.729 43.4342C160.758 44.697 160.289 45.9205 159.424 46.8415C157.503 49.1251 157.54 49.4876 160.294 50.9375C161.309 51.4812 162.433 51.8074 163.448 52.3149C164.463 52.8224 165.913 52.3149 165.949 53.7286C165.936 54.4014 165.753 55.06 165.417 55.6431C165.082 56.2262 164.604 56.7148 164.028 57.0634C162.708 57.8079 161.255 58.288 159.751 58.4771C156.947 58.9189 154.26 59.9172 151.849 61.4131C149.494 63.242 147.552 65.546 146.146 68.1752C144.741 70.8044 143.905 73.6999 143.693 76.6735C143.113 80.552 143.475 84.4668 142.895 88.3453C141.484 95.2001 140.636 102.159 140.358 109.152C140.555 116.064 140.118 122.98 139.053 129.813C138.723 131.306 138.858 132.864 139.442 134.277C140.025 135.69 141.028 136.89 142.315 137.715C143.222 138.295 144.454 139.455 145.397 138.404C146.339 137.352 144.49 136.664 144.055 135.758C144.039 135.552 144.039 135.346 144.055 135.141C146.194 135.54 145.904 134.054 146.049 132.713C146.098 127.493 146.942 122.31 148.55 117.344C148.55 117.054 148.768 116.727 148.296 116.619C147.91 121.842 147.849 127.084 148.115 132.314C148.6 137.534 149.82 142.66 151.74 147.538C154.229 154.11 155.039 161.199 154.096 168.163C153.149 177.361 154.238 186.655 157.286 195.385C158.404 197.782 158.672 200.489 158.046 203.058C157.42 205.628 155.938 207.908 153.842 209.522C152.574 210.573 152.719 211.624 154.205 212.422C156.525 213.618 158.808 214.379 160.947 212.023C161.73 211.054 162.689 210.242 163.774 209.631C164.54 209.284 165.171 208.696 165.571 207.956C165.97 207.216 166.116 206.365 165.985 205.535C165.668 202.368 165.79 199.172 166.348 196.038C169.973 183.822 167.544 170.991 170.444 158.775C170.589 157.802 170.589 156.812 170.444 155.839C170.298 153.181 170.481 150.514 170.988 147.901C171.676 143.297 172.147 138.621 172.764 133.764C171.857 134.38 172.22 134.888 172.256 135.395C173.339 140.961 174.066 146.591 174.431 152.25C174.425 157.472 175.083 162.673 176.388 167.728C176.62 168.767 176.62 169.843 176.388 170.882C175.719 173.92 175.645 177.059 176.171 180.125C177.958 188.972 178.952 197.961 179.143 206.985C179.086 207.386 179.152 207.795 179.334 208.158C179.515 208.521 179.803 208.82 180.158 209.015C181.539 209.743 182.769 210.727 183.783 211.914C184.628 212.828 185.784 213.394 187.024 213.501C188.264 213.608 189.499 213.249 190.489 212.494C192.229 211.552 192.483 210.646 190.924 209.341C188.912 207.77 187.488 205.567 186.883 203.087C186.278 200.608 186.527 197.996 187.589 195.675C190.764 186.047 191.815 175.845 190.67 165.771C189.968 160.478 190.552 155.094 192.374 150.075C193.872 145.91 195.083 141.647 195.999 137.316C196.955 131.716 197.295 126.027 197.014 120.352C198.295 124.309 198.931 128.445 198.898 132.604C199.116 134.235 201.218 136.048 199.116 137.969C198.681 138.367 199.913 138.984 200.602 138.839C201.369 138.584 202.109 138.256 202.813 137.86Z" fill="#EF7D21"/>
</svg>
