<svg width="345" height="240" viewBox="0 0 345 240" fill="none" xmlns="http://www.w3.org/2000/svg">
<rect x="0.643066" y="0.261902" width="343.438" height="239.623" rx="23" fill="white"/>
<path d="M152.831 210.379C153.369 210.329 153.866 210.073 154.221 209.665C155.958 208.148 157.204 206.148 157.8 203.919C158.395 201.691 158.314 199.336 157.565 197.154C154.637 187.015 153.958 176.359 155.574 165.931C156.484 161.051 156.2 156.024 154.747 151.277C152.684 144.957 151.236 138.452 150.426 131.852C150.013 128.396 150.426 124.901 149.9 120.58C148.848 122.609 147.946 123.924 148.66 125.615C149.13 127.235 149.13 128.955 148.66 130.575C148.017 132.435 147.699 134.393 147.721 136.361C147.721 137.037 148.548 137.601 147.721 138.24C146.894 138.878 146.368 138.24 145.73 138.24C144.115 137.394 142.862 135.99 142.206 134.29C141.549 132.589 141.533 130.708 142.16 128.997C143.113 124.969 143.617 120.849 143.663 116.71C143.646 110.814 144.06 104.925 144.903 99.0889C146.189 92.5583 146.731 85.903 146.519 79.2504C146.474 76.1992 146.828 73.1552 147.571 70.1954C149.487 61.7039 152.605 58.5103 161.059 56.9698C162.498 56.8089 163.87 56.2782 165.042 55.4293C167.071 53.7761 166.808 52.2732 164.403 51.2963C162.697 50.7374 161.078 49.9405 159.594 48.9292C158.918 48.3656 157.903 47.5014 158.842 46.7124C162.149 44.1199 161.172 40.5505 161.247 37.2065C161.16 34.5984 161.742 32.0115 162.938 29.692C166.921 23.1167 179.996 23.9809 182.889 30.6313C184.114 33.2493 185.083 35.9798 185.782 38.7846C187.097 45.0968 185.782 48.5159 181.086 50.883C180.184 51.3714 178.794 51.5217 178.906 52.9495C178.977 53.582 179.207 54.1861 179.575 54.7053C179.943 55.2245 180.437 55.6417 181.01 55.9177C182.72 56.7324 184.545 57.2774 186.421 57.5334C188.97 57.9625 191.338 59.1315 193.228 60.8951C195.119 62.6586 196.449 64.939 197.054 67.4526C198.296 71.3111 198.892 75.348 198.82 79.4007C198.324 84.506 198.564 89.656 199.534 94.6928C200.456 98.7112 200.935 102.819 200.962 106.942C200.817 114.954 201.484 122.96 202.953 130.838C203.272 132.373 203.035 133.971 202.285 135.347C201.535 136.723 200.32 137.788 198.857 138.352C197.993 138.653 196.716 138.653 197.092 137.714C197.956 135.384 196.528 133.506 196.227 131.477C195.889 128.846 196.453 126.329 196.227 123.737C196.227 122.985 196.227 121.858 195.213 121.896C194.198 121.933 194.424 123.023 194.461 123.699C194.741 125.564 194.854 127.45 194.8 129.335C194.288 135.421 193.104 141.432 191.268 147.257C189.441 152.243 188.636 157.546 188.901 162.85C189.126 165.893 189.878 168.899 190.065 171.942C190.508 180.622 189.53 189.315 187.172 197.68C186.574 199.637 186.521 201.721 187.017 203.707C187.514 205.693 188.541 207.506 189.99 208.952C193.297 212.183 192.883 213.423 188.375 214.7C187.763 214.839 187.126 214.822 186.522 214.652C185.918 214.481 185.367 214.162 184.918 213.723C183.762 212.596 182.504 211.577 181.161 210.68C179.132 209.59 178.944 208.012 178.944 205.983C179.32 202.955 179.396 199.897 179.169 196.853C177.479 187.798 174.398 178.893 176.276 169.425C176.324 168.44 176.171 167.456 175.825 166.532C174.807 163.556 174.274 160.435 174.247 157.289C174.667 152.636 174.465 147.949 173.646 143.35C173.557 141.379 173.191 139.431 172.556 137.563C172.274 137.683 172.038 137.889 171.882 138.153C171.727 138.417 171.66 138.724 171.692 139.029C170.859 144.99 170.495 151.008 170.603 157.026C170.792 158.911 170.6 160.815 170.039 162.624C168.648 166.544 168.388 170.775 169.288 174.836C169.516 176.078 169.516 177.351 169.288 178.593C168.311 188.399 164.704 197.905 165.906 207.937C165.999 208.292 165.992 208.666 165.886 209.018C165.78 209.369 165.579 209.684 165.305 209.928C163.464 211.394 161.736 212.934 159.782 214.212C157.828 215.489 155.649 214.512 153.733 213.498C151.816 212.483 152.793 211.544 153.094 210.417L152.831 210.379ZM153.958 102.358C156.589 97.2676 157.71 91.5317 157.189 85.8257H156.175L153.958 102.358Z" fill="#EAE218"/>
</svg>
