<svg width="345" height="240" viewBox="0 0 345 240" fill="none" xmlns="http://www.w3.org/2000/svg">
<rect x="0.643066" y="0.261963" width="343.438" height="239.623" rx="23" fill="white"/>
<path d="M195.691 163.114C195.4 163.355 195.065 163.536 194.705 163.647C194.344 163.758 193.966 163.796 193.59 163.761C190.749 166.34 187.518 168.453 184.017 170.022C179.435 172.968 173.884 174.012 168.545 172.93C162.338 171.138 156.591 168.023 151.7 163.801C150.085 162.468 148.711 160.771 146.409 160.61C146.409 160.125 146.409 159.56 146.409 159.196C138.572 148.532 135.785 136.13 133.927 123.406C133.927 122.396 133.927 121.103 132.674 120.538H133.038V120.255C133.585 119.595 134.097 118.908 134.573 118.195C137.6 112.154 138.727 105.338 137.805 98.6437C137.046 90.8045 138.755 82.9243 142.692 76.1032C142.894 76.386 143.258 76.6284 143.379 76.9515C147.419 90.8474 157.679 97.4318 170.686 101.189C181.597 103.521 192.383 106.407 203.002 109.833C206.44 110.71 209.545 112.578 211.93 115.206C211.566 117.413 211.566 119.664 211.93 121.871C211.745 122.33 211.596 122.803 211.485 123.285C209.425 137.665 206.153 151.763 195.691 163.114Z" fill="#F3C096"/>
<path d="M132.997 120.255V120.538H132.634C132.404 122.081 131.665 123.503 130.533 124.577C125.621 130.777 121.697 137.699 118.9 145.098C118.617 145.946 118.9 147.603 117.041 147.199C115.183 146.795 115.668 145.704 115.587 144.573C115.345 141.018 116.839 137.625 116.314 134.03V133.383C116.836 132.778 117.224 132.069 117.454 131.304C117.683 130.538 117.749 129.733 117.647 128.94C117.601 123.181 116.965 117.442 115.749 111.812C113.687 104.413 113.233 96.6592 114.416 89.07C115.238 83.9817 116.523 78.979 118.253 74.1238C123.949 60.0259 131.866 53.9263 147.217 53.6839C149.183 53.717 151.098 53.0594 152.629 51.8257C155.781 49.3376 159.645 47.9222 163.657 47.7862C168.661 48.289 173.707 48.1805 178.684 47.463C186.036 45.2817 192.621 47.0995 199.528 48.4729C205.283 50.326 210.811 52.8192 216.009 55.9056C216.051 55.9964 216.112 56.077 216.188 56.1419C216.264 56.2068 216.353 56.2544 216.449 56.2813C216.545 56.3082 216.646 56.3138 216.744 56.2978C216.843 56.2817 216.937 56.2444 217.019 56.1884L216.535 57.2387H216.171H215.848C217.746 60.6722 221.503 62.0861 223.927 64.7521C230.573 71.0464 235.317 79.0803 237.621 87.939C238.847 92.9685 238.847 98.2191 237.621 103.249C236.297 108.278 235.833 113.495 236.247 118.68C236.651 123.487 242.064 127.607 238.146 132.939C238.146 132.939 238.146 133.424 238.146 133.666C238.821 136.247 238.943 138.941 238.504 141.573C238.066 144.204 237.076 146.713 235.601 148.936C234.793 150.147 234.026 152.975 232.693 148.936C232.405 148.344 231.958 147.845 231.401 147.495C230.844 147.145 230.2 146.958 229.542 146.956C227.28 142.109 222.109 140.17 218.877 136.292C221.151 133.769 223.218 131.068 225.058 128.213C231.562 116.256 231.562 103.37 230.309 90.4031C229.977 85.6496 228.598 81.0285 226.27 76.8707C224.573 74.1238 221.988 72.1849 220.13 69.6804C213.355 61.1987 204.282 54.8462 193.994 51.3814C190.048 49.4346 185.54 48.9481 181.27 50.0079C186.641 50.5239 191.789 52.416 196.216 55.5017C201.967 58.4683 206.758 63.007 210.031 68.5897C209.465 68.3473 208.738 68.3069 208.375 67.903C201.452 60.8513 192.076 56.7419 182.199 56.4308C181.108 56.4308 180.3 56.4307 179.613 57.2387C186.935 59.7745 194.007 62.9793 200.74 66.8123C207.123 71.0942 213.788 74.8913 217.868 82.1624C216.515 82.2238 215.168 81.9542 213.943 81.377C212.718 80.7998 211.653 79.9324 210.839 78.85C204.78 72.3464 196.458 69.1148 188.622 65.2773C188.056 64.9945 187.369 64.7118 186.925 65.2773C186.481 65.8428 186.925 66.6103 187.652 67.0951C188.132 67.4778 188.646 67.8159 189.187 68.1049C196.113 72.8036 202.237 78.5868 207.324 85.2325C208.161 86.128 208.943 87.0722 209.667 88.0601C209.773 88.2591 209.829 88.481 209.829 88.7065C209.829 88.9319 209.773 89.1539 209.667 89.3528C209.304 89.8375 208.779 89.5952 208.375 89.3528C207.811 88.8828 207.284 88.3696 206.799 87.8178C201.77 82.5469 195.95 78.0905 189.551 74.6086C185.511 72.0233 181.754 69.5188 178.159 66.5295C176.786 65.3985 174.968 63.0959 173.797 63.9846C172.625 64.8733 172.948 67.7818 173.797 69.7611C173.797 70.0843 174.12 70.4075 174.241 70.771C175.798 74.9829 177.746 79.04 180.058 82.8896C171.292 76.2244 161.314 70.771 160.345 57.885C158.204 59.5816 158.891 62.4092 157.235 64.1866C156.621 63.0858 156.26 61.8628 156.176 60.6055C156.092 59.3482 156.288 58.0879 156.75 56.9155C156.846 56.5733 156.864 56.2136 156.801 55.8637C156.738 55.5138 156.596 55.1827 156.386 54.8957C155.942 54.3706 155.255 54.8957 154.932 55.4613C152.306 58.8399 150.67 62.8815 150.206 67.1355C150.13 71.519 150.319 75.9031 150.771 80.2639C148.69 76.6056 147.473 72.5196 147.214 68.3186C146.955 64.1177 147.661 59.9131 149.277 56.0268C147.661 56.6731 147.338 58.2889 145.843 58.1273C145.596 57.7663 145.228 57.5062 144.805 57.395C144.382 57.2837 143.933 57.3286 143.541 57.5214C139.784 59.1776 135.704 59.7835 131.988 61.5609C125.282 65.0349 117.445 76.9111 117.768 84.4246C117.768 85.0709 117.486 85.9596 118.455 86.3231C119.586 85.8788 119.021 84.8689 119.223 84.1418C119.569 81.2718 120.374 78.4759 121.606 75.8608C124.243 71.8735 127.566 68.3858 131.422 65.5601C133.159 64.3078 136.189 61.9245 137.724 63.8231C139.259 65.7216 135.502 67.4182 133.684 68.7109C128.637 72.7545 124.91 78.2115 122.979 84.3842C120.152 91.7361 121.889 99.4516 122.333 106.965C122.073 109.326 122.66 111.702 123.989 113.671C124.595 106.521 124.757 99.3708 125.08 92.2612C125.481 87.4224 127.108 82.7653 129.806 78.7289C130.614 82.4856 128.877 84.7477 128.716 87.2926C128.271 93.2307 130.412 98.8052 130.735 104.622C131.647 109.46 130.966 114.463 128.796 118.882C128.054 120.474 127.59 122.182 127.423 123.931C129.887 122.719 130.251 119.609 132.997 120.255Z" fill="#A75F19"/>
<path d="M151.7 163.72C156.591 167.943 162.337 171.057 168.545 172.85C173.884 173.931 179.434 172.888 184.016 169.941C187.518 168.372 190.749 166.259 193.59 163.68C193.59 164.73 193.59 165.74 193.307 166.75L193.065 167.437C192.598 173.725 194.232 179.991 197.71 185.251C200.179 188.346 203.533 190.614 207.324 191.754C208.213 192.078 209.546 192.078 209.627 193.209C209.707 194.34 208.415 194.703 207.607 195.148C203.142 197.766 198.143 199.341 192.984 199.753C178.458 201.41 163.779 201.166 149.317 199.026C145.061 198.446 140.951 197.076 137.198 194.986C136.592 194.623 135.825 194.299 135.825 193.451C135.825 192.603 136.552 192.239 137.279 192.078C141.891 190.839 145.902 187.982 148.58 184.028C151.258 180.075 152.423 175.289 151.862 170.547C151.7 168.123 151.74 165.942 151.7 163.72Z" fill="#E3AC86"/>
<path d="M215.848 55.9056C210.611 52.811 205.042 50.3176 199.245 48.4729C192.338 47.0995 185.754 45.2817 178.402 47.463C173.424 48.1805 168.378 48.289 163.375 47.7862C159.362 47.9222 155.498 49.3376 152.347 51.8257C150.815 53.0595 148.9 53.717 146.934 53.6839C131.584 53.6839 123.666 60.0259 117.97 74.1238C116.24 78.979 114.955 83.9817 114.133 89.07C113.01 96.6867 113.533 104.456 115.668 111.853C116.884 117.482 117.521 123.221 117.567 128.98C117.669 129.773 117.603 130.578 117.373 131.344C117.143 132.11 116.755 132.818 116.233 133.424C117.567 129.384 115.506 125.789 114.254 122.154C109.329 109.433 109.243 95.3467 114.012 82.5664C116.516 75.982 117.405 68.8321 121 62.5708C123.68 57.5943 127.841 53.575 132.908 51.0706C137.975 48.5661 143.696 47.7006 149.277 48.5941C150.958 48.7494 152.641 48.3215 154.043 47.3823C171.05 38.8589 188.298 37.4047 205.507 46.5744C209.551 48.5319 213.048 51.4601 215.686 55.0977L215.848 55.9056Z" fill="#894C1A"/>
<path d="M218.877 136.252C222.109 140.291 227.279 142.068 229.501 146.916L229.137 148.814L228.612 149.784C228.168 149.784 228.006 150.269 228.208 150.713C225.45 155.586 221.252 159.487 216.189 161.88C211.127 164.274 205.449 165.044 199.932 164.084C198.478 163.801 197.064 163.397 195.65 163.034C206.112 151.763 209.384 137.665 211.525 123.123C211.636 122.641 211.785 122.168 211.97 121.709C213.464 122.194 212.656 123.527 212.979 124.456C214.07 127.567 213.908 131.485 218.069 132.535C218.352 133.909 217.625 135.282 218.877 136.252Z" fill="#894C1A"/>
<path d="M116.193 134.07C116.718 137.665 115.223 141.059 115.466 144.613C115.466 145.744 115.466 146.956 116.92 147.239C118.374 147.522 118.495 145.987 118.778 145.138C121.625 137.729 125.604 130.807 130.573 124.618C131.705 123.543 132.444 122.121 132.674 120.578C133.967 121.144 133.765 122.436 133.926 123.446C135.784 136.171 138.572 148.572 146.408 159.236C146.651 159.6 146.408 160.165 146.408 160.65C143.695 160.799 140.996 161.136 138.329 161.66C134.345 162.128 130.317 161.281 126.86 159.246C123.403 157.211 120.706 154.101 119.182 150.39C118.94 149.865 119.182 149.178 118.132 148.936C117.041 149.42 117.889 151.077 116.395 151.642C115.056 148.913 114.344 145.919 114.309 142.879C114.274 139.839 114.918 136.83 116.193 134.07Z" fill="#894C1A"/>
<path d="M229.138 148.814L229.501 146.916C230.181 146.936 230.841 147.152 231.4 147.539C231.959 147.926 232.394 148.468 232.652 149.097C233.985 153.137 234.752 150.147 235.56 149.097C237.007 146.938 237.994 144.503 238.46 141.946C238.925 139.389 238.86 136.763 238.267 134.232C238.267 133.989 238.267 133.666 238.267 133.505C242.306 128.173 236.772 124.052 236.368 119.245C235.954 114.061 236.418 108.844 237.742 103.814C238.968 98.7847 238.968 93.5341 237.742 88.5045C235.438 79.6458 230.693 71.6119 224.048 65.3177C221.422 62.6516 217.665 61.2782 215.969 57.8042H216.292H216.655H217.989C223.837 62.5216 229.075 67.9494 233.581 73.9623C236.816 78.9134 238.951 84.5006 239.843 90.3471C240.735 96.1936 240.363 102.163 238.752 107.854C238.194 110.878 237.937 113.949 237.984 117.023C237.865 119.305 238.394 121.574 239.509 123.568C240.624 125.562 242.28 127.2 244.286 128.294C244.972 128.698 246.184 128.778 245.902 129.91C245.619 131.041 244.488 130.798 243.68 130.798C240.327 130.798 240.206 132.576 240.569 135.322C241.128 138.541 240.898 141.846 239.899 144.956C238.9 148.066 237.162 150.887 234.833 153.177C234.106 153.945 233.298 155.116 232.127 154.712C230.955 154.308 231.763 152.975 231.44 152.086C231.117 151.198 231.844 148.612 229.138 148.814Z" fill="#B37D4B"/>
<path d="M215.848 55.9056V55.0977L216.494 55.8652C216.285 55.9426 216.056 55.9426 215.848 55.8652V55.9056Z" fill="#B37D4B"/>
<path d="M217.867 57.3194H216.534L217.019 56.2692L217.867 57.3194Z" fill="#894C1A"/>
<path d="M215.969 55.9865C216.177 56.0638 216.407 56.0638 216.615 55.9865H216.938V56.3096C216.767 56.3941 216.569 56.4076 216.387 56.3471C216.206 56.2866 216.055 56.157 215.969 55.9865Z" fill="#894C1A"/>
<path d="M228.209 150.713C228.007 150.269 228.209 149.986 228.613 149.784L228.209 150.713Z" fill="#B37D4B"/>
<path d="M218.877 136.252C217.625 135.282 218.352 133.909 218.11 132.697C219.246 129.478 219.239 125.967 218.092 122.752C216.944 119.538 214.725 116.816 211.808 115.044C209.423 112.417 206.319 110.549 202.881 109.672C192.262 106.245 181.476 103.36 170.565 101.027C157.557 97.4318 147.176 90.8474 143.258 76.7899C143.258 76.4667 142.773 76.2244 142.571 75.9416C142.934 70.1247 141.844 63.8231 146.004 58.9757C146.004 58.9757 146.004 58.2889 145.722 57.9658C147.216 57.9658 147.539 56.5116 149.155 55.8652C147.539 59.7515 146.834 63.9561 147.093 68.157C147.352 72.358 148.568 76.444 150.65 80.1023C150.199 75.7549 150.01 71.3844 150.084 67.0143C150.577 62.8167 152.212 58.8347 154.811 55.5017C155.134 54.9361 155.82 54.411 156.265 54.9361C156.475 55.2232 156.616 55.5542 156.679 55.9041C156.742 56.254 156.725 56.6137 156.628 56.9559C156.167 58.1284 155.971 59.3886 156.054 60.6459C156.138 61.9032 156.5 63.1262 157.113 64.227C158.769 62.4496 158.083 59.622 160.223 57.9254C161.193 70.6902 171.171 76.2648 179.936 82.93C177.624 79.0804 175.677 75.0233 174.119 70.8114C174.119 70.4479 173.796 70.1247 173.675 69.8016C172.827 67.8222 172.14 65.1965 173.675 64.0251C175.21 62.8536 176.664 65.4389 178.038 66.5699C181.633 69.5188 185.551 72.0233 189.429 74.649C195.829 78.1309 201.648 82.5873 206.678 87.8582C207.162 88.41 207.689 88.9232 208.253 89.3932C208.657 89.7568 209.182 89.9991 209.546 89.3932C209.652 89.1943 209.708 88.9723 209.708 88.7469C209.708 88.5214 209.652 88.2995 209.546 88.1006C208.821 87.1126 208.039 86.1684 207.203 85.2729C202.089 78.5743 195.923 72.7491 188.944 68.0242C188.403 67.7351 187.889 67.397 187.409 67.0143C186.884 66.5295 186.117 66.0044 186.682 65.1965C187.248 64.3886 187.813 64.9137 188.379 65.1965C196.216 69.034 204.537 72.2657 210.596 78.7693C211.41 79.8516 212.475 80.719 213.7 81.2962C214.925 81.8735 216.272 82.1431 217.625 82.0817C213.585 75.0125 206.88 71.0134 200.497 66.7315C193.764 62.8985 186.692 59.6938 179.371 57.1579C180.057 56.1884 180.865 56.2288 181.956 56.35C191.833 56.6612 201.209 60.7705 208.132 67.8222C208.496 68.2261 209.223 68.2665 209.788 68.5089L210.152 68.7917L209.829 68.4685C206.556 62.8858 201.765 58.3471 196.014 55.3805C191.633 52.3701 186.56 50.5215 181.269 50.0079C185.547 49.0549 190.025 49.6413 193.913 51.6641C204.201 55.129 213.274 61.4815 220.049 69.9631C221.907 72.4676 224.492 74.4066 226.189 77.1535C228.516 81.3113 229.896 85.9324 230.228 90.6858C231.521 103.531 231.48 116.418 224.977 128.213C223.161 131.051 221.122 133.739 218.877 136.252ZM218.594 84.3438C218.069 84.9497 218.594 85.4749 218.594 86.0404C218.666 86.7149 218.934 87.3535 219.365 87.8775C219.796 88.4015 220.37 88.788 221.018 88.9892C221.135 89.034 221.259 89.0548 221.384 89.0505C221.508 89.0461 221.631 89.0166 221.744 88.9639C221.857 88.9111 221.959 88.836 222.042 88.7432C222.126 88.6504 222.189 88.5418 222.23 88.4237C222.715 86.7271 221.18 86.1212 220.331 85.1517C219.483 84.1822 219.443 83.9399 218.594 84.3438Z" fill="#C37724"/>
<path d="M145.802 58.087C145.802 58.4101 146.206 58.9353 146.085 59.0968C142.046 64.1462 143.015 70.2459 142.652 76.0628C138.739 82.8491 137.031 90.6831 137.764 98.4821C138.686 105.176 137.56 111.992 134.532 118.033C134.056 118.746 133.544 119.434 132.997 120.093C130.25 119.447 129.887 122.719 127.423 123.891C127.59 122.142 128.054 120.434 128.796 118.841C130.876 114.452 131.499 109.512 130.573 104.743C130.25 98.9264 128.109 93.3519 128.554 87.4138C128.554 84.8689 130.452 82.6068 129.644 78.8501C126.946 82.8865 125.319 87.5436 124.918 92.3824C124.595 99.492 124.433 106.642 123.827 113.792C122.611 111.782 122.139 109.409 122.494 107.086C122.05 99.5728 120.313 91.8573 123.141 84.5054C125.071 78.3327 128.798 72.8757 133.845 68.8321C135.623 67.5394 138.935 65.2369 137.885 63.9443C136.835 62.6516 133.32 64.429 131.583 65.6812C127.728 68.507 124.404 71.9947 121.767 75.982C120.535 78.5971 119.73 81.393 119.384 84.263C119.384 84.9901 119.748 86 118.616 86.4443C117.647 86.0808 117.97 85.1921 117.93 84.5458C117.607 77.0323 125.443 65.1561 132.149 61.6821C135.865 59.7836 139.945 59.1776 143.702 57.6426C144.054 57.4841 144.447 57.4416 144.825 57.5215C145.202 57.6014 145.545 57.7995 145.802 58.087Z" fill="#894C1A"/>
<path d="M211.808 115.044C214.726 116.816 216.944 119.538 218.092 122.752C219.239 125.967 219.246 129.478 218.11 132.697C214.07 131.485 214.07 127.567 213.02 124.618C212.697 123.689 213.505 122.356 212.01 121.871C211.562 119.623 211.494 117.315 211.808 115.044Z" fill="#A75F19"/>
<path d="M218.594 84.3438C219.523 83.9399 220.008 84.667 220.453 85.1517C220.897 85.6364 222.836 86.7271 222.351 88.4237C222.311 88.5418 222.247 88.6504 222.163 88.7432C222.08 88.836 221.978 88.9111 221.865 88.9639C221.752 89.0166 221.63 89.0461 221.505 89.0505C221.38 89.0548 221.256 89.034 221.139 88.9892C220.492 88.788 219.917 88.4015 219.486 87.8775C219.055 87.3535 218.788 86.7149 218.716 86.0404C218.635 85.4749 218.069 84.9497 218.594 84.3438Z" fill="#A75F19"/>
<path d="M210.031 68.4281L210.354 68.7513L209.99 68.4685L210.031 68.4281Z" fill="#A75F19"/>
<path d="M172.625 143.2H183.976C184.008 146.21 182.843 149.11 180.737 151.261C178.631 153.413 175.757 154.64 172.746 154.672C169.736 154.704 166.836 153.539 164.684 151.433C162.533 149.327 161.306 146.452 161.274 143.442L172.625 143.2Z" fill="white"/>
<path d="M158.487 124.214C161.008 124.214 163.051 120.922 163.051 116.862C163.051 112.802 161.008 109.51 158.487 109.51C155.966 109.51 153.922 112.802 153.922 116.862C153.922 120.922 155.966 124.214 158.487 124.214Z" fill="#161515"/>
<path d="M186.763 124.214C189.284 124.214 191.328 120.922 191.328 116.862C191.328 112.802 189.284 109.51 186.763 109.51C184.242 109.51 182.199 112.802 182.199 116.862C182.199 120.922 184.242 124.214 186.763 124.214Z" fill="#161515"/>
</svg>
