<svg width="345" height="240" viewBox="0 0 345 240" fill="none" xmlns="http://www.w3.org/2000/svg">
<rect x="0.643066" y="0.261902" width="343.438" height="239.623" rx="23" fill="white"/>
<path d="M193.073 190.333C193.073 194.567 193.073 198.766 192.904 203C192.904 203.508 192.43 203.576 192.023 203.677C188.744 204.406 185.345 204.406 182.066 203.677C181.626 203.677 181.151 203.237 180.677 203.677C180.317 202.248 180.124 200.782 180.101 199.308C180.101 198.8 180.101 198.292 180.101 197.784C179.926 197.111 179.869 196.412 179.932 195.718V195.312C179.775 194.855 179.717 194.37 179.763 193.889C178.916 185.863 178.103 177.836 177.257 169.809C176.952 167.066 176.545 164.356 176.207 161.613C176.207 160.935 175.902 160.461 175.089 160.631C174.875 160.648 174.66 160.648 174.445 160.631C172.244 160.631 172.244 160.631 171.939 162.866C170.686 172.349 169.738 181.866 168.857 191.383L167.841 202.56C167.844 202.729 167.813 202.898 167.749 203.055C167.685 203.212 167.589 203.355 167.469 203.474C164.485 204.184 161.393 204.322 158.358 203.881C157.308 203.677 156.055 203.881 155.208 202.898C155.344 201.921 155.344 200.929 155.208 199.952C155.039 190.943 155.208 181.934 155.445 172.857C155.445 171.672 155.445 170.486 155.615 169.47C155.615 165.914 155.615 162.358 155.953 158.802C155.953 157.583 155.953 156.363 155.953 155.144C156.292 153.281 155.953 151.385 156.326 149.522C156.587 149.42 156.877 149.42 157.139 149.522C161.6 150.49 166.129 151.112 170.686 151.385C176.42 151.678 182.168 151.326 187.823 150.335C189.517 150.03 191.21 149.623 192.938 149.454L193.141 155.313C193.141 158.7 193.141 162.324 193.141 165.813C193.107 174.043 193.107 182.171 193.073 190.333Z" fill="#034C47"/>
<path d="M200.964 56.5192C200.77 52.0722 199.504 47.738 197.272 43.8863C195.861 41.2003 193.821 38.8953 191.326 37.1675C188.832 35.4397 185.957 34.3403 182.946 33.9628C176.133 33.0841 169.215 34.3633 163.167 37.6206C159.572 39.5437 156.545 42.3761 154.388 45.835C152.231 49.2938 151.019 53.2581 150.873 57.332C150.773 57.7712 150.839 58.2319 151.057 58.6256C151.276 59.0193 151.632 59.3185 152.058 59.4657C152.464 59.6351 152.498 59.906 152.498 60.2786C152.516 62.968 152.823 65.6476 153.413 68.2715C154.616 68.065 155.853 68.2181 156.969 68.7118C157.138 66.5104 157.308 64.4444 157.443 62.3446C157.443 61.7688 157.443 61.464 158.222 61.2946C159.53 60.6709 160.686 59.7694 161.609 58.6529C161.609 59.2287 161.609 59.7028 161.846 60.177C161.876 60.6183 162.025 61.0432 162.278 61.4062C162.531 61.7691 162.878 62.0565 163.281 62.2374C163.685 62.4184 164.13 62.4861 164.57 62.4334C165.009 62.3807 165.425 62.2095 165.775 61.9381C167.187 60.9784 168.405 59.7603 169.365 58.3481C169.839 57.7723 170.279 57.095 170.855 56.316V58.1787C170.845 58.8977 171.045 59.604 171.431 60.2109C171.553 60.5403 171.763 60.83 172.038 61.0488C172.313 61.2676 172.643 61.4072 172.991 61.4525C173.34 61.4978 173.694 61.4471 174.016 61.3059C174.338 61.1647 174.615 60.9383 174.818 60.6511C176.012 59.25 177.004 57.6881 177.764 56.0112C178.137 56.9595 178.408 57.8401 178.78 58.6868C178.955 59.3069 179.282 59.8735 179.731 60.3349C180.181 60.7963 180.739 61.1379 181.354 61.3285C181.682 61.4361 182.029 61.4699 182.372 61.4274C182.714 61.3849 183.042 61.2671 183.334 61.0826C183.625 60.898 183.872 60.6513 184.057 60.36C184.242 60.0688 184.36 59.7403 184.402 59.398C184.402 58.5852 184.572 57.8062 184.707 56.6885L185.418 58.619C185.737 59.6348 186.426 60.4933 187.349 61.0237C187.664 61.2684 188.042 61.4183 188.439 61.4559C188.836 61.4935 189.236 61.4172 189.591 61.236C189.946 61.0548 190.243 60.7761 190.445 60.4326C190.648 60.0892 190.749 59.695 190.736 59.2964C190.736 58.5513 190.736 57.8062 190.736 57.0272C191.345 58.0433 191.921 59.2625 193.005 59.6012C194.698 60.1431 194.834 61.3624 194.935 62.7171C195.037 64.0719 195.173 66.104 195.24 67.5264C195.24 68.2377 195.24 68.6441 196.189 68.4409C196.897 68.3564 197.614 68.3564 198.322 68.4409C199.015 65.6327 199.423 62.762 199.542 59.8722C199.542 59.6351 199.542 59.3303 199.779 59.2625C201.099 58.7545 201.032 57.5691 200.964 56.5192Z" fill="#542419"/>
<path d="M199.847 70.1681C199.44 69.3892 198.661 68.9827 198.187 68.3054C197.478 68.2209 196.762 68.2209 196.053 68.3054C195.139 68.5086 195.105 68.1022 195.105 67.3909C195.105 65.7991 194.902 64.1734 194.8 62.5816C194.699 60.9898 194.563 60.0076 192.87 59.4657C191.786 59.127 191.21 57.9078 190.6 56.8917C190.6 57.6707 190.6 58.4158 190.6 59.1609C190.614 59.5595 190.513 59.9537 190.31 60.2971C190.107 60.6406 189.811 60.9193 189.456 61.1005C189.1 61.2817 188.701 61.358 188.304 61.3204C187.907 61.2828 187.529 61.1329 187.214 60.8882C186.291 60.3578 185.601 59.4993 185.283 58.4835L184.741 56.5192C184.741 57.6368 184.572 58.4158 184.436 59.2286C184.419 59.5896 184.318 59.9416 184.141 60.2569C183.964 60.5722 183.717 60.8422 183.418 61.0457C183.119 61.2493 182.778 61.3807 182.419 61.4298C182.061 61.4788 181.697 61.4442 181.354 61.3285C180.746 61.1635 180.186 60.8519 179.726 60.4209C179.265 59.9899 178.918 59.4526 178.713 58.8561C178.34 58.0094 178.069 57.1288 177.697 56.1805C176.87 57.808 175.822 59.3126 174.581 60.6511C174.378 60.9383 174.101 61.1647 173.779 61.3059C173.457 61.4471 173.103 61.4978 172.754 61.4525C172.406 61.4072 172.076 61.2676 171.801 61.0488C171.526 60.83 171.316 60.5402 171.194 60.2108C170.808 59.604 170.608 58.8977 170.618 58.1787V56.316C170.042 57.0949 169.602 57.7723 169.128 58.3481C168.168 59.7603 166.95 60.9784 165.538 61.9381C165.188 62.2095 164.772 62.3806 164.333 62.4334C163.893 62.4861 163.448 62.4183 163.045 62.2374C162.641 62.0565 162.294 61.7691 162.041 61.4062C161.788 61.0432 161.639 60.6183 161.609 60.177C161.609 59.7028 161.609 59.2286 161.372 58.6529C160.449 59.7694 159.293 60.6709 157.985 61.2946C157.342 61.2946 157.24 61.7688 157.206 62.3445C157.206 64.4444 156.901 66.5103 156.732 68.7118C155.616 68.2181 154.379 68.0649 153.176 68.2715C152.16 69.0146 151.421 70.0754 151.076 71.2858C150.884 72.5968 151.046 73.9354 151.547 75.1624C152.047 76.3893 152.867 77.4599 153.921 78.2627C154.27 78.6568 154.697 78.9745 155.175 79.1959C155.653 79.4174 156.172 79.5378 156.698 79.5497C157.646 79.5497 157.951 79.9222 158.222 80.7351C159.338 84.3683 161.748 87.4657 164.996 89.4393C166.464 90.2022 167.98 90.8697 169.534 91.4375C171.842 91.7931 174.178 91.9292 176.511 91.8439C178.038 91.8607 179.564 91.7929 181.083 91.6407L181.862 91.4375C184.205 90.9228 186.403 89.8931 188.297 88.4232C191.025 86.3277 192.979 83.3849 193.852 80.0577C193.852 79.7868 193.852 79.4142 194.36 79.4481C195.213 79.3787 196.037 79.1095 196.767 78.6623C197.496 78.2151 198.111 77.6026 198.56 76.8741C199.385 75.9917 199.944 74.8937 200.172 73.707C200.4 72.5203 200.287 71.2934 199.847 70.1681ZM162.794 81.1754C162.002 81.1913 161.229 80.929 160.61 80.4339C159.992 79.9388 159.566 79.2424 159.408 78.4659C159.394 78.0539 159.462 77.6433 159.609 77.2579C159.755 76.8725 159.976 76.5199 160.26 76.2206C160.543 75.9214 160.883 75.6814 161.26 75.5145C161.637 75.3476 162.044 75.2571 162.456 75.2484C162.853 75.2209 163.251 75.2811 163.622 75.4249C163.993 75.5686 164.328 75.7923 164.603 76.08C164.877 76.3678 165.085 76.7125 165.212 77.0897C165.338 77.467 165.38 77.8674 165.335 78.2627C165.259 78.9493 164.975 79.5963 164.521 80.1169C164.067 80.6375 163.464 81.0068 162.794 81.1754ZM165.47 73.3179C164.938 73.2515 164.448 72.9928 164.092 72.5905C163.737 72.1882 163.541 71.67 163.541 71.1334C163.541 70.5967 163.737 70.0785 164.092 69.6763C164.448 69.274 164.938 69.0153 165.47 68.9489C166.003 69.0153 166.493 69.274 166.848 69.6763C167.203 70.0785 167.399 70.5967 167.399 71.1334C167.399 71.67 167.203 72.1882 166.848 72.5905C166.493 72.9928 166.003 73.2515 165.47 73.3179ZM168.484 65.6636C168.476 65.8091 168.438 65.9515 168.374 66.0821C168.309 66.2127 168.218 66.3289 168.108 66.4237C167.997 66.5186 167.868 66.5901 167.729 66.6341C167.59 66.6781 167.444 66.6936 167.299 66.6797C166.588 66.6797 165.877 66.5103 165.165 66.6797C164.172 66.7088 163.19 66.8916 162.253 67.2216C161.609 67.4248 161.101 67.2216 160.898 66.5781C160.846 66.4406 160.824 66.2935 160.835 66.1469C160.845 66.0002 160.887 65.8576 160.958 65.7288C161.029 65.6 161.127 65.4881 161.245 65.4009C161.363 65.3136 161.499 65.253 161.643 65.2233C162.896 64.7908 164.213 64.5732 165.538 64.5798L167.468 64.7492C168.112 64.7153 168.552 64.9863 168.484 65.6636ZM182.438 79.4481C181.635 80.3234 180.647 81.0085 179.545 81.4538C178.444 81.8991 177.257 82.0932 176.071 82.0221C175.105 81.9567 174.166 81.6764 173.322 81.2018C172.478 80.7272 171.751 80.0702 171.194 79.2787C170.652 78.4659 170.754 77.8901 171.634 77.5853C173.681 76.9444 175.827 76.6805 177.968 76.8063C179.361 76.8394 180.742 77.0791 182.066 77.5176C183.183 77.924 183.319 78.4998 182.438 79.4481ZM183.251 66.3071C183.251 65.3927 183.725 65.2233 184.403 65.1217C185.37 64.9065 186.358 64.8042 187.349 64.8169C188.337 64.7593 189.327 64.8975 190.262 65.2233C190.395 65.2607 190.52 65.326 190.626 65.4149C190.733 65.5038 190.82 65.6143 190.88 65.7391C190.941 65.8639 190.975 66.0002 190.979 66.139C190.983 66.2778 190.958 66.4159 190.905 66.5442C190.88 66.6786 190.826 66.8057 190.746 66.9162C190.665 67.0267 190.561 67.1178 190.441 67.1828C190.321 67.2478 190.187 67.285 190.051 67.2917C189.914 67.2984 189.778 67.2745 189.652 67.2216C188.066 66.7977 186.396 66.7977 184.809 67.2216C184.03 67.3232 183.42 67.1877 183.251 66.3071ZM185.52 71.489C185.562 70.9588 185.801 70.4634 186.19 70.1C186.578 69.7366 187.088 69.5314 187.62 69.5246C187.892 69.5044 188.165 69.5431 188.421 69.638C188.677 69.733 188.909 69.882 189.102 70.0749C189.295 70.2678 189.444 70.5 189.539 70.7558C189.634 71.0115 189.672 71.2847 189.652 71.5567C189.666 71.826 189.625 72.0953 189.53 72.3478C189.435 72.6002 189.29 72.8306 189.102 73.0244C188.915 73.2182 188.69 73.3713 188.44 73.4742C188.191 73.5772 187.923 73.6277 187.654 73.6227C187.088 73.6227 186.545 73.3979 186.145 72.9978C185.745 72.5976 185.52 72.0549 185.52 71.489ZM192.937 78.0595C192.773 78.1959 192.658 78.3821 192.609 78.5899C192.56 78.7976 192.58 79.0157 192.666 79.211C192.666 79.3803 192.666 79.6852 192.463 79.5835C191.481 79.1433 191.108 79.9561 190.702 80.4641C190.296 80.9722 189.381 81.4463 188.602 80.4641C187.823 79.4819 187.315 79.4481 187.349 78.3982C187.349 76.0951 187.993 75.4516 190.465 75.4516C191.617 75.0791 192.192 76.0951 192.904 76.8402C193.047 76.9753 193.131 77.1615 193.137 77.3582C193.143 77.5549 193.072 77.7461 192.937 77.8901V78.0595Z" fill="#F7BDA9"/>
<path d="M191.684 118.363C194.442 117.815 197.167 117.114 199.846 116.263C200.592 116.026 200.862 116.263 200.998 116.94C201.371 119.04 201.641 121.174 201.879 123.308C201.924 123.476 201.932 123.652 201.901 123.823C201.871 123.994 201.803 124.157 201.703 124.299C201.603 124.441 201.473 124.56 201.321 124.646C201.17 124.732 201.002 124.784 200.829 124.798C198.512 125.556 196.113 126.034 193.682 126.22C192.802 126.22 192.294 126.525 192.632 127.575C192.684 128.003 192.684 128.435 192.632 128.862C188.837 129.702 184.99 130.29 181.117 130.623C176.776 130.928 172.419 130.928 168.078 130.623C164.125 130.306 160.191 129.786 156.292 129.065C156.208 128.107 156.208 127.144 156.292 126.186C156.999 123.631 157.52 121.028 157.85 118.397C158.188 118.803 158.696 118.735 159.17 118.803C160.457 119.04 161.778 119.21 163.099 119.379C169.715 120.158 176.398 120.158 183.014 119.379C185.249 119.142 187.451 118.837 189.788 118.532C190.058 118.769 190.329 118.871 190.431 119.345C190.736 121.276 191.176 123.206 191.447 125.137C191.447 125.509 191.447 125.916 192.124 125.882C192.235 125.88 192.345 125.853 192.444 125.803C192.543 125.753 192.63 125.682 192.698 125.594C192.766 125.506 192.814 125.405 192.838 125.296C192.862 125.188 192.861 125.075 192.836 124.967C192.852 124.73 192.852 124.493 192.836 124.256C192.395 122.461 192.057 120.395 191.684 118.363Z" fill="#3B8A86"/>
<path d="M160.458 107.999C160.442 108.259 160.442 108.519 160.458 108.778C160.616 108.084 160.831 107.405 161.101 106.746C160.816 107.123 160.598 107.547 160.458 107.999ZM160.187 109.286C159.882 110.302 159.306 110.743 159.442 111.589C159.428 111.747 159.428 111.906 159.442 112.063C159.372 111.653 159.457 111.23 159.679 110.878C159.95 110.336 160.085 109.828 160.187 109.286ZM158.324 117.516C158.55 117.531 158.776 117.531 159.001 117.516C158.697 117.381 158.459 117.381 158.324 117.516ZM156.868 117.178C156.98 117.194 157.094 117.194 157.206 117.178H156.868Z" fill="#3B8A86"/>
<path d="M189.991 117.415C188.735 117.434 187.486 117.593 186.265 117.889C177.211 119.183 168.009 119.034 159.001 117.448C158.696 117.448 158.459 117.448 158.324 117.448C157.942 117.449 157.563 117.38 157.206 117.245H156.867C155.546 116.703 151.482 116.026 150.094 115.518C148.705 115.01 148.468 114.942 148.942 113.283C149.813 110.375 150.946 107.552 152.329 104.849C152.634 104.24 152.871 104.172 153.48 104.477C155.454 105.378 157.538 106.016 159.678 106.373C159.103 108.507 158.561 110.641 157.951 112.842C158.561 112.842 158.832 112.368 159.306 112.571H159.645C159.645 112.571 159.645 112.3 159.645 112.199C159.575 111.788 159.659 111.366 159.882 111.013C159.882 110.505 160.153 109.997 160.254 109.456V108.981C160.412 108.287 160.628 107.608 160.898 106.949L163.98 107.593L166.249 107.931H168.078C174.26 108.438 180.483 107.865 186.468 106.238C186.468 106.611 186.773 106.983 186.942 107.356C188.128 110.573 189.144 113.994 189.991 117.415Z" fill="#3B8A86"/>
<path d="M205.062 158.057C205.086 158.266 205.034 158.476 204.916 158.65C204.798 158.824 204.622 158.95 204.419 159.005C203.911 159.005 203.708 158.7 203.504 158.328C203.301 157.955 203.166 157.481 202.929 157.041C202.863 157.667 202.761 158.289 202.624 158.903C202.624 159.344 202.387 159.75 201.947 159.818C201.506 159.886 201.201 159.411 201.032 159.005C200.863 158.599 200.626 158.091 200.355 157.447C200.228 158.061 200.228 158.695 200.355 159.31C200.355 159.919 200.355 160.529 199.542 160.698C198.729 160.868 198.492 160.292 198.255 159.75C198.018 159.208 197.848 158.632 197.611 157.955C197.259 158.578 197.008 159.252 196.866 159.953C196.697 160.461 196.426 160.935 195.816 160.902C195.207 160.868 195.139 160.36 195.037 159.886C194.818 158.27 194.75 156.637 194.834 155.009C194.834 154.568 194.834 154.162 194.834 153.586C194.055 154.162 194.157 155.246 193.208 155.381L192.7 149.386C193.581 149.183 193.852 148.506 193.987 147.693C194.14 146.241 194.14 144.776 193.987 143.324C194.107 142.461 194.038 141.583 193.784 140.75C193.784 140.276 193.784 139.802 193.784 139.327C193.706 137.126 193.491 134.932 193.141 132.757C193.141 131.944 193.141 131.131 193.141 130.318C193.141 129.506 192.938 129.269 192.802 128.727C192.87 128.3 192.87 127.866 192.802 127.44C192.463 126.39 192.971 126.186 193.852 126.085C196.282 125.898 198.682 125.421 200.998 124.662C201.405 128.388 201.845 132.113 202.184 135.873L202.996 144.374C203.454 147.796 204.109 151.188 204.961 154.534C205.134 155.7 205.168 156.883 205.062 158.057Z" fill="#F7BDA9"/>
<path d="M156.292 129.065C155.919 129.472 156.122 129.98 156.055 130.42C155.508 133.463 155.18 136.542 155.072 139.632V140.987C154.768 143.178 154.768 145.4 155.072 147.591C155.069 147.997 155.19 148.393 155.421 148.727C155.651 149.06 155.979 149.314 156.359 149.454C156.088 151.317 156.359 153.214 155.987 155.076C155.072 155.076 155.276 153.992 154.734 153.586C154.192 153.18 154.531 153.959 154.531 154.162L154.26 159.547C154.295 159.737 154.295 159.932 154.26 160.123C154.26 160.495 154.26 161.003 153.582 161.037C153.357 161.053 153.133 160.992 152.948 160.862C152.763 160.733 152.628 160.543 152.566 160.326C152.261 159.615 152.058 158.87 151.787 158.057C151.448 158.802 151.211 159.479 150.907 160.123C150.828 160.37 150.658 160.578 150.432 160.704C150.205 160.83 149.939 160.864 149.687 160.8C149.145 160.8 149.01 160.157 149.01 159.682C149.039 159.039 148.947 158.395 148.739 157.786L148.129 159.14C147.96 159.513 147.757 159.919 147.249 159.852C146.741 159.784 146.639 159.445 146.504 159.005C146.368 158.565 146.504 157.887 146.267 157.21C145.86 157.65 145.86 158.124 145.657 158.497C145.454 158.87 145.251 159.242 144.743 159.174C144.235 159.107 144.167 158.734 144.099 158.362C143.888 156.943 144.004 155.495 144.438 154.128C145.486 149.775 146.199 145.348 146.571 140.885C146.944 136.584 147.384 132.317 147.825 128.015C147.825 127.033 148.096 126.051 148.231 125.103H149.01C151.087 125.688 153.222 126.04 155.377 126.153H155.547C155.547 126.153 155.547 126.153 155.75 126.153H156.529C156.363 127.115 156.284 128.089 156.292 129.065Z" fill="#F7BDA9"/>
<path d="M193.953 102.275L187.518 104.477C187.376 103.978 187.147 103.508 186.841 103.088C186.638 102.851 186.434 102.58 186.062 102.716C185.689 102.851 185.689 103.224 185.723 103.562L185.926 104.748C185.583 104.881 185.233 104.994 184.877 105.086C180.079 106.247 175.144 106.737 170.212 106.543C169.407 106.654 168.588 106.596 167.807 106.373C166.665 106.357 165.528 106.209 164.42 105.933L161.406 105.357C161.397 104.779 161.537 104.207 161.812 103.698C162.015 103.156 162.049 102.614 161.406 102.479C160.762 102.343 160.457 102.851 160.39 103.393C160.322 103.935 159.983 104.646 159.814 105.29C159.407 104.782 158.764 104.849 158.222 104.68C156.779 104.291 155.365 103.805 153.989 103.224C153.379 102.953 153.311 102.682 153.718 102.106C155.718 99.2907 158.548 97.1711 161.812 96.0436C163.151 95.4706 164.565 95.0941 166.012 94.926C166.101 95.2515 166.263 95.5526 166.486 95.8065C167.629 97.5801 169.087 99.1296 170.787 100.379C171.181 100.415 171.55 100.582 171.837 100.853C177.087 102.817 181.998 98.4821 184.606 94.9598C185.55 94.9626 186.48 95.195 187.315 95.6372C190.212 96.4938 192.739 98.2938 194.495 100.751C195.173 101.971 195.173 101.971 193.953 102.275Z" fill="#3B8A86"/>
<path d="M188.128 105.73C190.588 105.027 193.007 104.19 195.376 103.224C195.85 103.02 196.087 103.224 196.324 103.596C198.103 106.928 199.5 110.45 200.49 114.095C200.49 114.739 200.287 114.773 199.914 114.908C197.476 115.631 195.003 116.274 192.497 116.839C192.158 116.839 191.616 116.839 191.549 117.381C191.549 117.381 191.549 117.381 191.549 117.211C190.735 113.294 189.591 109.453 188.128 105.73Z" fill="#3B8A86"/>
<path d="M165.165 208.69C161.757 210.634 157.876 211.595 153.955 211.467C153.651 211.5 153.344 211.5 153.04 211.467C152.625 211.429 152.226 211.285 151.881 211.051C151.535 210.817 151.255 210.499 151.065 210.127C150.876 209.755 150.784 209.341 150.798 208.924C150.811 208.507 150.93 208.1 151.144 207.742C152.04 205.906 153.393 204.332 155.072 203.169C155.919 204.185 157.172 203.948 158.222 204.152C161.268 204.537 164.36 204.342 167.333 203.576C167.649 204.546 167.603 205.598 167.205 206.538C166.807 207.478 166.082 208.242 165.165 208.69Z" fill="#232245"/>
<path d="M194.224 211.467C190.216 211.626 186.245 210.64 182.777 208.622C181.944 208.175 181.285 207.462 180.904 206.596C180.523 205.731 180.444 204.763 180.677 203.847C181.151 203.373 181.625 203.847 182.066 203.847C185.345 204.575 188.744 204.575 192.023 203.847C192.429 203.847 192.836 203.677 192.904 203.169C194.363 204.189 195.616 205.476 196.595 206.963C197.984 209.401 197.035 211.264 194.224 211.467Z" fill="#232245"/>
<path d="M184.741 94.9937C182.201 98.3805 177.222 102.851 171.973 100.887C171.686 100.615 171.316 100.448 170.923 100.413C169.222 99.1635 167.765 97.6139 166.622 95.8404C166.399 95.5864 166.237 95.2854 166.147 94.9598C166.848 94.6385 167.612 94.4765 168.383 94.4856C169.162 94.4856 169.636 94.0792 169.568 93.2325C170.483 93.2325 171.295 93.7405 172.21 93.8421C174.801 94.057 177.401 94.1361 180 94.0792C180.575 94.0792 180.745 93.8421 180.779 93.3002C180.812 92.7584 180.474 92.3181 181.05 92.0132C181.321 94.147 181.321 94.147 183.488 94.5872C183.793 94.6888 184.267 94.6211 184.741 94.9937Z" fill="#F7BDA9"/>
<path d="M156.664 118.16C156.393 118.837 156.664 119.582 156.224 120.226C155.919 122.19 155.58 124.188 155.276 126.153C153.121 126.04 150.985 125.688 148.908 125.103H148.129C147.012 124.629 147.046 123.748 147.147 122.698C147.418 120.768 147.621 118.871 148.028 116.974C148.028 116.703 148.028 116.534 148.265 116.5C148.502 116.466 148.671 116.5 148.739 116.5C150.288 117.021 151.872 117.429 153.481 117.719C153.851 117.891 154.236 118.027 154.632 118.126C155.303 118.249 155.99 118.26 156.664 118.16Z" fill="#3B8A86"/>
<path d="M192.159 126.119C191.651 126.119 191.515 125.78 191.481 125.408C191.21 123.477 190.804 121.547 190.465 119.616C190.465 119.142 190.059 119.04 189.822 118.803C190.668 118.431 189.822 117.889 189.822 117.415C188.975 114.028 188.027 110.641 186.841 107.254C186.672 106.882 186.503 106.509 186.367 106.136C186.322 105.629 186.107 105.152 185.757 104.782L185.554 103.596C185.554 103.258 185.554 102.919 185.893 102.75C186.232 102.58 186.469 102.75 186.672 103.122C186.978 103.541 187.207 104.012 187.349 104.511L187.79 105.764C189.241 109.488 190.374 113.329 191.176 117.245C191.176 117.245 191.176 117.245 191.176 117.415L191.481 118.363C191.82 120.463 192.192 122.495 192.565 124.561C192.581 124.798 192.581 125.035 192.565 125.272C192.612 125.438 192.596 125.616 192.521 125.772C192.447 125.928 192.318 126.051 192.159 126.119Z" fill="#1C6A61"/>
<path d="M191.108 116.94C192.708 116.731 194.292 116.414 195.85 115.992C197.239 115.62 198.492 115.179 198.966 115.01L200.388 114.502C200.469 114.747 200.537 114.995 200.592 115.247C200.623 115.562 200.623 115.88 200.592 116.195C199.101 116.669 197.577 117.11 195.952 117.516L191.447 118.532L191.108 116.94Z" fill="#1C6A61"/>
<path d="M186.672 104.578C188.13 104.265 189.567 103.858 190.973 103.359C192.226 102.919 193.344 102.445 193.75 102.275L195.037 101.7C195.148 101.901 195.228 102.118 195.274 102.343C195.302 102.636 195.302 102.931 195.274 103.224C193.954 103.766 192.565 104.274 191.075 104.748C189.585 105.222 188.331 105.628 187.011 106.001L186.672 104.578Z" fill="#1C6A61"/>
<path d="M157.816 117.11C156.218 116.875 154.634 116.547 153.074 116.128C151.686 115.755 150.433 115.315 149.958 115.179L148.536 114.671C148.455 114.904 148.387 115.142 148.333 115.382C148.301 115.709 148.301 116.038 148.333 116.365C149.823 116.805 151.347 117.245 152.973 117.652C154.598 118.058 156.055 118.397 157.477 118.668L157.816 117.11Z" fill="#1C6A61"/>
<path d="M161.507 105.357C160.014 105.067 158.542 104.67 157.104 104.172C156.074 104.083 155.088 103.707 154.259 103.088C153.997 102.838 153.769 102.553 153.582 102.242C153.371 102.522 153.179 102.816 153.006 103.122C152.849 103.447 152.724 103.788 152.634 104.138C153.955 104.646 155.411 105.12 156.901 105.628L161.101 106.848L161.507 105.357Z" fill="#1C6A61"/>
<path d="M180.914 92.0133C180.338 92.3181 180.643 92.86 180.643 93.3003C180.643 93.7406 180.44 94.0792 179.864 94.0792C177.265 94.1361 174.665 94.057 172.074 93.8422C171.16 93.8422 170.347 93.2664 169.433 93.2325V91.4036C171.738 91.776 174.076 91.9122 176.41 91.81C177.936 91.8268 179.463 91.759 180.982 91.6068L180.914 92.0133Z" fill="#F5AB97"/>
<path d="M161.812 103.732C161.537 104.241 161.397 104.812 161.406 105.391C161.106 105.778 160.95 106.257 160.966 106.746C160.696 107.405 160.48 108.084 160.322 108.778V109.252C160.322 109.794 160.085 110.302 159.95 110.81C159.727 111.163 159.643 111.585 159.712 111.996L158.087 118.194L156.901 117.618C157.409 115.01 157.884 113.012 158.256 111.623C158.629 110.234 159.306 107.898 159.679 106.272L159.95 105.29C160.119 104.646 160.424 104.037 160.525 103.393C160.627 102.75 160.966 102.343 161.541 102.479C162.117 102.614 162.015 103.19 161.812 103.732Z" fill="#1C6A61"/>
<path d="M158.053 117.99C158.037 118.171 158.037 118.352 158.053 118.532C157.723 121.163 157.203 123.767 156.495 126.322H155.716H155.276C155.581 124.358 155.919 122.359 156.224 120.395C156.597 119.752 156.394 119.006 156.664 118.329L156.868 117.347H157.206C157.508 117.535 157.791 117.75 158.053 117.99Z" fill="#1C6A61"/>
<path d="M193.987 147.828C193.987 148.641 193.581 149.319 192.7 149.522C190.973 149.691 189.314 150.098 187.586 150.402C181.931 151.393 176.183 151.746 170.449 151.452C165.892 151.18 161.363 150.557 156.902 149.59C156.64 149.488 156.35 149.488 156.089 149.59C155.708 149.45 155.38 149.196 155.15 148.862C154.919 148.529 154.798 148.132 154.802 147.727C154.497 145.536 154.497 143.313 154.802 141.122C157.037 141.631 159.272 141.969 161.575 142.308C166.928 143.035 172.332 143.307 177.731 143.121H178.577H178.984L182.1 142.884C186.02 142.505 189.912 141.871 193.75 140.987C194.004 141.82 194.074 142.698 193.954 143.561C194.11 144.979 194.121 146.408 193.987 147.828Z" fill="#3B8A86"/>
<path d="M169.805 50.9648C169.198 51.2839 168.702 51.78 168.383 52.3872C168.361 52.4431 168.353 52.5033 168.36 52.5629C168.366 52.6225 168.387 52.6796 168.42 52.7295C168.453 52.7793 168.498 52.8204 168.551 52.8493C168.603 52.8782 168.662 52.8939 168.722 52.8953C169.06 52.8953 170.212 51.6421 170.178 51.3035C170.144 50.9648 170.009 50.8632 169.805 50.9648Z" fill="#774D44"/>
<path d="M177.967 42.7686C177.357 43.0642 176.85 43.5362 176.511 44.1233C176.342 44.3604 176.511 44.6652 176.884 44.6991C177.542 44.2946 178.079 43.7216 178.442 43.0395C178.509 42.7347 178.272 42.667 177.967 42.7686Z" fill="#774D44"/>
<path d="M176.071 82.0221C175.105 81.9567 174.166 81.6765 173.322 81.2018C172.479 80.7272 171.752 80.0702 171.194 79.2788C170.652 78.4659 170.754 77.8902 171.634 77.5853C173.681 76.9459 175.827 76.682 177.968 76.8064C179.362 76.8364 180.743 77.0761 182.066 77.5176C183.285 77.924 183.421 78.4998 182.54 79.4481C181.726 80.3373 180.721 81.0307 179.601 81.4764C178.48 81.9222 177.274 82.1087 176.071 82.0221Z" fill="white"/>
<path d="M165.47 78.2627C165.421 78.9995 165.1 79.6918 164.569 80.2054C164.039 80.7189 163.336 81.0173 162.598 81.0426C161.861 81.0679 161.139 80.8184 160.575 80.3423C160.01 79.8663 159.643 79.1976 159.543 78.4659C159.53 78.0539 159.598 77.6433 159.744 77.2579C159.891 76.8725 160.112 76.5199 160.395 76.2207C160.679 75.9214 161.019 75.6814 161.396 75.5145C161.773 75.3476 162.179 75.2572 162.591 75.2484C162.988 75.2209 163.386 75.2812 163.757 75.4249C164.128 75.5686 164.463 75.7923 164.738 76.0801C165.013 76.3678 165.221 76.7125 165.347 77.0898C165.474 77.467 165.516 77.8675 165.47 78.2627Z" fill="#F5AB97"/>
<path d="M193.174 78.2627C193.099 78.9888 192.792 79.6712 192.297 80.2082C191.803 80.7453 191.148 81.1083 190.431 81.2431C189.629 81.2562 188.848 80.9842 188.228 80.4757C187.608 79.9671 187.188 79.2549 187.044 78.4659C187.017 78.0367 187.076 77.6064 187.22 77.2009C187.363 76.7954 187.587 76.4231 187.878 76.1066C188.169 75.7901 188.522 75.5359 188.914 75.3593C189.306 75.1826 189.73 75.0873 190.16 75.0791C190.579 75.0447 191.001 75.105 191.394 75.2554C191.787 75.4058 192.141 75.6425 192.431 75.9481C192.72 76.2536 192.937 76.6202 193.066 77.0208C193.194 77.4214 193.231 77.8458 193.174 78.2627Z" fill="#F5AB97"/>
<path d="M165.538 64.4444L167.468 64.6137C168.112 64.6137 168.552 64.9863 168.484 65.6637C168.481 65.8108 168.446 65.9557 168.383 66.0887C168.32 66.2217 168.23 66.3399 168.118 66.4358C168.006 66.5316 167.876 66.6028 167.734 66.6448C167.593 66.6869 167.445 66.6988 167.299 66.6797C166.588 66.6797 165.876 66.5104 165.165 66.6797C164.172 66.7088 163.19 66.8916 162.253 67.2216C161.609 67.4248 161.101 67.2216 160.898 66.5781C160.846 66.4406 160.824 66.2935 160.835 66.1469C160.845 66.0003 160.887 65.8576 160.958 65.7288C161.029 65.6 161.127 65.4881 161.245 65.4009C161.363 65.3136 161.499 65.2531 161.643 65.2234C162.888 64.7446 164.205 64.4812 165.538 64.4444Z" fill="#542419"/>
<path d="M187.349 64.7153C188.337 64.6577 189.327 64.7958 190.262 65.1217C190.396 65.1591 190.52 65.2244 190.626 65.3133C190.733 65.4022 190.82 65.5127 190.88 65.6375C190.941 65.7623 190.975 65.8986 190.979 66.0374C190.983 66.1762 190.958 66.3143 190.905 66.4426C190.881 66.577 190.826 66.7041 190.746 66.8146C190.665 66.9251 190.561 67.0162 190.441 67.0812C190.321 67.1462 190.187 67.1834 190.051 67.1901C189.914 67.1968 189.778 67.1728 189.652 67.12C188.066 66.6961 186.396 66.6961 184.809 67.12C184.03 67.12 183.42 67.12 183.251 66.2733C183.082 65.4265 183.725 65.1895 184.403 65.0879C185.367 64.8498 186.356 64.7248 187.349 64.7153Z" fill="#542419"/>
<path d="M167.57 71.0148C167.588 71.305 167.548 71.596 167.451 71.8703C167.355 72.1446 167.204 72.3968 167.008 72.6116C166.812 72.8265 166.575 72.9998 166.311 73.1211C166.047 73.2425 165.761 73.3094 165.47 73.3179C164.937 73.2514 164.447 72.9928 164.092 72.5905C163.737 72.1882 163.541 71.67 163.541 71.1334C163.541 70.5967 163.737 70.0785 164.092 69.6762C164.447 69.274 164.937 69.0153 165.47 68.9489C166.016 68.9653 166.535 69.1873 166.925 69.5703C167.314 69.9534 167.544 70.4693 167.57 71.0148Z" fill="#542419"/>
<path d="M189.652 71.489C189.666 71.7582 189.624 72.0275 189.53 72.28C189.435 72.5325 189.29 72.7628 189.102 72.9566C188.915 73.1504 188.689 73.3035 188.44 73.4065C188.191 73.5094 187.923 73.56 187.654 73.555C187.362 73.5925 187.067 73.5675 186.786 73.4817C186.505 73.3959 186.246 73.2512 186.025 73.0573C185.805 72.8634 185.628 72.6248 185.507 72.3573C185.386 72.0897 185.324 71.7995 185.324 71.5059C185.324 71.2123 185.386 70.9221 185.507 70.6546C185.628 70.3871 185.805 70.1484 186.025 69.9545C186.246 69.7606 186.505 69.616 186.786 69.5302C187.067 69.4443 187.362 69.4194 187.654 69.4569C187.923 69.4417 188.192 69.4842 188.444 69.5814C188.696 69.6786 188.924 69.8284 189.113 70.0207C189.302 70.213 189.448 70.4435 189.541 70.6967C189.634 70.9499 189.672 71.22 189.652 71.489Z" fill="#542419"/>
<path d="M193.073 130.454C192.515 130.357 191.94 130.415 191.413 130.623H190.6C186.197 131.469 181.737 131.978 177.256 132.147C170.146 132.386 163.032 131.807 156.055 130.42C156.055 129.98 156.055 129.472 156.292 129.065C160.237 129.779 164.216 130.288 168.213 130.589C172.555 130.894 176.912 130.894 181.253 130.589C185.115 130.259 188.951 129.67 192.734 128.828C192.87 129.404 192.937 129.912 193.073 130.454Z" fill="#F1F8F7"/>
<path d="M189.821 118.905C187.586 119.21 185.385 119.514 183.048 119.751C176.432 120.53 169.748 120.53 163.133 119.751C161.812 119.582 160.491 119.413 159.204 119.176C158.73 119.176 158.222 119.176 157.883 118.769C157.867 118.589 157.867 118.408 157.883 118.227C157.883 117.99 157.883 117.821 158.154 117.753C158.154 117.753 158.527 117.753 158.832 117.753C167.84 119.339 177.042 119.487 186.096 118.194C187.316 117.898 188.566 117.739 189.821 117.719C189.889 117.889 190.668 118.431 189.821 118.905Z" fill="#F1F8F7"/>
<path d="M186.536 106.103C180.567 107.696 174.376 108.291 168.213 107.864C166.757 107.864 165.368 107.593 164.048 107.39L161.033 106.746C161.018 106.257 161.173 105.778 161.474 105.391C162.253 105.391 163.269 105.764 164.488 105.933C166.405 106.244 168.339 106.448 170.279 106.543C175.144 106.714 180.009 106.224 184.741 105.086C185.097 104.994 185.448 104.881 185.791 104.748C186.19 105.098 186.454 105.578 186.536 106.103Z" fill="#F1F8F7"/>
<path d="M193.886 139.463C191.651 139.991 189.39 140.398 187.112 140.682C185.02 141.079 182.904 141.339 180.779 141.461C179.492 141.461 178.205 141.664 176.918 141.698C169.574 141.921 162.23 141.273 155.039 139.768C155.146 136.677 155.474 133.599 156.021 130.555C162.998 131.942 170.112 132.522 177.222 132.283C181.703 132.114 186.164 131.604 190.567 130.759H191.379C191.906 130.551 192.481 130.492 193.039 130.589C193.039 131.402 193.039 132.215 193.039 133.028C193.452 135.154 193.734 137.303 193.886 139.463Z" fill="#3B8A86"/>
<path d="M193.919 140.885C190.081 141.77 186.189 142.403 182.269 142.782L179.153 143.019H178.746H177.9C172.501 143.206 167.097 142.934 161.744 142.206C159.509 141.868 157.274 141.529 154.971 141.021V139.666C162.162 141.172 169.506 141.82 176.85 141.597C178.137 141.597 179.424 141.597 180.711 141.36C182.837 141.238 184.952 140.978 187.044 140.581C189.322 140.296 191.583 139.889 193.818 139.361C193.886 139.937 193.886 140.411 193.919 140.885Z" fill="#F1F8F7"/>
<path d="M155.445 126.153H155.648C155.648 126.153 155.513 126.254 155.445 126.153Z" fill="#3B8A86"/>
<path d="M170.178 51.168C170.178 51.5067 169.06 52.7937 168.722 52.7598C168.662 52.7584 168.603 52.7427 168.551 52.7138C168.498 52.6849 168.453 52.6438 168.42 52.594C168.387 52.5441 168.366 52.487 168.36 52.4274C168.353 52.3678 168.361 52.3076 168.383 52.2518C168.702 51.6445 169.198 51.1484 169.805 50.8293C170.009 50.8632 170.178 51.168 170.178 51.168Z" fill="#542419"/>
<path d="M178.509 43.0395C178.147 43.7216 177.609 44.2946 176.951 44.6991C176.613 44.6991 176.41 44.3604 176.579 44.1233C176.918 43.5362 177.425 43.0642 178.035 42.7686C178.272 42.667 178.509 42.7347 178.509 43.0395Z" fill="#542419"/>
</svg>
