<svg width="345" height="240" viewBox="0 0 345 240" fill="none" xmlns="http://www.w3.org/2000/svg">
<rect x="0.643066" y="0.261902" width="343.438" height="239.623" rx="23" fill="white"/>
<path d="M149.444 85.3973C148.595 94.7098 146.781 103.908 144.033 112.843C142.644 116.368 141.796 120.086 141.519 123.867C141.519 127.695 143.043 131.523 140.452 135.351C140.452 135.351 140.642 135.848 140.795 136.04C140.947 136.231 142.585 136.92 141.747 137.953C140.909 138.987 139.69 138.375 138.699 137.953C137.249 136.954 136.188 135.483 135.695 133.787C135.202 132.092 135.308 130.278 135.994 128.652C137.792 124.377 138.712 119.781 138.699 115.14C138.013 102.24 142.509 89.9141 142.509 77.1292C142.509 75.2535 142.738 73.3013 142.738 71.5788C142.784 69.3478 143.182 67.1384 143.919 65.0332C144.29 63.3951 145.112 61.8947 146.291 60.7034C147.47 59.5121 148.958 58.678 150.587 58.2962C153.23 57.7679 155.719 56.6422 157.864 55.0043C158.337 54.7092 158.719 54.2882 158.968 53.7882C159.217 53.2882 159.323 52.7286 159.274 52.1717C159.045 50.985 157.826 51.0616 157.026 50.9085C154.833 50.5094 152.776 49.5616 151.044 48.1524C150.32 47.5783 149.444 46.8893 150.777 46.0471C151.734 45.3745 152.476 44.4386 152.915 43.3521C153.355 42.2656 153.472 41.0746 153.254 39.9226C153.159 38.0737 153.159 36.2211 153.254 34.3722C153.158 32.1823 153.813 30.0257 155.11 28.2629C156.407 26.5001 158.267 25.2381 160.379 24.6878C162.64 23.8426 165.096 23.6748 167.45 24.2048C169.803 24.7348 171.953 25.9398 173.638 27.6735C177.191 32.0992 178.983 37.6912 178.668 43.3676C178.643 45.1372 178.035 46.8485 176.939 48.2338C175.843 49.6191 174.32 50.6001 172.61 51.0233C171.657 51.3678 170.362 51.3295 170.209 52.5544C170.057 53.7794 171.009 54.698 172.038 55.4636C174.25 56.9776 176.715 58.0797 179.316 58.7173C181.024 59.1224 182.575 60.025 183.775 61.312C184.974 62.599 185.769 64.213 186.06 65.9519C186.669 68.7845 186.784 71.6553 187.203 74.4879C188.155 81.1484 186.822 88.0385 189.375 94.5458C190.175 97.2004 190.561 99.9639 190.518 102.737C191.203 111.771 190.518 120.92 194.061 129.532C194.572 131.139 194.491 132.877 193.834 134.43C193.176 135.982 191.986 137.246 190.48 137.992C190.13 138.225 189.719 138.35 189.298 138.35C188.878 138.35 188.467 138.225 188.117 137.992C187.279 137.303 188.117 136.652 188.536 136.116C188.955 135.58 189.26 135.312 188.536 134.776C188.047 134.285 187.699 133.67 187.531 132.995C187.364 132.321 187.382 131.613 187.584 130.949C188.224 124.886 187.588 118.757 185.717 112.958C183.426 106.43 181.954 99.6404 181.335 92.7467C181.145 88.9189 180.268 84.8614 179.621 80.4976C179.009 81.0915 178.528 81.8065 178.207 82.5973C177.885 83.388 177.731 84.2372 177.754 85.0911C177.872 87.1372 177.679 89.1895 177.182 91.1773C176.247 94.42 176.631 97.9029 178.249 100.862C181.269 108.249 182.959 116.116 183.24 124.097C183.566 132.986 182.721 141.88 180.725 150.547C179.541 156.517 179.207 162.626 179.735 168.691C180.217 171.796 180.51 174.928 180.611 178.069C180.502 184.733 179.955 191.383 178.973 197.974C178.654 199.888 178.438 201.817 178.325 203.754C178.094 205.831 178.417 207.932 179.261 209.842C180.105 211.752 181.438 213.403 183.126 214.625C184.078 215.314 185.26 216.041 184.917 217.534C184.574 219.027 183.354 218.912 182.402 219.41C181.514 219.921 180.478 220.113 179.466 219.953C178.455 219.793 177.528 219.291 176.839 218.529C175.82 217.444 174.637 216.527 173.334 215.812C172.534 215.437 171.913 214.761 171.607 213.93C171.3 213.098 171.332 212.179 171.695 211.371C172.953 206.164 172.953 200.731 171.695 195.524C170.372 189.749 169.708 183.842 169.714 177.916C170.209 175.273 170.209 172.559 169.714 169.916C168.1 165.458 167.705 160.646 168.571 155.983C168.779 154.792 168.779 153.575 168.571 152.384C167.923 148.289 167.199 144.193 166.513 140.097C166.018 137.264 165.561 134.47 165.066 131.676C164.578 132.722 164.294 133.853 164.227 135.006C163.046 143.772 159.884 152.308 161.56 161.342C161.583 162.179 161.493 163.016 161.293 163.83C161.027 167.657 158.588 171.256 159.503 175.313C160.053 179.13 159.949 183.014 159.198 186.797C158.322 195.218 155.121 203.601 158.245 212.252C158.448 212.783 158.472 213.366 158.314 213.912C158.156 214.458 157.824 214.937 157.369 215.276C155.864 216.335 154.414 217.473 153.025 218.683C152.159 219.45 151.062 219.904 149.909 219.973C148.757 220.042 147.614 219.723 146.662 219.065C144.109 217.879 143.919 217.075 145.976 215.237C148.655 213.219 150.543 210.32 151.311 207.046C151.409 202.615 151.025 198.187 150.168 193.84C149.045 186.894 148.776 179.836 149.368 172.825C149.971 169.106 150.214 165.337 150.091 161.571C149.581 154.101 148.665 146.664 147.348 139.293C145.213 126.617 146.61 113.593 151.387 101.666C154.283 94.9669 152.073 88.6509 151.12 82.1436C151.12 81.9139 150.815 81.7608 150.282 81.1101C149.939 82.6795 149.558 84.0193 149.444 85.3973ZM139.804 132.097C139.584 132.337 139.463 132.651 139.463 132.977C139.463 133.303 139.584 133.618 139.804 133.858V132.097ZM190.022 133.245C190.022 133.475 190.251 133.513 190.289 133.245C190.326 133.094 190.326 132.937 190.289 132.786C190.206 132.93 190.142 133.084 190.099 133.245H190.022Z" fill="#55C2F0"/>
</svg>
