<svg width="345" height="240" viewBox="0 0 345 240" fill="none" xmlns="http://www.w3.org/2000/svg">
<rect x="0.643066" y="0.261963" width="343.438" height="239.623" rx="23" fill="white"/>
<path d="M202.032 156.895C197.875 157.035 193.732 157.473 189.637 158.208C182.252 158.872 174.817 158.73 167.462 157.784C165.859 157.528 164.234 157.443 162.613 157.53C162.406 157.313 162.143 157.155 161.854 157.073C161.565 156.991 161.26 156.988 160.969 157.065L157.639 156.133C158.102 152.831 160 149.91 160.295 146.523C161.196 145.999 161.906 145.198 162.318 144.237C164.102 140.681 164.792 136.673 164.3 132.722C164.679 131.663 163.625 130.859 163.836 129.843C165.705 130.484 167.457 131.428 169.022 132.637C172.13 135.204 176 136.66 180.022 136.775C184.045 136.89 187.991 135.658 191.239 133.272C192.946 132.123 194.769 131.158 196.678 130.393C196.295 133.91 196.552 137.468 197.437 140.893C198.122 143.706 199.642 146.244 201.795 148.172C203.948 150.099 206.633 151.326 209.494 151.688V152.831C207.513 155.075 204.224 154.99 202.032 156.895Z" fill="#E3AC86"/>
<path d="M216.409 211.678L215.987 211.297L210.127 203.549C207.952 199.489 206.945 194.901 207.218 190.298C207.218 187.504 208.061 184.837 207.851 182.085C212.319 179.249 217.674 178.783 222.353 176.539C228.036 174.296 232.671 169.989 235.338 164.473C237.047 161.101 237.849 157.338 237.664 153.558C237.48 149.779 236.314 146.113 234.284 142.925C233.824 142.086 233.661 141.116 233.821 140.173C234.999 140.76 236.024 141.615 236.814 142.671C241.266 148.551 243.371 155.888 242.716 163.246V163.838C242.084 162.949 241.957 163.076 241.451 164.092C238.623 170.593 234.018 176.156 228.171 180.138C226.274 181.056 224.701 182.533 223.66 184.371C222.76 184.773 221.951 185.356 221.284 186.084C220.617 186.813 220.106 187.67 219.782 188.605C215.566 196.818 217.083 205.285 224.461 212.524C225.473 213.54 226.527 214.514 227.876 215.784C225.196 215.918 222.527 215.364 220.119 214.175C219.256 212.887 217.924 211.99 216.409 211.678Z" fill="#A75F19"/>
<path d="M157.681 156.133L161.011 157.065C159.338 161.35 156.78 165.231 153.507 168.453L152.917 169.003L150.64 170.654C146.259 173.312 142.036 176.224 137.993 179.376C135.978 180.895 134.311 182.829 133.102 185.049C132.407 185.454 131.815 186.018 131.376 186.694C130.937 187.37 130.662 188.141 130.573 188.943L129.772 191.187C129.62 191.357 129.516 191.564 129.472 191.787C129.427 192.011 129.443 192.242 129.519 192.457C127.799 198.218 127.991 204.385 130.067 210.026C130.067 210.026 130.067 210.28 130.067 210.365C129.645 211.424 131.374 212.524 130.277 213.286C129.181 214.048 128.971 212.609 128.338 212.143C128.339 212.058 128.318 211.974 128.278 211.898C128.237 211.823 128.179 211.759 128.107 211.713C128.036 211.666 127.954 211.639 127.869 211.633C127.784 211.627 127.699 211.642 127.621 211.678C127.874 210.619 127.073 209.899 126.736 209.01C124.649 203.939 123.936 198.403 124.67 192.965C126.144 184.736 130.138 177.173 136.095 171.332C140.871 166.878 145.193 161.957 148.996 156.641C150.514 154.144 151.905 152.958 154.603 154.736L154.182 159.52C155.615 157.996 156.374 156.641 157.681 156.133Z" fill="#A75F19"/>
<path d="M227.918 100.632C229.186 104.079 231.391 107.101 234.284 109.353C238.01 112.471 240.816 116.553 242.399 121.157C243.981 125.761 244.281 130.711 243.264 135.474C241.915 135.474 241.535 134.119 240.566 133.653C237.841 130.752 234.648 128.333 231.122 126.499C226.975 124.605 223.451 121.566 220.962 117.735L220.414 117.058C220.369 116.92 220.369 116.772 220.414 116.634C220.887 113.383 221.649 110.181 222.69 107.067C224.225 104.892 225.632 102.631 226.906 100.293L227.918 100.632Z" fill="#894C1A"/>
<path d="M116.829 192.415C115.61 189.44 114.084 186.603 112.276 183.948C109.829 178.928 109.164 173.219 110.39 167.768C111.617 162.316 114.662 157.45 119.021 153.974L123.237 150.587H124.755C126.11 153.181 127.925 155.505 130.109 157.446V158.081L129.603 158.673C124.712 164.018 121.081 170.399 118.979 177.343C117.928 182.565 117.63 187.912 118.094 193.219H117.461L116.829 192.415Z" fill="#894C1A"/>
<path d="M207.85 182.043C208.061 184.795 207.218 187.462 207.218 190.256C206.945 194.858 207.952 199.446 210.127 203.507C210.329 206.102 211.107 208.619 212.404 210.873L213.205 213.202C213.327 214.841 213.88 216.419 214.807 217.774L215.102 218.875C214.966 219.109 214.921 219.385 214.975 219.651C215.03 219.917 215.18 220.153 215.397 220.314L215.692 223.023H215.481C215.458 223.164 215.458 223.307 215.481 223.447L215.186 224.675C214.43 225.754 213.952 227.005 213.795 228.315L212.151 230.39C211.687 230.39 211.56 230.686 211.518 231.067L210.464 231.702H210.253V230.432C210.886 230.009 210.801 229.331 210.844 228.696C211.166 228.114 211.366 227.472 211.431 226.81C211.496 226.147 211.426 225.478 211.223 224.844C210.304 218.61 207.139 212.931 202.328 208.883C197.521 204.65 197.184 196.183 198.997 191.357C200.093 188.562 202.37 186.615 203.508 183.905C203.749 183.976 204.007 183.955 204.233 183.846C204.459 183.736 204.636 183.546 204.731 183.313C205.67 182.675 206.733 182.242 207.85 182.043Z" fill="#894C1A"/>
<path d="M223.618 184.371C224.659 182.533 226.232 181.056 228.129 180.138C233.976 176.156 238.58 170.593 241.409 164.092C241.915 163.076 242.041 162.949 242.674 163.838C243.306 164.727 241.451 166.717 241.83 168.072C242.884 168.749 242.8 166.209 243.938 167.649C241.939 173.551 238.991 179.086 235.212 184.032C232.789 187.141 231.267 190.861 230.813 194.782C230.36 198.704 230.992 202.675 232.64 206.259C232.935 207.021 233.567 207.698 233.314 208.629C224.377 206.47 219.655 194.743 223.618 184.371Z" fill="#894C1A"/>
<path d="M133.102 185.049C134.323 182.825 136.005 180.89 138.035 179.376C142.078 176.224 146.301 173.312 150.683 170.654L152.959 169.003C152.895 169.671 152.739 170.326 152.495 170.951C149.199 175.976 146.2 181.193 143.516 186.573C142.04 190.171 141.661 193.981 140.396 197.58C140.168 198.066 140.094 198.611 140.184 199.142C140.275 199.672 140.525 200.161 140.902 200.543V205.158C140.438 205.158 139.848 205.412 140.016 206.005C140.607 207.994 140.016 210.238 141.408 212.059C142.082 213.075 143.22 214.98 142.209 215.615C141.197 216.25 140.227 214.302 139.468 213.456C136.877 210.69 134.901 207.403 133.673 203.811C132.444 200.22 131.991 196.407 132.343 192.627C132.682 190.528 132.781 188.397 132.639 186.276L133.102 185.853V185.049Z" fill="#894C1A"/>
<path d="M227.918 100.632L226.78 100.42C226.78 97.7104 228.635 95.8053 229.394 93.5192C231.28 88.7428 232.155 83.6246 231.965 78.4901C231.686 74.6856 230.516 71.0011 228.55 67.7368C225.808 64.1894 222.014 61.6097 217.716 60.3705C214.427 59.0581 211.898 57.4493 211.771 53.4698C211.706 52.2294 211.42 51.0107 210.928 49.8712C209.294 46.3254 206.884 43.1964 203.876 40.7184C200.868 38.2404 197.341 36.4776 193.558 35.5618C186.257 33.7133 178.563 34.2018 171.551 36.9589C164.459 39.4354 158.381 44.1987 154.266 50.5063C151.287 54.3329 148.952 58.6231 147.352 63.2069C145.809 67.4766 144.006 71.6473 141.956 75.6959C141.241 77.4863 140.098 79.0721 138.627 80.3127C137.156 81.5534 135.403 82.4105 133.524 82.8083L132.807 81.7922C132.807 81.2842 133.018 80.7762 133.566 80.5645C137.487 80.5645 139.384 77.8974 140.817 75.0185C143.389 69.8113 145.455 64.35 147.984 59.1004C152.023 49.0214 159.745 40.8735 169.57 36.3239C181.627 31.413 193.601 31.413 204.562 39.6261C206.972 41.4675 208.983 43.7844 210.469 46.4344C211.955 49.0845 212.886 52.0117 213.205 55.0362C213.458 56.7719 213.879 57.534 215.861 57.8727C220.862 58.7059 225.386 61.3495 228.579 65.3042C231.771 69.2589 233.411 74.2508 233.188 79.3368C233.252 84.8108 232.024 90.2221 229.604 95.1279C228.54 96.7678 227.956 98.6747 227.918 100.632Z" fill="#B37D4B"/>
<path d="M133.44 80.4375C132.892 80.6492 132.765 81.1572 132.681 81.6652C129.434 82.4273 129.983 85.0097 129.983 87.3382C129.983 88.3119 129.603 89.4126 130.531 90.217C130.278 92.5454 131.753 94.4506 132.301 96.4403C132.373 96.8224 132.588 97.1623 132.902 97.3905C133.215 97.6188 133.604 97.718 133.988 97.668C133.966 98.1977 134.132 98.7179 134.457 99.1364C134.781 99.5549 135.242 99.8446 135.758 99.9542C136.589 100.179 137.343 100.624 137.944 101.242C138.545 101.86 138.969 102.629 139.173 103.468C138.973 105.127 138.142 106.644 136.854 107.702C134.704 109.649 131.922 110.538 129.898 112.612C125.752 116.671 122.829 121.821 121.466 127.472C120.1 132.264 120.307 137.371 122.057 142.036C123.521 144.654 124.479 147.527 124.881 150.503H123.364C123.524 149.26 123.241 147.999 122.563 146.947C120.026 141.72 119.02 135.877 119.662 130.098C120.304 124.32 122.567 118.843 126.188 114.306C127.956 112.171 130.048 110.328 132.386 108.845C133.748 107.967 135.044 106.991 136.264 105.923C138.962 103.468 138.92 103.045 135.801 100.97C132.654 98.7202 130.394 95.4318 129.415 91.679C128.436 87.9262 128.801 83.9475 130.446 80.4375C131.711 77.855 132.428 80.4375 133.44 80.4375Z" fill="#CB9256"/>
<path d="M243.939 167.733C242.8 166.294 242.885 168.834 241.831 168.157C241.451 166.717 242.716 165.363 242.674 163.923V163.33C244.065 162.949 243.896 161.595 244.276 160.621C245.104 156.971 245.303 153.205 244.866 149.487C245.751 148.555 245.541 148.005 244.318 147.751V146.65C244.378 144.205 243.734 141.794 242.463 139.707C241.766 138.898 241.239 137.956 240.913 136.938C240.587 135.919 240.469 134.845 240.566 133.78C241.536 134.246 241.915 135.685 243.264 135.601C243.926 137.679 244.715 139.715 245.625 141.697C247.072 145.933 247.668 150.416 247.379 154.885C247.089 159.354 245.92 163.721 243.939 167.733Z" fill="#D9A568"/>
<path d="M132.638 186.276C132.78 188.455 132.667 190.643 132.301 192.796C131.949 196.577 132.402 200.389 133.63 203.981C134.859 207.572 136.835 210.86 139.426 213.625C140.185 214.472 140.859 216.673 142.166 215.784C143.473 214.895 142.166 213.244 141.365 212.228C140.101 210.323 140.564 207.994 139.974 206.174C139.974 205.581 140.396 205.454 140.859 205.327H141.07C140.984 205.692 140.981 206.072 141.062 206.439C141.142 206.805 141.303 207.149 141.534 207.444L141.745 208.502C141.633 208.718 141.605 208.968 141.668 209.203C141.73 209.438 141.878 209.641 142.082 209.772L142.462 211.127C142.409 211.505 142.447 211.89 142.571 212.251C142.696 212.612 142.904 212.937 143.178 213.202L143.768 214.472L143.979 215.064L144.232 215.742C144.19 215.804 144.168 215.878 144.168 215.953C144.168 216.029 144.19 216.102 144.232 216.165L144.569 216.969C144.532 217.154 144.558 217.347 144.642 217.515C144.726 217.684 144.864 217.82 145.033 217.901V218.113C144.986 218.304 145.006 218.505 145.091 218.683C145.175 218.861 145.319 219.003 145.497 219.086L146.256 220.61L145.834 221.669L143.01 219.425C143.016 219.357 143.007 219.288 142.984 219.223C142.961 219.158 142.924 219.1 142.876 219.051C142.828 219.003 142.769 218.965 142.705 218.942C142.64 218.919 142.572 218.91 142.504 218.917C142.509 218.824 142.496 218.732 142.465 218.645C142.434 218.558 142.385 218.478 142.322 218.41C142.258 218.343 142.182 218.289 142.097 218.253C142.013 218.216 141.921 218.197 141.829 218.197L141.534 217.943C141.534 217.52 141.534 217.223 140.944 217.181C137.505 213.907 134.728 209.997 132.765 205.666C132.863 205.372 132.867 205.055 132.776 204.759C132.686 204.462 132.505 204.202 132.259 204.015L131.88 202.618C131.134 199.128 130.85 195.555 131.036 191.992L131.5 189.155L132.638 186.276Z" fill="#81443E"/>
<path d="M140.859 200.543C140.483 200.161 140.233 199.672 140.142 199.142C140.052 198.611 140.125 198.066 140.354 197.58C141.618 193.981 141.998 190.171 143.473 186.573C146.158 181.193 149.157 175.976 152.453 170.951C152.696 170.326 152.852 169.671 152.917 169.003L153.507 168.453C156.78 165.231 159.338 161.35 161.012 157.065C161.302 156.988 161.608 156.991 161.897 157.073C162.186 157.155 162.448 157.313 162.656 157.53C157.934 164.854 153.17 172.179 148.532 179.545C145.077 184.9 142.699 190.883 141.534 197.156C141.32 197.516 141.183 197.916 141.133 198.332C141.082 198.747 141.118 199.169 141.239 199.57L140.859 200.543Z" fill="#81443E"/>
<path d="M203.381 161.425L203.044 160.198L202.032 156.895C204.225 154.99 207.513 155.075 209.537 152.662C210.338 152.662 210.801 153.297 210.464 154.059C209.976 155.776 209.075 157.346 207.84 158.631C206.604 159.916 205.073 160.875 203.381 161.425Z" fill="#A75F19"/>
<path d="M196.721 130.393C194.812 131.158 192.989 132.123 191.282 133.272C188.034 135.658 184.087 136.89 180.065 136.775C176.042 136.66 172.172 135.204 169.064 132.637C167.499 131.428 165.747 130.484 163.879 129.843C161.931 127.804 160.101 125.656 158.398 123.408C154.997 117.451 152.698 110.925 151.61 104.145C152.277 103.321 153.196 102.741 154.224 102.494C160.523 99.8788 165.918 95.4623 169.739 89.7936C172.959 85.0421 175.78 80.0291 178.171 74.8069C180.616 68.9396 185.245 64.2616 191.071 61.7675C194.333 61.1468 197.703 61.4397 200.81 62.6142C203.449 62.7474 205.976 63.7267 208.019 65.4084C210.058 68.9588 211.106 72.995 211.055 77.093C210.648 81.4937 209.958 85.8634 208.989 90.1746L208.736 92.2914C208.553 92.3576 208.385 92.4595 208.241 92.5912C208.097 92.7229 207.981 92.8819 207.899 93.059C207.816 93.2361 207.77 93.4277 207.761 93.6229C207.753 93.8182 207.784 94.0131 207.851 94.1965C206.088 100.396 205.138 106.801 205.026 113.247C205.052 116.337 204.582 119.41 203.635 122.35C203.19 122.619 202.809 122.981 202.518 123.412C202.227 123.844 202.033 124.333 201.948 124.847L196.721 130.393Z" fill="#F3C096"/>
<path d="M124.671 150.587C124.269 147.612 123.31 144.739 121.846 142.12C120.096 137.456 119.889 132.349 121.256 127.557C122.618 121.906 125.541 116.755 129.688 112.697C131.711 110.623 134.494 109.734 136.644 107.786C137.932 106.728 138.762 105.211 138.963 103.553C140.486 103.538 142.005 103.738 143.474 104.145C143.474 105.881 143.474 107.575 143.474 109.31C143.562 112.515 144.339 115.664 145.75 118.539C147.802 123.034 150.332 127.292 153.297 131.24C156.503 135.442 158.539 140.424 159.199 145.677C159.199 146.396 159.705 146.65 160.337 146.735C160.042 150.122 158.145 153.043 157.681 156.345C156.374 156.98 155.615 158.208 154.224 159.732L154.604 154.821C155.531 153.636 154.983 152.239 155.152 150.968C155.054 147.798 154.616 144.646 153.845 141.57C153.845 141.57 153.297 141.231 153.002 141.062L152.243 137.59C150.641 135.855 150.683 132.976 148.238 131.79C147.451 128.764 145.631 126.112 143.094 124.297C143.094 124.297 142.715 123.874 142.673 123.62C141.366 119.047 141.281 119.005 138.035 122.265C137.015 123.248 136.058 124.294 135.168 125.398C133.29 127.947 132.111 130.946 131.748 134.096C131.386 137.246 131.853 140.436 133.102 143.348C133.988 145.888 134.283 148.936 136.897 150.63C134.472 152.719 132.217 154.998 130.151 157.446C127.922 155.516 126.064 153.191 124.671 150.587Z" fill="#C37724"/>
<path d="M203.382 161.425C205.054 160.892 206.573 159.958 207.807 158.704C209.041 157.45 209.953 155.914 210.464 154.228C210.802 153.466 210.464 152.958 209.537 152.831V151.688C210.717 149.698 208.989 148.555 208.146 147.455C205.447 143.56 201.4 140.427 201.021 135.177C201.274 135.177 201.737 135.177 201.822 135.431C204.568 139.919 207.685 144.168 211.139 148.132C211.913 149.048 212.452 150.14 212.709 151.314C212.966 152.487 212.934 153.706 212.615 154.863C211.487 158.504 209.456 161.796 206.712 164.431C204.857 165.909 202.833 167.16 200.683 168.157C196.224 170.261 192.324 173.394 189.301 177.301C187.436 179.487 186.146 182.107 185.548 184.922C185.136 189.011 185.684 193.14 187.148 196.978C188.612 200.816 190.952 204.255 193.98 207.021C196.215 209.476 198.196 212.101 200.473 214.641C197.606 214.641 196.257 211.974 194.655 210.408C189.891 206.262 186.421 200.822 184.663 194.743C183.501 191.399 183.166 187.821 183.688 184.318C184.209 180.814 185.571 177.491 187.656 174.634C190.573 170.729 194.579 167.782 199.166 166.167C201.105 165.109 203.255 164.092 203.382 161.425Z" fill="#EA9F4C"/>
<path d="M201.02 135.05C201.4 140.3 205.236 143.517 208.145 147.328C208.988 148.555 210.717 149.698 209.537 151.561C206.675 151.199 203.99 149.972 201.837 148.045C199.684 146.117 198.165 143.579 197.479 140.766C196.594 137.341 196.337 133.783 196.72 130.266L202.074 124.72C201.163 128.083 200.807 131.572 201.02 135.05Z" fill="#A75F19"/>
<path d="M151.526 104.145C152.639 110.93 154.967 117.456 158.398 123.408C160.128 125.658 161.986 127.807 163.963 129.843C163.752 130.859 164.806 131.663 164.426 132.722C163.077 132.425 162.529 131.282 161.77 130.351C160.282 127.94 158 126.127 155.32 125.228C151.437 118.866 149.448 111.521 149.586 104.061C149.857 103.818 150.211 103.691 150.573 103.707C150.935 103.723 151.277 103.88 151.526 104.145Z" fill="#894C1A"/>
<path d="M155.236 125.228C157.916 126.127 160.198 127.94 161.686 130.351C162.445 131.282 162.993 132.425 164.342 132.722C164.834 136.673 164.144 140.681 162.361 144.237C161.948 145.198 161.239 145.999 160.337 146.523C160.356 143.492 160.144 140.463 159.705 137.463C158.693 133.145 156.416 129.377 155.236 125.228Z" fill="#A75F19"/>
<path d="M203.761 122.35C204.708 119.41 205.178 116.337 205.152 113.247C206.712 113.586 206.333 115.11 206.544 116.042C207.45 119.943 209.387 123.526 212.151 126.414C215.325 129.269 218.942 131.586 222.859 133.272C226.549 134.916 229.985 137.083 233.062 139.707C232.556 140.596 233.357 140.215 233.652 140.342C233.492 141.286 233.656 142.256 234.116 143.094C236.164 146.262 237.355 149.913 237.569 153.684C237.784 157.456 237.015 161.219 235.338 164.6C232.671 170.116 228.036 174.423 222.353 176.666C217.674 178.91 212.319 179.376 207.85 182.212C206.657 182.395 205.519 182.843 204.52 183.524C204.014 183.524 203.508 183.524 203.297 184.117C202.053 184.594 200.991 185.454 200.262 186.573C198.571 188.608 197.021 190.758 195.624 193.008C195.371 193.431 195.034 193.812 194.486 193.558C193.938 193.304 194.233 192.923 194.275 192.542C194.503 187.926 195.849 183.436 198.196 179.46C200.849 174.842 204.675 171.014 209.284 168.368C213.04 166.74 216.309 164.157 218.77 160.875C220.398 158.178 221.005 154.981 220.478 151.871C219.952 148.762 218.328 145.946 215.903 143.941C210.293 138.529 206.493 131.503 205.026 123.831C204.773 123.112 204.773 122.434 203.761 122.35Z" fill="#C37724"/>
<path d="M233.062 139.707C229.977 137.127 226.542 135.003 222.859 133.399C218.942 131.713 215.325 129.396 212.151 126.541C209.387 123.653 207.45 120.07 206.544 116.169C206.333 115.237 206.544 113.713 205.152 113.374C205.264 106.928 206.214 100.523 207.977 94.3235C209.2 94.1118 208.989 93.2228 208.862 92.4184L209.115 90.3016C211.265 89.8783 211.434 88.0579 211.729 86.3644C212.024 84.671 212.193 82.8506 212.404 81.1148C214.301 79.2944 213.036 76.6273 214.217 74.5105C214.86 76.4176 215.16 78.4247 215.102 80.4375C213.325 90.537 212.619 100.797 212.994 111.046C212.945 115.077 214.203 119.015 216.577 122.265C221.542 127.313 227.225 131.594 233.441 134.966C237.464 136.968 240.722 140.24 242.716 144.279C243.096 145.211 243.264 146.396 244.613 146.566V147.666C244.613 148.301 244.613 148.979 245.161 149.402C245.599 153.12 245.399 156.886 244.571 160.536C244.192 161.51 244.36 162.865 242.969 163.246C243.528 155.845 241.302 148.502 236.73 142.671C235.939 141.615 234.914 140.76 233.736 140.173L233.062 139.707Z" fill="#D98E34"/>
<path d="M152.242 137.379C152.495 138.564 152.748 139.707 152.959 140.85C153.17 141.993 152.959 143.856 152.959 145.38V146.523C153.067 147.168 153.067 147.826 152.959 148.471C151.779 151.349 153.381 151.222 155.362 150.757C155.362 152.027 155.742 153.424 154.814 154.609C152.116 152.831 150.598 154.017 149.207 156.514C145.384 161.878 141.034 166.842 136.222 171.332C130.218 177.156 126.179 184.721 124.67 192.965C123.978 198.383 124.719 203.888 126.82 208.926C127.158 209.815 127.959 210.535 127.706 211.593C123.954 210.535 123.49 206.978 121.846 204.184C120.201 201.39 119.948 196.648 118.093 193.219C117.629 187.912 117.928 182.565 118.979 177.343C121.081 170.399 124.712 164.018 129.603 158.674L130.109 158.081V157.446C132.174 154.998 134.43 152.719 136.854 150.63C139.055 148.822 140.875 146.592 142.207 144.07C143.539 141.547 144.357 138.783 144.612 135.939C144.534 131.942 144.011 127.966 143.052 124.085C145.588 125.9 147.409 128.553 148.195 131.579C146.888 131.79 147.183 132.595 147.436 133.484C147.904 135.835 147.699 138.272 146.846 140.512C144.568 147.128 140.616 153.037 135.379 157.657C131.255 161.684 127.343 165.923 123.658 170.358C121.602 173.313 120.168 176.658 119.443 180.188C118.718 183.719 118.718 187.36 119.443 190.891C120.002 185.85 121.96 181.068 125.092 177.089C130.145 169.856 135.74 163.02 141.829 156.641C146.593 151.519 151.104 146.1 151.188 138.437C151.175 138.295 151.194 138.152 151.242 138.017C151.291 137.883 151.368 137.761 151.468 137.66C151.569 137.559 151.69 137.481 151.824 137.433C151.958 137.384 152.101 137.366 152.242 137.379Z" fill="#EA9F4C"/>
<path d="M128.212 212.143C127.833 212.143 127.58 212.143 127.622 211.551C127.703 211.535 127.786 211.54 127.864 211.565C127.943 211.589 128.014 211.632 128.072 211.691C128.131 211.749 128.174 211.821 128.198 211.9C128.222 211.978 128.227 212.062 128.212 212.143Z" fill="#EA9F4C"/>
<path d="M244.487 146.566C243.138 146.566 242.969 145.211 242.59 144.279C240.628 140.26 237.417 136.991 233.441 134.966C227.225 131.593 221.542 127.313 216.577 122.265C214.269 118.977 213.086 115.025 213.205 111.004C212.83 100.755 213.536 90.4947 215.313 80.3951C215.381 78.354 215.081 76.3173 214.427 74.3835C213.247 76.5002 214.427 79.1674 212.615 80.9878C212.615 80.1411 211.94 79.2097 212.151 78.5323C212.777 75.6992 212.512 72.7406 211.392 70.0652C210.928 68.2871 210.464 66.0857 208.019 65.8317C205.947 63.9915 203.319 62.9032 200.557 62.7412C197.45 61.5667 194.08 61.2737 190.818 61.8945C184.992 64.3886 180.363 69.0666 177.918 74.9338C175.527 80.1561 172.706 85.1691 169.486 89.9206C165.665 95.5893 160.27 100.006 153.971 102.621C152.943 102.868 152.024 103.448 151.357 104.272C151.227 104.134 151.07 104.024 150.896 103.948C150.722 103.873 150.535 103.834 150.346 103.834C150.156 103.834 149.969 103.873 149.795 103.948C149.621 104.024 149.464 104.134 149.334 104.272H143.684C142.216 103.865 140.697 103.665 139.173 103.68C138.969 102.841 138.545 102.072 137.944 101.454C137.343 100.836 136.589 100.391 135.758 100.166C135.242 100.056 134.781 99.7665 134.457 99.348C134.133 98.9296 133.966 98.4094 133.988 97.8797C135.758 98.684 137.613 99.3614 139.342 100.335C140.918 101.13 142.636 101.599 144.396 101.715C146.156 101.832 147.921 101.593 149.587 101.012C155.563 99.0221 160.729 95.1276 164.3 89.9206C168.139 84.2594 171.442 78.2498 174.165 71.9703C178.381 64.2229 183.82 58.7617 193.264 58.6347C190.012 57.2032 186.381 56.8907 182.935 57.7456C186.035 55.8755 189.726 55.2552 193.264 56.0098C191.176 54.8471 188.86 54.1574 186.478 53.9892C184.096 53.821 181.707 54.1783 179.477 55.0361C180.574 52.623 183.145 53.6391 183.693 51.607C179.718 52.01 175.963 53.6364 172.943 56.2639C168.302 61.145 164.916 67.0882 163.078 73.5791C161.505 79.4417 158.337 84.7486 153.929 88.9045C151.501 91.1832 148.352 92.5319 145.033 92.7147C141.515 92.8042 138.06 91.7662 135.168 89.7513C134.662 89.4126 134.241 88.9469 133.735 89.4972C133.229 90.0476 133.735 90.3439 134.114 90.725C135.86 92.8085 138.151 94.3605 140.728 95.2058C143.306 96.0512 146.068 96.1561 148.701 95.5089C151.094 94.6804 153.301 93.3856 155.194 91.6987C155.615 91.36 156.079 90.6826 156.627 91.3177C157.175 91.9527 156.627 92.4607 156.29 92.8417C154.772 94.0695 153.339 95.9322 151.61 96.3979C146.298 97.8373 141.028 99.1921 135.674 95.8899C133.271 94.4082 132.344 92.0797 130.531 90.3016C130.531 89.3279 130.91 88.2695 129.983 87.4228C129.983 85.0943 129.435 82.5119 132.681 81.7498L133.398 82.7659C133.777 83.8666 134.873 84.0783 135.674 84.5863C136.921 85.4119 138.399 85.8127 139.89 85.7294C143.302 85.7433 146.632 84.6741 149.403 82.6745C152.174 80.675 154.245 77.8472 155.32 74.5951C156.952 69.3113 159.414 64.3233 162.614 59.82C166.759 53.7989 172.976 49.5312 180.068 47.8391C184.17 46.7173 188.544 47.1931 192.312 49.1714C196.08 51.1497 198.965 54.4844 200.388 58.5076C200.499 59.0057 200.769 59.4537 201.157 59.7826C201.546 60.1115 202.031 60.3031 202.539 60.3281C205.731 60.7874 208.689 62.2727 210.97 64.5616C215.693 69.4989 218.439 76.0094 218.685 82.8506C218.783 86.9463 218.5 91.0423 217.842 95.0855C217.316 97.9685 217.316 100.924 217.842 103.807C217.389 105.998 217.399 108.261 217.871 110.449C218.343 112.637 219.267 114.701 220.583 116.507C220.538 116.645 220.538 116.793 220.583 116.931L221.131 117.608C223.62 121.439 227.144 124.478 231.291 126.371C234.817 128.206 238.01 130.625 240.735 133.526C240.638 134.591 240.756 135.665 241.082 136.684C241.408 137.702 241.935 138.644 242.632 139.453C243.935 141.588 244.58 144.063 244.487 146.566Z" fill="#EA9F4C"/>
<path d="M220.372 116.761C219.056 114.955 218.132 112.891 217.66 110.703C217.188 108.515 217.178 106.252 217.631 104.061C219.571 103.299 219.233 101.224 219.908 99.8272C222.327 95.3164 223.756 90.3374 224.098 85.2254C224.44 80.1135 223.687 74.9874 221.889 70.1923C220.722 66.577 218.337 63.4832 215.144 61.4433C211.95 59.4034 208.149 58.545 204.393 59.0157C203.129 59.0157 202.918 59.0157 202.623 57.788C202.193 53.9874 200.643 50.4021 198.172 47.4909C195.701 44.5798 192.421 42.4752 188.752 41.4465C185.224 40.3711 181.502 40.0981 177.856 40.6473C174.21 41.1965 170.731 42.5541 167.673 44.6216C162.534 47.9398 158.21 52.3832 155.025 57.6186C151.683 62.8543 149.14 68.5621 147.479 74.5529C147.021 76.325 146.214 77.9872 145.106 79.4414C143.998 80.8956 142.612 82.1124 141.028 83.02C139.342 83.9937 137.276 83.5703 135.674 84.671C134.873 84.163 133.777 83.9513 133.397 82.8506C135.277 82.4529 137.03 81.5957 138.501 80.3551C139.971 79.1144 141.115 77.5287 141.829 75.7382C143.88 71.6897 145.682 67.5189 147.226 63.2493C148.825 58.6654 151.161 54.3752 154.14 50.5486C158.255 44.241 164.332 39.4778 171.425 37.0013C178.436 34.2441 186.131 33.7557 193.432 35.6042C197.214 36.5199 200.741 38.2827 203.749 40.7607C206.757 43.2387 209.168 46.3677 210.802 49.9136C211.294 51.053 211.58 52.2717 211.645 53.5121C211.645 57.4916 214.301 59.1004 217.589 60.4128C221.928 61.6163 225.769 64.1829 228.551 67.7368C230.516 71.0011 231.687 74.6856 231.965 78.4901C232.155 83.6246 231.28 88.7428 229.394 93.5192C228.635 95.8053 226.611 97.7527 226.78 100.42C225.506 102.758 224.098 105.019 222.564 107.194C221.551 110.311 220.817 113.513 220.372 116.761Z" fill="#A75F19"/>
<path d="M203.761 122.35C204.773 122.35 204.857 123.112 205.026 123.916C206.509 131.557 210.308 138.551 215.903 143.941C218.327 145.946 219.952 148.762 220.478 151.871C221.005 154.981 220.398 158.177 218.769 160.875C216.309 164.157 213.04 166.74 209.284 168.368C204.675 171.014 200.848 174.842 198.196 179.46C195.849 183.436 194.503 187.926 194.275 192.542C194.275 192.923 194.275 193.346 194.486 193.558C194.697 193.77 195.371 193.558 195.624 193.008C197.01 190.657 198.559 188.407 200.262 186.276C200.991 185.157 202.053 184.298 203.297 183.821C202.159 186.53 199.882 188.478 198.786 191.272C196.973 195.971 197.31 204.735 202.117 208.799C206.928 212.846 210.093 218.525 211.012 224.759C211.215 225.393 211.285 226.062 211.22 226.725C211.155 227.388 210.955 228.03 210.633 228.612L206.417 220.145C206.462 219.986 206.466 219.819 206.43 219.658C206.393 219.498 206.316 219.349 206.207 219.227C206.097 219.104 205.958 219.011 205.803 218.957C205.648 218.903 205.482 218.889 205.321 218.917C204.604 218.113 203.002 218.24 203.002 216.631L202.454 216.038L201.864 215.488L201.316 214.937C201.224 214.719 201.062 214.537 200.856 214.422C200.649 214.307 200.41 214.265 200.177 214.302C198.027 211.762 195.961 209.137 193.685 206.682C190.657 203.917 188.317 200.477 186.853 196.639C185.388 192.801 184.84 188.672 185.253 184.583C185.85 181.768 187.14 179.148 189.005 176.962C192.086 173.065 196.045 169.96 200.557 167.903C202.707 166.906 204.731 165.655 206.585 164.177C209.329 161.542 211.36 158.25 212.488 154.609C212.807 153.451 212.84 152.233 212.582 151.06C212.325 149.886 211.786 148.794 211.012 147.878C207.558 143.914 204.441 139.665 201.695 135.177C201.695 135.177 201.147 135.177 200.894 134.923C200.695 131.487 201.051 128.042 201.948 124.72C202.063 124.218 202.285 123.746 202.598 123.337C202.91 122.928 203.307 122.591 203.761 122.35Z" fill="#D98E34"/>
<path d="M203.297 183.948C203.508 183.397 204.014 183.355 204.52 183.355C204.426 183.589 204.248 183.778 204.022 183.888C203.796 183.997 203.538 184.019 203.297 183.948Z" fill="#D98E34"/>
<path d="M132.723 186.276C132.68 186.167 132.68 186.046 132.723 185.938V186.276Z" fill="#81443E"/>
<path d="M200.557 214.387C200.79 214.35 201.029 214.392 201.236 214.507C201.442 214.622 201.604 214.803 201.695 215.022C201.464 215.046 201.23 214.998 201.027 214.884C200.823 214.771 200.659 214.597 200.557 214.387Z" fill="#EA9F4C"/>
<path d="M130.53 90.1746C132.343 91.9527 133.271 94.4082 135.674 95.7629C141.028 99.0651 146.298 97.7104 151.61 96.271C153.339 95.8053 154.772 93.9425 156.29 92.7148C156.753 92.3338 157.091 91.6987 156.627 91.1907C156.163 90.6827 155.615 91.1907 155.194 91.5717C153.3 93.2586 151.094 94.5534 148.701 95.3819C146.067 96.0292 143.306 95.9242 140.728 95.0789C138.151 94.2335 135.86 92.6815 134.114 90.598C133.861 90.217 133.355 89.7936 133.735 89.3703C134.114 88.9469 134.662 89.3703 135.168 89.6243C138.059 91.6392 141.515 92.6772 145.033 92.5878C148.352 92.4049 151.5 91.0562 153.929 88.7776C158.328 84.7019 161.523 79.4869 163.162 73.7061C165 67.2153 168.386 61.2721 173.027 56.3909C176.024 53.7793 179.747 52.1539 183.693 51.734C183.187 53.7661 180.615 52.7501 179.477 55.1632C181.668 54.2796 184.023 53.8826 186.381 53.9996C188.739 54.1165 191.043 54.7445 193.137 55.8406C189.599 55.0859 185.908 55.7062 182.808 57.5763C186.254 56.7214 189.885 57.0339 193.137 58.4654C183.693 58.4654 178.044 64.0536 174.039 71.801C171.311 78.0513 168.008 84.0324 164.173 89.6666C160.602 94.8737 155.436 98.7681 149.46 100.759C147.794 101.339 146.029 101.578 144.269 101.461C142.51 101.345 140.791 100.876 139.215 100.081C137.487 99.1074 135.632 98.4301 133.861 97.6257C133.861 96.4826 132.976 96.525 132.175 96.398C131.753 94.3235 130.277 92.5031 130.53 90.1746ZM177.875 56.9836C177.875 56.9836 177.875 56.5603 177.664 56.5179C177.454 56.4756 177.327 56.5179 177.158 56.5179C176.99 56.5179 177.158 56.9413 177.369 56.9836C177.58 57.0259 177.706 57.0259 177.875 56.9836Z" fill="#D98E34"/>
<path d="M132.301 96.3979C133.102 96.3979 133.945 96.3979 133.988 97.6257C133.604 97.6757 133.215 97.5764 132.902 97.3482C132.588 97.1199 132.373 96.78 132.301 96.3979Z" fill="#EA9F4C"/>
<path d="M129.983 87.2958C130.91 88.1425 130.404 89.2009 130.531 90.1746C129.603 89.3703 130.109 88.2696 129.983 87.2958Z" fill="#D98E34"/>
<path d="M245.077 149.402C244.402 148.979 244.529 148.301 244.529 147.666C245.752 147.92 245.962 148.471 245.077 149.402Z" fill="#EA9F4C"/>
<path d="M207.808 65.5353C210.253 65.9164 210.717 68.1178 211.181 69.7689C212.301 72.4443 212.566 75.4028 211.94 78.236C211.729 78.9134 212.235 79.8447 212.403 80.6915C212.193 82.4272 212.024 84.2053 211.729 85.9411C211.434 87.6768 211.265 89.4549 209.115 89.8783C209.965 85.6014 210.543 81.2744 210.844 76.9236C210.843 72.926 209.796 68.9989 207.808 65.5353Z" fill="#CB9256"/>
<path d="M208.989 92.2914C208.989 93.0958 209.326 93.9848 208.103 94.1965C208.036 94.0131 208.006 93.8181 208.014 93.6229C208.022 93.4277 208.069 93.236 208.151 93.059C208.233 92.8819 208.35 92.7229 208.493 92.5912C208.637 92.4594 208.805 92.3576 208.989 92.2914Z" fill="#CB9256"/>
<path d="M143.094 124.085C144.053 127.966 144.576 131.942 144.654 135.939C144.399 138.783 143.582 141.547 142.25 144.069C140.918 146.592 139.098 148.822 136.897 150.63C134.283 148.936 133.988 145.888 133.102 143.348C131.813 140.409 131.324 137.178 131.687 133.986C132.05 130.795 133.252 127.758 135.168 125.186C136.057 124.083 137.015 123.036 138.035 122.053C141.281 118.793 141.366 118.836 142.673 123.408C142.715 123.662 142.968 123.874 143.094 124.085Z" fill="#894C1A"/>
<path d="M152.242 137.379C152.097 137.365 151.95 137.384 151.813 137.435C151.676 137.486 151.552 137.567 151.45 137.673C151.349 137.779 151.273 137.906 151.227 138.046C151.182 138.186 151.169 138.334 151.188 138.479C151.188 146.142 146.593 151.561 141.829 156.684C135.816 163.043 130.291 169.85 125.303 177.047C122.17 181.026 120.213 185.808 119.653 190.848C118.929 187.318 118.929 183.676 119.654 180.146C120.378 176.615 121.813 173.27 123.869 170.316C127.554 165.881 131.466 161.642 135.59 157.615C140.827 152.994 144.779 147.086 147.057 140.469C147.91 138.23 148.115 135.793 147.647 133.442C147.394 132.552 147.099 131.748 148.406 131.536C150.683 132.764 150.64 135.474 152.242 137.379Z" fill="#D98E34"/>
<path d="M143.684 104.018H149.502C149.364 111.479 151.353 118.824 155.236 125.186C156.416 129.42 158.693 133.103 159.705 137.421C160.144 140.42 160.356 143.449 160.337 146.481C159.705 146.481 159.283 146.142 159.199 145.422C158.496 140.259 156.461 135.37 153.296 131.24C150.332 127.292 147.802 123.034 145.75 118.539C144.431 115.585 143.769 112.378 143.811 109.141C143.768 107.448 143.684 105.839 143.684 104.018Z" fill="#D98E34"/>
<path d="M155.152 150.757C153.17 151.222 151.568 151.349 152.749 148.471C152.856 147.826 152.856 147.168 152.749 146.523C153.255 146.184 153.255 145.803 152.749 145.38C152.749 143.856 152.749 142.332 152.749 140.85C153.086 140.85 153.634 141.147 153.634 141.358C154.476 144.427 154.985 147.578 155.152 150.757Z" fill="#A75F19"/>
<path d="M233.062 139.707L233.652 140.342C233.357 140.088 232.556 140.469 233.062 139.707Z" fill="#A75F19"/>
<path d="M153.001 145.38C153.423 145.803 153.423 146.185 153.001 146.523V145.38Z" fill="#C37724"/>
<path d="M135.674 84.671C137.276 83.5703 139.342 83.9937 141.028 83.02C142.612 82.1124 143.998 80.8956 145.106 79.4414C146.214 77.9872 147.02 76.3251 147.478 74.5529C149.14 68.5621 151.683 62.8543 155.025 57.6187C158.21 52.3832 162.534 47.9399 167.673 44.6217C170.731 42.5541 174.21 41.1965 177.856 40.6473C181.502 40.0981 185.224 40.3711 188.752 41.4465C192.373 42.4526 195.619 44.5064 198.085 47.3521C200.552 50.1977 202.13 53.7094 202.622 57.4493C202.918 58.7194 203.128 58.8464 204.393 58.677C208.149 58.2063 211.95 59.0648 215.143 61.1046C218.337 63.1445 220.722 66.2383 221.889 69.8536C223.718 74.6785 224.488 79.8431 224.146 84.9943C223.804 90.1454 222.358 95.1617 219.908 99.7001C219.233 101.14 219.57 103.214 217.631 103.934C217.105 101.051 217.105 98.0956 217.631 95.2126C218.289 91.1693 218.572 87.0734 218.474 82.9776C218.228 76.1365 215.481 69.626 210.759 64.6887C208.478 62.3998 205.52 60.9145 202.327 60.4551C201.82 60.4302 201.335 60.2385 200.946 59.9096C200.558 59.5807 200.288 59.1328 200.177 58.6347C198.753 54.6114 195.869 51.2768 192.101 49.2985C188.332 47.3202 183.959 46.8443 179.857 47.9662C172.862 49.6734 166.729 53.8892 162.613 59.8201C159.396 64.2789 156.906 69.2234 155.236 74.4682C154.16 77.7203 152.089 80.548 149.318 82.5476C146.547 84.5472 143.218 85.6164 139.805 85.6024C138.365 85.7307 136.921 85.4051 135.674 84.671Z" fill="#C37724"/>
<path d="M177.875 56.9836C177.875 56.9836 177.496 56.9836 177.369 56.9836C177.243 56.9836 177.369 56.6872 177.158 56.5179C176.948 56.3486 177.538 56.3062 177.664 56.5179C177.791 56.7296 177.791 56.8142 177.875 56.9836Z" fill="#EA9F4C"/>
<path d="M179.983 113.417H188.879C188.879 115.786 187.942 118.058 186.274 119.733C184.605 121.409 182.343 122.35 179.983 122.35C177.624 122.35 175.362 121.409 173.693 119.733C172.025 118.058 171.088 115.786 171.088 113.417H179.983Z" fill="white"/>
<path d="M172.142 90.1746C172.142 93.6038 169.781 97.3293 167.926 97.16C167.504 97.16 166.619 96.8636 165.691 94.9162C167.589 92.3337 169.528 89.7936 171.425 87.2535C171.856 88.1693 172.1 89.1626 172.142 90.1746Z" fill="#161515"/>
<path d="M194.57 97.16C196.945 97.16 198.87 94.0325 198.87 90.1746C198.87 86.3167 196.945 83.1893 194.57 83.1893C192.195 83.1893 190.27 86.3167 190.27 90.1746C190.27 94.0325 192.195 97.16 194.57 97.16Z" fill="#161515"/>
</svg>
