<svg width="345" height="240" viewBox="0 0 345 240" fill="none" xmlns="http://www.w3.org/2000/svg">
<rect x="0.643066" y="0.261902" width="343.438" height="239.623" rx="23" fill="white"/>
<path d="M142.984 66.5027C142.527 66.1937 142.179 65.7489 141.989 65.2312C141.799 64.7135 141.777 64.1492 141.925 63.6181C142.35 61.3423 143.262 59.1851 144.598 57.2944C145.934 55.4037 147.663 53.8241 149.666 52.6638L150.871 51.9335C149.155 51.0571 149.082 50.765 150.141 49.1584C150.761 48.2708 151.586 47.5454 152.546 47.0434C153.505 46.5414 154.571 46.2774 155.654 46.2738H157.809L156.823 45.2514C156.587 45.0098 156.43 44.703 156.372 44.3709C156.313 44.0387 156.356 43.6966 156.494 43.3891C156.75 42.6588 157.371 42.5858 158.028 42.5493C160.35 42.6262 162.628 43.1989 164.71 44.229C165.55 44.6306 166.061 44.7402 166.645 43.7543C166.999 43.1373 167.56 42.6662 168.229 42.4254C168.898 42.1845 169.631 42.1896 170.297 42.4398C171.06 42.6754 171.786 43.0197 172.451 43.4622C172.889 41.3808 173.766 40.6871 176.102 40.7966C179.223 41.0582 182.25 41.9925 184.975 43.5352C185.494 43.9115 186.124 44.1042 186.765 44.0829C188.998 43.954 191.229 44.3879 193.251 45.3448C195.273 46.3018 197.023 47.7512 198.34 49.5601C202.434 54.1171 205.432 59.5502 207.103 65.4438C207.139 65.6982 207.139 65.9563 207.103 66.2106C206.409 66.2106 206.117 66.9409 205.679 67.306C205.241 67.6712 205.314 67.8172 205.679 68.0728C206.044 68.3284 206.921 69.643 207.907 70.0081C208.693 74.7222 207.815 79.5631 205.424 83.701C203.853 80.8164 203.123 80.4147 199.691 80.8529C198.997 80.8529 199.034 80.5608 198.887 80.1956C198.559 78.9541 198.194 77.7492 197.829 76.5442C197.829 76.1425 197.609 75.7409 196.989 75.8139C195.683 75.9114 194.376 75.6374 193.22 75.0236C192.063 74.4097 191.104 73.4811 190.453 72.345C189.978 71.7243 189.576 71.1035 188.992 70.3002V71.2131C189.104 71.7919 189.039 72.3912 188.804 72.9321C188.57 73.473 188.177 73.9303 187.678 74.2438C187.117 74.496 186.495 74.582 185.886 74.4914C185.278 74.4007 184.708 74.1374 184.245 73.7326C183.858 73.4822 183.492 73.2014 183.15 72.8927C182.301 72.0284 181.52 71.1007 180.813 70.1177C180.813 70.994 180.813 71.5782 180.813 72.1625C180.813 74.2803 179.936 75.1201 177.855 74.6819C176.324 74.1812 175.034 73.1263 174.24 71.7243V72.7102C174.24 74.9741 173.802 75.4122 171.575 74.828C169.048 74.1101 166.804 72.6311 165.148 70.5923C164.783 70.1542 164.418 69.716 163.907 69.1683C163.956 71.4235 163.572 73.6672 162.775 75.7774C162.373 76.6172 162.008 77.5666 160.876 77.6031C159.744 77.6396 159.306 76.7998 158.831 75.9965C158.831 75.9965 158.831 75.9965 158.612 75.9965C158.631 77.0406 158.521 78.0832 158.283 79.1002C158.2 79.8779 157.917 80.621 157.463 81.2582C157.01 81.8953 156.4 82.4052 155.692 82.7388C154.985 83.0724 154.203 83.2186 153.423 83.1633C152.643 83.108 151.89 82.8531 151.236 82.423C150.71 82.1456 150.229 81.7884 149.812 81.3641C149.611 81.1273 149.34 80.9606 149.038 80.8884C148.736 80.8162 148.419 80.8421 148.132 80.9624C146.051 81.5832 145.248 82.8612 145.321 85.6728C144.032 83.5302 143.257 81.118 143.057 78.6255C142.535 75.1284 142.81 71.5585 143.86 68.1824C144.041 68.1674 144.223 68.1924 144.394 68.2555C144.564 68.3185 144.719 68.4182 144.846 68.5475C145.211 68.8031 145.503 68.5475 145.759 68.3285C146.015 68.1094 146.124 67.9268 145.942 67.7077C145.759 67.4886 144.883 66.4297 144.298 65.809C143.714 65.1882 143.824 65.809 143.678 65.809C143.532 65.809 143.313 66.3567 142.984 66.5027Z" fill="#542419"/>
<path d="M145.321 85.4902C145.321 82.6786 146.051 81.4006 148.132 80.7798C148.419 80.6595 148.736 80.6336 149.038 80.7058C149.34 80.778 149.611 80.9447 149.812 81.1815C150.229 81.6058 150.71 81.963 151.236 82.2404C151.883 82.6519 152.623 82.8938 153.388 82.9438C154.153 82.9938 154.919 82.8503 155.614 82.5264C156.309 82.2026 156.911 81.7089 157.365 81.0909C157.818 80.473 158.109 79.7507 158.21 78.9906C158.448 77.9736 158.558 76.9311 158.539 75.8869C158.539 75.8869 158.722 75.8869 158.758 75.8869C159.233 76.6902 159.671 77.53 160.803 77.4935C161.935 77.457 162.3 76.5076 162.702 75.6678C163.499 73.5577 163.883 71.3139 163.834 69.0587C164.345 69.6064 164.71 70.0446 165.075 70.4828C166.731 72.5215 168.975 74.0005 171.502 74.7184C173.729 75.3027 174.277 74.7184 174.167 72.6006V71.6147C174.603 72.3455 175.179 72.9829 175.862 73.4904C176.545 73.998 177.322 74.3657 178.147 74.5724C180.229 75.0106 181.251 74.1707 181.141 72.0529C181.141 71.4687 181.141 70.8844 180.959 70.0081C181.666 70.9911 182.447 71.9188 183.296 72.7832C183.638 73.0918 184.004 73.3727 184.391 73.623C184.854 74.0278 185.424 74.2912 186.032 74.3818C186.641 74.4724 187.263 74.3865 187.824 74.1342C188.323 73.8207 188.716 73.3635 188.95 72.8225C189.185 72.2816 189.25 71.6823 189.138 71.1035V70.1907C189.722 70.994 190.124 71.6147 190.599 72.2355C191.25 73.3715 192.209 74.3002 193.366 74.914C194.522 75.5279 195.829 75.8019 197.135 75.7043C197.755 75.7043 197.865 76.033 197.975 76.4346C198.34 77.6396 198.705 78.8446 199.033 80.0861C199.033 80.4512 199.033 80.8529 199.837 80.7433C203.269 80.3051 203.999 80.7433 205.57 83.5914C205.637 85.4089 205.154 87.2044 204.183 88.7422C203.212 90.2801 201.799 91.4885 200.129 92.2088C199.85 92.3471 199.606 92.5473 199.416 92.7941C199.227 93.0409 199.096 93.3278 199.033 93.6329C198.16 97.4251 196.255 100.902 193.529 103.679C190.804 106.457 187.363 108.426 183.588 109.371C182.894 109.59 182.602 109.882 182.565 110.576C182.565 113.095 182.383 113.132 184.72 113.862C185.641 114.157 186.533 114.536 187.385 114.994C185.987 116.923 184.138 118.48 181.999 119.53C179.861 120.58 177.498 121.091 175.117 121.019C172.256 120.945 169.474 120.072 167.083 118.499L166.609 118.207L165.623 117.477L165.367 117.221C165.049 117.011 164.766 116.752 164.527 116.454C164.342 116.223 164.194 115.964 164.089 115.688L163.724 114.556C164.732 113.967 165.83 113.548 166.974 113.314C167.595 113.095 167.85 112.912 167.85 112.219C167.85 109.663 167.85 109.663 165.55 108.567C162.299 107.392 159.391 105.429 157.084 102.855C154.778 100.28 153.145 97.1749 152.332 93.8155C152.258 93.4929 152.101 93.1951 151.877 92.9517C151.653 92.7084 151.369 92.5278 151.054 92.4279C149.562 91.8945 148.242 90.9684 147.233 89.7473C146.224 88.5263 145.563 87.0555 145.321 85.4902ZM176.468 93.0487C175.053 92.9713 173.636 93.1192 172.268 93.4868C170.735 93.925 170.479 94.8379 171.502 96.0794C172.73 97.2254 174.316 97.9129 175.992 98.026C177.668 98.1391 179.332 97.6708 180.703 96.7001C181.397 96.1159 182.054 95.3856 181.726 94.4362C181.397 93.4868 180.594 93.4138 179.79 93.3043C178.693 93.113 177.581 93.0275 176.468 93.0487ZM193.264 91.2595H192.497C191.871 91.2779 191.267 91.4922 190.769 91.8721C190.271 92.252 189.905 92.7784 189.722 93.3773C189.654 93.9804 189.799 94.5885 190.132 95.0957C190.466 95.6028 190.967 95.9767 191.548 96.1524C192.377 96.5599 193.329 96.6382 194.214 96.3715C194.822 96.2755 195.388 96.0027 195.843 95.5872C196.297 95.1717 196.62 94.6318 196.77 94.0346C197.025 92.574 195.93 92.0628 195.017 91.442C194.104 90.8213 193.775 91.3325 193.264 91.2595ZM158.977 96.335C161.351 96.335 162.629 94.7648 162.008 92.6835C161.594 92.0514 161.014 91.5462 160.33 91.224C159.647 90.9017 158.888 90.775 158.137 90.8578C157.537 90.8683 156.956 91.0732 156.482 91.4419C156.008 91.8106 155.666 92.3232 155.508 92.9026C155.345 93.4038 155.354 93.9449 155.532 94.4408C155.711 94.9366 156.049 95.3589 156.494 95.6412C157.222 96.1415 158.095 96.3856 158.977 96.335ZM168.252 111.963C169.844 112.266 171.454 112.461 173.072 112.547H180.375C182.237 112.547 182.237 112.547 182.164 110.649C182.164 109.955 181.981 109.809 181.287 109.991C178.336 110.631 175.295 110.742 172.305 110.32C170.844 110.137 169.092 109.663 168.252 111.963ZM193.447 86.403C193.477 86.0345 193.431 85.6637 193.314 85.313C193.197 84.9623 193.01 84.6391 192.764 84.3627C192.518 84.0863 192.219 83.8626 191.885 83.7049C191.55 83.5472 191.187 83.459 190.818 83.4454C190.074 83.4254 189.353 83.6968 188.807 84.2017C188.261 84.7066 187.934 85.4049 187.897 86.1474C187.905 86.9166 188.21 87.6528 188.747 88.2035C189.284 88.7542 190.013 89.077 190.781 89.1051C191.157 89.1444 191.537 89.0961 191.891 88.964C192.245 88.8319 192.564 88.6196 192.822 88.3436C193.08 88.0677 193.271 87.7357 193.379 87.3737C193.488 87.0117 193.511 86.6294 193.447 86.257V86.403ZM162.446 83.5184C162.098 83.5083 161.752 83.5694 161.428 83.698C161.105 83.8265 160.811 84.0198 160.565 84.266C160.318 84.5121 160.125 84.806 159.997 85.1295C159.868 85.4531 159.807 85.7995 159.817 86.1474C159.87 86.9268 160.209 87.6593 160.768 88.2049C161.327 88.7505 162.067 89.071 162.848 89.1051C163.196 89.0911 163.539 89.0079 163.855 88.8603C164.171 88.7127 164.454 88.5037 164.689 88.2454C164.923 87.9871 165.104 87.6847 165.221 87.3559C165.337 87.027 165.387 86.6783 165.367 86.33C165.4 85.9365 165.347 85.5406 165.212 85.1695C165.077 84.7983 164.864 84.4607 164.586 84.1798C164.309 83.8989 163.974 83.6813 163.605 83.5419C163.235 83.4025 162.84 83.3447 162.446 83.3724V83.5184ZM176.614 91.4055C177.191 91.3583 177.737 91.1215 178.167 90.7319C178.596 90.3423 178.884 89.8217 178.987 89.2512C178.946 88.5796 178.666 87.945 178.197 87.4627C177.728 86.9803 177.101 86.682 176.431 86.6221C175.845 86.6481 175.29 86.8901 174.872 87.3014C174.454 87.7127 174.203 88.2641 174.167 88.8495C174.151 89.1734 174.204 89.497 174.321 89.7991C174.439 90.1013 174.619 90.3751 174.85 90.6027C175.081 90.8303 175.358 91.0064 175.662 91.1196C175.966 91.2328 176.29 91.2804 176.614 91.2595V91.4055ZM162.19 79.3558C161.181 79.3729 160.191 79.6362 159.306 80.1226C159.194 80.1576 159.092 80.2165 159.005 80.2952C158.919 80.3739 158.851 80.4706 158.806 80.5783C158.76 80.6861 158.739 80.8024 158.744 80.9192C158.748 81.036 158.778 81.1504 158.831 81.2545C158.875 81.3632 158.943 81.4604 159.03 81.5387C159.118 81.6169 159.222 81.6741 159.335 81.7058C159.447 81.7376 159.566 81.743 159.681 81.7217C159.797 81.7005 159.905 81.6531 160 81.5831C160.681 81.2059 161.448 81.008 162.227 81.008C163.006 81.008 163.773 81.2059 164.454 81.5831C164.555 81.6444 164.668 81.6827 164.785 81.6954C164.903 81.7081 165.021 81.6948 165.133 81.6564C165.244 81.6181 165.346 81.5556 165.431 81.4736C165.515 81.3915 165.581 81.2918 165.623 81.1815C165.878 80.6338 165.623 80.3051 165.112 80.0861C164.213 79.6052 163.21 79.3543 162.19 79.3558ZM190.453 79.3558C189.348 79.335 188.259 79.6261 187.312 80.1956C187.213 80.2337 187.122 80.2932 187.048 80.37C186.974 80.4467 186.917 80.5388 186.882 80.6398C186.848 80.7407 186.835 80.8481 186.847 80.9543C186.858 81.0605 186.892 81.163 186.947 81.2545C187.203 81.6927 187.568 81.8753 188.006 81.6197C188.709 81.2263 189.501 81.0197 190.307 81.0197C191.112 81.0197 191.904 81.2263 192.607 81.6197C192.708 81.6809 192.821 81.7193 192.938 81.7319C193.055 81.7446 193.174 81.7313 193.285 81.6929C193.397 81.6546 193.499 81.5922 193.583 81.5101C193.668 81.428 193.734 81.3283 193.775 81.218C194.031 80.6338 193.775 80.3417 193.228 80.1226C192.383 79.6351 191.428 79.3711 190.453 79.3558Z" fill="#F7BDA9"/>
<path d="M145.577 142.161L141.925 140.736C141.765 140.695 141.617 140.618 141.491 140.511C141.366 140.404 141.266 140.27 141.199 140.119C141.132 139.968 141.1 139.804 141.106 139.639C141.112 139.474 141.155 139.312 141.231 139.166C143.676 130.037 149.531 122.195 157.59 117.258L160.548 116.053C161.557 118.053 162.975 119.819 164.71 121.238C166.949 123.071 169.479 124.515 172.196 125.51C172.527 125.532 172.839 125.675 173.072 125.912C173.254 126.219 173.331 126.578 173.291 126.934C173.072 133.981 172.889 141.065 172.743 148.149C172.743 153.772 172.743 159.395 172.524 165.055C171.392 165.055 170.26 165.055 169.128 165.055C163.177 164.763 157.225 164.179 151.309 163.594C151.151 163.514 150.976 163.472 150.798 163.472C150.621 163.472 150.445 163.514 150.287 163.594C150.125 163.538 149.984 163.435 149.88 163.299C149.776 163.162 149.715 162.999 149.703 162.828C149.415 161.09 149.293 159.33 149.338 157.57C149.338 153.078 149.922 148.624 150.47 144.169C150.47 143.475 150.47 143.219 149.63 143.11L145.577 142.161Z" fill="#638DC7"/>
<path d="M151.455 163.412C157.371 163.996 163.323 164.58 169.275 164.872C170.406 164.872 171.538 164.872 172.67 164.872H178.513C181.105 164.872 183.698 164.872 186.29 164.507L198.084 163.448C198.303 165.493 198.559 167.538 198.742 169.583C199.107 173.234 199.435 176.886 199.764 180.537V183.02C199.764 185.686 199.764 185.686 197.318 186.306C191.986 187.109 186.574 187.219 181.215 186.635C177.892 185.868 177.928 185.868 177.344 182.509C177.052 180.537 176.577 178.565 176.395 176.557C176.395 175.389 175.665 175.498 174.861 175.462C174.058 175.425 173.51 175.462 173.401 176.63C173.035 179.223 172.415 181.815 172.123 184.444C172.132 184.68 172.094 184.916 172.011 185.137C171.927 185.358 171.8 185.56 171.636 185.731C171.472 185.902 171.276 186.037 171.058 186.13C170.84 186.222 170.606 186.27 170.37 186.27C169.96 186.345 169.557 186.455 169.165 186.598H168.69C168.614 186.55 168.525 186.524 168.435 186.524C168.344 186.524 168.255 186.55 168.179 186.598H166.792C163.699 186.963 160.573 186.963 157.48 186.598H155.545H153.318C152.605 186.336 151.849 186.212 151.09 186.233C150.031 186.233 149.739 185.795 149.812 184.773C149.995 181.56 150.068 178.31 150.397 175.096C150.415 174.768 150.415 174.439 150.397 174.111V172.906C150.908 169.583 151.127 166.406 151.455 163.412Z" fill="#1C6A61"/>
<path d="M198.084 163.448L186.29 164.507C183.697 164.726 181.105 164.909 178.512 164.872C178.768 153.699 178.768 142.526 178.512 131.352C178.512 129.673 178.512 127.993 178.512 126.313C178.47 126.066 178.527 125.813 178.67 125.608C178.814 125.403 179.033 125.262 179.279 125.218C183.631 124.009 187.403 121.274 189.905 117.513C190.453 116.747 190.781 116.637 191.584 117.148C197.345 120.794 202.013 125.929 205.095 132.01C206.811 135.917 208.052 138.765 208.272 139.312C208.35 139.55 208.35 139.806 208.272 140.043C208.153 140.263 207.958 140.431 207.724 140.517L204.73 141.868H203.999C202.904 142.124 201.881 142.623 201.005 143.329C200.129 144.023 199.399 145.009 199.545 145.155C199.691 145.301 200.202 144.899 202.466 143.073C201.491 147.508 201.061 152.045 201.188 156.584C201.347 157.536 201.317 158.51 201.097 159.45C200.878 160.39 200.474 161.278 199.91 162.061C199.422 162.664 198.795 163.14 198.084 163.448Z" fill="#638DC7"/>
<path d="M201.298 142.562C202.527 142.437 203.747 142.23 204.949 141.941C206.41 146.652 207.907 151.326 209.258 156.036C210.463 160.126 211.595 164.215 212.435 168.378C212.763 170.024 212.91 171.702 212.873 173.38C212.873 174.038 212.873 174.585 212.033 174.768C211.193 174.95 211.193 174.33 210.828 173.818C210.426 174.33 210.828 175.352 209.769 175.352C208.71 175.352 208.893 174.147 208.235 173.599C207.797 174.33 208.235 175.681 207.14 175.79C206.044 175.9 206.3 174.476 205.606 174.001C205.168 174.585 205.314 175.754 204.255 175.754C203.196 175.754 203.269 174.658 203.014 173.965C202.758 173.271 202.503 172.394 201.59 173.49C201.402 173.661 201.177 173.786 200.932 173.855C199.399 173.636 199.07 173.198 199.728 171.81C200.444 170.105 200.709 168.243 200.494 166.406C200.494 164.617 200.093 164.617 199.947 162.353C199.821 160.727 199.931 159.091 200.275 157.497C200.275 157.277 200.275 156.912 200.275 156.474C200.275 154.028 200.02 152.823 199.947 151.618C199.898 150.391 199.752 149.17 199.508 147.966V147.455C199.764 146.761 199.508 146.141 199.508 145.483C198.997 143.037 198.961 143.037 201.298 142.562Z" fill="#F7BDA9"/>
<path d="M150.397 172.614V173.818C150.107 173.872 149.809 173.853 149.529 173.764C149.249 173.675 148.995 173.518 148.79 173.307C148.242 172.65 147.95 172.796 147.768 173.599C147.585 174.403 147.548 174.403 147.439 174.804C147.329 175.206 147.074 175.754 146.453 175.79C145.832 175.827 145.65 175.316 145.431 174.841C145.212 174.366 145.248 174.33 145.102 173.928C144.846 174.366 144.627 174.658 144.445 175.023C144.262 175.389 144.08 175.936 143.459 175.827C142.838 175.717 142.729 175.133 142.656 174.658C142.636 174.269 142.636 173.879 142.656 173.49C141.743 173.782 142.254 174.987 141.487 175.279C140.72 175.571 140.282 174.841 140.026 174.074C139.552 174.403 139.26 175.096 138.602 174.731C138.341 174.553 138.136 174.304 138.013 174.012C137.89 173.721 137.854 173.4 137.909 173.088C138.109 169.145 138.809 165.244 139.99 161.477C141.633 155.16 143.641 148.916 145.54 142.635L145.759 142.161L149.958 142.818C150.652 142.818 150.908 143.183 150.798 143.877C150.251 148.331 149.812 152.786 149.666 157.277C149.622 159.038 149.744 160.798 150.031 162.536C150.043 162.706 150.105 162.87 150.209 163.006C150.312 163.143 150.454 163.246 150.616 163.302C150.039 165.446 149.952 167.693 150.36 169.875C150.535 170.778 150.547 171.706 150.397 172.614Z" fill="#F7BDA9"/>
<path d="M157.407 186.672C160.5 187.037 163.625 187.037 166.718 186.672H168.106C168.106 186.927 167.704 186.927 167.449 186.964C164.566 187.365 161.641 187.365 158.758 186.964C158.034 186.837 157.29 186.913 156.606 187.184C155.923 187.455 155.328 187.909 154.888 188.497C154.669 188.789 154.413 189.228 153.975 188.935C153.537 188.643 153.208 188.935 153.171 189.483C153.209 189.86 153.209 190.239 153.171 190.615C153.171 191.09 153.171 191.309 153.683 191.382C158.43 192.076 163.249 192.404 168.033 192.66C167.376 197.407 166.353 202.081 165.477 206.754C165.192 206.806 164.911 206.879 164.637 206.974C162.434 207.821 160.144 208.421 157.809 208.763C156.714 208.99 155.582 208.97 154.495 208.705C153.409 208.44 152.395 207.936 151.528 207.229C151.893 200.584 152.514 193.901 153.098 187.256C153.098 186.891 153.098 186.525 153.354 186.16H155.618C156.164 186.474 156.778 186.649 157.407 186.672Z" fill="#F7BDA9"/>
<path d="M198.048 196.092C198.048 197.261 198.048 198.429 198.34 199.744C198.34 199.963 198.34 200.401 198.34 200.949C198.559 203.541 198.34 204.6 198.559 206.608C198.594 206.983 198.762 207.333 199.033 207.594C198.784 207.586 198.539 207.663 198.34 207.813C198.229 207.901 198.142 208.013 198.084 208.142L196.77 208.799C196.335 208.764 195.901 208.866 195.528 209.091H193.994H193.264H191.95C189.631 208.554 187.369 207.796 185.195 206.827C184.458 204.089 183.885 201.309 183.478 198.502C183.04 196.53 182.785 194.522 182.419 192.55C186.571 192.45 190.698 191.887 194.725 190.871C195.784 190.652 197.609 190.871 197.536 188.972C197.862 190.991 198.069 193.027 198.157 195.07C198.157 195.07 198.011 195.618 198.048 196.092Z" fill="#F7BDA9"/>
<path d="M177.672 164.909H173.51C173.656 155.172 173.826 145.349 174.021 135.442C174.021 132.594 174.021 129.746 174.24 126.861C174.24 125.985 174.423 125.62 175.409 125.656C177.672 125.656 177.709 125.656 177.709 127.993C177.709 133.908 177.891 139.86 177.891 145.775C177.891 151.691 177.891 158.555 177.672 164.909ZM174.97 140.152C174.97 140.663 175.299 141.065 175.847 141.065C175.972 141.066 176.095 141.04 176.209 140.99C176.324 140.939 176.426 140.864 176.509 140.771C176.592 140.678 176.654 140.568 176.691 140.448C176.728 140.329 176.739 140.203 176.723 140.079C176.723 139.532 176.467 139.166 175.92 139.166C175.665 139.176 175.423 139.284 175.246 139.468C175.069 139.652 174.97 139.897 174.97 140.152ZM176.723 159.322C176.739 159.205 176.73 159.085 176.694 158.972C176.659 158.859 176.599 158.755 176.519 158.668C176.438 158.58 176.34 158.512 176.23 158.467C176.12 158.423 176.002 158.403 175.883 158.409C175.758 158.382 175.627 158.387 175.504 158.423C175.38 158.459 175.268 158.525 175.177 158.616C175.086 158.707 175.02 158.82 174.984 158.943C174.947 159.066 174.943 159.197 174.97 159.322C174.97 159.87 175.299 160.126 175.847 160.126C175.958 160.136 176.071 160.123 176.177 160.087C176.283 160.051 176.38 159.993 176.463 159.918C176.545 159.842 176.611 159.75 176.656 159.648C176.701 159.545 176.723 159.434 176.723 159.322ZM175.883 149.5C176.001 149.516 176.12 149.506 176.233 149.471C176.347 149.436 176.451 149.376 176.538 149.295C176.625 149.215 176.694 149.117 176.738 149.007C176.783 148.897 176.803 148.778 176.796 148.66C176.818 148.548 176.814 148.432 176.786 148.322C176.757 148.211 176.704 148.108 176.63 148.021C176.557 147.933 176.465 147.863 176.361 147.816C176.257 147.769 176.144 147.745 176.029 147.747C175.904 147.725 175.776 147.731 175.654 147.766C175.531 147.8 175.419 147.862 175.324 147.946C175.229 148.031 175.154 148.135 175.106 148.253C175.057 148.37 175.036 148.497 175.043 148.624C175.038 148.737 175.057 148.85 175.097 148.956C175.137 149.062 175.198 149.159 175.276 149.241C175.355 149.323 175.449 149.388 175.553 149.433C175.657 149.477 175.77 149.5 175.883 149.5ZM175.883 132.557C176.004 132.575 176.127 132.564 176.243 132.527C176.359 132.489 176.465 132.426 176.553 132.342C176.641 132.257 176.709 132.154 176.751 132.039C176.793 131.925 176.808 131.802 176.796 131.681C176.807 131.568 176.794 131.454 176.755 131.347C176.717 131.239 176.656 131.142 176.575 131.062C176.495 130.981 176.398 130.92 176.291 130.882C176.184 130.844 176.069 130.83 175.956 130.841C175.848 130.836 175.739 130.853 175.638 130.891C175.536 130.93 175.443 130.988 175.364 131.063C175.286 131.138 175.223 131.228 175.181 131.328C175.138 131.428 175.116 131.536 175.116 131.644C175.093 131.763 175.097 131.886 175.13 132.002C175.162 132.119 175.222 132.226 175.304 132.315C175.386 132.404 175.488 132.472 175.601 132.514C175.714 132.556 175.836 132.571 175.956 132.557H175.883Z" fill="#638DC7"/>
<path d="M151.382 207.375C152.249 208.082 153.263 208.586 154.349 208.851C155.436 209.116 156.568 209.136 157.663 208.909C159.998 208.567 162.288 207.967 164.491 207.12C164.765 207.025 165.045 206.952 165.331 206.901C165.112 208.069 164.929 209.237 164.71 210.369C164.628 211.006 164.316 211.59 163.834 212.013C160.115 215.168 155.451 216.993 150.579 217.198C148.941 217.165 147.331 216.766 145.868 216.029C144.225 215.226 143.97 214.167 145.029 212.67C146.225 211.138 147.669 209.818 149.301 208.763L151.382 207.375Z" fill="#542419"/>
<path d="M195.711 208.982C196.084 208.757 196.518 208.655 196.952 208.69L198.267 208.033C198.344 207.851 198.479 207.699 198.65 207.6C198.821 207.502 199.02 207.461 199.216 207.485C201.028 208.692 202.727 210.061 204.291 211.574C206.665 214.021 206.336 215.481 203.16 216.54C202.27 216.882 201.335 217.091 200.384 217.161C196.037 216.743 191.836 215.371 188.079 213.145C188.486 211.934 189.204 210.851 190.16 210.004C190.711 209.522 191.341 209.139 192.023 208.872L195.711 208.982Z" fill="#542419"/>
<path d="M166.937 118.609C169.328 120.182 172.11 121.054 174.971 121.128C177.36 121.246 179.742 120.774 181.907 119.756C184.071 118.737 185.953 117.202 187.385 115.286C189.978 116.053 190.051 116.162 188.444 118.171C187.085 120.001 185.374 121.541 183.411 122.701C181.449 123.861 179.274 124.617 177.015 124.926C175.132 125.159 173.221 124.982 171.413 124.409C169.604 123.836 167.94 122.878 166.536 121.603C165.135 120.416 163.906 119.039 162.884 117.513C162.884 116.747 163.615 116.381 164.162 115.98C164.156 116.077 164.156 116.175 164.162 116.272C164.246 116.446 164.371 116.596 164.527 116.71L164.82 117.002V117.185L165.039 117.404L165.258 117.623L165.951 118.098L166.244 118.353L166.937 118.609Z" fill="#638DC7"/>
<path d="M167.887 192.806C163.103 192.55 158.283 192.222 153.537 191.528C153.025 191.528 152.916 191.236 153.025 190.761C153.063 190.385 153.063 190.006 153.025 189.629C153.025 189.118 153.025 188.497 153.829 189.082C154.632 189.666 154.523 189.082 154.742 188.643C155.182 188.055 155.777 187.601 156.46 187.33C157.143 187.059 157.888 186.983 158.612 187.11C161.495 187.511 164.42 187.511 167.303 187.11C167.558 187.11 167.814 187.11 167.96 186.818H168.471H168.946C168.946 187.256 168.946 187.657 168.946 188.059C168.946 188.461 168.69 188.57 168.727 188.899C168.62 190.233 168.338 191.546 167.887 192.806Z" fill="#F5AB97"/>
<path d="M197.39 188.972C197.39 191.053 195.637 190.652 194.579 190.871C190.552 191.887 186.425 192.45 182.273 192.55C181.965 191.347 181.721 190.128 181.543 188.899C181.908 188.534 181.835 188.278 181.36 188.096V187.621C181.508 187.42 181.71 187.265 181.943 187.174C182.176 187.084 182.43 187.061 182.675 187.11C183.551 187.11 184.428 187.365 185.304 187.402C188.966 187.424 192.625 187.204 196.258 186.745C196.842 186.745 197.062 186.745 197.098 187.365C197.135 187.986 197.098 187.95 197.39 188.132V188.972Z" fill="#F5AB97"/>
<path d="M185.194 206.828C187.482 207.741 189.855 208.426 192.278 208.872C192.278 209.164 191.949 209.237 191.767 209.384C190.292 210.312 189.044 211.56 188.115 213.035C185.194 211.94 185.194 209.31 185.194 206.828Z" fill="#542419"/>
<path d="M197.208 186.197C197.208 186.818 197.208 187.402 197.208 187.986C196.916 187.986 196.952 187.475 196.916 187.219C196.879 186.964 196.66 186.562 196.076 186.598C192.443 187.058 188.784 187.278 185.122 187.256C184.245 187.256 183.369 187 182.493 186.964C182.248 186.915 181.994 186.937 181.761 187.028C181.528 187.119 181.326 187.274 181.178 187.475C181.178 187.146 181.178 186.854 180.996 186.525C186.391 187.119 191.841 187.009 197.208 186.197Z" fill="#F7BDA9"/>
<path d="M164.089 115.797C163.541 116.199 162.921 116.564 162.811 117.331L162.482 116.966C162.154 116.381 161.314 115.834 161.679 115.322C161.928 115.037 162.25 114.826 162.61 114.71C162.97 114.594 163.355 114.579 163.724 114.665L164.089 115.797Z" fill="#638DC7"/>
<path d="M181.543 187.95C182.018 188.132 182.091 188.388 181.726 188.753L181.543 187.95Z" fill="#F7BDA9"/>
<path d="M168.653 188.57C168.653 188.242 168.653 187.95 168.872 187.73C168.908 187.878 168.907 188.031 168.869 188.178C168.831 188.325 168.757 188.459 168.653 188.57Z" fill="#F7BDA9"/>
<path d="M176.468 93.0487C177.581 93.0275 178.694 93.1131 179.79 93.3043C180.594 93.3043 181.47 93.5599 181.726 94.4362C181.981 95.3126 181.397 96.1159 180.703 96.7001C179.332 97.6708 177.668 98.1391 175.992 98.026C174.316 97.913 172.73 97.2255 171.502 96.0794C170.479 94.8379 170.735 93.925 172.268 93.4869C173.636 93.1192 175.053 92.9713 176.468 93.0487Z" fill="white"/>
<path d="M193.264 91.2595C193.776 91.2595 194.396 91.0769 194.944 91.2595C195.492 91.442 196.952 92.3914 196.697 93.852C196.547 94.4492 196.224 94.9892 195.77 95.4047C195.316 95.8202 194.749 96.0929 194.141 96.1889C193.256 96.4556 192.304 96.3773 191.475 95.9698C190.894 95.7942 190.393 95.4202 190.059 94.9131C189.726 94.406 189.581 93.7979 189.649 93.1947C189.832 92.5959 190.199 92.0695 190.696 91.6895C191.194 91.3096 191.799 91.0954 192.425 91.0769L193.264 91.2595Z" fill="#F5AB97"/>
<path d="M158.977 96.335C158.112 96.4288 157.24 96.2364 156.494 95.7873C156.049 95.505 155.711 95.0827 155.532 94.5869C155.354 94.091 155.345 93.5499 155.509 93.0487C155.666 92.4693 156.008 91.9568 156.482 91.5881C156.956 91.2193 157.537 91.0144 158.138 91.0039C158.888 90.9211 159.647 91.0478 160.331 91.3701C161.014 91.6923 161.594 92.1975 162.008 92.8296C162.702 94.7649 161.351 96.335 158.977 96.335Z" fill="#F5AB97"/>
<path d="M168.252 111.963C169.092 109.663 170.844 110.137 172.451 110.32C175.477 110.755 178.557 110.644 181.543 109.991C182.237 109.809 182.383 109.991 182.42 110.649C182.42 112.547 182.42 112.547 180.63 112.547H173.327C171.624 112.472 169.928 112.277 168.252 111.963Z" fill="#F5AB97"/>
<path d="M193.447 86.257C193.486 86.6184 193.445 86.984 193.326 87.3274C193.206 87.6707 193.012 87.9831 192.756 88.2419C192.501 88.5007 192.191 88.6994 191.85 88.8234C191.508 88.9475 191.143 88.9938 190.781 88.9591C190.012 88.931 189.284 88.6082 188.747 88.0575C188.21 87.5068 187.905 86.7706 187.896 86.0014C187.934 85.2589 188.261 84.5605 188.807 84.0557C189.353 83.5508 190.074 83.2793 190.818 83.2994C191.187 83.313 191.55 83.4012 191.885 83.5589C192.219 83.7166 192.518 83.9403 192.764 84.2167C193.01 84.4931 193.197 84.8163 193.314 85.167C193.431 85.5177 193.476 85.8885 193.447 86.257Z" fill="#542419"/>
<path d="M162.446 83.3724C162.827 83.3468 163.209 83.4011 163.568 83.5318C163.926 83.6626 164.254 83.8669 164.529 84.1317C164.804 84.3964 165.021 84.7158 165.165 85.0692C165.309 85.4226 165.378 85.8024 165.367 86.184C165.387 86.5323 165.337 86.881 165.221 87.2099C165.104 87.5387 164.923 87.8411 164.689 88.0994C164.454 88.3576 164.171 88.5667 163.855 88.7143C163.539 88.8619 163.196 88.9451 162.848 88.9591C162.067 88.925 161.327 88.6045 160.768 88.0589C160.209 87.5133 159.87 86.7808 159.817 86.0014C159.807 85.6534 159.868 85.307 159.997 84.9835C160.125 84.66 160.318 84.3661 160.565 84.1199C160.811 83.8738 161.105 83.6805 161.428 83.5519C161.752 83.4234 162.098 83.3623 162.446 83.3724Z" fill="#542419"/>
<path d="M176.614 91.2595C176.277 91.2831 175.939 91.2322 175.624 91.1105C175.309 90.9889 175.024 90.7993 174.791 90.5553C174.557 90.3113 174.38 90.019 174.273 89.6989C174.165 89.3788 174.129 89.039 174.167 88.7034C174.203 88.1181 174.454 87.5666 174.872 87.1553C175.29 86.744 175.845 86.5021 176.431 86.4761C177.101 86.536 177.728 86.8342 178.197 87.3166C178.666 87.799 178.946 88.4336 178.987 89.1051C178.884 89.6756 178.596 90.1962 178.167 90.5858C177.737 90.9755 177.191 91.2123 176.614 91.2595Z" fill="#F5AB97"/>
<path d="M162.19 79.3558C163.21 79.3543 164.213 79.6052 165.112 80.0861C165.586 80.3052 165.878 80.6338 165.623 81.1815C165.581 81.2918 165.515 81.3915 165.431 81.4736C165.346 81.5557 165.244 81.6181 165.133 81.6564C165.021 81.6948 164.903 81.7081 164.785 81.6954C164.668 81.6827 164.555 81.6444 164.454 81.5832C163.773 81.2059 163.006 81.008 162.227 81.008C161.448 81.008 160.681 81.2059 160 81.5832C159.906 81.6531 159.797 81.7005 159.681 81.7217C159.566 81.743 159.447 81.7376 159.335 81.7058C159.222 81.6741 159.118 81.6169 159.03 81.5387C158.943 81.4604 158.875 81.3632 158.831 81.2545C158.778 81.1505 158.748 81.036 158.744 80.9192C158.739 80.8025 158.76 80.6861 158.806 80.5783C158.851 80.4706 158.919 80.3739 159.005 80.2952C159.092 80.2165 159.194 80.1576 159.306 80.1226C160.191 79.6362 161.181 79.373 162.19 79.3558Z" fill="#542419"/>
<path d="M190.453 79.3558C191.425 79.36 192.38 79.6113 193.228 80.0861C193.666 80.3052 194.031 80.5973 193.776 81.1815C193.734 81.2918 193.668 81.3915 193.584 81.4736C193.499 81.5557 193.397 81.6181 193.286 81.6564C193.174 81.6948 193.055 81.7081 192.938 81.6954C192.821 81.6827 192.708 81.6444 192.607 81.5832C191.904 81.1898 191.112 80.9832 190.307 80.9832C189.501 80.9832 188.709 81.1898 188.006 81.5832C187.568 81.8388 187.203 81.5832 186.947 81.218C186.892 81.1265 186.858 81.024 186.847 80.9178C186.836 80.8116 186.848 80.7042 186.883 80.6033C186.917 80.5023 186.974 80.4102 187.048 80.3335C187.123 80.2567 187.213 80.1972 187.313 80.1591C188.263 79.6023 189.351 79.324 190.453 79.3558Z" fill="#542419"/>
<path d="M166.609 118.317L166.207 117.988L165.623 117.586L166.609 118.317Z" fill="#7BA1D3"/>
<path d="M165.075 117.039L164.601 116.564Z" fill="#7BA1D3"/>
<path d="M168.581 186.562H168.069C168.146 186.513 168.234 186.487 168.325 186.487C168.416 186.487 168.504 186.513 168.581 186.562Z" fill="#F7BDA9"/>
<path d="M174.971 140.152C174.971 139.897 175.069 139.652 175.246 139.468C175.423 139.284 175.665 139.176 175.92 139.166C176.468 139.166 176.723 139.532 176.723 140.079C176.739 140.203 176.728 140.329 176.691 140.448C176.654 140.568 176.592 140.678 176.509 140.771C176.426 140.864 176.324 140.939 176.21 140.99C176.096 141.04 175.972 141.066 175.847 141.065C175.299 141.065 175.08 140.846 174.971 140.152Z" fill="#F1F8F7"/>
<path d="M176.723 159.322C176.723 159.434 176.701 159.545 176.656 159.648C176.611 159.75 176.545 159.842 176.463 159.918C176.38 159.993 176.283 160.051 176.177 160.087C176.07 160.123 175.958 160.136 175.847 160.126C175.299 160.126 174.97 159.87 174.97 159.322C174.943 159.197 174.947 159.066 174.984 158.943C175.02 158.819 175.086 158.707 175.177 158.616C175.268 158.525 175.38 158.459 175.504 158.423C175.627 158.387 175.758 158.382 175.883 158.409C176.002 158.403 176.12 158.423 176.23 158.467C176.34 158.512 176.438 158.58 176.519 158.668C176.599 158.755 176.659 158.859 176.694 158.972C176.73 159.085 176.739 159.205 176.723 159.322Z" fill="#F1F8F7"/>
<path d="M175.883 149.5C175.77 149.5 175.658 149.477 175.553 149.433C175.449 149.388 175.355 149.323 175.276 149.241C175.198 149.159 175.137 149.062 175.097 148.956C175.057 148.85 175.039 148.737 175.043 148.624C175.036 148.497 175.057 148.37 175.106 148.253C175.154 148.135 175.229 148.031 175.324 147.946C175.419 147.862 175.532 147.8 175.654 147.766C175.776 147.731 175.904 147.725 176.029 147.747C176.144 147.745 176.257 147.769 176.361 147.816C176.465 147.863 176.557 147.933 176.631 148.021C176.704 148.108 176.757 148.211 176.786 148.322C176.814 148.432 176.818 148.548 176.796 148.66C176.803 148.779 176.783 148.897 176.738 149.007C176.694 149.117 176.625 149.215 176.538 149.295C176.451 149.376 176.347 149.436 176.234 149.471C176.12 149.506 176.001 149.516 175.883 149.5Z" fill="#F1F8F7"/>
<path d="M175.957 132.557C175.842 132.559 175.729 132.536 175.625 132.489C175.521 132.441 175.429 132.371 175.355 132.284C175.282 132.196 175.229 132.093 175.2 131.983C175.172 131.872 175.168 131.757 175.19 131.644C175.19 131.536 175.212 131.428 175.254 131.328C175.297 131.228 175.359 131.138 175.438 131.063C175.516 130.988 175.609 130.93 175.711 130.891C175.813 130.853 175.921 130.836 176.03 130.841C176.143 130.83 176.257 130.844 176.364 130.882C176.471 130.92 176.568 130.981 176.649 131.062C176.729 131.142 176.791 131.239 176.829 131.347C176.867 131.454 176.881 131.568 176.87 131.681C176.882 131.802 176.866 131.925 176.824 132.039C176.782 132.154 176.715 132.257 176.627 132.342C176.539 132.426 176.433 132.489 176.317 132.527C176.2 132.564 176.077 132.575 175.957 132.557Z" fill="#F1F8F7"/>
<path d="M160.474 179.04C160.474 179.369 159.014 180.866 158.685 180.866C158.356 180.866 158.247 180.866 158.32 180.501C158.664 179.724 159.255 179.083 160 178.675C160.255 178.529 160.474 178.711 160.474 179.04Z" fill="#1C6A61"/>
</svg>
