<svg width="344" height="241" viewBox="0 0 344 241" fill="none" xmlns="http://www.w3.org/2000/svg">
<rect x="0.137695" y="0.558594" width="343.438" height="239.623" rx="23" fill="white"/>
<g clip-path="url(#clip0_55_2)">
<path d="M253.357 47.3699H90.3569V152.681H253.357V47.3699Z" fill="#010101"/>
<path d="M205.298 186.238H143.44L160.263 163.63H188.475L205.298 186.238Z" fill="#AEADAD"/>
<path d="M241.399 174.58H102.315C95.7221 174.58 90.3569 169.665 90.3569 163.608V152.658H253.357V163.608C253.357 169.665 248.015 174.58 241.399 174.58Z" fill="#DBDBDB"/>
<path d="M204.139 193.37H144.599L143.145 186.238H205.594L204.139 193.37Z" fill="#010101"/>
<path d="M174.38 52.1703H95.1309V147.858H174.38V52.1703Z" fill="#C1D44F"/>
<path d="M248.583 52.1703H174.38V147.858H248.583V52.1703Z" fill="#A0B61D"/>
<path d="M240.558 59.2337H103.156V65.5199H240.558V59.2337Z" fill="white"/>
<path d="M240.557 70.8003H182.314V77.0865H240.557V70.8003Z" fill="white"/>
<path d="M240.557 82.3898H182.314V88.676H240.557V82.3898Z" fill="white"/>
<path d="M240.557 93.9336H182.314V100.243H240.557V93.9336Z" fill="white"/>
<path d="M240.557 105.523H182.314V111.832H240.557V105.523Z" fill="white"/>
<path d="M218.392 117.09H182.314V123.376H218.392V117.09Z" fill="white"/>
<path d="M218.392 128.656H182.314V134.942H218.392V128.656Z" fill="white"/>
<path d="M239.853 128.931L226.099 116.221V134.737L230.828 129.982L234.26 136.657L236.761 135.354L233.465 128.931H239.853Z" fill="#103140"/>
<path d="M107.316 70.8004H162.945C165.241 70.8004 167.105 72.6748 167.105 74.9835V130.736C167.105 133.045 165.241 134.92 162.945 134.92H107.316C105.02 134.92 103.156 133.045 103.156 130.736V75.0064C103.156 72.6976 105.02 70.8232 107.316 70.8232V70.8004Z" fill="#103140"/>
<path d="M129.14 113.089H118.774L116.318 120.221H112.522L122.457 92.5164H125.662L135.392 120.221H131.595L129.186 113.089H129.14ZM119.842 109.958H128.072L124.071 98.0711H123.957L119.842 109.958Z" fill="white"/>
<path d="M139.393 120.244V92.5392H148.055C151.646 92.5392 154.534 93.6593 156.739 95.8766C158.921 98.094 160.012 100.974 160.012 104.494V108.289C160.012 111.832 158.921 114.712 156.739 116.907C154.556 119.124 151.669 120.221 148.055 120.221H139.393V120.244ZM143.121 95.488V117.318H148.055C150.601 117.318 152.601 116.473 154.079 114.781C155.557 113.089 156.284 110.941 156.284 108.289V104.472C156.284 101.866 155.557 99.717 154.079 98.0254C152.601 96.3338 150.601 95.488 148.055 95.488H143.121Z" fill="white"/>
<path d="M154.306 74.6635L162.058 79.1439L154.306 83.6471V74.6635Z" fill="white"/>
</g>
<defs>
<clipPath id="clip0_55_2">
<rect width="163" height="146" fill="white" transform="translate(90.3569 47.3699)"/>
</clipPath>
</defs>
</svg>
