<svg width="344" height="241" viewBox="0 0 344 241" fill="none" xmlns="http://www.w3.org/2000/svg">
<rect x="0.137695" y="0.558594" width="343.438" height="239.623" rx="23" fill="white"/>
<path d="M158.986 170.536V165.988H91.5614V170.536H158.986Z" fill="#3B394C"/>
<path d="M80.4324 90.5024L81.9853 94.6992H89.4174L87.8645 90.5024H80.4324Z" fill="#3B394C"/>
<path d="M104.614 77.8939H97.9399V87.5815H104.614V77.8939Z" fill="#3B394C"/>
<path d="M87.1065 81.425H80.4324V90.5395H87.1065V81.425Z" fill="#3B394C"/>
<path d="M273.315 199.433V195.18L235.138 97.0287L81.9849 92.7766V101.817L116.908 199.396L273.315 199.433Z" fill="#4F4B64"/>
<path d="M273.315 196.049V191.797L235.138 89.8925L81.9294 85.9731L81.9849 94.6808L118.11 196.049H273.315Z" fill="#D7C8D6"/>
<path d="M115.744 87.9143L112.139 77.8939H97.9399L101.527 87.9143H115.744Z" fill="#4F4B64"/>
<path d="M273.259 192.13L235.082 85.9731H81.9294L120.107 192.13H273.259Z" fill="#F4EEF2"/>
<path d="M94.2796 205.459H87.6055V141.362C87.6055 139.514 89.103 138.016 90.9518 138.016C92.8005 138.016 94.298 139.514 94.298 141.362V205.459H94.2796Z" fill="#4F4B64"/>
<path d="M166.844 154.1H130.091C129.813 154.1 129.573 153.934 129.48 153.675L122.788 135.169C122.714 134.966 122.751 134.762 122.862 134.577C122.973 134.411 123.176 134.3 123.379 134.3H135.119L130.257 120.859H118.037C117.759 120.859 117.519 120.693 117.426 120.434L116.151 116.922C116.077 116.718 116.114 116.515 116.225 116.33C116.336 116.145 116.539 116.053 116.742 116.053H153.496C153.773 116.053 154.014 116.219 154.106 116.478L157.064 124.668C157.175 125.001 157.009 125.37 156.676 125.481C156.343 125.592 155.973 125.426 155.863 125.093L153.052 117.328H117.667L118.48 119.547H130.701C130.978 119.547 131.218 119.713 131.311 119.972L136.635 134.707C136.709 134.91 136.672 135.114 136.561 135.298C136.45 135.465 136.247 135.576 136.044 135.576H124.304L130.534 152.806H165.92L164.311 148.369C164.2 148.036 164.367 147.667 164.7 147.556C165.032 147.445 165.402 147.611 165.513 147.944L167.436 153.25C167.51 153.453 167.473 153.657 167.362 153.842C167.251 154.008 167.048 154.119 166.844 154.119V154.1Z" fill="#A9A4B6"/>
<path d="M228.944 173.568H173.888C173.61 173.568 173.37 173.402 173.278 173.143L164.311 148.369C164.2 148.036 164.367 147.667 164.699 147.556C165.032 147.445 165.402 147.611 165.513 147.944L174.313 172.292H228.001L220.847 152.511C220.773 152.307 220.81 152.104 220.921 151.919C221.032 151.753 221.235 151.642 221.438 151.642H252.701L241.516 120.712H230.442C230.164 120.712 229.924 120.545 229.832 120.286L221.716 97.8607H147.376L157.064 124.668C157.175 125.001 157.008 125.37 156.676 125.481C156.343 125.592 155.973 125.426 155.862 125.093L145.86 97.4354C145.786 97.2321 145.823 97.0287 145.934 96.8438C146.045 96.6775 146.248 96.5665 146.452 96.5665H222.141C222.418 96.5665 222.658 96.7329 222.751 96.9917L230.867 119.417H241.941C242.219 119.417 242.459 119.584 242.551 119.843L254.199 152.048C254.273 152.252 254.236 152.455 254.125 152.64C254.014 152.806 253.81 152.917 253.607 152.917H222.344L229.499 172.699C229.573 172.903 229.536 173.106 229.425 173.291C229.314 173.476 229.111 173.568 228.907 173.568H228.944Z" fill="#A9A4B6"/>
<path d="M213.766 131.601C213.507 131.601 213.267 131.434 213.156 131.176L201.065 97.7313C200.954 97.3985 201.12 97.0288 201.453 96.9178C201.786 96.8069 202.156 96.9733 202.267 97.3061L214.358 130.75C214.469 131.083 214.302 131.453 213.969 131.564C213.895 131.582 213.822 131.601 213.748 131.601H213.766Z" fill="#A9A4B6"/>
<path d="M221.476 152.936C221.217 152.936 220.977 152.769 220.866 152.511L217.889 144.246C217.778 143.914 217.945 143.544 218.277 143.433C218.61 143.322 218.98 143.488 219.091 143.821L222.067 152.085C222.178 152.418 222.012 152.788 221.679 152.899C221.605 152.917 221.531 152.936 221.457 152.936H221.476Z" fill="#A9A4B6"/>
<path d="M238.743 143.581C238.484 143.581 238.244 143.415 238.133 143.156L229.887 120.379C229.776 120.046 229.943 119.676 230.275 119.565C230.608 119.454 230.978 119.621 231.089 119.954L239.335 142.731C239.445 143.063 239.279 143.433 238.946 143.544C238.872 143.562 238.798 143.581 238.724 143.581H238.743Z" fill="#A9A4B6"/>
<path d="M230.498 120.804H223.898C223.546 120.804 223.25 120.508 223.25 120.157C223.25 119.806 223.546 119.51 223.898 119.51H230.498C230.849 119.51 231.145 119.806 231.145 120.157C231.145 120.508 230.849 120.804 230.498 120.804Z" fill="#A9A4B6"/>
<path d="M215.91 120.804H210.124C209.772 120.804 209.477 120.508 209.477 120.157C209.477 119.806 209.772 119.51 210.124 119.51H215.91C216.262 119.51 216.557 119.806 216.557 120.157C216.557 120.508 216.262 120.804 215.91 120.804Z" fill="#A9A4B6"/>
<path d="M243.291 124.446H232.013C231.736 124.446 231.496 124.224 231.496 123.928C231.496 123.633 231.717 123.411 232.013 123.411H243.291C243.568 123.411 243.808 123.633 243.808 123.928C243.808 124.224 243.587 124.446 243.291 124.446Z" fill="#A9A4B6"/>
<path d="M244.586 128.033H233.308C233.031 128.033 232.791 127.811 232.791 127.515C232.791 127.219 233.012 126.997 233.308 126.997H244.586C244.863 126.997 245.103 127.219 245.103 127.515C245.103 127.811 244.882 128.033 244.586 128.033Z" fill="#A9A4B6"/>
<path d="M245.879 131.619H234.602C234.324 131.619 234.084 131.398 234.084 131.102C234.084 130.806 234.306 130.584 234.602 130.584H245.879C246.156 130.584 246.397 130.806 246.397 131.102C246.397 131.398 246.175 131.619 245.879 131.619Z" fill="#A9A4B6"/>
<path d="M247.174 135.187H235.896C235.619 135.187 235.378 134.966 235.378 134.67C235.378 134.374 235.6 134.152 235.896 134.152H247.174C247.451 134.152 247.691 134.374 247.691 134.67C247.691 134.966 247.469 135.187 247.174 135.187Z" fill="#A9A4B6"/>
<path d="M248.467 138.774H237.19C236.912 138.774 236.672 138.552 236.672 138.256C236.672 137.961 236.894 137.739 237.19 137.739H248.467C248.744 137.739 248.985 137.961 248.985 138.256C248.985 138.552 248.763 138.774 248.467 138.774Z" fill="#A9A4B6"/>
<path d="M249.762 142.342H238.484C238.207 142.342 237.966 142.12 237.966 141.825C237.966 141.529 238.188 141.307 238.484 141.307H249.762C250.039 141.307 250.279 141.529 250.279 141.825C250.279 142.12 250.057 142.342 249.762 142.342Z" fill="#A9A4B6"/>
<path d="M142.884 153.361C142.68 153.361 142.477 153.232 142.403 153.028L135.932 135.132C135.84 134.873 135.969 134.577 136.247 134.466C136.506 134.374 136.801 134.503 136.912 134.781L143.383 152.677C143.475 152.936 143.346 153.232 143.069 153.342C143.013 153.361 142.958 153.379 142.902 153.379L142.884 153.361Z" fill="#A9A4B6"/>
<path d="M206.444 166.007H191.451C191.229 166.007 191.044 165.877 190.97 165.674L188.862 159.85C188.807 159.702 188.825 159.517 188.918 159.388C189.01 159.259 189.177 159.166 189.343 159.166H204.337C204.558 159.166 204.743 159.295 204.817 159.499L206.925 165.323C206.98 165.47 206.962 165.655 206.869 165.785C206.777 165.914 206.611 166.007 206.444 166.007ZM191.802 164.99H205.705L203.967 160.201H190.064L191.802 164.99Z" fill="#A9A4B6"/>
<path d="M208.867 187.748H199.882L198.625 184.273H207.61L208.867 187.748Z" fill="#A9A4B6"/>
<path d="M109.033 130.695L112.287 139.68H108.792L105.557 130.695H109.033Z" fill="#A9A4B6"/>
<path d="M204.633 155.857H185.923C185.701 155.857 185.517 155.727 185.443 155.524L182.836 148.332C182.78 148.184 182.799 148 182.891 147.87C182.984 147.741 183.15 147.648 183.317 147.648H202.026C202.248 147.648 202.433 147.778 202.507 147.981L205.095 155.173C205.151 155.321 205.132 155.506 205.04 155.635C204.947 155.764 204.781 155.857 204.614 155.857H204.633ZM186.275 154.84H203.893L201.675 148.684H184.056L186.275 154.84Z" fill="#A9A4B6"/>
<path d="M217.186 166.007H209.994C209.772 166.007 209.587 165.877 209.514 165.674L206.648 157.78C206.592 157.632 206.611 157.447 206.703 157.317C206.796 157.188 206.962 157.095 207.129 157.095H214.32C214.542 157.095 214.727 157.225 214.801 157.428L217.667 165.323C217.722 165.47 217.704 165.655 217.611 165.785C217.519 165.914 217.352 166.007 217.186 166.007ZM210.364 164.99H216.465L213.969 158.112H207.868L210.364 164.99Z" fill="#A9A4B6"/>
<path d="M179.397 173.291H173.999C173.851 173.291 173.703 173.198 173.647 173.05L164.681 148.277C164.644 148.166 164.662 148.036 164.718 147.944C164.792 147.852 164.903 147.796 165.014 147.796H170.412C170.56 147.796 170.708 147.889 170.763 148.036L179.73 172.81C179.767 172.921 179.748 173.05 179.693 173.143C179.619 173.235 179.508 173.291 179.397 173.291ZM174.258 172.57H178.879L170.19 148.517H165.568L174.258 172.57Z" fill="#A9A4B6"/>
<path d="M209.883 155.672C207.776 155.672 205.52 154.026 204.762 151.919C204.374 150.828 204.448 149.756 205.003 148.961C205.52 148.221 206.371 147.815 207.425 147.815C209.532 147.815 211.788 149.46 212.546 151.568C212.934 152.658 212.86 153.731 212.305 154.526C211.788 155.265 210.937 155.672 209.883 155.672ZM207.425 148.868C206.722 148.868 206.167 149.127 205.853 149.571C205.502 150.089 205.446 150.791 205.742 151.586C206.352 153.25 208.238 154.655 209.902 154.655C210.604 154.655 211.159 154.396 211.473 153.953C211.825 153.435 211.88 152.732 211.584 151.937C210.974 150.273 209.088 148.868 207.425 148.868Z" fill="#A9A4B6"/>
<path d="M180.525 155.672C178.417 155.672 176.162 154.026 175.404 151.919C175.016 150.828 175.09 149.756 175.644 148.961C176.162 148.221 177.012 147.815 178.066 147.815C180.174 147.815 182.429 149.46 183.187 151.568C183.575 152.658 183.502 153.731 182.947 154.526C182.429 155.265 181.579 155.672 180.525 155.672ZM178.066 148.868C177.364 148.868 176.809 149.127 176.495 149.571C176.143 150.089 176.088 150.791 176.384 151.586C176.994 153.268 178.861 154.655 180.543 154.655C181.246 154.655 181.801 154.396 182.115 153.953C182.466 153.435 182.522 152.732 182.226 151.937C181.634 150.273 179.73 148.868 178.066 148.868Z" fill="#A9A4B6"/>
<path d="M196.868 125.833H156.676C156.454 125.833 156.269 125.703 156.195 125.5L153.107 116.958C153.052 116.811 153.07 116.626 153.163 116.496C153.255 116.367 153.422 116.274 153.588 116.274H193.78C194.002 116.274 194.187 116.404 194.261 116.607L197.349 125.149C197.404 125.296 197.386 125.481 197.293 125.611C197.201 125.74 197.034 125.833 196.868 125.833ZM157.027 124.797H196.128L193.411 117.291H154.309L157.027 124.797Z" fill="#A9A4B6"/>
<path d="M155.973 123.78H149.465C149.243 123.78 149.059 123.651 148.985 123.448L146.637 116.977C146.581 116.829 146.6 116.644 146.692 116.515C146.785 116.385 146.951 116.293 147.117 116.293H153.625C153.847 116.293 154.032 116.422 154.106 116.626L156.454 123.096C156.509 123.244 156.491 123.429 156.398 123.559C156.306 123.688 156.139 123.78 155.973 123.78ZM149.817 122.745H155.233L153.255 117.291H147.838L149.817 122.745Z" fill="#A9A4B6"/>
<path d="M208.071 115.738H203.228C203.006 115.738 202.821 115.609 202.747 115.406L200.991 110.58C200.935 110.432 200.954 110.248 201.046 110.118C201.139 109.989 201.305 109.896 201.471 109.896H206.315C206.537 109.896 206.722 110.026 206.796 110.229L208.534 115.054C208.589 115.202 208.571 115.387 208.478 115.517C208.386 115.646 208.219 115.738 208.053 115.738H208.071ZM203.579 114.703H207.332L205.964 110.895H202.211L203.579 114.703Z" fill="#A9A4B6"/>
<path d="M162.758 117.162H153.255C153.034 117.162 152.849 117.033 152.775 116.829L145.749 97.417C145.694 97.2691 145.712 97.0842 145.805 96.9548C145.897 96.8254 146.064 96.733 146.23 96.733H155.733C155.955 96.733 156.14 96.8624 156.214 97.0658L163.239 116.478C163.294 116.626 163.276 116.811 163.183 116.94C163.091 117.07 162.925 117.162 162.758 117.162ZM153.625 116.127H162.037L155.4 97.7498H146.988L153.625 116.127Z" fill="#A9A4B6"/>
<path d="M169.876 133.819H164.237C164.016 133.819 163.831 133.69 163.757 133.487L161.723 127.848C161.668 127.7 161.686 127.515 161.779 127.386C161.871 127.256 162.037 127.164 162.204 127.164H167.843C168.064 127.164 168.249 127.293 168.323 127.497L170.357 133.135C170.412 133.283 170.394 133.468 170.301 133.598C170.209 133.727 170.043 133.819 169.876 133.819ZM164.607 132.784H169.155L167.491 128.162H162.943L164.607 132.784Z" fill="#A9A4B6"/>
<path d="M183.021 133.819H177.382C177.16 133.819 176.975 133.69 176.901 133.487L174.868 127.848C174.812 127.7 174.831 127.515 174.923 127.386C175.016 127.256 175.182 127.164 175.348 127.164H180.987C181.209 127.164 181.394 127.293 181.468 127.497L183.501 133.135C183.557 133.283 183.538 133.468 183.446 133.598C183.354 133.727 183.187 133.819 183.021 133.819ZM177.752 132.784H182.3L180.636 128.162H176.088L177.752 132.784Z" fill="#A9A4B6"/>
<path d="M196.165 133.819H190.526C190.305 133.819 190.12 133.69 190.046 133.487L188.012 127.848C187.957 127.7 187.975 127.515 188.068 127.386C188.16 127.256 188.326 127.164 188.493 127.164H194.132C194.353 127.164 194.538 127.293 194.612 127.497L196.646 133.135C196.701 133.283 196.683 133.468 196.59 133.598C196.498 133.727 196.332 133.819 196.165 133.819ZM190.878 132.784H195.426L193.762 128.162H189.214L190.878 132.784Z" fill="#A9A4B6"/>
<path d="M205.669 109.101H197.552C197.331 109.101 197.146 108.972 197.072 108.768L192.912 97.2876C192.857 97.1397 192.875 96.9548 192.968 96.8254C193.06 96.696 193.226 96.6035 193.393 96.6035H201.509C201.731 96.6035 201.916 96.7329 201.99 96.9363L206.149 108.417C206.205 108.565 206.186 108.75 206.094 108.879C206.001 109.009 205.835 109.101 205.669 109.101ZM197.922 108.084H204.948L201.158 97.6203H194.132L197.922 108.084Z" fill="#A9A4B6"/>
<path d="M229.037 117.014H220.921C220.699 117.014 220.514 116.885 220.44 116.681L213.563 97.6942C213.507 97.5463 213.526 97.3615 213.618 97.2321C213.711 97.1026 213.877 97.0102 214.044 97.0102H222.16C222.382 97.0102 222.566 97.1396 222.64 97.343L229.499 116.33C229.555 116.478 229.536 116.663 229.444 116.792C229.352 116.922 229.185 117.014 229.019 117.014H229.037ZM221.291 115.997H228.316L221.827 98.027H214.802L221.291 115.997Z" fill="#A9A4B6"/>
<path d="M211.991 105.459H204.356C204.134 105.459 203.949 105.33 203.875 105.126L201.121 97.4909C201.065 97.343 201.084 97.1582 201.176 97.0287C201.268 96.8993 201.435 96.8069 201.601 96.8069H209.237C209.459 96.8069 209.643 96.9363 209.717 97.1397L212.472 104.775C212.528 104.923 212.509 105.108 212.417 105.237C212.324 105.367 212.158 105.459 211.991 105.459ZM204.726 104.442H211.27L208.885 97.8237H202.341L204.726 104.442Z" fill="#A9A4B6"/>
<path d="M218.721 130.713H213.766C213.544 130.713 213.359 130.584 213.285 130.381L209.643 120.323C209.588 120.175 209.606 119.99 209.698 119.861C209.791 119.732 209.957 119.639 210.124 119.639H215.078C215.3 119.639 215.485 119.769 215.559 119.972L219.201 130.011C219.257 130.159 219.238 130.344 219.146 130.473C219.053 130.602 218.887 130.695 218.721 130.695V130.713ZM214.117 129.697H217.981L214.709 120.675H210.845L214.117 129.697Z" fill="#A9A4B6"/>
<path d="M236.284 136.629H232.697C232.475 136.629 232.29 136.5 232.216 136.297L226.448 120.323C226.393 120.175 226.411 119.99 226.504 119.861C226.596 119.732 226.762 119.639 226.929 119.639H230.516C230.737 119.639 230.922 119.769 230.996 119.972L236.764 135.945C236.82 136.093 236.801 136.278 236.709 136.408C236.616 136.537 236.45 136.629 236.284 136.629ZM233.048 135.613H235.544L230.146 120.675H227.65L233.048 135.613Z" fill="#A9A4B6"/>
<path d="M234.453 152.732H221.308C221.087 152.732 220.902 152.603 220.828 152.4L218.591 146.206C218.535 146.058 218.554 145.873 218.646 145.744C218.739 145.615 218.905 145.522 219.071 145.522H232.216C232.438 145.522 232.623 145.652 232.697 145.855L234.934 152.048C234.989 152.196 234.971 152.381 234.878 152.51C234.786 152.64 234.62 152.732 234.453 152.732ZM221.678 151.715H233.732L231.865 146.539H219.811L221.678 151.715Z" fill="#A9A4B6"/>
<path d="M158.728 131.527C158.525 131.527 158.322 131.397 158.248 131.194L156.75 127.071C156.658 126.812 156.787 126.517 157.065 126.406C157.323 126.313 157.619 126.443 157.73 126.72L159.228 130.843C159.32 131.102 159.191 131.397 158.913 131.508C158.858 131.527 158.802 131.545 158.747 131.545L158.728 131.527Z" fill="#A9A4B6"/>
<path d="M161.428 138.959C161.224 138.959 161.021 138.83 160.947 138.626L159.45 134.503C159.357 134.245 159.486 133.949 159.764 133.838C160.023 133.745 160.318 133.875 160.429 134.152L161.927 138.275C162.019 138.534 161.89 138.83 161.613 138.94C161.557 138.959 161.502 138.977 161.446 138.977L161.428 138.959Z" fill="#A9A4B6"/>
<path d="M164.108 146.391C163.905 146.391 163.701 146.262 163.627 146.058L162.13 141.936C162.037 141.677 162.167 141.381 162.444 141.27C162.703 141.178 162.999 141.307 163.11 141.584L164.607 145.707C164.699 145.966 164.57 146.262 164.293 146.373C164.237 146.391 164.182 146.41 164.126 146.41L164.108 146.391Z" fill="#A9A4B6"/>
<path d="M263.905 181.481L139.926 181.203C139.778 181.203 139.63 181.111 139.575 180.963L129.869 154.119C129.795 153.934 129.906 153.712 130.091 153.657C130.276 153.583 130.497 153.694 130.553 153.879L140.167 180.482L263.351 180.76L253.108 152.418C253.034 152.233 253.145 152.011 253.33 151.956C253.515 151.882 253.737 151.993 253.792 152.178L264.219 181C264.256 181.111 264.256 181.24 264.183 181.333C264.109 181.425 263.998 181.499 263.887 181.499L263.905 181.481Z" fill="#A9A4B6"/>
<path d="M173.999 173.309H128.186C128.038 173.309 127.89 173.217 127.835 173.069L100.547 97.5833C100.51 97.4724 100.529 97.3429 100.584 97.2505C100.658 97.1581 100.769 97.1026 100.88 97.1026H146.304C146.508 97.1026 146.674 97.269 146.674 97.4724C146.674 97.6757 146.508 97.8421 146.304 97.8421H101.416L128.445 172.588H173.999C174.202 172.588 174.369 172.755 174.369 172.958C174.369 173.161 174.202 173.328 173.999 173.328V173.309Z" fill="#A9A4B6"/>
<path d="M149.447 137.295H146.341L145.231 134.189H148.319L149.447 137.295Z" fill="#A9A4B6"/>
<path d="M180.081 109.009H176.994L175.866 105.903H178.972L180.081 109.009Z" fill="#A9A4B6"/>
<path d="M233.622 138.016H230.516L229.407 134.91H232.494L233.622 138.016Z" fill="#A9A4B6"/>
<path d="M196.073 153.287H192.986L191.858 150.2H194.964L196.073 153.287Z" fill="#A9A4B6"/>
<path d="M218.536 110.562H215.43L214.321 107.456H217.408L218.536 110.562Z" fill="#A9A4B6"/>
<path d="M150.279 193.165H143.605V199.543H150.279V193.165Z" fill="#3B394C"/>
<path d="M150.278 193.239H143.604L102.95 80.1678H109.624L150.278 193.239Z" fill="#4F4B64"/>
<path d="M81.0051 82.9965L82.1883 85.973H89.6204L88.4372 82.9965H81.0051Z" fill="#4F4B64"/>
<path d="M226.745 82.9965L227.706 85.6402H235.138L234.177 82.9965H226.745Z" fill="#4F4B64"/>
<path d="M233.604 81.425L234.583 84.0688H81.4122L80.4324 81.425H233.604Z" fill="#4F4B64"/>
<path d="M239.15 97.1766L241.183 102.797H88.0307L85.9785 97.1766H239.15Z" fill="#4F4B64"/>
<path d="M90.952 138.035C90.5083 138.035 90.0831 138.127 89.6948 138.275C90.915 138.774 91.7839 139.976 91.7839 141.381V205.478H94.2983V141.381C94.2983 139.532 92.8008 138.035 90.952 138.035Z" fill="#3B394C"/>
<path d="M175.329 89.005C174.812 89.8554 175.792 97.4354 177.492 97.4354C177.492 97.4354 179.138 97.4354 178.232 93.6824C178.232 93.6824 179.138 96.474 180.34 96.474C181.541 96.474 184.388 94.311 183.871 92.8874C183.353 91.4638 183.353 89.2453 183.815 88.7276L177.437 87.5259L175.329 89.005Z" fill="#ED7C88"/>
<path d="M190.194 90.0033C189.048 89.3932 187.532 87.1932 186.478 86.2133C185.757 85.5478 184.648 84.2351 183.668 84.3091C182.688 84.383 182.226 84.8083 181.763 84.8452C180.395 84.9562 176.347 86.0839 175.33 86.6201C173.629 87.5444 171.632 93.553 172.741 94.237C174.165 95.1244 175.385 90.0588 176.162 89.7075C177.382 89.1344 180.599 88.7831 181.468 89.2453C182.448 89.7815 183.021 93.0908 182.503 93.4975L186.848 98.1379C187.606 98.2858 189.658 99.0808 189.658 99.0808L193.004 91.2235C193.004 91.2235 191.34 90.6134 190.194 90.0033Z" fill="url(#paint0_linear_55_2)"/>
<path d="M175.459 95.2354L174.184 95.6237L173.685 94.4035L183.187 74.3997L184.962 75.2317L175.459 95.2354Z" fill="#404246"/>
<path d="M184.389 74.9728L174.646 95.4942L175.459 95.2354L184.962 75.2316L184.389 74.9728Z" fill="#34363A"/>
<path d="M185.285 74.6323L183.431 73.752L182.797 75.0881L184.651 75.9683L185.285 74.6323Z" fill="#A6ABB5"/>
<path d="M184.988 72.8749C185.472 73.1049 185.683 73.696 185.453 74.1804L185.239 74.6313L183.469 73.7907L183.683 73.3398C183.913 72.8555 184.504 72.645 184.988 72.8749Z" fill="#BBBFC9"/>
<path d="M173.574 97.0472L173.481 97.0102L173.555 96.1782L174.165 96.4555L173.574 97.0472Z" fill="#34363A"/>
<path d="M175.441 95.2355C175.145 95.1615 174.867 95.3279 174.867 95.3279C174.867 95.3279 174.867 94.9951 174.59 94.8287H174.535C174.22 94.6808 173.998 94.9027 173.998 94.9027C174.017 94.6439 173.851 94.4959 173.758 94.422H173.703L173.573 96.1783L174.202 96.4741L175.496 95.2355H175.477H175.441Z" fill="#A6ABB5"/>
<path d="M185.35 73.0131L184.961 72.8282C185.257 72.9761 185.387 73.3274 185.239 73.6232L184.943 74.2517L183.556 73.6047L183.482 73.7711L185.257 74.603L185.645 73.7896C185.793 73.4937 185.645 73.1425 185.368 72.9946L185.35 73.0131Z" fill="#A6ABB5"/>
<path d="M174.165 96.4741L175.459 95.2354H175.441C175.145 95.143 174.868 95.3094 174.868 95.3094L174.036 96.4001L174.165 96.4556V96.4741Z" fill="#989CA2"/>
<path d="M173.741 94.422H173.685L173.556 96.1783L173.685 96.2338L173.981 94.9027C173.999 94.6439 173.833 94.4959 173.741 94.422Z" fill="#BBBFC9"/>
<path d="M185.29 74.6348L183.437 73.7546L183.357 73.9216L185.211 74.8018L185.29 74.6348Z" fill="#D6D9E1"/>
<path d="M185.277 74.6273L184.675 74.3418L184.041 75.6779L184.642 75.9633L185.277 74.6273Z" fill="#989CA2"/>
<path d="M184.681 74.3325L184.602 74.4996L185.203 74.7848L185.283 74.6178L184.681 74.3325Z" fill="#BBBFC9"/>
<path d="M184.725 75.8171L182.872 74.9368L182.792 75.1038L184.646 75.9841L184.725 75.8171Z" fill="#BBBFC9"/>
<path d="M184.115 75.5206L184.036 75.6876L184.637 75.973L184.717 75.806L184.115 75.5206Z" fill="#A6ABB5"/>
<path d="M183.557 74.64C183.557 74.64 183.446 74.7324 183.372 74.7139C183.298 74.6769 183.28 74.603 183.298 74.529C183.335 74.4551 183.409 74.4366 183.483 74.4551C183.557 74.4921 183.575 74.566 183.557 74.64Z" fill="#989CA2"/>
<path d="M184.167 74.9359C184.167 74.9359 184.056 75.0283 183.982 75.0098C183.908 74.9728 183.89 74.8989 183.908 74.8249C183.945 74.751 184.019 74.7325 184.093 74.751C184.167 74.788 184.185 74.8619 184.167 74.9359Z" fill="#989CA2"/>
<path d="M174.738 93.5531C174.609 93.4976 174.553 93.3312 174.609 93.2018L182.633 76.304C182.688 76.1746 182.854 76.1191 182.984 76.1746C183.113 76.23 183.169 76.3964 183.113 76.5258L175.089 93.4236C175.034 93.5531 174.868 93.6085 174.738 93.5531Z" fill="#77797B"/>
<path d="M184.999 73.2534C184.925 73.4013 184.722 73.3643 184.5 73.2534C184.278 73.1425 184.112 73.0315 184.186 72.8651C184.278 72.6988 184.463 72.7542 184.685 72.8651C184.907 72.9761 185.055 73.1055 184.999 73.2534Z" fill="#D6D9E1"/>
<path d="M186.848 98.138C185.554 97.9901 180.617 97.2506 178.953 96.585C177.049 95.827 175.163 94.1262 175.311 93.2018C176.217 91.6118 178.602 93.4236 179.785 93.627C180.691 93.7749 182.392 93.7934 182.836 92.9984C183.354 92.074 186.848 98.138 186.848 98.138Z" fill="url(#paint1_linear_55_2)"/>
<path d="M174.092 93.2572V93.4975C174.092 93.4975 174.203 93.3311 174.258 93.2387H174.092V93.2572Z" fill="#ED7C88"/>
<path d="M178.953 96.5665C180.617 97.2321 185.554 97.9716 186.848 98.1195C187.606 98.2674 189.658 99.0624 189.658 99.0624L193.004 91.2051C193.004 91.2051 191.34 90.595 190.194 89.9849C189.917 89.837 189.602 89.5782 189.288 89.2823C190.36 91.2605 188.9 95.8825 185.868 96.7329C184.038 97.2321 182.281 96.9733 179.711 96.1968C176.439 95.2169 175.311 93.1833 175.311 93.1833C175.163 94.0892 177.049 95.8085 178.953 96.5665Z" fill="#ED7C88"/>
<path d="M246.545 155.302C245.935 142.841 244.696 109.138 234.14 98.7296C222.788 87.526 197.238 91.2051 191.377 89.7816C191.377 89.7816 188.493 95.106 187.883 100.412C187.883 100.412 216.188 107.678 219.867 111.634C221.845 113.76 222.234 129.031 222.234 129.031L246.527 155.302H246.545Z" fill="#7E7FB6"/>
<path d="M201.471 129.271C206.981 128.014 227.391 120.952 227.391 120.952C227.391 120.952 239.945 125.888 244.807 141.825C248.597 154.23 247.229 183.588 248.449 205.46H190.73C190.73 205.46 190.878 197.251 190.582 185.567C190.286 173.864 188.604 165.212 188.604 165.212L201.471 129.253V129.271Z" fill="#959BCE"/>
<path d="M194.927 105.071C193.947 105.071 193.06 104.794 192.283 104.257C190.157 102.797 189.658 99.8573 189.64 99.7279C189.584 99.4321 189.787 99.1732 190.065 99.1178L198.902 97.5278C199.179 97.4724 199.438 97.6388 199.512 97.9161C199.549 98.0455 200.344 100.93 199.05 103.019C198.44 104.036 197.46 104.664 196.147 104.941C195.722 105.034 195.315 105.071 194.927 105.071ZM190.786 100.079C191.008 100.911 191.599 102.52 192.875 103.388C193.707 103.962 194.742 104.128 195.925 103.888C196.942 103.684 197.663 103.204 198.125 102.464C198.883 101.207 198.717 99.4875 198.569 98.6741L190.786 100.079Z" fill="#46393B"/>
<path d="M210.771 164.454C211.732 176.914 209.163 200.061 203.468 205.46H248.431C247.21 183.588 248.338 153.546 244.788 141.067C240.074 124.52 227.373 120.952 227.373 120.952C227.373 120.952 206.962 128.014 201.453 129.271C206.352 129.382 209.384 146.705 210.752 164.472L210.771 164.454Z" fill="#7E7FB6"/>
<path d="M140.536 117.199C140.536 117.199 140.425 113.89 140.314 110.488C140.203 107.086 139.852 104.442 139.852 101.595C139.852 98.748 140.314 95.2169 141.793 95.1059C143.272 94.995 143.05 96.585 143.05 96.585C143.05 96.585 143.845 94.2 145.435 94.0706C147.025 93.9597 147.136 95.7715 147.136 95.7715C147.136 95.7715 147.82 94.4034 149.41 94.4034C151 94.4034 151.777 97.1396 151.777 97.1396H150.446C150.446 97.1396 149.669 99.2842 149.798 101.207C149.928 103.13 150.538 104.276 151.555 104.424C153.015 104.627 153.052 103.333 155.363 102.353C157.656 101.392 158.747 102.187 158.71 102.686C158.636 103.629 157.194 104.017 155.493 105.866C154.772 106.642 154.088 107.918 153.015 108.824C151.943 109.73 150.871 110.173 150.741 110.654C150.464 111.597 151.37 116.607 151.37 116.607L140.555 117.18L140.536 117.199Z" fill="url(#paint2_linear_55_2)"/>
<path d="M158.691 102.704C158.173 103.795 156.547 104.036 155.567 104.794C154.587 105.552 154.587 106.31 153.219 107.456C151.851 108.602 150.113 109.046 149.577 110.044C149.041 111.024 149.429 113.538 145.546 114.444C142.866 115.073 141.091 114.037 140.407 113.557C140.481 115.627 140.536 117.18 140.536 117.18L151.351 116.607C151.351 116.607 150.446 111.597 150.723 110.654C150.871 110.192 151.925 109.748 152.997 108.824C154.069 107.918 154.753 106.642 155.474 105.866C157.194 103.999 158.617 103.61 158.691 102.686V102.704Z" fill="#ED7C88"/>
<path d="M205.261 105.071C205.261 105.071 203.949 114.296 204.429 119.011C206.315 120.101 207.11 123.559 206.019 125.722C204.817 128.125 201.471 129.253 201.471 129.253C201.471 129.253 204.429 129.937 211.27 131.416C214.782 132.174 221.087 131.86 224.821 129.586C229.073 126.997 229.055 121.839 227.391 120.933C226.134 120.933 224.895 120.101 224.895 120.101C224.895 120.101 222.251 116.848 224.304 111.948L207.868 96.7513L205.261 105.071Z" fill="url(#paint3_linear_55_2)"/>
<path d="M224.822 129.604C229.074 127.016 229.056 121.858 227.392 120.952C226.578 120.693 224.896 120.12 224.896 120.12C224.896 120.12 222.881 116.127 224.655 111.357L207.887 96.7883L200.289 120.36C204.559 121.044 207.832 117.994 209.68 114.093C209.68 114.093 211.622 114.795 212.527 116.774C214.043 120.12 214.376 123.596 213.064 125.296C210.032 129.253 205.779 127.127 201.49 129.29C201.49 129.29 204.448 129.974 211.289 131.453C214.801 132.211 221.106 131.897 224.84 129.623L224.822 129.604Z" fill="#F08386"/>
<path d="M228.113 80.2787L194.391 87.6739C199.069 89.726 199.642 100.985 201.879 101.355C204.116 101.725 207.092 98.6926 207.092 98.6926C208.738 97.0656 209.607 110.229 213.397 112.503C215.671 113.871 222.973 113.409 225.007 111.93C226.467 110.876 229 106.92 230.479 97.0102C231.958 87.1007 230.812 81.2956 228.094 80.2603L228.113 80.2787Z" fill="#A46567"/>
<path d="M216.28 69.1306C205.538 68.4281 201.249 71.5156 196.461 69.9256C196.461 69.9256 196.923 71.4046 198.513 72.0887C198.513 72.0887 197.034 73.124 193.041 75.9526C189.565 78.43 187.809 78.6888 186.33 78.467C185.424 81.425 192.024 90.7613 201.933 90.3176L228.13 80.2973C228.13 80.2973 230.072 70.055 216.28 69.1306Z" fill="#A46567"/>
<path d="M196.406 89.5411C199.346 93.9042 200.03 101.077 201.897 101.373C204.134 101.743 207.111 98.711 207.111 98.711C208.756 97.0841 209.625 110.247 213.415 112.521C215.689 113.889 222.992 113.427 225.025 111.948C226.486 110.894 229.019 106.938 230.498 97.0286C231.977 87.1192 230.83 81.314 228.113 80.2787C228.113 80.2787 229.019 75.4349 225.136 72.1256C225.136 75.3795 223.158 80.0754 213.045 82.9225C196.332 87.6369 186.312 78.4669 186.312 78.4669C185.591 80.8334 189.658 87.2856 196.406 89.5411Z" fill="#8F565B"/>
<path d="M204.079 98.5077C203.709 99.3027 203.284 100.042 202.489 100.209C200.714 100.615 199.549 95.6975 198.606 91.4084C196.628 82.3124 192.302 85.6402 192.117 87.1192C191.895 88.931 192.468 97.0287 194.132 104.257C195.962 112.152 197.164 118.401 198.902 119.713C200.067 120.582 201.028 120.527 201.971 119.75C203.561 118.437 206.648 111.542 206.5 104.627L204.079 98.5077Z" fill="url(#paint4_linear_55_2)"/>
<path d="M139.168 116.164C139.168 116.164 146.008 114.574 152.609 115.017C152.609 115.017 159.394 144.062 166.049 147.371C172.039 150.348 184.925 137.462 191.34 132.895C195.593 129.863 201.472 129.271 201.472 129.271L190.878 168.114C190.878 168.114 169.007 175.861 159.209 171.534C147.839 166.506 140.296 150.569 139.168 116.182V116.164Z" fill="#959BCE"/>
<path d="M159.208 171.516C167.343 175.103 183.816 170.37 189.158 168.669C189.676 172.256 190.379 178.32 190.582 185.567C190.582 186.121 190.619 186.676 190.619 187.212C196.812 180.501 200.455 160.497 200.455 160.497C200.455 160.497 175.847 176.286 159.153 169.908C142.44 163.529 139.186 116.145 139.186 116.145C140.332 150.551 147.857 166.469 159.227 171.498L159.208 171.516Z" fill="#7E7FB6"/>
<path d="M191.747 94.348C191.876 95.2724 192.061 95.827 192.93 95.9564C194.039 96.1043 194.816 95.5867 194.779 94.7917C194.742 93.8858 194.076 92.7765 192.782 92.7211C191.932 92.6841 191.636 93.3866 191.765 94.3665L191.747 94.348Z" fill="#8F565B"/>
<path d="M227.853 81.0738C229.98 79.4099 230.996 75.9897 230.479 73.4014C230.405 73.0871 229.906 73.161 229.906 73.4753C229.906 74.8249 229.906 76.1006 229.462 77.3947C229.037 78.6889 228.26 79.7057 227.521 80.8335C227.373 81.0368 227.669 81.2217 227.835 81.0738H227.853Z" fill="#8F565B"/>
<path d="M228.519 80.4451C229.185 75.2686 226.541 70.2584 221.679 68.1138C215.43 65.3776 208.183 69.297 201.934 70.2399C201.583 70.2954 201.656 70.9054 202.026 70.8685C206.297 70.5542 210.179 69.0936 214.339 68.2802C222.474 66.7087 228.223 72.4954 228.131 80.4451C228.131 80.704 228.501 80.6855 228.519 80.4451Z" fill="#A46567"/>
<path d="M229.776 100.856C231.81 95.753 236.487 82.146 227.65 80.3712C227.225 80.2787 227.021 80.9258 227.465 81.0367C236.265 83.2183 230.571 95.3463 229.48 100.763C229.443 100.967 229.702 101.022 229.776 100.837V100.856Z" fill="#8F565B"/>
<path d="M190.582 79.3359C198.568 83.662 207.96 82.1091 216.169 79.188C216.52 79.0586 216.372 78.5224 216.021 78.6334C207.424 81.1107 199.326 82.6452 190.785 79.0031C190.563 78.9107 190.36 79.2065 190.582 79.3359Z" fill="#8F565B"/>
<path d="M208.534 78.6888C212.009 78.3745 215.744 77.8384 218.905 76.2854C219.164 76.156 218.979 75.7862 218.72 75.8417C215.282 76.6367 212.009 77.8014 208.497 78.3375C208.293 78.3745 208.349 78.7073 208.552 78.6888H208.534Z" fill="#8F565B"/>
<path d="M197.996 74.8988C200.067 74.1223 202.045 73.1794 204.208 72.6618C206.371 72.1441 208.571 72.1071 210.753 71.7374C210.975 71.7004 210.975 71.3122 210.753 71.2752C206.611 70.7206 201.25 72.2366 197.867 74.6215C197.737 74.7139 197.811 74.9727 197.978 74.8988H197.996Z" fill="#8F565B"/>
<path d="M208.886 104.368C208.886 104.368 208.775 104.368 208.701 104.331C208.423 104.239 208.275 103.925 208.386 103.647C210.124 98.8035 206.944 97.343 206.815 97.2691C206.538 97.1581 206.427 96.8438 206.538 96.5665C206.649 96.2892 206.963 96.1783 207.24 96.2892C207.277 96.2892 211.474 98.175 209.403 103.999C209.329 104.22 209.126 104.35 208.904 104.35L208.886 104.368Z" fill="#46393B"/>
<path d="M189.64 100.264C189.381 100.264 189.159 100.079 189.122 99.8203C189.066 99.5245 189.27 99.2472 189.566 99.2102L205.077 96.5295C205.354 96.4741 205.65 96.6774 205.687 96.9732C205.742 97.269 205.539 97.5463 205.243 97.5833L189.732 100.264C189.732 100.264 189.677 100.264 189.64 100.264Z" fill="#46393B"/>
<path d="M208.867 99.7094C208.312 97.1581 206.833 95.2908 205.41 96.2337C204.781 96.6404 204.467 97.6203 204.06 98.5077C204.633 100.467 205.447 102.501 206.482 104.627C208.534 104.923 209.385 102.187 208.848 99.7094H208.867Z" fill="url(#paint5_linear_55_2)"/>
<path d="M205.52 100.375C205.65 101.762 206.223 102.834 206.778 102.778C207.351 102.723 207.702 101.558 207.573 100.172C207.443 98.785 206.87 97.7127 206.315 97.7682C205.742 97.8236 205.391 98.9884 205.52 100.375Z" fill="#ED7C88"/>
<path d="M268.545 205.404C272.483 196.659 273.851 184.661 273.851 171.424C273.851 144.69 265.679 123.023 247.34 123.023C229 123.023 220.828 144.69 220.828 171.424C220.828 184.661 222.196 196.678 226.134 205.404H268.564H268.545Z" fill="#403B51"/>
<path d="M273.722 205.404C277.697 196.548 279.084 184.402 279.084 170.98C279.084 143.914 270.801 121.969 252.221 121.969C233.641 121.969 225.358 143.914 225.358 170.98C225.358 184.402 226.745 196.548 230.72 205.404H273.685H273.722Z" fill="#353144"/>
<path d="M237.689 143.415C234.712 141.621 238.188 136.038 240.314 133.394C243.05 129.974 247.709 127.478 249.761 128.384C251.813 129.29 248.615 132.599 245.546 137.277C242.884 141.325 240.536 145.134 237.689 143.433V143.415Z" fill="#534D67"/>
<path d="M237.005 146.021C240.037 147.075 238.244 152.862 235.859 152.51C232.79 152.048 233.696 144.875 237.005 146.021Z" fill="#534D67"/>
<path d="M228.557 172.459C228.557 145.393 236.802 123.448 255.29 123.448C257.971 123.448 260.43 123.928 262.685 124.797C259.653 122.967 256.159 121.969 252.221 121.969C233.641 121.969 225.358 143.914 225.358 170.98C225.358 184.402 226.745 196.548 230.72 205.404H233.271C229.795 196.696 228.557 185.141 228.557 172.459Z" fill="#2E2B3C"/>
<path d="M80.2843 99.0069C79.8775 99.0069 79.5078 98.7296 79.3784 98.3228L64.6621 61.1254C64.5512 60.7002 64.736 60.2565 65.1058 60.0532L111.695 38.1636C112.194 38.0342 112.712 38.3485 112.823 38.8477C112.952 39.3468 112.638 39.8645 112.139 39.9754L66.6588 61.3288L81.1717 97.8052C81.3196 98.3043 81.0238 98.822 80.5246 98.9699C80.4322 98.9884 80.3582 99.0069 80.2658 99.0069H80.2843Z" fill="#3B394C"/>
<path d="M110.715 41.8057L114.986 39.7536C116.705 38.9401 118.757 39.4948 119.829 41.0662L129.646 55.6161L113.895 63.1591L108.7 46.3907C108.145 44.5789 108.996 42.6192 110.715 41.8057Z" fill="#4F4B64"/>
<path d="M110.715 41.8057L114.986 39.7536C115.818 39.3469 116.742 39.2914 117.574 39.4948C115.651 39.5132 112.434 41.3805 113.562 45.0411L119.497 60.4414L113.895 63.1591L108.7 46.3907C108.145 44.5789 108.996 42.6192 110.715 41.8057Z" fill="#3B394C"/>
<path d="M66.0859 62.512C66.8414 62.512 67.454 61.8995 67.454 61.1439C67.454 60.3883 66.8414 59.7758 66.0859 59.7758C65.3303 59.7758 64.7178 60.3883 64.7178 61.1439C64.7178 61.8995 65.3303 62.512 66.0859 62.512Z" fill="#4F4B64"/>
<path d="M126.928 54.6548L119.663 43.6545C119.663 43.6545 116.89 53.4531 126.928 54.6548Z" fill="#88869C"/>
<path d="M116.225 39.8239L109.822 42.7595L108.775 40.4739C108.204 39.2303 108.743 37.7429 110.003 37.165L111.885 36.302C113.129 35.7319 114.616 36.2702 115.194 37.5306L116.242 39.8162L116.225 39.8239Z" fill="#3B394C"/>
<path d="M82.2068 86.8234L89.4725 106.957V112.392C79.2673 109.545 74.9227 102.446 75.7176 93.7748C76.3832 86.5646 82.2068 86.8419 82.2068 86.8419V86.8234Z" fill="#3B394C"/>
<path d="M81.8926 85.9175C83.7229 90.484 86.5146 98.4523 89.4541 106.901C89.4541 106.901 78.1396 105.792 76.106 96.1413C74.4606 88.3949 81.8926 85.936 81.8926 85.936V85.9175Z" fill="#4F4B64"/>
<g style="mix-blend-mode:screen">
<path d="M127.89 117.587L162.629 101.244L129.295 55.1909L113.691 62.5305L127.89 117.587Z" fill="#EFD9A8"/>
</g>
<defs>
<linearGradient id="paint0_linear_55_2" x1="174.424" y1="87.452" x2="193.577" y2="96.2522" gradientUnits="userSpaceOnUse">
<stop stop-color="#F6B2AA"/>
<stop offset="0.34" stop-color="#F4AAA6"/>
<stop offset="0.85" stop-color="#F2969B"/>
<stop offset="1" stop-color="#F18F98"/>
</linearGradient>
<linearGradient id="paint1_linear_55_2" x1="172.501" y1="90.8353" x2="192.191" y2="99.8759" gradientUnits="userSpaceOnUse">
<stop stop-color="#F6B2AA"/>
<stop offset="0.34" stop-color="#F4AAA6"/>
<stop offset="0.85" stop-color="#F2969B"/>
<stop offset="1" stop-color="#F18F98"/>
</linearGradient>
<linearGradient id="paint2_linear_55_2" x1="149.262" y1="93.6084" x2="149.262" y2="117.328" gradientUnits="userSpaceOnUse">
<stop stop-color="#F6B2AA"/>
<stop offset="0.34" stop-color="#F4AAA6"/>
<stop offset="0.85" stop-color="#F2969B"/>
<stop offset="1" stop-color="#F18F98"/>
</linearGradient>
<linearGradient id="paint3_linear_55_2" x1="214.949" y1="143.193" x2="214.949" y2="108.362" gradientUnits="userSpaceOnUse">
<stop stop-color="#F6B2AA"/>
<stop offset="1" stop-color="#F18F98"/>
</linearGradient>
<linearGradient id="paint4_linear_55_2" x1="196.314" y1="83.9393" x2="205.428" y2="130.769" gradientUnits="userSpaceOnUse">
<stop stop-color="#F6B2AA"/>
<stop offset="0.34" stop-color="#F4AAA6"/>
<stop offset="0.85" stop-color="#F2969B"/>
<stop offset="1" stop-color="#F18F98"/>
</linearGradient>
<linearGradient id="paint5_linear_55_2" x1="199.829" y1="79.9308" x2="215.464" y2="124.985" gradientUnits="userSpaceOnUse">
<stop stop-color="#F6B2AA"/>
<stop offset="0.34" stop-color="#F4AAA6"/>
<stop offset="0.85" stop-color="#F2969B"/>
<stop offset="1" stop-color="#F18F98"/>
</linearGradient>
</defs>
</svg>
