<svg width="344" height="241" viewBox="0 0 344 241" fill="none" xmlns="http://www.w3.org/2000/svg">
<rect x="0.137695" y="0.558594" width="343.438" height="239.623" rx="23" fill="white"/>
<g clip-path="url(#clip0_55_2)">
<path fill-rule="evenodd" clip-rule="evenodd" d="M201.616 94.3969C190.985 94.9608 180.355 95.5039 169.725 96.0679L170.411 109.457C174.01 109.185 177.588 109.081 181.125 109.144C177.879 109.269 174.613 109.478 171.368 109.77C167.353 111.17 163.38 112.527 159.406 113.864C151.147 114.303 142.909 114.721 134.651 115.159L134.463 111.567C138.042 111.525 141.536 111.191 144.907 110.543L170.12 109.227L169.641 100.141L169.433 96.3185C161.029 96.7572 152.624 97.1958 144.22 97.6345C133.673 98.1775 123.126 98.7415 112.579 99.2846C111.538 99.0757 110.831 98.47 110.457 97.4883C109.312 77.1854 108.251 56.8825 107.357 36.5587C107.586 35.7232 108.064 35.0966 108.813 34.6789C138.624 32.9661 168.456 31.3995 198.287 30C199.119 30.2298 199.743 30.7102 200.16 31.4621C201.387 51.8486 202.427 72.235 203.342 92.6214C203.114 93.5405 202.552 94.1462 201.637 94.3969H201.616Z" fill="#7AA5A4"/>
<path fill-rule="evenodd" clip-rule="evenodd" d="M110.103 36.6423C139.207 34.8042 168.31 33.2794 197.434 32.0679C176.652 33.154 155.87 34.2402 135.088 35.3264C135.088 36.0574 135.171 36.7676 135.316 37.4778C136.294 37.9164 137.168 38.5222 137.917 39.2532C137.584 40.2141 137.23 41.1958 136.877 42.1775C136.253 42.47 135.628 42.5117 134.963 42.282H134.734C134.297 41.9895 133.819 41.8851 133.278 42.0104C132.716 42.6788 132.113 43.3055 131.468 43.9112C131.655 45.0809 131.717 46.2715 131.655 47.5039C130.74 47.9217 129.845 48.3812 128.971 48.8407C128.347 48.5274 127.89 48.0888 127.598 47.483C127.453 46.9399 127.182 46.4595 126.808 46.0835C125.601 46.0835 124.416 46.2089 123.251 46.5013C122.959 47.2741 122.585 48.0052 122.169 48.7154C121.898 48.9869 121.586 49.0496 121.233 48.8825C120.359 48.5274 119.506 48.1305 118.674 47.6919C118.903 46.4386 118.924 45.1436 118.716 43.8486C118.029 43.201 117.322 42.5953 116.594 42.0522C115.553 42.3237 114.534 42.6162 113.536 42.9295C113.203 41.8224 112.745 40.7781 112.183 39.7754C112.204 39.5875 112.287 39.4204 112.391 39.295C113.223 38.8355 114.035 38.3551 114.825 37.8538C114.909 37.3734 114.929 36.8929 114.867 36.4125L110.103 36.6632V36.6423Z" fill="#2892A0"/>
<path fill-rule="evenodd" clip-rule="evenodd" d="M124.374 35.9112C125.352 37.436 125.685 39.0861 125.352 40.8825C125.893 41.0914 126.454 41.1331 127.037 41.0287C122.855 42.0731 120.38 40.4438 119.631 36.141L124.395 35.8903L124.374 35.9112Z" fill="#2C3F4F"/>
<path fill-rule="evenodd" clip-rule="evenodd" d="M124.374 35.9112L130.552 35.577C130.615 38.2089 129.429 40.0261 127.016 41.0287C126.433 41.1332 125.892 41.0914 125.331 40.8825C125.664 39.0862 125.331 37.4151 124.353 35.9112H124.374Z" fill="#192B3A"/>
<path fill-rule="evenodd" clip-rule="evenodd" d="M197.435 32.0887C197.726 32.0887 197.934 32.235 198.059 32.5274C198.87 45.9791 199.619 59.4308 200.285 72.9034C199.369 72.4229 198.433 72.0052 197.476 71.6083C196.727 72.3603 196.041 73.1958 195.458 74.1149C194.231 73.4256 192.9 73.1122 191.464 73.1331C191.464 72.0887 191.36 71.0652 191.194 70.0417L190.819 69.7075C189.633 69.5822 188.427 69.5404 187.241 69.5404C187.095 70.4386 186.908 71.3159 186.659 72.2141C185.182 72.5274 183.663 72.6945 182.144 72.6945C181.915 71.8172 181.624 70.9399 181.291 70.1044C180.002 70.1253 178.753 70.2715 177.505 70.5431L177.692 74.1357L176.985 74.1775C175.716 74.094 174.426 73.9895 173.157 73.906C174.343 73.8851 175.55 73.7807 176.715 73.5927C176.819 72.4647 176.923 71.3368 177.027 70.2297C177.817 69.7493 178.545 69.2062 179.211 68.5587C180.251 69.1018 181.333 69.248 182.456 68.9974C182.893 67.9947 183.33 66.9713 183.725 65.9269C182.956 65.1958 182.103 64.6109 181.125 64.1514C180.875 63.0444 180.855 61.9164 181.063 60.8094C181.77 60.2663 182.29 59.6188 182.623 58.8041C181.957 57.6971 181.146 56.7154 180.21 55.8172C179.461 56.2558 178.733 56.7363 178.025 57.2585C176.964 57.1958 175.966 56.9034 174.988 56.3394C174.801 55.295 174.468 54.3133 174.01 53.3942C172.7 53.3107 171.452 53.4987 170.224 53.9582C170.12 55.0861 170.016 56.2141 169.912 57.3211C169.226 57.8851 168.477 58.4073 167.728 58.8668C166.75 58.4699 165.751 58.3237 164.732 58.4282C164.316 59.2637 163.921 60.1201 163.546 60.9974C163.38 61.3525 163.442 61.6658 163.713 61.9373L165.939 63.2532C166.251 64.2767 166.438 65.3002 166.459 66.3446C165.793 66.9086 165.127 67.5143 164.524 68.1201C164.482 67.2428 164.524 66.3655 164.628 65.4882C164.795 65.0078 164.815 64.5274 164.67 64.047C164.087 63.5874 163.463 63.2323 162.818 62.9399C162.527 61.5404 162.361 60.1201 162.361 58.6579C162.985 58.6579 163.546 58.4491 164.004 58.094C164.42 58.094 164.815 58.0104 165.19 57.8015C165.398 56.5901 165.377 55.3994 165.127 54.2088L164.753 53.8746C163.63 53.812 162.527 53.8329 161.424 53.9373C161.175 52.7467 160.717 51.5979 160.051 50.5326C160.717 49.6135 161.383 48.7154 162.049 47.7963C161.528 46.7728 160.842 45.8746 160.01 45.1436C159.219 44.9347 158.595 45.2062 158.138 45.9582C157.825 46.1671 157.472 46.3342 157.097 46.5013C156.203 46.1462 155.412 45.5822 154.747 44.8303C154.435 44.7258 154.123 44.7049 153.79 44.7676C153.914 44.0365 154.039 43.3263 154.164 42.5953C154.518 42.3864 154.643 42.0522 154.58 41.6135C154.58 41.3211 154.476 41.0914 154.31 40.9034C153.207 40.6736 152.209 40.2558 151.252 39.6292C150.44 40.4856 149.816 41.4882 149.379 42.5953C148.11 42.4282 146.841 42.3237 145.552 42.3237C145.177 41.2167 144.803 40.1096 144.428 39.0235C143.825 38.9817 143.263 39.0861 142.785 39.3577L140.642 39.4621L140.829 43.0548C139.706 43.3263 138.707 43.7859 137.792 44.4125C137.626 44.684 137.397 44.7258 137.085 44.5796C136.44 43.8068 135.774 43.0966 135.067 42.4073C135.712 42.637 136.357 42.6162 136.981 42.3028C137.334 41.3211 137.688 40.3394 138.021 39.3786C137.272 38.6266 136.398 38.0417 135.421 37.6031C135.275 36.8929 135.192 36.1827 135.192 35.4517C155.974 34.3655 176.756 33.2793 197.539 32.1932L197.435 32.0887Z" fill="#2E3D4F"/>
<path fill-rule="evenodd" clip-rule="evenodd" d="M110.103 36.6423L114.867 36.3917C114.929 36.8721 114.908 37.3525 114.825 37.8329C114.035 38.3342 113.223 38.8146 112.391 39.2742C112.266 39.4204 112.204 39.5875 112.183 39.7546C112.745 40.7572 113.202 41.8225 113.535 42.9086C114.534 42.5953 115.553 42.3029 116.593 42.0314C117.321 42.5744 118.029 43.1802 118.715 43.8277C118.923 45.1227 118.903 46.3969 118.674 47.671C119.506 48.0888 120.359 48.4857 121.232 48.8616C121.586 49.0287 121.898 48.9661 122.169 48.6945C122.585 47.9844 122.959 47.2533 123.25 46.4804C124.415 46.188 125.601 46.0418 126.808 46.0627C126.974 46.8146 126.766 47.4204 126.184 47.9008C126.579 49.0079 126.704 50.1149 126.6 51.2428C125.622 51.577 124.686 51.9948 123.791 52.4752C123.022 51.7859 122.418 50.9295 121.981 49.9269C120.775 49.718 119.589 49.7389 118.403 49.9896C117.946 50.9504 117.363 51.8277 116.635 52.6005C115.574 52.2663 114.555 51.8486 113.577 51.3264C113.619 50.1149 113.723 48.9034 113.868 47.7128L111.621 45.6658C111.06 45.8956 110.456 46.0836 109.853 46.2298C109.666 43.2011 109.541 40.1723 109.5 37.1436C109.583 36.8303 109.77 36.6632 110.061 36.6423H110.103Z" fill="#1B2D3D"/>
<path fill-rule="evenodd" clip-rule="evenodd" d="M142.701 39.2533C143.201 39.1488 143.679 39.2115 144.137 39.4204C143.305 39.9844 143.471 40.2141 144.657 40.1097C144.719 40.7572 144.719 41.3838 144.657 42.0314C143.95 42.3656 144.012 42.6789 144.823 42.9713C144.782 43.1175 144.698 43.2428 144.594 43.3473C145.239 43.4517 145.385 43.2637 145.031 42.7207C145.759 42.4282 146.446 42.5535 147.07 43.0966C147.84 42.9086 148.589 42.6998 149.296 42.4909C149.733 41.3838 150.357 40.3812 151.168 39.5248C152.104 40.1515 153.124 40.5692 154.226 40.799C154.268 41.3629 154.226 41.9269 154.081 42.4909C153.956 43.222 153.831 43.9321 153.706 44.6632C154.039 44.6005 154.351 44.6214 154.663 44.7259C155.329 45.4778 156.119 46.0418 157.014 46.3969C157.388 46.2298 157.742 46.0627 158.054 45.8538C158.637 45.4987 159.24 45.2272 159.926 45.0392C160.779 45.7703 161.466 46.6475 161.965 47.6919C161.299 48.611 160.634 49.5092 159.968 50.4282C160.634 51.4935 161.091 52.6423 161.341 53.8329C162.444 53.7285 163.567 53.7076 164.669 53.7703L165.044 54.1045C165.294 55.2951 165.335 56.4857 165.106 57.6972C164.753 57.906 164.357 58.0105 163.921 57.9896C163.296 57.9896 162.735 58.1985 162.277 58.5535C162.152 59.7441 161.986 60.9347 161.757 62.1671C161.923 62.6267 162.256 62.8564 162.756 62.8355C163.4 63.1071 164.004 63.4831 164.607 63.9426C164.753 64.423 164.732 64.9034 164.565 65.3838C164.337 65.9896 164.045 66.5535 163.692 67.0966C163.421 67.2846 163.109 67.3891 162.756 67.3891C162.194 67.3055 161.632 67.2428 161.071 67.2428C160.654 67.0131 160.259 67.034 159.885 67.3055C159.261 68.2872 158.595 69.2481 157.888 70.1671C158.324 70.752 158.761 71.3368 159.177 71.9008C159.344 72.1097 159.427 72.3394 159.448 72.611C158.949 73.8016 158.075 74.6371 156.827 75.1384C155.974 74.846 155.266 74.3238 154.726 73.5718C154.205 73.2794 153.727 73.3212 153.29 73.6554C152.5 73.9478 151.73 74.2193 150.939 74.4909C150.544 75.5979 150.44 76.8094 150.648 78.1045C150.648 78.2716 150.586 78.3551 150.419 78.3551C149.234 78.5222 148.048 78.6684 146.862 78.7729C146.904 78.4596 146.82 78.2298 146.592 78.0627C146.529 77.4987 146.404 76.9556 146.259 76.4126C146.196 76.0575 146.03 75.8277 145.739 75.7233C144.802 75.3055 143.762 75.2011 142.618 75.4099C142.431 75.1593 142.181 75.1384 141.89 75.3264C141.495 76.141 141.058 76.9139 140.579 77.6658C139.165 77.9165 137.958 77.5196 136.939 76.4126C137.022 75.4726 137.23 74.5327 137.501 73.6345C136.564 72.7572 135.524 71.9844 134.401 71.2742C133.548 71.7128 132.695 72.1515 131.842 72.611C131.634 72.5901 131.447 72.5483 131.239 72.5274C130.448 71.7755 129.762 70.9191 129.2 70C129.866 69.1018 130.532 68.1828 131.197 67.2637C131.052 66.5953 130.781 66.0105 130.386 65.5092C130.386 64.8825 130.199 64.3394 129.824 63.859C128.826 63.7128 127.786 63.6502 126.704 63.671C126.537 63.2951 126.371 62.94 126.163 62.6267L126.038 60.2455C126.558 60.3081 126.953 60.1201 127.203 59.7024C127.744 59.3055 128.368 59.1175 129.075 59.1175C128.951 57.718 129.055 56.3603 129.346 55.0235C128.326 54.7102 127.349 54.2716 126.413 53.7494C126.683 52.6005 127.016 51.4517 127.432 50.3447C127.682 50.1985 127.952 50.1149 128.243 50.0522C129.263 50.2611 130.282 50.4073 131.239 50.4909C131.842 49.4674 132.508 48.4648 133.236 47.5039C132.653 46.6058 132.113 45.6658 131.655 44.705C132.487 43.6606 133.465 42.846 134.63 42.282H134.859C135.566 42.9504 136.252 43.6815 136.876 44.4334C137.189 44.6005 137.417 44.5379 137.584 44.2663C138.603 43.953 139.623 43.577 140.621 43.1384C140.787 41.9478 140.808 40.7363 140.663 39.5457C141.349 39.5875 141.973 39.4622 142.556 39.2115L142.701 39.2533Z" fill="#D83432"/>
<path fill-rule="evenodd" clip-rule="evenodd" d="M142.701 39.2532C142.14 39.5248 141.495 39.6292 140.808 39.5874C140.954 40.7989 140.933 41.9895 140.767 43.1801C139.747 43.6188 138.749 43.9947 137.729 44.3081C138.624 43.6814 139.643 43.2219 140.767 42.9504L140.58 39.3577L142.722 39.2532H142.701Z" fill="#B03D41"/>
<path fill-rule="evenodd" clip-rule="evenodd" d="M142.701 39.2533C143.2 39.0026 143.741 38.8773 144.345 38.919C144.719 40.0052 145.094 41.1123 145.468 42.2193C146.758 42.2193 148.027 42.3237 149.296 42.4909C148.568 42.6997 147.84 42.8877 147.07 43.0966C146.425 42.5535 145.759 42.4282 145.031 42.7206C145.385 43.2428 145.239 43.4517 144.594 43.3472C144.698 43.2428 144.781 43.1175 144.823 42.9713C144.012 42.6788 143.949 42.3655 144.657 42.0313C144.74 41.3838 144.74 40.7572 144.657 40.1097C143.492 40.2141 143.304 39.9843 144.137 39.4204C143.679 39.2115 143.2 39.1488 142.701 39.2533Z" fill="#C43738"/>
<path fill-rule="evenodd" clip-rule="evenodd" d="M154.226 40.8198C154.393 40.9869 154.476 41.2376 154.497 41.53C154.559 41.9686 154.413 42.3029 154.081 42.5117C154.226 41.9686 154.268 41.4047 154.226 40.8198Z" fill="#823A43"/>
<path fill-rule="evenodd" clip-rule="evenodd" d="M126.828 46.0836C127.203 46.4596 127.473 46.94 127.619 47.4831C127.161 47.6293 126.849 47.9217 126.704 48.3603C127.078 48.987 127.349 49.6554 127.515 50.3447C127.099 51.4517 126.766 52.6005 126.496 53.7494C126.329 53.9791 126.1 54.1462 125.809 54.2716C124.769 53.9582 123.729 53.812 122.689 53.8329C122.273 54.8982 121.836 55.9426 121.42 57.0079C122.377 57.7598 123.354 58.4491 124.394 59.1384C124.207 60.3499 124.02 61.5405 123.874 62.752L121.066 63.6084C120.941 64.8825 121.045 66.1567 121.378 67.4308C122.522 67.5353 123.687 67.6188 124.852 67.7233C125.497 68.8512 125.913 70.0209 126.1 71.2533L124.29 73.2585C124.145 73.5092 124.166 73.7389 124.332 73.9687C125.06 74.6998 125.684 75.5144 126.246 76.3917C126.496 76.5379 126.724 76.517 126.953 76.3499C127.681 75.8068 128.451 75.3264 129.262 74.9086C130.365 75.5979 131.447 76.329 132.487 77.1436C132.071 78.2507 131.925 79.3786 132.071 80.5274C133.173 81.1541 134.338 81.4465 135.587 81.4256C136.023 80.3812 136.648 79.5039 137.48 78.8146C138.624 79.1071 139.789 79.1906 140.954 79.1071C141.162 80.1515 141.453 81.175 141.827 82.1776C143.2 82.3656 144.49 82.1358 145.738 81.4883C145.801 80.3603 145.78 79.2533 145.676 78.1462L146.633 78.1045C146.862 78.2716 146.945 78.5013 146.903 78.8146C148.089 78.6893 149.275 78.5431 150.461 78.3969C150.877 78.564 151.272 78.7938 151.688 79.0444C152.583 78.3969 153.477 77.7076 154.33 76.9974C154.06 75.8695 153.727 74.7833 153.332 73.6971C153.768 73.3629 154.226 73.3421 154.767 73.6136C155.308 74.3656 156.015 74.8877 156.868 75.1802C158.116 74.6789 158.99 73.8225 159.489 72.6528C160.197 73.3212 160.862 74.0522 161.507 74.8251C161.84 74.9713 162.152 74.9504 162.464 74.7833C163.088 74.2611 163.775 73.8643 164.544 73.5927C165.377 74.0731 166.25 74.3447 167.207 74.4073C167.332 75.4726 167.582 76.4961 167.956 77.4778C168.289 77.6658 168.643 77.7285 169.038 77.6658L168.996 76.9556C169.329 77.3107 169.6 77.7285 169.787 78.2298C169.371 78.7311 168.913 79.1906 168.435 79.6084C168.455 79.3577 168.414 79.128 168.268 78.8982C167.686 78.2298 167.062 77.624 166.375 77.081C165.231 77.6867 164.253 78.4596 163.4 79.3995C163.567 79.6084 163.65 79.8381 163.671 80.1097C163.109 80.8408 162.547 81.5927 162.006 82.3447C161.819 83.1384 162.048 83.765 162.693 84.2246C162.256 84.3708 161.861 84.6423 161.549 84.9974C160.654 84.5588 159.76 84.141 158.865 83.7024C158.116 84.3499 157.471 85.1019 156.951 85.9582C156.743 86.2716 156.681 86.5849 156.764 86.9191C157.575 87.859 158.532 88.5274 159.614 88.9243C159.032 88.9243 158.636 89.175 158.47 89.6971C157.846 90.6789 157.43 91.7441 157.201 92.8721C156.202 92.8512 155.204 92.7259 154.205 92.5588C154.018 92.6423 153.81 92.7468 153.623 92.8303C153.394 93.5614 153.186 94.2924 153.02 95.0235C139.706 95.7546 126.371 96.423 113.036 96.987L112.662 96.6528C111.663 79.859 110.748 63.0444 109.916 46.2507C110.519 46.1045 111.101 45.9165 111.684 45.6867L113.931 47.7337C113.785 48.9243 113.681 50.1358 113.639 51.3473C114.617 51.8695 115.636 52.2872 116.697 52.6214C117.425 51.8486 118.008 50.9922 118.466 50.0105C119.651 49.7598 120.837 49.718 122.044 49.9478C122.481 50.9504 123.084 51.7859 123.854 52.4961C124.748 52.0157 125.684 51.6188 126.662 51.2637C126.787 50.1358 126.641 49.0287 126.246 47.9217C126.828 47.4622 127.036 46.8564 126.87 46.0836H126.828Z" fill="#2E3D4F"/>
<path fill-rule="evenodd" clip-rule="evenodd" d="M159.926 45.0601C159.261 45.248 158.637 45.5196 158.054 45.8747C158.512 45.1227 159.136 44.8512 159.926 45.0601Z" fill="#833740"/>
<path fill-rule="evenodd" clip-rule="evenodd" d="M134.734 42.3029C133.569 42.8877 132.591 43.7023 131.759 44.7258C132.217 45.6867 132.737 46.6266 133.34 47.5248C132.612 48.4856 131.946 49.4882 131.343 50.5117C130.365 50.4282 129.367 50.282 128.347 50.0731C128.056 50.1149 127.786 50.2193 127.536 50.3655C127.37 49.6553 127.099 49.0078 126.725 48.3812C126.87 47.9217 127.161 47.6292 127.64 47.5039C127.952 48.1096 128.41 48.5692 129.013 48.8616C129.887 48.4021 130.781 47.9425 131.697 47.5248C131.759 46.2924 131.697 45.1018 131.509 43.9321C132.154 43.3472 132.758 42.7206 133.319 42.0313C133.86 41.906 134.339 42.0104 134.775 42.3237L134.734 42.3029Z" fill="#25303F"/>
<path fill-rule="evenodd" clip-rule="evenodd" d="M147.735 49.3003C145.822 49.1331 143.908 49.2167 142.015 49.5927C142.888 49.1958 143.825 48.9869 144.844 48.966C145.863 48.8825 146.82 48.966 147.715 49.3003H147.735Z" fill="#53303B"/>
<path fill-rule="evenodd" clip-rule="evenodd" d="M147.736 49.3003C148.921 49.5927 150.066 50.0105 151.147 50.5535C151.73 51.2428 152.416 51.8486 153.145 52.3708C154.06 53.5823 154.767 54.8982 155.266 56.3394C155.599 58.5953 155.391 60.7467 154.642 62.8355C153.519 65.1958 151.772 66.8668 149.421 67.8903H148.942C152.084 60.6632 150.003 55.6292 142.66 52.7885C141.224 52.6632 139.768 52.5588 138.354 52.4125C139.331 51.1384 140.538 50.1984 142.015 49.5927C143.908 49.2167 145.801 49.1123 147.736 49.3003Z" fill="#1C2A3A"/>
<path fill-rule="evenodd" clip-rule="evenodd" d="M151.147 50.5535C152.042 50.9086 152.708 51.5144 153.145 52.3708C152.396 51.8486 151.73 51.2428 151.147 50.5535Z" fill="#A7383C"/>
<path fill-rule="evenodd" clip-rule="evenodd" d="M138.374 52.4125C139.81 52.5379 141.245 52.6632 142.681 52.7885C150.003 55.6084 152.104 60.6632 148.963 67.9112C148.88 68.0992 148.713 68.2245 148.505 68.2872C147.174 68.4752 145.822 68.5796 144.47 68.6214C140.725 68.0574 138.083 66.0313 136.523 62.564C136.46 62 136.336 61.4569 136.19 60.9138C136.107 59.953 136.086 58.9922 136.169 58.0313L136.398 57.7807C136.564 58.094 136.752 58.4073 136.918 58.7206C137.064 58.0313 137.23 57.342 137.417 56.6527C137.313 56.3812 137.23 56.1097 137.126 55.8381C136.981 56.235 136.856 56.6527 136.71 57.0496C136.627 56.8616 136.523 56.6527 136.44 56.4648C136.731 55.9008 136.856 55.295 136.814 54.6475C137.147 53.7702 137.667 53.0183 138.374 52.4125Z" fill="#2E3D4F"/>
<path fill-rule="evenodd" clip-rule="evenodd" d="M136.814 54.6684C136.856 55.3159 136.731 55.9217 136.44 56.4856C136.523 56.6736 136.627 56.8825 136.71 57.0705C136.856 56.6736 136.981 56.2559 137.126 55.859C137.23 56.1305 137.313 56.4021 137.417 56.6736C137.23 57.3629 137.085 58.0522 136.918 58.7415C136.752 58.4282 136.565 58.1149 136.398 57.8016L136.169 58.0522C136.107 59.013 136.107 59.9739 136.19 60.9347H135.961C135.857 59.6815 135.836 58.3864 135.878 57.1123C136.003 56.1932 136.315 55.3786 136.835 54.6684H136.814Z" fill="#463A49"/>
<path fill-rule="evenodd" clip-rule="evenodd" d="M163.941 58.0313C163.484 58.3864 162.943 58.5744 162.298 58.5953C162.756 58.2402 163.296 58.0522 163.941 58.0313Z" fill="#8F373E"/>
<path fill-rule="evenodd" clip-rule="evenodd" d="M127.286 59.7023C127.037 60.1201 126.642 60.3081 126.121 60.2454L126.246 62.6266C125.976 61.812 125.851 60.9347 125.872 60.0156C126.35 59.9112 126.808 59.8068 127.286 59.7023Z" fill="#AB393D"/>
<path fill-rule="evenodd" clip-rule="evenodd" d="M173.116 73.8433C172.783 72.9243 172.408 71.9843 172.013 71.0235C171.181 70.6266 170.328 70.2715 169.454 69.9582C168.705 70.3342 167.977 70.7311 167.249 71.1488C167.02 71.3159 166.792 71.3368 166.542 71.1906C165.564 70.3133 164.878 69.2689 164.462 68.0574C165.086 67.4308 165.731 66.846 166.396 66.282C166.376 65.2376 166.209 64.2141 165.876 63.1906L163.65 61.8747C163.38 61.6031 163.317 61.2898 163.484 60.9347C163.838 60.0574 164.233 59.201 164.67 58.3655C165.689 58.2611 166.688 58.4073 167.665 58.8042C168.435 58.3447 169.163 57.8225 169.85 57.2585C169.954 56.1306 170.058 55.0026 170.162 53.8956C171.389 53.436 172.658 53.248 173.948 53.3316C174.426 54.2507 174.759 55.2324 174.926 56.2768C175.903 56.8407 176.902 57.1332 177.963 57.1958C178.67 56.6945 179.398 56.2141 180.147 55.7546C181.083 56.6527 181.895 57.6345 182.56 58.7415C182.227 59.5353 181.707 60.2037 181 60.7467C180.771 61.8747 180.792 62.9817 181.063 64.0888C182.019 64.5483 182.893 65.1332 183.663 65.8642C183.268 66.8877 182.831 67.9112 182.394 68.9347C181.271 69.1854 180.189 69.0601 179.149 68.4961C178.483 69.1436 177.776 69.6867 176.964 70.1671C176.86 71.295 176.756 72.423 176.652 73.53C175.466 73.718 174.281 73.8225 173.095 73.8433H173.116Z" fill="#24B2C0"/>
<path fill-rule="evenodd" clip-rule="evenodd" d="M126.496 53.7702C127.432 54.3133 128.41 54.7311 129.429 55.0444C129.138 56.3603 129.055 57.7389 129.159 59.1384C128.451 59.1384 127.827 59.3264 127.286 59.7232C126.808 59.8277 126.35 59.9321 125.872 60.0365C125.851 60.9556 125.976 61.8329 126.246 62.6475C126.246 63.1488 126.33 63.6292 126.558 64.0679C127.557 64.3603 128.597 64.4856 129.679 64.5065C129.908 64.8825 130.178 65.2376 130.449 65.5509C130.844 66.0522 131.114 66.6371 131.26 67.3055C130.594 68.2245 129.908 69.1436 129.263 70.0418C129.824 70.9817 130.511 71.8172 131.301 72.5692C131.509 72.5901 131.697 72.6318 131.905 72.6527C132.758 72.1932 133.611 71.7546 134.464 71.3159C135.587 72.0052 136.627 72.7989 137.563 73.6762C137.272 74.5744 137.085 75.5143 137.002 76.4543C138.021 77.5405 139.227 77.9582 140.642 77.7076C141.121 76.9556 141.557 76.1827 141.953 75.3681C142.244 75.1801 142.473 75.201 142.681 75.4517C143.679 75.6606 144.719 75.765 145.801 75.765C146.092 75.8694 146.259 76.0992 146.321 76.4543C146.467 76.9974 146.571 77.5613 146.654 78.1044L145.697 78.1462C145.801 79.2532 145.822 80.3812 145.76 81.4882C144.532 82.1358 143.222 82.3655 141.849 82.1775C141.474 81.1749 141.183 80.1514 140.975 79.107C139.81 79.1906 138.645 79.107 137.501 78.8146C136.669 79.5039 136.045 80.3812 135.608 81.4256C134.38 81.4465 133.195 81.154 132.092 80.5274C131.946 79.3786 132.092 78.2506 132.508 77.1436C131.468 76.3498 130.407 75.5979 129.284 74.9086C128.472 75.3264 127.703 75.8068 126.974 76.3499C126.746 76.517 126.517 76.5378 126.267 76.3916C125.705 75.5143 125.081 74.7206 124.353 73.9686C124.187 73.7389 124.166 73.5091 124.312 73.2585L126.121 71.2532C125.934 70.0209 125.497 68.8512 124.873 67.7232C123.708 67.6188 122.543 67.5143 121.399 67.4308C121.046 66.1775 120.942 64.9034 121.087 63.6083L123.896 62.7519C124.062 61.5405 124.228 60.329 124.416 59.1384C123.375 58.47 122.398 57.7598 121.441 57.0078C121.857 55.9425 122.294 54.8773 122.71 53.8329C123.75 53.8329 124.79 53.9582 125.83 54.2715C126.121 54.1462 126.35 53.9791 126.517 53.7493L126.496 53.7702Z" fill="#1D2C3B"/>
<path fill-rule="evenodd" clip-rule="evenodd" d="M135.94 60.9348H136.169C136.315 61.4569 136.419 62.0209 136.502 62.5849C136.148 62.1254 135.961 61.5823 135.94 60.9348Z" fill="#A33C42"/>
<path fill-rule="evenodd" clip-rule="evenodd" d="M155.266 56.3185C155.474 57.1332 155.599 58.0104 155.641 58.9295C155.641 60.2245 155.537 61.5196 155.37 62.7728L154.663 62.8146C155.412 60.7259 155.62 58.5535 155.287 56.3185H155.266Z" fill="#B43638"/>
<path fill-rule="evenodd" clip-rule="evenodd" d="M162.298 58.5953C162.298 60.0574 162.464 61.4778 162.755 62.8773C162.256 62.8773 161.923 62.6684 161.757 62.2089C161.986 60.9765 162.152 59.765 162.277 58.5953H162.298Z" fill="#543642"/>
<path fill-rule="evenodd" clip-rule="evenodd" d="M177.297 62.3551C177.068 63.3159 176.507 64.0679 175.633 64.5901C175.591 65.3211 175.674 66.0313 175.862 66.7415C175.654 66.9504 175.425 67.1593 175.175 67.3681C174.197 67.6188 173.24 67.6188 172.304 67.389C172.471 65.5718 171.68 64.2559 169.954 63.4412C169.725 63.1697 169.621 62.8564 169.662 62.5013C170.557 60.1619 172.242 59.2219 174.759 59.7232C176.049 60.1619 176.881 61.0391 177.276 62.3551H177.297Z" fill="#1B2D3D"/>
<path fill-rule="evenodd" clip-rule="evenodd" d="M126.246 62.6475C126.433 62.9609 126.621 63.3159 126.787 63.6919C127.869 63.6919 128.909 63.7337 129.907 63.8799L126.579 64.047C126.35 63.6084 126.246 63.128 126.267 62.6266L126.246 62.6475Z" fill="#A63F44"/>
<path fill-rule="evenodd" clip-rule="evenodd" d="M126.558 64.0679L129.887 63.9008C130.261 64.3812 130.448 64.9243 130.448 65.5509C130.178 65.2376 129.907 64.9034 129.679 64.5065C128.576 64.5065 127.536 64.3603 126.558 64.0679Z" fill="#3A2632"/>
<path fill-rule="evenodd" clip-rule="evenodd" d="M169.662 62.5222C169.621 62.8773 169.704 63.1906 169.954 63.4621C171.68 64.2767 172.471 65.5927 172.304 67.4099C171.015 67.0339 170.141 66.1984 169.662 64.9034C169.434 64.0679 169.434 63.2741 169.662 62.5013V62.5222Z" fill="#2C4151"/>
<path fill-rule="evenodd" clip-rule="evenodd" d="M177.297 62.3551C177.609 63.0026 177.672 63.7337 177.526 64.5065C177.276 65.0914 176.985 65.6763 176.652 66.2193C176.465 66.5535 176.215 66.7206 175.841 66.7415C175.654 66.0313 175.57 65.3212 175.612 64.5901C176.507 64.0679 177.068 63.3159 177.276 62.3551H177.297Z" fill="#2C4456"/>
<path fill-rule="evenodd" clip-rule="evenodd" d="M148.942 67.9113H149.421C149.462 68.1201 149.379 68.329 149.213 68.4961C148.235 68.6841 147.236 68.8512 146.259 69.0183C145.593 69.081 144.99 68.9556 144.449 68.6423C145.801 68.6214 147.153 68.4961 148.485 68.3081C148.693 68.2246 148.859 68.0992 148.942 67.9321V67.9113Z" fill="#AC373C"/>
<path fill-rule="evenodd" clip-rule="evenodd" d="M161.092 67.2846C161.175 68.0992 161.237 68.893 161.341 69.6658C160.655 70.4595 159.947 71.2324 159.198 71.9426C158.782 71.3786 158.366 70.8146 157.909 70.2089C158.616 69.2898 159.282 68.329 159.906 67.3473C160.28 67.0757 160.676 67.0548 161.092 67.2846Z" fill="#303A4B"/>
<path fill-rule="evenodd" clip-rule="evenodd" d="M200.263 72.9034C200.513 77.5196 200.742 82.1358 200.992 86.752C195.021 80.3394 187.844 78.4386 179.46 81.0496C177.442 81.8642 175.674 83.034 174.156 84.5588C171.014 87.0444 169.038 90.2611 168.206 94.2089L160.592 94.6058C160.633 94.2507 160.55 93.9373 160.301 93.6658C159.51 93.3316 158.74 92.9765 157.971 92.5796C157.95 91.5979 158.096 90.6371 158.408 89.6762C158.595 89.1332 158.969 88.8825 159.552 88.9034C160.405 89.1958 161.278 89.3212 162.194 89.2376C162.506 87.8381 163.067 86.5222 163.9 85.3107C163.546 84.8512 163.13 84.4752 162.651 84.1828C161.986 83.7232 161.757 83.0966 161.965 82.3029C162.527 81.5509 163.088 80.799 163.629 80.0679C164.648 80.3812 165.626 80.799 166.562 81.342C167.186 80.7363 167.79 80.1514 168.372 79.5666C168.872 79.1488 169.308 78.6893 169.724 78.188C169.537 77.6867 169.288 77.2689 168.934 76.9138C168.747 76.3708 168.684 75.8068 168.726 75.2428C169.579 74.6371 170.411 74.0313 171.264 73.4256C172.096 74.1567 172.928 74.9086 173.76 75.6815C174.78 75.0757 175.841 74.5326 176.902 74.0731L177.609 74.0313L177.422 70.4386C178.67 70.1671 179.939 70.0209 181.208 70C181.541 70.8355 181.811 71.7128 182.061 72.5901C183.579 72.5901 185.077 72.423 186.575 72.1097C186.825 71.2324 187.012 70.3342 187.157 69.436C188.364 69.436 189.55 69.4987 190.736 69.6031L191.11 69.9373C191.276 70.9608 191.38 72.0052 191.38 73.0287C192.795 73.0287 194.126 73.342 195.375 74.0104C195.957 73.0914 196.644 72.2559 197.393 71.5039C198.35 71.8799 199.286 72.3185 200.201 72.799L200.263 72.9034Z" fill="#0D92A0"/>
<path fill-rule="evenodd" clip-rule="evenodd" d="M164.565 65.4256C164.461 66.3029 164.441 67.1802 164.461 68.0575C164.877 69.2481 165.564 70.2924 166.542 71.1906C166.791 71.3368 167.02 71.3159 167.249 71.1488C167.977 70.7102 168.705 70.3133 169.454 69.9582C170.328 70.2716 171.181 70.6266 172.013 71.0235C172.408 71.9843 172.783 72.9243 173.116 73.8434C174.385 73.9269 175.674 74.0313 176.943 74.1149C175.882 74.5744 174.821 75.1175 173.802 75.7232C172.97 74.9504 172.117 74.1984 171.306 73.4674C170.474 74.0731 169.621 74.6789 168.768 75.2846C168.726 75.8486 168.768 76.4125 168.976 76.9556L169.017 77.6658C168.622 77.7285 168.268 77.6658 167.936 77.4778C167.54 76.4752 167.291 75.4517 167.187 74.4073C166.23 74.3447 165.335 74.0731 164.524 73.5927C163.754 73.8642 163.068 74.2611 162.444 74.7833C162.131 74.9504 161.819 74.9713 161.487 74.8251C160.842 74.0522 160.176 73.3212 159.469 72.6528C159.448 72.3812 159.344 72.1514 159.198 71.9426C159.947 71.2324 160.654 70.4804 161.341 69.6658C161.258 68.893 161.175 68.0992 161.091 67.2846C161.653 67.2846 162.215 67.3473 162.776 67.4308C162.88 67.577 163.047 67.6397 163.255 67.6397C163.546 67.5561 163.692 67.389 163.713 67.1384C164.066 66.5953 164.357 66.0105 164.586 65.4256H164.565Z" fill="#1C2D3D"/>
<path fill-rule="evenodd" clip-rule="evenodd" d="M163.713 67.1384C163.713 67.389 163.546 67.577 163.255 67.6397C163.026 67.6397 162.88 67.577 162.776 67.4308C163.13 67.4308 163.442 67.3264 163.713 67.1384Z" fill="#973B40"/>
<path fill-rule="evenodd" clip-rule="evenodd" d="M142.66 75.4308C143.783 75.2219 144.823 75.3264 145.78 75.7441C144.698 75.7441 143.658 75.6397 142.66 75.4308Z" fill="#5E2A32"/>
<path fill-rule="evenodd" clip-rule="evenodd" d="M153.311 73.6763C153.727 74.7624 154.06 75.8486 154.309 76.9765C153.456 77.6867 152.583 78.376 151.667 79.0235C151.251 78.752 150.856 78.5431 150.44 78.376C150.606 78.376 150.669 78.2925 150.669 78.1254C150.773 76.9556 150.877 75.7442 150.96 74.5118C151.73 74.2402 152.52 73.9478 153.311 73.6763Z" fill="#1E2C3B"/>
<path fill-rule="evenodd" clip-rule="evenodd" d="M150.96 74.5117C150.877 75.7441 150.773 76.9347 150.669 78.1253C150.461 76.8303 150.544 75.6397 150.96 74.5117Z" fill="#863840"/>
<path fill-rule="evenodd" clip-rule="evenodd" d="M168.414 79.6083C167.811 80.1932 167.207 80.7781 166.604 81.3838C165.668 80.8407 164.69 80.4021 163.671 80.1097C163.65 79.859 163.546 79.6083 163.4 79.3995C164.253 78.4595 165.252 77.6867 166.375 77.0809C167.062 77.624 167.686 78.2298 168.268 78.8982C168.393 79.1279 168.456 79.3577 168.435 79.6083H168.414Z" fill="#192C3C"/>
<path fill-rule="evenodd" clip-rule="evenodd" d="M200.992 86.7519C201.117 88.5065 201.179 90.2611 201.137 92.0157L200.805 92.3916C199.619 92.5796 198.433 92.6841 197.247 92.705C194.023 87.2741 189.238 84.2036 182.935 83.5144C179.939 83.389 177.027 83.7441 174.156 84.5796C175.674 83.0548 177.443 81.8851 179.461 81.0705C187.844 78.4595 195.021 80.3603 200.992 86.7728V86.7519Z" fill="#192C3C"/>
<path fill-rule="evenodd" clip-rule="evenodd" d="M162.672 84.2036C163.151 84.4961 163.567 84.872 163.921 85.3316C163.088 86.5431 162.527 87.8381 162.215 89.2585C161.299 89.3211 160.426 89.2167 159.573 88.9243C158.491 88.5274 157.534 87.859 156.723 86.919C156.639 86.5848 156.702 86.2715 156.91 85.9582C157.43 85.1018 158.075 84.3499 158.824 83.7023C159.718 84.141 160.613 84.5587 161.507 84.9974C161.84 84.6423 162.215 84.3707 162.652 84.2245L162.672 84.2036Z" fill="#1B2D3D"/>
<path fill-rule="evenodd" clip-rule="evenodd" d="M197.247 92.705C187.573 93.2063 177.9 93.7285 168.227 94.2298C169.059 90.282 171.035 87.0653 174.176 84.5797C177.047 83.765 179.96 83.4099 182.955 83.5144C189.279 84.2246 194.043 87.2742 197.268 92.705H197.247Z" fill="#2D3D4F"/>
<path fill-rule="evenodd" clip-rule="evenodd" d="M158.429 89.6971C158.096 90.6371 157.95 91.6188 157.992 92.6005C158.741 92.9974 159.531 93.3525 160.322 93.6867C160.551 93.9582 160.655 94.2716 160.613 94.6266L152.999 95.0235C153.165 94.2924 153.353 93.5614 153.602 92.8303C153.79 92.7468 153.998 92.6423 154.185 92.5588C155.183 92.7468 156.182 92.8512 157.18 92.8721C157.409 91.7233 157.825 90.6789 158.449 89.6971H158.429Z" fill="#1A2B3A"/>
<path fill-rule="evenodd" clip-rule="evenodd" d="M201.616 94.3969V94.6266C191.069 95.1697 180.522 95.7337 169.974 96.2768L170.64 109.185L181.354 108.621L181.437 110.292H181.208C181.208 109.916 181.167 109.499 181.146 109.102C177.609 109.039 174.031 109.165 170.432 109.415L169.746 96.0261C180.376 95.4622 191.006 94.9191 201.637 94.3551L201.616 94.3969Z" fill="#ADDCE7"/>
<path fill-rule="evenodd" clip-rule="evenodd" d="M112.641 99.2846C123.188 98.7415 133.735 98.1775 144.283 97.6345L144.491 101.687L144.948 110.522H144.719C141.141 110.731 137.584 110.898 134.006 111.086C137.438 110.668 140.933 110.397 144.47 110.292L143.825 97.8642C133.403 98.4909 123.001 98.9504 112.641 99.2637V99.2846Z" fill="#44ADB7"/>
<path fill-rule="evenodd" clip-rule="evenodd" d="M144.282 97.6345C152.687 97.1958 161.091 96.7572 169.496 96.3185L169.704 100.141C161.299 100.517 152.895 101.039 144.49 101.708L144.282 97.6554V97.6345Z" fill="#536D6A"/>
<path fill-rule="evenodd" clip-rule="evenodd" d="M201.637 94.6266C191.214 95.4204 180.75 96.047 170.245 96.5065L170.89 108.935C174.426 108.663 177.921 108.559 181.374 108.621L170.661 109.185L169.995 96.2768L201.637 94.6266Z" fill="#2EA8B3"/>
<path fill-rule="evenodd" clip-rule="evenodd" d="M169.704 100.141L170.182 109.227L144.969 110.543L144.511 101.708C152.895 101.039 161.299 100.517 169.725 100.141H169.704Z" fill="#688987"/>
<path fill-rule="evenodd" clip-rule="evenodd" d="M208.273 112.005C212.329 124.559 216.323 137.112 220.255 149.708C220.422 150.292 220.442 150.836 220.338 151.379C188.967 144.674 157.596 137.969 126.246 131.264C124.603 130.825 123.001 130.386 121.399 129.969C137.605 124.496 153.873 119.17 170.203 113.99C170.515 113.885 170.827 113.802 171.139 113.697C174.468 112.507 177.838 111.358 181.229 110.292H181.457C188.26 108.078 195.063 105.843 201.865 103.587C202.739 103.379 203.592 103.337 204.486 103.441C205.09 103.692 205.547 104.11 205.859 104.695C206.629 107.159 207.441 109.603 208.273 112.005Z" fill="#D3D3D3"/>
<path fill-rule="evenodd" clip-rule="evenodd" d="M203.176 105.802C204.278 105.634 204.611 106.052 204.195 107.076C203.197 107.201 202.843 106.762 203.176 105.802Z" fill="#384656"/>
<path fill-rule="evenodd" clip-rule="evenodd" d="M134.006 111.107L144.719 110.543C141.287 110.961 137.792 111.232 134.255 111.337L134.464 115.389H134.235C134.151 113.969 134.089 112.527 134.006 111.107Z" fill="#A7D9E4"/>
<path fill-rule="evenodd" clip-rule="evenodd" d="M181.146 109.123L181.208 110.313C177.817 111.379 174.468 112.507 171.119 113.718V113.488C167.249 113.447 163.359 113.572 159.427 113.864C163.38 112.527 167.374 111.149 171.389 109.77C174.634 109.478 177.88 109.269 181.146 109.144V109.123Z" fill="#7AA5A4"/>
<path fill-rule="evenodd" clip-rule="evenodd" d="M144.719 110.543H144.948C141.578 111.191 138.083 111.525 134.505 111.567L134.692 115.159C142.951 114.721 151.189 114.303 159.448 113.864C163.38 113.572 167.27 113.446 171.118 113.488L134.463 115.41L134.255 111.358C137.792 111.253 141.287 110.982 144.719 110.564V110.543Z" fill="#EFF8FA"/>
<path fill-rule="evenodd" clip-rule="evenodd" d="M134.234 115.41H134.463C146.675 114.762 158.886 114.115 171.118 113.488V113.718C170.827 113.822 170.494 113.906 170.182 114.01C158.2 114.47 146.217 114.95 134.234 115.41Z" fill="#73B4BB"/>
<path fill-rule="evenodd" clip-rule="evenodd" d="M208.252 111.775C216.053 111.128 223.896 110.647 231.801 110.313C233.32 139.535 234.838 168.778 236.357 198H236.128C236.128 198 236.128 197.854 236.128 197.77C234.609 168.694 233.112 139.64 231.593 110.564C223.813 110.961 216.053 111.379 208.273 111.775H208.252Z" fill="#28A9B6"/>
<path fill-rule="evenodd" clip-rule="evenodd" d="M121.399 129.969C122.98 130.407 124.602 130.825 126.246 131.264C157.617 137.969 188.967 144.674 220.338 151.379C220.442 150.835 220.422 150.292 220.255 149.708C221.628 153.405 222.897 157.164 224.062 161.008C224.582 162.491 224.27 163.744 223.188 164.768C219.61 165.854 216.094 167.023 212.641 168.319C188.51 176.026 164.42 183.88 140.371 191.859C139.373 192.214 138.333 192.339 137.292 192.256C136.689 192.005 136.231 191.587 135.919 191.003C132.05 179.138 128.201 167.274 124.415 155.431C122.085 147.953 119.693 140.496 117.28 133.039C117.28 132.601 117.384 132.204 117.571 131.828C118.59 130.679 119.859 130.052 121.42 129.948L121.399 129.969Z" fill="#E5E6E6"/>
<path fill-rule="evenodd" clip-rule="evenodd" d="M120.109 132.914L121.295 132.851L121.357 134.042C120.192 134.355 119.776 133.979 120.109 132.914Z" fill="#324050"/>
<path fill-rule="evenodd" clip-rule="evenodd" d="M179.252 150.668L179.96 150.627C180.75 153.154 181.541 155.661 182.373 158.167C182.581 158.585 182.56 158.982 182.311 159.358C177.505 161.029 172.658 162.574 167.748 163.953C166.854 161.05 165.98 158.146 165.148 155.222C169.933 153.906 174.634 152.381 179.232 150.648L179.252 150.668Z" fill="#D6D7D7"/>
<path fill-rule="evenodd" clip-rule="evenodd" d="M176.735 152.715C177.193 152.632 177.567 152.757 177.838 153.133C177.9 152.695 178.046 152.611 178.295 152.862C178.899 154.7 179.523 156.559 180.126 158.397C179.897 158.501 179.71 158.71 179.564 159.024L178.379 159.086C177.588 159.504 176.777 159.859 175.924 160.172C175.653 160.11 175.445 159.963 175.3 159.734L174.613 160.486C174.343 159.922 174.197 160.026 174.156 160.757C174.072 160.611 173.989 160.444 173.885 160.298L173.199 161.05C172.699 160.987 172.242 161.175 171.805 161.593L171.555 161.363C170.973 161.593 170.39 161.864 169.808 162.178C168.892 160.214 168.268 158.167 167.936 156.037C168.019 156.266 168.123 156.496 168.206 156.747C168.248 155.681 168.83 155.159 169.912 155.222C170.016 156.162 170.12 156.162 170.265 155.222C170.536 155.786 170.682 155.681 170.723 154.95C171.014 155.514 171.118 155.431 171.077 154.7C171.389 154.637 171.68 154.7 171.93 154.888C171.992 154.721 172.075 154.554 172.138 154.407L173.324 154.345C174.447 153.76 175.57 153.217 176.694 152.736L176.735 152.715Z" fill="#C6C6C6"/>
<path fill-rule="evenodd" clip-rule="evenodd" d="M188.198 161.927C180.48 164.433 172.72 166.919 164.961 169.363C164.67 168.841 164.649 168.339 164.878 167.817C172.304 165.353 179.731 162.93 187.158 160.548C187.948 160.653 188.281 161.112 188.177 161.927H188.198Z" fill="#B5B4B4"/>
<path fill-rule="evenodd" clip-rule="evenodd" d="M188.198 161.927C189.197 164.872 190.195 167.859 191.173 170.867C191.381 171.285 191.36 171.681 191.11 172.057C183.663 174.585 176.195 177.05 168.705 179.452C168.31 179.389 168.061 179.159 167.957 178.762C167.02 175.587 166.022 172.454 164.961 169.342C172.72 166.898 180.48 164.413 188.198 161.906V161.927Z" fill="#D6D6D6"/>
<path fill-rule="evenodd" clip-rule="evenodd" d="M221.358 161.885C222.46 161.718 222.793 162.136 222.377 163.159C221.254 163.41 220.921 162.992 221.358 161.885Z" fill="#3D4A5A"/>
<path fill-rule="evenodd" clip-rule="evenodd" d="M179.44 167.901C181.541 167.504 182.206 168.277 181.457 170.198C179.46 170.846 177.463 171.514 175.466 172.183C173.968 171.744 173.719 170.909 174.738 169.697C176.319 169.091 177.879 168.486 179.419 167.901H179.44Z" fill="#B4B4B4"/>
<path fill-rule="evenodd" clip-rule="evenodd" d="M124.395 155.452C128.181 167.295 132.03 179.159 135.899 191.024C136.211 191.608 136.669 192.026 137.272 192.277C138.333 192.36 139.352 192.235 140.351 191.88C164.399 183.88 188.489 176.026 212.621 168.339C214.077 170.825 215.408 173.394 216.594 176.047C216.449 176.841 216.012 177.384 215.242 177.676C187.116 183.943 158.97 190.209 130.802 196.475C129.7 196.809 128.701 196.663 127.807 196.037C121.878 183.943 115.97 171.869 110.062 159.838C110.124 159.379 110.353 159.003 110.727 158.731C115.241 157.415 119.797 156.35 124.395 155.493V155.452Z" fill="#077B8A"/>
<path fill-rule="evenodd" clip-rule="evenodd" d="M138.291 188.976C139.394 188.809 139.726 189.227 139.31 190.251C138.312 190.376 137.958 189.937 138.291 188.976Z" fill="#364352"/>
</g>
<defs>
<clipPath id="clip0_55_2">
<rect width="129" height="168" fill="white" transform="translate(107.357 30)"/>
</clipPath>
</defs>
</svg>
