<svg width="344" height="241" viewBox="0 0 344 241" fill="none" xmlns="http://www.w3.org/2000/svg">
<rect x="0.137695" y="0.558594" width="343.438" height="239.623" rx="23" fill="white"/>
<path d="M174.595 15.8453L73.1489 154.861L169.118 224.895L270.565 85.8787L174.595 15.8453Z" fill="white"/>
<path d="M228.018 115.024L199.429 94.1629L201.159 91.79L229.748 112.651L228.018 115.024ZM200.928 93.9322L227.787 113.541L228.265 112.898L201.406 93.2895L200.928 93.9322Z" fill="#113744"/>
<path d="M208.903 141.24L180.314 120.379L182.044 118.006L210.633 138.867L208.903 141.24ZM181.797 120.148L208.656 139.757L209.134 139.115L182.275 119.506L181.797 120.148Z" fill="#113744"/>
<path d="M208.904 141.24L206.531 139.51L227.392 110.921L229.765 112.651L208.904 141.24ZM208.014 139.279L208.656 139.757L228.265 112.898L227.622 112.42L208.014 139.279Z" fill="#113744"/>
<path d="M189.113 113.294L186.74 111.564L201.175 91.79L203.548 93.5202L189.113 113.31V113.294ZM188.223 111.333L188.866 111.811L202.032 93.7674L201.389 93.2895L188.223 111.333Z" fill="#113744"/>
<path d="M192.112 118.072C192.062 114.167 189.344 112.14 189.294 112.124L188.668 112.997C188.866 113.145 193.595 116.721 189.146 123.922L190.052 124.482C191.601 121.978 192.128 119.835 192.095 118.072H192.112Z" fill="#113744"/>
<path d="M168.17 113.854L139.581 92.993L141.311 90.6202L169.9 111.481L168.17 113.854ZM141.064 92.7458L167.923 112.355L168.4 111.712L141.541 92.1032L141.064 92.7458Z" fill="#113744"/>
<path d="M149.039 140.07L120.45 119.209L122.18 116.836L150.769 137.698L149.039 140.07ZM121.933 118.962L148.792 138.571L149.27 137.928L122.411 118.319L121.933 118.962Z" fill="#113744"/>
<path d="M122.823 120.94L120.45 119.209L141.311 90.6202L143.684 92.3504L122.823 120.94ZM121.933 118.962L122.575 119.44L142.184 92.581L141.541 92.1032L121.933 118.962Z" fill="#113744"/>
<path d="M155.466 131.255L153.093 129.524L167.527 109.751L169.9 111.481L155.466 131.255ZM154.592 129.277L155.235 129.755L168.401 111.712L167.758 111.234L154.592 129.277Z" fill="#113744"/>
<path d="M154.164 128.964C154.164 128.964 148.331 124.795 142.168 132.013L142.975 132.705C148.479 126.262 153.324 129.673 153.521 129.821L154.164 128.964Z" fill="#113744"/>
<path d="M129.908 166.287L101.319 145.426L103.049 143.053L131.638 163.914L129.908 166.287ZM102.802 145.178L129.661 164.787L130.139 164.144L103.28 144.536L102.802 145.178Z" fill="#113744"/>
<path d="M103.692 147.156L101.319 145.426L122.18 116.82L124.553 118.55L103.692 147.139V147.156ZM102.802 145.178L103.444 145.656L123.053 118.797L122.411 118.319L102.802 145.178Z" fill="#113744"/>
<path d="M136.334 157.471L133.961 155.741L148.396 135.951L150.769 137.681L136.334 157.471ZM135.461 155.494L136.104 155.971L149.269 137.928L148.627 137.45L135.461 155.494Z" fill="#113744"/>
<path d="M135.033 155.181C135.033 155.181 129.199 150.995 123.037 158.229L123.844 158.921C129.348 152.478 134.192 155.889 134.39 156.037L135.033 155.181Z" fill="#113744"/>
<path d="M188.668 168.973L160.079 148.112L161.809 145.739L190.398 166.6L188.668 168.973ZM161.562 147.881L188.421 167.49L188.899 166.847L162.04 147.238L161.562 147.881Z" fill="#113744"/>
<path d="M169.537 195.189L140.948 174.328L142.678 171.955L171.268 192.816L169.537 195.189ZM142.431 174.097L169.29 193.706L169.768 193.063L142.909 173.455L142.431 174.097Z" fill="#113744"/>
<path d="M169.538 195.189L167.165 193.459L188.026 164.87L190.399 166.6L169.538 195.189ZM168.648 193.228L169.291 193.706L188.899 166.847L188.257 166.369L168.648 193.228Z" fill="#113744"/>
<path d="M149.747 167.242L147.375 165.512L161.809 145.722L164.182 147.452L149.747 167.242ZM148.858 165.282L149.5 165.759L162.666 147.716L162.023 147.238L148.858 165.282Z" fill="#113744"/>
<path d="M152.746 172.021C152.697 168.116 149.978 166.089 149.928 166.072L149.302 166.946C149.5 167.094 154.229 170.67 149.78 177.871L150.686 178.431C152.235 175.926 152.763 173.784 152.73 172.021H152.746Z" fill="#113744"/>
<path d="M189.772 167.457L187.399 165.726L207.156 138.637L209.529 140.367L189.772 167.457ZM188.882 165.496L189.525 165.974L208.03 140.614L207.387 140.136L188.882 165.496Z" fill="#113744"/>
<path d="M169.785 139.79L167.412 138.06L182.044 118.006L184.417 119.737L169.785 139.79ZM168.912 137.813L169.554 138.291L182.918 119.984L182.275 119.506L168.912 137.829V137.813Z" fill="#113744"/>
<path d="M186.971 162.53L183.264 159.827L189.641 151.078L193.348 153.78L186.971 162.53ZM184.763 159.597L186.741 161.047L191.865 154.027L189.888 152.577L184.763 159.597Z" fill="#113744"/>
<path d="M187.317 156.087C186.461 157.257 185.192 158.031 183.758 158.262C182.325 158.493 180.891 158.13 179.705 157.29C177.282 155.527 176.755 152.116 178.518 149.693C180.281 147.271 183.692 146.727 186.115 148.507C187.548 149.562 188.323 151.176 188.339 152.841C188.339 153.978 188.01 155.131 187.301 156.12L187.317 156.087ZM179.408 150.303C177.991 152.247 178.419 154.983 180.364 156.4C181.303 157.092 182.456 157.372 183.61 157.191C184.763 157.01 185.769 156.4 186.461 155.444C187.878 153.5 187.449 150.748 185.505 149.331C183.56 147.914 180.825 148.342 179.392 150.287L179.408 150.303Z" fill="#113744"/>
<path d="M186.081 155.181C184.812 156.911 182.374 157.306 180.627 156.037C178.897 154.769 178.501 152.33 179.77 150.583C181.039 148.837 183.478 148.458 185.224 149.726C186.263 150.484 186.806 151.638 186.823 152.824C186.823 153.632 186.592 154.456 186.081 155.164V155.181ZM180.644 151.209C179.721 152.462 180.001 154.241 181.27 155.164C182.522 156.087 184.302 155.807 185.224 154.554C186.147 153.286 185.867 151.522 184.615 150.6C183.362 149.677 181.583 149.957 180.66 151.226L180.644 151.209Z" fill="#113744"/>
<path d="M197.286 153.978L171.712 135.325L173.162 133.331L198.736 151.984L197.286 153.978ZM173.212 135.078L197.055 152.478L197.253 152.215L173.41 134.814L173.212 135.078Z" fill="#113744"/>
<path d="M183.658 129.689C183.032 130.546 181.829 130.744 180.956 130.101C180.099 129.475 179.901 128.272 180.528 127.399C181.154 126.542 182.373 126.344 183.23 126.97C183.741 127.349 184.021 127.926 184.021 128.503C184.021 128.898 183.906 129.31 183.658 129.656V129.689ZM181.599 129.244C181.978 129.525 182.521 129.442 182.802 129.063C183.082 128.684 182.999 128.14 182.62 127.86C182.241 127.58 181.698 127.663 181.417 128.042C181.137 128.421 181.22 128.964 181.615 129.244H181.599Z" fill="#113744"/>
<path d="M173.937 154.867L173.574 155.362L165.269 149.298L164.874 148.919L165.187 148.491C166.703 146.414 169.372 145.772 171.136 147.057L173.475 148.771C174.349 149.413 174.86 150.402 174.942 151.572C174.942 151.638 174.942 151.72 174.942 151.786C174.942 152.857 174.596 153.945 173.92 154.867H173.937ZM173.311 153.846C173.723 153.154 173.92 152.379 173.871 151.621C173.822 150.764 173.459 150.056 172.849 149.611L170.509 147.897C169.323 147.04 167.543 147.419 166.341 148.738L173.311 153.829V153.846Z" fill="#113744"/>
<path d="M240.673 97.6891L172.503 47.9588L174.234 45.586L242.403 95.3163L240.673 97.6891ZM174.003 47.7281L240.442 96.2061L240.92 95.5635L174.481 47.0855L174.003 47.7281Z" fill="#113744"/>
<path d="M142.003 94.7561L139.63 93.0259L174.25 45.586L176.623 47.3162L142.003 94.7561ZM141.13 92.7952L141.772 93.2731L175.124 47.5633L174.481 47.0855L141.13 92.7952Z" fill="#113744"/>
<path d="M228.017 115.024L225.645 113.294L229.138 108.499L231.511 110.229L228.017 115.024ZM227.144 113.063L227.787 113.541L230.028 110.476L229.385 109.998L227.144 113.063Z" fill="#113744"/>
<path d="M170.048 97.1783C167.362 100.853 162.188 101.677 158.497 98.9909C154.822 96.305 153.999 91.1309 156.701 87.4399C159.387 83.7653 164.561 82.9414 168.252 85.6273C170.032 86.9291 171.201 88.8405 171.548 91.0321C171.613 91.4275 171.646 91.823 171.646 92.2185C171.663 93.9981 171.119 95.7118 170.065 97.1783H170.048ZM157.558 88.066C155.218 91.2792 155.926 95.7777 159.123 98.1176C162.32 100.457 166.835 99.7489 169.175 96.5522C170.312 95.0032 170.773 93.0918 170.476 91.1968C170.18 89.3019 169.158 87.6211 167.609 86.5006C164.413 84.1608 159.898 84.8693 157.558 88.066Z" fill="#113744"/>
<path d="M171.036 85.5284C170.41 86.3688 168.993 86.3523 167.79 85.4625C167.246 85.067 166.835 84.5562 166.62 84.0289C166.373 83.4192 166.423 82.826 166.736 82.3811C167.049 81.9362 167.609 81.722 168.268 81.7714C168.845 81.8044 169.455 82.0516 169.998 82.447C170.839 83.0567 171.317 83.8971 171.317 84.6221C171.317 84.9517 171.234 85.2648 171.036 85.5119V85.5284ZM167.625 83.6499C167.757 83.996 168.054 84.342 168.433 84.6221C169.174 85.1659 169.965 85.2153 170.18 84.9187C170.394 84.6056 170.097 83.8641 169.372 83.3368C168.993 83.0567 168.581 82.8919 168.202 82.8755C167.922 82.859 167.708 82.9249 167.609 83.0567C167.609 83.0567 167.543 83.205 167.543 83.3204C167.543 83.4357 167.576 83.5511 167.625 83.6829V83.6499Z" fill="#113744"/>
<path d="M159.568 101.265C158.941 102.105 157.524 102.089 156.322 101.199C155.778 100.803 155.366 100.293 155.152 99.7653C154.904 99.1557 154.954 98.5625 155.267 98.1175C155.893 97.2772 157.31 97.2937 158.513 98.167C159.353 98.7767 159.831 99.617 159.831 100.342C159.831 100.672 159.749 100.985 159.551 101.248L159.568 101.265ZM156.157 99.3699C156.289 99.7159 156.585 100.062 156.964 100.342C157.689 100.869 158.497 100.935 158.711 100.639C158.941 100.326 158.628 99.5841 157.903 99.0568C157.162 98.513 156.371 98.4636 156.157 98.7767C156.157 98.7767 156.091 98.925 156.091 99.0238C156.091 99.1227 156.124 99.2545 156.173 99.3863L156.157 99.3699Z" fill="#113744"/>
<path d="M173.014 99.3534C172.141 100.556 170.79 101.018 169.933 100.408C169.504 100.095 169.274 99.5346 169.323 98.8755C169.356 98.2988 169.603 97.6891 169.999 97.1453C170.872 95.9424 172.223 95.481 173.08 96.1072C173.492 96.4038 173.69 96.8817 173.706 97.4419C173.706 98.0516 173.492 98.7272 173.031 99.3534H173.014ZM170.575 99.5346C170.872 99.7488 171.613 99.4522 172.157 98.7272C172.685 97.9857 172.75 97.1948 172.454 96.9805C172.141 96.7663 171.416 97.0629 170.872 97.788C170.592 98.1669 170.427 98.5789 170.411 98.9579C170.411 98.9908 170.411 99.0403 170.411 99.0732C170.411 99.3039 170.476 99.4687 170.592 99.5511L170.575 99.5346Z" fill="#113744"/>
<path d="M157.69 85.9404C157.657 86.5171 157.409 87.1268 157.014 87.6705C156.141 88.8734 154.789 89.3348 153.933 88.7251C153.092 88.099 153.109 86.6819 153.999 85.479C154.394 84.9352 154.905 84.5233 155.432 84.3091C156.042 84.0619 156.635 84.1113 157.08 84.4244C157.475 84.7045 157.69 85.1824 157.706 85.7591C157.706 85.825 157.706 85.8909 157.706 85.9568L157.69 85.9404ZM154.559 87.8518C154.872 88.066 155.597 87.7694 156.141 87.0444C156.421 86.6654 156.586 86.2534 156.602 85.8745C156.619 85.5943 156.553 85.3801 156.421 85.2812C156.289 85.1824 156.058 85.1824 155.811 85.2812C155.465 85.4131 155.119 85.7097 154.839 86.0887C154.509 86.5336 154.361 87.0114 154.361 87.3739C154.361 87.5882 154.427 87.7694 154.542 87.8518H154.559Z" fill="#113744"/>
<path d="M189.706 70.6818C188.124 72.8569 185.043 73.3348 182.868 71.7529L171.696 63.5963C170.641 62.8219 169.949 61.6849 169.752 60.3996C169.554 59.1144 169.867 57.8126 170.641 56.758C172.24 54.5829 175.305 54.1051 177.48 55.687L188.652 63.8435C189.706 64.618 190.398 65.755 190.596 67.0402C190.629 67.2709 190.646 67.5016 190.662 67.7488C190.662 68.8034 190.349 69.825 189.723 70.6818H189.706ZM171.498 57.3842C170.905 58.2081 170.658 59.2132 170.806 60.2184C170.971 61.2235 171.498 62.1133 172.322 62.723L183.494 70.8796C185.191 72.1154 187.597 71.7529 188.833 70.0392C189.443 69.2153 189.673 68.2102 189.525 67.1885C189.36 66.1834 188.833 65.2936 188.009 64.7004L176.837 56.5438C175.14 55.308 172.734 55.6705 171.498 57.3842Z" fill="#113744"/>
<path d="M193.479 66.4306C192.886 67.2545 191.683 67.4028 190.81 66.7601L174.464 54.8301C174.052 54.5335 173.755 54.0886 173.656 53.5943C173.557 53.0835 173.656 52.5891 173.953 52.1772C174.546 51.3533 175.749 51.205 176.622 51.8476L192.968 63.7776C193.38 64.0742 193.677 64.5192 193.776 65.0135C193.792 65.1288 193.809 65.2442 193.809 65.376C193.809 65.755 193.693 66.134 193.479 66.4306ZM174.711 53.3801C174.76 53.6108 174.892 53.8085 175.09 53.9568L191.436 65.8868C191.831 66.1834 192.359 66.134 192.622 65.7879C192.738 65.6232 192.771 65.4254 192.738 65.2112C192.688 64.9805 192.556 64.7828 192.359 64.6345L176.013 52.7045C175.617 52.4079 175.09 52.4573 174.843 52.8034C174.76 52.9187 174.711 53.067 174.711 53.2318C174.711 53.2812 174.711 53.3307 174.711 53.3801Z" fill="#113744"/>
<path d="M183.033 79.9095C182.259 80.964 181.122 81.6561 179.837 81.8538C178.551 82.0516 177.25 81.7385 176.195 80.9805L165.023 72.824C162.848 71.2421 162.37 68.1607 163.952 65.9856C165.55 63.8105 168.615 63.3327 170.79 64.9146L181.962 73.0711C183.017 73.8456 183.709 74.9826 183.907 76.2678C183.94 76.4985 183.956 76.7292 183.973 76.9764C183.973 78.031 183.659 79.0526 183.033 79.9095ZM165.649 71.9671L176.821 80.1237C177.645 80.7333 178.65 80.964 179.655 80.8157C180.66 80.651 181.55 80.1237 182.143 79.2998C182.753 78.4759 182.984 77.4707 182.836 76.4656C182.671 75.4604 182.143 74.5706 181.32 73.9774L170.148 65.8208C168.45 64.585 166.045 64.9475 164.809 66.6612C164.298 67.3533 164.067 68.1607 164.084 68.9516C164.084 70.1216 164.644 71.2586 165.649 72.0001V71.9671Z" fill="#113744"/>
<path d="M179.688 84.4904C179.094 85.3143 177.892 85.4626 177.018 84.82L160.672 72.89C160.26 72.5934 159.964 72.1485 159.865 71.6541C159.766 71.1433 159.865 70.649 160.161 70.237C160.755 69.4131 161.957 69.2648 162.831 69.9075L179.177 81.8375C179.721 82.2329 180.001 82.8261 180.017 83.4193C180.017 83.7983 179.918 84.1608 179.688 84.4739V84.4904ZM160.919 71.4399C160.969 71.6706 161.101 71.8683 161.298 72.0166L177.644 83.9466C178.04 84.2432 178.567 84.1938 178.814 83.8478C179.061 83.5017 178.946 82.9909 178.551 82.6943L162.205 70.7643C161.809 70.4677 161.282 70.5171 161.018 70.8632C160.936 70.9785 160.886 71.1268 160.886 71.2751C160.886 71.3246 160.886 71.374 160.903 71.4234L160.919 71.4399Z" fill="#113744"/>
<path d="M230.786 109.702C230.407 109.421 221.607 102.814 229.813 89.5161L228.907 88.9559C220.157 103.127 230.061 110.492 230.16 110.575L230.786 109.702Z" fill="#113744"/>
<path d="M168.417 218.027L168.104 218.456L79.6013 153.879L175.618 22.2698L263.692 86.5337L264.121 86.8467L168.417 218.011V218.027ZM81.1008 153.632L167.873 216.956L262.638 87.0939L175.849 23.7693L81.1008 153.632Z" fill="#113744"/>
<path d="M168.598 212.754L168.302 213.166L84.5776 152.066L175.124 27.9712L175.42 27.5592L258.749 88.3627L259.161 88.6593L168.615 212.754H168.598ZM85.9947 151.852L168.088 211.749L257.744 88.89L175.635 28.9763L85.9947 151.852Z" fill="#113744"/>
<path d="M240.705 23.9177L127.255 39.9671L141.525 140.746L240.705 23.9177ZM147.539 54.7643L195.061 48.0413L153.521 96.9642L147.556 54.7643H147.539Z" fill="#5797D1"/>
<path d="M240.705 23.9177L127.255 39.9671L141.525 140.746L240.705 23.9177ZM136.515 47.8765L216.17 36.6056L146.534 118.633L136.515 47.8765Z" fill="#5797D1"/>
<g style="mix-blend-mode:multiply">
<path d="M131.523 48.1909L128.472 48.6208L128.538 49.094L131.59 48.6641L131.523 48.1909Z" fill="#949494"/>
<path d="M132.539 43.6318L127.856 44.2875L127.922 44.7608L132.606 44.1051L132.539 43.6318Z" fill="#949494"/>
<path d="M133.771 52.2713L129.088 52.9344L129.155 53.4075L133.838 52.7445L133.771 52.2713Z" fill="#949494"/>
<path d="M130.58 45.0035L128.002 45.3677L128.069 45.8408L130.647 45.4767L130.58 45.0035Z" fill="#949494"/>
<path d="M130.749 46.0928L128.172 46.461L128.239 46.9341L130.817 46.5659L130.749 46.0928Z" fill="#949494"/>
<path d="M130.9 47.2022L128.322 47.5681L128.389 48.0412L130.967 47.6753L130.9 47.2022Z" fill="#949494"/>
<path d="M131.201 49.3034L128.623 49.6684L128.69 50.1415L131.268 49.7765L131.201 49.3034Z" fill="#949494"/>
<path d="M131.424 50.892L131.358 50.4141L128.787 50.7766L128.853 51.2545L131.424 50.892Z" fill="#949494"/>
<path d="M131.514 51.5171L128.937 51.8812L129.003 52.3544L131.581 51.9902L131.514 51.5171Z" fill="#949494"/>
<path d="M130.298 39.5371L127.247 39.9676L127.313 40.4408L130.364 40.0103L130.298 39.5371Z" fill="#949494"/>
<path d="M132.539 43.6318L127.856 44.2875L127.922 44.7608L132.606 44.1051L132.539 43.6318Z" fill="#949494"/>
<path d="M129.981 40.6692L127.404 41.0361L127.471 41.5092L130.049 41.1423L129.981 40.6692Z" fill="#949494"/>
<path d="M130.204 42.2411L130.138 41.7632L127.551 42.1422L127.617 42.6036L130.204 42.2411Z" fill="#949494"/>
<path d="M130.283 42.8581L127.706 43.2222L127.772 43.6954L130.35 43.3313L130.283 42.8581Z" fill="#949494"/>
<path d="M132.76 56.8707L129.709 57.2996L129.775 57.7728L132.827 57.3439L132.76 56.8707Z" fill="#949494"/>
<path d="M134.988 60.9806L130.306 61.647L130.373 62.1201L135.055 61.4537L134.988 60.9806Z" fill="#949494"/>
<path d="M131.826 53.7037L129.249 54.0688L129.316 54.5419L131.893 54.1769L131.826 53.7037Z" fill="#949494"/>
<path d="M131.974 54.7867L129.396 55.1526L129.463 55.6258L132.041 55.2598L131.974 54.7867Z" fill="#949494"/>
<path d="M132.127 55.9054L129.55 56.2727L129.617 56.7458L132.195 56.3785L132.127 55.9054Z" fill="#949494"/>
<path d="M132.432 58.0056L129.854 58.3661L129.92 58.8394L132.499 58.4789L132.432 58.0056Z" fill="#949494"/>
<path d="M132.579 59.1298L130.001 59.4949L130.068 59.968L132.646 59.603L132.579 59.1298Z" fill="#949494"/>
<path d="M132.746 60.2166L130.168 60.5816L130.235 61.0547L132.813 60.6897L132.746 60.2166Z" fill="#949494"/>
<path d="M133.979 65.5712L130.929 66.0065L130.996 66.4795L134.047 66.0443L133.979 65.5712Z" fill="#949494"/>
<path d="M136.302 70.1547L136.236 69.6768L131.54 70.3359L131.622 70.8138L136.302 70.1547Z" fill="#949494"/>
<path d="M133.053 62.3904L130.476 62.7568L130.543 63.2299L133.12 62.8635L133.053 62.3904Z" fill="#949494"/>
<path d="M133.201 63.4906L130.623 63.8566L130.69 64.3297L133.268 63.9637L133.201 63.4906Z" fill="#949494"/>
<path d="M133.363 64.6062L130.786 64.9748L130.853 65.4478L133.431 65.0792L133.363 64.6062Z" fill="#949494"/>
<path d="M133.668 66.7132L131.09 67.0814L131.158 67.5545L133.735 67.1863L133.668 66.7132Z" fill="#949494"/>
<path d="M133.806 67.797L131.228 68.1584L131.294 68.6317L133.873 68.2702L133.806 67.797Z" fill="#949494"/>
<path d="M133.98 68.9073L131.402 69.271L131.469 69.7442L134.047 69.3805L133.98 68.9073Z" fill="#949494"/>
<path d="M135.218 74.2763L132.167 74.7078L132.234 75.1809L135.285 74.7494L135.218 74.2763Z" fill="#949494"/>
<path d="M137.46 78.3628L132.778 79.0275L132.845 79.5006L137.527 78.8359L137.46 78.3628Z" fill="#949494"/>
<path d="M134.282 71.0889L131.705 71.4562L131.772 71.9293L134.349 71.562L134.282 71.0889Z" fill="#949494"/>
<path d="M134.444 72.2005L131.866 72.5638L131.933 73.037L134.511 72.6737L134.444 72.2005Z" fill="#949494"/>
<path d="M134.654 73.7798L134.588 73.3019L132.018 73.6645L132.083 74.1423L134.654 73.7798Z" fill="#949494"/>
<path d="M134.894 75.4229L132.314 75.7781L132.38 76.2515L134.959 75.8963L134.894 75.4229Z" fill="#949494"/>
<path d="M135.055 76.5058L132.477 76.8691L132.543 77.3423L135.121 76.979L135.055 76.5058Z" fill="#949494"/>
<path d="M135.2 77.5991L132.622 77.9628L132.688 78.436L135.266 78.0723L135.2 77.5991Z" fill="#949494"/>
<path d="M136.442 82.9833L133.391 83.4106L133.457 83.8838L136.508 83.4566L136.442 82.9833Z" fill="#949494"/>
<path d="M138.694 87.0554L134.011 87.7168L134.078 88.19L138.761 87.5285L138.694 87.0554Z" fill="#949494"/>
<path d="M135.522 79.7832L132.944 80.1478L133.011 80.6209L135.589 80.2563L135.522 79.7832Z" fill="#949494"/>
<path d="M135.741 81.3761L135.675 80.8983L133.088 81.2608L133.154 81.7386L135.741 81.3761Z" fill="#949494"/>
<path d="M135.819 81.9957L133.241 82.3608L133.308 82.8339L135.886 82.4689L135.819 81.9957Z" fill="#949494"/>
<path d="M136.186 84.5728L136.12 84.095L133.549 84.474L133.615 84.9353L136.186 84.5728Z" fill="#949494"/>
<path d="M136.351 85.6768L136.285 85.199L133.698 85.5615L133.764 86.0393L136.351 85.6768Z" fill="#949494"/>
<path d="M136.433 86.3065L133.856 86.6742L133.923 87.1473L136.501 86.7795L136.433 86.3065Z" fill="#949494"/>
<path d="M137.686 91.677L134.635 92.1096L134.702 92.5827L137.753 92.1502L137.686 91.677Z" fill="#949494"/>
<path d="M139.919 95.7581L135.236 96.4187L135.303 96.8919L139.985 96.2313L139.919 95.7581Z" fill="#949494"/>
<path d="M136.74 88.4977L134.163 88.8655L134.23 89.3385L136.807 88.9708L136.74 88.4977Z" fill="#949494"/>
<path d="M136.961 90.06L136.895 89.5822L134.324 89.9447L134.39 90.4225L136.961 90.06Z" fill="#949494"/>
<path d="M137.058 90.6954L134.479 91.0577L134.546 91.5309L137.124 91.1686L137.058 90.6954Z" fill="#949494"/>
<path d="M137.422 93.2732L137.356 92.7953L134.785 93.1579L134.851 93.6357L137.422 93.2732Z" fill="#949494"/>
<path d="M137.503 93.8916L134.925 94.2552L134.992 94.7284L137.57 94.3647L137.503 93.8916Z" fill="#949494"/>
<path d="M137.679 94.9985L135.102 95.3649L135.169 95.838L137.746 95.4716L137.679 94.9985Z" fill="#949494"/>
<path d="M138.913 100.364L135.862 100.796L135.929 101.27L138.98 100.838L138.913 100.364Z" fill="#949494"/>
<path d="M141.148 104.45L136.467 105.122L136.535 105.595L141.216 104.923L141.148 104.45Z" fill="#949494"/>
<path d="M137.969 97.1763L135.391 97.5404L135.458 98.0136L138.036 97.6494L137.969 97.1763Z" fill="#949494"/>
<path d="M138.13 98.2894L135.552 98.6526L135.618 99.1258L138.196 98.7626L138.13 98.2894Z" fill="#949494"/>
<path d="M138.283 99.3905L135.706 99.7578L135.773 100.231L138.35 99.8635L138.283 99.3905Z" fill="#949494"/>
<path d="M138.59 101.489L136.012 101.852L136.079 102.326L138.657 101.962L138.59 101.489Z" fill="#949494"/>
<path d="M138.747 102.59L136.169 102.955L136.236 103.428L138.814 103.063L138.747 102.59Z" fill="#949494"/>
<path d="M138.887 103.69L136.309 104.054L136.376 104.527L138.954 104.163L138.887 103.69Z" fill="#949494"/>
<path d="M140.134 109.067L137.083 109.496L137.149 109.969L140.201 109.541L140.134 109.067Z" fill="#949494"/>
<path d="M142.38 113.152L137.698 113.818L137.765 114.292L142.447 113.625L142.38 113.152Z" fill="#949494"/>
<path d="M139.267 106.357L139.201 105.879L136.631 106.241L136.697 106.719L139.267 106.357Z" fill="#949494"/>
<path d="M139.372 106.987L136.793 107.349L136.86 107.823L139.438 107.461L139.372 106.987Z" fill="#949494"/>
<path d="M139.521 108.085L136.943 108.451L137.01 108.924L139.588 108.558L139.521 108.085Z" fill="#949494"/>
<path d="M139.809 110.198L137.23 110.561L137.297 111.034L139.875 110.671L139.809 110.198Z" fill="#949494"/>
<path d="M139.978 111.28L137.4 111.642L137.466 112.115L140.045 111.753L139.978 111.28Z" fill="#949494"/>
<path d="M140.124 112.381L137.546 112.746L137.613 113.219L140.191 112.855L140.124 112.381Z" fill="#949494"/>
<path d="M141.442 118.237L141.376 117.759L138.328 118.188L138.394 118.666L141.442 118.237Z" fill="#949494"/>
<path d="M143.608 121.842L138.925 122.501L138.992 122.974L143.675 122.315L143.608 121.842Z" fill="#949494"/>
<path d="M140.444 114.573L137.866 114.938L137.933 115.411L140.51 115.047L140.444 114.573Z" fill="#949494"/>
<path d="M140.578 115.686L138 116.052L138.068 116.525L140.645 116.159L140.578 115.686Z" fill="#949494"/>
<path d="M140.763 116.768L138.186 117.133L138.253 117.606L140.83 117.241L140.763 116.768Z" fill="#949494"/>
<path d="M141.056 118.88L138.478 119.245L138.545 119.719L141.123 119.354L141.056 118.88Z" fill="#949494"/>
<path d="M141.21 119.976L138.632 120.336L138.698 120.809L141.276 120.449L141.21 119.976Z" fill="#949494"/>
<path d="M141.426 121.566L141.36 121.088L138.79 121.45L138.855 121.928L141.426 121.566Z" fill="#949494"/>
<path d="M142.6 126.461L139.549 126.892L139.616 127.365L142.667 126.934L142.6 126.461Z" fill="#949494"/>
<path d="M144.848 130.538L140.166 131.2L140.232 131.673L144.915 131.011L144.848 130.538Z" fill="#949494"/>
<path d="M141.667 123.281L139.089 123.646L139.156 124.119L141.734 123.754L141.667 123.281Z" fill="#949494"/>
<path d="M141.836 124.384L139.258 124.749L139.325 125.222L141.903 124.857L141.836 124.384Z" fill="#949494"/>
<path d="M141.99 125.478L139.412 125.845L139.479 126.318L142.057 125.951L141.99 125.478Z" fill="#949494"/>
<path d="M142.288 127.589L139.71 127.951L139.776 128.424L142.355 128.062L142.288 127.589Z" fill="#949494"/>
<path d="M142.497 129.162L142.431 128.684L139.86 129.047L139.926 129.525L142.497 129.162Z" fill="#949494"/>
<path d="M142.661 130.266L142.595 129.788L140.008 130.151L140.074 130.629L142.661 130.266Z" fill="#949494"/>
<path d="M142.9 131.964L140.322 132.332L140.378 132.723L142.956 132.356L142.9 131.964Z" fill="#949494"/>
<path d="M135.906 43.5429L133.632 43.856L133.599 43.6253C133.599 43.6253 133.731 43.5265 133.764 43.4441C133.813 43.3617 133.83 43.2793 133.83 43.1969L134.061 43.1639L134.093 43.4605L135.84 43.2134L135.89 43.5594L135.906 43.5429Z" fill="#949494"/>
<path d="M135.477 51.8147L135.527 52.1443H135.444C135.444 52.1443 135.346 52.1772 135.313 52.1937C135.214 52.2432 135.164 52.3255 135.181 52.4244C135.181 52.4903 135.23 52.5398 135.28 52.5727C135.329 52.6057 135.395 52.6221 135.461 52.6057C135.543 52.6057 135.626 52.5562 135.725 52.5068C135.84 52.4409 135.955 52.342 136.087 52.2102C136.235 52.0784 136.334 51.9795 136.4 51.9136L136.516 51.7983C136.516 51.7983 136.581 51.7323 136.614 51.6994C136.68 51.6335 136.73 51.6005 136.73 51.6005L137.043 51.5511L137.191 52.6386L136.862 52.6881L136.763 52.0125C136.763 52.0125 136.763 52.0125 136.73 52.0289C136.697 52.0619 136.647 52.0949 136.598 52.1443L136.516 52.2267C136.417 52.3091 136.334 52.375 136.285 52.4244C136.104 52.5892 135.988 52.6881 135.906 52.7375C135.774 52.8199 135.626 52.8858 135.477 52.9023C135.329 52.9188 135.197 52.9023 135.065 52.8034C134.934 52.721 134.868 52.5892 134.851 52.4409C134.835 52.2761 134.851 52.1443 134.95 52.0289C135.049 51.8971 135.197 51.8147 135.412 51.7818H135.477V51.8147Z" fill="#949494"/>
<path d="M137.916 60.4822C137.916 60.4822 137.834 60.4327 137.768 60.4492H137.686L137.669 60.1197H137.719C137.867 60.0867 137.999 60.1197 138.131 60.2185C138.246 60.3009 138.328 60.4327 138.345 60.581C138.361 60.7293 138.345 60.8776 138.246 60.993C138.147 61.1248 138.032 61.2072 137.851 61.2237L137.669 61.2566C137.587 61.2566 137.505 61.2566 137.455 61.2566C137.34 61.2237 137.241 61.1578 137.158 61.0589C137.142 61.1083 137.109 61.1578 137.06 61.2072C136.977 61.3061 136.845 61.372 136.714 61.3885H136.615C136.466 61.4214 136.335 61.3885 136.236 61.3225C136.12 61.2402 136.038 61.1248 136.022 60.96C136.005 60.7952 136.022 60.6469 136.137 60.5481C136.219 60.4492 136.351 60.3998 136.516 60.3668H136.565L136.615 60.6964H136.549C136.549 60.6964 136.433 60.7293 136.384 60.7623C136.335 60.8117 136.318 60.8612 136.318 60.9271C136.335 61.0589 136.417 61.1083 136.565 61.0919H136.615C136.73 61.0589 136.829 61.0259 136.878 60.96C136.944 60.8941 136.961 60.7788 136.944 60.647L137.241 60.5975C137.274 60.8447 137.406 60.9436 137.636 60.9106H137.768C137.916 60.8776 137.982 60.7788 137.949 60.6305C137.949 60.581 137.916 60.5316 137.884 60.4986L137.916 60.4822Z" fill="#949494"/>
<path d="M139.02 69.0671L139.102 69.6768L139.597 69.6109L139.646 69.9569L139.152 70.0229L139.185 70.2371L138.839 70.2865L138.806 70.0723L137.372 70.27L137.323 69.924L138.674 69.1166L139.02 69.0671ZM138.723 69.4461L138.048 69.8251L138.756 69.7263L138.723 69.4461Z" fill="#949494"/>
<path d="M138.921 78.7397L138.575 78.7891L138.427 77.784L139.663 77.6027L139.712 77.9487H139.646C139.646 77.9487 139.564 77.9817 139.514 78.0147C139.465 78.0476 139.448 78.097 139.465 78.163C139.465 78.2124 139.481 78.2289 139.514 78.2618C139.564 78.3113 139.63 78.3277 139.696 78.3113L140.256 78.2289C140.404 78.2124 140.47 78.13 140.437 77.9817C140.437 77.9652 140.437 77.9323 140.421 77.9158C140.388 77.8499 140.322 77.8334 140.223 77.8334H140.14L140.124 77.5038H140.173C140.322 77.4709 140.454 77.5038 140.569 77.5862C140.684 77.6686 140.767 77.784 140.783 77.9323C140.8 78.0806 140.783 78.2289 140.684 78.3442C140.585 78.4596 140.47 78.542 140.289 78.5584L139.794 78.6243C139.63 78.6408 139.498 78.6243 139.399 78.5914C139.284 78.542 139.218 78.4266 139.201 78.2783C139.201 78.2289 139.201 78.1959 139.201 78.163C139.218 78.097 139.251 78.0476 139.3 77.9982L138.806 78.0641L138.905 78.7232L138.921 78.7397Z" fill="#949494"/>
<path d="M140.388 87.5718H140.338C140.19 87.6048 140.058 87.5718 139.943 87.4895C139.827 87.4071 139.745 87.2917 139.729 87.1434C139.729 87.061 139.729 86.9951 139.729 86.9292C139.761 86.8303 139.811 86.7315 139.893 86.6656C139.976 86.5997 140.075 86.5667 140.19 86.5502L141.426 86.369C141.574 86.3525 141.706 86.369 141.821 86.4514C141.937 86.5337 142.019 86.6491 142.035 86.7974C142.052 86.9457 142.035 87.061 141.937 87.1764C141.854 87.2917 141.739 87.3576 141.591 87.3906L141.195 87.44C141.03 87.4565 140.898 87.44 140.8 87.3906C140.684 87.3247 140.618 87.2258 140.602 87.0775C140.602 86.9786 140.602 86.8963 140.668 86.7974L140.223 86.8633C140.223 86.8633 140.124 86.8963 140.091 86.9292C140.058 86.9622 140.042 87.0116 140.058 87.061C140.058 87.1105 140.091 87.1599 140.14 87.1764C140.19 87.1929 140.239 87.2093 140.289 87.1929H140.338L140.388 87.5389V87.5718ZM141.063 86.7644C141.063 86.7644 140.981 86.7809 140.931 86.8139C140.882 86.8468 140.865 86.8963 140.882 86.9622C140.882 87.0116 140.898 87.0281 140.931 87.061C140.981 87.1105 141.047 87.1269 141.113 87.1105L141.525 87.0446C141.525 87.0446 141.623 87.0116 141.656 86.9786C141.689 86.9457 141.706 86.8963 141.706 86.8468C141.706 86.7974 141.673 86.748 141.623 86.7315C141.591 86.715 141.541 86.6985 141.475 86.715L141.063 86.7809V86.7644Z" fill="#949494"/>
<path d="M140.915 95.3164L141.261 95.267L141.36 95.959L143.222 95.201L143.271 95.5306L141.409 96.2886L141.063 96.338L140.915 95.3164Z" fill="#949494"/>
<path d="M143.848 104.956C143.765 104.956 143.683 104.956 143.634 104.956C143.518 104.923 143.419 104.857 143.337 104.758C143.32 104.808 143.288 104.857 143.255 104.89C143.172 104.989 143.057 105.038 142.925 105.071H142.81C142.661 105.104 142.53 105.071 142.431 105.005C142.315 104.923 142.233 104.808 142.216 104.643V104.61C142.184 104.445 142.216 104.313 142.315 104.198C142.398 104.099 142.513 104.033 142.661 104.017H142.777C142.859 103.984 142.941 103.984 142.991 104.017C143.106 104.05 143.189 104.116 143.255 104.198C143.271 104.149 143.304 104.083 143.337 104.05C143.419 103.934 143.535 103.885 143.683 103.852L143.897 103.819C144.046 103.803 144.177 103.819 144.293 103.918C144.408 104 144.49 104.132 144.507 104.28V104.313C144.54 104.462 144.507 104.594 144.408 104.725C144.326 104.841 144.194 104.923 144.046 104.94L143.848 104.972V104.956ZM143.963 104.594C143.963 104.594 144.046 104.577 144.062 104.561C144.144 104.511 144.177 104.445 144.177 104.346C144.177 104.297 144.144 104.247 144.095 104.215C144.046 104.182 143.98 104.165 143.897 104.165H143.782C143.782 104.165 143.65 104.215 143.601 104.231C143.535 104.28 143.502 104.346 143.518 104.429C143.518 104.478 143.535 104.528 143.568 104.544C143.617 104.594 143.716 104.61 143.848 104.594H143.963ZM143.057 104.692C143.057 104.692 143.139 104.577 143.123 104.495C143.123 104.412 143.073 104.363 143.007 104.33C142.958 104.313 142.892 104.297 142.793 104.313C142.727 104.313 142.678 104.33 142.645 104.346C142.612 104.363 142.579 104.396 142.546 104.429C142.513 104.478 142.513 104.528 142.513 104.577C142.513 104.61 142.513 104.626 142.546 104.659C142.595 104.742 142.711 104.791 142.859 104.758C142.941 104.758 143.007 104.725 143.057 104.676V104.692Z" fill="#949494"/>
<path d="M143.436 113.047C143.469 112.948 143.518 112.865 143.584 112.8C143.667 112.734 143.749 112.684 143.848 112.668L144.243 112.618C144.408 112.602 144.54 112.618 144.639 112.668C144.754 112.734 144.82 112.832 144.837 112.981C144.837 113.08 144.837 113.162 144.771 113.261L145.232 113.195C145.232 113.195 145.331 113.162 145.364 113.129C145.397 113.096 145.413 113.047 145.397 112.997C145.397 112.948 145.364 112.898 145.331 112.882C145.282 112.865 145.249 112.849 145.183 112.865H145.133L145.084 112.519H145.133C145.282 112.486 145.413 112.519 145.529 112.602C145.644 112.684 145.726 112.8 145.743 112.948C145.759 113.096 145.743 113.228 145.644 113.343C145.545 113.459 145.43 113.525 145.282 113.541L144.046 113.722C143.897 113.739 143.766 113.722 143.65 113.64C143.535 113.558 143.453 113.442 143.436 113.294C143.436 113.228 143.436 113.146 143.436 113.096V113.047ZM144.408 113.31C144.408 113.31 144.441 113.31 144.474 113.294C144.557 113.261 144.606 113.195 144.589 113.113C144.589 113.063 144.573 113.047 144.54 113.014C144.491 112.964 144.425 112.948 144.359 112.964L143.947 113.03C143.947 113.03 143.848 113.063 143.815 113.096C143.782 113.129 143.766 113.179 143.782 113.228C143.782 113.277 143.815 113.327 143.864 113.343C143.914 113.36 143.963 113.376 144.013 113.376L144.425 113.31H144.408Z" fill="#949494"/>
<path d="M146.897 121.203L144.623 121.516L144.59 121.286C144.59 121.286 144.722 121.187 144.755 121.104C144.804 121.022 144.821 120.94 144.821 120.857L145.051 120.824L145.084 121.121L146.831 120.874L146.88 121.22L146.897 121.203Z" fill="#949494"/>
<path d="M145.331 122.835C145.183 122.851 145.051 122.835 144.919 122.736C144.787 122.637 144.721 122.521 144.705 122.373C144.688 122.225 144.705 122.093 144.804 121.961C144.886 121.846 145.018 121.763 145.166 121.747L146.402 121.566C146.55 121.549 146.682 121.566 146.814 121.665C146.929 121.747 147.012 121.879 147.028 122.027C147.045 122.175 147.028 122.307 146.929 122.439C146.847 122.554 146.715 122.637 146.567 122.653L145.331 122.835ZM146.517 122.307C146.517 122.307 146.616 122.274 146.649 122.225C146.682 122.175 146.699 122.126 146.682 122.077C146.682 122.027 146.649 121.978 146.6 121.945C146.55 121.912 146.501 121.895 146.451 121.912L145.216 122.093C145.216 122.093 145.117 122.126 145.084 122.175C145.051 122.225 145.034 122.274 145.051 122.324C145.051 122.373 145.084 122.423 145.133 122.456C145.183 122.488 145.232 122.505 145.282 122.489L146.517 122.307Z" fill="#949494"/>
<path d="M148.133 130.002L145.859 130.315L145.826 130.085C145.826 130.085 145.958 129.986 145.99 129.904C146.04 129.821 146.056 129.739 146.056 129.656L146.287 129.623L146.32 129.92L148.067 129.673L148.116 130.019L148.133 130.002Z" fill="#949494"/>
<path d="M148.264 130.925L145.99 131.238L145.958 131.008C145.958 131.008 146.089 130.909 146.122 130.826C146.172 130.744 146.188 130.662 146.188 130.579L146.419 130.546L146.452 130.843L148.199 130.596L148.248 130.942L148.264 130.925Z" fill="#949494"/>
</g>
<path d="M232.143 183.212L87.2808 185.058L87.5468 205.934L232.409 204.088L232.143 183.212Z" fill="#DC854F"/>
<g style="mix-blend-mode:multiply">
<path d="M222.559 183.335L222.032 183.342L222.075 186.72L222.603 186.713L222.559 183.335Z" fill="#949494"/>
<path d="M227.353 183.274L226.826 183.281L226.892 188.471L227.419 188.465L227.353 183.274Z" fill="#949494"/>
<path d="M217.782 183.38L217.254 183.386L217.321 188.577L217.848 188.57L217.782 183.38Z" fill="#949494"/>
<path d="M226.167 183.29L225.64 183.296L225.676 186.147L226.204 186.14L226.167 183.29Z" fill="#949494"/>
<path d="M224.932 183.305L224.405 183.312L224.441 186.162L224.968 186.156L224.932 183.305Z" fill="#949494"/>
<path d="M223.712 183.321L223.185 183.327L223.221 186.178L223.749 186.171L223.712 183.321Z" fill="#949494"/>
<path d="M221.39 183.35L220.862 183.357L220.899 186.208L221.426 186.201L221.39 183.35Z" fill="#949494"/>
<path d="M220.171 183.366L219.644 183.373L219.68 186.223L220.207 186.216L220.171 183.366Z" fill="#949494"/>
<path d="M218.952 183.381L218.424 183.388L218.461 186.239L218.988 186.232L218.952 183.381Z" fill="#949494"/>
<path d="M232.131 183.197L231.604 183.204L231.647 186.581L232.174 186.575L232.131 183.197Z" fill="#949494"/>
<path d="M227.353 183.274L226.826 183.281L226.892 188.471L227.419 188.465L227.353 183.274Z" fill="#949494"/>
<path d="M230.961 183.212L230.434 183.219L230.47 186.069L230.997 186.063L230.961 183.212Z" fill="#949494"/>
<path d="M229.742 183.228L229.215 183.234L229.251 186.085L229.778 186.078L229.742 183.228Z" fill="#949494"/>
<path d="M228.523 183.243L227.996 183.25L228.032 186.1L228.559 186.094L228.523 183.243Z" fill="#949494"/>
<path d="M212.939 183.442L212.412 183.448L212.455 186.826L212.982 186.819L212.939 183.442Z" fill="#949494"/>
<path d="M208.145 183.519L207.618 183.526L207.684 188.716L208.212 188.709L208.145 183.519Z" fill="#949494"/>
<path d="M216.53 183.396L216.002 183.403L216.039 186.253L216.566 186.246L216.53 183.396Z" fill="#949494"/>
<path d="M215.311 183.411L214.784 183.418L214.82 186.269L215.347 186.262L215.311 183.411Z" fill="#949494"/>
<path d="M214.092 183.427L213.565 183.434L213.601 186.284L214.129 186.277L214.092 183.427Z" fill="#949494"/>
<path d="M211.769 183.473L211.242 183.48L211.278 186.33L211.805 186.323L211.769 183.473Z" fill="#949494"/>
<path d="M210.55 183.489L210.023 183.495L210.059 186.346L210.587 186.339L210.55 183.489Z" fill="#949494"/>
<path d="M209.331 183.504L208.804 183.511L208.841 186.361L209.368 186.354L209.331 183.504Z" fill="#949494"/>
<path d="M203.318 183.581L202.791 183.587L202.834 186.965L203.361 186.958L203.318 183.581Z" fill="#949494"/>
<path d="M198.524 183.625L197.997 183.632L198.063 188.822L198.59 188.815L198.524 183.625Z" fill="#949494"/>
<path d="M206.91 183.535L206.382 183.542L206.419 186.392L206.946 186.385L206.91 183.535Z" fill="#949494"/>
<path d="M205.69 183.55L205.163 183.557L205.199 186.408L205.727 186.401L205.69 183.55Z" fill="#949494"/>
<path d="M204.472 183.566L203.944 183.573L203.981 186.423L204.508 186.416L204.472 183.566Z" fill="#949494"/>
<path d="M202.132 183.596L201.604 183.602L201.641 186.453L202.168 186.446L202.132 183.596Z" fill="#949494"/>
<path d="M200.929 183.595L200.402 183.601L200.438 186.452L200.965 186.445L200.929 183.595Z" fill="#949494"/>
<path d="M199.71 183.61L199.183 183.617L199.219 186.467L199.746 186.461L199.71 183.61Z" fill="#949494"/>
<path d="M193.697 183.703L193.17 183.71L193.213 187.088L193.74 187.081L193.697 183.703Z" fill="#949494"/>
<path d="M188.904 183.764L188.376 183.771L188.443 188.961L188.97 188.954L188.904 183.764Z" fill="#949494"/>
<path d="M197.288 183.641L196.761 183.648L196.797 186.498L197.324 186.491L197.288 183.641Z" fill="#949494"/>
<path d="M196.069 183.657L195.542 183.663L195.578 186.514L196.106 186.507L196.069 183.657Z" fill="#949494"/>
<path d="M194.85 183.672L194.323 183.679L194.36 186.529L194.887 186.522L194.85 183.672Z" fill="#949494"/>
<path d="M192.512 183.718L191.984 183.725L192.021 186.575L192.548 186.569L192.512 183.718Z" fill="#949494"/>
<path d="M191.292 183.734L190.765 183.741L190.801 186.591L191.329 186.584L191.292 183.734Z" fill="#949494"/>
<path d="M190.073 183.749L189.545 183.756L189.582 186.607L190.109 186.6L190.073 183.749Z" fill="#949494"/>
<path d="M184.06 183.81L183.533 183.816L183.576 187.194L184.103 187.187L184.06 183.81Z" fill="#949494"/>
<path d="M179.283 183.887L178.755 183.893L178.822 189.083L179.349 189.077L179.283 183.887Z" fill="#949494"/>
<path d="M187.668 183.78L187.141 183.787L187.177 186.637L187.704 186.631L187.668 183.78Z" fill="#949494"/>
<path d="M186.449 183.796L185.921 183.802L185.958 186.653L186.485 186.646L186.449 183.796Z" fill="#949494"/>
<path d="M185.23 183.811L184.703 183.818L184.739 186.668L185.266 186.662L185.23 183.811Z" fill="#949494"/>
<path d="M182.89 183.825L182.363 183.831L182.399 186.682L182.926 186.675L182.89 183.825Z" fill="#949494"/>
<path d="M181.671 183.84L181.144 183.847L181.18 186.697L181.708 186.69L181.671 183.84Z" fill="#949494"/>
<path d="M180.452 183.856L179.925 183.862L179.961 186.713L180.488 186.706L180.452 183.856Z" fill="#949494"/>
<path d="M174.439 183.949L173.912 183.955L173.955 187.333L174.482 187.326L174.439 183.949Z" fill="#949494"/>
<path d="M169.662 184.009L169.135 184.016L169.201 189.206L169.728 189.199L169.662 184.009Z" fill="#949494"/>
<path d="M178.031 183.903L177.503 183.91L177.54 186.76L178.067 186.753L178.031 183.903Z" fill="#949494"/>
<path d="M176.811 183.918L176.284 183.925L176.32 186.776L176.848 186.769L176.811 183.918Z" fill="#949494"/>
<path d="M175.609 183.934L175.082 183.94L175.118 186.791L175.645 186.784L175.609 183.934Z" fill="#949494"/>
<path d="M173.27 183.963L172.743 183.97L172.779 186.821L173.306 186.814L173.27 183.963Z" fill="#949494"/>
<path d="M172.051 183.979L171.523 183.986L171.56 186.836L172.087 186.83L172.051 183.979Z" fill="#949494"/>
<path d="M170.832 183.995L170.305 184.001L170.341 186.852L170.868 186.845L170.832 183.995Z" fill="#949494"/>
<path d="M164.802 184.055L164.275 184.061L164.318 187.439L164.845 187.432L164.802 184.055Z" fill="#949494"/>
<path d="M160.041 184.132L159.514 184.139L159.58 189.329L160.107 189.322L160.041 184.132Z" fill="#949494"/>
<path d="M168.41 184.025L167.883 184.032L167.919 186.883L168.446 186.876L168.41 184.025Z" fill="#949494"/>
<path d="M167.191 184.041L166.664 184.048L166.7 186.898L167.228 186.892L167.191 184.041Z" fill="#949494"/>
<path d="M165.972 184.04L165.444 184.047L165.481 186.897L166.008 186.89L165.972 184.04Z" fill="#949494"/>
<path d="M163.648 184.07L163.121 184.076L163.157 186.927L163.685 186.92L163.648 184.07Z" fill="#949494"/>
<path d="M162.43 184.085L161.902 184.092L161.939 186.942L162.466 186.936L162.43 184.085Z" fill="#949494"/>
<path d="M161.211 184.117L160.684 184.124L160.72 186.974L161.247 186.968L161.211 184.117Z" fill="#949494"/>
<path d="M155.181 184.194L154.654 184.201L154.697 187.578L155.224 187.572L155.181 184.194Z" fill="#949494"/>
<path d="M150.387 184.238L149.86 184.245L149.926 189.435L150.453 189.428L150.387 184.238Z" fill="#949494"/>
<path d="M158.789 184.148L158.262 184.155L158.298 187.005L158.825 186.999L158.789 184.148Z" fill="#949494"/>
<path d="M157.554 184.164L157.026 184.17L157.063 187.021L157.59 187.014L157.554 184.164Z" fill="#949494"/>
<path d="M156.335 184.179L155.808 184.186L155.844 187.036L156.371 187.03L156.335 184.179Z" fill="#949494"/>
<path d="M154.012 184.209L153.485 184.215L153.521 187.066L154.048 187.059L154.012 184.209Z" fill="#949494"/>
<path d="M152.793 184.224L152.266 184.231L152.302 187.081L152.829 187.075L152.793 184.224Z" fill="#949494"/>
<path d="M151.573 184.24L151.046 184.247L151.082 187.097L151.609 187.09L151.573 184.24Z" fill="#949494"/>
<path d="M145.56 184.3L145.033 184.307L145.076 187.684L145.603 187.678L145.56 184.3Z" fill="#949494"/>
<path d="M140.767 184.377L140.24 184.384L140.306 189.574L140.833 189.567L140.767 184.377Z" fill="#949494"/>
<path d="M149.151 184.254L148.624 184.261L148.66 187.111L149.188 187.105L149.151 184.254Z" fill="#949494"/>
<path d="M147.933 184.27L147.405 184.276L147.442 187.127L147.969 187.12L147.933 184.27Z" fill="#949494"/>
<path d="M146.714 184.285L146.187 184.292L146.223 187.142L146.75 187.136L146.714 184.285Z" fill="#949494"/>
<path d="M144.375 184.332L143.848 184.338L143.884 187.189L144.411 187.182L144.375 184.332Z" fill="#949494"/>
<path d="M143.172 184.347L142.645 184.354L142.681 187.204L143.208 187.197L143.172 184.347Z" fill="#949494"/>
<path d="M141.953 184.362L141.426 184.369L141.462 187.22L141.989 187.213L141.953 184.362Z" fill="#949494"/>
<path d="M135.94 184.439L135.413 184.446L135.456 187.823L135.983 187.817L135.94 184.439Z" fill="#949494"/>
<path d="M131.146 184.483L130.619 184.49L130.685 189.68L131.212 189.674L131.146 184.483Z" fill="#949494"/>
<path d="M139.531 184.393L139.004 184.4L139.04 187.25L139.567 187.244L139.531 184.393Z" fill="#949494"/>
<path d="M138.312 184.409L137.785 184.415L137.821 187.266L138.348 187.259L138.312 184.409Z" fill="#949494"/>
<path d="M137.093 184.424L136.566 184.431L136.602 187.282L137.129 187.275L137.093 184.424Z" fill="#949494"/>
<path d="M134.753 184.454L134.226 184.461L134.262 187.311L134.79 187.305L134.753 184.454Z" fill="#949494"/>
<path d="M133.535 184.453L133.007 184.46L133.044 187.31L133.571 187.304L133.535 184.453Z" fill="#949494"/>
<path d="M132.315 184.469L131.788 184.475L131.824 187.326L132.352 187.319L132.315 184.469Z" fill="#949494"/>
<path d="M126.319 184.562L125.792 184.568L125.835 187.946L126.362 187.939L126.319 184.562Z" fill="#949494"/>
<path d="M121.525 184.622L120.998 184.629L121.064 189.819L121.591 189.813L121.525 184.622Z" fill="#949494"/>
<path d="M129.91 184.499L129.383 184.506L129.419 187.357L129.946 187.35L129.91 184.499Z" fill="#949494"/>
<path d="M128.691 184.515L128.164 184.522L128.2 187.372L128.728 187.365L128.691 184.515Z" fill="#949494"/>
<path d="M127.473 184.547L126.945 184.554L126.982 187.404L127.509 187.397L127.473 184.547Z" fill="#949494"/>
<path d="M125.133 184.577L124.606 184.583L124.642 187.434L125.17 187.427L125.133 184.577Z" fill="#949494"/>
<path d="M123.913 184.592L123.386 184.599L123.423 187.449L123.95 187.443L123.913 184.592Z" fill="#949494"/>
<path d="M122.695 184.608L122.167 184.615L122.204 187.465L122.731 187.458L122.695 184.608Z" fill="#949494"/>
<path d="M116.682 184.668L116.154 184.675L116.197 188.052L116.725 188.046L116.682 184.668Z" fill="#949494"/>
<path d="M111.904 184.745L111.377 184.752L111.443 189.942L111.97 189.935L111.904 184.745Z" fill="#949494"/>
<path d="M120.273 184.639L119.746 184.645L119.782 187.496L120.31 187.489L120.273 184.639Z" fill="#949494"/>
<path d="M119.054 184.654L118.527 184.661L118.563 187.511L119.09 187.505L119.054 184.654Z" fill="#949494"/>
<path d="M117.835 184.67L117.308 184.676L117.344 187.527L117.871 187.52L117.835 184.67Z" fill="#949494"/>
<path d="M115.512 184.683L114.985 184.69L115.021 187.54L115.548 187.533L115.512 184.683Z" fill="#949494"/>
<path d="M114.293 184.698L113.766 184.705L113.802 187.556L114.329 187.549L114.293 184.698Z" fill="#949494"/>
<path d="M113.074 184.714L112.547 184.721L112.583 187.571L113.11 187.564L113.074 184.714Z" fill="#949494"/>
<path d="M107.061 184.807L106.534 184.814L106.577 188.191L107.104 188.185L107.061 184.807Z" fill="#949494"/>
<path d="M102.284 184.868L101.756 184.874L101.822 190.065L102.35 190.058L102.284 184.868Z" fill="#949494"/>
<path d="M110.652 184.761L110.125 184.768L110.161 187.618L110.689 187.612L110.652 184.761Z" fill="#949494"/>
<path d="M109.433 184.777L108.906 184.783L108.942 187.634L109.469 187.627L109.433 184.777Z" fill="#949494"/>
<path d="M108.214 184.792L107.687 184.799L107.723 187.65L108.251 187.643L108.214 184.792Z" fill="#949494"/>
<path d="M105.892 184.822L105.364 184.829L105.401 187.679L105.928 187.672L105.892 184.822Z" fill="#949494"/>
<path d="M104.672 184.838L104.145 184.844L104.181 187.695L104.709 187.688L104.672 184.838Z" fill="#949494"/>
<path d="M103.454 184.853L102.926 184.86L102.963 187.71L103.49 187.703L103.454 184.853Z" fill="#949494"/>
<path d="M97.4237 184.913L96.8965 184.92L96.9395 188.298L97.4668 188.291L97.4237 184.913Z" fill="#949494"/>
<path d="M92.6464 184.99L92.1191 184.997L92.1853 190.187L92.7125 190.181L92.6464 184.99Z" fill="#949494"/>
<path d="M101.032 184.884L100.504 184.891L100.541 187.741L101.068 187.734L101.032 184.884Z" fill="#949494"/>
<path d="M99.8124 184.883L99.2852 184.89L99.3215 187.74L99.8487 187.733L99.8124 184.883Z" fill="#949494"/>
<path d="M98.5932 184.898L98.0659 184.905L98.1022 187.756L98.6295 187.749L98.5932 184.898Z" fill="#949494"/>
<path d="M96.2704 184.928L95.7432 184.935L95.7795 187.785L96.3067 187.778L96.2704 184.928Z" fill="#949494"/>
<path d="M95.0517 184.96L94.5244 184.967L94.5607 187.817L95.088 187.81L95.0517 184.96Z" fill="#949494"/>
<path d="M93.8324 184.976L93.3052 184.982L93.3415 187.833L93.8687 187.826L93.8324 184.976Z" fill="#949494"/>
<path d="M87.8031 185.052L87.2759 185.059L87.3189 188.437L87.8462 188.43L87.8031 185.052Z" fill="#949494"/>
<path d="M91.411 185.006L90.8838 185.013L90.9201 187.864L91.4474 187.857L91.411 185.006Z" fill="#949494"/>
<path d="M90.1918 185.022L89.6646 185.029L89.7009 187.879L90.2281 187.872L90.1918 185.022Z" fill="#949494"/>
<path d="M88.956 185.038L88.4287 185.044L88.465 187.895L88.9923 187.888L88.956 185.038Z" fill="#949494"/>
<path d="M227.046 192.124L227.013 189.619H227.276C227.276 189.619 227.375 189.768 227.458 189.817C227.54 189.867 227.622 189.9 227.721 189.916V190.18H227.408V192.108H227.062L227.046 192.124Z" fill="#949494"/>
<path d="M218.115 190.493H217.736V190.394C217.736 190.344 217.736 190.295 217.719 190.246C217.67 190.13 217.604 190.064 217.489 190.064C217.423 190.064 217.357 190.097 217.307 190.147C217.258 190.196 217.241 190.262 217.241 190.344C217.241 190.443 217.274 190.542 217.307 190.641C217.373 190.773 217.456 190.921 217.571 191.086C217.703 191.251 217.785 191.383 217.851 191.465L217.95 191.613C217.95 191.613 218.016 191.696 218.032 191.745C218.082 191.828 218.115 191.877 218.115 191.877V192.223H216.912V191.86H217.653C217.653 191.86 217.653 191.86 217.637 191.828C217.62 191.795 217.587 191.745 217.538 191.663L217.472 191.564C217.39 191.449 217.324 191.35 217.291 191.3C217.143 191.086 217.044 190.938 216.994 190.855C216.912 190.691 216.879 190.526 216.879 190.361C216.879 190.196 216.928 190.048 217.044 189.916C217.159 189.784 217.291 189.735 217.472 189.718C217.653 189.718 217.802 189.768 217.917 189.883C218.049 190.015 218.115 190.18 218.115 190.427V190.493Z" fill="#949494"/>
<path d="M208.343 191.926C208.343 191.926 208.408 191.828 208.408 191.778V191.696L208.771 191.712V191.778C208.771 191.943 208.722 192.091 208.606 192.207C208.491 192.322 208.359 192.388 208.178 192.388C207.997 192.388 207.865 192.338 207.733 192.223C207.601 192.108 207.535 191.959 207.535 191.762V191.564C207.535 191.465 207.535 191.399 207.585 191.333C207.65 191.201 207.733 191.102 207.848 191.037C207.799 191.004 207.749 190.971 207.7 190.921C207.601 190.806 207.552 190.674 207.552 190.526V190.427C207.552 190.262 207.601 190.13 207.683 190.015C207.782 189.9 207.931 189.834 208.112 189.834C208.293 189.834 208.441 189.9 208.557 190.015C208.656 190.13 208.689 190.279 208.705 190.443V190.509H208.343V190.443C208.343 190.443 208.343 190.312 208.293 190.262C208.26 190.196 208.194 190.18 208.112 190.18C207.964 190.18 207.898 190.262 207.898 190.427V190.493C207.898 190.625 207.931 190.723 207.997 190.806C208.062 190.888 208.178 190.921 208.326 190.921V191.251C208.062 191.251 207.931 191.383 207.931 191.646V191.795C207.931 191.959 208.029 192.042 208.194 192.025C208.26 192.025 208.31 192.009 208.343 191.959V191.926Z" fill="#949494"/>
<path d="M198.851 191.926H198.175V192.47H197.796V191.926H197.549V191.547H197.796L197.78 189.949H198.159L198.851 191.531V191.91V191.926ZM198.489 191.564L198.159 190.789V191.58H198.489V191.564Z" fill="#949494"/>
<path d="M188.355 190.476V190.097H189.459V191.465H189.096V191.399C189.096 191.399 189.096 191.3 189.047 191.251C189.014 191.201 188.965 191.168 188.899 191.168C188.849 191.168 188.816 191.168 188.8 191.201C188.75 191.251 188.717 191.317 188.717 191.383V191.992C188.717 192.157 188.8 192.239 188.965 192.239C188.981 192.239 189.014 192.239 189.03 192.223C189.096 192.19 189.146 192.124 189.146 192.025V191.943L189.508 191.959V192.025C189.508 192.19 189.459 192.338 189.36 192.454C189.245 192.569 189.113 192.635 188.948 192.635C188.783 192.635 188.635 192.585 188.52 192.47C188.404 192.355 188.338 192.206 188.338 192.009V191.465C188.338 191.284 188.355 191.135 188.421 191.036C188.503 190.921 188.618 190.855 188.783 190.855C188.833 190.855 188.882 190.855 188.915 190.872C188.981 190.905 189.03 190.938 189.08 190.987V190.443H188.338L188.355 190.476Z" fill="#949494"/>
<path d="M178.551 190.839V190.789C178.551 190.625 178.6 190.476 178.699 190.361C178.814 190.246 178.946 190.18 179.111 190.18C179.193 190.18 179.276 190.18 179.342 190.229C179.457 190.279 179.539 190.345 179.605 190.443C179.671 190.542 179.704 190.658 179.704 190.773V192.141C179.721 192.305 179.671 192.454 179.572 192.569C179.474 192.684 179.325 192.75 179.16 192.75C179.012 192.75 178.864 192.701 178.765 192.586C178.65 192.487 178.6 192.338 178.584 192.19V191.762C178.584 191.58 178.617 191.449 178.683 191.333C178.765 191.218 178.88 191.152 179.062 191.152C179.16 191.152 179.259 191.185 179.342 191.267V190.773C179.342 190.773 179.325 190.658 179.292 190.625C179.259 190.575 179.21 190.559 179.16 190.559C179.111 190.559 179.062 190.575 179.029 190.625C178.996 190.674 178.979 190.724 178.979 190.773V190.839H178.584H178.551ZM179.325 191.679C179.325 191.679 179.325 191.58 179.276 191.531C179.243 191.482 179.193 191.449 179.128 191.449C179.078 191.449 179.045 191.449 179.029 191.481C178.979 191.531 178.946 191.597 178.946 191.663V192.124C178.946 192.124 178.963 192.239 178.996 192.272C179.029 192.322 179.078 192.338 179.144 192.338C179.21 192.338 179.243 192.322 179.276 192.272C179.309 192.239 179.325 192.174 179.325 192.124V191.663V191.679Z" fill="#949494"/>
<path d="M170.048 190.328V190.707H169.29L169.85 192.833H169.471L168.911 190.723V190.344H170.048V190.328Z" fill="#949494"/>
<path d="M159.156 192.173C159.156 192.075 159.156 192.009 159.206 191.943C159.272 191.811 159.354 191.712 159.469 191.646C159.42 191.613 159.37 191.58 159.338 191.547C159.239 191.448 159.189 191.317 159.189 191.168V191.037C159.189 190.872 159.239 190.74 159.321 190.625C159.42 190.509 159.568 190.443 159.749 190.443H159.782C159.964 190.443 160.095 190.493 160.211 190.625C160.31 190.723 160.359 190.872 160.359 191.02V191.152C160.359 191.251 160.359 191.333 160.326 191.383C160.277 191.498 160.194 191.597 160.095 191.646C160.161 191.679 160.211 191.712 160.244 191.762C160.343 191.877 160.409 192.009 160.409 192.157V192.388C160.409 192.552 160.359 192.701 160.244 192.816C160.128 192.931 159.997 192.997 159.815 192.997H159.782C159.618 192.997 159.469 192.948 159.354 192.833C159.239 192.717 159.173 192.569 159.173 192.404V192.173H159.156ZM159.568 191.35C159.568 191.35 159.684 191.448 159.766 191.448C159.848 191.448 159.914 191.415 159.964 191.35C159.997 191.3 160.013 191.218 160.013 191.119C160.013 191.053 160.013 190.987 159.997 190.954C159.997 190.905 159.964 190.872 159.931 190.839C159.881 190.806 159.832 190.789 159.766 190.789C159.733 190.789 159.7 190.789 159.684 190.806C159.585 190.855 159.519 190.954 159.519 191.135C159.519 191.234 159.535 191.3 159.568 191.366V191.35ZM159.535 192.338C159.535 192.338 159.535 192.421 159.552 192.454C159.601 192.552 159.667 192.602 159.766 192.602C159.832 192.602 159.881 192.569 159.931 192.536C159.98 192.487 160.013 192.421 159.997 192.338V192.223C159.997 192.141 159.997 192.075 159.964 192.009C159.931 191.926 159.865 191.877 159.766 191.877C159.717 191.877 159.667 191.877 159.634 191.91C159.568 191.959 159.535 192.058 159.535 192.206V192.322V192.338Z" fill="#949494"/>
<path d="M150.423 190.592C150.521 190.641 150.604 190.707 150.67 190.789C150.736 190.888 150.769 190.987 150.769 191.102V191.531C150.769 191.712 150.736 191.86 150.67 191.959C150.587 192.075 150.472 192.141 150.307 192.141C150.208 192.141 150.11 192.108 150.027 192.025V192.52C150.027 192.52 150.044 192.635 150.077 192.668C150.11 192.701 150.159 192.734 150.208 192.734C150.258 192.734 150.307 192.717 150.34 192.668C150.373 192.618 150.39 192.569 150.39 192.52V192.454H150.785V192.503C150.785 192.668 150.736 192.816 150.637 192.931C150.538 193.047 150.39 193.113 150.225 193.113C150.06 193.113 149.928 193.063 149.813 192.948C149.698 192.833 149.648 192.684 149.648 192.52V191.152C149.632 190.987 149.681 190.839 149.78 190.723C149.895 190.608 150.027 190.542 150.192 190.542C150.274 190.542 150.34 190.542 150.423 190.592ZM150.027 191.613C150.027 191.613 150.027 191.646 150.027 191.679C150.06 191.778 150.11 191.827 150.208 191.827C150.258 191.827 150.291 191.827 150.307 191.794C150.357 191.745 150.39 191.679 150.39 191.613V191.152C150.39 191.152 150.373 191.037 150.34 191.004C150.307 190.971 150.258 190.938 150.208 190.938C150.159 190.938 150.11 190.954 150.077 191.004C150.044 191.053 150.027 191.102 150.027 191.152V191.613Z" fill="#949494"/>
<path d="M141.079 193.212L141.046 190.707H141.31C141.31 190.707 141.409 190.855 141.491 190.905C141.574 190.954 141.656 190.987 141.755 191.004V191.267H141.442V193.195H141.096L141.079 193.212Z" fill="#949494"/>
<path d="M139.531 191.284C139.531 191.119 139.58 190.971 139.696 190.855C139.811 190.74 139.959 190.674 140.124 190.674C140.289 190.674 140.437 190.723 140.552 190.839C140.668 190.954 140.734 191.102 140.734 191.267V192.635C140.75 192.8 140.701 192.948 140.585 193.063C140.47 193.179 140.322 193.245 140.157 193.245C139.992 193.245 139.844 193.195 139.729 193.08C139.613 192.964 139.547 192.816 139.547 192.651V191.284H139.531ZM139.943 192.651C139.943 192.651 139.959 192.767 140.009 192.8C140.058 192.849 140.107 192.866 140.157 192.866C140.206 192.866 140.272 192.849 140.305 192.8C140.355 192.75 140.371 192.701 140.371 192.651V191.284C140.371 191.284 140.338 191.168 140.289 191.135C140.239 191.086 140.19 191.069 140.14 191.069C140.091 191.069 140.025 191.086 139.992 191.135C139.943 191.185 139.926 191.234 139.926 191.284V192.651H139.943Z" fill="#949494"/>
<path d="M131.342 193.327L131.309 190.822H131.572C131.572 190.822 131.671 190.971 131.753 191.02C131.836 191.069 131.918 191.102 132.017 191.119V191.383H131.704V193.31H131.358L131.342 193.327Z" fill="#949494"/>
<path d="M130.336 193.343L130.303 190.839H130.567C130.567 190.839 130.666 190.987 130.748 191.037C130.831 191.086 130.913 191.119 131.012 191.135V191.399H130.699V193.327H130.353L130.336 193.343Z" fill="#949494"/>
<path d="M121.455 193.459L121.422 190.954H121.686C121.686 190.954 121.784 191.102 121.867 191.152C121.949 191.201 122.032 191.234 122.13 191.251V191.514H121.817V193.442H121.471L121.455 193.459Z" fill="#949494"/>
<path d="M121.109 191.729H120.73V191.63C120.73 191.58 120.73 191.531 120.713 191.481C120.664 191.366 120.598 191.3 120.483 191.3C120.417 191.3 120.351 191.333 120.301 191.383C120.252 191.432 120.236 191.498 120.236 191.58C120.236 191.679 120.269 191.778 120.301 191.877C120.367 192.009 120.45 192.157 120.565 192.322C120.697 192.487 120.779 192.618 120.845 192.701L120.944 192.849C120.944 192.849 121.01 192.932 121.026 192.981C121.076 193.063 121.109 193.113 121.109 193.113V193.459H119.906V193.096H120.648C120.648 193.096 120.648 193.096 120.631 193.063C120.615 193.03 120.582 192.981 120.532 192.899L120.466 192.8C120.384 192.684 120.318 192.585 120.285 192.536C120.137 192.322 120.038 192.174 119.988 192.091C119.906 191.926 119.873 191.762 119.873 191.597C119.873 191.432 119.922 191.284 120.038 191.152C120.153 191.02 120.285 190.971 120.466 190.954C120.648 190.954 120.796 191.004 120.911 191.119C121.043 191.251 121.109 191.416 121.109 191.663V191.729Z" fill="#949494"/>
<path d="M112.078 193.574L112.045 191.07H112.309C112.309 191.07 112.408 191.218 112.49 191.267C112.573 191.317 112.655 191.35 112.754 191.366V191.63H112.441V193.558H112.095L112.078 193.574Z" fill="#949494"/>
<path d="M111.354 193.162C111.354 193.162 111.42 193.063 111.42 193.014V192.932L111.782 192.948V193.014C111.782 193.179 111.733 193.327 111.617 193.442C111.502 193.558 111.37 193.624 111.189 193.624C111.008 193.624 110.876 193.574 110.744 193.459C110.612 193.343 110.546 193.195 110.546 192.997V192.8C110.546 192.701 110.546 192.635 110.596 192.569C110.662 192.437 110.744 192.338 110.859 192.272C110.81 192.239 110.761 192.207 110.711 192.157C110.612 192.042 110.563 191.91 110.563 191.762V191.663C110.563 191.498 110.612 191.366 110.695 191.251C110.794 191.135 110.942 191.07 111.123 191.07C111.304 191.07 111.453 191.135 111.568 191.251C111.667 191.366 111.7 191.514 111.716 191.679V191.745H111.354V191.679C111.354 191.679 111.354 191.547 111.304 191.498C111.271 191.432 111.206 191.416 111.123 191.416C110.975 191.416 110.909 191.498 110.909 191.663V191.729C110.909 191.86 110.942 191.959 111.008 192.042C111.074 192.124 111.189 192.157 111.337 192.157V192.487C111.074 192.487 110.942 192.618 110.942 192.882V193.03C110.942 193.195 111.041 193.278 111.206 193.261C111.271 193.261 111.321 193.245 111.354 193.195V193.162Z" fill="#949494"/>
<path d="M102.456 193.706L102.423 191.201H102.686C102.686 191.201 102.785 191.35 102.868 191.399C102.95 191.449 103.033 191.481 103.131 191.498V191.762H102.818V193.69H102.472L102.456 193.706Z" fill="#949494"/>
<path d="M102.159 193.162H101.484V193.706H101.105V193.162H100.857V192.783H101.105L101.088 191.185H101.467L102.159 192.767V193.146V193.162ZM101.797 192.783L101.467 192.009V192.8H101.797V192.783Z" fill="#949494"/>
<path d="M92.8328 193.821L92.7998 191.317H93.0635C93.0635 191.317 93.1623 191.465 93.2447 191.514C93.3271 191.564 93.4095 191.597 93.5084 191.613V191.877H93.1953V193.805H92.8492L92.8328 193.821Z" fill="#949494"/>
<path d="M91.35 191.712V191.333H92.454V192.701H92.0915V192.635C92.0915 192.635 92.0915 192.536 92.042 192.487C92.0091 192.437 91.9597 192.404 91.8937 192.404C91.8443 192.404 91.8114 192.404 91.7949 192.437C91.7454 192.487 91.7125 192.552 91.7125 192.618V193.228C91.7125 193.393 91.7949 193.475 91.9597 193.475C91.9761 193.475 92.0091 193.475 92.0256 193.459C92.0915 193.426 92.1409 193.36 92.1409 193.261V193.179L92.5034 193.195V193.261C92.5034 193.426 92.454 193.574 92.3551 193.689C92.2398 193.805 92.108 193.871 91.9432 193.871C91.7784 193.871 91.6301 193.821 91.5148 193.706C91.3994 193.591 91.3335 193.442 91.3335 193.245V192.701C91.3335 192.519 91.35 192.371 91.4159 192.272C91.4983 192.157 91.6136 192.091 91.7784 192.091C91.8278 192.091 91.8773 192.091 91.9102 192.108C91.9761 192.14 92.0256 192.173 92.075 192.223V191.679H91.3335L91.35 191.712Z" fill="#949494"/>
</g>
</svg>
