<svg width="344" height="241" viewBox="0 0 344 241" fill="none" xmlns="http://www.w3.org/2000/svg">
<rect x="0.137695" y="0.558594" width="343.438" height="239.623" rx="23" fill="white"/>
<mask id="mask0_55_2" style="mask-type:luminance" maskUnits="userSpaceOnUse" x="96" y="44" width="152" height="153">
<path d="M247.695 44.5324H96.0195V196.207H247.695V44.5324Z" fill="white"/>
</mask>
<g mask="url(#mask0_55_2)">
<path d="M245.353 196.207L245.272 44.9362L220.724 44.6132V44.5324H-6.34425H-28.2813L-53.4214 44.6132V63.1318L-53.2868 173.517L-53.3406 196.181L245.353 196.207Z" fill="#E0E0E0"/>
<path d="M107.029 46.282H63.3701V61.0862H107.029V46.282Z" fill="#B84135"/>
<path d="M107.056 61.0862C107.056 61.0862 107.056 60.9785 107.056 60.817C107.056 60.6286 107.056 60.3594 107.056 60.0633C107.056 59.3635 107.056 58.3945 107.029 57.1294C107.029 54.5723 106.975 50.8848 106.948 46.282L107.082 46.4166C96.5042 46.4166 80.8657 46.4705 63.4237 46.4974C63.2353 46.6858 63.6929 46.2282 63.639 46.282V48.1931C63.639 48.8391 63.639 49.4582 63.639 50.1042C63.639 51.3693 63.639 52.6074 63.639 53.8456C63.639 56.3219 63.639 58.7444 63.639 61.0592L63.4237 60.8439C75.9668 60.8708 86.8411 60.9247 94.62 60.9516C98.496 60.9516 101.591 61.0054 103.745 61.0054C104.795 61.0054 105.629 61.0054 106.194 61.0054C106.463 61.0054 106.679 61.0054 106.84 61.0054C106.975 61.0054 107.056 61.0054 107.056 61.0054C107.056 61.0054 107.002 61.0054 106.867 61.0054C106.706 61.0054 106.517 61.0054 106.248 61.0054C105.683 61.0054 104.875 61.0054 103.826 61.0054C101.672 61.0054 98.6037 61.0323 94.7277 61.0592C86.9219 61.0592 75.9938 61.1131 63.3699 61.1669H63.1545V60.9516C63.1545 58.6098 63.1545 56.2143 63.1545 53.7379C63.1545 52.4998 63.1545 51.2616 63.1545 49.9965C63.1545 49.3774 63.1545 48.7314 63.1545 48.0854V47.1164V46.632V46.2013V46.1475C63.1545 46.1475 63.5583 45.7168 63.3699 45.9321C80.8118 45.959 96.4773 45.986 107.029 46.0129H107.163V46.1475C107.136 50.7771 107.109 54.4916 107.082 57.0756C107.082 58.3138 107.082 59.2828 107.056 59.9826C107.056 60.2787 107.056 60.5478 107.056 60.7093C107.056 60.8708 107.056 60.9516 107.056 60.9516V61.0862Z" fill="#263239"/>
<path d="M152.518 46.282H108.859V61.0862H152.518V46.282Z" fill="#B84135"/>
<path d="M152.517 61.0862C152.517 61.0862 152.517 60.9785 152.517 60.817C152.517 60.6286 152.517 60.3594 152.517 60.0633C152.517 59.3635 152.517 58.3945 152.49 57.1294C152.49 54.5723 152.436 50.8848 152.41 46.282L152.544 46.4166C141.966 46.4166 126.327 46.4705 108.885 46.4974C108.697 46.6858 109.155 46.2282 109.101 46.282V48.1931C109.101 48.8391 109.101 49.4582 109.101 50.1042C109.101 51.3693 109.101 52.6074 109.101 53.8456C109.101 56.3219 109.101 58.7444 109.101 61.0592L108.885 60.8439C121.429 60.8708 132.303 60.9247 140.082 60.9516C143.958 60.9516 147.053 61.0054 149.206 61.0054C150.256 61.0054 151.091 61.0054 151.656 61.0054C151.925 61.0054 152.14 61.0054 152.302 61.0054C152.436 61.0054 152.517 61.0054 152.517 61.0054C152.517 61.0054 152.463 61.0054 152.329 61.0054C152.167 61.0054 151.979 61.0054 151.71 61.0054C151.144 61.0054 150.337 61.0054 149.287 61.0054C147.134 61.0054 144.065 61.0323 140.189 61.0592C132.384 61.0592 121.455 61.1131 108.832 61.1669H108.616V60.9516C108.616 58.6098 108.616 56.2143 108.616 53.7379C108.616 52.4998 108.616 51.2616 108.616 49.9965C108.616 49.3774 108.616 48.7314 108.616 48.0854V47.1164V46.632V46.2013V46.1475C108.616 46.1475 109.02 45.7168 108.832 45.9321C126.274 45.959 141.939 45.986 152.49 46.0129H152.625V46.1475C152.598 50.7771 152.571 54.4916 152.544 57.0756C152.544 58.3138 152.544 59.2828 152.517 59.9826C152.517 60.2787 152.517 60.5478 152.517 60.7093C152.517 60.8708 152.517 60.9516 152.517 60.9516V61.0862Z" fill="#263239"/>
<path d="M198.815 46.282H155.156V61.0862H198.815V46.282Z" fill="#B84135"/>
<path d="M198.841 61.0862C198.841 61.0862 198.841 60.9785 198.841 60.817C198.841 60.6286 198.841 60.3594 198.841 60.0633C198.841 59.3635 198.841 58.3945 198.814 57.1294C198.814 54.5723 198.761 50.8848 198.734 46.282L198.868 46.4166C188.29 46.4166 172.652 46.4705 155.21 46.4974C155.021 46.6858 155.479 46.2282 155.425 46.282V48.1931C155.425 48.8391 155.425 49.4582 155.425 50.1042C155.425 51.3693 155.425 52.6074 155.425 53.8456C155.425 56.3219 155.425 58.7444 155.425 61.0592L155.21 60.8439C167.753 60.8708 178.627 60.9247 186.406 60.9516C190.282 60.9516 193.377 61.0054 195.531 61.0054C196.58 61.0054 197.415 61.0054 197.98 61.0054C198.249 61.0054 198.465 61.0054 198.626 61.0054C198.761 61.0054 198.841 61.0054 198.841 61.0054C198.841 61.0054 198.788 61.0054 198.653 61.0054C198.491 61.0054 198.303 61.0054 198.034 61.0054C197.469 61.0054 196.661 61.0054 195.611 61.0054C193.458 61.0054 190.39 61.0323 186.514 61.0592C178.708 61.0592 167.78 61.1131 155.156 61.1669H154.94V60.9516C154.94 58.6098 154.94 56.2143 154.94 53.7379C154.94 52.4998 154.94 51.2616 154.94 49.9965C154.94 49.3774 154.94 48.7314 154.94 48.0854V47.1164V46.632V46.2013V46.1475C154.94 46.1475 155.344 45.7168 155.156 45.9321C172.598 45.959 188.263 45.986 198.814 46.0129H198.949V46.1475C198.922 50.7771 198.895 54.4916 198.868 57.0756C198.868 58.3138 198.868 59.2828 198.841 59.9826C198.841 60.2787 198.841 60.5478 198.841 60.7093C198.841 60.8708 198.841 60.9516 198.841 60.9516V61.0862Z" fill="#263239"/>
<path d="M245.272 46.282H201.129V61.0862H245.272V46.282Z" fill="#B84135"/>
<path d="M245.273 61.0861C245.273 61.0861 245.273 60.9785 245.273 60.817C245.273 60.6285 245.273 60.3594 245.273 60.0633C245.273 59.3635 245.273 58.3945 245.246 57.1294C245.246 54.5723 245.192 50.8847 245.165 46.282L245.299 46.4166C234.64 46.4166 218.814 46.4704 201.156 46.4973C201.264 46.3897 200.941 46.7127 201.372 46.282V48.1931C201.372 48.8391 201.372 49.4581 201.372 50.1041C201.372 51.3692 201.372 52.6074 201.372 53.8456C201.372 56.3219 201.372 58.7444 201.372 61.0592L201.156 60.8439C213.834 60.8708 224.843 60.9246 232.702 60.9515C236.632 60.9515 239.755 61.0054 241.935 61.0054C243.012 61.0054 243.819 61.0054 244.411 61.0323C244.68 61.0323 244.896 61.0323 245.057 61.0323C245.192 61.0323 245.273 61.0323 245.299 61.0323C245.299 61.0323 245.246 61.0323 245.084 61.0323C244.923 61.0323 244.707 61.0323 244.465 61.0323C243.873 61.0323 243.065 61.0323 242.016 61.0592C239.835 61.0592 236.713 61.0861 232.837 61.113C224.951 61.113 213.888 61.1669 201.156 61.2207H200.941V61.0054C200.941 58.6636 200.941 56.268 200.941 53.7917C200.941 52.5536 200.941 51.3154 200.941 50.0503C200.941 49.4312 200.941 48.7852 200.941 48.1392V47.1702V46.6857V46.2551V46.2012C201.372 45.7437 201.075 46.0667 201.156 45.9859C218.814 46.0128 234.64 46.0397 245.299 46.0667H245.434V46.2012C245.407 50.8309 245.38 54.5454 245.353 57.1294C245.353 58.3675 245.353 59.3365 245.326 60.0364C245.326 60.3325 245.326 60.6016 245.326 60.7631C245.326 60.9246 245.326 61.0054 245.326 61.0054L245.273 61.0861Z" fill="#263239"/>
<path d="M104.902 80.0085H61.2434V94.8126H104.902V80.0085Z" fill="#B84135"/>
<path d="M104.902 94.7857C104.902 94.7857 104.902 94.678 104.902 94.5165C104.902 94.3281 104.902 94.0589 104.902 93.7629C104.902 93.063 104.902 92.094 104.875 90.829C104.875 88.2719 104.821 84.5843 104.794 79.9816L104.929 80.1161C94.3506 80.1161 78.7121 80.17 61.2701 80.1969C61.0817 80.3853 61.5393 79.9277 61.4855 79.9816V80.4661V80.9506V81.9196C61.4855 82.5656 61.4855 83.1846 61.4855 83.8306C61.4855 85.0957 61.4855 86.3339 61.4855 87.572C61.4855 90.0484 61.4855 92.4709 61.4855 94.7857L61.2701 94.5704C73.8133 94.5973 84.6876 94.6511 92.4665 94.678C96.3425 94.678 99.4379 94.7319 101.591 94.7319C102.641 94.7319 103.475 94.7319 104.041 94.7319C104.31 94.7319 104.525 94.7319 104.687 94.7319C104.821 94.7319 104.902 94.7319 104.902 94.7319C104.902 94.7319 104.848 94.7319 104.714 94.7319C104.552 94.7319 104.364 94.7319 104.094 94.7319C103.529 94.7319 102.722 94.7319 101.672 94.7319C99.5186 94.7319 96.4501 94.7588 92.5741 94.7857C84.7683 94.7857 73.8402 94.8395 61.2163 94.8934H61.001V94.678C61.001 92.3363 61.001 89.9407 61.001 87.4644C61.001 86.2262 61.001 84.988 61.001 83.723C61.001 83.1039 61.001 82.4579 61.001 81.8119V80.8429V80.3584V79.9277V79.8739C61.001 79.8739 61.4047 79.4432 61.2163 79.6586C78.6583 79.6855 94.3237 79.7124 104.875 79.7393H105.01V79.8739C104.983 84.5035 104.956 88.218 104.929 90.802C104.929 92.0402 104.929 93.0092 104.902 93.709C104.902 94.0051 104.902 94.2743 104.902 94.4358C104.902 94.5973 104.902 94.678 104.902 94.678V94.7857Z" fill="#263239"/>
<path d="M150.364 80.0085H106.706V94.8126H150.364V80.0085Z" fill="#B84135"/>
<path d="M150.391 94.7857C150.391 94.7857 150.391 94.678 150.391 94.5165C150.391 94.3281 150.391 94.0589 150.391 93.7629C150.391 93.063 150.391 92.094 150.364 90.829C150.364 88.2719 150.31 84.5843 150.284 79.9816L150.418 80.1161C139.84 80.1161 124.201 80.17 106.759 80.1969C106.571 80.3853 107.029 79.9277 106.975 79.9816V81.8926C106.975 82.5386 106.975 83.1577 106.975 83.8037C106.975 85.0688 106.975 86.307 106.975 87.5451C106.975 90.0215 106.975 92.4439 106.975 94.7588L106.759 94.5434C119.303 94.5704 130.177 94.6242 137.956 94.6511C141.832 94.6511 144.927 94.7049 147.08 94.7049C148.13 94.7049 148.965 94.7049 149.53 94.7049C149.799 94.7049 150.014 94.7049 150.176 94.7049C150.31 94.7049 150.391 94.7049 150.391 94.7049C150.391 94.7049 150.337 94.7049 150.203 94.7049C150.041 94.7049 149.853 94.7049 149.584 94.7049C149.018 94.7049 148.211 94.7049 147.161 94.7049C145.008 94.7049 141.939 94.7319 138.063 94.7588C130.258 94.7588 119.329 94.8126 106.706 94.8664H106.49V94.6511C106.49 92.3094 106.49 89.9138 106.49 87.4375C106.49 86.1993 106.49 84.9611 106.49 83.6961C106.49 83.077 106.49 82.431 106.49 81.785V80.816V80.3315V80.0892V79.9816V79.9277V79.8739C106.49 79.8739 106.894 79.4432 106.706 79.6586C124.148 79.6855 139.813 79.7124 150.364 79.7393H150.499V79.8739C150.472 84.5035 150.445 88.218 150.418 90.802C150.418 92.0402 150.418 93.0092 150.391 93.709C150.391 94.0051 150.391 94.2743 150.391 94.4358C150.391 94.5973 150.391 94.678 150.391 94.678V94.7857Z" fill="#263239"/>
<path d="M196.689 80.0085H153.03V94.8126H196.689V80.0085Z" fill="#B84135"/>
<path d="M196.688 94.7856C196.688 94.7856 196.688 94.678 196.688 94.5165C196.688 94.328 196.688 94.0589 196.688 93.7628C196.688 93.063 196.688 92.094 196.661 90.8289C196.661 88.2718 196.607 84.5842 196.58 79.9815L196.715 80.1161C186.137 80.1161 170.498 80.1699 153.056 80.1968C152.868 80.3852 153.325 79.9277 153.272 79.9815V81.8926C153.272 82.5386 153.272 83.1577 153.272 83.8037C153.272 85.0687 153.272 86.3069 153.272 87.5451C153.272 90.0214 153.272 92.4439 153.272 94.7587L153.056 94.5434C165.599 94.5703 176.474 94.6241 184.253 94.651C188.129 94.651 191.224 94.7049 193.377 94.7049C194.427 94.7049 195.262 94.7049 195.827 94.7049C196.096 94.7049 196.311 94.7049 196.473 94.7049C196.607 94.7049 196.688 94.7049 196.688 94.7049C196.688 94.7049 196.634 94.7049 196.5 94.7049C196.338 94.7049 196.15 94.7049 195.881 94.7049C195.315 94.7049 194.508 94.7049 193.458 94.7049C191.305 94.7049 188.236 94.7318 184.36 94.7587C176.554 94.7587 165.626 94.8125 153.002 94.8664H152.787V94.651C152.787 92.3093 152.787 89.9137 152.787 87.4374C152.787 86.1992 152.787 84.9611 152.787 83.696C152.787 83.0769 152.787 82.4309 152.787 81.7849V80.8159V80.3314V79.9007V79.8469C152.787 79.8469 153.191 79.4162 153.002 79.6316C170.444 79.6585 186.11 79.6854 196.661 79.7123H196.796V79.8469C196.769 84.4766 196.742 88.1911 196.715 90.7751C196.715 92.0132 196.715 92.9822 196.688 93.682C196.688 93.9781 196.688 94.2473 196.688 94.4088C196.688 94.5703 196.688 94.651 196.688 94.651V94.7856Z" fill="#263239"/>
<path d="M245.3 80.0085H199.488V94.8126H245.3V80.0085Z" fill="#B84135"/>
<path d="M245.272 94.7858C245.272 94.7858 245.272 94.6781 245.272 94.5166C245.272 94.3282 245.272 94.0859 245.272 93.7629C245.272 93.0631 245.272 92.0941 245.246 90.829C245.246 88.272 245.192 84.5844 245.165 79.9816L245.299 80.1162C234.344 80.1162 217.871 80.1701 199.487 80.197C199.595 80.0893 199.272 80.4123 199.703 79.9816V81.8927C199.703 82.5387 199.703 83.1578 199.703 83.8038C199.703 85.0689 199.703 86.307 199.703 87.5452C199.703 90.0215 199.703 92.444 199.703 94.7858L199.487 94.5704C212.623 94.5974 224.035 94.6512 232.218 94.6781C236.282 94.6781 239.539 94.7319 241.8 94.7319C242.904 94.7319 243.765 94.7319 244.384 94.7588C244.653 94.7588 244.896 94.7588 245.057 94.7588C245.219 94.7588 245.299 94.7588 245.299 94.7588C245.299 94.7588 245.246 94.7588 245.084 94.7588C244.923 94.7588 244.707 94.7588 244.438 94.7588C243.846 94.7588 242.985 94.7588 241.908 94.7858C239.647 94.7858 236.417 94.8127 232.352 94.8396C224.143 94.8396 212.676 94.8934 199.487 94.9473H199.272V94.7319C199.272 92.3902 199.272 89.9677 199.272 87.4914C199.272 86.2532 199.272 85.015 199.272 83.75C199.272 83.1309 199.272 82.4849 199.272 81.8389V80.8699V80.3854V79.9547V79.9009C199.703 79.4433 199.407 79.7663 199.487 79.6856C217.871 79.7125 234.344 79.7394 245.299 79.7663H245.434V79.9009C245.407 84.5575 245.38 88.245 245.353 90.829C245.353 92.0672 245.353 93.0362 245.326 93.7091C245.326 94.0052 245.326 94.2474 245.326 94.4359C245.326 94.5974 245.326 94.6781 245.326 94.6781L245.272 94.7858Z" fill="#263239"/>
<path d="M127.405 63.1856H83.7461V77.9897H127.405V63.1856Z" fill="#B84135"/>
<path d="M127.431 77.9897C127.431 77.9897 127.431 77.8821 127.431 77.7206C127.431 77.5321 127.431 77.263 127.431 76.9669C127.431 76.2671 127.432 75.2981 127.405 74.033C127.405 71.4759 127.351 67.7883 127.324 63.1856L127.458 63.3202C116.88 63.3202 101.242 63.374 83.7997 63.4009C83.6113 63.5893 84.0689 63.1318 84.015 63.1856V65.0967C84.015 65.7427 84.015 66.3618 84.015 67.0078C84.015 68.2728 84.015 69.511 84.015 70.7492C84.015 73.2255 84.015 75.648 84.015 77.9628L83.7997 77.7475C96.3428 77.7744 107.217 77.8282 114.996 77.8551C118.872 77.8551 121.967 77.909 124.121 77.909C125.171 77.909 126.005 77.909 126.57 77.9359C126.839 77.9359 127.055 77.9359 127.216 77.9359C127.351 77.9359 127.431 77.9359 127.431 77.9359C127.431 77.9359 127.378 77.9359 127.243 77.9359C127.082 77.9359 126.893 77.9359 126.624 77.9359C126.059 77.9359 125.251 77.9359 124.202 77.9359C122.048 77.9359 118.98 77.9628 115.104 77.9897C107.298 77.9897 96.3697 78.0436 83.7459 78.0974H83.5305V77.8821C83.5305 75.5403 83.5305 73.1447 83.5305 70.6684C83.5305 69.4303 83.5305 68.1921 83.5305 66.927C83.5305 66.3079 83.5305 65.6619 83.5305 65.0159V64.0469V63.5624V63.1318V63.0779C83.5305 63.0779 83.9343 62.6473 83.7459 62.8626C101.188 62.8895 116.853 62.9164 127.405 62.9434H127.539V63.0779C127.512 67.7076 127.485 71.4221 127.458 74.0061C127.458 75.2442 127.458 76.2132 127.431 76.9131C127.431 77.2091 127.431 77.4783 127.431 77.6398C127.431 77.8013 127.431 77.8821 127.431 77.8821V77.9897Z" fill="#263239"/>
<path d="M173.729 63.1856H130.07V77.9897H173.729V63.1856Z" fill="#B84135"/>
<path d="M173.728 77.9897C173.728 77.9897 173.728 77.8821 173.728 77.7206C173.728 77.5321 173.728 77.263 173.728 76.9669C173.728 76.2671 173.728 75.2981 173.701 74.033C173.701 71.4759 173.647 67.7883 173.62 63.1856L173.755 63.3202C163.177 63.3202 147.538 63.374 130.096 63.4009C129.908 63.5893 130.365 63.1318 130.312 63.1856V65.0967C130.312 65.7427 130.312 66.3618 130.312 67.0078C130.312 68.2728 130.312 69.511 130.312 70.7492C130.312 73.2255 130.312 75.648 130.312 77.9628L130.096 77.7475C142.639 77.7744 153.514 77.8282 161.293 77.8551C165.169 77.8551 168.264 77.909 170.417 77.909C171.467 77.909 172.302 77.909 172.867 77.9359C173.136 77.9359 173.351 77.9359 173.513 77.9359C173.647 77.9359 173.728 77.9359 173.728 77.9359C173.728 77.9359 173.674 77.9359 173.54 77.9359C173.378 77.9359 173.19 77.9359 172.921 77.9359C172.355 77.9359 171.548 77.9359 170.498 77.9359C168.345 77.9359 165.276 77.9628 161.4 77.9897C153.595 77.9897 142.666 78.0436 130.042 78.0974H129.827V77.8821C129.827 75.5403 129.827 73.1447 129.827 70.6684C129.827 69.4303 129.827 68.1921 129.827 66.927C129.827 66.3079 129.827 65.6619 129.827 65.0159V64.0469V63.5624V63.1318V63.0779C129.827 63.0779 130.231 62.6473 130.042 62.8626C147.484 62.8895 163.15 62.9164 173.701 62.9434H173.836V63.0779C173.809 67.7076 173.782 71.4221 173.755 74.0061C173.755 75.2442 173.755 76.2132 173.728 76.9131C173.728 77.2091 173.728 77.4783 173.728 77.6398C173.728 77.8013 173.728 77.8821 173.728 77.8821V77.9897Z" fill="#263239"/>
<path d="M220.16 63.1856H176.501V77.9897H220.16V63.1856Z" fill="#B84135"/>
<path d="M220.186 77.9897C220.186 77.9897 220.186 77.8821 220.186 77.7206C220.186 77.5321 220.186 77.263 220.186 76.9669C220.186 76.2671 220.186 75.2981 220.159 74.033C220.159 71.4759 220.105 67.7883 220.078 63.1856L220.213 63.3202C209.635 63.3202 193.996 63.374 176.554 63.4009C176.366 63.5893 176.823 63.1318 176.77 63.1856V65.0967C176.77 65.7427 176.77 66.3618 176.77 67.0078C176.77 68.2728 176.77 69.511 176.77 70.7492C176.77 73.2255 176.77 75.648 176.77 77.9628L176.554 77.7475C189.097 77.7744 199.972 77.8282 207.751 77.8551C211.627 77.8551 214.722 77.909 216.875 77.909C217.925 77.909 218.76 77.909 219.325 77.9359C219.594 77.9359 219.809 77.9359 219.971 77.9359C220.105 77.9359 220.186 77.9359 220.186 77.9359C220.186 77.9359 220.132 77.9359 219.998 77.9359C219.836 77.9359 219.648 77.9359 219.379 77.9359C218.813 77.9359 218.006 77.9359 216.956 77.9359C214.803 77.9359 211.734 77.9628 207.858 77.9897C200.053 77.9897 189.124 78.0436 176.5 78.0974H176.285V77.8821C176.285 75.5403 176.285 73.1447 176.285 70.6684C176.285 69.4303 176.285 68.1921 176.285 66.927C176.285 66.3079 176.285 65.6619 176.285 65.0159V64.0469V63.5624V63.1318V63.0779C176.285 63.0779 176.689 62.6473 176.5 62.8626C193.942 62.8895 209.608 62.9164 220.159 62.9434H220.294V63.0779C220.267 67.7076 220.24 71.4221 220.213 74.0061C220.213 75.2442 220.213 76.2132 220.186 76.9131C220.186 77.2091 220.186 77.4783 220.186 77.6398C220.186 77.8013 220.186 77.8821 220.186 77.8821V77.9897Z" fill="#263239"/>
<path d="M245.272 63.1856H222.958V77.9897H245.272V63.1856Z" fill="#B84135"/>
<path d="M245.272 77.9898C245.272 77.9898 245.272 77.8821 245.272 77.6937C245.272 77.4784 245.272 77.2361 245.272 76.9131C245.272 76.1864 245.272 75.1905 245.218 73.9254C245.218 71.3145 245.165 67.6538 245.138 63.1857L245.299 63.3472C239.135 63.3472 231.383 63.3741 222.985 63.401C222.931 63.4548 223.389 62.9972 223.201 63.1857V65.1506C223.201 65.7966 223.201 66.4426 223.201 67.0886C223.201 68.3806 223.201 69.6187 223.201 70.8569C223.201 73.3332 223.201 75.7019 223.201 77.9898L223.012 77.8014C229.526 77.8283 235.071 77.8821 239.028 77.909C240.966 77.909 242.527 77.9629 243.63 77.9629C244.142 77.9629 244.545 77.9629 244.868 77.9629C245.165 77.9629 245.299 77.9629 245.299 77.9629C245.299 77.9629 245.164 77.9629 244.895 77.9629C244.599 77.9629 244.196 77.9629 243.684 77.9629C242.581 77.9629 241.046 77.9898 239.108 78.0167C235.125 78.0167 229.526 78.0705 222.958 78.1244H222.77V77.936C222.77 75.675 222.77 73.2794 222.77 70.8031C222.77 69.5649 222.77 68.2998 222.77 67.0347C222.77 66.3887 222.77 65.7427 222.77 65.0967V64.1277V63.6432V63.2126V63.1587C222.581 63.3472 223.039 62.8896 222.985 62.9165C231.383 62.9165 239.135 62.9434 245.299 62.9703H245.461V63.1318C245.434 67.6269 245.38 71.3414 245.38 73.9792C245.38 75.2174 245.353 76.2133 245.326 76.94C245.326 77.263 245.326 77.5053 245.326 77.6937C245.326 77.8552 245.326 77.936 245.326 77.936L245.272 77.9898Z" fill="#263239"/>
<path d="M104.902 113.789H61.2434V128.593H104.902V113.789Z" fill="#B84135"/>
<path d="M104.902 128.593C104.902 128.593 104.902 128.485 104.902 128.324C104.902 128.135 104.902 127.866 104.902 127.57C104.902 126.87 104.902 125.901 104.875 124.636C104.875 122.079 104.821 118.392 104.794 113.789L104.929 113.923C94.3506 113.923 78.7121 113.977 61.2701 114.004C61.0817 114.193 61.5393 113.735 61.4855 113.789V114.273V114.758V115.727C61.4855 116.373 61.4855 116.992 61.4855 117.638C61.4855 118.903 61.4855 120.141 61.4855 121.379C61.4855 123.856 61.4855 126.278 61.4855 128.593L61.2701 128.378C73.8133 128.405 84.6876 128.458 92.4665 128.485C96.3425 128.485 99.4379 128.539 101.591 128.539C102.641 128.539 103.475 128.539 104.041 128.539C104.31 128.539 104.525 128.539 104.687 128.539C104.821 128.539 104.902 128.539 104.902 128.539C104.902 128.539 104.848 128.539 104.714 128.539C104.552 128.539 104.364 128.539 104.094 128.539C103.529 128.539 102.722 128.539 101.672 128.539C99.5186 128.539 96.4501 128.566 92.5741 128.593C84.7683 128.593 73.8402 128.647 61.2163 128.701H61.001V128.485C61.001 126.144 61.001 123.748 61.001 121.272C61.001 120.033 61.001 118.795 61.001 117.53C61.001 116.911 61.001 116.265 61.001 115.619V114.65V114.166V113.735V113.681C61.001 113.681 61.4047 113.25 61.2163 113.466C78.6583 113.493 94.3237 113.52 104.875 113.547H105.01V113.681C104.983 118.311 104.956 122.025 104.929 124.609C104.929 125.847 104.929 126.816 104.902 127.516C104.902 127.812 104.902 128.082 104.902 128.243C104.902 128.405 104.902 128.485 104.902 128.485V128.593Z" fill="#263239"/>
<path d="M150.364 113.789H106.706V128.593H150.364V113.789Z" fill="#B84135"/>
<path d="M150.391 128.593C150.391 128.593 150.391 128.485 150.391 128.324C150.391 128.135 150.391 127.866 150.391 127.57C150.391 126.87 150.391 125.901 150.364 124.636C150.364 122.079 150.31 118.392 150.284 113.789L150.418 113.923C139.84 113.923 124.201 113.977 106.759 114.004C106.571 114.193 107.029 113.735 106.975 113.789V115.7C106.975 116.346 106.975 116.965 106.975 117.611C106.975 118.876 106.975 120.114 106.975 121.352C106.975 123.829 106.975 126.251 106.975 128.566L106.759 128.351C119.303 128.378 130.177 128.431 137.956 128.458C141.832 128.458 144.927 128.512 147.08 128.512C148.13 128.512 148.965 128.512 149.53 128.512C149.799 128.512 150.014 128.512 150.176 128.512C150.31 128.512 150.391 128.512 150.391 128.512C150.391 128.512 150.337 128.512 150.203 128.512C150.041 128.512 149.853 128.512 149.584 128.512C149.018 128.512 148.211 128.512 147.161 128.512C145.008 128.512 141.939 128.539 138.063 128.566C130.258 128.566 119.329 128.62 106.706 128.674H106.49V128.458C106.49 126.117 106.49 123.721 106.49 121.245C106.49 120.007 106.49 118.768 106.49 117.503C106.49 116.884 106.49 116.238 106.49 115.592V114.623V114.139V113.896V113.789V113.735V113.681C106.49 113.681 106.894 113.25 106.706 113.466C124.148 113.493 139.813 113.52 150.364 113.547H150.499V113.681C150.472 118.311 150.445 122.025 150.418 124.609C150.418 125.847 150.418 126.816 150.391 127.516C150.391 127.812 150.391 128.082 150.391 128.243C150.391 128.405 150.391 128.485 150.391 128.485V128.593Z" fill="#263239"/>
<path d="M196.689 113.789H153.03V128.593H196.689V113.789Z" fill="#B84135"/>
<path d="M196.688 128.593C196.688 128.593 196.688 128.485 196.688 128.324C196.688 128.135 196.688 127.866 196.688 127.57C196.688 126.87 196.688 125.901 196.661 124.636C196.661 122.079 196.607 118.391 196.58 113.789L196.715 113.923C186.137 113.923 170.498 113.977 153.056 114.004C152.868 114.192 153.325 113.735 153.272 113.789V115.7C153.272 116.346 153.272 116.965 153.272 117.611C153.272 118.876 153.272 120.114 153.272 121.352C153.272 123.829 153.272 126.251 153.272 128.566L153.056 128.351C165.599 128.378 176.474 128.431 184.253 128.458C188.129 128.458 191.224 128.512 193.377 128.512C194.427 128.512 195.262 128.512 195.827 128.512C196.096 128.512 196.311 128.512 196.473 128.512C196.607 128.512 196.688 128.512 196.688 128.512C196.688 128.512 196.634 128.512 196.5 128.512C196.338 128.512 196.15 128.512 195.881 128.512C195.315 128.512 194.508 128.512 193.458 128.512C191.305 128.512 188.236 128.539 184.36 128.566C176.554 128.566 165.626 128.62 153.002 128.674H152.787V128.458C152.787 126.117 152.787 123.721 152.787 121.245C152.787 120.006 152.787 118.768 152.787 117.503C152.787 116.884 152.787 116.238 152.787 115.592V114.623V114.139V113.708V113.654C152.787 113.654 153.191 113.224 153.002 113.439C170.444 113.466 186.11 113.493 196.661 113.52H196.796V113.654C196.769 118.284 196.742 121.998 196.715 124.582C196.715 125.82 196.715 126.789 196.688 127.489C196.688 127.785 196.688 128.055 196.688 128.216C196.688 128.378 196.688 128.458 196.688 128.458V128.593Z" fill="#263239"/>
<path d="M245.3 113.789H199.488V128.593H245.3V113.789Z" fill="#B84135"/>
<path d="M245.272 128.593C245.272 128.593 245.272 128.485 245.272 128.324C245.272 128.135 245.272 127.893 245.272 127.57C245.272 126.87 245.272 125.901 245.246 124.636C245.246 122.079 245.192 118.392 245.165 113.789L245.299 113.923C234.344 113.923 217.871 113.977 199.487 114.004C199.595 113.897 199.272 114.22 199.703 113.789V115.7C199.703 116.346 199.703 116.965 199.703 117.611C199.703 118.876 199.703 120.114 199.703 121.352C199.703 123.829 199.703 126.251 199.703 128.593L199.487 128.378C212.623 128.405 224.035 128.458 232.218 128.485C236.282 128.485 239.539 128.539 241.8 128.539C242.904 128.539 243.765 128.539 244.384 128.566C244.653 128.566 244.896 128.566 245.057 128.566C245.219 128.566 245.299 128.566 245.299 128.566C245.299 128.566 245.246 128.566 245.084 128.566C244.923 128.566 244.707 128.566 244.438 128.566C243.846 128.566 242.985 128.566 241.908 128.593C239.647 128.593 236.417 128.62 232.352 128.647C224.143 128.647 212.676 128.701 199.487 128.755H199.272V128.539C199.272 126.197 199.272 123.775 199.272 121.299C199.272 120.06 199.272 118.822 199.272 117.557C199.272 116.938 199.272 116.292 199.272 115.646V114.677V114.193V113.762V113.708C199.703 113.251 199.407 113.574 199.487 113.493C217.871 113.52 234.344 113.547 245.299 113.574H245.434V113.708C245.407 118.365 245.38 122.052 245.353 124.636C245.353 125.874 245.353 126.843 245.326 127.516C245.326 127.812 245.326 128.055 245.326 128.243C245.326 128.405 245.326 128.485 245.326 128.485L245.272 128.593Z" fill="#263239"/>
<path d="M127.835 96.9659H84.1765V111.77H127.835V96.9659Z" fill="#B84135"/>
<path d="M127.862 111.77C127.862 111.77 127.862 111.662 127.862 111.501C127.862 111.312 127.862 111.043 127.862 110.747C127.862 110.047 127.862 109.078 127.835 107.813C127.835 105.256 127.781 101.569 127.754 96.9659L127.889 97.1005C117.311 97.1005 101.672 97.1543 84.2301 97.1812C84.0417 97.3696 84.4993 96.912 84.4454 96.9659V98.877C84.4454 99.523 84.4454 100.142 84.4454 100.788C84.4454 102.053 84.4454 103.318 84.4454 104.529C84.4454 107.006 84.4454 109.428 84.4454 111.743L84.2301 111.528C96.7732 111.555 107.648 111.609 115.426 111.635C119.302 111.635 122.398 111.689 124.551 111.689C125.601 111.689 126.435 111.689 127.001 111.689C127.27 111.689 127.485 111.689 127.647 111.689C127.781 111.689 127.862 111.689 127.862 111.689C127.862 111.689 127.808 111.689 127.674 111.689C127.512 111.689 127.324 111.689 127.054 111.689C126.489 111.689 125.682 111.689 124.632 111.689C122.479 111.689 119.41 111.716 115.534 111.743C107.728 111.743 96.8002 111.797 84.1763 111.851H83.9609V111.635C83.9609 109.294 83.9609 106.898 83.9609 104.422C83.9609 103.184 83.9609 101.945 83.9609 100.68C83.9609 100.061 83.9609 99.4153 83.9609 98.7693V97.8003V97.3158V96.8851V96.8313C83.9609 96.8313 84.3647 96.4006 84.1763 96.616C101.618 96.6429 117.284 96.6698 127.835 96.6967H127.97V96.8313C127.943 101.461 127.916 105.175 127.889 107.759C127.889 108.998 127.889 109.967 127.862 110.666C127.862 110.963 127.862 111.232 127.862 111.393C127.862 111.555 127.862 111.635 127.862 111.635V111.77Z" fill="#263239"/>
<path d="M174.158 96.9659H130.5V111.77H174.158V96.9659Z" fill="#B84135"/>
<path d="M174.158 111.77C174.158 111.77 174.158 111.662 174.158 111.501C174.158 111.312 174.158 111.043 174.158 110.747C174.158 110.047 174.158 109.078 174.131 107.813C174.131 105.256 174.078 101.569 174.051 96.9659L174.185 97.1005C163.607 97.1005 147.968 97.1543 130.526 97.1812C130.338 97.3696 130.796 96.912 130.742 96.9659V98.877C130.742 99.523 130.742 100.142 130.742 100.788C130.742 102.053 130.742 103.318 130.742 104.529C130.742 107.006 130.742 109.428 130.742 111.743L130.526 111.528C143.07 111.555 153.944 111.609 161.723 111.635C165.599 111.635 168.694 111.689 170.848 111.689C171.897 111.689 172.732 111.689 173.297 111.689C173.566 111.689 173.781 111.689 173.943 111.689C174.078 111.689 174.158 111.689 174.158 111.689C174.158 111.689 174.104 111.689 173.97 111.689C173.808 111.689 173.62 111.689 173.351 111.689C172.786 111.689 171.978 111.689 170.928 111.689C168.775 111.689 165.706 111.716 161.83 111.743C154.025 111.743 143.097 111.797 130.473 111.851H130.257V111.635C130.257 109.294 130.257 106.898 130.257 104.422C130.257 103.184 130.257 101.945 130.257 100.68C130.257 100.061 130.257 99.4153 130.257 98.7693V97.8003V97.3158V96.8851V96.8313C130.257 96.8313 130.661 96.4006 130.473 96.616C147.915 96.6429 163.58 96.6698 174.131 96.6967H174.266V96.8313C174.239 101.461 174.212 105.175 174.185 107.759C174.185 108.998 174.185 109.967 174.158 110.666C174.158 110.963 174.158 111.232 174.158 111.393C174.158 111.555 174.158 111.635 174.158 111.635V111.77Z" fill="#263239"/>
<path d="M220.16 96.9659H176.501V111.77H220.16V96.9659Z" fill="#B84135"/>
<path d="M220.186 111.77C220.186 111.77 220.186 111.662 220.186 111.501C220.186 111.312 220.186 111.043 220.186 110.747C220.186 110.047 220.186 109.078 220.159 107.813C220.159 105.256 220.105 101.569 220.078 96.9659L220.213 97.1005C209.635 97.1005 193.996 97.1543 176.554 97.1812C176.366 97.3696 176.823 96.912 176.77 96.9659V98.877C176.77 99.523 176.77 100.142 176.77 100.788C176.77 102.053 176.77 103.318 176.77 104.529C176.77 107.006 176.77 109.428 176.77 111.743L176.554 111.528C189.097 111.555 199.972 111.609 207.751 111.635C211.627 111.635 214.722 111.689 216.875 111.689C217.925 111.689 218.76 111.689 219.325 111.689C219.594 111.689 219.809 111.689 219.971 111.689C220.105 111.689 220.186 111.689 220.186 111.689C220.186 111.689 220.132 111.689 219.998 111.689C219.836 111.689 219.648 111.689 219.379 111.689C218.813 111.689 218.006 111.689 216.956 111.689C214.803 111.689 211.734 111.716 207.858 111.743C200.053 111.743 189.124 111.797 176.5 111.851H176.285V111.635C176.285 109.294 176.285 106.898 176.285 104.422C176.285 103.184 176.285 101.945 176.285 100.68C176.285 100.061 176.285 99.4153 176.285 98.7693V97.8003V97.3158V96.8851V96.8313C176.285 96.8313 176.689 96.4006 176.5 96.616C193.942 96.6429 209.608 96.6698 220.159 96.6967H220.294V96.8313C220.267 101.461 220.24 105.175 220.213 107.759C220.213 108.998 220.213 109.967 220.186 110.666C220.186 110.963 220.186 111.232 220.186 111.393C220.186 111.555 220.186 111.635 220.186 111.635V111.77Z" fill="#263239"/>
<path d="M245.272 96.939H222.958V111.743H245.272V96.939Z" fill="#B84135"/>
<path d="M245.272 111.743C245.272 111.743 245.272 111.635 245.272 111.447C245.272 111.232 245.272 110.989 245.272 110.666C245.272 109.94 245.272 108.944 245.218 107.679C245.218 105.068 245.165 101.407 245.138 96.939L245.299 97.1005C239.135 97.1005 231.383 97.1274 222.985 97.1543C222.931 97.2082 223.389 96.7506 223.201 96.939V98.9039C223.201 99.5499 223.201 100.196 223.201 100.842C223.201 102.134 223.201 103.372 223.201 104.61C223.201 107.087 223.201 109.455 223.201 111.743L223.012 111.555C229.526 111.582 235.071 111.635 239.028 111.662C240.966 111.662 242.527 111.716 243.63 111.716C244.142 111.716 244.545 111.716 244.868 111.716C245.165 111.716 245.299 111.716 245.299 111.716C245.299 111.716 245.164 111.716 244.895 111.716C244.599 111.716 244.196 111.716 243.684 111.716C242.581 111.716 241.046 111.743 239.108 111.77C235.125 111.77 229.526 111.824 222.958 111.878H222.77V111.689C222.77 109.428 222.77 107.033 222.77 104.556C222.77 103.318 222.77 102.053 222.77 100.788C222.77 100.142 222.77 99.4961 222.77 98.8501V97.8811V97.3966V96.9659V96.9121C222.581 97.1005 223.039 96.6429 222.985 96.6698C231.383 96.6698 239.135 96.6968 245.299 96.7237H245.461V96.8852C245.434 101.38 245.38 105.095 245.38 107.733C245.38 108.971 245.353 109.967 245.326 110.693C245.326 111.016 245.326 111.259 245.326 111.447C245.326 111.609 245.326 111.689 245.326 111.689L245.272 111.743Z" fill="#263239"/>
<path d="M104.902 147.3H61.2434V162.104H104.902V147.3Z" fill="#B84135"/>
<path d="M104.902 162.104C104.902 162.104 104.902 161.996 104.902 161.835C104.902 161.647 104.902 161.377 104.902 161.081C104.902 160.381 104.902 159.412 104.875 158.147C104.875 155.59 104.821 151.903 104.794 147.3L104.929 147.435C94.3506 147.435 78.7121 147.488 61.2701 147.515C61.0817 147.704 61.5393 147.246 61.4855 147.3V147.784V148.269V149.238C61.4855 149.884 61.4855 150.503 61.4855 151.149C61.4855 152.414 61.4855 153.652 61.4855 154.89C61.4855 157.367 61.4855 159.789 61.4855 162.104L61.2701 161.889C73.8133 161.916 84.6876 161.97 92.4665 161.996C96.3425 161.996 99.4379 162.05 101.591 162.05C102.641 162.05 103.475 162.05 104.041 162.05C104.31 162.05 104.525 162.05 104.687 162.05C104.821 162.05 104.902 162.05 104.902 162.05C104.902 162.05 104.848 162.05 104.714 162.05C104.552 162.05 104.364 162.05 104.094 162.05C103.529 162.05 102.722 162.05 101.672 162.05C99.5186 162.05 96.4501 162.077 92.5741 162.104C84.7683 162.104 73.8402 162.158 61.2163 162.212H61.001V161.996C61.001 159.655 61.001 157.259 61.001 154.783C61.001 153.545 61.001 152.306 61.001 151.041C61.001 150.422 61.001 149.776 61.001 149.13V148.161V147.677V147.246V147.192C61.001 147.192 61.4047 146.762 61.2163 146.977C78.6583 147.004 94.3237 147.031 104.875 147.058H105.01V147.192C104.983 151.822 104.956 155.536 104.929 158.12C104.929 159.359 104.929 160.328 104.902 161.027C104.902 161.324 104.902 161.593 104.902 161.754C104.902 161.916 104.902 161.996 104.902 161.996V162.104Z" fill="#263239"/>
<path d="M150.364 147.3H106.706V162.104H150.364V147.3Z" fill="#B84135"/>
<path d="M150.391 162.104C150.391 162.104 150.391 161.996 150.391 161.835C150.391 161.647 150.391 161.377 150.391 161.081C150.391 160.381 150.391 159.412 150.364 158.147C150.364 155.59 150.31 151.903 150.284 147.3L150.418 147.435C139.84 147.435 124.201 147.488 106.759 147.515C106.571 147.704 107.029 147.246 106.975 147.3V149.211C106.975 149.857 106.975 150.476 106.975 151.122C106.975 152.387 106.975 153.625 106.975 154.864C106.975 157.34 106.975 159.762 106.975 162.077L106.759 161.862C119.303 161.889 130.177 161.943 137.956 161.97C141.832 161.97 144.927 162.023 147.08 162.023C148.13 162.023 148.965 162.023 149.53 162.023C149.799 162.023 150.014 162.023 150.176 162.023C150.31 162.023 150.391 162.023 150.391 162.023C150.391 162.023 150.337 162.023 150.203 162.023C150.041 162.023 149.853 162.023 149.584 162.023C149.018 162.023 148.211 162.023 147.161 162.023C145.008 162.023 141.939 162.05 138.063 162.077C130.258 162.077 119.329 162.131 106.706 162.185H106.49V161.97C106.49 159.628 106.49 157.232 106.49 154.756C106.49 153.518 106.49 152.28 106.49 151.014C106.49 150.395 106.49 149.749 106.49 149.103V148.134V147.65V147.408V147.3V147.246V147.192C106.49 147.192 106.894 146.762 106.706 146.977C124.148 147.004 139.813 147.031 150.364 147.058H150.499V147.192C150.472 151.822 150.445 155.536 150.418 158.12C150.418 159.359 150.418 160.328 150.391 161.027C150.391 161.324 150.391 161.593 150.391 161.754C150.391 161.916 150.391 161.996 150.391 161.996V162.104Z" fill="#263239"/>
<path d="M196.689 147.3H153.03V162.104H196.689V147.3Z" fill="#B84135"/>
<path d="M196.688 162.104C196.688 162.104 196.688 161.996 196.688 161.835C196.688 161.647 196.688 161.377 196.688 161.081C196.688 160.381 196.688 159.412 196.661 158.147C196.661 155.59 196.607 151.903 196.58 147.3L196.715 147.435C186.137 147.435 170.498 147.488 153.056 147.515C152.868 147.704 153.325 147.246 153.272 147.3V149.211C153.272 149.857 153.272 150.476 153.272 151.122C153.272 152.387 153.272 153.625 153.272 154.864C153.272 157.34 153.272 159.762 153.272 162.077L153.056 161.862C165.599 161.889 176.474 161.943 184.253 161.97C188.129 161.97 191.224 162.023 193.377 162.023C194.427 162.023 195.262 162.023 195.827 162.023C196.096 162.023 196.311 162.023 196.473 162.023C196.607 162.023 196.688 162.023 196.688 162.023C196.688 162.023 196.634 162.023 196.5 162.023C196.338 162.023 196.15 162.023 195.881 162.023C195.315 162.023 194.508 162.023 193.458 162.023C191.305 162.023 188.236 162.05 184.36 162.077C176.554 162.077 165.626 162.131 153.002 162.185H152.787V161.97C152.787 159.628 152.787 157.232 152.787 154.756C152.787 153.518 152.787 152.28 152.787 151.014C152.787 150.395 152.787 149.749 152.787 149.103V148.134V147.65V147.219V147.165C152.787 147.165 153.191 146.735 153.002 146.95C170.444 146.977 186.11 147.004 196.661 147.031H196.796V147.165C196.769 151.795 196.742 155.51 196.715 158.094C196.715 159.332 196.715 160.301 196.688 161.001C196.688 161.297 196.688 161.566 196.688 161.727C196.688 161.889 196.688 161.97 196.688 161.97V162.104Z" fill="#263239"/>
<path d="M245.3 147.3H199.488V162.104H245.3V147.3Z" fill="#B84135"/>
<path d="M245.272 162.104C245.272 162.104 245.272 161.997 245.272 161.835C245.272 161.647 245.272 161.404 245.272 161.081C245.272 160.382 245.272 159.413 245.246 158.147C245.246 155.59 245.192 151.903 245.165 147.3L245.299 147.435C234.344 147.435 217.871 147.488 199.487 147.515C199.595 147.408 199.272 147.731 199.703 147.3V149.211C199.703 149.857 199.703 150.476 199.703 151.122C199.703 152.387 199.703 153.625 199.703 154.864C199.703 157.34 199.703 159.762 199.703 162.104L199.487 161.889C212.623 161.916 224.035 161.97 232.218 161.997C236.282 161.997 239.539 162.05 241.8 162.05C242.904 162.05 243.765 162.05 244.384 162.077C244.653 162.077 244.896 162.077 245.057 162.077C245.219 162.077 245.299 162.077 245.299 162.077C245.299 162.077 245.246 162.077 245.084 162.077C244.923 162.077 244.707 162.077 244.438 162.077C243.846 162.077 242.985 162.077 241.908 162.104C239.647 162.104 236.417 162.131 232.352 162.158C224.143 162.158 212.676 162.212 199.487 162.266H199.272V162.05C199.272 159.709 199.272 157.286 199.272 154.81C199.272 153.572 199.272 152.333 199.272 151.068C199.272 150.449 199.272 149.803 199.272 149.157V148.188V147.704V147.273V147.219C199.703 146.762 199.407 147.085 199.487 147.004C217.871 147.031 234.344 147.058 245.299 147.085H245.434V147.219C245.407 151.876 245.38 155.563 245.353 158.147C245.353 159.386 245.353 160.355 245.326 161.028C245.326 161.324 245.326 161.566 245.326 161.754C245.326 161.916 245.326 161.997 245.326 161.997L245.272 162.104Z" fill="#263239"/>
<path d="M127.405 130.477H83.7461V145.281H127.405V130.477Z" fill="#B84135"/>
<path d="M127.431 145.281C127.431 145.281 127.431 145.174 127.431 145.012C127.431 144.824 127.431 144.554 127.431 144.258C127.431 143.559 127.432 142.59 127.405 141.324C127.405 138.767 127.351 135.08 127.324 130.477L127.458 130.612C116.88 130.612 101.242 130.666 83.7997 130.692C83.6113 130.881 84.0689 130.423 84.015 130.477V132.388C84.015 133.034 84.015 133.653 84.015 134.299C84.015 135.564 84.015 136.829 84.015 138.041C84.015 140.517 84.015 142.939 84.015 145.254L83.7997 145.039C96.3428 145.066 107.217 145.12 114.996 145.147C118.872 145.147 121.967 145.2 124.121 145.2C125.171 145.2 126.005 145.2 126.57 145.2C126.839 145.2 127.055 145.2 127.216 145.2C127.351 145.2 127.431 145.2 127.431 145.2C127.431 145.2 127.378 145.2 127.243 145.2C127.082 145.2 126.893 145.2 126.624 145.2C126.059 145.2 125.251 145.2 124.202 145.227C122.048 145.227 118.98 145.254 115.104 145.281C107.298 145.281 96.3697 145.335 83.7459 145.389H83.5305V145.174C83.5305 142.832 83.5305 140.436 83.5305 137.96C83.5305 136.722 83.5305 135.484 83.5305 134.219C83.5305 133.599 83.5305 132.953 83.5305 132.307V131.338V130.854V130.423V130.369C83.5305 130.369 83.9343 129.939 83.7459 130.154C101.188 130.181 116.853 130.208 127.405 130.235H127.539V130.369C127.512 134.999 127.485 138.714 127.458 141.298C127.458 142.536 127.458 143.505 127.431 144.205C127.431 144.501 127.431 144.77 127.431 144.931C127.431 145.093 127.431 145.174 127.431 145.174V145.281Z" fill="#263239"/>
<path d="M173.729 130.477H130.07V145.281H173.729V130.477Z" fill="#B84135"/>
<path d="M173.728 145.281C173.728 145.281 173.728 145.174 173.728 145.012C173.728 144.824 173.728 144.554 173.728 144.258C173.728 143.559 173.728 142.59 173.701 141.324C173.701 138.767 173.647 135.08 173.62 130.477L173.755 130.612C163.177 130.612 147.538 130.666 130.096 130.692C129.908 130.881 130.365 130.423 130.312 130.477V132.388C130.312 133.034 130.312 133.653 130.312 134.299C130.312 135.564 130.312 136.829 130.312 138.041C130.312 140.517 130.312 142.939 130.312 145.254L130.096 145.039C142.639 145.066 153.514 145.12 161.293 145.147C165.169 145.147 168.264 145.2 170.417 145.2C171.467 145.2 172.302 145.2 172.867 145.2C173.136 145.2 173.351 145.2 173.513 145.2C173.647 145.2 173.728 145.2 173.728 145.2C173.728 145.2 173.674 145.2 173.54 145.2C173.378 145.2 173.19 145.2 172.921 145.2C172.355 145.2 171.548 145.2 170.498 145.227C168.345 145.227 165.276 145.254 161.4 145.281C153.595 145.281 142.666 145.335 130.042 145.389H129.827V145.174C129.827 142.832 129.827 140.436 129.827 137.96C129.827 136.722 129.827 135.484 129.827 134.219C129.827 133.599 129.827 132.953 129.827 132.307V131.338V130.854V130.423V130.369C129.827 130.369 130.231 129.939 130.042 130.154C147.484 130.181 163.15 130.208 173.701 130.235H173.836V130.369C173.809 134.999 173.782 138.714 173.755 141.298C173.755 142.536 173.755 143.505 173.728 144.205C173.728 144.501 173.728 144.77 173.728 144.931C173.728 145.093 173.728 145.174 173.728 145.174V145.281Z" fill="#263239"/>
<path d="M220.16 130.477H176.501V145.281H220.16V130.477Z" fill="#B84135"/>
<path d="M220.186 145.281C220.186 145.281 220.186 145.174 220.186 145.012C220.186 144.824 220.186 144.554 220.186 144.258C220.186 143.559 220.186 142.59 220.159 141.324C220.159 138.767 220.105 135.08 220.078 130.477L220.213 130.612C209.635 130.612 193.996 130.666 176.554 130.692C176.366 130.881 176.823 130.423 176.77 130.477V132.388C176.77 133.034 176.77 133.653 176.77 134.299C176.77 135.564 176.77 136.829 176.77 138.041C176.77 140.517 176.77 142.939 176.77 145.254L176.554 145.039C189.097 145.066 199.972 145.12 207.751 145.147C211.627 145.147 214.722 145.2 216.875 145.2C217.925 145.2 218.76 145.2 219.325 145.2C219.594 145.2 219.809 145.2 219.971 145.2C220.105 145.2 220.186 145.2 220.186 145.2C220.186 145.2 220.132 145.2 219.998 145.2C219.836 145.2 219.648 145.2 219.379 145.2C218.813 145.2 218.006 145.2 216.956 145.227C214.803 145.227 211.734 145.254 207.858 145.281C200.053 145.281 189.124 145.335 176.5 145.389H176.285V145.174C176.285 142.832 176.285 140.436 176.285 137.96C176.285 136.722 176.285 135.484 176.285 134.219C176.285 133.599 176.285 132.953 176.285 132.307V131.338V130.854V130.423V130.369C176.285 130.369 176.689 129.939 176.5 130.154C193.942 130.181 209.608 130.208 220.159 130.235H220.294V130.369C220.267 134.999 220.24 138.714 220.213 141.298C220.213 142.536 220.213 143.505 220.186 144.205C220.186 144.501 220.186 144.77 220.186 144.931C220.186 145.093 220.186 145.174 220.186 145.174V145.281Z" fill="#263239"/>
<path d="M245.272 130.45H222.958V145.254H245.272V130.45Z" fill="#B84135"/>
<path d="M245.272 145.254C245.272 145.254 245.272 145.147 245.272 144.958C245.272 144.743 245.272 144.501 245.272 144.178C245.272 143.451 245.272 142.455 245.218 141.19C245.218 138.579 245.165 134.918 245.138 130.45L245.299 130.612C239.135 130.612 231.383 130.639 222.985 130.666C222.931 130.719 223.389 130.262 223.201 130.45V132.415C223.201 133.061 223.201 133.707 223.201 134.353C223.201 135.645 223.201 136.883 223.201 138.121C223.201 140.598 223.201 142.966 223.201 145.254L223.012 145.066C229.526 145.093 235.071 145.147 239.028 145.174C240.966 145.174 242.527 145.227 243.63 145.227C244.142 145.227 244.545 145.227 244.868 145.227C245.165 145.227 245.299 145.227 245.299 145.227C245.299 145.227 245.164 145.227 244.895 145.227C244.599 145.227 244.196 145.227 243.684 145.227C242.581 145.227 241.046 145.254 239.108 145.281C235.125 145.281 229.526 145.335 222.958 145.389H222.77V145.201C222.77 142.94 222.77 140.544 222.77 138.068C222.77 136.829 222.77 135.564 222.77 134.299C222.77 133.653 222.77 133.007 222.77 132.361V131.392V130.908V130.477V130.423C222.581 130.612 223.039 130.154 222.985 130.181C231.383 130.181 239.135 130.208 245.299 130.235H245.461V130.396C245.434 134.891 245.38 138.606 245.38 141.244C245.38 142.482 245.353 143.478 245.326 144.205C245.326 144.528 245.326 144.77 245.326 144.958C245.326 145.12 245.326 145.201 245.326 145.201L245.272 145.254Z" fill="#263239"/>
<path d="M127.54 164.284H83.8809V179.088H127.54V164.284Z" fill="#B84135"/>
<path d="M127.539 179.062C127.539 179.062 127.539 178.954 127.539 178.792C127.539 178.604 127.539 178.335 127.539 178.039C127.539 177.339 127.539 176.37 127.512 175.105C127.512 172.548 127.458 168.86 127.431 164.257L127.566 164.392C116.988 164.392 101.349 164.446 83.9073 164.473C83.7189 164.661 84.1765 164.204 84.1227 164.257V164.742V165.226V166.195C84.1227 166.841 84.1227 167.461 84.1227 168.107C84.1227 169.372 84.1227 170.61 84.1227 171.848C84.1227 174.324 84.1227 176.747 84.1227 179.062L83.9073 178.846C96.4505 178.873 107.325 178.927 115.104 178.954C118.98 178.954 122.075 179.008 124.228 179.008C125.278 179.008 126.113 179.008 126.678 179.035C126.947 179.035 127.162 179.035 127.324 179.035C127.458 179.035 127.539 179.035 127.539 179.035C127.539 179.035 127.485 179.035 127.351 179.035C127.189 179.035 127.001 179.035 126.732 179.035C126.166 179.035 125.359 179.035 124.309 179.035C122.156 179.035 119.087 179.062 115.211 179.088C107.406 179.088 96.4774 179.142 83.8535 179.196H83.6382V178.981C83.6382 176.639 83.6382 174.244 83.6382 171.767C83.6382 170.529 83.6382 169.291 83.6382 168.026C83.6382 167.407 83.6382 166.761 83.6382 166.115V165.146V164.661V164.231V164.177C83.6382 164.177 84.0419 163.746 83.8535 163.961C101.295 163.988 116.961 164.015 127.512 164.042H127.647V164.177C127.62 168.806 127.593 172.521 127.566 175.105C127.566 176.343 127.566 177.312 127.539 178.012C127.539 178.308 127.539 178.577 127.539 178.739C127.539 178.9 127.539 178.981 127.539 178.981V179.062Z" fill="#263239"/>
<path d="M173.863 164.284H130.204V179.088H173.863V164.284Z" fill="#B84135"/>
<path d="M173.862 179.062C173.862 179.062 173.862 178.954 173.862 178.792C173.862 178.604 173.862 178.335 173.862 178.039C173.862 177.339 173.862 176.37 173.835 175.105C173.835 172.548 173.782 168.86 173.755 164.257L173.889 164.392C163.311 164.392 147.673 164.446 130.231 164.473C130.042 164.661 130.5 164.204 130.446 164.257V166.169C130.446 166.815 130.446 167.434 130.446 168.08C130.446 169.345 130.446 170.583 130.446 171.821C130.446 174.297 130.446 176.72 130.446 179.035L130.231 178.819C142.774 178.846 153.648 178.9 161.427 178.927C165.303 178.927 168.398 178.981 170.552 178.981C171.601 178.981 172.436 178.981 173.001 179.008C173.27 179.008 173.486 179.008 173.647 179.008C173.782 179.008 173.862 179.008 173.862 179.008C173.862 179.008 173.809 179.008 173.674 179.008C173.512 179.008 173.324 179.008 173.055 179.008C172.49 179.008 171.682 179.008 170.632 179.008C168.479 179.008 165.411 179.035 161.535 179.062C153.729 179.062 142.801 179.115 130.177 179.169H129.961V178.954C129.961 176.612 129.961 174.217 129.961 171.74C129.961 170.502 129.961 169.264 129.961 167.999C129.961 167.38 129.961 166.734 129.961 166.088V165.119V164.634V164.204V164.15C129.961 164.15 130.365 163.719 130.177 163.934C147.619 163.961 163.284 163.988 173.835 164.015H173.97V164.15C173.943 168.779 173.916 172.494 173.889 175.078C173.889 176.316 173.889 177.285 173.862 177.985C173.862 178.281 173.862 178.55 173.862 178.712C173.862 178.873 173.862 178.954 173.862 178.954V179.062Z" fill="#263239"/>
<path d="M220.294 164.284H176.636V179.088H220.294V164.284Z" fill="#B84135"/>
<path d="M220.321 179.062C220.321 179.062 220.321 178.954 220.321 178.792C220.321 178.604 220.321 178.335 220.321 178.039C220.321 177.339 220.321 176.37 220.294 175.105C220.294 172.548 220.24 168.86 220.213 164.257L220.348 164.392C209.77 164.392 194.131 164.446 176.689 164.473C176.501 164.661 176.958 164.204 176.904 164.257V166.169C176.904 166.815 176.904 167.434 176.904 168.08C176.904 169.345 176.904 170.583 176.904 171.821C176.904 174.297 176.904 176.72 176.904 179.035L176.689 178.819C189.232 178.846 200.107 178.9 207.885 178.927C211.761 178.927 214.857 178.981 217.01 178.981C218.06 178.981 218.894 178.981 219.46 179.008C219.729 179.008 219.944 179.008 220.106 179.008C220.24 179.008 220.321 179.008 220.321 179.008C220.321 179.008 220.267 179.008 220.132 179.008C219.971 179.008 219.783 179.008 219.513 179.008C218.948 179.008 218.141 179.008 217.091 179.008C214.938 179.008 211.869 179.035 207.993 179.062C200.187 179.062 189.259 179.115 176.635 179.169H176.42V178.954C176.42 176.612 176.42 174.217 176.42 171.74C176.42 170.502 176.42 169.264 176.42 167.999C176.42 167.38 176.42 166.734 176.42 166.088V165.119V164.634V164.204V164.15C176.42 164.15 176.824 163.719 176.635 163.934C194.077 163.961 209.743 163.988 220.294 164.015H220.429V164.15C220.402 168.779 220.375 172.494 220.348 175.078C220.348 176.316 220.348 177.285 220.321 177.985C220.321 178.281 220.321 178.55 220.321 178.712C220.321 178.873 220.321 178.954 220.321 178.954V179.062Z" fill="#263239"/>
<path d="M245.406 164.23H223.092V179.035H245.406V164.23Z" fill="#B84135"/>
<path d="M245.406 179.035C245.406 179.035 245.406 178.927 245.406 178.739C245.406 178.523 245.406 178.281 245.406 177.958C245.406 177.231 245.406 176.235 245.352 174.97C245.352 172.359 245.298 168.699 245.271 164.231L245.433 164.392C239.269 164.392 231.517 164.419 223.119 164.446C223.065 164.5 223.523 164.042 223.334 164.231V164.715V165.2V166.169C223.334 166.815 223.334 167.461 223.334 168.107C223.334 169.399 223.334 170.637 223.334 171.875C223.334 174.351 223.334 176.72 223.334 179.008L223.146 178.819C229.66 178.846 235.205 178.9 239.161 178.927C241.099 178.927 242.66 178.981 243.764 178.981C244.275 178.981 244.679 178.981 245.002 178.981C245.298 178.981 245.433 178.981 245.433 178.981C245.433 178.981 245.298 178.981 245.029 178.981C244.733 178.981 244.329 178.981 243.818 178.981C242.714 178.981 241.18 179.008 239.242 179.035C235.258 179.035 229.66 179.088 223.092 179.142H222.904V178.954C222.904 176.693 222.904 174.297 222.904 171.821C222.904 170.583 222.904 169.318 222.904 168.053C222.904 167.407 222.904 166.761 222.904 166.115V165.146V164.661V164.231V164.177C222.715 164.365 223.173 163.908 223.119 163.934C231.517 163.934 239.269 163.961 245.433 163.988H245.594V164.15C245.567 168.645 245.514 172.359 245.514 174.997C245.514 176.235 245.487 177.231 245.46 177.958C245.46 178.281 245.46 178.523 245.46 178.712C245.46 178.873 245.46 178.954 245.46 178.954L245.406 179.035Z" fill="#263239"/>
<path d="M104.821 181.457H61.1626V196.261H104.821V181.457Z" fill="#B84135"/>
<path d="M104.848 196.261C104.848 196.261 104.848 196.154 104.848 195.992C104.848 195.804 104.848 195.535 104.848 195.238C104.848 194.539 104.848 193.57 104.821 192.305C104.821 189.747 104.767 186.06 104.74 181.457L104.875 181.592C94.2967 181.592 78.6581 181.646 61.2162 181.672C61.0278 181.861 61.4854 181.403 61.4315 181.457V183.368C61.4315 184.014 61.4315 184.633 61.4315 185.279C61.4315 186.544 61.4315 187.809 61.4315 189.021C61.4315 191.497 61.4315 193.92 61.4315 196.234L61.2162 196.019C73.7593 196.046 84.6336 196.1 92.4125 196.127C96.2885 196.127 99.3839 196.181 101.537 196.181C102.587 196.181 103.421 196.181 103.987 196.181C104.256 196.181 104.471 196.181 104.633 196.181C104.767 196.181 104.848 196.181 104.848 196.181C104.848 196.181 104.794 196.181 104.66 196.181C104.498 196.181 104.31 196.181 104.04 196.181C103.475 196.181 102.668 196.181 101.618 196.181C99.4647 196.181 96.3962 196.207 92.5202 196.234C84.7144 196.234 73.7862 196.288 61.1623 196.342H60.947V196.127C60.947 193.785 60.947 191.389 60.947 188.913C60.947 187.675 60.947 186.437 60.947 185.172C60.947 184.553 60.947 183.907 60.947 183.261V182.292V181.807V181.376V181.323C60.947 181.323 61.3508 180.892 61.1623 181.107C78.6043 181.134 94.2698 181.161 104.821 181.188H104.956V181.323C104.929 185.952 104.902 189.667 104.875 192.251C104.875 193.489 104.875 194.458 104.848 195.158C104.848 195.454 104.848 195.723 104.848 195.884C104.848 196.046 104.848 196.127 104.848 196.127V196.261Z" fill="#263239"/>
<path d="M150.311 181.457H106.652V196.261H150.311V181.457Z" fill="#B84135"/>
<path d="M150.311 196.261C150.311 196.261 150.311 196.154 150.311 195.992C150.311 195.804 150.311 195.535 150.311 195.238C150.311 194.539 150.311 193.57 150.284 192.305C150.284 189.747 150.23 186.06 150.203 181.457L150.338 181.592C139.759 181.592 124.121 181.646 106.679 181.672C106.49 181.861 106.948 181.403 106.894 181.457V182.426V183.395C106.894 184.041 106.894 184.66 106.894 185.306C106.894 186.571 106.894 187.836 106.894 189.048C106.894 191.524 106.894 193.946 106.894 196.261L106.679 196.046C119.222 196.073 130.096 196.127 137.875 196.154C141.751 196.154 144.847 196.207 147 196.207C148.05 196.207 148.884 196.207 149.449 196.207C149.718 196.207 149.934 196.207 150.095 196.207C150.23 196.207 150.311 196.207 150.311 196.207C150.311 196.207 150.257 196.207 150.122 196.207C149.961 196.207 149.772 196.207 149.503 196.207C148.938 196.207 148.13 196.207 147.081 196.207C144.927 196.207 141.859 196.234 137.983 196.261C130.177 196.261 119.249 196.315 106.625 196.369H106.41V196.154C106.41 193.812 106.41 191.416 106.41 188.94C106.41 187.702 106.41 186.464 106.41 185.199C106.41 184.579 106.41 183.933 106.41 183.287V182.318V181.834V181.403V181.349C106.41 181.349 106.813 180.919 106.625 181.134C124.067 181.161 139.732 181.188 150.284 181.215H150.418V181.349C150.391 185.979 150.364 189.694 150.338 192.278C150.338 193.516 150.338 194.485 150.311 195.185C150.311 195.481 150.311 195.75 150.311 195.911C150.311 196.073 150.311 196.154 150.311 196.154V196.261Z" fill="#263239"/>
<path d="M196.607 181.457H152.948V196.261H196.607V181.457Z" fill="#B84135"/>
<path d="M196.634 196.261C196.634 196.261 196.634 196.154 196.634 195.992C196.634 195.804 196.634 195.535 196.634 195.238C196.634 194.539 196.634 193.57 196.607 192.305C196.607 189.747 196.553 186.06 196.526 181.457L196.661 181.592C186.083 181.592 170.444 181.646 153.002 181.672C152.814 181.861 153.271 181.403 153.217 181.457V183.368C153.217 184.014 153.217 184.633 153.217 185.279C153.217 186.544 153.217 187.809 153.217 189.021C153.217 191.497 153.217 193.92 153.217 196.234L153.002 196.019C165.545 196.046 176.42 196.1 184.198 196.127C188.074 196.127 191.17 196.181 193.323 196.181C194.373 196.181 195.207 196.181 195.773 196.181C196.042 196.181 196.257 196.181 196.419 196.181C196.553 196.181 196.634 196.181 196.634 196.181C196.634 196.181 196.58 196.181 196.445 196.181C196.284 196.181 196.096 196.181 195.826 196.181C195.261 196.181 194.454 196.181 193.404 196.181C191.251 196.181 188.182 196.207 184.306 196.234C176.5 196.234 165.572 196.288 152.948 196.342H152.733V196.127C152.733 193.785 152.733 191.389 152.733 188.913C152.733 187.675 152.733 186.437 152.733 185.172C152.733 184.553 152.733 183.907 152.733 183.261V182.292V181.807V181.376V181.323C152.733 181.323 153.137 180.892 152.948 181.107C170.39 181.134 186.056 181.161 196.607 181.188H196.742V181.323C196.715 185.952 196.688 189.667 196.661 192.251C196.661 193.489 196.661 194.458 196.634 195.158C196.634 195.454 196.634 195.723 196.634 195.884C196.634 196.046 196.634 196.127 196.634 196.127V196.261Z" fill="#263239"/>
<path d="M245.218 181.457H199.406V196.261H245.218V181.457Z" fill="#B84135"/>
<path d="M245.218 196.261C245.218 196.261 245.218 196.154 245.218 195.992C245.218 195.804 245.218 195.561 245.218 195.238C245.218 194.539 245.218 193.57 245.191 192.304C245.191 189.747 245.137 186.06 245.11 181.457L245.245 181.592C234.29 181.592 217.817 181.646 199.433 181.672C199.54 181.565 199.217 181.888 199.648 181.457V182.426V183.395C199.648 184.041 199.648 184.66 199.648 185.306C199.648 186.571 199.648 187.809 199.648 189.048C199.648 191.524 199.648 193.946 199.648 196.288L199.433 196.073C212.568 196.1 223.981 196.154 232.136 196.18C236.201 196.18 239.458 196.234 241.719 196.234C242.822 196.234 243.684 196.234 244.303 196.261C244.572 196.261 244.814 196.261 244.976 196.261C245.137 196.261 245.218 196.261 245.218 196.261C245.218 196.261 245.164 196.261 245.002 196.261C244.841 196.261 244.626 196.261 244.356 196.261C243.764 196.261 242.903 196.261 241.826 196.288C239.565 196.288 236.335 196.315 232.271 196.342C224.061 196.342 212.595 196.396 199.406 196.45H199.19V196.234C199.19 193.893 199.19 191.47 199.19 188.994C199.19 187.756 199.19 186.517 199.19 185.252C199.19 184.633 199.19 183.987 199.19 183.341V182.372V181.888V181.457V181.403C199.621 180.946 199.325 181.269 199.406 181.188C217.79 181.215 234.263 181.242 245.218 181.269H245.352V181.403C245.325 186.06 245.299 189.747 245.272 192.331C245.272 193.57 245.272 194.539 245.245 195.211C245.245 195.508 245.245 195.75 245.245 195.938C245.245 196.1 245.245 196.18 245.245 196.18L245.218 196.261Z" fill="#263239"/>
</g>
</svg>
