<svg width="344" height="241" viewBox="0 0 344 241" fill="none" xmlns="http://www.w3.org/2000/svg">
<rect x="0.137695" y="0.558594" width="343.438" height="239.623" rx="23" fill="white"/>
<g clip-path="url(#clip0_55_2)">
<path d="M267.357 49.8699H76.3569V190.87H267.357V49.8699Z" fill="#263239"/>
<path d="M267.357 49.8699H76.3569V64.1716H267.357V49.8699Z" fill="#FDC629"/>
<path d="M89.8006 57.1247C89.8006 59.1203 88.1773 60.7209 86.2003 60.7209C84.2233 60.7209 82.6001 59.0995 82.6001 57.1247C82.6001 55.1499 84.2233 53.5285 86.2003 53.5285C88.1773 53.5285 89.8006 55.1499 89.8006 57.1247Z" fill="#A6A5A5"/>
<path d="M104.534 57.1247C104.534 59.1203 102.911 60.7209 100.934 60.7209C98.9572 60.7209 97.334 59.0995 97.334 57.1247C97.334 55.1499 98.9572 53.5285 100.934 53.5285C102.911 53.5285 104.534 55.1499 104.534 57.1247Z" fill="#455A64"/>
<path d="M119.268 57.1247C119.268 59.1203 117.645 60.7209 115.668 60.7209C113.691 60.7209 112.068 59.0995 112.068 57.1247C112.068 55.1499 113.691 53.5285 115.668 53.5285C117.645 53.5285 119.268 55.1499 119.268 57.1247Z" fill="white"/>
<path d="M99.3942 92.6501H91.7358V95.4356H99.3942V92.6501Z" fill="#455A64"/>
<path d="M172.627 92.6501H104.971V95.4356H172.627V92.6501Z" fill="#455A64"/>
<path d="M191.877 92.6501H177.33V95.4356H191.877V92.6501Z" fill="#FDC629"/>
<path d="M236.682 130.046H222.135V132.832H236.682V130.046Z" fill="#455A64"/>
<path d="M244.091 92.6501H195.04V95.4356H244.091V92.6501Z" fill="#A6A5A5"/>
<path d="M107.052 100.133H99.394V102.919H107.052V100.133Z" fill="#455A64"/>
<path d="M170.109 100.133H112.442V102.919H170.109V100.133Z" fill="#A6A5A5"/>
<path d="M218.66 130.046H196.851V132.832H218.66V130.046Z" fill="#A6A5A5"/>
<path d="M160.057 122.584H104.971V125.369H160.057V122.584Z" fill="#A6A5A5"/>
<path d="M151.088 107.617H112.442V110.402H151.088V107.617Z" fill="#FDC629"/>
<path d="M247.212 115.1H208.567V117.886H247.212V115.1Z" fill="#A6A5A5"/>
<path d="M218.369 107.617H155.375V110.402H218.369V107.617Z" fill="#A6A5A5"/>
<path d="M191.876 130.046H104.971V132.832H191.876V130.046Z" fill="#FDC629"/>
<path d="M211.772 100.133H173.73V102.919H211.772V100.133Z" fill="#455A64"/>
<path d="M248.19 107.617H223.384V110.402H248.19V107.617Z" fill="#455A64"/>
<path d="M107.052 107.617H99.394V110.402H107.052V107.617Z" fill="#455A64"/>
<path d="M99.3942 115.1H91.7358V117.886H99.3942V115.1Z" fill="#A6A5A5"/>
<path d="M150.255 115.1H104.971V117.886H150.255V115.1Z" fill="#455A64"/>
<path d="M157.726 137.53H112.442V140.315H157.726V137.53Z" fill="#455A64"/>
<path d="M240.927 145.013H198.162V147.799H240.927V145.013Z" fill="#FDC629"/>
<path d="M208.088 137.53H161.389V140.315H208.088V137.53Z" fill="#FDC629"/>
<path d="M194.187 145.013H153.377V147.799H194.187V145.013Z" fill="#455A64"/>
<path d="M125.553 145.013H112.442V147.799H125.553V145.013Z" fill="#A6A5A5"/>
<path d="M213.395 122.584H163.179V125.369H213.395V122.584Z" fill="#455A64"/>
<path d="M236.682 122.584H216.558V125.369H236.682V122.584Z" fill="#FDC629"/>
<path d="M205.029 115.1H154.854V117.886H205.029V115.1Z" fill="#FDC629"/>
<path d="M99.3942 122.584H91.7358V125.369H99.3942V122.584Z" fill="#455A64"/>
<path d="M99.3942 130.046H91.7358V132.832H99.3942V130.046Z" fill="#455A64"/>
<path d="M107.052 137.53H99.394V140.315H107.052V137.53Z" fill="#A6A5A5"/>
<path d="M107.052 145.013H99.394V147.799H107.052V145.013Z" fill="#455A64"/>
<path d="M99.3942 151.291H91.7358V154.076H99.3942V151.291Z" fill="#455A64"/>
<path d="M194.79 151.291H104.971V154.076H194.79V151.291Z" fill="#455A64"/>
<path d="M107.052 158.754H99.394V161.539H107.052V158.754Z" fill="#455A64"/>
<path d="M170.109 158.754H112.442V161.539H170.109V158.754Z" fill="#A6A5A5"/>
<path d="M151.088 166.237H112.442V169.022H151.088V166.237Z" fill="#FDC629"/>
<path d="M218.369 166.237H155.375V169.022H218.369V166.237Z" fill="#A6A5A5"/>
<path d="M211.772 158.754H173.73V161.539H211.772V158.754Z" fill="#455A64"/>
<path d="M107.052 166.237H99.394V169.022H107.052V166.237Z" fill="#455A64"/>
<path d="M96.4597 85.2914C96.7303 85.5616 96.7303 85.9774 96.4597 86.2268C96.3141 86.3516 96.1684 86.4139 96.0019 86.4139C95.8146 86.4139 95.6481 86.3516 95.5233 86.2268L92.5682 83.2335C92.5682 83.2335 92.5265 83.1919 92.5057 83.1711L92.4641 83.1503C92.4641 83.1087 92.4641 83.088 92.4433 83.0672C92.4225 83.0672 92.4017 83.0256 92.4017 83.0256C92.4017 83.0048 92.4017 82.9632 92.4017 82.9632C92.4017 82.9217 92.3809 82.9217 92.3809 82.9009V82.8177C92.3809 82.8177 92.3809 82.7761 92.3809 82.7554C92.3809 82.7554 92.3809 82.7138 92.3809 82.693V82.6099L92.4017 82.5683C92.4017 82.5267 92.4017 82.5059 92.4017 82.4851C92.4225 82.4436 92.4433 82.402 92.4641 82.3812C92.4641 82.3812 92.4641 82.3604 92.4849 82.3604C92.4849 82.3396 92.5057 82.298 92.5473 82.2773L95.5025 79.2839C95.773 79.0344 96.1892 79.0344 96.4389 79.2839C96.7095 79.5541 96.7095 79.9699 96.4389 80.2193L93.9417 82.7346L96.4389 85.2498L96.4597 85.2914Z" fill="#FDC629"/>
<path d="M99.1445 85.624L101.725 79.4918C101.85 79.2008 102.183 79.0553 102.495 79.18C102.786 79.3047 102.911 79.6373 102.786 79.9283L100.206 86.0606C100.102 86.2892 99.8937 86.4139 99.6648 86.4139C99.6024 86.4139 99.5191 86.4139 99.4567 86.3724C99.1445 86.2476 99.0197 85.915 99.1445 85.624Z" fill="#FDC629"/>
<path d="M107.864 83.1503C107.843 83.1711 107.822 83.2127 107.781 83.2335L104.826 86.2268C104.701 86.3515 104.514 86.4139 104.347 86.4139C104.16 86.4139 104.014 86.3515 103.868 86.2268C103.598 85.9566 103.598 85.5616 103.868 85.2914L106.366 82.7761L103.868 80.2609C103.598 79.9906 103.598 79.5749 103.868 79.3255C104.118 79.076 104.555 79.076 104.805 79.3255L107.76 82.3188C107.76 82.3188 107.822 82.3812 107.843 82.402V82.4228C107.843 82.4643 107.885 82.4851 107.906 82.5267C107.906 82.5683 107.906 82.5891 107.927 82.6306C107.927 82.6306 107.927 82.6306 107.927 82.6722V82.7553C107.927 82.7553 107.927 82.7969 107.927 82.8177C107.927 82.8177 107.927 82.8593 107.927 82.8801V82.9632C107.927 82.9632 107.927 82.9632 107.927 82.984C107.927 83.0256 107.927 83.0672 107.906 83.0879C107.906 83.0879 107.906 83.0879 107.906 83.1295C107.906 83.1503 107.864 83.1919 107.843 83.2335L107.864 83.1503Z" fill="#FDC629"/>
</g>
<defs>
<clipPath id="clip0_55_2">
<rect width="191" height="141" fill="white" transform="translate(76.3569 49.8699)"/>
</clipPath>
</defs>
</svg>
