<svg width="344" height="241" viewBox="0 0 344 241" fill="none" xmlns="http://www.w3.org/2000/svg">
<rect x="0.137695" y="0.558594" width="343.438" height="239.623" rx="23" fill="white"/>
<g clip-path="url(#clip0_55_2)">
<path d="M213.89 78.5409C205.058 68.926 205.658 53.9146 215.199 45.0393C224.739 36.164 239.705 36.7666 248.537 46.3542C257.368 55.9417 256.769 70.9804 247.228 79.8557C237.687 88.7311 222.722 88.1284 213.89 78.5409ZM244.72 49.9153C237.851 42.437 226.211 41.9713 218.77 48.8743C211.328 55.7773 210.865 67.4741 217.734 74.9524C224.603 82.4307 236.243 82.8964 243.684 75.9933C251.126 69.0903 251.59 57.3935 244.72 49.9153Z" fill="#353C45"/>
<g style="mix-blend-mode:multiply">
<path d="M248.564 46.3542C239.732 36.7393 224.767 36.164 215.226 45.0393C205.685 53.9146 205.086 68.9534 213.918 78.5409C222.75 88.1284 237.715 88.7311 247.255 79.8558C256.796 70.9804 257.396 55.9417 248.564 46.3542ZM215.908 76.6782C208.084 68.1864 208.629 54.8734 217.08 47.039C225.53 39.2046 238.778 39.7251 246.574 48.2169C254.37 56.7087 253.852 70.0217 245.402 77.8561C236.952 85.6905 223.704 85.17 215.908 76.6782Z" fill="#C6C6C6"/>
</g>
<path d="M130.369 206.932C129.714 207.534 128.706 207.48 128.133 206.85C127.534 206.192 127.588 205.179 128.215 204.603L137.265 196.221C137.919 195.618 138.928 195.673 139.5 196.303C140.1 196.961 140.046 197.974 139.419 198.549L130.369 206.932Z" fill="#242930"/>
<path d="M139.5 196.303L128.133 206.877C128.733 207.534 129.742 207.562 130.369 206.959L139.419 198.577C140.073 197.974 140.1 196.961 139.5 196.331V196.303Z" fill="#14181E"/>
<path d="M147.06 82.7823L146.119 83.6559L202.403 144.886L203.344 144.013L147.06 82.7823Z" fill="#383F49"/>
<path d="M144.598 198.549L229.4 76.8151L220.841 70.7887L136.284 192.167C136.284 192.167 136.038 192.413 135.929 192.578C134.757 194.331 135.738 197.07 138.11 198.714C140.481 200.33 143.371 200.275 144.57 198.549H144.598Z" fill="#ADA491"/>
<g style="mix-blend-mode:multiply">
<path d="M220.841 70.7887L136.284 192.167C136.284 192.167 136.038 192.413 135.929 192.578C134.757 194.331 135.738 197.07 138.11 198.714L225.448 74.0485L220.841 70.8161" fill="#DADADA"/>
</g>
<path d="M101.556 144.257L222.613 72.7062L217.325 63.6392L89.8344 138.997C89.8344 138.997 89.6163 139.189 89.5073 139.271C87.9535 140.696 88.3079 143.599 90.2706 145.736C90.6249 146.119 91.0065 146.448 91.3882 146.722L81.3296 155.981L95.0954 147.982V148.037L101.038 144.531L101.529 144.229L101.556 144.257Z" fill="#ADA491"/>
<g style="mix-blend-mode:multiply">
<path d="M89.2348 144.366C89.78 145.243 89.6982 145.106 90.2979 145.763C90.6523 146.147 91.0339 146.475 91.4155 146.749L81.3569 156.008L95.1227 148.009V148.064L101.065 144.558L101.556 144.257L222.613 72.7062L219.751 67.8303L89.2348 144.366Z" fill="#DADADA"/>
</g>
<path d="M226.408 51.521L210.529 66.2608L225.844 82.9216L241.723 68.1819L226.408 51.521Z" fill="#576170"/>
<g style="mix-blend-mode:soft-light">
<path d="M226.974 65.0362C226.293 67.0359 226.647 69.4191 227.792 71.7749C228.474 73.1993 229.373 74.6511 230.409 75.9112L238.968 67.9672L230.3 58.5441C228.883 60.5438 227.765 62.79 227.002 65.0362H226.974Z" fill="white"/>
</g>
<g style="mix-blend-mode:multiply">
<path d="M223.513 75.6099C221.741 71.6927 220.623 67.0907 222.15 62.8996C223.431 59.4207 225.203 55.8322 227.547 52.7916L226.375 51.5041L210.51 66.2415L225.83 82.8964L227.329 81.4994C225.748 79.6914 224.44 77.637 223.513 75.6099Z" fill="#C6C6C6"/>
</g>
<path d="M146.37 189.701C144.216 191.701 140.863 191.564 138.873 189.4C136.884 187.236 137.02 183.867 139.173 181.867C141.327 179.867 144.68 180.004 146.67 182.168C148.659 184.332 148.523 187.702 146.37 189.701Z" fill="#4D5663"/>
<path d="M145.198 188.441C143.726 189.811 141.463 189.701 140.1 188.25C138.737 186.798 138.846 184.497 140.291 183.127C141.736 181.758 144.025 181.867 145.388 183.319C146.751 184.771 146.642 187.072 145.198 188.441Z" fill="#616B7D"/>
<path d="M144.216 187.373C143.344 188.195 141.981 188.14 141.163 187.263C140.345 186.387 140.4 185.017 141.272 184.195C142.145 183.374 143.508 183.428 144.325 184.305C145.143 185.182 145.089 186.551 144.216 187.373Z" fill="#4A535F"/>
<path d="M173.438 112.453C169.186 116.398 165.369 119.219 164.933 118.726C164.497 118.233 167.577 114.645 171.83 110.7C176.082 106.756 179.898 103.934 180.335 104.427C180.771 104.92 177.69 108.509 173.438 112.453Z" fill="#13171C"/>
<path d="M146.88 80.0699L142.495 84.1405L145.455 87.36L149.84 83.2894L146.88 80.0699Z" fill="#13171C"/>
<path d="M203.123 141.27L198.738 145.341L201.697 148.56L206.082 144.49L203.123 141.27Z" fill="#13171C"/>
<path d="M221.06 80.8695C218.388 83.3349 214.245 83.1705 211.792 80.5134C209.338 77.8563 209.502 73.6652 212.146 71.1998C214.79 68.7344 218.961 68.8988 221.414 71.5559C223.867 74.213 223.704 78.4041 221.06 80.8695Z" fill="#E74645"/>
<g style="mix-blend-mode:soft-light">
<path d="M216.316 74.2129C215.689 77.3357 218.006 79.9106 221.168 79.5271C222.804 77.3083 222.695 74.1581 220.759 72.0762C220.242 71.5284 219.642 71.0901 219.015 70.7614C217.706 71.5557 216.562 73.035 216.316 74.2129Z" fill="white"/>
</g>
<g style="mix-blend-mode:multiply">
<path d="M214.163 74.1307C214.354 72.4597 215.362 70.7066 216.725 69.4191C215.09 69.3917 213.427 69.9669 212.146 71.1722C209.474 73.6376 209.311 77.8287 211.791 80.4858C213.809 82.6773 216.971 83.1977 219.506 81.9377C216.098 81.1159 213.727 78.0479 214.163 74.1307Z" fill="#C6C6C6"/>
</g>
<path d="M244.966 54.983C243.466 56.38 241.149 56.2704 239.759 54.7638C238.369 53.2572 238.478 50.9288 239.977 49.5318L252.871 34.9313C254.37 33.5343 258.132 32.1373 260.912 35.1505C260.367 34.5752 264.674 38.8211 260.558 42.6288L244.993 54.9556L244.966 54.983Z" fill="#E74645"/>
<g style="mix-blend-mode:multiply">
<path d="M244.039 47.4498C246.192 44.3544 249.082 41.8069 251.917 39.3415C254.234 37.3418 256.66 35.4243 259.331 33.9451C256.851 32.6303 254.07 33.7808 252.843 34.9313L239.95 49.5317C238.451 50.9287 238.369 53.2571 239.732 54.7638C240.631 55.7499 241.913 56.106 243.139 55.8869C241.831 53.6133 242.131 50.1891 244.012 47.4498H244.039Z" fill="#C6C6C6"/>
</g>
<g style="mix-blend-mode:soft-light">
<path d="M249.545 43.971C247.719 45.7242 245.62 47.7239 245.047 50.2988C244.775 51.5315 244.966 52.5724 245.483 53.2846L259.304 42.3548C262.111 39.7251 260.503 36.9036 259.822 35.9449C255.951 37.9172 252.625 40.9578 249.518 43.9436L249.545 43.971Z" fill="white"/>
</g>
</g>
<defs>
<clipPath id="clip0_55_2">
<rect width="181" height="174" fill="white" transform="translate(81.3569 33.3699)"/>
</clipPath>
</defs>
</svg>
