<svg width="344" height="241" viewBox="0 0 344 241" fill="none" xmlns="http://www.w3.org/2000/svg">
<rect x="0.137695" y="0.558594" width="343.438" height="239.623" rx="23" fill="white"/>
<path d="M186.445 207.631H170.883C170.471 207.631 170.132 207.292 170.132 206.88V72.8912C170.132 72.4794 170.471 72.1403 170.883 72.1403H186.445C186.856 72.1403 187.195 72.4794 187.195 72.8912V206.88C187.195 207.292 186.856 207.631 186.445 207.631ZM171.646 206.13H185.694V73.642H171.646V206.13Z" fill="#DC854F"/>
<path d="M182.872 47.0718H188.176V71.5832H168.243V61.7133C168.243 53.6357 174.807 47.0718 182.884 47.0718H182.872Z" fill="#DC854F"/>
<path d="M180.547 50.7413H184.144V67.381H170.604V60.684C170.604 55.198 175.061 50.7413 180.547 50.7413Z" fill="#6265AB"/>
<path d="M179.942 56.5906C176.381 57.3173 173.172 59.0369 170.604 61.568V67.3931H184.144V56.1789C182.739 56.191 181.322 56.3242 179.942 56.6028V56.5906Z" fill="#5D515E"/>
<path d="M188.661 74.1507H168.085C167.068 74.1507 166.245 73.3272 166.245 72.3099C166.245 71.2926 167.068 70.4691 168.085 70.4691H188.661C189.678 70.4691 190.502 71.2926 190.502 72.3099C190.502 73.3272 189.678 74.1507 188.661 74.1507Z" fill="#FBC265"/>
<path d="M180.256 49.3002H179.082V69.1249H180.256V49.3002Z" fill="#DC854F"/>
<path d="M185.815 89.9547C185.621 89.9547 185.427 89.882 185.282 89.7367L170.98 75.4343C170.689 75.1437 170.689 74.6593 170.98 74.3686C171.27 74.078 171.755 74.078 172.045 74.3686L186.348 88.671C186.638 88.9616 186.638 89.4461 186.348 89.7367C186.202 89.882 186.009 89.9547 185.815 89.9547Z" fill="#DC854F"/>
<path d="M185.815 103.918C185.621 103.918 185.427 103.845 185.282 103.7L170.98 89.3976C170.689 89.107 170.689 88.6226 170.98 88.3319C171.27 88.0413 171.755 88.0413 172.045 88.3319L186.348 102.634C186.638 102.925 186.638 103.409 186.348 103.7C186.202 103.845 186.009 103.918 185.815 103.918Z" fill="#DC854F"/>
<path d="M185.948 119.565C185.754 119.565 185.56 119.492 185.415 119.347L171.113 105.044C170.822 104.754 170.822 104.269 171.113 103.979C171.403 103.688 171.888 103.688 172.178 103.979L186.481 118.281C186.771 118.572 186.771 119.056 186.481 119.347C186.335 119.492 186.142 119.565 185.948 119.565Z" fill="#DC854F"/>
<path d="M185.815 134.364C185.621 134.364 185.427 134.291 185.282 134.146L170.98 119.843C170.689 119.553 170.689 119.068 170.98 118.777C171.27 118.487 171.755 118.487 172.045 118.777L186.348 133.08C186.638 133.37 186.638 133.855 186.348 134.146C186.202 134.291 186.009 134.364 185.815 134.364Z" fill="#DC854F"/>
<path d="M185.815 150.434C185.621 150.434 185.427 150.361 185.282 150.216L170.98 135.914C170.689 135.623 170.689 135.139 170.98 134.848C171.27 134.557 171.755 134.557 172.045 134.848L186.348 149.15C186.638 149.441 186.638 149.925 186.348 150.216C186.202 150.361 186.009 150.434 185.815 150.434Z" fill="#DC854F"/>
<path d="M185.815 163.973C185.621 163.973 185.427 163.901 185.282 163.755L170.98 149.453C170.689 149.162 170.689 148.678 170.98 148.387C171.27 148.097 171.755 148.097 172.045 148.387L186.348 162.69C186.638 162.98 186.638 163.465 186.348 163.755C186.202 163.901 186.009 163.973 185.815 163.973Z" fill="#DC854F"/>
<path d="M185.948 179.317C185.754 179.317 185.56 179.245 185.415 179.099L171.113 164.797C170.822 164.506 170.822 164.022 171.113 163.731C171.403 163.441 171.888 163.441 172.178 163.731L186.481 178.034C186.771 178.324 186.771 178.809 186.481 179.099C186.335 179.245 186.142 179.317 185.948 179.317Z" fill="#DC854F"/>
<path d="M185.815 194.479C185.621 194.479 185.427 194.407 185.282 194.261L170.98 179.959C170.689 179.668 170.689 179.184 170.98 178.893C171.27 178.603 171.755 178.603 172.045 178.893L186.348 193.196C186.638 193.486 186.638 193.971 186.348 194.261C186.202 194.407 186.009 194.479 185.815 194.479Z" fill="#DC854F"/>
<path d="M185.815 207.304C185.621 207.304 185.427 207.232 185.282 207.086L170.98 192.784C170.689 192.493 170.689 192.009 170.98 191.718C171.27 191.428 171.755 191.428 172.045 191.718L186.348 206.021C186.638 206.311 186.638 206.796 186.348 207.086C186.202 207.232 186.009 207.304 185.815 207.304Z" fill="#DC854F"/>
<path d="M171.645 89.9547C171.452 89.9547 171.258 89.882 171.113 89.7367C170.822 89.4461 170.822 88.9616 171.113 88.671L185.415 74.3686C185.706 74.078 186.19 74.078 186.481 74.3686C186.771 74.6593 186.771 75.1437 186.481 75.4343L172.178 89.7367C172.033 89.882 171.839 89.9547 171.645 89.9547Z" fill="#DC854F"/>
<path d="M171.513 89.9547C171.319 89.9547 171.125 89.882 170.98 89.7367C170.689 89.4461 170.689 88.9616 170.98 88.671L185.282 74.3686C185.573 74.078 186.057 74.078 186.348 74.3686C186.638 74.6593 186.638 75.1437 186.348 75.4343L172.045 89.7367C171.9 89.882 171.706 89.9547 171.513 89.9547Z" fill="#DC854F"/>
<path d="M171.513 103.918C171.319 103.918 171.125 103.845 170.98 103.7C170.689 103.409 170.689 102.925 170.98 102.634L185.282 88.3319C185.573 88.0413 186.057 88.0413 186.348 88.3319C186.638 88.6226 186.638 89.107 186.348 89.3976L172.045 103.7C171.9 103.845 171.706 103.918 171.513 103.918Z" fill="#DC854F"/>
<path d="M171.755 119.565C171.561 119.565 171.367 119.492 171.222 119.347C170.931 119.056 170.931 118.572 171.222 118.281L185.524 103.979C185.815 103.688 186.299 103.688 186.59 103.979C186.881 104.269 186.881 104.754 186.59 105.044L172.288 119.347C172.142 119.492 171.949 119.565 171.755 119.565Z" fill="#DC854F"/>
<path d="M171.513 134.364C171.319 134.364 171.125 134.291 170.98 134.146C170.689 133.855 170.689 133.37 170.98 133.08L185.282 118.777C185.573 118.487 186.057 118.487 186.348 118.777C186.638 119.068 186.638 119.553 186.348 119.843L172.045 134.146C171.9 134.291 171.706 134.364 171.513 134.364Z" fill="#DC854F"/>
<path d="M171.513 150.434C171.319 150.434 171.125 150.361 170.98 150.216C170.689 149.925 170.689 149.441 170.98 149.15L185.282 134.848C185.573 134.557 186.057 134.557 186.348 134.848C186.638 135.139 186.638 135.623 186.348 135.914L172.045 150.216C171.9 150.361 171.706 150.434 171.513 150.434Z" fill="#DC854F"/>
<path d="M171.513 163.973C171.319 163.973 171.125 163.901 170.98 163.755C170.689 163.465 170.689 162.98 170.98 162.69L185.282 148.387C185.573 148.097 186.057 148.097 186.348 148.387C186.638 148.678 186.638 149.162 186.348 149.453L172.045 163.755C171.9 163.901 171.706 163.973 171.513 163.973Z" fill="#DC854F"/>
<path d="M171.513 179.317C171.319 179.317 171.125 179.245 170.98 179.099C170.689 178.809 170.689 178.324 170.98 178.034L185.282 163.731C185.573 163.441 186.057 163.441 186.348 163.731C186.638 164.022 186.638 164.506 186.348 164.797L172.045 179.099C171.9 179.245 171.706 179.317 171.513 179.317Z" fill="#DC854F"/>
<path d="M171.513 194.479C171.319 194.479 171.125 194.407 170.98 194.261C170.689 193.971 170.689 193.486 170.98 193.196L185.282 178.893C185.573 178.603 186.057 178.603 186.348 178.893C186.638 179.184 186.638 179.668 186.348 179.959L172.045 194.261C171.9 194.407 171.706 194.479 171.513 194.479Z" fill="#DC854F"/>
<path d="M171.513 207.304C171.319 207.304 171.125 207.232 170.98 207.086C170.689 206.796 170.689 206.311 170.98 206.021L185.282 191.718C185.573 191.428 186.057 191.428 186.348 191.718C186.638 192.009 186.638 192.493 186.348 192.784L172.045 207.086C171.9 207.232 171.706 207.304 171.513 207.304Z" fill="#DC854F"/>
<path d="M168.425 63.6994C168.425 63.6994 168.34 63.6994 168.291 63.6994C166.111 63.4451 92.6014 63.5904 53.9935 63.6994C53.5818 63.6994 53.2427 63.3603 53.2427 62.9485C53.2427 62.5368 53.5818 62.1977 53.9935 62.1977C65.5468 62.1614 166.874 61.8707 168.57 62.2098C168.982 62.2946 169.236 62.6821 169.163 63.0939C169.091 63.4572 168.776 63.6994 168.425 63.6994Z" fill="#DC854F"/>
<path d="M73.0794 63.2877C72.922 63.2877 72.7766 63.2392 72.6434 63.1302L63.2215 55.1374L54.1024 62.8396C53.8239 63.0818 53.4 63.0454 53.1578 62.7548C52.9156 62.4641 52.9519 62.0524 53.2426 61.8102L62.7977 53.7447C63.052 53.5267 63.4153 53.5388 63.6696 53.7447L73.5275 62.1129C73.806 62.3552 73.8423 62.779 73.6001 63.0576C73.4669 63.215 73.2732 63.2998 73.0915 63.2998L73.0794 63.2877Z" fill="#DC854F"/>
<path d="M92.2017 63.2877C92.0443 63.2877 91.8989 63.2392 91.7657 63.1302L82.3439 55.1374L73.2247 62.8396C72.9462 63.0818 72.5223 63.0454 72.2801 62.7548C72.0379 62.4763 72.0743 62.0524 72.3649 61.8102L81.92 53.7447C82.1743 53.5267 82.5376 53.5388 82.7919 53.7447L92.6498 62.1129C92.9283 62.3552 92.9647 62.779 92.7225 63.0576C92.5892 63.215 92.3955 63.2998 92.2138 63.2998L92.2017 63.2877Z" fill="#DC854F"/>
<path d="M111.312 63.2877C111.155 63.2877 111.009 63.2392 110.876 63.1302L101.454 55.1374L92.3351 62.8396C92.0566 63.0818 91.6327 63.0454 91.3905 62.7548C91.1483 62.4763 91.1846 62.0524 91.4753 61.8102L101.03 53.7447C101.285 53.5267 101.648 53.5388 101.902 53.7447L111.76 62.1129C112.039 62.3552 112.075 62.779 111.833 63.0576C111.7 63.215 111.506 63.2998 111.324 63.2998L111.312 63.2877Z" fill="#DC854F"/>
<path d="M130.434 63.2877C130.277 63.2877 130.131 63.2392 129.998 63.1302L120.576 55.1374L111.457 62.8396C111.179 63.0818 110.755 63.0454 110.513 62.7548C110.27 62.4763 110.307 62.0524 110.597 61.8102L120.152 53.7447C120.407 53.5267 120.77 53.5388 121.024 53.7447L130.882 62.1129C131.161 62.3552 131.197 62.779 130.955 63.0576C130.822 63.215 130.628 63.2998 130.446 63.2998L130.434 63.2877Z" fill="#DC854F"/>
<path d="M149.556 63.2877C149.399 63.2877 149.253 63.2392 149.12 63.1302L139.698 55.1374L130.579 62.8396C130.301 63.0818 129.877 63.0454 129.635 62.7548C129.392 62.4641 129.429 62.0524 129.719 61.8102L139.274 53.7447C139.529 53.5267 139.892 53.5388 140.146 53.7447L150.004 62.1129C150.283 62.3552 150.319 62.779 150.077 63.0576C149.944 63.215 149.75 63.2998 149.568 63.2998L149.556 63.2877Z" fill="#DC854F"/>
<path d="M168.667 63.2877C168.509 63.2877 168.364 63.2392 168.231 63.1302L158.809 55.1374L149.69 62.8396C149.411 63.0818 148.987 63.0454 148.745 62.7548C148.503 62.4641 148.539 62.0524 148.83 61.8102L158.385 53.7447C158.639 53.5267 159.002 53.5388 159.257 53.7447L169.115 62.1129C169.393 62.3552 169.43 62.779 169.187 63.0576C169.054 63.215 168.86 63.2998 168.679 63.2998L168.667 63.2877Z" fill="#DC854F"/>
<path d="M158.809 54.9193H63.2214C62.846 54.9193 62.5432 54.6166 62.5432 54.2412C62.5432 53.8657 62.846 53.563 63.2214 53.563H158.821C159.196 53.563 159.499 53.8657 159.499 54.2412C159.499 54.6166 159.196 54.9193 158.821 54.9193H158.809Z" fill="#DC854F"/>
<path d="M129.78 104.269C129.684 104.269 129.611 104.196 129.611 104.1V64.7893C129.611 64.6924 129.684 64.6198 129.78 64.6198C129.877 64.6198 129.95 64.6924 129.95 64.7893V104.1C129.95 104.196 129.877 104.269 129.78 104.269Z" fill="#261917"/>
<path d="M137.979 106.28C137.882 106.28 137.81 106.207 137.81 106.11V65.2859C137.81 65.189 137.882 65.1163 137.979 65.1163C138.076 65.1163 138.149 65.189 138.149 65.2859V106.11C138.149 106.207 138.076 106.28 137.979 106.28Z" fill="#261917"/>
<path d="M149.35 65.625H120.576C118.917 65.625 117.561 64.2686 117.561 62.6095C117.561 60.9504 118.917 59.594 120.576 59.594H149.35C151.009 59.594 152.366 60.9504 152.366 62.6095C152.366 64.2686 151.009 65.625 149.35 65.625Z" fill="#DC854F"/>
<path d="M136.574 119.879C136.065 121.066 134.891 121.89 133.522 121.902C131.754 121.902 130.252 120.497 130.168 118.741C130.059 116.816 131.597 115.217 133.51 115.217C134.055 115.217 134.503 114.793 134.503 114.248V113.849C134.503 113.328 134.079 112.88 133.559 112.88C133.534 112.88 133.522 112.88 133.498 112.88C130.228 112.88 127.588 115.653 127.83 118.971C128.024 121.708 130.192 123.949 132.929 124.227C135.581 124.494 137.906 122.931 138.802 120.642C139.057 120.001 138.584 119.322 137.906 119.322H137.47C137.095 119.322 136.744 119.54 136.586 119.892L136.574 119.879Z" fill="#261917"/>
<path d="M134.454 106.861H132.117V114.224H134.454V106.861Z" fill="#261917"/>
<path d="M128.169 93.8058V104.257C128.169 107.248 130.616 109.707 133.619 109.707C136.61 109.707 139.069 107.26 139.069 104.257V93.8058H128.182H128.169Z" fill="#DC854F"/>
<path d="M136.465 104.184C136.465 105.844 135.121 107.2 133.45 107.2C131.778 107.2 130.434 105.856 130.434 104.184C130.434 102.513 131.778 101.169 133.45 101.169C135.121 101.169 136.465 102.513 136.465 104.184Z" fill="#DC854F"/>
<path d="M133.462 106.049C132.432 106.049 131.597 105.214 131.597 104.184C131.597 103.155 132.432 102.319 133.462 102.319C134.491 102.319 135.327 103.155 135.327 104.184C135.327 105.214 134.491 106.049 133.462 106.049ZM133.462 102.658C132.614 102.658 131.936 103.349 131.936 104.184C131.936 105.02 132.626 105.71 133.462 105.71C134.297 105.71 134.988 105.02 134.988 104.184C134.988 103.349 134.297 102.658 133.462 102.658Z" fill="#261917"/>
<path d="M221.564 56.082H191.458V61.35H221.564V56.082Z" fill="#E0C7B3"/>
<path d="M221.564 50.5596H191.458V55.8276H221.564V50.5596Z" fill="#E0C7B3"/>
<path d="M221.564 63.106H191.458V68.374H221.564V63.106Z" fill="#E0C7B3"/>
<path d="M221.564 68.374H191.458V73.642H221.564V68.374Z" fill="#E0C7B3"/>
<path d="M235.129 62.9364H187.208C186.796 62.9364 186.457 62.5974 186.457 62.1856C186.457 61.7738 186.796 61.4348 187.208 61.4348H235.129C235.54 61.4348 235.88 61.7738 235.88 62.1856C235.88 62.5974 235.54 62.9364 235.129 62.9364Z" fill="#DC854F"/>
<path d="M221.322 68.5436H191.458C191.361 68.5436 191.289 68.4709 191.289 68.374C191.289 68.2771 191.361 68.2045 191.458 68.2045H221.322C221.419 68.2045 221.492 68.2771 221.492 68.374C221.492 68.4709 221.419 68.5436 221.322 68.5436Z" fill="#261917"/>
<path d="M221.068 56.2515H191.204C191.107 56.2515 191.034 56.1788 191.034 56.082C191.034 55.9851 191.107 55.9124 191.204 55.9124H221.068C221.165 55.9124 221.237 55.9851 221.237 56.082C221.237 56.1788 221.165 56.2515 221.068 56.2515Z" fill="#261917"/>
<path d="M186.941 55.5007C186.614 55.5007 186.324 55.2585 186.275 54.9194L181.673 19.3754H177.871L171.04 51.2136C170.968 51.5769 170.604 51.807 170.241 51.7343C169.878 51.6617 169.648 51.2984 169.72 50.9351L176.672 18.5519C176.732 18.237 177.011 18.019 177.326 18.019H182.255C182.594 18.019 182.872 18.2734 182.921 18.6003L187.607 54.7377C187.656 55.101 187.389 55.4401 187.026 55.4886C187.002 55.4886 186.966 55.4886 186.941 55.4886V55.5007Z" fill="#DC854F"/>
<path d="M182.182 23.6261H176.66C176.284 23.6261 175.981 23.3234 175.981 22.948C175.981 22.5725 176.284 22.2698 176.66 22.2698H182.182C182.557 22.2698 182.86 22.5725 182.86 22.948C182.86 23.3234 182.557 23.6261 182.182 23.6261Z" fill="#DC854F"/>
<path d="M183.429 28.7731H175.654C175.218 28.7731 174.855 28.4098 174.855 27.9738C174.855 27.5378 175.218 27.1745 175.654 27.1745H183.429C183.865 27.1745 184.228 27.5378 184.228 27.9738C184.228 28.4098 183.865 28.7731 183.429 28.7731Z" fill="#DC854F"/>
<path d="M184.192 34.1379H174.576C174.092 34.1379 173.692 33.7383 173.692 33.2539C173.692 32.7695 174.092 32.3698 174.576 32.3698H184.192C184.676 32.3698 185.076 32.7695 185.076 33.2539C185.076 33.7383 184.676 34.1379 184.192 34.1379Z" fill="#DC854F"/>
<path d="M184.192 40.2415H173.571C173.038 40.2415 172.59 39.8056 172.59 39.2606C172.59 38.7156 173.026 38.2797 173.571 38.2797H184.192C184.725 38.2797 185.173 38.7156 185.173 39.2606C185.173 39.8056 184.737 40.2415 184.192 40.2415Z" fill="#DC854F"/>
<path d="M185.27 46.1515H172.058C171.44 46.1515 170.943 45.6549 170.943 45.0373C170.943 44.4197 171.44 43.9232 172.058 43.9232H185.27C185.888 43.9232 186.384 44.4197 186.384 45.0373C186.384 45.6549 185.888 46.1515 185.27 46.1515Z" fill="#DC854F"/>
<path d="M228.104 62.016C228.104 62.016 228.019 62.0039 227.995 61.9676L182.569 19.0605C182.509 19 182.496 18.891 182.569 18.8304C182.63 18.7577 182.739 18.7577 182.799 18.8183L233.239 61.2289C233.312 61.2894 233.324 61.3984 233.263 61.459C233.203 61.5316 233.094 61.5437 233.033 61.4832L187.002 22.7905L228.213 61.7254C228.286 61.7859 228.286 61.8949 228.213 61.9676C228.177 62.0039 228.14 62.016 228.092 62.016H228.104Z" fill="#261917"/>
<path d="M67.0121 53.4903C66.9394 53.4903 66.8788 53.4419 66.8546 53.3692C66.8304 53.2845 66.8788 53.1876 66.9636 53.1633L177.277 18.5277C177.362 18.5034 177.459 18.5519 177.483 18.6367C177.507 18.7214 177.459 18.8183 177.374 18.8425L67.0605 53.4782C67.0605 53.4782 67.0242 53.4782 67.0121 53.4782V53.4903Z" fill="#261917"/>
<path d="M198.531 215.2H155.575V222.721H198.531V215.2Z" fill="#E0C7B3"/>
<path d="M198.531 207.316H155.575V214.837H198.531V207.316Z" fill="#E0C7B3"/>
<path d="M197.816 215.43H155.224C155.091 215.43 154.982 215.321 154.982 215.188C154.982 215.055 155.091 214.946 155.224 214.946H197.816C197.95 214.946 198.059 215.055 198.059 215.188C198.059 215.321 197.95 215.43 197.816 215.43Z" fill="#261917"/>
</svg>
