<svg width="344" height="241" viewBox="0 0 344 241" fill="none" xmlns="http://www.w3.org/2000/svg">
<rect x="0.137695" y="0.558594" width="343.438" height="239.623" rx="23" fill="white"/>
<path opacity="0.15" d="M184.753 121.556C196.867 127.595 202.358 133.935 196.09 138.367C189.821 142.817 172.763 148.82 172.763 148.82L170.521 156.343L145.746 142.04V133.528C145.746 133.528 161.038 122.986 167.007 120.956C172.975 118.925 177.654 118.025 184.753 121.556Z" fill="black"/>
<path d="M150.584 159.927C150.584 159.927 154.328 169.092 154.522 172.712C154.716 176.491 155.634 177.727 154.999 181.824C154.857 182.724 154.398 184.508 154.275 185.232C154.169 185.885 154.416 186.397 155.246 186.574C156.888 186.909 159.607 183.837 160.896 180.499C162.185 177.162 164.022 169.604 164.128 168.703C164.234 167.838 163.951 166.743 163.616 166.072C163.015 164.872 162.856 164.713 162.856 164.713C162.309 163.071 162.062 159.945 161.603 157.791L150.602 159.927H150.584Z" fill="#F4A6A7"/>
<path d="M167.324 172.147C167.324 172.147 167.731 172.906 167.766 173.383C167.801 174.142 166.106 176.614 165.435 177.515C164.764 178.416 164.111 179.546 164.217 181.806C164.323 184.207 163.245 186.538 161.692 188.516C160.138 190.494 157.436 192.683 153.463 193.902C149.49 195.12 148.095 193.142 148.095 193.142C148.095 193.142 146.859 191.218 147.6 190.441C148.342 189.664 167.324 172.165 167.324 172.165V172.147Z" fill="#263239"/>
<path d="M162.857 164.713C162.981 164.713 163.192 164.677 163.51 165.048C163.634 165.19 164.358 166.973 164.958 167.909C165.594 168.915 167.13 170.628 167.342 172.147C166.424 175.096 163.669 177.144 163.245 179.916C162.839 182.689 162.786 185.92 158.513 189.328C154.24 192.736 149.843 193.089 148.271 192.189C146.7 191.288 146.841 189.593 149.031 186.379C151.361 182.954 152.933 175.555 152.933 175.555C153.145 174.531 153.269 173.454 153.339 172.412C153.427 171.405 153.127 170.31 153.039 169.286C153.004 168.809 152.986 168.28 153.233 167.874C153.48 167.467 153.957 167.256 154.416 167.061C155.123 166.761 155.847 166.461 156.606 166.32C157.365 166.178 158.178 166.231 158.866 166.602C159.361 166.867 159.767 167.291 160.279 167.503C160.968 167.785 161.833 167.644 162.38 167.132C163.192 166.373 163.069 165.702 162.945 165.207L162.839 164.73L162.857 164.713Z" fill="#455A64"/>
<path d="M160.985 186.609C160.985 186.609 159.325 183.236 154.787 183.254C150.249 183.254 148.677 185.585 147.988 186.944C147.158 188.569 146.311 191.483 148.183 192.33C150.213 193.231 152.544 192.966 156.235 191.112C159.925 189.258 160.985 186.609 160.985 186.609Z" fill="#FBFBFB"/>
<path d="M160.155 172.941C160.032 172.994 159.873 173.012 159.749 172.941C159.043 172.588 155.335 171.811 153.18 173.807C152.898 173.577 152.951 173.171 153.322 172.588C155.847 170.981 159.361 171.705 160.208 172.129C160.438 172.235 160.508 172.518 160.385 172.73C160.332 172.818 160.261 172.888 160.173 172.924L160.155 172.941Z" fill="#FBFBFB"/>
<path d="M152.721 176.455C152.562 176.049 152.756 175.431 152.985 175.202C155.475 173.842 158.742 174.531 159.554 174.937C159.784 175.043 159.854 175.325 159.731 175.537C159.678 175.625 159.607 175.696 159.519 175.731C159.395 175.784 159.236 175.802 159.113 175.731C158.424 175.378 154.91 174.654 152.738 176.438L152.721 176.455Z" fill="#FBFBFB"/>
<path d="M150.867 182.583C150.849 182.035 151.043 181.47 151.45 180.941C153.975 179.422 157.4 180.128 158.23 180.552C158.46 180.658 158.53 180.941 158.407 181.152C158.354 181.241 158.283 181.311 158.195 181.347C158.071 181.4 157.912 181.417 157.789 181.347C157.047 180.976 152.968 180.128 150.884 182.583H150.867Z" fill="#FBFBFB"/>
<path d="M158.848 178.539C158.725 178.592 158.566 178.61 158.442 178.539C157.753 178.186 154.116 177.427 151.944 179.351C151.838 178.928 151.962 178.486 152.315 178.009C154.805 176.65 158.071 177.338 158.884 177.745C159.113 177.85 159.184 178.133 159.06 178.345C159.007 178.433 158.937 178.504 158.848 178.539Z" fill="#FBFBFB"/>
<path d="M146.558 171.193C146.558 171.193 144.704 182.389 142.638 186.715C140.572 191.059 139.513 193.16 136.67 196.445C136.052 197.169 134.639 198.493 134.127 199.076C133.668 199.588 133.597 200.188 134.251 200.806C135.522 202.007 140.873 202.307 143.874 200.047C146.876 197.804 149.613 193.001 151.397 191.182C152.068 190.494 152.704 189.805 153.304 189.063C153.887 188.357 153.728 187.668 153.781 186.874C153.798 186.485 153.745 185.444 153.745 185.444C154.151 183.554 155.264 180.605 155.864 178.769L146.541 171.193H146.558Z" fill="#F4A6A7"/>
<path d="M154.823 193.884C154.823 193.884 154.876 194.785 154.681 195.244C154.381 195.968 151.662 197.557 150.638 198.122C149.596 198.687 148.483 199.464 147.565 201.636C146.576 203.967 144.545 205.68 142.179 206.863C139.813 208.046 136.299 208.894 131.99 208.276C127.682 207.658 127.258 205.15 127.258 205.15C127.258 205.15 126.94 202.784 128 202.378C129.059 201.972 154.823 193.884 154.823 193.884Z" fill="#263239"/>
<path d="M153.904 184.861C154.028 184.914 154.24 184.967 154.363 185.461C154.416 185.655 154.293 187.669 154.451 188.816C154.61 190.052 155.299 192.366 154.805 193.884C152.615 196.268 149.083 196.957 147.459 199.411C145.817 201.848 144.333 204.885 138.771 206.192C133.209 207.499 128.9 205.874 127.805 204.32C126.71 202.766 127.611 201.23 131.125 199.164C134.868 196.974 139.654 190.67 139.672 190.67C140.343 189.805 140.925 188.816 141.473 187.88C142.002 186.962 142.214 185.797 142.585 184.79C142.762 184.313 142.974 183.819 143.397 183.536C143.821 183.254 144.369 183.272 144.881 183.289C145.693 183.325 146.505 183.36 147.282 183.572C148.059 183.784 148.818 184.19 149.295 184.843C149.648 185.32 149.843 185.885 150.231 186.326C150.761 186.909 151.644 187.139 152.385 186.909C153.498 186.556 153.674 185.867 153.78 185.338C153.798 185.338 153.904 184.843 153.904 184.843V184.861Z" fill="#455A64"/>
<path d="M142.373 204.744C142.373 204.744 142.303 200.824 138.012 198.811C133.703 196.798 131.196 198.281 129.942 199.252C128.441 200.418 126.322 202.802 127.717 204.444C129.218 206.21 131.566 206.987 135.875 206.881C140.184 206.775 142.373 204.744 142.373 204.744Z" fill="#FBFBFB"/>
<path d="M147.688 191.447C147.547 191.447 147.388 191.377 147.3 191.253C146.787 190.6 143.627 188.216 140.695 189.152C140.536 188.816 140.766 188.445 141.366 188.057C144.474 187.668 147.476 189.911 148.077 190.706C148.235 190.918 148.182 191.2 147.971 191.359C147.882 191.43 147.776 191.447 147.688 191.447Z" fill="#FBFBFB"/>
<path d="M139.071 191.447C139.107 191.006 139.566 190.494 139.884 190.388C142.85 190.229 145.622 192.313 146.205 193.072C146.364 193.284 146.311 193.566 146.099 193.725C146.011 193.796 145.905 193.814 145.817 193.814C145.675 193.814 145.517 193.743 145.428 193.619C144.934 192.984 141.932 190.723 139.071 191.447Z" fill="#FBFBFB"/>
<path d="M134.586 196.409C134.816 195.88 135.257 195.438 135.875 195.12C138.93 194.802 141.862 197.01 142.462 197.787C142.621 197.999 142.568 198.281 142.356 198.44C142.268 198.511 142.162 198.528 142.074 198.528C141.932 198.528 141.773 198.458 141.685 198.334C141.155 197.645 137.659 195.032 134.586 196.409Z" fill="#FBFBFB"/>
<path d="M143.945 196.162C143.804 196.162 143.645 196.091 143.556 195.968C143.062 195.332 139.954 192.984 137.058 193.831C137.146 193.39 137.464 193.019 138.012 192.736C140.978 192.577 143.751 194.661 144.333 195.42C144.492 195.632 144.439 195.915 144.227 196.074C144.139 196.144 144.033 196.162 143.945 196.162Z" fill="#FBFBFB"/>
<path d="M171.245 107.482C166.654 110.838 150.691 120.073 144.192 126.077C142.321 127.807 141.703 130.103 142.162 135.065C142.78 141.828 148.095 164.836 148.095 164.836C148.819 166.143 150.108 163.671 150.108 163.671L175.43 131.533L171.245 107.482Z" fill="#5DBDB0"/>
<path opacity="0.3" d="M171.245 107.482C166.654 110.838 150.691 120.073 144.192 126.077C142.321 127.807 141.703 130.103 142.162 135.065C142.78 141.828 148.095 164.836 148.095 164.836C148.819 166.143 150.108 163.671 150.108 163.671L175.43 131.533L171.245 107.482Z" fill="black"/>
<path opacity="0.3" d="M149.189 157.667C155.052 152.776 173.964 122.916 173.964 122.916C171.386 120.744 170.061 113.186 170.061 113.186C169.037 116.1 170.114 120.497 170.909 122.103C169.426 123.392 161.003 130.314 155.158 134.941C153.692 136.106 152.191 137.537 151.697 140.185C150.496 146.525 149.066 156.396 149.207 157.685L149.189 157.667Z" fill="black"/>
<path d="M171.245 107.482L203.824 114.705C202.235 120.691 201.776 123.781 200.116 126.924C198.456 130.085 196.602 133.458 188.126 137.625C179.968 141.651 169.991 145.783 167.996 146.737C166.495 147.461 165.771 150.463 165.1 154.347C164.394 158.426 164.323 161.64 160.279 170.204C156.324 178.61 155.512 180.411 155.512 180.411C155.512 180.411 149.384 181.047 145.323 177.48C145.323 177.48 150.867 148.697 152.051 143.505C152.704 140.609 152.722 139.091 156.324 135.895C159.414 133.175 173.17 122.757 173.17 122.757C173.17 122.757 167.696 115.411 171.227 107.482H171.245Z" fill="#5DBDB0"/>
<path opacity="0.3" d="M171.245 107.482L203.824 114.705C202.235 120.691 201.776 123.781 200.116 126.924C198.456 130.085 196.602 133.458 188.126 137.625C179.968 141.651 169.991 145.783 167.996 146.737C166.495 147.461 165.771 150.463 165.1 154.347C164.394 158.426 164.323 161.64 160.279 170.204C156.324 178.61 155.512 180.411 155.512 180.411C155.512 180.411 149.384 181.047 145.323 177.48C145.323 177.48 150.867 148.697 152.051 143.505C152.704 140.609 152.722 139.091 156.324 135.895C159.414 133.175 173.17 122.757 173.17 122.757C173.17 122.757 167.696 115.411 171.227 107.482H171.245Z" fill="black"/>
<path d="M133.792 53.3425C134.339 53.2895 134.904 53.4308 135.399 53.6603C135.999 53.9429 136.529 54.349 137.059 54.7375C137.871 55.3379 138.701 55.9029 139.549 56.4327C140.308 56.9095 141.102 57.4392 142.003 57.5981C142.303 57.6511 142.957 57.6511 142.621 57.192C142.197 56.5916 141.703 56.0265 141.385 55.3555C141.067 54.7022 140.926 53.9076 141.208 53.2189C141.297 53.007 141.42 52.8128 141.632 52.7245C141.915 52.6009 142.056 52.7421 142.233 52.9364C142.409 53.1306 142.603 53.3072 142.815 53.4661C143.221 53.8193 143.628 54.1901 144.034 54.5433C146.382 56.6799 149.225 58.5164 150.232 61.5889C150.373 62.0303 151.044 64.061 151.062 67.4337C151.079 70.8065 151.291 82.5668 151.291 82.5668C151.291 82.5668 160.632 74.7089 164.676 71.3362C166.636 69.7117 169.356 67.7163 172.357 67.4337C174.494 67.2395 175.73 67.2395 175.73 67.2395L169.356 82.6728C169.356 82.6728 157.313 91.6255 151.538 94.7157C146.329 97.5057 143.787 95.4926 143.168 94.027C142.127 91.6078 141.049 90.4777 142.515 76.9515C142.621 75.9097 142.745 72.9078 142.868 71.866C143.027 69.6763 142.78 67.4691 141.932 66.9923C140.378 66.127 138.86 65.1735 137.518 63.9904C136.635 63.2134 135.84 62.3482 135.187 61.3593C134.922 60.9532 134.445 60.3528 134.392 59.8584C134.339 59.3463 134.569 58.8165 134.392 58.3045C134.286 57.9689 134.057 57.6864 133.969 57.3156C133.792 56.574 133.863 55.7087 133.386 55.073C133.121 54.7198 132.697 54.402 132.75 53.9605C132.803 53.6074 133.156 53.3955 133.492 53.3072C133.598 53.2895 133.686 53.2719 133.792 53.2542V53.3425Z" fill="#F4A6A7"/>
<path d="M143.309 59.205C143.574 61.0238 144.863 63.3017 145.746 64.061C145.746 64.061 144.298 63.2311 143.68 61.9597C143.009 60.5647 143.079 59.8584 143.309 59.1874V59.205Z" fill="#F28F8F"/>
<path d="M176.348 66.9747C173.099 67.1159 170.556 67.1866 167.801 68.7935C165.029 70.4004 152.65 80.7481 152.65 80.7481C152.65 80.7481 152.527 75.4683 152.209 72.6959C151.997 70.7712 151.662 70.1708 151.061 70.2591C151.061 70.2591 149.984 71.9013 146.947 72.1309C143.91 72.3604 142.885 71.089 142.885 71.089C142.885 71.089 142.002 70.8771 141.685 72.1309C141.367 73.3669 140.784 86.8401 141.349 90.725C141.897 94.6098 143.645 96.4109 145.976 96.9583C148.306 97.5057 153.71 94.2389 160.208 89.8774C166.706 85.5158 173.752 81.4367 173.752 81.4367L176.365 66.9747H176.348Z" fill="#5DBDB0"/>
<path opacity="0.7" d="M176.348 66.9747C173.099 67.1159 170.556 67.1866 167.801 68.7935C165.029 70.4004 152.65 80.7481 152.65 80.7481C152.65 80.7481 152.527 75.4683 152.209 72.6959C151.997 70.7712 151.662 70.1708 151.061 70.2591C151.061 70.2591 149.984 71.9013 146.947 72.1309C143.91 72.3604 142.885 71.089 142.885 71.089C142.885 71.089 142.002 70.8771 141.685 72.1309C141.367 73.3669 140.784 86.8401 141.349 90.725C141.897 94.6098 143.645 96.4109 145.976 96.9583C148.306 97.5057 153.71 94.2389 160.208 89.8774C166.706 85.5158 173.752 81.4367 173.752 81.4367L176.365 66.9747H176.348Z" fill="white"/>
<path opacity="0.1" d="M152.651 80.748C153.18 84.368 152.386 88.3057 152.386 88.3057C152.386 88.3057 154.752 83.7146 154.028 79.512L152.651 80.7304V80.748Z" fill="black"/>
<path d="M203.082 69.8352C203.612 72.6782 209.016 99.6599 202.871 119.79C191.817 121.097 172.41 116.011 169.497 108.701C169.497 108.701 171.457 101.761 172.304 98.3709C172.128 92.8086 172.304 82.1783 172.41 78.8939C172.64 72.378 173.646 67.3454 176.878 66.8687C176.878 66.8687 183.376 66.6038 187.296 66.7804C190.686 66.9216 193.247 66.9569 193.247 66.9569L203.065 69.8529L203.082 69.8352Z" fill="#FBFBFB"/>
<path d="M186.837 112.727C187.543 111.138 200.663 103.05 200.663 103.05C200.663 103.05 200.469 99.3067 199.674 92.4024C198.88 85.498 198.668 77.234 201.158 73.0667L203.665 73.1726C205.078 81.5426 207.974 103.05 202.853 119.808C196.955 120.497 188.691 119.384 181.822 117.089C183.093 116.241 186.254 114.016 186.837 112.762V112.727Z" fill="#F0F0F0"/>
<path d="M194.394 60.6C194.377 59.205 197.043 55.0376 198.261 51.7356C200.292 46.2085 200.469 41.2642 195.471 39.1099C195.471 39.1099 192.346 33.7242 184.47 33.4417C176.595 33.1768 170.52 39.8339 173.151 48.716L194.412 60.5823L194.394 60.6Z" fill="#455A64"/>
<path d="M192.452 52.0711C193.476 52.0711 193.847 50.5878 194.554 49.7932C195.26 48.9986 197.697 48.1157 199.268 50.3759C200.716 52.4772 199.304 55.5145 197.714 56.6976C195.719 58.1808 194.324 56.7505 194.324 56.7505L194.501 67.8929C194.501 67.8929 194.147 70.365 189.592 71.7953C184.329 73.4552 180.056 70.6829 183.182 67.2218L183.058 64.2906C181.557 64.6261 179.526 64.8027 177.972 64.5731C176.224 64.3082 174.812 62.9839 173.911 60.2822C172.145 55.0024 172.64 47.9744 174.458 41.5468C176.189 42.9242 184.223 45.4846 191.446 42.9418C191.198 47.374 191.41 52.0711 192.399 52.0711H192.452Z" fill="#F4A6A7"/>
<path d="M195.295 55.5144C195.295 55.8676 195.595 56.1678 195.948 56.1678C196.301 56.1678 196.602 55.8676 196.602 55.5144C196.602 55.1613 196.301 54.8611 195.948 54.8611C195.595 54.8611 195.295 55.1613 195.295 55.5144Z" fill="#263239"/>
<path d="M183.094 64.2905C183.094 64.2905 187.473 63.0015 189.203 61.8007C190.475 60.9002 191.623 59.4875 191.888 58.7282C191.888 58.7282 191.234 61.0768 190.033 62.4364C187.932 64.8203 183.147 65.9151 183.147 65.9151L183.094 64.2905Z" fill="#F28F8F"/>
<path d="M183.446 52.0181C183.446 52.6361 183.905 53.1659 184.523 53.1659C185.124 53.1659 185.618 52.6715 185.636 52.0534C185.636 51.4354 185.177 50.9056 184.559 50.9056C183.958 50.9056 183.464 51.4001 183.446 52.0181Z" fill="#263239"/>
<path d="M184.63 48.2923L186.997 49.5284C187.332 48.8574 187.067 48.0274 186.414 47.6743C185.76 47.3388 184.966 47.6037 184.63 48.2747V48.2923Z" fill="#263239"/>
<path d="M183.782 57.757L180.021 58.9578C180.391 60.0173 181.539 60.6 182.563 60.2645C183.605 59.929 184.135 58.8165 183.764 57.757H183.782Z" fill="#F28F8F"/>
<path d="M174.529 48.2393L177.125 47.5329C176.948 46.8089 176.242 46.3675 175.518 46.5617C174.794 46.756 174.353 47.5153 174.529 48.2393Z" fill="#263239"/>
<path d="M175.2 51.1529C175.2 51.7709 175.659 52.3007 176.277 52.3007C176.878 52.3007 177.372 51.8062 177.39 51.1882C177.39 50.5702 176.931 50.0404 176.313 50.0404C175.712 50.0404 175.218 50.5348 175.2 51.1529Z" fill="#263239"/>
<path d="M173.999 41.5468C171.58 39.8163 170.22 37.5031 170.874 34.3246C171.827 35.2781 174.476 35.4371 176.789 34.3246C179.261 33.1415 183.182 31.5346 188.673 32.6118C192.964 33.4417 195.472 36.6908 195.472 39.0923C194.642 40.8052 193.476 41.7234 191.499 42.9242C191.499 42.9242 187.384 46.2792 181.169 45.8907C177.16 45.6435 175.076 43.6835 175.076 43.6835C175.076 43.6835 177.319 43.8777 178.361 43.189C178.361 43.189 175.818 42.8182 173.999 41.5292V41.5468Z" fill="#37474F"/>
<path d="M179.897 56.3621L176.56 54.8258L180.833 48.9456L179.897 56.3621Z" fill="#F28F8F"/>
<path opacity="0.15" d="M143.168 127.26C143.451 126.818 143.786 126.43 144.192 126.059C148.095 122.457 155.405 117.689 161.621 113.716L189.909 130.05C190.086 130.156 190.086 130.403 189.909 130.509L169.355 142.375L143.168 127.242V127.26Z" fill="black"/>
<path d="M134.604 118.943V119.402C134.604 120.073 134.958 120.691 135.54 121.026L168.438 140.027C168.72 140.203 169.056 140.274 169.373 140.274C169.691 140.274 170.027 140.186 170.327 140.027L188.25 129.714C188.833 129.379 189.186 128.761 189.186 128.09V127.454C189.186 127.454 189.151 127.613 189.062 127.666L169.373 139.038L134.604 118.96V118.943Z" fill="#37474F"/>
<path d="M169.373 139.02V140.274C169.056 140.274 168.72 140.186 168.438 140.027L135.54 121.026C134.958 120.691 134.604 120.073 134.604 119.402V118.943L169.373 139.02Z" fill="#263239"/>
<path d="M134.604 118.943L154.117 107.677C154.47 107.483 154.894 107.483 155.229 107.677L189.062 127.224C189.221 127.313 189.221 127.56 189.062 127.648L169.373 139.02L134.604 118.943Z" fill="#455A64"/>
<path d="M169.549 137.378L180.074 131.304L149.313 113.539L138.736 119.578L169.549 137.378Z" fill="#37474F"/>
<path d="M138.736 119.578L139.142 119.808L149.313 113.998L179.668 131.533L180.074 131.304L149.313 113.539L138.736 119.578Z" fill="#263239"/>
<path d="M174.724 120.497L174.53 120.603L169.373 123.587L160.209 118.289L160.015 118.183L165.365 115.093L174.724 120.497Z" fill="#263239"/>
<path d="M174.529 120.603L169.373 123.587L160.208 118.289L165.365 115.305L174.529 120.603Z" fill="#37474F"/>
<path d="M164.746 124.187C166.229 122.722 168.366 120.691 170.167 120.108C170.397 120.038 170.75 119.879 171.438 119.72C170.82 119.596 170.202 119.561 169.584 119.349C168.984 119.155 168.419 118.819 168.03 118.307C167.871 118.113 167.765 117.777 167.96 117.618C168.03 117.565 168.119 117.53 168.207 117.53C169.549 117.495 170.608 117.283 171.845 117.195C172.374 117.159 172.975 117.089 173.487 117.23C173.981 117.371 174.493 117.512 174.988 117.689C177.23 118.466 179.261 119.155 182.422 118.413L188.108 115.376C188.108 115.376 189.326 115.076 191.11 118.113C192.911 121.15 191.851 122.81 191.851 122.81L185.459 125.017C185.459 125.017 185.406 125.035 185.371 125.053C184.664 125.317 184.029 125.865 182.351 126.377C180.356 126.995 177.813 126.271 176.083 126.165C174.352 126.059 171.421 126.871 169.814 127.525C168.207 128.178 166.282 125.706 165.47 126.006C164.658 126.306 163.263 125.653 164.746 124.187Z" fill="#F4A6A7"/>
<path d="M172.162 118.748C173.328 118.625 174.617 119.137 174.617 119.137C174.617 119.137 173.169 119.172 171.421 119.702C170.803 119.578 170.185 119.543 169.566 119.331C169.037 119.155 168.525 118.872 168.154 118.466C169.125 119.119 170.997 118.872 172.162 118.748Z" fill="#F28F8F"/>
<path d="M203.083 69.8353C201.458 70.471 199.357 77.2341 200.646 83.7323L203.665 104.057C203.665 104.057 199.975 106.247 194.783 109.46C191.199 111.685 188.108 113.734 188.108 115.376C190.457 116.223 192.576 120.55 191.87 122.81C193.476 124.717 208.309 116.488 213.501 112.939C215.902 111.297 217.121 110.643 216.185 103.227C215.161 95.0159 214.454 85.8866 212.865 79.7946C211.188 73.4376 209.334 70.9655 203.083 69.853V69.8353Z" fill="#5DBDB0"/>
<path opacity="0.7" d="M203.083 69.8353C201.458 70.471 199.357 77.2341 200.646 83.7323L203.665 104.057C203.665 104.057 199.975 106.247 194.783 109.46C191.199 111.685 188.108 113.734 188.108 115.376C190.457 116.223 192.576 120.55 191.87 122.81C193.476 124.717 208.309 116.488 213.501 112.939C215.902 111.297 217.121 110.643 216.185 103.227C215.161 95.0159 214.454 85.8866 212.865 79.7946C211.188 73.4376 209.334 70.9655 203.083 69.853V69.8353Z" fill="white"/>
<path d="M168.843 139.303C168.225 139.55 167.519 139.497 166.918 139.161L134.162 120.25C133.58 119.914 133.191 119.349 133.085 118.696L129.501 97.3115C129.483 97.1879 129.465 97.0643 129.465 96.9407C129.465 96.3403 129.695 95.7752 130.119 95.3514L164.146 115.005C164.57 115.252 164.87 115.676 164.941 116.153L168.808 139.285L168.843 139.303Z" fill="#37474F"/>
<path d="M169.373 139.038L169.143 139.161C169.037 139.214 168.949 139.267 168.843 139.303L164.976 116.17C164.888 115.694 164.605 115.27 164.181 115.023L130.136 95.3514C130.26 95.2278 130.419 95.1042 130.595 94.9982L164.693 114.687C165.117 114.934 165.417 115.358 165.488 115.835L169.373 139.002V139.038Z" fill="#455A64"/>
<path d="M164.659 115.446L165.188 115.146C165.347 115.358 165.453 115.588 165.506 115.853L169.391 139.02L169.162 139.144C169.056 139.197 168.967 139.25 168.861 139.285L164.994 116.153C164.941 115.888 164.835 115.641 164.676 115.429L164.659 115.446Z" fill="#263239"/>
<path d="M150.39 119.561C150.143 118.131 148.677 116.223 147.088 115.305C145.499 114.387 144.422 114.811 144.651 116.241C144.899 117.671 146.364 119.578 147.953 120.497C149.543 121.415 150.62 120.991 150.39 119.561Z" fill="#5DBDB0"/>
</svg>
