<svg width="344" height="241" viewBox="0 0 344 241" fill="none" xmlns="http://www.w3.org/2000/svg">
<rect x="0.137695" y="0.558594" width="343.438" height="239.623" rx="23" fill="white"/>
<path d="M262.859 57.107C262.859 55.3568 262.254 54.1482 261.275 53.5648C260.275 52.9814 254.524 49.6475 253.524 49.0849C252.524 48.5223 251.169 48.6057 249.648 49.4808L141.797 111.741V147.434L149.528 151.893L257.358 89.6331C260.4 87.8829 262.859 83.6322 262.859 80.1316V57.107Z" fill="#5DBDB0"/>
<path opacity="0.15" d="M262.859 57.107C262.859 55.3568 262.254 54.1482 261.275 53.5648C260.275 52.9814 254.524 49.6475 253.524 49.0849C252.524 48.5223 251.169 48.6057 249.648 49.4808L141.797 111.741V147.434L149.528 151.893L257.358 89.6331C260.4 87.8829 262.859 83.6322 262.859 80.1316V57.107Z" fill="black"/>
<path d="M257.358 53.9399C260.4 52.1896 262.859 53.6065 262.859 57.107V80.1108C262.859 83.6113 260.4 87.862 257.358 89.6123L149.528 151.872V116.179L257.358 53.9399Z" fill="#5DBDB0"/>
<path d="M256.253 86.6952C258.295 85.5283 259.962 82.632 259.962 80.2775V59.024C259.962 57.3571 258.775 56.6695 257.316 57.5029L151.695 118.534V147.101L256.253 86.6952Z" fill="#FBFBFB"/>
<path d="M170.094 129.473C170.094 129.64 170.052 129.806 169.969 129.952C169.886 130.119 169.802 130.223 169.698 130.286L167.864 131.348C167.76 131.411 167.656 131.411 167.593 131.348C167.51 131.265 167.468 131.161 167.468 130.994V125.347C167.468 124.701 167.364 124.264 167.156 123.993C166.948 123.722 166.635 123.722 166.197 123.972C165.76 124.222 165.447 124.597 165.239 125.097C165.051 125.597 164.947 126.16 164.947 126.806V132.453C164.947 132.619 164.906 132.786 164.822 132.953C164.739 133.119 164.655 133.224 164.551 133.286L162.718 134.349C162.613 134.411 162.509 134.411 162.447 134.349C162.363 134.265 162.322 134.161 162.322 133.994V119.367C162.322 119.2 162.363 119.034 162.447 118.867C162.53 118.7 162.613 118.596 162.718 118.534L164.551 117.471C164.655 117.408 164.76 117.408 164.822 117.471C164.906 117.554 164.947 117.658 164.947 117.825V122.576C165.114 122.159 165.364 121.722 165.718 121.222C166.072 120.721 166.468 120.346 166.927 120.096C167.385 119.826 167.823 119.68 168.198 119.659C168.594 119.638 168.906 119.763 169.198 120.013C169.469 120.263 169.677 120.68 169.844 121.222C169.99 121.763 170.073 122.493 170.073 123.368V129.494L170.094 129.473Z" fill="#455A64"/>
<path d="M175.116 122.659C175.116 122.993 175.157 123.243 175.261 123.368C175.366 123.493 175.511 123.493 175.741 123.368L176.908 122.701C177.012 122.639 177.116 122.639 177.178 122.701C177.262 122.784 177.303 122.889 177.303 123.055V125.306C177.303 125.472 177.262 125.639 177.178 125.806C177.095 125.972 177.012 126.077 176.908 126.139L175.532 126.931C175.074 127.202 174.657 127.327 174.303 127.348C173.949 127.368 173.615 127.264 173.344 127.035C173.094 126.806 172.886 126.473 172.74 126.014C172.594 125.556 172.532 124.993 172.532 124.305V120.555L171.469 121.18C171.365 121.243 171.261 121.243 171.198 121.18C171.115 121.097 171.073 120.992 171.073 120.826V118.575C171.073 118.409 171.115 118.242 171.198 118.075C171.282 117.909 171.365 117.804 171.469 117.742L172.532 117.117V113.491C172.532 113.325 172.573 113.158 172.657 112.991C172.74 112.824 172.824 112.72 172.928 112.658L174.761 111.595C174.866 111.533 174.949 111.533 175.032 111.595C175.116 111.678 175.157 111.783 175.157 111.949V115.575L176.803 114.637C176.908 114.575 176.991 114.575 177.074 114.637C177.158 114.721 177.199 114.825 177.199 114.991V117.242C177.199 117.409 177.158 117.575 177.074 117.742C176.991 117.909 176.908 118.013 176.803 118.075L175.157 119.013V122.618L175.116 122.659Z" fill="#455A64"/>
<path d="M181.971 118.7C181.971 119.034 182.013 119.284 182.117 119.409C182.221 119.534 182.367 119.534 182.596 119.409L183.763 118.742C183.867 118.679 183.951 118.679 184.034 118.742C184.117 118.825 184.159 118.93 184.159 119.096V121.347C184.159 121.513 184.117 121.68 184.034 121.826C183.951 121.993 183.867 122.097 183.763 122.159L182.388 122.951C181.929 123.222 181.513 123.347 181.158 123.368C180.783 123.368 180.471 123.284 180.2 123.055C179.95 122.826 179.742 122.493 179.596 122.034C179.45 121.576 179.387 121.013 179.387 120.326V116.575L178.325 117.2C178.22 117.263 178.116 117.263 178.054 117.2C177.97 117.117 177.929 117.013 177.929 116.846V114.595C177.929 114.429 177.97 114.262 178.054 114.095C178.137 113.929 178.22 113.825 178.325 113.762L179.387 113.137V109.511C179.387 109.345 179.429 109.178 179.512 109.011C179.596 108.845 179.679 108.74 179.783 108.678L181.617 107.615C181.721 107.553 181.804 107.553 181.888 107.615C181.971 107.699 182.013 107.803 182.013 107.969V111.595L183.659 110.657C183.763 110.595 183.846 110.595 183.93 110.657C184.013 110.741 184.055 110.845 184.055 111.012V113.262C184.055 113.429 184.013 113.595 183.93 113.762C183.846 113.929 183.763 114.033 183.659 114.095L182.013 115.033V118.638L181.971 118.7Z" fill="#455A64"/>
<path d="M189.93 118.846C189.659 119.013 189.409 119.096 189.201 119.138C188.992 119.18 188.805 119.159 188.659 119.138C188.513 119.096 188.367 119.034 188.263 118.929C188.159 118.825 188.076 118.742 188.013 118.638V123.389C188.013 123.555 187.971 123.722 187.888 123.889C187.805 124.055 187.721 124.16 187.617 124.222L185.784 125.285C185.679 125.347 185.596 125.347 185.513 125.285C185.429 125.201 185.388 125.097 185.388 124.93V110.303C185.388 110.136 185.429 109.97 185.513 109.803C185.596 109.636 185.679 109.532 185.784 109.47L187.534 108.449C187.638 108.386 187.742 108.386 187.805 108.449C187.888 108.532 187.93 108.636 187.93 108.803V109.324C188.013 109.115 188.117 108.907 188.221 108.699C188.326 108.469 188.451 108.261 188.597 108.053C188.742 107.844 188.93 107.636 189.138 107.428C189.347 107.219 189.618 107.032 189.951 106.844C190.389 106.594 190.805 106.448 191.18 106.427C191.576 106.407 191.91 106.532 192.201 106.782C192.493 107.032 192.722 107.428 192.91 107.969C193.097 108.511 193.181 109.199 193.201 110.074C193.201 110.282 193.201 110.595 193.201 110.97C193.201 111.345 193.201 111.657 193.201 111.887C193.201 112.783 193.076 113.595 192.91 114.325C192.743 115.054 192.493 115.741 192.201 116.325C191.91 116.908 191.576 117.429 191.18 117.867C190.784 118.304 190.389 118.638 189.951 118.888L189.93 118.846ZM190.576 113.074C190.597 112.637 190.597 112.22 190.576 111.824C190.555 111.324 190.43 110.928 190.243 110.657C190.055 110.386 189.722 110.386 189.263 110.657C189.055 110.782 188.867 110.928 188.722 111.137C188.576 111.324 188.43 111.532 188.347 111.762C188.242 111.991 188.159 112.22 188.117 112.47C188.055 112.72 188.013 112.949 187.992 113.179C187.992 113.408 187.971 113.679 187.971 113.97C187.971 114.262 187.971 114.512 187.992 114.741C187.992 114.95 188.055 115.137 188.117 115.325C188.18 115.491 188.263 115.637 188.347 115.762C188.451 115.866 188.576 115.929 188.722 115.95C188.867 115.95 189.055 115.908 189.263 115.783C189.722 115.512 190.034 115.137 190.243 114.637C190.43 114.137 190.555 113.616 190.576 113.074Z" fill="#455A64"/>
<path d="M197.203 106.032C197.203 106.198 197.161 106.365 197.078 106.532C196.994 106.698 196.911 106.803 196.807 106.865L194.911 107.969C194.806 108.032 194.702 108.032 194.64 107.969C194.556 107.886 194.515 107.782 194.515 107.615V104.698C194.515 104.531 194.556 104.365 194.64 104.198C194.723 104.031 194.806 103.927 194.911 103.865L196.807 102.76C196.911 102.698 197.015 102.698 197.078 102.76C197.161 102.844 197.203 102.948 197.203 103.114V106.032ZM197.203 113.824C197.203 113.991 197.161 114.158 197.078 114.304C196.994 114.47 196.911 114.575 196.807 114.637L194.911 115.741C194.806 115.804 194.702 115.804 194.64 115.741C194.556 115.658 194.515 115.554 194.515 115.387V112.47C194.515 112.303 194.556 112.137 194.64 111.97C194.723 111.803 194.806 111.699 194.911 111.637L196.807 110.532C196.911 110.47 197.015 110.47 197.078 110.532C197.161 110.616 197.203 110.72 197.203 110.887V113.804V113.824Z" fill="#455A64"/>
<path d="M203.224 94.0922C203.265 93.9047 203.349 93.7171 203.432 93.5088C203.536 93.3212 203.661 93.1545 203.849 93.0503L205.641 92.0085C205.641 92.0085 205.808 91.9668 205.87 92.0085C205.933 92.071 205.974 92.1752 205.974 92.3002C205.974 92.3627 205.974 92.4252 205.953 92.5086L201.078 113.366C201.036 113.533 200.973 113.72 200.869 113.929C200.765 114.137 200.619 114.283 200.432 114.408L198.661 115.429C198.661 115.429 198.494 115.471 198.431 115.429C198.369 115.366 198.327 115.262 198.327 115.137C198.327 115.075 198.327 115.012 198.348 114.929L203.203 94.0922H203.224Z" fill="#455A64"/>
<path d="M208.183 91.2376C208.225 91.05 208.308 90.8625 208.391 90.6541C208.496 90.4666 208.621 90.2999 208.808 90.1957L210.6 89.1539C210.6 89.1539 210.767 89.1122 210.829 89.1539C210.892 89.2164 210.913 89.3206 210.913 89.4456C210.913 89.5081 210.913 89.5706 210.892 89.654L206.016 110.512C205.974 110.678 205.912 110.866 205.808 111.074C205.704 111.282 205.558 111.428 205.37 111.553L203.599 112.574C203.599 112.574 203.432 112.616 203.37 112.574C203.307 112.512 203.266 112.408 203.266 112.283C203.266 112.22 203.266 112.158 203.286 112.074L208.141 91.2376H208.183Z" fill="#455A64"/>
<path d="M217.768 90.9667C217.914 90.8834 218.018 90.8834 218.101 90.9667C218.185 91.0501 218.226 91.1334 218.268 91.2376L219.331 95.6758L220.393 89.9874C220.414 89.8415 220.477 89.6957 220.56 89.529C220.643 89.3623 220.747 89.2373 220.893 89.1539L222.685 88.1121C222.685 88.1121 222.873 88.0704 222.935 88.1121C222.998 88.1746 223.04 88.2788 223.04 88.4246C223.04 88.4871 223.04 88.5497 223.04 88.6122L220.727 100.26C220.706 100.406 220.643 100.572 220.581 100.718C220.518 100.885 220.393 101.01 220.247 101.093L218.601 102.052C218.455 102.135 218.351 102.135 218.289 102.052C218.226 101.969 218.164 101.885 218.122 101.76L217.101 97.6761L216.08 102.948C216.038 103.094 215.997 103.26 215.913 103.427C215.851 103.594 215.747 103.698 215.601 103.781L213.955 104.74C213.809 104.823 213.705 104.823 213.621 104.74C213.559 104.656 213.496 104.573 213.475 104.448L211.163 95.4466C211.163 95.4466 211.163 95.3424 211.163 95.2799C211.163 95.1341 211.204 94.9882 211.267 94.8423C211.329 94.6965 211.413 94.5923 211.517 94.5506L213.309 93.5088C213.455 93.4255 213.559 93.4255 213.642 93.5088C213.726 93.5921 213.767 93.6755 213.809 93.7797L214.872 98.2179L215.934 92.5295C215.955 92.4045 216.018 92.2378 216.101 92.0711C216.184 91.9044 216.288 91.7794 216.434 91.696L217.789 90.9042L217.768 90.9667Z" fill="#455A64"/>
<path d="M230.312 83.7363C230.458 83.653 230.562 83.653 230.645 83.7363C230.729 83.8197 230.77 83.903 230.812 84.0072L231.875 88.4454L232.937 82.757C232.958 82.632 233.021 82.4653 233.104 82.2986C233.187 82.1319 233.291 82.0069 233.437 81.9235L235.229 80.8817C235.229 80.8817 235.417 80.84 235.479 80.8817C235.542 80.9442 235.583 81.0484 235.583 81.1942C235.583 81.2567 235.583 81.3193 235.583 81.3818L233.271 93.0295C233.25 93.1753 233.187 93.342 233.125 93.4879C233.062 93.6546 232.937 93.7796 232.791 93.863L231.145 94.8214C230.999 94.9048 230.895 94.9048 230.833 94.8214C230.77 94.7381 230.708 94.6547 230.666 94.5297L229.645 90.4457L228.624 95.7174C228.582 95.8633 228.541 96.03 228.457 96.1967C228.395 96.3634 228.291 96.4675 228.145 96.5509L226.499 97.5094C226.353 97.5927 226.249 97.5927 226.165 97.5094C226.103 97.426 226.04 97.3427 226.019 97.2177L223.707 88.2162C223.707 88.2162 223.707 88.112 223.707 88.0495C223.707 87.9037 223.748 87.7578 223.811 87.6119C223.873 87.4661 223.957 87.3619 224.061 87.3202L225.853 86.2784C225.999 86.195 226.103 86.195 226.186 86.2784C226.269 86.3617 226.311 86.4451 226.353 86.5493L227.415 90.9875L228.478 85.2991C228.499 85.1532 228.562 85.0073 228.645 84.8407C228.728 84.674 228.832 84.5489 228.978 84.4656L230.333 83.6738L230.312 83.7363Z" fill="#455A64"/>
<path d="M242.835 76.4852C242.981 76.4018 243.085 76.4018 243.169 76.4852C243.252 76.5685 243.294 76.6518 243.335 76.756L244.398 81.1942L245.461 75.5058C245.481 75.3808 245.544 75.2141 245.627 75.0474C245.711 74.8807 245.815 74.7557 245.961 74.6724L247.753 73.6305C247.753 73.6305 247.94 73.5888 248.003 73.6305C248.065 73.693 248.107 73.7972 248.107 73.9431C248.107 74.0056 248.107 74.0681 248.107 74.1306L245.794 85.7783C245.773 85.9242 245.711 86.0909 245.648 86.2367C245.586 86.4034 245.461 86.5284 245.315 86.6118L243.669 87.5703C243.523 87.6536 243.419 87.6536 243.356 87.5703C243.294 87.4869 243.231 87.4036 243.189 87.2786L242.168 83.1946L241.147 88.4663C241.106 88.6121 241.064 88.7788 240.981 88.9455C240.918 89.1122 240.814 89.2164 240.668 89.2997L239.022 90.2582C238.876 90.3416 238.772 90.3416 238.689 90.2582C238.626 90.1749 238.564 90.0915 238.543 89.9665L236.23 80.965C236.23 80.965 236.23 80.8609 236.23 80.7984C236.23 80.6525 236.272 80.5066 236.334 80.3608C236.397 80.2149 236.48 80.1107 236.584 80.0691L238.376 79.0272C238.522 78.9439 238.626 78.9439 238.71 79.0272C238.793 79.1106 238.835 79.1939 238.876 79.2981L239.939 83.7363L241.002 78.0479C241.022 77.902 241.085 77.7562 241.168 77.5895C241.252 77.4228 241.356 77.2978 241.502 77.2144L242.856 76.4226L242.835 76.4852Z" fill="#455A64"/>
<path d="M251.315 82.5903C251.315 82.757 251.273 82.9237 251.19 83.0904C251.107 83.2571 251.023 83.3612 250.919 83.4237L249.023 84.5281C248.919 84.5906 248.814 84.5906 248.752 84.5281C248.669 84.4447 248.627 84.3406 248.627 84.1739V81.2567C248.627 81.09 248.669 80.9233 248.752 80.7566C248.835 80.59 248.919 80.4858 249.023 80.4233L250.919 79.3189C251.023 79.2564 251.127 79.2564 251.19 79.3189C251.273 79.4023 251.315 79.5064 251.315 79.6731V82.5903Z" fill="#455A64"/>
<path d="M144.757 105.823L144.715 105.782L131.504 97.9261L131.442 97.8845C125.628 94.3839 117.856 94.9257 109.501 100.385C92.6856 111.345 79.8918 137.912 80.9128 159.749C81.4129 170.625 85.2468 178.273 91.0395 181.856L91.0811 181.898L104.292 189.754L104.354 189.795C110.168 193.317 117.94 192.754 126.316 187.295C143.09 176.335 155.883 149.768 154.883 127.931C154.383 117.054 150.549 109.407 144.757 105.823Z" fill="#37474F"/>
<path d="M103.896 189.462L91.1018 181.877L91.0393 181.836C85.2467 178.252 81.4127 170.605 80.9126 159.749C80.4542 150.018 82.7671 139.35 86.9344 129.535L87.0178 129.327L100.145 137.391C95.9776 147.205 93.6855 157.873 94.1231 167.604C94.6232 178.252 98.2904 185.795 103.896 189.462Z" fill="#263239"/>
<path d="M126.337 187.274C143.11 176.314 155.904 149.747 154.904 127.91C153.904 106.073 139.485 97.2802 122.69 108.24C105.917 119.2 93.1231 145.767 94.1232 167.604C95.1234 189.441 109.542 198.234 126.337 187.295V187.274Z" fill="#455A64"/>
<path d="M116.877 181.502C114.627 181.502 112.522 180.96 110.626 179.877C105.333 176.835 102.312 169.855 102.312 160.749C102.312 143.975 112.501 124.41 125.045 117.117C130.733 113.804 136.318 113.366 140.714 115.908C146.007 118.95 149.028 125.91 149.028 135.036C149.028 151.81 138.839 171.376 126.295 178.668C123.045 180.565 119.836 181.502 116.877 181.502ZM134.442 116.804C131.921 116.804 129.15 117.638 126.295 119.305C114.46 126.181 104.833 144.788 104.833 160.749C104.833 168.938 107.396 175.105 111.876 177.689C115.481 179.752 120.148 179.335 125.024 176.481C136.859 169.584 146.486 150.997 146.486 135.036C146.486 126.848 143.923 120.68 139.443 118.096C137.943 117.242 136.255 116.804 134.442 116.804Z" fill="#5DBDB0"/>
<path d="M116.856 139.579C114.085 139.579 111.522 138.704 109.313 136.974L110.48 135.474C114.335 138.495 119.565 138.37 125.17 135.099C130.983 131.723 136.442 125.451 140.547 117.45L142.235 118.325C137.963 126.639 132.233 133.182 126.128 136.745C122.899 138.62 119.752 139.558 116.856 139.558V139.579Z" fill="#5DBDB0"/>
<path d="M110.751 178.314L109.063 177.439C113.335 169.125 119.065 162.582 125.17 159.019C131.504 155.331 137.463 155.269 141.985 158.79L140.818 160.29C136.963 157.269 131.733 157.394 126.128 160.666C120.315 164.041 114.856 170.313 110.751 178.314Z" fill="#5DBDB0"/>
<path d="M123.211 179.252C122.336 179.252 121.482 179.023 120.648 178.543C116.189 175.98 113.439 166.75 113.439 154.456C113.439 137.495 118.606 121.222 125.191 117.388C127.045 116.304 128.941 116.262 130.671 117.242C135.13 119.805 137.88 129.035 137.88 141.329C137.88 158.29 132.713 174.564 126.129 178.398C125.149 178.96 124.17 179.252 123.211 179.252ZM128.087 118.429C127.462 118.429 126.795 118.638 126.129 119.034C120.273 122.451 115.314 138.662 115.314 154.456C115.314 167.479 118.461 175.105 121.586 176.897C122.711 177.543 123.899 177.502 125.17 176.751C131.025 173.334 135.984 157.123 135.984 141.329C135.984 128.306 132.838 120.68 129.712 118.888C129.192 118.575 128.65 118.429 128.087 118.429Z" fill="#5DBDB0"/>
<path d="M126.608 118.2H124.711V177.564H126.608V118.2Z" fill="#5DBDB0"/>
<path d="M147.275 134.213L103.082 159.934L104.036 161.573L148.229 135.852L147.275 134.213Z" fill="#5DBDB0"/>
</svg>
