<svg width="344" height="241" viewBox="0 0 344 241" fill="none" xmlns="http://www.w3.org/2000/svg">
<rect x="0.137695" y="0.558594" width="343.438" height="239.623" rx="23" fill="white"/>
<g style="mix-blend-mode:multiply" opacity="0.3">
<path d="M244.182 198.524C244.182 201.306 211.802 205.349 171.837 205.349C131.872 205.349 99.5117 201.306 99.5117 198.524C99.5117 195.743 131.892 193.481 171.857 193.481C211.822 193.481 244.202 195.743 244.202 198.524H244.182Z" fill="#A7A9AB"/>
</g>
<path d="M208 139.548C208 139.548 210.442 116.213 198.674 94.1992C198.674 94.1992 210.682 106.427 214.004 119.535C214.004 119.535 217.346 101.304 227.793 95.0798C227.793 95.0798 218.687 109.529 218.467 137.746L218.687 151.975H210.021L208.02 139.528L208 139.548Z" fill="#48AE4D"/>
<path d="M166.213 129.481C166.213 129.481 168.655 106.147 156.887 84.1329C156.887 84.1329 168.895 96.3605 172.217 109.469C172.217 109.469 175.559 91.2373 186.005 85.0134C186.005 85.0134 176.9 99.4625 176.68 127.68L176.9 141.909H168.234L166.233 129.461L166.213 129.481Z" fill="#48AE4D"/>
<path d="M173.939 132.663C173.378 132.663 172.898 132.243 172.838 131.663C169.756 103.445 171.557 71.525 171.577 71.2048C171.617 70.5844 172.138 70.1241 172.758 70.1642C173.378 70.2042 173.839 70.7245 173.799 71.3449C173.799 71.6651 171.978 103.405 175.039 131.422C175.1 132.043 174.659 132.583 174.059 132.643C174.019 132.643 173.979 132.643 173.939 132.643V132.663Z" fill="#48AE4D"/>
<path d="M191.109 103.325L187.547 131.102C181.543 113.771 182.204 97.3212 182.204 97.3212C173.759 107.548 174.419 130.222 174.419 130.222L167.315 100.883L166.434 130.002C160.87 118.454 159.99 93.3187 159.99 93.3187C154.707 100.183 155.487 113.371 156.708 121.937C153.646 110.049 147.982 103.765 147.982 103.765C153.986 121.536 148.863 148.433 148.863 148.433L194.872 148.653C196.873 131.763 191.089 103.305 191.089 103.305L191.109 103.325Z" fill="#4FB04D"/>
<path d="M164.612 147.773C164.612 147.773 162.651 122.217 159.469 108.208C159.469 108.208 168.175 119.335 170.936 131.663L172.958 105.306L177.12 132.863C177.12 132.863 182.023 106.407 191.109 98.8622C191.109 98.8622 184.245 128.201 185.966 147.312L164.632 147.753L164.612 147.773Z" fill="#69B53F"/>
<path d="M129.391 149.254C129.391 149.254 127.029 112.511 112.8 99.1623C112.8 99.1623 126.129 104.205 131.772 123.758C131.772 123.758 134.734 108.048 144.22 102.424C144.22 102.424 137.396 116.713 138.596 150.795C139.237 169.166 136.815 164.643 136.815 164.643L129.411 162.862V149.234L129.391 149.254Z" fill="#48AE4D"/>
<path d="M133.353 148.413C133.913 148.373 134.353 147.913 134.373 147.332C135.074 118.955 130.571 87.295 130.531 86.9948C130.451 86.3944 129.891 85.9541 129.27 86.0542C128.67 86.1342 128.25 86.7146 128.33 87.315C128.37 87.6352 132.852 119.115 132.152 147.292C132.152 147.913 132.632 148.413 133.233 148.433C133.273 148.433 133.313 148.433 133.353 148.433V148.413Z" fill="#48AE4D"/>
<path d="M212.422 158.74C212.422 158.74 212.342 158.74 212.322 158.74C211.702 158.679 211.261 158.139 211.321 157.519C214.383 125.979 211.562 89.156 211.522 88.7958C211.481 88.1754 211.922 87.6551 212.542 87.5951C213.143 87.555 213.683 87.9953 213.743 88.6157C213.763 88.9759 216.625 125.999 213.543 157.719C213.483 158.299 213.002 158.72 212.442 158.72L212.422 158.74Z" fill="#48AE4D"/>
<path d="M119.324 149.774C119.324 149.774 116.662 132.003 103.774 118.654C103.774 118.654 114.881 123.097 122.446 136.886C122.446 136.886 122.446 122.657 112.82 99.1823C112.82 99.1823 126.888 114.672 128.669 130.662L129.71 100.143L136.674 136.446L141.758 108.148L144.239 138.227C144.239 138.227 150.023 115.993 160.689 107.548C160.689 107.548 150.463 133.784 150.903 148.453L119.344 149.794L119.324 149.774Z" fill="#9CC547"/>
<path d="M225.111 149.774C225.111 149.774 227.773 132.003 240.661 118.654C240.661 118.654 229.554 123.097 221.989 136.886C221.989 136.886 219.327 124.878 231.315 101.764C231.315 101.764 218.427 118.654 216.205 133.324L213.984 100.423L207.76 136.426L202.677 108.128L200.195 138.207C200.195 138.207 194.412 115.973 183.745 107.528C183.745 107.528 193.972 133.764 193.531 148.433L225.091 149.774H225.111Z" fill="#39A14A"/>
<path d="M222.549 198.524H122.366L113.48 151.995H231.434L222.549 198.524Z" fill="#F9B041"/>
<path d="M210.001 151.995L201.115 198.524H222.549L231.434 151.995H210.001Z" fill="#F18444"/>
<path d="M113.48 151.995L122.366 198.524H131.272L122.366 151.995H113.48Z" fill="#FBEB3F"/>
<g style="mix-blend-mode:multiply" opacity="0.5">
<path d="M114.401 151.995L113.5 152.075L114.561 157.939L228.372 168.926L231.354 152.456C230.313 152.316 229.172 152.155 227.952 151.995H114.401Z" fill="#A7A9AB"/>
</g>
<path d="M239.439 145.771H107.857V157.339H239.439V145.771Z" fill="#D85E40"/>
<path d="M239.419 145.771H209.2V157.339H239.419V145.771Z" fill="#A04D41"/>
<path d="M114.961 145.771H107.857V157.339H114.961V145.771Z" fill="#FBEB3F"/>
<path d="M137.255 177.772C137.255 180.233 135.274 182.214 132.812 182.214C130.351 182.214 128.37 180.233 128.37 177.772C128.37 175.31 130.351 173.329 132.812 173.329C135.274 173.329 137.255 175.31 137.255 177.772Z" fill="#D85E40"/>
<path d="M164.472 177.772C164.472 180.233 162.471 182.214 160.03 182.214C157.588 182.214 155.587 180.233 155.587 177.772C155.587 175.31 157.568 173.329 160.03 173.329C162.491 173.329 164.472 175.31 164.472 177.772Z" fill="#D85E40"/>
<path d="M191.709 177.772C191.709 180.233 189.728 182.214 187.267 182.214C184.805 182.214 182.824 180.233 182.824 177.772C182.824 175.31 184.805 173.329 187.267 173.329C189.728 173.329 191.709 175.31 191.709 177.772Z" fill="#D85E40"/>
<path d="M218.926 177.772C218.926 180.233 216.945 182.214 214.483 182.214C212.022 182.214 210.041 180.233 210.041 177.772C210.041 175.31 212.022 173.329 214.483 173.329C216.945 173.329 218.926 175.31 218.926 177.772Z" fill="#D85E40"/>
<path d="M134.774 173.809C135.074 174.409 135.255 175.07 135.255 175.77C135.255 178.232 133.273 180.213 130.812 180.213C130.111 180.213 129.431 180.033 128.851 179.733C129.571 181.194 131.072 182.214 132.813 182.214C135.275 182.214 137.256 180.233 137.256 177.772C137.256 176.03 136.235 174.529 134.774 173.809Z" fill="#A04D41"/>
<path d="M161.991 173.809C162.291 174.409 162.471 175.07 162.471 175.77C162.471 178.232 160.47 180.213 158.029 180.213C157.328 180.213 156.648 180.033 156.067 179.733C156.788 181.194 158.289 182.214 160.03 182.214C162.491 182.214 164.473 180.233 164.473 177.772C164.473 176.03 163.452 174.529 161.991 173.809Z" fill="#A04D41"/>
<path d="M189.228 173.809C189.528 174.409 189.708 175.07 189.708 175.77C189.708 178.232 187.707 180.213 185.265 180.213C184.565 180.213 183.885 180.033 183.304 179.733C184.025 181.194 185.526 182.214 187.267 182.214C189.728 182.214 191.709 180.233 191.709 177.772C191.709 176.03 190.689 174.529 189.228 173.809Z" fill="#A04D41"/>
<path d="M216.445 173.809C216.745 174.409 216.925 175.07 216.925 175.77C216.925 178.232 214.944 180.213 212.483 180.213C211.782 180.213 211.102 180.033 210.521 179.733C211.242 181.194 212.743 182.214 214.484 182.214C216.945 182.214 218.927 180.233 218.927 177.772C218.927 176.03 217.906 174.529 216.445 173.809Z" fill="#A04D41"/>
<path d="M127.969 76.368C127.969 76.368 126.749 62.5594 123.146 54.8746" stroke="#BA1C5D" stroke-width="1.5" stroke-linecap="round" stroke-linejoin="round"/>
<path d="M138.997 55.9153C133.653 56.2555 127.67 61.879 127.81 74.5269C124.528 62.2993 117.243 58.4969 112.02 59.6176C106.516 60.7983 105.836 65.7214 105.836 65.7214C117.143 58.1567 122.486 71.8052 122.486 71.8052L119.725 73.2861L128.37 86.3943L129.291 85.3737L130.451 86.1142L135.234 71.1648L132.172 70.4844C132.172 70.4844 133.633 55.8953 146.561 60.1379C146.561 60.1379 144.58 55.5951 138.957 55.9353L138.997 55.9153Z" fill="#BA1C5D"/>
<path d="M141.999 63.1598C138.857 59.9778 132.893 61.3787 130.772 68.2029C128.77 74.687 128.69 80.6707 128.91 84.333C128.13 80.7508 126.429 75.0072 122.767 69.3036C118.904 63.2999 112.76 63.58 110.599 67.4825C108.438 71.3849 111.92 75.4275 114.061 74.7871C114.061 74.7871 110.719 70.9647 112.74 68.6432C114.762 66.3418 116.623 66.8621 120.445 73.2261C123.287 77.949 125.929 86.6745 125.929 86.6745L129.291 87.9153V88.0153L129.371 87.9553L129.471 87.9953C129.471 87.9953 129.471 87.9553 129.471 87.8952L132.373 85.7939C132.373 85.7939 132.573 76.6682 134.034 71.3449C135.975 64.2004 137.636 63.1798 140.217 64.8608C142.799 66.5419 140.618 71.1248 140.618 71.1248C142.859 71.1648 145.121 66.3418 141.979 63.1598H141.999Z" fill="#DB1F5D"/>
<path d="M126.689 87.9353C126.689 87.9353 120.565 63.9603 110.539 65.6814C99.8321 67.5225 103.194 78.6495 109.098 80.5507C109.098 80.5507 105.336 70.4644 110.319 68.8834C114.501 67.5425 119.905 81.2111 122.246 86.7545C124.588 92.298 126.329 90.2567 126.329 90.2567L126.689 87.9553V87.9353Z" fill="#DA4C64"/>
<path d="M132.033 87.2148C132.033 87.2148 131.452 62.4793 141.558 61.4187C152.365 60.298 152.145 71.9252 146.982 75.3274C146.982 75.3274 147.882 64.6007 142.659 64.4205C138.256 64.2604 136.755 78.8896 135.995 84.8533C135.235 90.817 132.993 89.3361 132.993 89.3361L132.033 87.2148Z" fill="#DA4C64"/>
<path d="M136.575 85.5538C136.915 88.0354 134.314 93.6589 130.231 94.2192C126.149 94.7796 122.126 90.0767 121.786 87.5951C121.446 85.0935 124.908 85.7539 128.99 85.1936C133.073 84.6332 136.235 83.0723 136.575 85.5538Z" fill="#48AE4D"/>
<path d="M122.767 60.6783C122.767 60.6783 125.268 62.0191 126.169 64.4406" stroke="#BA1C5D" stroke-width="1.5" stroke-linecap="round" stroke-linejoin="round"/>
<path d="M127.749 57.5764C127.749 57.5764 126.508 62.4394 126.448 65.7014" stroke="#BA1C5D" stroke-width="1.5" stroke-linecap="round" stroke-linejoin="round"/>
<path d="M125.929 50.4919C125.929 50.4919 124.688 57.8165 125.169 60.5782" stroke="#BA1C5D" stroke-width="1.5" stroke-linecap="round" stroke-linejoin="round"/>
<path d="M123.667 60.278C123.767 61.0185 123.246 61.6789 122.526 61.7989C121.785 61.899 121.125 61.3787 121.005 60.6582C120.905 59.9178 121.425 59.2574 122.146 59.1573C122.886 59.0572 123.547 59.5776 123.647 60.298L123.667 60.278Z" fill="#EDE126"/>
<path d="M124.048 54.4744C124.148 55.1748 123.647 55.8353 122.947 55.9153C122.246 56.0154 121.606 55.5151 121.506 54.8146C121.406 54.1142 121.906 53.4538 122.607 53.3737C123.307 53.2736 123.947 53.774 124.048 54.4744Z" fill="#ED6F2D"/>
<path d="M127.27 50.8121C127.37 51.6126 126.829 52.333 126.029 52.4531C125.228 52.5532 124.508 52.0128 124.388 51.2123C124.288 50.4118 124.828 49.6914 125.629 49.5713C126.429 49.4712 127.15 50.0116 127.27 50.8121Z" fill="#EDE126"/>
<path d="M129.591 56.976C129.711 57.8565 129.091 58.6771 128.21 58.7971C127.329 58.9172 126.509 58.2968 126.389 57.4163C126.269 56.5357 126.889 55.7152 127.77 55.5951C128.65 55.4751 129.471 56.0954 129.591 56.976Z" fill="#ED6F2D"/>
<path d="M215.345 80.2505C215.345 80.2505 218.166 66.662 216.946 58.2767" stroke="#BA1C5D" stroke-width="1.5" stroke-linecap="round" stroke-linejoin="round"/>
<path d="M231.815 63.8603C226.611 62.6395 219.247 66.2818 215.724 78.4494C216.125 65.8015 210.241 60.0579 204.918 59.6176C199.314 59.1573 197.233 63.6602 197.233 63.6602C210.241 59.6977 211.422 74.3068 211.422 74.3068L208.36 74.9272L212.863 89.9766L214.043 89.2561L214.944 90.2968L223.85 77.3687L221.128 75.8278C221.128 75.8278 226.751 62.2993 237.898 70.0842C237.898 70.0842 237.318 65.1611 231.835 63.8603H231.815Z" fill="#BA1C5D"/>
<path d="M232.595 71.6651C230.514 67.7227 224.39 67.3224 220.388 73.2461C216.605 78.8696 214.784 84.5732 213.944 88.1555C214.244 84.4932 214.264 78.5094 212.403 71.9853C210.441 65.1211 204.478 63.6001 201.276 66.7221C198.074 69.844 200.255 74.707 202.496 74.7271C202.496 74.7271 200.395 70.1042 203.017 68.4832C205.638 66.8621 207.259 67.9028 209.061 75.0873C210.401 80.4306 210.421 89.5563 210.421 89.5563L213.283 91.7177V91.8177L213.383 91.7777L213.463 91.8378C213.463 91.8378 213.463 91.7977 213.483 91.7377L216.865 90.557C216.865 90.557 219.687 81.8915 222.629 77.2086C226.571 70.9247 228.433 70.4244 230.414 72.7858C232.395 75.1273 228.973 78.8897 228.973 78.8897C231.114 79.5701 234.677 75.6076 232.595 71.6651Z" fill="#DB1F5D"/>
<path d="M210.762 90.9572C210.762 90.9572 211.842 66.2418 201.736 64.981C190.949 63.6402 190.949 75.2674 196.053 78.7896C196.053 78.7896 195.372 68.0429 200.595 67.9629C204.998 67.9028 206.219 82.532 206.859 88.5157C207.5 94.4994 209.761 93.0385 209.761 93.0385L210.762 90.9372V90.9572Z" fill="#DA4C64"/>
<path d="M216.105 91.7978C216.105 91.7978 222.689 67.9629 232.695 69.8641C243.362 71.9054 239.78 82.9723 233.856 84.7534C233.856 84.7534 237.819 74.7471 232.875 73.0661C228.713 71.6452 223.049 85.1937 220.588 90.6971C218.126 96.2005 216.425 94.1192 216.425 94.1192L216.105 91.7978Z" fill="#DA4C64"/>
<path d="M220.928 91.5176C220.528 93.9991 216.425 98.622 212.343 97.9816C208.26 97.3412 205.779 91.6777 206.179 89.1961C206.579 86.7146 209.701 88.3356 213.764 88.976C217.846 89.6164 221.308 89.036 220.928 91.5176Z" fill="#48AE4D"/>
<path d="M214.904 63.7202C214.904 63.7202 216.906 65.7415 217.066 68.3031" stroke="#BA1C5D" stroke-width="1.5" stroke-linecap="round" stroke-linejoin="round"/>
<path d="M220.568 62.1792C220.568 62.1792 217.966 66.4619 216.966 69.5838" stroke="#BA1C5D" stroke-width="1.5" stroke-linecap="round" stroke-linejoin="round"/>
<path d="M220.868 54.8746C220.868 54.8746 217.546 61.5387 217.226 64.3205" stroke="#BA1C5D" stroke-width="1.5" stroke-linecap="round" stroke-linejoin="round"/>
<path d="M215.886 63.6001C215.765 64.3405 215.085 64.8409 214.345 64.7208C213.604 64.6007 213.104 63.9203 213.224 63.1798C213.344 62.4393 214.024 61.939 214.765 62.0591C215.505 62.1792 215.986 62.8596 215.886 63.6001Z" fill="#EDE126"/>
<path d="M217.926 58.1567C217.806 58.8571 217.165 59.3374 216.465 59.2173C215.764 59.0973 215.284 58.4569 215.404 57.7364C215.524 57.036 216.165 56.5557 216.865 56.6758C217.566 56.7958 218.046 57.4362 217.926 58.1367V58.1567Z" fill="#ED6F2D"/>
<path d="M222.069 55.5751C221.949 56.3756 221.208 56.9159 220.408 56.7758C219.607 56.6557 219.067 55.9153 219.207 55.1148C219.327 54.3143 220.068 53.7739 220.868 53.914C221.669 54.0341 222.209 54.7746 222.069 55.5751Z" fill="#EDE126"/>
<path d="M222.509 62.1592C222.369 63.0398 221.548 63.6401 220.648 63.5001C219.767 63.36 219.167 62.5395 219.307 61.6389C219.447 60.7583 220.268 60.158 221.168 60.2981C222.049 60.4381 222.649 61.2587 222.509 62.1592Z" fill="#ED6F2D"/>
<path d="M173.359 61.9791C173.359 61.9791 175.5 48.2706 173.859 39.9454" stroke="#BA1C5D" stroke-width="1.5" stroke-linecap="round" stroke-linejoin="round"/>
<path d="M188.988 44.7683C183.725 43.8077 176.56 47.8102 173.638 60.1379C173.398 47.49 167.254 42.0466 161.911 41.8665C156.287 41.6864 154.446 46.2892 154.446 46.2892C167.254 41.6664 169.135 56.2154 169.135 56.2154L166.094 56.9759L171.337 71.7852L172.478 71.0247L173.418 72.0253L181.683 58.657L178.882 57.2561C178.882 57.2561 183.825 43.4675 195.352 50.672C195.352 50.672 194.531 45.7889 188.988 44.7683Z" fill="#BA1C5D"/>
<path d="M190.149 52.5331C187.868 48.6907 181.744 48.5907 178.042 54.7145C174.539 60.5181 173.018 66.3017 172.358 69.924C172.478 66.2617 172.198 60.278 170.017 53.854C167.715 47.0897 161.691 45.889 158.649 49.151C155.608 52.4131 158.029 57.176 160.25 57.076C160.25 57.076 157.929 52.5531 160.451 50.8121C162.972 49.051 164.653 50.0316 166.815 57.116C168.416 62.3793 168.896 71.505 168.896 71.505L171.858 73.5062V73.6063L171.958 73.5663L172.038 73.6263C172.038 73.6263 172.038 73.5863 172.038 73.5263L175.36 72.1854C175.36 72.1854 177.761 63.3799 180.443 58.5769C184.065 52.1129 185.906 51.5125 188.008 53.7739C190.109 56.0153 186.887 59.9378 186.887 59.9378C189.048 60.4981 192.411 56.3755 190.129 52.5331H190.149Z" fill="#DB1F5D"/>
<path d="M169.316 72.9059C169.316 72.9059 169.156 48.1705 159.009 47.41C148.162 46.6095 148.743 58.2168 154.026 61.4788C154.026 61.4788 152.805 50.7921 158.009 50.4519C162.391 50.1717 164.353 64.7208 165.273 70.6645C166.214 76.6083 168.395 75.0473 168.395 75.0473L169.296 72.8859L169.316 72.9059Z" fill="#DA4C64"/>
<path d="M174.679 73.4663C174.679 73.4663 180.082 49.3312 190.148 50.732C200.915 52.253 197.893 63.48 192.05 65.5413C192.05 65.5413 195.492 55.3549 190.489 53.914C186.266 52.6933 181.263 66.5219 179.101 72.1454C176.92 77.7489 175.119 75.7677 175.119 75.7677L174.699 73.4663H174.679Z" fill="#DA4C64"/>
<path d="M179.501 72.966C179.241 75.4675 175.359 80.2906 171.256 79.8503C167.154 79.41 164.392 73.8866 164.652 71.385C164.912 68.8834 168.114 70.3644 172.217 70.7846C176.319 71.2249 179.762 70.4644 179.481 72.966H179.501Z" fill="#48AE4D"/>
<path d="M172.078 45.4887C172.078 45.4887 174.179 47.3899 174.459 49.9515" stroke="#BA1C5D" stroke-width="1.5" stroke-linecap="round" stroke-linejoin="round"/>
<path d="M177.681 43.6677C177.681 43.6677 175.3 48.0704 174.459 51.2524" stroke="#BA1C5D" stroke-width="1.5" stroke-linecap="round" stroke-linejoin="round"/>
<path d="M177.621 36.363C177.621 36.363 174.639 43.1873 174.459 45.969" stroke="#BA1C5D" stroke-width="1.5" stroke-linecap="round" stroke-linejoin="round"/>
<path d="M173.058 45.3086C172.978 46.0491 172.318 46.5694 171.577 46.5094C170.837 46.4293 170.316 45.7689 170.376 45.0285C170.456 44.288 171.117 43.7677 171.857 43.8277C172.598 43.9078 173.118 44.5682 173.038 45.3086H173.058Z" fill="#EDE126"/>
<path d="M174.839 39.7652C174.759 40.4656 174.138 40.986 173.418 40.9059C172.717 40.8259 172.197 40.2055 172.277 39.485C172.357 38.7846 172.978 38.2643 173.698 38.3443C174.399 38.4244 174.919 39.0448 174.839 39.7652Z" fill="#ED6F2D"/>
<path d="M178.841 37.0035C178.761 37.804 178.041 38.3843 177.24 38.2843C176.44 38.2042 175.859 37.4838 175.959 36.6833C176.04 35.8828 176.76 35.3024 177.56 35.4025C178.361 35.4825 178.941 36.203 178.841 37.0035Z" fill="#EDE126"/>
<path d="M179.602 43.5476C179.502 44.4281 178.702 45.0885 177.821 44.9885C176.941 44.8884 176.28 44.0879 176.38 43.2073C176.48 42.3268 177.281 41.6664 178.161 41.7664C179.042 41.8665 179.702 42.667 179.602 43.5476Z" fill="#ED6F2D"/>
</svg>
