<svg width="344" height="241" viewBox="0 0 344 241" fill="none" xmlns="http://www.w3.org/2000/svg">
<rect x="0.137695" y="0.558594" width="343.438" height="239.623" rx="23" fill="white"/>
<path d="M183.451 156.824H183.493V156.866L183.451 156.824Z" fill="#010102"/>
<path d="M183.493 156.867L183.536 156.895L183.493 156.98V156.867Z" fill="#010102"/>
<path d="M168.671 151.978L168.529 152.162C168.529 152.162 168.515 152.162 168.501 152.162L168.671 151.992V151.978Z" fill="#010102"/>
<path d="M106.145 57.0088C106.71 58.4218 107.812 59.8207 108.646 61.0925C109.804 62.887 110.949 64.6815 112.079 66.5043C115.951 72.764 119.752 79.0519 123.482 85.3964C124.613 87.3039 125.729 89.2398 126.817 91.1756C127.481 92.3626 128.117 93.6343 128.88 94.7647C129.106 95.0897 129.332 95.3582 129.643 95.5842C130.547 96.2342 131.692 96.7147 132.681 97.2233C138.107 100.021 146.825 103.709 152.986 103.568C156.391 103.497 159.613 102.381 162.948 101.915L162.397 100.205C162.905 99.4559 163.513 98.7777 164.107 98.0994C163.471 100.304 163.075 102.593 162.623 104.854C161.62 109.941 160.715 115.056 159.938 120.185C158.073 131.729 156.349 143.231 155.36 154.889C154.187 168.581 153.862 182.301 153.028 196.007C153.537 196.262 154.074 196.474 154.583 196.7C154.357 196.954 154.159 197.237 153.961 197.505C152.802 197.929 151.94 198.834 150.965 199.582C149.609 200.614 148.168 201.462 146.557 202.055C143.816 203.058 139.449 202.31 137.514 203.553C136.355 204.288 136.242 205.588 135.987 206.817C137.358 207.396 138.743 207.962 140.128 208.513C136.51 208.301 132.851 208.442 129.219 208.4C125.376 208.484 121.532 208.555 117.689 208.64C118.494 208.753 119.286 208.852 120.091 208.965L134.984 209.064C136.68 209.064 138.39 209.106 140.085 209.149C140.792 209.177 141.555 209.149 142.247 209.233C143.335 209.375 144.451 209.869 145.525 210.124C150.669 211.325 156.307 211.028 161.521 210.477C162.397 210.378 164.177 210.35 164.87 209.813C165.067 209.657 165.195 209.474 165.223 209.219C165.308 208.47 164.771 207.778 164.361 207.213C164.432 205.559 164.177 203.892 163.767 202.295C163.301 200.543 162.623 199.568 162.877 197.675C163.767 197.548 164.658 197.406 165.548 197.237C166.028 195.626 166.325 193.973 166.664 192.334C167.187 189.833 167.653 187.317 168.077 184.802C169.363 177.568 170.677 170.305 171.143 162.971C171.299 160.428 171.355 157.87 171.299 155.327C171.285 154.281 171.059 152.925 171.186 151.921C171.228 151.61 171.369 151.596 171.61 151.441V151.271C171.398 150.876 171.129 150.593 170.804 150.268C172.528 148.219 173.348 145.308 174.351 142.85C176.145 148.403 177.544 154.097 180.116 159.354C181.529 162.236 183.451 164.978 185.288 167.592C189.188 173.131 193.398 178.387 197.666 183.644C200.591 187.247 204.123 191.896 207.486 195.004C208.376 194.962 209.168 194.806 210.016 194.552C210.129 194.821 210.242 195.089 210.369 195.357C208.998 196.926 207.317 201.038 206.144 203.101C204.279 203.878 202.216 203.793 200.365 204.471C199.87 204.655 199.008 205.121 198.881 205.687C198.81 205.983 198.881 206.308 198.725 206.605C198.542 206.958 198.287 207.396 198.457 207.806C198.627 208.23 199.22 208.499 199.587 208.711C194.147 208.711 188.707 208.711 183.267 208.654C182.49 208.654 178.632 208.484 178.124 208.64C177.912 208.711 177.799 208.809 177.7 209.007C177.94 209.247 178.293 209.29 178.632 209.318C180.385 209.502 182.829 209.332 184.666 209.332H196.634C198.061 209.332 199.573 209.163 200.986 209.304C201.65 209.375 202.343 209.643 202.979 209.827C206.116 210.703 210.948 211.692 214.099 210.802C215.187 210.491 216.162 209.912 217.137 209.361C219.158 209.459 221.235 209.346 223.27 209.346C228.046 209.163 232.807 208.979 237.583 208.795C230.985 208.753 224.386 208.739 217.787 208.781C220.006 206.944 226.322 201.179 226.901 198.466C227.141 197.336 225.545 196.149 224.767 195.513C222.916 194.001 221.404 192.093 219.511 190.596C218.804 190.03 217.773 190.045 217.18 189.31C216.671 188.674 216.318 187.671 215.936 186.922C215.286 185.664 214.636 184.421 213.972 183.177C212.206 179.843 210.298 176.55 208.376 173.3C206.017 169.344 203.558 165.458 200.986 161.643C198.909 158.577 196.719 155.567 194.713 152.458C194.882 152.19 195.193 151.822 195.264 151.497C195.32 151.243 195.278 151.201 195.151 151.003C194.854 150.805 194.571 150.819 194.232 150.805C194.091 150.212 193.992 149.618 193.907 149.025C194.105 148.742 194.43 148.332 194.43 147.979C194.43 147.583 194.077 147.315 193.822 147.061C193.384 143.811 193.229 140.546 193.031 137.268C192.791 133.086 192.522 128.917 192.197 124.735C193.455 124.269 194.698 123.816 195.885 123.195C198.937 121.612 203.925 118.136 205.678 115.183C200.859 104.486 201.057 99.3994 201.665 87.9539C201.806 85.3399 201.749 82.7116 201.877 80.0976C202.018 77.1443 202.738 74.2618 202.103 71.2944C201.198 67.1402 196.069 61.7283 192.522 59.4534C192.932 59.4534 193.356 59.4392 193.752 59.3403C194.331 59.199 194.939 58.7892 195.221 58.2523C195.617 57.5034 195.419 56.9099 195.193 56.161C195.801 55.9208 196.38 55.6099 196.959 55.3132C197.016 55.3132 197.072 55.3132 197.129 55.3132C198.217 55.3839 200.746 55.1436 201.749 54.6773C202.131 54.5078 202.47 54.1545 202.795 53.8861L202.442 52.9959C203.784 50.9187 204.886 48.6579 205.24 46.1851C205.734 42.7091 204.236 37.707 202.131 34.9516C199.927 32.069 195.758 30.1473 192.211 29.6952C188.34 29.2006 184.807 30.4582 181.769 32.8321C181.515 32.719 181.275 32.6201 181.02 32.5212C180.201 32.2104 176.598 30.981 175.948 31.3343C175.82 31.4049 175.835 31.5038 175.792 31.631C176.103 33.1006 179.593 36.1385 180.78 37.2407C179.918 38.2298 180.003 38.7385 179.551 39.8407C178.873 41.4515 177.135 41.1406 175.835 41.7765C175.566 41.9037 175.326 42.1015 175.255 42.4123C175.128 43.0482 175.707 43.7265 176.061 44.1927C175.608 44.871 174.634 46.1851 174.69 46.9905C174.761 47.8101 173.531 49.2655 173.263 50.2122C173.093 50.8198 173.122 51.4415 173.447 51.9926C174.309 53.4339 176.838 53.9284 178.35 54.3382C178.745 55.4545 179.141 56.5708 179.48 57.7012C176.47 58.874 174.718 60.7675 172.274 62.6326C171.723 63.0565 171.101 63.3392 170.621 63.8337C169.843 64.625 169.264 65.6424 168.572 66.5043C166.042 69.613 162.213 73.7814 158.469 75.1802C157.183 74.8694 156.024 74.4031 154.865 73.7672C152.802 72.6509 148.662 69.5564 147.56 67.4086C146.854 66.0239 146.175 60.9653 145.37 60.287C145.342 60.287 145.299 60.287 145.257 60.287L138.587 61.912C138.474 61.9403 138.361 61.9544 138.234 61.9827C136.722 62.3076 135.408 62.5055 134.362 62.6185C133.783 62.6892 132.978 62.7739 132.003 62.8305C131.989 62.8305 131.974 62.8305 131.96 62.8305C128.965 63.4098 125.687 63.5087 122.663 63.2968C121.334 61.3892 120.204 59.2697 119.229 57.1501C118.65 55.8925 118.141 54.5502 117.42 53.3632C117.251 53.2926 117.095 53.3067 116.926 53.3491C115.908 53.5752 114.382 54.1263 113.351 54.4371C111.302 55.0589 109.211 55.6099 107.176 56.2882C106.738 56.4295 106.356 56.5001 106.13 56.9382L106.145 57.0088ZM169.533 66.4337C166.989 71.351 166.099 77.4128 165.618 82.8671C164.643 82.429 163.654 82.0051 162.708 81.5106C162.439 81.3693 161.761 80.8747 161.521 80.8323C161.464 80.8323 161.394 80.8323 161.337 80.8323C161.196 81.0584 161.167 81.3127 161.125 81.5671C157.423 78.2041 155.699 76.89 150.556 76.6074C149.468 74.3042 148.747 71.8314 147.956 69.4293C147.843 69.1467 147.73 68.8499 147.617 68.5673C147.772 68.7793 148.026 69.1184 148.38 69.5282C150.739 72.3118 153.438 73.6966 154.865 74.4455C155.911 74.9966 157.056 75.477 158.341 75.8868C158.101 76.4378 157.847 76.9041 157.889 77.5117L157.988 77.6813C158.228 77.5682 158.384 77.2715 158.469 77.0172C158.511 76.9041 158.539 76.7911 158.567 76.6639C158.652 76.3531 158.737 76.0139 158.836 75.7172C159.641 76.4378 161.817 78.4019 162.934 78.4019L163.117 78.2606V78.0628C161.902 77.0454 160.701 76.8194 159.528 75.4911C162.637 73.7814 164.785 71.7749 167.145 69.189C167.738 68.5391 168.925 66.7728 169.547 66.4195L169.533 66.4337ZM153.057 79.4193C152.986 79.1932 152.972 79.1932 152.788 79.0519C150.909 78.8682 145.864 78.6845 144.536 77.7943C144.451 77.5824 144.494 77.5824 144.564 77.3846C145.13 76.8759 146.839 77.0878 147.574 77.1161C154.498 77.4128 155.77 77.5259 161.012 82.3443C160.588 84.0681 159.882 85.6931 159.119 87.304C155.275 87.0637 149.849 85.5377 147.221 82.6269C148.818 83.1779 150.414 83.7007 152.068 84.054C152.195 83.8562 152.294 83.7855 152.265 83.5453C151.29 82.8812 147.037 82.1888 146.571 81.666C146.514 81.5954 146.514 81.4964 146.486 81.4117L146.543 81.1856C147.489 80.6769 151.714 82.1606 152.393 81.7367L152.463 81.4682C152.138 81.0584 148.309 80.5921 147.56 80.5073C146.981 80.4508 146.246 80.3802 145.85 79.8856C145.751 79.7584 145.709 79.6736 145.681 79.5182C145.822 79.278 145.893 79.2074 146.175 79.1226C147.179 78.84 152.449 80.1399 153.057 79.4052V79.4193ZM174.888 62.0957C174.619 62.9576 174.026 63.7631 173.659 64.5967C173.093 65.9108 172.556 67.2391 171.963 68.5391C170.79 71.0684 169.547 73.527 168.572 76.1411C168.119 77.3563 166.636 82.7116 166.268 83.1921C166.466 78.3878 168.713 66.7445 172.274 63.4663C172.98 62.8163 173.885 62.1098 174.874 62.1098L174.888 62.0957ZM182.391 88.0952C180.3 87.6289 178.223 87.1768 176.16 86.555L174.097 85.8768C175.269 80.0269 177.262 74.4313 178.887 68.6945C179.904 68.1717 182.08 66.7728 182.942 66.5184C183.069 66.7163 183.253 66.9565 183.253 67.1967C183.253 67.7336 183.14 68.3554 183.083 68.8923C182.914 70.3053 182.758 71.7042 182.617 73.1172C182.137 78.0769 181.826 83.1355 182.377 88.0952H182.391ZM184.242 84.7464C184.284 85.3681 184.638 88.1376 184.27 88.505L184.03 88.4768L183.013 88.2507C182.871 86.2159 182.73 84.1812 182.73 82.1323C182.744 78.8258 183.069 75.5052 183.38 72.227C183.507 70.9695 183.507 69.4434 183.832 68.2282C184.129 68.8923 184.397 69.5564 184.793 70.164C184.242 74.9824 183.945 79.8997 184.228 84.7464H184.242ZM182.843 65.6706C185.867 64.0739 189.329 62.2794 190.417 58.7751C190.502 58.4925 190.572 58.224 190.643 57.9414C191.236 58.7751 192.296 60.1316 192.098 61.2055C191.773 63 188.326 65.7413 187.026 67.2108C186.404 67.9173 185.909 68.7369 185.288 69.4293C185.189 69.2738 185.09 69.1467 185.019 68.9771C184.397 67.7478 183.705 66.7304 182.843 65.6706ZM178.095 67.988C178.124 67.8325 178.11 67.5499 178.265 67.4793C178.279 67.4793 178.491 67.4369 178.491 67.4369C179.833 67.1684 181.105 66.0945 182.448 65.925C181.402 66.575 179.296 68.0586 178.095 67.988ZM173.503 85.679C173.009 85.4953 172.5 85.2975 172.005 85.1562C171.468 84.9725 170.917 84.7888 170.409 84.5768C171.129 77.2291 173.192 71.0825 177.149 64.8511C177.77 66.3913 177.262 66.7163 177.544 67.9456C177.643 68.3695 178.11 68.5673 178.208 68.8923C178.321 69.2456 175.057 79.1791 174.789 80.1399C174.266 81.9345 173.8 83.8279 173.517 85.679H173.503ZM177.954 65.4728L177.714 64.7804C177.516 64.3141 177.318 63.862 177.05 63.4239C177.94 62.8305 179.452 61.4598 180.243 61.1066C180.243 62.2794 178.59 64.3707 177.954 65.4869V65.4728ZM169.744 84.3649L167.597 83.6301C167.328 83.5171 167.243 83.5312 167.116 83.2486C167.116 82.6834 167.385 82.1888 167.54 81.6519C168.6 77.7519 170.027 74.1911 171.765 70.5455C172.217 69.5988 172.627 68.5673 173.192 67.6771C173.842 66.6456 175.524 64.6815 176.428 63.8761C176.513 63.8054 176.541 63.7913 176.612 63.7348C176.654 64.0315 176.697 64.1587 176.583 64.4413C176.258 65.2467 175.693 65.9815 175.269 66.7445C174.379 68.3412 173.574 69.9803 172.853 71.6477C171.143 75.6889 170.31 80.0269 169.759 84.3507L169.744 84.3649ZM174.69 64.6533L174.549 64.738C174.577 64.2152 175.1 63.1837 175.397 62.7174C175.397 62.7174 175.411 62.7033 175.425 62.6892C175.651 62.8587 175.877 63.0424 176.117 63.1978C175.594 63.65 175.128 64.1163 174.676 64.6391L174.69 64.6533ZM179.692 58.3653C179.862 59.0012 180.017 59.637 180.144 60.2729C178.986 61.149 177.855 62.0392 176.654 62.8587L175.919 62.1663C175.623 61.8555 175.34 61.5305 175.001 61.262C176.442 60.1175 177.968 59.0718 179.692 58.3653ZM179.085 54.4371C180.992 54.4371 182.787 54.2252 184.327 52.9959C184.779 52.6426 185.245 52.0491 185.754 51.7807C186.376 52.2046 186.955 52.4448 187.69 52.6285C187.478 53.0524 187.308 53.4339 187.167 53.8861C187.549 54.635 187.902 55.5252 188.34 56.2317C189.06 57.3762 190.205 57.348 189.682 59.0153C188.792 61.8837 184.539 63.9609 182.024 65.2185C181.444 65.5011 180.865 65.7837 180.286 66.0663C179.791 66.3065 178.802 66.9282 178.279 66.801C178.18 65.9674 179.664 63.7207 180.201 63.0565C180.37 62.8446 180.596 62.6468 180.808 62.4772C181.063 59.5805 179.932 57.136 179.099 54.4371H179.085ZM181.331 37.5516H181.458C182.829 38.1592 184.228 38.7385 185.584 39.3744C185.245 42.7091 188.085 44.9982 187.831 48.0079C187.435 48.2481 187.096 48.4318 186.828 48.8133V48.9688C187.859 49.0111 189.456 47.7959 190.431 48.7003C190.643 48.8981 190.685 49.1948 190.657 49.4774C190.586 50.2122 190.233 50.9046 189.654 51.3568C189.004 51.8654 188.1 52.0209 187.294 51.8937C186.927 51.8372 186.531 51.71 186.305 51.385C186.178 51.1872 186.22 51.0883 186.277 50.8763C186.319 50.7633 186.362 50.6361 186.404 50.5231L186.333 50.41C185.867 50.4524 185.669 50.6926 185.372 51.0318C184.016 52.6002 182.857 53.5469 180.709 53.7165C180.37 53.7448 180.031 53.7589 179.706 53.7448C177.997 53.66 175.284 53.2361 174.068 51.8937C173.786 51.5828 173.687 51.272 173.715 50.8481C173.8 49.76 174.619 48.5448 175.128 47.584C176.258 48.1209 178.067 48.884 179.339 48.4318C179.551 48.3612 179.593 48.2764 179.72 48.1068C179.72 47.8949 179.763 47.8383 179.636 47.6688C179.212 47.6688 178.873 47.8666 178.463 47.9372C177.488 48.0927 175.99 47.4003 175.213 46.8492C175.679 46.0721 176.273 45.2949 176.583 44.4471C176.598 44.4047 176.612 44.3623 176.626 44.3199C176.626 44.2917 176.64 44.2775 176.654 44.2493C176.301 43.6982 175.849 43.2178 175.933 42.5254C175.99 42.4547 176.018 42.3558 176.089 42.2993C176.527 41.9178 178.223 42.0026 179.268 41.0982C180.469 40.0809 180.286 38.5548 181.303 37.5516H181.331ZM190.996 47.9938C191.025 48.1492 191.053 48.2905 191.081 48.4459L191.025 48.6014L190.968 48.5025C190.784 48.1775 190.685 47.9938 190.304 47.8807C190.177 47.6405 189.965 44.0656 190.064 43.8112C190.148 43.571 190.36 43.3308 190.502 43.133L190.389 43.0623C190.078 43.2036 189.937 43.2884 189.823 43.6134C189.428 44.659 190.389 47.0188 189.696 47.8666C189.456 47.8807 189.414 47.9372 189.216 47.7959C189.103 46.8916 189.287 45.959 189.103 45.0688H189.018C188.693 46.0155 189.188 47.3297 188.933 47.9231H188.778C188.439 47.3014 188.453 46.496 188.213 45.8319C187.662 44.3482 186.814 43.0058 186.319 41.4798C186.121 40.8863 185.952 40.42 186.093 39.7841C186.277 39.5722 186.249 39.5863 186.531 39.558C186.955 39.6993 187.238 40.0667 187.549 40.3635C187.492 41.07 187.421 41.7624 187.308 42.4547C187.012 42.0308 186.814 41.6069 186.63 41.1265L186.517 41.3102C186.687 41.8471 186.899 42.4265 187.351 42.7939H187.52C187.605 42.0591 187.676 41.3102 187.732 40.5754L189.173 41.8471C188.707 42.3276 188.269 42.8504 188.297 43.5569C188.326 44.1786 188.693 44.5884 189.075 45.0406L188.594 43.9384C188.707 43.1047 188.806 42.596 189.343 41.9319C190.276 42.7373 191.194 43.5286 192.056 44.4047C191.321 45.4362 190.784 46.7221 190.996 48.0079V47.9938ZM185.33 38.7102C184.129 38.1309 182.914 37.594 181.699 37.0853C181.896 36.7744 182.108 36.3222 182.419 36.1385C183.507 36.9298 184.977 37.7776 185.825 38.8091C185.655 38.8798 185.514 38.7809 185.344 38.7102H185.33ZM203.728 39.6852C201.975 37.1277 200.365 35.757 197.553 34.3864C194.614 33.1995 191.703 33.0864 188.764 34.3157C187.775 34.7255 186.814 35.2483 185.867 35.757C184.708 34.9233 183.536 34.1038 182.405 33.2277C184.765 31.2212 188.043 30.1332 191.123 30.2886C194.698 30.543 198.923 32.2245 201.311 34.994C202.484 36.3505 203.205 37.9755 203.713 39.6852H203.728ZM202.06 52.3459C201.227 51.0318 200.407 49.6894 199.474 48.4318C198.189 46.6231 196.846 44.8286 195.151 43.3873C195.518 42.9917 195.815 42.6384 195.801 42.0591C195.786 41.5504 195.589 41.07 195.193 40.745C194.854 40.4624 194.444 40.3352 194.006 40.4059C193.582 40.4765 193.299 40.6743 193.073 41.0276C192.96 41.1972 192.861 41.3667 192.763 41.5363C190.643 39.7983 188.481 38.0744 186.46 36.2233C188.679 34.9516 190.827 34.0049 193.427 34.0614C196.592 34.2875 199.757 35.6722 201.862 38.0885C203.756 40.2504 204.872 42.808 204.646 45.7047C204.476 47.9938 203.318 50.4807 202.06 52.36V52.3459ZM193.413 41.4656C193.582 41.2395 193.978 41.0982 194.232 41.0135C194.599 41.183 194.854 41.2961 195.009 41.6917C195.151 42.0308 195.108 42.3841 194.981 42.7232C194.797 42.9069 194.811 42.921 194.557 42.9352L194.359 42.808C193.978 42.5678 193.413 42.2993 193.314 41.8189C193.285 41.6776 193.328 41.5787 193.413 41.4656ZM201.085 54.2676C198.019 47.8525 189.894 41.0841 184.341 36.7603C182.73 35.5168 180.907 33.8636 178.986 33.1712C178.844 33.1288 178.717 33.0723 178.576 33.044L178.11 33.0723C178.364 33.6516 181.034 34.9516 181.769 35.4603L181.261 36.7461C179.763 35.7429 178.548 34.3581 177.474 32.931C177.233 32.6766 177.022 32.394 176.795 32.1256C177.516 32.2669 178.237 32.4364 178.957 32.6201C179.763 32.8462 180.823 33.0158 181.543 33.4255C182.419 33.9342 183.253 34.669 184.058 35.2766C186.559 37.1842 188.919 39.2048 191.35 41.2113C193.045 42.6243 194.995 43.8678 196.479 45.5069C197.595 46.7362 198.485 48.2199 199.404 49.5905C200.209 50.8057 201.085 52.0067 201.806 53.2785C201.877 53.4198 201.947 53.5611 202.018 53.7024C201.707 53.8861 201.41 54.0839 201.099 54.2534L201.085 54.2676ZM194.896 55.6523C194.317 53.9991 193.54 52.9676 193.61 51.1307C193.483 49.4774 193.851 48.1068 194.232 46.496C194.868 47.1177 195.518 47.8101 196.055 48.5166C196.733 49.2796 198.189 50.6502 198.514 51.5546C199.192 52.4306 199.799 53.3915 200.35 54.3665C199.46 54.536 198.584 54.7056 197.68 54.7197C198.118 53.8154 198.683 52.9111 198.485 51.8654C198.217 52.7556 197.821 53.7024 197.185 54.3947H197.086C197.115 54.1404 197.157 53.8861 197.129 53.6317C197.072 53.6882 196.987 53.7589 196.945 53.8295C196.776 54.0839 196.874 54.2817 196.931 54.5502C196.79 54.748 196.719 54.7763 196.493 54.8752C196.224 54.7621 196.281 54.1263 195.998 53.8719C195.772 53.8295 195.631 53.8437 195.419 53.8861C195.589 53.985 195.786 54.098 195.942 54.2252C196.14 54.3806 196.168 54.5078 196.182 54.7621C195.956 55.2284 195.32 55.4404 194.882 55.6665L194.896 55.6523ZM191.18 57.6447C191.18 57.6447 191.152 57.6164 191.138 57.6023L190.12 56.8817C189.894 56.0904 189.88 55.0165 189.287 54.3947C189.117 55.1013 189.414 55.9915 189.569 56.698C189.47 56.5991 189.357 56.5001 189.258 56.4012C188.848 55.9915 188.679 55.4828 188.693 54.9034C188.693 54.7056 188.721 54.5926 188.622 54.3947H188.453C188.283 54.3382 188.057 54.2534 187.987 54.0556C187.817 53.5893 188.128 53.01 188.297 52.5719C188.792 52.5296 189.287 52.4589 189.781 52.4024C190.516 51.6111 190.601 51.5263 191.18 50.6361C191.18 50.6361 191.194 50.6644 191.194 50.6785C191.236 50.7774 191.293 50.8481 191.364 50.9328C191.675 50.6785 191.731 49.8731 191.802 49.4774L191.279 48.8133C191.279 47.1742 191.392 46.0014 192.24 44.5743L193.045 45.3514C192.141 47.2731 192.551 49.3503 192 51.4274C192.466 51.0459 192.536 50.1698 192.593 49.5905C192.748 48.1209 192.805 46.934 193.328 45.521L194.034 46.2981C193.073 50.622 192.833 51.7807 194.769 55.7795C194.769 55.8078 194.769 55.8502 194.755 55.8784C194.642 56.5143 194.953 57.574 194.571 58.0686H194.402C193.851 57.3762 193.526 56.6414 192.847 56.0621C192.494 55.9915 192.141 55.8925 191.773 55.8643C191.59 55.7795 191.406 55.6947 191.236 55.5675C190.643 55.1013 189.809 54.1969 189.739 53.4198C189.682 52.8263 190.092 52.5861 190.417 52.1763L189.767 52.4165C189.597 52.8122 189.414 53.1937 189.23 53.5752C189.004 53.5752 189.103 53.6035 188.919 53.4622C188.919 53.1937 189.032 52.9959 189.145 52.7556C188.947 52.9252 188.848 52.9676 188.82 53.2361C188.82 53.335 188.82 53.4622 188.848 53.5611C188.848 53.7024 188.848 53.66 188.834 53.8437C189.032 53.8013 189.188 53.773 189.385 53.773C190.36 54.4371 190.53 55.6806 191.745 56.1469C192.113 56.2317 192.494 56.3164 192.861 56.4154C193.356 56.924 193.766 57.5034 194.204 58.0686C193.808 58.1958 193.511 58.3088 193.088 58.2099C193.045 58.2099 193.003 58.1958 192.974 58.1816C192.734 58.1251 192.593 58.0545 192.395 57.8849C192.339 57.7436 192.282 57.6588 192.282 57.5034C192.494 57.5175 192.678 57.5599 192.89 57.6023L192.96 57.5316C192.452 57.1643 191.886 56.8534 191.35 56.5284C191.095 56.486 191.109 56.4719 190.883 56.5991C190.798 56.8393 190.798 56.8251 190.911 57.0653L191.152 57.1643C191.364 57.0088 191.335 57.0088 191.604 57.0512C192.127 57.4893 192.056 58.111 192.734 58.5208C193.13 58.5208 193.624 58.4642 193.978 58.6479L193.907 58.7468C192.819 58.8599 192 58.3088 191.208 57.6306L191.18 57.6447ZM198.725 66.3771C195.264 66.9 193.172 67.7478 189.993 69.1043C188.481 69.726 186.941 70.2206 185.344 70.5879C186.093 69.4858 186.884 68.426 187.775 67.4228C189.216 65.7978 191.901 63.6359 192.664 61.6859C192.833 61.262 192.72 60.8098 192.819 60.3859C195.038 62.1946 197.044 64.0457 198.725 66.3771ZM193.723 101.575C193.059 102.31 192.31 102.791 191.293 102.833C189.795 102.904 188.213 102.296 186.814 101.844C179.226 99.4276 172.316 95.2734 165.449 91.3169C163.471 90.1724 161.535 88.9148 159.5 87.8833C160.532 85.9192 161.492 83.8703 161.676 81.6377C165.604 83.7431 169.9 85.142 174.125 86.5409C175.849 87.092 177.587 87.5866 179.353 88.0246C181.783 88.6039 185.372 88.9007 187.464 90.2148C188.538 90.893 189.442 92.1789 190.021 93.2951C190.375 93.9875 190.883 95.7397 191.307 96.206L191.505 96.2342C191.646 96.0223 191.632 95.881 191.59 95.6408C191.477 95.0473 191.194 94.4397 190.954 93.8886C190.205 92.1647 189.287 90.7517 187.662 89.7343C187.252 89.48 186.828 89.3104 186.376 89.1409C187.181 84.817 188.142 80.5356 189.258 76.2824C189.47 75.4911 190.615 72.1705 190.558 71.6336L190.431 71.5205C190.05 71.6901 189.838 72.1846 189.696 72.552C189.315 73.5129 189.075 74.6009 188.806 75.6042C187.972 78.628 187.294 81.7084 186.602 84.7605C186.418 85.5518 185.98 88.2365 185.627 88.7876C185.401 88.7876 185.288 88.7735 185.104 88.6463C184.878 87.7137 184.991 86.5409 184.963 85.5801C184.864 82.6269 184.836 79.7726 185.005 76.8193C185.104 74.9824 185.33 73.1596 185.443 71.3368C186.644 71.0542 187.803 70.6727 188.947 70.2064C191.901 69.0477 195.899 66.8858 199.093 67.1402C200.788 68.638 201.608 70.814 201.735 73.0466C202.117 79.4476 197.977 96.8983 193.723 101.604V101.575ZM168.148 120.736C168.247 121.527 168.939 124.254 168.826 124.763L168.755 124.692C165.237 118.659 164.347 113.572 165.505 106.691C165.703 105.532 165.859 104.345 166.17 103.215C166.198 103.087 166.184 103.13 166.268 103.017C167.074 103.54 167.908 104.034 168.741 104.529C167.766 109.941 167.441 115.282 168.148 120.75V120.736ZM165.096 101.25C164.771 100.925 164.488 100.572 164.191 100.219C164.276 99.7668 164.417 98.2972 164.714 98.0146C165.689 99.0885 166.65 100.233 167.837 101.095C170.903 103.313 176.456 104.571 180.271 104.755C181.487 104.811 182.716 104.769 183.931 104.755C184.03 105.249 184.624 107.764 184.496 108.033L184.101 108.075C178.152 108.047 169.377 105.588 165.124 101.236L165.096 101.25ZM183.974 101.618L186.121 102.324C186.432 104.133 186.87 105.913 187.252 107.708C187.916 110.802 188.594 113.826 189.428 116.893C190.106 119.379 191.01 121.852 191.519 124.382L190.827 124.735L189.428 125.371C188.735 122.304 183.592 102.268 183.945 101.632L183.974 101.618ZM182.419 104.232C177.954 104.19 172.726 103.299 168.826 101.024C168.925 100.035 169.462 95.1179 170.013 94.6658C170.013 94.6658 170.013 94.6658 170.027 94.6658C174.379 97.0255 178.646 99.5407 183.267 101.321C183.437 102.282 183.62 103.243 183.762 104.204L182.433 104.232H182.419ZM164.855 97.1386C165.053 96.3614 165.788 92.9419 166.155 92.4332C167.286 93.0267 168.374 93.6767 169.419 94.3832C169.01 95.8245 168.699 97.2799 168.487 98.7635C168.43 99.1592 168.416 100.403 168.204 100.6H168.148C166.876 99.5548 165.83 98.4385 164.841 97.1244L164.855 97.1386ZM192.155 124.099L191.745 122.417C190.883 119.337 189.894 116.313 189.117 113.205C188.241 109.672 187.591 106.069 186.8 102.508C188.566 103.017 191.067 103.978 192.847 103.045C196.21 101.265 198.485 93.3941 199.489 89.8615C199.729 89.0137 201.071 83.404 201.269 83.1214C201.099 93.1538 199.46 100.148 202.88 110.011C203.487 111.777 204.293 113.459 205.042 115.169C201.778 119.182 197.058 122.474 192.169 124.099H192.155ZM193.709 148.078C193.215 148.799 192.635 149.364 191.971 149.929C191.265 150.48 190.544 150.975 189.795 151.455C189.781 150 189.287 148.728 189.131 147.301C188.594 142.058 187.944 136.844 187.195 131.63C186.588 127.462 185.952 123.223 184.807 119.168C184.186 116.949 183.112 114.957 182.264 112.823C181.699 111.396 181.303 109.898 180.893 108.414C181.317 108.443 181.741 108.457 182.151 108.499C183.013 108.556 183.861 108.527 184.722 108.499C185.245 110.887 185.895 113.219 186.489 115.593C187.026 117.726 187.506 119.846 188.085 121.979C188.439 123.279 188.651 124.678 189.075 125.95C189.442 126.091 189.838 125.879 190.177 125.724C190.643 125.512 191.081 125.244 191.533 124.989C192.113 130.316 192.268 135.7 192.664 141.055C192.805 143.019 192.819 145.153 193.186 147.075C193.257 147.456 193.356 147.654 193.596 147.951C193.624 147.979 193.653 148.021 193.667 148.05C193.681 148.064 193.695 148.092 193.709 148.106V148.078ZM193.752 151.144C192.706 151.794 191.406 152.656 190.177 152.882C190.134 152.84 190.064 152.811 190.05 152.755C189.88 152.557 189.71 152.373 189.513 152.204C190.883 151.37 192.169 150.522 193.356 149.42C193.483 150 193.61 150.579 193.766 151.144H193.752ZM216.544 189.352C216.091 189.847 215.611 190.313 215.117 190.765L213.93 188.801C212.333 186.201 210.849 183.516 209.238 180.945C206.398 176.423 203.332 171.972 200.209 167.634C197.68 164.116 195.023 160.71 192.452 157.234C191.604 156.104 190.685 154.973 189.894 153.801C190.756 153.278 193.78 151.667 194.628 151.455C194.628 151.512 194.628 151.568 194.628 151.625C194.599 152.232 194.048 152.43 194.416 153.094C195.334 154.79 196.634 156.415 197.736 158.011C199.729 160.823 201.65 163.663 203.516 166.546C208.278 173.908 212.446 181.623 216.544 189.352ZM218.366 191.02C218.027 192.772 217.194 195.414 215.611 196.474C215.314 196.672 214.848 196.855 214.481 196.756C213.972 196.629 213.407 196.007 212.884 195.781C212.248 195.541 211.626 195.301 210.962 195.146C210.835 194.863 210.708 194.566 210.552 194.284C212.926 193.153 215.074 191.867 216.855 189.903C217.349 190.313 217.815 190.723 218.381 191.02H218.366ZM210.849 195.909C211.061 195.852 211.202 195.866 211.414 195.88C212.234 196.205 213.28 196.544 213.703 197.392V197.59L213.52 197.632C213.336 197.534 213.181 197.42 213.025 197.293L212.926 197.223C212.234 196.728 211.259 196.587 210.651 196.078C210.736 195.923 210.68 195.965 210.849 195.909ZM203.728 208.244C205.579 208.654 207.458 208.965 209.351 209.078C213.237 209.29 215.018 208.414 217.787 205.729C219.44 204.132 220.966 202.38 222.408 200.586C222.874 200.006 223.34 199.413 223.764 198.791C224.061 198.353 224.81 196.756 225.177 196.587C225.629 197.11 226.011 197.632 226.308 198.268C224.697 201.815 218.084 208.597 214.41 209.968C210.75 211.325 203.812 209.587 200.181 208.258C199.828 208.103 199.319 207.962 199.178 207.552C199.121 207.411 199.178 207.368 199.206 207.227C200.153 207.128 202.654 208.018 203.728 208.258V208.244ZM206.751 203.666C207.105 203.61 207.472 203.624 207.811 203.666C209.012 203.821 210.213 204.302 211.245 204.938C211.81 205.291 212.079 206.111 212.644 206.365C212.785 206.323 212.785 206.365 212.827 206.224C212.912 205.969 212.856 205.574 212.729 205.348C212.404 204.726 211.598 204.302 211.005 203.977C211.725 201.589 213.167 199.441 214.636 197.449L214.551 197.42C214.551 197.42 214.608 197.42 214.636 197.42C215.583 197.35 216.473 196.601 217.066 195.894C217.957 194.849 218.338 193.506 218.677 192.206C218.762 191.881 218.819 191.401 218.974 191.104C220.896 192.56 222.959 194.439 224.4 196.375C222.973 199.526 216.459 206.874 213.195 208.089C210.157 209.205 204.462 207.764 201.311 207.001C200.746 206.888 199.743 206.803 199.404 206.323C199.446 205.983 199.729 205.588 199.983 205.376C200.661 204.825 202.852 204.811 203.784 204.584C204.773 204.344 205.748 203.85 206.737 203.68L206.751 203.666ZM207.642 202.055H208.066C208.829 202.281 209.987 202.521 210.468 203.186C210.496 203.412 210.51 203.412 210.383 203.595C210.171 203.581 210.001 203.525 209.804 203.454C208.899 203.171 208.037 202.974 207.091 202.875C207.218 202.578 207.331 202.225 207.628 202.055H207.642ZM208.207 200.868C209.083 201.123 210.355 201.377 210.934 202.112C210.99 202.408 210.934 202.437 210.807 202.705C210.651 202.79 210.722 202.79 210.609 202.762C209.691 202.225 208.786 201.928 207.755 201.73C207.868 201.448 207.967 201.066 208.207 200.868ZM208.744 199.823C209.719 200.162 210.651 200.487 211.556 201.024C211.457 201.292 211.372 201.688 211.132 201.843H211.047C210.072 201.278 209.295 200.911 208.193 200.685C208.306 200.43 208.447 199.978 208.701 199.837H208.73L208.744 199.823ZM209.196 198.989H209.521C210.341 199.215 211.386 199.455 211.937 200.148C211.994 200.416 211.98 200.416 211.852 200.656L211.626 200.755L211.443 200.67L211.301 200.6C210.665 200.261 209.252 199.992 208.899 199.413C208.97 199.173 208.998 199.144 209.196 198.989ZM209.761 197.873C209.761 197.873 209.818 197.859 209.846 197.844C210.92 198.085 211.754 198.692 212.7 199.201C212.545 199.413 212.404 199.724 212.149 199.794C212.135 199.794 212.107 199.794 212.093 199.794C211.16 199.272 210.298 198.918 209.252 198.706C209.366 198.466 209.521 198.014 209.761 197.887V197.873ZM210.552 196.728C211.57 197.096 212.488 197.534 213.35 198.184C213.209 198.424 213.039 198.805 212.785 198.947L212.644 198.862C211.683 198.339 210.821 197.83 209.733 197.618C209.874 197.307 210.001 196.968 210.27 196.742H210.552V196.728ZM172.062 132.789C171.228 129.949 170.013 127.222 169.349 124.339C168.84 122.191 168.586 119.959 168.416 117.755C168.091 113.614 168.275 109.064 169.208 105.023C169.349 104.882 169.278 104.91 169.377 104.868C171.327 105.885 173.362 106.789 175.51 107.326C176.117 111.255 178.576 115.988 181.854 118.39C182.419 118.8 183.422 119.648 184.129 119.549L184.2 119.436C183.705 118.659 182.561 118.193 181.854 117.613C178.717 115.042 176.908 111.396 176.018 107.496C177.431 107.835 178.83 108.16 180.271 108.287C180.695 109.898 181.133 111.523 181.755 113.077C182.631 115.296 183.747 117.43 184.383 119.733C185.415 123.52 186.022 127.533 186.588 131.418C187.337 136.689 188.015 141.96 188.608 147.244C188.792 148.728 189.498 150.212 189.173 151.723C187.972 152.416 185.161 153.645 184.496 154.747V154.86C185.443 154.578 188.156 152.925 189.202 152.359C189.343 152.67 189.47 152.995 189.626 153.306C188.227 154.069 184.228 155.595 183.493 156.74V156.839H183.564L183.536 156.909L183.649 157.008C184.214 156.853 184.68 156.302 185.217 156.033C186.602 155.355 188.043 154.776 189.428 154.097C193.667 159.891 198.033 165.571 202.187 171.435C206.624 177.822 210.764 184.378 214.636 191.118C212.587 192.517 210.341 194.058 207.854 194.496C204.759 191.839 201.354 187.204 198.74 183.969C194.063 178.203 189.4 172.495 185.189 166.362C183.677 164.158 182.094 161.911 180.879 159.523C178.943 155.736 177.728 151.695 176.47 147.64C174.944 142.708 173.517 137.749 172.062 132.789ZM168.346 150.056L166.622 150.565C167.879 146.368 169.476 142.285 170.649 138.045C170.804 137.48 171.61 134.103 171.822 133.877C172.189 135.347 172.641 136.802 173.065 138.257C173.432 139.529 173.743 140.829 174.167 142.087C173.334 143.259 172.924 144.814 172.387 146.128C171.991 147.103 171.525 148.035 171.03 148.954C170.183 149.406 169.264 149.731 168.346 150.028V150.056ZM162.114 197.124C163.117 192.291 163.668 187.317 164.262 182.428C164.968 176.55 165.661 170.63 166.014 164.723C166.283 160.187 166.014 155.539 166.565 151.031C167.809 150.748 169.024 150.409 170.225 149.957C170.31 150.579 170.465 150.734 170.931 151.13C170.197 151.427 169.462 151.695 168.713 151.935L168.614 152.162C169.278 152.303 169.886 152.063 170.507 151.822C171.384 164.271 169.01 176.621 166.678 188.787C166.339 190.581 165.986 192.376 165.618 194.171C165.449 194.962 165.336 195.923 165.011 196.672C164.064 196.869 163.075 197.081 162.1 197.138L162.114 197.124ZM162.114 197.901C162.171 198.424 162.312 199.017 162.157 199.526C161.973 199.695 161.832 199.695 161.591 199.738C160.009 200.077 158.454 200.275 156.844 200.275C156.533 198.381 154.738 198.297 154.95 197.081L155.035 197.011C157.409 197.887 159.585 198.028 162.1 197.901H162.114ZM137.146 205.701C146.288 209.474 154.23 209.587 163.895 207.721C164.135 208.089 164.601 208.668 164.53 209.134C164.516 209.247 164.446 209.29 164.361 209.361C158.723 210.434 151.022 210.717 145.426 209.361C142.459 208.64 139.732 207.509 136.878 206.506C136.793 206.393 136.708 206.351 136.736 206.195C136.75 205.998 136.849 205.899 136.962 205.743L137.146 205.701ZM149.015 205.715C150.499 205.588 154.88 202.013 156.264 201.024C158.398 200.981 160.334 200.713 162.397 200.176C162.51 200.444 162.609 200.727 162.708 200.995C162.807 201.278 162.891 201.547 162.976 201.829C163.061 202.112 163.132 202.394 163.202 202.677C163.273 202.96 163.329 203.242 163.4 203.539C163.457 203.821 163.513 204.118 163.555 204.401C163.598 204.698 163.64 204.98 163.668 205.277C163.697 205.574 163.725 205.856 163.739 206.153C163.753 206.45 163.767 206.732 163.767 207.029C154.244 208.852 147.419 208.809 138.305 205.404C137.966 205.291 137.457 205.178 137.203 204.924C137.259 204.655 137.415 204.5 137.641 204.344C139.011 203.355 141.413 203.553 143.038 203.383C143.999 203.285 144.932 203.101 145.879 202.931C146.726 203.85 147.8 205.362 149.044 205.715H149.015ZM149.355 204.938C149.242 205.065 149.298 205.051 149.143 205.065C148.973 205.065 148.888 205.037 148.747 204.98C147.998 204.274 147.207 203.581 146.571 202.762L147.532 202.366C148.182 203.016 149.185 203.991 149.369 204.938H149.355ZM149.199 201.744C149.976 202.437 150.4 203.157 150.824 204.104L149.651 204.754C149.227 203.807 148.733 203.115 148.055 202.324C148.422 202.083 148.761 201.843 149.185 201.758L149.199 201.744ZM150.414 200.897C151.22 201.589 151.672 202.295 152.138 203.242C151.785 203.468 151.432 203.694 151.093 203.949C150.697 202.931 150.16 202.253 149.34 201.532C149.68 201.32 150.047 201.038 150.414 200.897ZM151.615 200.148C152.378 200.798 152.845 201.504 153.311 202.38C153.057 202.578 152.619 203.016 152.322 203.03C151.87 202.112 151.474 201.292 150.612 200.67C150.923 200.473 151.262 200.204 151.63 200.133L151.615 200.148ZM152.59 199.328C153.41 200.035 154.003 200.586 154.456 201.603C154.173 201.815 153.848 202.112 153.523 202.239C153 201.32 152.576 200.572 151.743 199.879C152.011 199.695 152.294 199.483 152.59 199.328ZM153.424 198.678C154.371 199.243 154.922 199.794 155.445 200.769C155.205 200.995 154.978 201.236 154.71 201.405C154.569 201.123 154.427 200.826 154.244 200.586C153.905 200.119 152.986 199.498 152.915 198.947C153.057 198.791 153.113 198.72 153.339 198.678C153.368 198.678 153.396 198.678 153.424 198.678ZM156.123 200.049C156.01 200.232 155.982 200.247 155.784 200.345H155.699C155.515 200.063 155.332 199.794 155.106 199.554C154.88 199.328 153.933 198.636 153.862 198.424C153.862 198.381 153.862 198.325 153.862 198.282L154.272 198.141C154.851 198.579 155.897 199.314 156.095 200.035L156.123 200.049ZM165.703 102.649C164.587 107.623 163.852 113.332 165.293 118.291C165.633 119.45 166.141 120.524 166.636 121.626H166.48C165.915 120.976 163.485 117.133 163.188 117.02C163.075 117.147 163.061 117.105 163.061 117.26C163.075 118.136 165.859 121.881 166.608 122.559C166.622 122.559 166.65 122.573 166.664 122.587C167.526 123.732 168.36 124.89 169.038 126.162C169.815 127.603 171.539 132.054 171.313 133.609C171.115 134.951 170.663 136.322 170.267 137.622C169.419 140.476 168.501 143.316 167.512 146.142C167.102 147.371 166.537 148.671 166.268 149.929C166.297 150.282 166.311 151.059 166.099 151.356C166.071 151.384 166.056 151.413 166.014 151.427C165.59 153.56 165.703 155.991 165.661 158.167C165.633 161.106 165.52 164.031 165.322 166.97C164.968 171.986 164.375 177.017 163.753 182.019C163.117 187.077 162.453 192.108 161.62 197.138C158.44 197.18 156.589 196.7 153.636 195.626C153.876 193.789 153.905 191.881 153.989 190.045L154.399 180.097C154.738 171.463 155.261 162.844 155.982 154.239C156.25 150.706 156.688 147.188 157.112 143.669C157.96 136.463 159.006 129.285 160.235 122.149C160.885 118.291 161.436 114.434 162.114 110.59C162.665 107.397 163.315 104.218 163.937 101.024C164.446 101.717 165.011 102.183 165.703 102.678V102.649ZM162.171 99.5831C161.648 98.3396 157.663 88.5474 157.706 87.8126L157.79 87.7702C158.016 87.7844 158.242 87.8126 158.454 87.9115C159.048 88.1942 159.613 88.6181 160.178 88.9572C161.945 90.0311 163.697 91.218 165.562 92.1223C165.096 93.818 164.587 96.6581 163.499 97.9864C163.047 98.5092 162.566 99.032 162.157 99.5831H162.171ZM152.237 102.96C151.192 100.954 150.061 98.9896 148.973 96.9973L137.316 75.8161C135.168 71.8455 132.879 67.8749 131.042 63.7348C134.009 63.3109 136.962 62.9294 139.902 62.3359C141.654 61.9827 143.363 61.4316 145.116 61.1066C146.472 66.363 147.772 71.5347 149.722 76.6215C148.521 76.5509 144.875 76.0563 144.028 76.8617C143.844 77.0313 143.745 77.215 143.745 77.4835C143.745 77.7802 143.929 78.0204 144.169 78.2041C144.522 78.4867 144.988 78.6421 145.398 78.7976C145.243 79.0943 144.974 79.5465 145.059 79.8997C145.172 80.3236 145.808 80.578 145.709 81.0867C145.638 81.4682 145.582 81.6801 145.822 82.0193C145.921 82.1606 146.048 82.2312 146.189 82.3301C146.684 82.6834 147.037 83.5312 147.744 84.0681C150.372 86.117 153.707 87.1203 156.928 87.7137C157.31 89.2398 157.932 90.7235 158.483 92.193C159.627 95.2592 160.814 98.3114 162.044 101.363C159.472 101.971 156.9 102.607 154.272 102.875C153.594 102.96 152.915 102.974 152.223 102.988L152.237 102.96ZM108.49 59.4675C113.097 62.4772 118.777 63.9468 124.259 64.0598C126.308 64.1022 128.329 63.9185 130.378 63.8478C131.084 65.275 131.692 66.7445 132.427 68.1575C136.143 75.3781 140.198 82.4149 144.112 89.5083L149.708 99.6679C150.301 100.728 150.852 101.844 151.474 102.875C145.384 102.324 137.98 99.2581 132.582 96.4462C131.664 95.9658 130.236 95.4005 129.586 94.581C128.866 93.6767 128.329 92.5039 127.764 91.5006C126.718 89.6213 125.644 87.7561 124.57 85.9051C121.221 80.1541 117.788 74.4596 114.283 68.8075C113.69 67.8325 108.533 59.7077 108.49 59.4816V59.4675ZM106.95 57.136C108.956 56.486 110.977 55.9067 113.012 55.3132C114.354 54.9317 115.824 54.5926 117.095 54.0132C118.212 57.2349 119.95 60.3294 121.716 63.2402C118.975 62.9011 116.191 62.3642 113.619 61.3468C111.344 60.4142 108.377 59.2273 106.95 57.136Z" fill="#010102"/>
<path d="M174.69 64.6532L174.549 64.738C174.577 64.2152 175.1 63.1837 175.397 62.7174C175.397 62.7174 175.411 62.7033 175.425 62.6891C175.651 62.8587 175.877 63.0424 176.117 63.1978C175.594 63.65 175.128 64.1163 174.676 64.6391L174.69 64.6532Z" fill="white"/>
<path d="M178.59 33.0299L178.123 33.0582C177.94 32.9734 177.699 32.9593 177.501 32.9169C177.261 32.6625 177.049 32.3799 176.823 32.1115C177.544 32.2528 178.265 32.4223 178.985 32.606C178.787 32.7332 178.703 32.8038 178.604 33.0158L178.59 33.0299Z" fill="white"/>
<path d="M156.123 200.049C156.01 200.232 155.981 200.247 155.784 200.345H155.699C155.515 200.063 155.331 199.794 155.105 199.554C154.879 199.328 153.932 198.636 153.862 198.424C153.862 198.381 153.862 198.325 153.862 198.282L154.272 198.141C154.851 198.579 155.897 199.314 156.094 200.035L156.123 200.049Z" fill="#DC854F"/>
<path d="M178.265 67.4792L178.491 67.4369C179.834 67.1684 181.105 66.0945 182.448 65.9249C181.402 66.5749 179.297 68.0586 178.096 67.9879C178.124 67.8325 178.11 67.5499 178.265 67.4792Z" fill="white"/>
<path d="M211.415 195.894C212.234 196.219 213.28 196.559 213.704 197.406V197.604L213.52 197.647C213.337 197.548 213.181 197.435 213.026 197.307L212.927 197.237C212.234 196.742 211.259 196.601 210.652 196.092C210.737 195.937 210.68 195.979 210.85 195.923C211.062 195.866 211.203 195.88 211.415 195.894Z" fill="#DC854F"/>
<path d="M195.009 41.6775C195.15 42.0166 195.108 42.3699 194.981 42.709C194.797 42.8927 194.811 42.9068 194.557 42.921L194.359 42.7938C193.978 42.5536 193.412 42.2851 193.313 41.8047C193.285 41.6634 193.328 41.5645 193.412 41.4514C193.582 41.2254 193.978 41.084 194.232 40.9993C194.599 41.1688 194.854 41.2819 195.009 41.6775Z" fill="white"/>
<path d="M211.937 200.148C211.994 200.416 211.98 200.416 211.853 200.656L211.627 200.755L211.443 200.671L211.302 200.6C210.666 200.261 209.253 199.992 208.899 199.413C208.97 199.173 208.998 199.144 209.196 198.989H209.521C210.341 199.215 211.386 199.455 211.937 200.148Z" fill="#DC854F"/>
<path d="M210.468 203.2C210.496 203.426 210.51 203.426 210.383 203.61C210.171 203.595 210.002 203.539 209.804 203.468C208.899 203.186 208.038 202.988 207.091 202.889C207.218 202.592 207.331 202.239 207.628 202.069H208.052C208.815 202.295 209.973 202.536 210.454 203.2H210.468Z" fill="#DC854F"/>
<path d="M155.459 200.769C155.219 200.995 154.993 201.236 154.724 201.405C154.583 201.123 154.442 200.826 154.258 200.586C153.919 200.119 153 199.498 152.93 198.947C153.071 198.791 153.128 198.72 153.354 198.678C153.382 198.678 153.41 198.678 153.438 198.678C154.385 199.243 154.936 199.794 155.459 200.769Z" fill="#DC854F"/>
<path d="M186.319 41.4657C186.121 40.8722 185.952 40.4059 186.093 39.77C186.277 39.5581 186.249 39.5722 186.531 39.5439C186.955 39.6852 187.238 40.0526 187.549 40.3494C187.492 41.0559 187.421 41.7483 187.308 42.4406C187.012 42.0167 186.814 41.5928 186.63 41.1124L186.517 41.2961C186.333 41.395 186.39 41.3243 186.319 41.4657Z" fill="#175AA7"/>
<path d="M210.934 202.112C210.99 202.408 210.934 202.437 210.807 202.705C210.651 202.79 210.722 202.79 210.609 202.762C209.69 202.225 208.786 201.928 207.754 201.73C207.867 201.448 207.966 201.066 208.207 200.868C209.083 201.123 210.354 201.377 210.934 202.112Z" fill="#DC854F"/>
<path d="M209.846 197.844C210.92 198.085 211.753 198.692 212.7 199.201C212.545 199.413 212.403 199.724 212.149 199.794C212.135 199.794 212.107 199.794 212.093 199.794C211.16 199.272 210.298 198.918 209.252 198.706C209.365 198.466 209.521 198.014 209.761 197.887C209.789 197.887 209.818 197.873 209.846 197.858V197.844Z" fill="#DC854F"/>
<path d="M149.143 205.065C148.973 205.065 148.889 205.037 148.747 204.98C147.998 204.274 147.207 203.581 146.571 202.762L147.532 202.366C148.182 203.016 149.185 203.991 149.369 204.938C149.256 205.065 149.313 205.051 149.157 205.065H149.143Z" fill="#DC854F"/>
<path d="M211.146 201.829H211.061C210.086 201.264 209.309 200.897 208.207 200.67C208.32 200.416 208.461 199.964 208.716 199.823H208.744C209.719 200.162 210.652 200.487 211.556 201.024C211.457 201.292 211.372 201.688 211.132 201.843L211.146 201.829Z" fill="#DC854F"/>
<path d="M181.685 37.0712C181.882 36.7603 182.094 36.3081 182.405 36.1245C183.493 36.9157 184.963 37.7636 185.811 38.7951C185.641 38.8657 185.5 38.7668 185.33 38.6961C184.129 38.1168 182.914 37.5799 181.699 37.0712H181.685Z" fill="#175AA7"/>
<path d="M154.455 201.603C154.173 201.815 153.848 202.112 153.523 202.239C153 201.32 152.576 200.572 151.742 199.879C152.011 199.696 152.293 199.484 152.59 199.328C153.41 200.035 154.003 200.586 154.455 201.603Z" fill="#DC854F"/>
<path d="M153.311 202.394C153.057 202.592 152.619 203.03 152.322 203.044C151.87 202.126 151.474 201.306 150.612 200.685C150.923 200.487 151.262 200.218 151.63 200.148C152.393 200.798 152.859 201.504 153.325 202.38L153.311 202.394Z" fill="#DC854F"/>
<path d="M213.35 198.184C213.208 198.424 213.039 198.805 212.785 198.947L212.643 198.862C211.682 198.339 210.82 197.83 209.732 197.618C209.874 197.307 210.001 196.968 210.269 196.742H210.552C211.569 197.096 212.488 197.519 213.35 198.184Z" fill="#DC854F"/>
<path d="M152.139 203.242C151.785 203.468 151.432 203.694 151.093 203.949C150.697 202.931 150.16 202.253 149.341 201.532C149.68 201.32 150.047 201.038 150.415 200.897C151.22 201.589 151.672 202.295 152.139 203.242Z" fill="#DC854F"/>
<path d="M200.364 54.3665C199.474 54.536 198.598 54.7056 197.694 54.7197C198.132 53.8154 198.697 52.9111 198.499 51.8654L198.528 51.5546C199.206 52.4306 199.813 53.3915 200.364 54.3665Z" fill="#175AA7"/>
<path d="M149.651 204.754C149.227 203.807 148.733 203.115 148.055 202.324C148.422 202.083 148.761 201.843 149.185 201.758C149.962 202.451 150.386 203.171 150.81 204.118L149.637 204.768L149.651 204.754Z" fill="#DC854F"/>
<path d="M181.783 35.4462L181.275 36.732C179.777 35.7288 178.562 34.344 177.488 32.9169C177.686 32.9593 177.94 32.9734 178.11 33.0582C178.364 33.6375 181.034 34.9375 181.769 35.4462H181.783Z" fill="#175AA7"/>
<path d="M177.05 63.4098C177.94 62.8164 179.452 61.4457 180.243 61.0925C180.243 62.2653 178.59 64.3565 177.954 65.4728L177.714 64.7804C177.516 64.3142 177.318 63.862 177.05 63.4239V63.4098Z" fill="white"/>
<path d="M190.035 152.741C189.866 152.543 189.696 152.359 189.499 152.19C190.869 151.356 192.155 150.508 193.342 149.406C193.469 149.985 193.596 150.565 193.752 151.13C192.706 151.78 191.406 152.642 190.177 152.868C190.134 152.826 190.064 152.797 190.05 152.741H190.035Z" fill="#5797D1"/>
<path d="M191.123 57.6023L190.106 56.8816C189.88 56.0903 189.866 55.0164 189.272 54.3947C189.103 55.1012 189.4 55.9914 189.555 56.6979C189.456 56.599 189.343 56.5001 189.244 56.4012C188.834 55.9914 188.665 55.4827 188.679 54.9034C188.679 54.7056 188.707 54.5925 188.608 54.3947H188.439C188.269 54.3382 188.043 54.2534 187.972 54.0556C187.803 53.5893 188.114 53.0099 188.283 52.5719C188.778 52.5295 189.272 52.4589 189.767 52.4023C189.597 52.798 189.414 53.1795 189.23 53.561C189.004 53.561 189.103 53.5893 188.919 53.448C188.919 53.1795 189.032 52.9817 189.145 52.7415C188.947 52.911 188.848 52.9534 188.82 53.2219C188.82 53.3208 188.82 53.448 188.848 53.5469C188.848 53.6882 188.848 53.6458 188.834 53.8295C189.032 53.7871 189.188 53.7588 189.385 53.7588C190.36 54.423 190.53 55.6664 191.745 56.1327C192.113 56.2175 192.494 56.3023 192.861 56.4012C193.356 56.9099 193.766 57.4892 194.204 58.0544C193.808 58.1816 193.511 58.2946 193.088 58.1957C193.045 58.1957 193.003 58.1816 192.974 58.1675C192.734 58.1109 192.593 58.0403 192.395 57.8707C192.339 57.7294 192.282 57.6446 192.282 57.4892C192.494 57.5033 192.678 57.5457 192.89 57.5881L192.96 57.5175C192.452 57.1501 191.886 56.8392 191.35 56.5142C191.095 56.4718 191.109 56.4577 190.883 56.5849C190.798 56.8251 190.798 56.811 190.911 57.0512L191.152 57.1501C191.364 56.9947 191.335 56.9947 191.604 57.037C192.127 57.4751 192.056 58.0968 192.734 58.5066C193.13 58.5066 193.624 58.4501 193.978 58.6338L193.907 58.7327C192.819 58.8457 192 58.2946 191.208 57.6164C191.194 57.6023 191.18 57.5881 191.166 57.574L191.123 57.6023Z" fill="#175AA7"/>
<path d="M180.145 60.2729C178.986 61.149 177.856 62.0392 176.655 62.8588L175.92 62.1664C175.623 61.8555 175.341 61.5305 175.001 61.262C176.443 60.1175 177.969 59.0719 179.693 58.3654C179.862 59.0012 180.018 59.6371 180.145 60.2729Z" fill="white"/>
<path d="M191.18 50.6644C191.222 50.7633 191.279 50.8339 191.349 50.9187C191.66 50.6644 191.717 49.8589 191.788 49.4633L191.265 48.7992C191.265 47.1601 191.378 45.9873 192.226 44.5601L193.031 45.3373C192.127 47.259 192.536 49.3361 191.985 51.4133C191.194 52.9958 191.802 54.211 191.759 55.8501C191.576 55.7654 191.392 55.6806 191.222 55.5534C190.629 55.0871 189.795 54.1828 189.725 53.4056C189.668 52.8121 190.078 52.5719 190.403 52.1622L189.753 52.4024C190.488 51.6111 190.572 51.5263 191.152 50.6361C191.152 50.6361 191.166 50.6644 191.166 50.6785L191.18 50.6644Z" fill="#175AA7"/>
<path d="M162.171 199.526C161.987 199.695 161.846 199.695 161.606 199.738C160.023 200.077 158.469 200.275 156.858 200.275C156.547 198.381 154.753 198.297 154.965 197.081L155.049 197.011C157.423 197.887 159.599 198.028 162.114 197.901C162.171 198.424 162.312 199.017 162.157 199.526H162.171Z" fill="#F9DB95"/>
<path d="M192 51.4133C192.466 51.0317 192.537 50.1557 192.593 49.5763C192.749 48.1068 192.805 46.9199 193.328 45.5068L194.035 46.284C193.074 50.6078 192.833 51.7665 194.769 55.7654C194.769 55.7936 194.769 55.836 194.755 55.8643C194.642 56.5001 194.953 57.5599 194.571 58.0544H194.402C193.851 57.3621 193.526 56.6273 192.848 56.048C192.494 55.9773 192.141 55.8784 191.774 55.8501C191.816 54.2252 191.223 52.9958 192 51.4133Z" fill="#175AA7"/>
<path d="M191.081 48.4459L191.025 48.6013L190.968 48.5024C190.784 48.1774 190.686 47.9937 190.304 47.8807C190.177 47.6405 189.965 44.0655 190.064 43.8112C190.149 43.571 190.361 43.3308 190.502 43.1329L190.389 43.0623C190.078 43.2036 189.937 43.2884 189.824 43.6134C189.428 44.659 190.389 47.0187 189.696 47.8666C189.456 47.8807 189.414 47.9372 189.216 47.7959C189.103 46.8916 189.287 45.959 189.103 45.0688H189.018C188.693 46.0155 189.188 47.3296 188.933 47.9231H188.778C188.439 47.3013 188.453 46.4959 188.213 45.8318C187.662 44.3481 186.814 43.0058 186.319 41.4797C186.39 41.3525 186.333 41.4091 186.517 41.3101C186.687 41.8471 186.899 42.4264 187.351 42.7938H187.52C187.605 42.059 187.676 41.3101 187.732 40.5754L189.174 41.8471C188.707 42.3275 188.269 42.8503 188.298 43.5568C188.326 44.1786 188.693 44.5884 189.075 45.0405L188.594 43.9384C188.707 43.1047 188.806 42.596 189.343 41.9319C190.276 42.7373 191.194 43.5286 192.056 44.4047C191.321 45.4362 190.784 46.722 190.996 48.0079C191.025 48.1633 191.053 48.3046 191.081 48.46V48.4459Z" fill="#175AA7"/>
<path d="M169.434 94.3973C169.024 95.8386 168.713 97.294 168.501 98.7777C168.445 99.1733 168.43 100.417 168.218 100.615H168.162C166.89 99.569 165.845 98.4527 164.855 97.1386C165.053 96.3614 165.788 92.9419 166.155 92.4332C167.286 93.0267 168.374 93.6767 169.42 94.3832L169.434 94.3973Z" fill="white"/>
<path d="M184.27 88.505L184.03 88.4767L183.013 88.2506C182.871 86.2159 182.73 84.1811 182.73 82.1323C182.744 78.8258 183.069 75.5052 183.38 72.227C183.507 70.9694 183.507 69.4433 183.832 68.2281C184.129 68.8923 184.397 69.5564 184.793 70.164C184.242 74.9824 183.945 79.8997 184.228 84.7463C184.27 85.3681 184.623 88.1376 184.256 88.505H184.27Z" fill="white"/>
<path d="M215.611 196.474C215.314 196.672 214.848 196.855 214.48 196.756C213.972 196.629 213.407 196.007 212.884 195.781C212.248 195.541 211.626 195.301 210.962 195.145C210.835 194.863 210.708 194.566 210.552 194.284C212.926 193.153 215.074 191.867 216.854 189.903C217.349 190.313 217.815 190.723 218.38 191.019C218.041 192.772 217.208 195.414 215.625 196.474H215.611Z" fill="#F9DB95"/>
<path d="M194.063 50.7492C194.063 50.622 194.063 50.4949 194.049 50.3677L194.162 50.3394C194.162 50.3394 194.19 50.4383 194.204 50.4807C194.204 50.5231 194.204 50.5655 194.232 50.5938C194.374 51.1025 194.995 51.5688 195.447 51.7948C195.716 51.922 195.885 51.9361 196.168 51.8372C196.394 51.5405 196.394 51.2155 196.437 50.8622C196.295 50.834 196.196 50.8481 196.055 50.8764L195.885 50.9188C195.801 50.8622 195.758 50.8481 195.673 50.7916C195.334 50.5372 195.137 50.0427 195.094 49.6329C195.066 49.2655 195.151 49.0112 195.391 48.7286L195.518 48.7568C195.617 48.9405 195.659 49.0394 195.815 49.1808L195.914 49.0677C195.914 48.8981 195.914 48.7427 195.914 48.559L196.083 48.5025C196.762 49.2655 198.217 50.6362 198.542 51.5405L198.514 51.8514C198.245 52.7416 197.85 53.6883 197.214 54.3807H197.115C197.143 54.1263 197.185 53.872 197.157 53.6176C197.101 53.6741 197.016 53.7448 196.973 53.8155C196.804 54.0698 196.903 54.2676 196.959 54.5361C196.818 54.7339 196.747 54.7622 196.521 54.8611C196.253 54.748 196.309 54.1122 196.027 53.8578C195.801 53.8155 195.659 53.8296 195.447 53.872C195.617 53.9709 195.815 54.0839 195.97 54.2111C196.168 54.3665 196.196 54.4937 196.21 54.748C195.984 55.2143 195.348 55.4263 194.91 55.6524C194.331 53.9991 193.554 52.9676 193.625 51.1307C193.78 51.0035 193.921 50.8764 194.077 50.7492H194.063Z" fill="#175AA7"/>
<path d="M195.9 49.0818L195.801 49.1948C195.645 49.0535 195.603 48.9546 195.504 48.7709L195.377 48.7426C195.137 49.0252 195.052 49.2796 195.08 49.647C195.108 50.0567 195.32 50.5513 195.659 50.8056C195.73 50.8622 195.787 50.8904 195.871 50.9328L196.041 50.8904C196.182 50.848 196.281 50.8339 196.422 50.8763C196.38 51.2296 196.38 51.5545 196.154 51.8513C195.871 51.9502 195.716 51.9361 195.433 51.8089C194.981 51.5828 194.374 51.1165 194.218 50.6078C194.218 50.5654 194.218 50.523 194.19 50.4948C194.19 50.4524 194.162 50.3959 194.148 50.3535L194.034 50.3817C194.034 50.5089 194.034 50.6361 194.049 50.7633C193.907 50.8904 193.752 51.0317 193.596 51.1448C193.469 49.4915 193.837 48.1209 194.218 46.5101C194.854 47.1318 195.504 47.8242 196.041 48.5307L195.871 48.5872C195.871 48.7568 195.871 48.9122 195.871 49.0959L195.9 49.0818Z" fill="#175AA7"/>
<path d="M190.417 58.7751C190.502 58.4925 190.572 58.2241 190.643 57.9415C191.237 58.7751 192.296 60.1316 192.099 61.2055C191.774 63.0001 188.326 65.7413 187.026 67.2109C186.404 67.9174 185.91 68.7369 185.288 69.4293C185.189 69.2739 185.09 69.1467 185.019 68.9771C184.398 67.7478 183.705 66.7304 182.843 65.6707C185.867 64.074 189.329 62.2794 190.417 58.7751Z" fill="white"/>
<path d="M184.341 36.7461C182.73 35.5027 180.907 33.8494 178.985 33.1571C178.844 33.1147 178.717 33.0582 178.576 33.0299C178.689 32.8179 178.759 32.7473 178.957 32.6201C179.763 32.8462 180.822 33.0158 181.543 33.4255C182.419 33.9342 183.253 34.669 184.058 35.2766C186.559 37.1842 188.919 39.2048 191.349 41.2113C193.045 42.6243 194.995 43.8677 196.479 45.5068C197.595 46.7362 198.485 48.2198 199.404 49.5905C200.209 50.8057 201.085 52.0067 201.806 53.2785C201.876 53.4198 201.947 53.5611 202.018 53.7024C201.707 53.8861 201.41 54.0839 201.099 54.2534C198.033 47.8383 189.908 41.07 184.355 36.7461H184.341Z" fill="white"/>
<path d="M163.895 207.735C164.135 208.103 164.601 208.682 164.531 209.148C164.516 209.262 164.446 209.304 164.361 209.375C158.723 210.448 151.022 210.731 145.427 209.375C142.459 208.654 139.732 207.524 136.878 206.52C136.793 206.407 136.708 206.365 136.737 206.209C136.751 206.012 136.85 205.913 136.963 205.757L137.146 205.715C146.289 209.488 154.23 209.601 163.895 207.735Z" fill="white"/>
<path d="M171.963 68.5249C170.79 71.0542 169.547 73.5129 168.572 76.127C168.12 77.3422 166.636 82.6975 166.269 83.1779C166.466 78.3737 168.713 66.7304 172.274 63.4522C172.98 62.8022 173.885 62.0957 174.874 62.0957C174.605 62.9576 174.012 63.7631 173.645 64.5967C173.079 65.9109 172.542 67.2391 171.949 68.5391L171.963 68.5249Z" fill="#DC854F"/>
<path d="M167.597 83.6301C167.329 83.5171 167.244 83.5312 167.117 83.2486C167.117 82.6834 167.385 82.1888 167.541 81.6519C168.6 77.752 170.028 74.1911 171.766 70.5456C172.218 69.5988 172.627 68.5673 173.193 67.6771C173.843 66.6456 175.524 64.6815 176.428 63.8761C176.513 63.8055 176.542 63.7913 176.612 63.7348C176.655 64.0315 176.697 64.1587 176.584 64.4413C176.259 65.2467 175.694 65.9815 175.27 66.7445C174.38 68.3412 173.574 69.9803 172.854 71.6477C171.144 75.6889 170.31 80.0269 169.759 84.3507L167.611 83.616L167.597 83.6301Z" fill="white"/>
<path d="M157.805 87.7703C158.031 87.7844 158.257 87.8127 158.469 87.9116C159.062 88.1942 159.628 88.6181 160.193 88.9572C161.959 90.0311 163.711 91.218 165.576 92.1224C165.11 93.818 164.601 96.6581 163.513 97.9864C163.061 98.5092 162.581 99.032 162.171 99.5831C161.648 98.3396 157.664 88.5474 157.706 87.8127L157.791 87.7703H157.805Z" fill="white"/>
<path d="M168.827 124.763L168.756 124.692C165.237 118.659 164.347 113.572 165.506 106.691C165.704 105.532 165.859 104.345 166.17 103.215C166.198 103.087 166.184 103.13 166.269 103.017C167.074 103.54 167.908 104.034 168.742 104.529C167.767 109.941 167.442 115.282 168.148 120.75C168.247 121.541 168.94 124.269 168.827 124.777V124.763Z" fill="#5797D1"/>
<path d="M209.352 209.078C213.238 209.29 215.018 208.414 217.787 205.729C219.441 204.132 220.967 202.38 222.408 200.586C222.874 200.006 223.341 199.413 223.765 198.791C224.061 198.353 224.81 196.756 225.178 196.587C225.63 197.11 226.011 197.632 226.308 198.268C224.697 201.815 218.084 208.598 214.41 209.968C210.751 211.325 203.813 209.587 200.181 208.258C199.828 208.103 199.319 207.962 199.178 207.552C199.121 207.411 199.178 207.368 199.206 207.227C200.153 207.128 202.654 208.018 203.728 208.258C205.579 208.668 207.458 208.979 209.352 209.092V209.078Z" fill="white"/>
<path d="M185.344 70.5879C186.093 69.4858 186.884 68.426 187.775 67.4228C189.216 65.7978 191.901 63.6359 192.664 61.6859C192.833 61.262 192.72 60.8098 192.819 60.3859C195.038 62.1946 197.044 64.0456 198.726 66.3771C195.264 66.8999 193.172 67.7478 189.993 69.1043C188.481 69.726 186.941 70.2205 185.344 70.5879Z" fill="#DC854F"/>
<path d="M183.988 101.618L186.136 102.324C186.447 104.133 186.885 105.913 187.266 107.708C187.93 110.802 188.609 113.826 189.442 116.893C190.121 119.379 191.025 121.852 191.534 124.382L190.841 124.735L189.442 125.371C188.75 122.304 183.607 102.268 183.96 101.632L183.988 101.618Z" fill="white"/>
<path d="M166.622 150.551C167.879 146.354 169.476 142.27 170.649 138.031C170.804 137.466 171.61 134.089 171.821 133.863C172.189 135.332 172.641 136.788 173.065 138.243C173.432 139.515 173.743 140.815 174.167 142.073C173.333 143.245 172.924 144.8 172.387 146.114C171.991 147.089 171.525 148.021 171.03 148.94C170.182 149.392 169.264 149.717 168.345 150.014L166.622 150.522V150.551Z" fill="#5797D1"/>
<path d="M164.177 100.219C164.262 99.7668 164.403 98.2973 164.7 98.0146C165.675 99.0885 166.636 100.233 167.823 101.095C170.889 103.313 176.442 104.571 180.257 104.755C181.473 104.811 182.702 104.769 183.917 104.755C184.016 105.249 184.609 107.764 184.482 108.033L184.087 108.075C178.138 108.047 169.363 105.588 165.11 101.236C164.785 100.911 164.502 100.558 164.206 100.205L164.177 100.219Z" fill="#DC854F"/>
<path d="M197.553 34.3864C194.614 33.1995 191.703 33.0864 188.764 34.3157C187.775 34.7255 186.814 35.2483 185.867 35.757C184.708 34.9233 183.536 34.1038 182.405 33.2277C184.765 31.2212 188.043 30.1332 191.124 30.2886C194.699 30.543 198.923 32.2245 201.311 34.994C202.484 36.3505 203.205 37.9755 203.714 39.6852C201.961 37.1276 200.351 35.757 197.539 34.3864H197.553Z" fill="white"/>
<path d="M117.096 54.0132C118.212 57.2349 119.95 60.3294 121.716 63.2403C118.975 62.9011 116.191 62.3642 113.62 61.3468C111.345 60.4142 108.377 59.2273 106.95 57.136C108.957 56.486 110.977 55.9067 113.012 55.3132C114.354 54.9317 115.824 54.5926 117.096 54.0132Z" fill="#175AA7"/>
<path d="M171.991 85.1562C171.454 84.9725 170.903 84.7888 170.395 84.5768C171.115 77.2291 173.178 71.0825 177.135 64.8511C177.756 66.3913 177.248 66.7163 177.53 67.9456C177.629 68.3695 178.095 68.5673 178.194 68.8923C178.307 69.2456 175.043 79.1791 174.775 80.1399C174.252 81.9345 173.786 83.8279 173.503 85.679C173.009 85.4953 172.5 85.2975 172.005 85.1562H171.991Z" fill="white"/>
<path d="M169.999 94.6658C169.999 94.6658 169.999 94.6658 170.013 94.6658C174.365 97.0255 178.633 99.5407 183.253 101.321C183.423 102.282 183.606 103.243 183.748 104.204L182.419 104.232C177.954 104.19 172.726 103.299 168.826 101.024C168.925 100.035 169.462 95.1179 170.013 94.6658H169.999Z" fill="white"/>
<path d="M185.754 51.7806C186.376 52.2045 186.955 52.4448 187.69 52.6285C187.478 53.0524 187.308 53.4339 187.167 53.886C187.549 54.6349 187.902 55.5251 188.34 56.2316C189.06 57.3762 190.205 57.3479 189.682 59.0153C188.792 61.8837 184.539 63.9609 182.024 65.2184C181.444 65.5011 180.865 65.7837 180.286 66.0663C179.791 66.3065 178.802 66.9282 178.279 66.801C178.18 65.9673 179.664 63.7206 180.201 63.0565C180.37 62.8446 180.596 62.6468 180.808 62.4772C181.063 59.5805 179.932 57.136 179.099 54.4371C181.006 54.4371 182.801 54.2252 184.341 52.9958C184.793 52.6426 185.259 52.0491 185.768 51.7806H185.754Z" fill="#F6D0C5"/>
<path d="M152.788 79.0519C150.909 78.8682 145.864 78.6845 144.536 77.7943C144.451 77.5824 144.493 77.5824 144.564 77.3846C145.129 76.8759 146.839 77.0878 147.574 77.1161C154.498 77.4128 155.769 77.5259 161.012 82.3443C160.588 84.0681 159.881 85.6931 159.118 87.304C155.275 87.0637 149.849 85.5377 147.221 82.6269C148.817 83.1779 150.414 83.7008 152.067 84.054C152.194 83.8562 152.293 83.7855 152.265 83.5453C151.29 82.8812 147.037 82.1888 146.571 81.666C146.514 81.5954 146.514 81.4965 146.486 81.4117L146.542 81.1856C147.489 80.6769 151.714 82.1606 152.392 81.7367L152.463 81.4682C152.138 81.0584 148.309 80.5921 147.56 80.5073C146.98 80.4508 146.246 80.3802 145.85 79.8856C145.751 79.7584 145.709 79.6737 145.68 79.5182C145.822 79.278 145.892 79.2074 146.175 79.1226C147.178 78.84 152.449 80.14 153.056 79.4052C152.986 79.1791 152.972 79.1791 152.788 79.0378V79.0519Z" fill="#F6D0C5"/>
<path d="M162.707 81.5106C162.439 81.3693 161.761 80.8747 161.52 80.8323C161.464 80.8323 161.393 80.8323 161.337 80.8323C161.195 81.0584 161.167 81.3128 161.125 81.5671C157.423 78.2041 155.699 76.89 150.555 76.6074C149.467 74.3042 148.747 71.8314 147.955 69.4293C147.842 69.1467 147.729 68.8499 147.616 68.5673C147.772 68.7793 148.026 69.1184 148.379 69.5282C150.739 72.3118 153.438 73.6966 154.865 74.4455C155.911 74.9966 157.055 75.477 158.341 75.8868C158.101 76.4379 157.846 76.9042 157.889 77.5118L157.988 77.6813C158.228 77.5683 158.383 77.2715 158.468 77.0172C158.511 76.9042 158.539 76.7911 158.567 76.6639C158.652 76.3531 158.737 76.014 158.836 75.7172C159.641 76.4379 161.817 78.402 162.933 78.402L163.117 78.2607V78.0628C161.902 77.0455 160.701 76.8194 159.528 75.4911C162.637 73.7814 164.784 71.7749 167.144 69.1891C167.738 68.5391 168.925 66.7728 169.546 66.4196C167.003 71.3369 166.113 77.3987 165.632 82.853C164.657 82.4149 163.668 81.991 162.721 81.4965L162.707 81.5106Z" fill="#DC854F"/>
<path d="M149.016 205.715C150.5 205.588 154.88 202.013 156.265 201.024C158.398 200.981 160.334 200.713 162.397 200.176C162.51 200.444 162.609 200.727 162.708 200.995C162.807 201.278 162.892 201.547 162.977 201.829C163.061 202.112 163.132 202.394 163.203 202.677C163.273 202.96 163.33 203.242 163.4 203.539C163.457 203.821 163.514 204.118 163.556 204.401C163.598 204.698 163.641 204.98 163.669 205.277C163.697 205.574 163.725 205.856 163.74 206.153C163.754 206.45 163.768 206.732 163.768 207.029C154.244 208.852 147.419 208.809 138.305 205.404C137.966 205.291 137.457 205.178 137.203 204.924C137.26 204.655 137.415 204.5 137.641 204.344C139.012 203.355 141.414 203.553 143.039 203.383C144 203.285 144.932 203.101 145.879 202.931C146.727 203.85 147.801 205.362 149.044 205.715H149.016Z" fill="#DC854F"/>
<path d="M176.16 86.5551L174.097 85.8768C175.269 80.027 177.262 74.4314 178.887 68.6945C179.904 68.1717 182.08 66.7728 182.942 66.5185C183.069 66.7163 183.253 66.9565 183.253 67.1967C183.253 67.7337 183.14 68.3554 183.083 68.8924C182.914 70.3054 182.758 71.7043 182.617 73.1173C182.137 78.077 181.826 83.1356 182.377 88.0953C180.286 87.629 178.209 87.1768 176.146 86.5551H176.16Z" fill="white"/>
<path d="M213.929 188.815C212.333 186.215 210.849 183.531 209.238 180.959C206.398 176.437 203.332 171.986 200.209 167.648C197.68 164.13 195.023 160.724 192.452 157.248C191.604 156.118 190.685 154.988 189.894 153.815C190.756 153.292 193.78 151.681 194.628 151.469C194.628 151.526 194.628 151.582 194.628 151.639C194.599 152.246 194.048 152.444 194.416 153.108C195.334 154.804 196.634 156.429 197.736 158.026C199.729 160.837 201.65 163.678 203.516 166.56C208.277 173.922 212.446 181.637 216.544 189.366C216.091 189.861 215.611 190.327 215.116 190.779L213.929 188.815Z" fill="#5797D1"/>
<path d="M195.151 43.3732C195.518 42.9775 195.815 42.6243 195.801 42.0449C195.786 41.5363 195.589 41.0558 195.193 40.7308C194.854 40.4482 194.444 40.3211 194.006 40.3917C193.582 40.4624 193.299 40.6602 193.073 41.0134C192.96 41.183 192.861 41.3526 192.763 41.5221C190.643 39.7841 188.481 38.0602 186.46 36.2092C188.679 34.9375 190.827 33.9907 193.427 34.0473C196.592 34.2733 199.757 35.6581 201.862 38.0744C203.756 40.2363 204.872 42.7938 204.646 45.6905C204.476 47.9796 203.318 50.4665 202.06 52.3459C201.226 51.0317 200.407 49.6894 199.474 48.4318C198.189 46.6231 196.846 44.8286 195.151 43.3873V43.3732Z" fill="white"/>
<path d="M207.825 203.68C209.026 203.836 210.228 204.316 211.259 204.952C211.824 205.305 212.093 206.125 212.658 206.379C212.799 206.337 212.799 206.379 212.842 206.238C212.926 205.983 212.87 205.588 212.743 205.362C212.418 204.74 211.612 204.316 211.019 203.991C211.739 201.603 213.181 199.455 214.65 197.463L214.566 197.435C214.566 197.435 214.622 197.435 214.65 197.435C215.597 197.364 216.487 196.615 217.081 195.909C217.971 194.863 218.352 193.521 218.692 192.221C218.776 191.896 218.833 191.415 218.988 191.118C220.91 192.574 222.973 194.453 224.414 196.389C222.987 199.54 216.473 206.888 213.209 208.103C210.171 209.219 204.477 207.778 201.326 207.015C200.76 206.902 199.757 206.817 199.418 206.337C199.46 205.998 199.743 205.602 199.997 205.39C200.676 204.839 202.866 204.825 203.798 204.599C204.787 204.358 205.762 203.864 206.752 203.694C207.105 203.638 207.472 203.652 207.811 203.694L207.825 203.68Z" fill="#DC854F"/>
<path d="M181.331 37.5516C180.314 38.5548 180.498 40.0809 179.297 41.0983C178.237 42.0026 176.541 41.9178 176.117 42.2993C176.047 42.3559 176.018 42.4548 175.962 42.5254C175.877 43.2178 176.329 43.6982 176.682 44.2493C176.682 44.2776 176.668 44.3058 176.654 44.32C176.64 44.3624 176.626 44.4047 176.612 44.4471C176.301 45.2949 175.708 46.0721 175.241 46.8493C176.018 47.4003 177.516 48.0927 178.491 47.9373C178.901 47.8666 179.226 47.6688 179.664 47.6688C179.791 47.8525 179.749 47.8949 179.749 48.1069C179.622 48.2905 179.579 48.3612 179.367 48.4318C178.096 48.884 176.287 48.121 175.156 47.584C174.648 48.5308 173.828 49.7601 173.743 50.8481C173.715 51.2579 173.814 51.5829 174.097 51.8937C175.312 53.2361 178.025 53.66 179.735 53.7448C180.074 53.7448 180.413 53.7448 180.738 53.7165C182.886 53.547 184.044 52.6003 185.401 51.0318C185.698 50.6927 185.895 50.4525 186.362 50.4101L186.432 50.5231C186.39 50.6362 186.333 50.7492 186.305 50.8764C186.234 51.0883 186.192 51.1872 186.333 51.3851C186.559 51.7101 186.955 51.8372 187.323 51.8937C188.128 52.0209 189.032 51.8655 189.682 51.3568C190.262 50.9046 190.615 50.2123 190.686 49.4775C190.714 49.1949 190.685 48.8981 190.459 48.7003C189.484 47.796 187.888 49.0112 186.828 48.9688V48.8134C187.125 48.4318 187.464 48.234 187.859 48.0079C188.1 44.9982 185.26 42.7091 185.613 39.3744C184.242 38.7385 182.857 38.1592 181.487 37.5375H181.36L181.331 37.5516ZM187.563 49.859C187.803 49.4492 188.481 49.3644 188.891 49.1807C188.962 49.6188 189.032 50.2264 188.721 50.6079C188.566 50.7916 188.368 50.9188 188.128 50.9329C187.958 50.9329 187.789 50.8764 187.648 50.8199C187.534 50.509 187.379 50.184 187.577 49.8731L187.563 49.859ZM180.738 41.7907C180.907 41.6776 181.091 41.6635 181.289 41.6494C181.529 42.0167 181.642 42.3417 181.543 42.7939C181.487 43.0765 181.289 43.4015 181.035 43.5428C180.851 43.6558 180.653 43.6982 180.441 43.7265C180.243 43.5004 180.116 43.345 180.116 43.0341C180.116 42.5961 180.356 42.0591 180.724 41.7907H180.738ZM180.978 38.7668C182.108 39.2472 183.423 40.1233 183.889 41.3244C183.988 41.5787 183.988 41.7765 183.974 42.045C183.931 42.1157 183.875 42.2146 183.804 42.2711C183.267 41.5081 182.631 40.5331 181.798 40.0668C181.557 39.9255 181.006 39.7842 180.837 39.6287C180.695 39.5016 180.724 39.2755 180.766 39.1059C180.808 38.9505 180.837 38.8798 180.964 38.7809L180.978 38.7668Z" fill="#F6D0C5"/>
<path d="M188.877 49.1807C188.947 49.6188 189.018 50.2264 188.707 50.6079C188.552 50.7916 188.354 50.9187 188.114 50.9329C187.944 50.9329 187.775 50.8763 187.633 50.8198C187.52 50.509 187.365 50.184 187.563 49.8731C187.803 49.4633 188.481 49.3785 188.891 49.1949L188.877 49.1807Z" fill="#010102"/>
<path d="M181.558 42.7938C181.501 43.0764 181.303 43.4014 181.049 43.5427C180.865 43.6558 180.667 43.6982 180.455 43.7264C180.258 43.5003 180.13 43.3449 180.13 43.034C180.13 42.596 180.371 42.0591 180.738 41.7906C180.908 41.6776 181.091 41.6634 181.289 41.6493C181.529 42.0167 181.642 42.3417 181.543 42.7938H181.558Z" fill="#010102"/>
<path d="M183.903 41.3102C184.002 41.5646 184.002 41.7624 183.988 42.0309C183.945 42.1015 183.889 42.2004 183.818 42.2569C183.281 41.4939 182.645 40.5189 181.812 40.0526C181.571 39.9113 181.02 39.77 180.851 39.6146C180.709 39.4874 180.738 39.2613 180.78 39.0918C180.823 38.9363 180.851 38.8657 180.978 38.7668C182.108 39.2472 183.422 40.1233 183.889 41.3243L183.903 41.3102Z" fill="#010102"/>
<path d="M191.957 149.929C191.25 150.48 190.53 150.975 189.781 151.455C189.767 150 189.272 148.728 189.117 147.301C188.58 142.058 187.93 136.844 187.181 131.63C186.573 127.462 185.938 123.223 184.793 119.168C184.171 116.949 183.097 114.957 182.25 112.823C181.684 111.396 181.289 109.898 180.879 108.414C181.303 108.443 181.727 108.457 182.136 108.499C182.998 108.556 183.846 108.527 184.708 108.499C185.231 110.887 185.881 113.219 186.474 115.593C187.011 117.726 187.492 119.846 188.071 121.979C188.424 123.279 188.636 124.678 189.06 125.95C189.428 126.091 189.823 125.879 190.162 125.724C190.629 125.512 191.067 125.243 191.519 124.989C192.098 130.316 192.254 135.7 192.649 141.055C192.791 143.019 192.805 145.153 193.172 147.075C193.243 147.456 193.342 147.654 193.582 147.951C193.61 147.979 193.638 148.021 193.653 148.05C193.667 148.064 193.681 148.092 193.695 148.106C193.2 148.827 192.621 149.392 191.957 149.957V149.929Z" fill="#5797D1"/>
<path d="M164.262 182.428C164.968 176.55 165.66 170.63 166.014 164.723C166.282 160.187 166.014 155.539 166.565 151.031C167.808 150.749 169.023 150.409 170.224 149.957C170.309 150.579 170.465 150.734 170.931 151.13C170.196 151.427 169.461 151.695 168.713 151.935L168.614 152.162C168.614 152.162 168.557 152.162 168.515 152.162L168.656 151.978L168.486 152.147C168.486 152.147 168.501 152.147 168.515 152.147L168.614 152.162C169.278 152.289 169.885 152.048 170.507 151.808C171.383 164.257 169.009 176.607 166.678 188.773C166.339 190.567 165.985 192.362 165.618 194.156C165.448 194.948 165.335 195.909 165.01 196.657C164.064 196.855 163.075 197.067 162.1 197.124C163.103 192.291 163.654 187.317 164.247 182.428H164.262Z" fill="#5797D1"/>
<path d="M192.155 124.099C197.058 122.474 201.764 119.196 205.028 115.169C204.279 113.459 203.488 111.777 202.866 110.011C199.446 100.148 201.085 93.1398 201.255 83.1215C201.043 83.4041 199.715 89.0137 199.475 89.8616C198.471 93.3941 196.21 101.265 192.833 103.045C191.067 103.978 188.552 103.017 186.786 102.508C187.577 106.069 188.227 109.672 189.103 113.205C189.88 116.313 190.869 119.337 191.731 122.418L192.141 124.099H192.155ZM191.83 106.578C191.35 106.012 190.643 105.32 190.375 104.613C190.304 104.416 190.332 104.416 190.375 104.232L190.629 104.161C192.89 107.129 195.334 109.799 198.33 112.032C198.782 112.371 200.407 113.388 200.435 113.869L200.195 113.996C197.539 112.837 193.724 108.796 191.816 106.563L191.83 106.578Z" fill="#DC854F"/>
<path d="M190.374 104.613C190.303 104.416 190.332 104.416 190.374 104.232L190.628 104.161C192.889 107.129 195.334 109.799 198.329 112.032C198.782 112.371 200.407 113.388 200.435 113.869L200.195 113.996C197.538 112.837 193.723 108.796 191.815 106.563C191.335 105.998 190.628 105.306 190.36 104.599L190.374 104.613Z" fill="#010102"/>
<path d="M137.33 75.802C135.182 71.8314 132.893 67.8608 131.056 63.7207C134.023 63.2968 136.977 62.9153 139.916 62.3218C141.668 61.9685 143.378 61.4175 145.13 61.0925C146.486 66.3489 147.786 71.5205 149.736 76.6074C148.535 76.5368 144.89 76.0422 144.042 76.8476C143.858 77.0172 143.759 77.2009 143.759 77.4694C143.759 77.7661 143.943 78.0063 144.183 78.19C144.536 78.4726 145.003 78.628 145.412 78.7835C145.257 79.0802 144.989 79.5324 145.073 79.8856C145.186 80.3095 145.822 80.5639 145.723 81.0726C145.653 81.4541 145.596 81.666 145.836 82.0051C145.935 82.1464 146.062 82.2171 146.204 82.316C146.698 82.6693 147.052 83.5171 147.758 84.054C150.386 86.1029 153.721 87.1061 156.943 87.6996C157.324 89.2257 157.946 90.7093 158.497 92.1789C159.642 95.2451 160.828 98.2972 162.058 101.349C159.486 101.957 156.914 102.593 154.286 102.861C153.608 102.946 152.93 102.96 152.237 102.974C151.192 100.968 150.061 99.0038 148.973 97.0114L137.316 75.8302L137.33 75.802Z" fill="#175AA7"/>
<path d="M130.378 63.8478C131.084 65.2749 131.692 66.7445 132.427 68.1575C136.143 75.378 140.198 82.4149 144.112 89.5082L149.708 99.6678C150.301 100.728 150.853 101.844 151.474 102.875C145.384 102.324 137.98 99.258 132.582 96.4461C131.664 95.9657 130.237 95.4005 129.587 94.5809C128.866 93.6766 128.329 92.5038 127.764 91.5006C126.718 89.6213 125.644 87.7561 124.57 85.905C121.222 80.154 117.788 74.4596 114.284 68.8075C113.69 67.8325 108.533 59.7077 108.49 59.4816C113.097 62.4913 118.777 63.9608 124.26 64.0739C126.308 64.1163 128.329 63.9326 130.378 63.8619V63.8478Z" fill="#175AA7"/>
<path d="M193.723 101.575C197.976 96.8701 202.117 79.4193 201.735 73.0183C201.594 70.7857 200.788 68.6097 199.093 67.1119C195.899 66.8717 191.901 69.0195 188.947 70.1782C187.803 70.6444 186.644 71.0118 185.443 71.3086C185.33 73.1455 185.104 74.9683 185.005 76.7911C184.835 79.7443 184.878 82.5986 184.963 85.5518C184.991 86.5126 184.892 87.6855 185.104 88.618C185.302 88.7452 185.401 88.7593 185.627 88.7593C185.98 88.2083 186.418 85.5235 186.602 84.7322C187.294 81.6801 187.972 78.5997 188.806 75.5759C189.074 74.5726 189.315 73.4846 189.696 72.5238C189.838 72.1564 190.049 71.6618 190.431 71.4923L190.558 71.6053C190.615 72.1422 189.456 75.477 189.258 76.2541C188.142 80.5073 187.181 84.7888 186.376 89.1126C186.828 89.2822 187.252 89.4517 187.661 89.7061C189.286 90.7234 190.205 92.1365 190.954 93.8603C191.194 94.4114 191.477 95.019 191.59 95.6125C191.632 95.8668 191.66 95.994 191.505 96.206L191.307 96.1777C190.883 95.7114 190.374 93.9593 190.021 93.2669C189.442 92.1506 188.538 90.8647 187.464 90.1865C185.372 88.8724 181.783 88.5757 179.353 87.9963C177.587 87.5583 175.849 87.0637 174.125 86.5126C169.9 85.1138 165.604 83.729 161.676 81.6095C161.492 83.842 160.532 85.905 159.5 87.855C161.535 88.8865 163.471 90.1441 165.449 91.2887C172.316 95.2451 179.24 99.3994 186.814 101.816C188.213 102.268 189.809 102.875 191.293 102.805C192.296 102.762 193.059 102.282 193.723 101.547V101.575ZM192.324 91.1897L192.183 91.3028C191.915 91.2463 191.773 91.1191 191.561 90.9354C190.94 90.4267 190.346 90.0169 189.569 89.7343C189.117 89.5648 187.52 89.3246 187.308 89.0985C187.28 89.0702 187.28 89.042 187.266 89.0137C187.435 88.8017 187.619 88.7876 187.888 88.7735C188.099 88.7735 188.326 88.7735 188.538 88.7876C189.852 89.042 191.448 89.6778 192.211 90.8506C192.282 90.9637 192.31 91.0484 192.324 91.1756V91.1897Z" fill="#DC854F"/>
<path d="M191.561 90.9355C190.939 90.4268 190.346 90.017 189.569 89.7344C189.117 89.5649 187.52 89.3246 187.308 89.0986C187.28 89.0703 187.28 89.042 187.266 89.0138C187.435 88.8018 187.619 88.7877 187.887 88.7736C188.099 88.7736 188.325 88.7736 188.537 88.7877C189.851 89.042 191.448 89.6779 192.211 90.8507C192.282 90.9637 192.31 91.0485 192.324 91.1757L192.183 91.2887C191.914 91.2322 191.773 91.105 191.561 90.9213V90.9355Z" fill="#010102"/>
<path d="M165.703 102.649C164.587 107.623 163.852 113.332 165.293 118.291C165.632 119.45 166.141 120.524 166.636 121.626H166.48C165.915 120.976 163.485 117.133 163.188 117.02C163.075 117.147 163.061 117.105 163.061 117.26C163.075 118.136 165.858 121.881 166.607 122.559C166.621 122.559 166.65 122.573 166.664 122.587C167.526 123.732 168.359 124.89 169.038 126.162C169.815 127.603 171.539 132.054 171.313 133.609C171.115 134.951 170.663 136.322 170.267 137.622C169.419 140.476 168.501 143.316 167.512 146.142C167.102 147.371 166.537 148.671 166.268 149.929C166.212 150.056 166.141 150.339 166.07 150.423C165.858 150.664 165.237 150.791 165.237 151.116C165.463 151.229 165.646 151.201 165.901 151.201C166.014 151.37 165.986 151.3 166.028 151.427C165.604 153.56 165.717 155.991 165.675 158.167C165.646 161.106 165.533 164.031 165.336 166.97C164.982 171.986 164.389 177.016 163.767 182.019C163.131 187.077 162.467 192.108 161.633 197.138C158.454 197.18 156.603 196.7 153.65 195.626C153.89 193.789 153.918 191.881 154.003 190.045L154.413 180.097C154.752 171.463 155.275 162.844 155.996 154.239C156.264 150.706 156.702 147.188 157.126 143.669C157.974 136.463 159.019 129.285 160.249 122.149C160.899 118.291 161.45 114.434 162.128 110.59C162.679 107.397 163.329 104.218 163.951 101.024C164.459 101.717 165.025 102.183 165.717 102.678L165.703 102.649Z" fill="#5797D1"/>
<path d="M165.237 151.116C165.237 150.791 165.873 150.664 166.07 150.424C166.155 150.339 166.226 150.042 166.268 149.929C166.297 150.282 166.311 151.059 166.099 151.356C166.07 151.384 166.056 151.413 166.014 151.427C165.972 151.3 166.014 151.37 165.887 151.201C165.632 151.201 165.463 151.243 165.223 151.116H165.237Z" fill="#080A16"/>
<path d="M183.493 156.824H183.564L183.536 156.895L183.493 156.867V156.824Z" fill="#175AA7"/>
<path d="M169.348 124.339C168.84 122.191 168.585 119.959 168.416 117.754C168.091 113.614 168.274 109.064 169.207 105.023C169.348 104.882 169.278 104.91 169.377 104.868C171.327 105.885 173.361 106.789 175.509 107.326C176.117 111.255 178.575 115.988 181.854 118.39C182.419 118.8 183.422 119.648 184.129 119.549L184.199 119.436C183.705 118.659 182.56 118.192 181.854 117.613C178.717 115.041 176.908 111.396 176.018 107.496C177.431 107.835 178.83 108.16 180.271 108.287C180.695 109.898 181.133 111.523 181.755 113.077C182.631 115.296 183.747 117.429 184.383 119.733C185.414 123.52 186.022 127.533 186.587 131.418C187.336 136.689 188.014 141.959 188.608 147.244C188.791 148.728 189.498 150.212 189.173 151.723C187.972 152.416 185.16 153.645 184.496 154.747V154.86C185.443 154.578 188.156 152.924 189.201 152.359C189.343 152.67 189.47 152.995 189.625 153.306C188.226 154.069 184.227 155.595 183.493 156.74V156.839H183.45L183.493 156.881V156.994L183.535 156.909L183.648 157.008C184.213 156.853 184.68 156.302 185.217 156.033C186.601 155.355 188.043 154.776 189.427 154.097C193.666 159.891 198.033 165.571 202.187 171.435C206.624 177.822 210.764 184.378 214.636 191.118C212.587 192.517 210.34 194.057 207.853 194.496C204.759 191.839 201.353 187.204 198.739 183.969C194.062 178.203 189.399 172.495 185.188 166.362C183.676 164.158 182.094 161.911 180.879 159.523C178.943 155.736 177.728 151.695 176.47 147.64C174.944 142.708 173.517 137.749 172.061 132.789C171.228 129.949 170.012 127.222 169.348 124.339Z" fill="#5797D1"/>
<path d="M191.166 50.6361L191.279 48.7992L192.056 49.2655L191.788 51.0883H191.336L191.166 50.6361Z" fill="#175AA7"/>
</svg>
