<svg width="344" height="241" viewBox="0 0 344 241" fill="none" xmlns="http://www.w3.org/2000/svg">
<rect x="0.137695" y="0.558594" width="343.438" height="239.623" rx="23" fill="white"/>
<path d="M270.242 202.484H73.2947V208.719H270.242V202.484Z" fill="#E0E0E0"/>
<path d="M270.268 204.049V194.532H251.184V181.708L210.517 181.683H157.986V170.349H120.096V181.683H95.5595V195.895H73.5474V204.049H270.268Z" fill="#E0E0E0"/>
<path d="M158.061 57.8398L159.02 93.458C159.172 99.5164 160.661 108.377 170.228 107.695C178.483 106.458 180.376 98.5319 180.225 92.8774C180.149 90.2016 180.099 87.955 180.099 87.6773C180.099 87.6773 189.136 86.5666 189.565 77.58C189.767 73.2381 189.439 64.2516 189.06 56.1232C188.656 47.3891 181.588 40.4472 172.854 40.1695H171.995C162.605 40.3714 157.582 48.4745 158.061 57.8398Z" fill="#F9BE9D"/>
<path d="M180.225 87.6774C180.225 87.6774 174.546 87.8289 168.639 83.8152C168.639 83.8152 171.289 90.7066 180.276 90.2017L180.225 87.6774Z" fill="#F3986E"/>
<path d="M178.156 70.7139C178.156 70.7139 179.014 70.5119 180.402 70.3857C180.756 70.3857 181.084 70.31 181.16 70.0575C181.261 69.8051 181.109 69.4265 180.958 68.9973C180.655 68.1391 180.327 67.2303 179.998 66.2711C178.686 62.3836 177.727 59.2029 177.878 59.1525C178.03 59.102 179.241 62.2069 180.554 66.0691C180.882 67.0284 181.185 67.9371 181.463 68.7954C181.589 69.1993 181.791 69.6537 181.589 70.1838C181.488 70.4362 181.21 70.6381 180.983 70.6886C180.756 70.7391 180.554 70.7391 180.377 70.7644C178.963 70.7896 178.105 70.7644 178.105 70.6886L178.156 70.7139Z" fill="#263239"/>
<path d="M173.132 54.7855C173.005 55.1136 171.794 54.9117 170.355 55.0631C168.916 55.1641 167.755 55.568 167.578 55.2398C167.502 55.0884 167.704 54.7855 168.184 54.4573C168.663 54.1291 169.396 53.8515 170.279 53.7757C171.137 53.7 171.92 53.8767 172.425 54.1039C172.955 54.3311 173.207 54.6088 173.132 54.7855Z" fill="#263239"/>
<path d="M187.495 57.0067C187.343 57.2844 186.157 57.0068 184.743 57.032C183.33 57.032 182.143 57.2844 181.992 57.0067C181.916 56.8805 182.143 56.6281 182.623 56.3757C183.103 56.1485 183.86 55.9465 184.718 55.9465C185.576 55.9465 186.334 56.1485 186.839 56.3757C187.343 56.6029 187.571 56.8553 187.52 57.0067H187.495Z" fill="#263239"/>
<path d="M158.693 64.5292C158.541 64.4535 152.584 62.4845 152.559 68.6439C152.559 74.8032 158.743 73.5411 158.743 73.3644C158.743 73.1876 158.693 64.5292 158.693 64.5292Z" fill="#F9BE9D"/>
<path d="M156.876 71.0421C156.876 71.0421 156.775 71.1178 156.598 71.1935C156.421 71.2693 156.118 71.3198 155.79 71.1935C155.134 70.9411 154.604 69.9314 154.553 68.8207C154.553 68.2653 154.654 67.7352 154.856 67.2808C155.033 66.8265 155.336 66.5235 155.664 66.4478C155.992 66.3721 156.219 66.574 156.295 66.7507C156.371 66.9274 156.345 67.0536 156.371 67.0536C156.371 67.0536 156.497 66.9527 156.446 66.7002C156.446 66.574 156.345 66.4226 156.194 66.3216C156.043 66.1954 155.841 66.1449 155.613 66.1701C155.134 66.1954 154.705 66.6498 154.503 67.1294C154.25 67.609 154.124 68.2148 154.124 68.8459C154.149 70.0828 154.806 71.244 155.689 71.4965C156.118 71.6227 156.472 71.4965 156.674 71.345C156.876 71.1935 156.901 71.0673 156.876 71.0421Z" fill="#F3986E"/>
<path d="M196.508 50.2416C197.038 50.4435 197.492 50.9484 197.543 51.529C197.644 52.3873 197.038 53.2455 196.23 53.5232C195.422 53.8009 194.488 53.5737 193.832 52.9931C194.135 53.1951 194.387 53.4475 194.614 53.7252C195.75 55.164 193.807 57.0825 192.393 55.9213C192.141 56.401 191.939 56.9058 191.737 57.3854L191.686 57.4864C191.56 57.7893 191.434 58.0923 191.257 58.3952L189.288 62.5098C189.061 59.9855 189.137 56.4262 188.884 53.9019C184.972 53.9019 181.387 52.463 178.661 49.661C177.222 48.1969 176.061 46.3289 174.193 45.4706C171.769 44.3852 168.967 45.3444 166.493 46.3289L166.594 46.2279C165.307 46.8843 164.171 47.793 163.212 48.8785C163.969 53.8261 163.666 58.9253 162.278 63.7467C162.076 64.4788 161.495 65.9681 160.789 66.2711C159.425 66.8517 158.996 65.4633 158.138 64.7565C157.507 64.2264 156.598 64.2011 155.614 64.2264C154.983 62.7118 153.165 59.0767 152.584 56.8301L152.736 55.7699L152.913 53.3213C154.099 51.0999 152.484 49.9892 153.089 47.5406C153.695 45.092 154.074 43.5521 156.421 42.6181C158.517 41.6841 160.915 40.6744 162.707 42.088C163.01 38.8821 165.711 36.2316 168.791 35.2976C171.87 34.3636 176.01 35.2724 179.039 36.3578C181.387 37.1908 182.876 38.352 185.704 41.0278C186.89 42.1638 189.944 46.1522 190.929 47.4648L196.407 50.2668L196.508 50.2416Z" fill="#263239"/>
<g opacity="0.3">
<path d="M153.316 58.8495C153.316 58.8495 159.147 53.6242 170.355 52.2358C181.563 50.8474 193.428 51.0241 195.826 49.8882L192.948 48.4241L158.314 52.6145L152.332 55.9718L153.316 58.8495Z" fill="black"/>
</g>
<path d="M165.534 32.2179C165.104 32.3189 155.007 35.3733 152.988 43.1987C150.968 51.0242 151.902 53.3213 151.902 53.3213C151.902 53.3213 151.322 53.7252 150.892 54.331C150.514 54.8611 151.296 57.234 152.609 56.8553C162.328 51.7057 174.141 50.3931 187.394 49.863L197.517 49.0047C200.394 48.4241 195.295 46.3037 194.033 45.6978C193.074 45.2182 188.783 43.5522 188.783 43.5522C187.874 42.0123 186.056 40.1696 184.239 38.453C184.239 38.453 185.047 37.1656 183.961 36.5598C182.901 35.9539 173.813 30.4509 165.508 32.2179H165.534Z" fill="#EE7160"/>
<path d="M189.186 43.5016C189.186 43.5016 189.06 43.5016 188.782 43.5269C188.479 43.5269 188.101 43.5521 187.646 43.5774C186.662 43.6026 185.248 43.7288 183.481 43.8803C179.998 44.2589 175.176 45.0162 170.027 46.5308C164.852 47.9949 160.333 49.7872 157.077 51.1251C155.461 51.7814 154.149 52.362 153.24 52.7407C152.836 52.9174 152.482 53.0688 152.205 53.195C151.978 53.296 151.826 53.3465 151.826 53.3465C151.826 53.3465 151.952 53.2708 152.18 53.1698C152.457 53.0436 152.811 52.8921 153.215 52.6902C154.123 52.2863 155.411 51.7057 157.026 51.0241C160.257 49.661 164.801 47.8435 169.976 46.3794C175.151 44.8648 179.972 44.1075 183.481 43.7793C186.99 43.4511 189.161 43.5016 189.161 43.5016H189.186Z" fill="#263239"/>
<g opacity="0.3">
<path d="M156.497 37.3928C156.497 37.3928 167.427 34.818 172.552 36.8375C172.35 36.7617 172.148 36.6607 171.946 36.585C173.561 37.1656 174.647 38.352 176.237 38.9326C177.045 39.2356 177.6 39.2356 178.332 38.7812C178.332 38.7812 173.864 36.2316 171.845 35.4491C167.276 33.682 160.788 33.783 156.472 37.3928H156.497Z" fill="black"/>
</g>
<path d="M156.346 37.4686C156.346 37.4686 156.648 37.1657 157.28 36.7365C157.911 36.3074 158.87 35.7268 160.157 35.2472C161.419 34.7423 163.035 34.3637 164.827 34.2122C166.62 34.086 168.664 34.187 170.633 34.919C171.618 35.2724 172.526 35.7268 173.41 36.1559C174.268 36.6103 175.127 37.0142 175.909 37.4686C176.692 37.923 177.398 38.4026 178.13 38.6803C178.863 38.9832 179.62 38.9832 180.301 38.9579C183.002 38.8065 184.643 38.1249 184.492 37.9482C184.492 37.9482 184.492 38.0744 184.29 38.1754C184.113 38.2764 183.835 38.4026 183.482 38.5288C182.75 38.756 181.665 38.9832 180.301 39.0841C179.62 39.1346 178.837 39.1346 178.08 38.8317C177.323 38.554 176.591 38.0744 175.808 37.62C175.026 37.1657 174.167 36.787 173.309 36.3326C172.426 35.9035 171.517 35.4491 170.558 35.0957C168.614 34.3637 166.62 34.2627 164.827 34.3889C163.035 34.5151 161.445 34.8938 160.183 35.3734C158.895 35.8278 157.936 36.3831 157.305 36.8123C156.977 37.0142 156.749 37.1909 156.573 37.3171C156.421 37.4433 156.32 37.4938 156.32 37.4938L156.346 37.4686Z" fill="#263239"/>
<g opacity="0.3">
<path d="M152.281 46.4551L152.332 46.1017C154.099 45.5211 155.538 45.2687 157.633 44.8648C159.753 44.4609 161.773 43.9813 163.817 43.2745C165.357 42.7444 167.2 42.2143 168.134 41.0278C168.336 41.8356 168.134 42.5929 167.579 43.224C167.023 43.8551 165.105 44.6629 164.322 44.9405C159.829 46.5309 156.699 47.5911 151.953 48.2726C151.953 47.7678 152.281 46.4551 152.281 46.4551Z" fill="black"/>
</g>
<path d="M153.366 42.0629C152.155 42.6939 151.246 43.1736 151.347 44.461C151.423 45.3445 151.448 46.0008 152.332 46.1018C152.609 46.127 152.862 46.0513 153.139 45.9756C157.633 44.7386 162.328 43.9056 166.821 42.6687C167.276 42.5425 167.78 42.391 168.033 41.9871C168.437 41.3813 167.957 40.0182 167.326 39.6648C166.695 39.3114 165.811 39.4123 165.079 39.4376C160.939 39.6648 157.405 40.6997 153.467 42.0124" fill="#EE7160"/>
<path d="M167.83 42.2143C167.83 42.2143 168.057 42.0376 168.158 41.5833C168.259 41.1541 168.158 40.3716 167.477 39.892C166.795 39.4376 165.76 39.3366 164.675 39.4881C163.589 39.6143 162.378 39.791 161.116 39.9929C158.616 40.4221 156.37 41.0027 154.805 41.5833C154.022 41.8609 153.391 42.1386 152.962 42.3153C152.785 42.391 152.634 42.4668 152.482 42.5425C152.381 42.593 152.306 42.6182 152.306 42.6182C152.306 42.6182 152.356 42.5677 152.457 42.5173C152.609 42.4415 152.76 42.3658 152.937 42.2648C153.366 42.0629 153.972 41.7852 154.754 41.4823C156.319 40.8764 158.566 40.2454 161.065 39.8415C162.327 39.6395 163.539 39.4628 164.624 39.3366C165.71 39.2104 166.795 39.3114 167.502 39.8162C168.209 40.3463 168.31 41.1794 168.184 41.6085C168.133 41.8357 168.007 42.0124 167.931 42.0881C167.856 42.1891 167.78 42.2143 167.78 42.2143H167.83Z" fill="#263239"/>
<path d="M185.299 40.018L177.701 40.6743L177.852 42.82L187.217 41.9617L185.299 40.018Z" fill="white"/>
<path d="M187.319 60.768C187.143 60.9447 186.183 60.1874 184.795 60.1622C183.407 60.1117 182.346 60.8185 182.22 60.6418C182.144 60.5661 182.321 60.2631 182.775 59.935C183.23 59.6321 183.987 59.3291 184.845 59.3544C185.704 59.3796 186.436 59.7078 186.865 60.0612C187.294 60.3894 187.42 60.7175 187.344 60.7932L187.319 60.768Z" fill="#263239"/>
<path d="M173.132 64.9584C173.132 65.5642 172.627 66.0691 171.996 66.0944C171.365 66.0944 170.835 65.64 170.835 65.0341C170.835 64.4283 171.34 63.9234 171.971 63.8982C172.602 63.8982 173.132 64.3526 173.132 64.9584Z" fill="#263239"/>
<path d="M185.224 64.9584C185.224 65.5642 184.719 66.0691 184.088 66.0944C183.457 66.0944 182.927 65.64 182.927 65.0341C182.927 64.4283 183.432 63.9234 184.063 63.8982C184.694 63.8982 185.224 64.3526 185.224 64.9584Z" fill="#263239"/>
<path d="M173.966 60.2631C173.789 60.4398 172.83 59.6826 171.441 59.6573C170.053 59.6068 168.993 60.3136 168.867 60.1369C168.791 60.0612 168.968 59.7583 169.422 59.4554C169.876 59.1524 170.634 58.8495 171.492 58.8748C172.35 58.9 173.082 59.2282 173.511 59.5816C173.94 59.9097 174.067 60.2379 173.991 60.3136L173.966 60.2631Z" fill="#263239"/>
<path d="M178.307 70.739C178.307 70.739 179.165 70.5371 180.579 70.3856C180.932 70.3604 181.286 70.2847 181.336 70.0575C181.437 69.805 181.286 69.4011 181.134 68.9972C180.831 68.1137 180.478 67.205 180.15 66.2457C178.787 62.333 177.777 59.1271 177.954 59.0767C178.105 59.0262 179.342 62.1563 180.73 66.0438C181.059 67.003 181.387 67.937 181.69 68.7953C181.816 69.1992 182.043 69.6788 181.841 70.2089C181.74 70.4614 181.462 70.6633 181.235 70.7138C181.008 70.7895 180.806 70.7895 180.629 70.7895C179.216 70.84 178.332 70.8148 178.332 70.739H178.307Z" fill="#263239"/>
<path d="M174.193 71.5973C174.42 71.5973 174.395 73.1119 175.657 74.2226C176.919 75.3333 178.56 75.2071 178.56 75.409C178.56 75.51 178.181 75.6867 177.5 75.6867C176.818 75.6867 175.859 75.4595 175.076 74.778C174.294 74.0964 173.991 73.2129 173.941 72.5818C173.89 71.9507 174.067 71.5721 174.168 71.5973H174.193Z" fill="#263239"/>
<path d="M199.359 127.309L194.184 166.537L196.052 185.268L136.63 185.192L139.912 156.617L141.981 96.7902L155.461 93.1046L158.213 88.2075L171.365 96.2601L181.058 89.3182L183.91 95.1494L199.056 98.9611L199.359 127.309Z" fill="#E0E0E0"/>
<path d="M170.33 96.1591C170.33 96.1591 170.078 96.7902 169.573 97.8504C169.068 98.8854 168.336 100.375 167.453 102.091L167.377 102.268L167.225 102.167C166.165 101.46 165.029 100.652 163.868 99.7689C161.52 97.9514 159.476 96.2349 157.961 95.0484C157.254 94.4931 156.623 94.0387 156.144 93.66C155.714 93.3319 155.487 93.1552 155.487 93.1299C155.487 93.1299 155.765 93.2562 156.219 93.5338C156.674 93.8368 157.33 94.2659 158.113 94.8465C159.678 95.9824 161.773 97.6737 164.095 99.466C165.256 100.35 166.367 101.183 167.402 101.889L167.15 101.965C168.058 100.249 168.841 98.8097 169.396 97.7999C169.952 96.7902 170.305 96.1844 170.33 96.2096V96.1591Z" fill="#263239"/>
<path d="M183.709 95.7048C183.709 95.7048 183.582 95.932 183.305 96.3106C183.027 96.6893 182.623 97.1941 182.093 97.8252C181.033 99.0621 179.543 100.779 177.574 102.394C177.322 102.596 177.095 102.773 176.817 102.95C176.666 103.025 176.464 103.126 176.262 103.076C176.035 103.025 175.908 102.874 175.807 102.748C175.504 102.243 175.202 101.763 174.899 101.309C174.318 100.425 173.788 99.6175 173.334 98.8854C172.879 98.2039 172.551 97.6233 172.324 97.2194C172.097 96.8155 171.996 96.5883 172.021 96.5883C172.021 96.5883 172.198 96.7902 172.45 97.1436C172.753 97.598 173.132 98.1281 173.561 98.734C174.04 99.4155 174.596 100.198 175.202 101.107C175.504 101.561 175.807 102.041 176.11 102.52C176.287 102.748 176.413 102.773 176.64 102.621C176.868 102.47 177.12 102.268 177.372 102.091C179.291 100.526 180.806 98.8349 181.916 97.6485C183.027 96.4368 183.683 95.6795 183.734 95.7048H183.709Z" fill="#263239"/>
<path d="M170.33 121.327C170.33 121.327 170.279 120.999 170.279 120.418C170.279 119.837 170.279 118.979 170.279 117.919C170.305 115.798 170.456 112.895 170.658 109.69C170.86 106.484 171.062 103.581 171.163 101.485C171.213 100.501 171.264 99.668 171.289 98.9864C171.314 98.4058 171.34 98.0776 171.39 98.0776C171.415 98.0776 171.44 98.4058 171.44 98.9864C171.44 99.567 171.44 100.425 171.44 101.485C171.415 103.606 171.264 106.509 171.062 109.715C170.86 112.921 170.658 115.824 170.557 117.919C170.506 118.903 170.456 119.736 170.431 120.418C170.406 120.999 170.38 121.327 170.33 121.327Z" fill="#263239"/>
<g opacity="0.3">
<path d="M155.942 93.4328C155.942 93.4328 163.086 100.021 166.519 103.202C167.327 103.959 168.639 103.53 168.866 102.47L170.103 96.6134L167.301 102.016L155.942 93.458V93.4328Z" fill="black"/>
</g>
<g opacity="0.3">
<path d="M172.35 97.194C172.35 97.194 175.001 104.969 175.758 104.439C176.515 103.909 180.832 100.047 182.447 97.194C180.403 99.4154 178.358 101.384 176.288 102.924L175.808 102.47L172.35 97.194Z" fill="black"/>
</g>
<path d="M148.141 120.695L192.065 121.932C193.251 121.958 194.185 122.942 194.16 124.103L193.882 183.122C193.882 184.308 192.923 185.268 191.737 185.268L140.392 185.924C139.079 185.924 138.044 184.788 138.221 183.475L145.92 122.563C146.072 121.453 147.006 120.645 148.141 120.67V120.695Z" fill="#455A64"/>
<path d="M155.487 136.397L185.426 137.331C185.426 137.331 188.102 158.762 171.896 159.116C150.515 159.57 155.513 136.397 155.513 136.397H155.487Z" fill="#455A64"/>
<path d="M155.487 136.397C155.487 136.397 155.487 136.472 155.462 136.624C155.462 136.801 155.411 137.028 155.361 137.305C155.285 137.911 155.184 138.82 155.108 139.981C155.058 141.142 155.033 142.581 155.184 144.222C155.336 145.863 155.638 147.731 156.345 149.7C156.699 150.659 157.153 151.669 157.759 152.603C158.365 153.562 159.097 154.496 160.006 155.279C160.914 156.086 161.949 156.793 163.136 157.323C163.716 157.626 164.347 157.803 164.978 158.055C165.61 158.232 166.266 158.434 166.947 158.535C167.629 158.661 168.311 158.762 169.017 158.813C169.371 158.838 169.724 158.888 170.078 158.888C170.431 158.888 170.784 158.888 171.138 158.888C171.87 158.914 172.577 158.838 173.309 158.813C174.041 158.712 174.773 158.611 175.48 158.409C176.919 158.03 178.307 157.374 179.519 156.44C180.73 155.506 181.765 154.319 182.573 152.982C184.037 150.533 184.744 147.781 185.123 145.106C185.476 142.43 185.501 139.779 185.274 137.331L185.451 137.482C176.742 137.179 169.27 136.927 163.969 136.725C161.343 136.624 159.223 136.548 157.759 136.472C157.052 136.447 156.497 136.422 156.093 136.397C155.916 136.397 155.765 136.397 155.664 136.397C155.563 136.397 155.512 136.397 155.512 136.397C155.512 136.397 155.563 136.397 155.638 136.397C155.739 136.397 155.891 136.397 156.042 136.397C156.446 136.397 156.976 136.397 157.683 136.422C159.147 136.447 161.217 136.498 163.843 136.573C169.169 136.725 176.666 136.927 185.425 137.154H185.577V137.305C185.829 139.83 185.804 142.48 185.451 145.181C185.072 147.882 184.365 150.684 182.876 153.183C182.043 154.572 180.983 155.809 179.721 156.768C178.458 157.727 177.019 158.384 175.555 158.787C174.823 158.989 174.066 159.09 173.334 159.217C172.602 159.267 171.845 159.343 171.113 159.292C170.759 159.292 170.381 159.292 170.027 159.292C169.674 159.292 169.32 159.242 168.967 159.217C168.26 159.166 167.553 159.04 166.872 158.939C166.19 158.838 165.534 158.611 164.877 158.434C164.246 158.207 163.59 158.005 163.009 157.702C161.798 157.147 160.738 156.415 159.804 155.582C158.87 154.749 158.112 153.815 157.506 152.83C156.875 151.871 156.446 150.836 156.068 149.851C155.361 147.857 155.058 145.964 154.932 144.298C154.805 142.632 154.831 141.193 154.932 140.032C155.007 138.871 155.134 137.962 155.26 137.356C155.31 137.053 155.361 136.826 155.386 136.674C155.411 136.523 155.437 136.447 155.462 136.447L155.487 136.397Z" fill="#263239"/>
<path d="M145.542 95.2754L147.384 124.078C147.51 125.946 149.177 127.309 151.019 127.057C152.711 126.829 153.922 125.315 153.796 123.624L151.499 94.19C149.883 93.9123 147.839 94.1395 145.542 95.2754Z" fill="#455A64"/>
<path d="M145.542 95.2755C145.542 95.2755 145.642 95.1998 145.895 95.0736C146.147 94.9474 146.501 94.7707 147.006 94.5939C147.99 94.2405 149.53 93.7862 151.524 94.0891H151.6V94.1901C151.878 97.5222 152.256 102.041 152.685 107.342C152.887 109.992 153.114 112.87 153.367 115.874C153.493 117.389 153.594 118.928 153.72 120.494C153.771 121.276 153.847 122.084 153.897 122.866C153.897 123.27 153.973 123.649 153.948 124.103C153.948 124.532 153.821 124.962 153.645 125.34C153.064 126.602 151.701 127.385 150.388 127.284C149.05 127.233 147.839 126.299 147.384 125.088C147.283 124.785 147.208 124.482 147.182 124.154C147.182 123.851 147.132 123.548 147.132 123.245C147.107 122.639 147.056 122.059 147.031 121.478C146.955 120.317 146.879 119.156 146.829 118.045C146.551 113.577 146.324 109.563 146.122 106.155C145.945 102.798 145.794 100.097 145.668 98.1785C145.617 97.2697 145.592 96.5377 145.567 96.0328C145.567 95.8056 145.567 95.6289 145.567 95.4775C145.567 95.3512 145.567 95.3008 145.567 95.3008C145.567 95.3008 145.567 95.3765 145.592 95.5027C145.592 95.6542 145.617 95.8309 145.642 96.0833C145.693 96.6134 145.743 97.3455 145.819 98.2795C145.945 100.198 146.147 102.924 146.4 106.282C146.627 109.664 146.905 113.653 147.208 118.095C147.283 119.206 147.359 120.342 147.435 121.503C147.485 122.084 147.51 122.664 147.561 123.27C147.611 123.876 147.586 124.457 147.813 124.987C148.217 126.072 149.303 126.88 150.489 126.931C151.676 127.006 152.887 126.299 153.392 125.189C153.544 124.835 153.645 124.457 153.67 124.078C153.67 123.699 153.645 123.296 153.619 122.892C153.569 122.084 153.493 121.301 153.443 120.519C153.316 118.954 153.215 117.414 153.089 115.899C152.862 112.895 152.635 110.043 152.433 107.367C152.054 102.066 151.726 97.5474 151.474 94.2153L151.549 94.3163C149.631 94.0134 148.091 94.4172 147.107 94.7202C146.602 94.8716 146.223 95.0483 145.996 95.1493C145.743 95.2503 145.617 95.3008 145.617 95.3008L145.542 95.2755Z" fill="#263239"/>
<path d="M188.429 96.0075L185.451 124.86C185.274 126.552 186.536 128.066 188.227 128.218C189.944 128.369 191.433 127.107 191.585 125.416L193.882 97.9259C194.084 97.5725 190.449 95.9065 188.429 96.0075Z" fill="#455A64"/>
<path d="M188.429 96.0075C188.429 96.0075 188.556 95.9822 188.833 95.9822C189.086 95.9822 189.49 96.0075 189.994 96.1085C190.499 96.2094 191.105 96.3609 191.787 96.6133C192.14 96.7395 192.494 96.891 192.872 97.0677C193.074 97.1687 193.251 97.2444 193.453 97.3706C193.554 97.4211 193.655 97.4968 193.756 97.5726C193.806 97.5978 193.857 97.6483 193.907 97.6988C193.932 97.7493 194.033 97.7998 193.983 97.9765V97.926C193.73 101.157 193.402 105.524 192.998 110.649C192.796 113.223 192.569 116 192.317 118.903C192.191 120.367 192.064 121.857 191.938 123.371C191.862 124.128 191.837 124.886 191.736 125.694C191.61 126.501 191.156 127.284 190.474 127.763C189.414 128.571 187.874 128.622 186.789 127.94C185.678 127.284 185.097 125.921 185.274 124.684C185.526 122.336 185.754 120.064 185.981 117.919C186.435 113.627 186.864 109.74 187.218 106.483C187.571 103.252 187.874 100.652 188.076 98.8095C188.177 97.926 188.253 97.2444 188.328 96.7395C188.354 96.5123 188.379 96.3609 188.404 96.2094C188.404 96.0832 188.429 96.0327 188.429 96.0327C188.429 96.0327 188.429 96.1085 188.429 96.2347C188.429 96.3861 188.404 96.5628 188.379 96.79C188.328 97.2949 188.278 98.0017 188.202 98.9105C188.025 100.753 187.773 103.404 187.47 106.635C187.142 109.891 186.763 113.753 186.334 118.02C186.107 120.165 185.88 122.412 185.653 124.734C185.476 125.845 186.006 127.031 186.991 127.637C187.95 128.243 189.313 128.218 190.247 127.486C190.853 127.031 191.257 126.375 191.358 125.643C191.433 124.911 191.484 124.103 191.56 123.346C191.686 121.831 191.812 120.342 191.938 118.878C192.191 115.975 192.418 113.198 192.645 110.623C193.099 105.499 193.478 101.132 193.781 97.926H193.831C193.831 97.926 193.806 97.9007 193.756 97.8502C193.73 97.825 193.68 97.7745 193.629 97.7493C193.554 97.6735 193.453 97.6231 193.352 97.5726C193.175 97.4463 192.973 97.3706 192.796 97.2696C192.418 97.0929 192.064 96.9415 191.711 96.79C191.029 96.5376 190.424 96.3609 189.944 96.2347C189.464 96.1337 189.06 96.0832 188.808 96.058C188.556 96.058 188.429 96.058 188.404 96.0327L188.429 96.0075Z" fill="#263239"/>
<path d="M190.347 124.962C190.347 125.845 189.615 126.577 188.732 126.577C187.848 126.577 187.116 125.845 187.116 124.962C187.116 124.078 187.848 123.346 188.732 123.346C189.615 123.346 190.347 124.078 190.347 124.962Z" fill="#455A64"/>
<path d="M190.348 124.962C190.348 124.962 190.297 124.81 190.222 124.583C190.146 124.356 189.969 124.028 189.616 123.775C189.288 123.523 188.732 123.396 188.228 123.598C187.723 123.775 187.294 124.33 187.294 124.962C187.294 125.593 187.723 126.148 188.228 126.325C188.732 126.527 189.288 126.4 189.616 126.148C189.969 125.896 190.146 125.567 190.222 125.34C190.297 125.113 190.323 124.962 190.348 124.962C190.348 124.962 190.398 125.113 190.348 125.365C190.297 125.618 190.146 126.022 189.767 126.35C189.389 126.678 188.732 126.855 188.101 126.653C187.47 126.451 186.89 125.769 186.915 124.962C186.915 124.154 187.47 123.472 188.101 123.27C188.758 123.043 189.389 123.245 189.767 123.573C190.146 123.901 190.297 124.28 190.348 124.558C190.398 124.835 190.348 124.962 190.348 124.962Z" fill="#263239"/>
<path d="M152.13 124.255C152.13 125.138 151.398 125.87 150.514 125.87C149.631 125.87 148.899 125.138 148.899 124.255C148.899 123.371 149.631 122.639 150.514 122.639C151.398 122.639 152.13 123.371 152.13 124.255Z" fill="#455A64"/>
<path d="M152.131 124.255C152.131 124.255 152.08 124.103 152.004 123.876C151.929 123.649 151.752 123.321 151.399 123.068C151.07 122.816 150.515 122.69 150.01 122.892C149.505 123.068 149.076 123.624 149.076 124.255C149.076 124.886 149.505 125.441 150.01 125.618C150.515 125.82 151.07 125.694 151.399 125.441C151.752 125.189 151.929 124.861 152.004 124.633C152.08 124.406 152.105 124.255 152.131 124.255C152.131 124.255 152.181 124.406 152.131 124.659C152.08 124.911 151.929 125.315 151.55 125.643C151.171 125.971 150.515 126.148 149.884 125.946C149.253 125.744 148.672 125.063 148.698 124.255C148.698 123.447 149.253 122.765 149.884 122.564C150.54 122.336 151.171 122.538 151.55 122.866C151.929 123.195 152.08 123.573 152.131 123.851C152.181 124.129 152.131 124.255 152.131 124.255Z" fill="#263239"/>
<g opacity="0.3">
<path d="M190.777 134.68C191.509 133.822 191.282 132.408 190.474 131.651C189.667 130.894 188.404 130.717 187.319 131.045C186.158 131.373 184.921 132.206 183.861 131.6C183.028 131.121 182.851 130.01 182.699 129.051C182.548 128.092 182.119 126.981 181.185 126.804C180.453 126.678 179.746 127.259 179.443 127.94C179.14 128.622 179.165 129.404 179.216 130.136L179.039 131.298C177.651 131.929 175.505 132.03 174.95 133.469C174.394 134.907 174.975 136.826 176.464 137.28C177.045 137.457 177.701 137.406 178.206 137.735C179.09 138.366 178.812 139.729 178.408 140.739C178.004 141.748 177.575 143.036 178.358 143.818C179.796 145.207 182.447 142.48 184.037 143.717C184.795 144.323 184.769 145.535 185.476 146.191C186.435 147.125 188.228 146.368 188.733 145.106C189.237 143.843 188.834 142.43 188.404 141.142C187.824 139.502 187.294 137.406 188.556 136.195C189.237 135.564 190.247 135.362 190.853 134.655L190.777 134.68Z" fill="black"/>
</g>
<path d="M142.966 96.5883C142.966 96.5883 136.605 97.2193 131.985 102.419C128.274 106.585 113.305 122.564 111.841 125.063C110.377 127.562 105.606 133.368 107.903 137.937C110.175 142.506 113.936 145.005 116.41 146.04C118.228 146.797 122.14 148.11 124.841 148.463C125.826 148.589 128.073 147.403 128.426 146.469L134.333 131.298L133.904 129.278L134.888 128.723L141.098 126.224L142.916 96.6387L142.966 96.5883Z" fill="#E0E0E0"/>
<path d="M149.884 137.104L130.421 129.531C129.765 129.531 124.287 133.342 123.454 140.789C123.277 142.354 123.227 144.752 124.135 146.04L147.46 148.009L149.884 137.104Z" fill="#F9BE9D"/>
<path d="M144.228 156.087L166.29 165.427L168.638 160.151L146.727 150.609C145.313 150.003 143.672 150.533 142.915 151.871C142.032 153.386 142.638 155.329 144.228 156.087Z" fill="#263239"/>
<path d="M123.327 125.946C123.327 125.946 124.033 125.694 125.22 125.593C126.432 125.492 128.047 125.719 129.814 126.199C131.556 126.779 132.919 127.814 133.676 128.723C134.459 129.657 134.535 130.465 134.484 130.465C134.408 130.465 134.257 129.758 133.474 128.9C132.692 128.067 131.354 127.107 129.688 126.552C127.997 126.098 126.381 125.82 125.22 125.87C124.059 125.896 123.327 126.022 123.327 125.946Z" fill="#263239"/>
<path d="M132.086 120.14C132.086 120.14 132.086 122.235 132.893 124.608C133.676 127.006 135.014 128.597 134.913 128.672C134.888 128.698 134.509 128.344 134.004 127.663C133.499 126.981 132.944 125.946 132.515 124.734C132.111 123.498 131.959 122.336 131.959 121.503C131.959 120.67 132.035 120.14 132.086 120.14Z" fill="#263239"/>
<path d="M139.66 108.655C139.66 108.655 140.114 112.794 140.417 117.919C140.72 123.043 140.897 127.183 140.796 127.208C140.695 127.208 140.341 123.068 140.039 117.944C139.736 112.82 139.559 108.68 139.66 108.655Z" fill="#263239"/>
<path d="M121.534 128.344C121.534 128.344 120.903 129.101 120.02 130.389C119.565 131.02 119.111 131.853 118.657 132.762C118.202 133.696 117.773 134.731 117.42 135.867C116.713 138.139 116.41 140.309 116.334 141.849C116.259 143.414 116.334 144.374 116.259 144.399C116.233 144.399 116.183 144.172 116.132 143.717C116.082 143.288 116.057 142.632 116.057 141.849C116.057 140.259 116.334 138.063 117.066 135.74C117.445 134.579 117.899 133.519 118.354 132.585C118.859 131.651 119.338 130.843 119.818 130.212C120.045 129.884 120.272 129.606 120.474 129.379C120.676 129.127 120.853 128.925 121.03 128.773C121.332 128.47 121.534 128.294 121.534 128.319V128.344Z" fill="#263239"/>
<path d="M124.134 146.04C124.134 146.04 124.008 145.813 123.832 145.358C123.68 144.904 123.503 144.222 123.402 143.364C123.175 141.647 123.402 139.174 124.412 136.725C125.422 134.276 126.709 132.232 127.971 131.02C128.577 130.414 129.158 129.985 129.587 129.733C129.991 129.48 130.243 129.379 130.269 129.405C130.319 129.48 129.335 129.96 128.173 131.197C126.987 132.434 125.775 134.453 124.766 136.877C123.756 139.275 123.503 141.673 123.655 143.364C123.781 145.055 124.185 146.065 124.109 146.09L124.134 146.04Z" fill="#263239"/>
<g opacity="0.3">
<path d="M126.962 124.154C124.286 123.573 121.434 123.977 119.01 125.264C118.581 125.492 118.127 125.87 118.203 126.325C118.278 126.678 118.657 126.905 119.01 126.905C119.364 126.905 119.717 126.754 120.045 126.628C123.1 125.416 126.583 125.365 129.663 126.451C131.127 126.855 132.389 127.587 133.5 128.672C132.617 126.123 129.613 124.709 126.937 124.129L126.962 124.154Z" fill="black"/>
</g>
<path d="M168.008 174.943L176.969 164.619C177.474 164.038 178.307 163.937 178.938 164.366L196.255 175.928C197.239 176.584 196.76 178.124 195.573 178.099L169.118 177.442C167.856 177.417 167.175 175.902 168.008 174.943Z" fill="#E0E0E0"/>
<path d="M168.007 174.943C168.007 174.943 167.831 175.12 167.73 175.574C167.679 175.801 167.679 176.079 167.78 176.382C167.881 176.685 168.134 177.013 168.512 177.19C168.891 177.392 169.396 177.316 169.926 177.341C170.456 177.341 171.037 177.341 171.668 177.367C172.93 177.367 174.343 177.417 175.909 177.442C179.064 177.518 182.8 177.594 186.965 177.669C189.035 177.72 191.231 177.77 193.503 177.821C194.058 177.821 194.639 177.846 195.22 177.871C195.523 177.871 195.775 177.897 196.002 177.796C196.229 177.695 196.406 177.518 196.532 177.291C197.088 176.18 195.523 175.7 194.639 174.994C190.651 172.318 186.839 169.768 183.381 167.471C182.522 166.891 181.664 166.335 180.856 165.78C180.452 165.502 180.048 165.225 179.645 164.972C179.443 164.846 179.241 164.694 179.064 164.568C178.862 164.417 178.711 164.316 178.483 164.265C178.079 164.164 177.65 164.265 177.322 164.492C177.171 164.593 177.044 164.77 176.893 164.947C176.742 165.124 176.615 165.275 176.464 165.426C175.909 166.083 175.353 166.689 174.823 167.294C172.753 169.642 171.087 171.535 169.901 172.873C169.32 173.504 168.866 174.009 168.538 174.388C168.386 174.539 168.285 174.665 168.184 174.766C168.108 174.842 168.058 174.893 168.058 174.893C168.058 174.893 168.083 174.842 168.159 174.741C168.26 174.64 168.361 174.489 168.487 174.337C168.815 173.959 169.244 173.429 169.8 172.772C170.961 171.409 172.602 169.491 174.646 167.093C175.151 166.487 175.707 165.881 176.262 165.225C176.413 165.073 176.54 164.896 176.691 164.72C176.843 164.568 176.969 164.366 177.171 164.215C177.549 163.912 178.105 163.786 178.584 163.937C178.837 163.988 179.064 164.139 179.241 164.265C179.443 164.391 179.645 164.518 179.821 164.669C180.225 164.922 180.629 165.199 181.033 165.477C181.866 166.032 182.699 166.588 183.557 167.168C187.016 169.491 190.827 172.015 194.816 174.691C195.321 175.019 195.8 175.347 196.305 175.675C196.583 175.852 196.835 176.13 196.911 176.458C197.012 176.786 196.961 177.139 196.835 177.442C196.684 177.745 196.431 177.998 196.128 178.124C195.8 178.25 195.472 178.225 195.194 178.225C194.614 178.225 194.058 178.2 193.478 178.174C191.206 178.124 189.035 178.048 186.94 177.998C182.775 177.871 179.039 177.77 175.883 177.669C174.318 177.619 172.905 177.568 171.642 177.543C171.011 177.543 170.431 177.493 169.901 177.493C169.371 177.467 168.866 177.493 168.437 177.291C168.033 177.064 167.78 176.71 167.679 176.382C167.578 176.054 167.578 175.726 167.679 175.499C167.755 175.271 167.831 175.12 167.906 175.019C167.982 174.918 168.033 174.893 168.033 174.893L168.007 174.943Z" fill="#263239"/>
<path d="M171.92 170.349C170.128 168.759 170.38 167.572 170.632 166.537C170.784 165.931 170.885 165.376 170.632 164.745C169.9 163.028 167.654 162.776 167.628 162.776L167.704 162.044C167.704 162.044 170.405 162.347 171.314 164.467C171.693 165.326 171.516 166.058 171.364 166.714C171.137 167.673 170.961 168.506 172.425 169.819L171.945 170.374L171.92 170.349Z" fill="#E0E0E0"/>
<path d="M171.92 170.374C170.103 168.759 170.38 167.572 170.633 166.537C170.784 165.931 170.885 165.401 170.633 164.77C169.901 163.079 167.654 162.801 167.629 162.801L167.704 162.044C167.704 162.044 170.431 162.347 171.34 164.467C171.718 165.326 171.541 166.083 171.39 166.714C171.163 167.673 170.986 168.506 172.45 169.794V169.819L171.945 170.399L171.92 170.374ZM167.629 162.751C167.856 162.776 169.926 163.104 170.633 164.745C170.91 165.376 170.784 165.931 170.633 166.537C170.406 167.572 170.128 168.733 171.895 170.324L172.374 169.794C170.91 168.481 171.112 167.648 171.314 166.689C171.466 166.032 171.617 165.3 171.264 164.442C170.38 162.397 167.932 162.069 167.679 162.044L167.604 162.751H167.629Z" fill="#263239"/>
<path d="M157.405 142.177C157.405 142.177 166.972 147.403 168.007 150.18C169.042 152.956 170.178 166.058 169.446 167.597C168.714 169.137 166.24 169.465 165.634 168.102C165.028 166.739 163.842 157.475 163.842 157.475C163.842 157.475 163.665 163.357 161.52 164.164C159.374 164.972 157.077 161.69 157.077 161.69C157.077 161.69 152.533 163.811 151.624 159.621C151.624 159.621 147.08 159.621 147.282 156.743C147.484 153.865 147.686 153.436 147.686 153.436L147.257 150.962C147.257 150.962 139.028 149.725 139.028 149.422C139.028 149.119 137.791 141.37 142.234 137.255C146.677 133.14 150.488 134.377 150.488 134.377L153.694 139.88L157.43 142.152L157.405 142.177Z" fill="#455A64"/>
<path d="M157.405 142.177C157.405 142.177 157.304 142.127 157.152 142.051C156.976 141.95 156.723 141.799 156.42 141.622C155.764 141.243 154.83 140.688 153.643 139.956C152.785 138.492 151.7 136.649 150.412 134.478L150.463 134.529C148.746 134.1 146.626 134.529 144.733 135.614C142.865 136.725 140.971 138.416 140.088 140.814C139.154 143.187 138.901 145.964 139.154 148.816L139.204 149.347C139.078 149.347 139.356 149.422 139.507 149.473C139.861 149.574 140.214 149.649 140.567 149.7C141.3 149.851 142.032 149.978 142.764 150.104C144.253 150.356 145.768 150.609 147.333 150.836H147.459V150.987C147.585 151.77 147.737 152.603 147.888 153.461V153.562C147.812 153.84 147.737 154.244 147.711 154.597C147.661 154.951 147.636 155.329 147.585 155.708C147.56 156.087 147.509 156.465 147.509 156.819C147.509 157.172 147.535 157.525 147.711 157.828C148.014 158.459 148.696 158.863 149.403 159.09C150.109 159.318 150.892 159.444 151.649 159.469H151.801L151.826 159.621C152.028 160.605 152.609 161.59 153.618 161.892C154.603 162.221 155.739 162.044 156.748 161.665C156.849 161.64 156.95 161.59 157.026 161.539L157.178 161.489L157.279 161.615C157.91 162.473 158.667 163.281 159.601 163.786C160.055 164.038 160.56 164.19 161.04 164.114C161.545 164.063 161.949 163.786 162.251 163.382C162.857 162.574 163.135 161.514 163.337 160.529C163.539 159.52 163.665 158.485 163.69 157.475H164.044C164.473 160.757 164.902 163.937 165.508 166.941C165.584 167.32 165.685 167.698 165.811 168.001C165.937 168.304 166.215 168.531 166.543 168.632C167.199 168.86 167.956 168.708 168.537 168.355C168.815 168.178 169.067 167.926 169.244 167.623C169.421 167.345 169.446 166.992 169.471 166.638C169.547 165.931 169.521 165.225 169.521 164.543C169.471 161.766 169.244 159.116 168.991 156.667C168.865 155.455 168.714 154.269 168.537 153.158C168.335 152.048 168.209 150.937 167.83 150.028C167.376 149.145 166.619 148.463 165.937 147.857C165.23 147.251 164.549 146.721 163.892 146.267C162.58 145.308 161.393 144.576 160.434 143.97C159.475 143.389 158.717 142.935 158.213 142.607C157.96 142.455 157.783 142.354 157.632 142.253C157.506 142.177 157.43 142.127 157.43 142.127C157.43 142.127 157.506 142.152 157.632 142.228C157.783 142.304 157.985 142.405 158.238 142.556C158.768 142.834 159.525 143.263 160.51 143.869C161.494 144.449 162.681 145.181 164.018 146.141C164.7 146.62 165.382 147.125 166.114 147.731C166.82 148.337 167.578 148.993 168.083 149.952C168.512 150.937 168.638 152.022 168.84 153.133C169.017 154.269 169.168 155.43 169.32 156.667C169.597 159.116 169.824 161.741 169.875 164.568C169.875 165.275 169.875 165.982 169.824 166.714C169.799 167.067 169.749 167.471 169.547 167.825C169.345 168.178 169.067 168.456 168.739 168.658C168.083 169.062 167.224 169.238 166.442 168.986C166.063 168.86 165.685 168.557 165.508 168.178C165.356 167.799 165.255 167.421 165.18 167.042C164.549 164.013 164.119 160.807 163.69 157.525H164.044C163.993 158.535 163.892 159.57 163.69 160.63C163.463 161.665 163.211 162.725 162.529 163.634C162.201 164.089 161.646 164.442 161.065 164.493C160.484 164.568 159.904 164.366 159.399 164.114C158.389 163.559 157.632 162.725 156.95 161.817L157.178 161.892C157.178 161.892 156.976 161.968 156.875 162.019C155.814 162.423 154.603 162.625 153.492 162.246C152.937 162.044 152.432 161.691 152.129 161.211C151.927 160.984 151.851 160.706 151.725 160.479C151.624 160.226 151.574 159.949 151.473 159.696L151.649 159.848C150.841 159.848 150.034 159.696 149.276 159.444C148.544 159.191 147.762 158.762 147.383 157.98C147.181 157.601 147.131 157.172 147.156 156.768C147.156 156.389 147.206 156.011 147.257 155.632C147.282 155.253 147.333 154.875 147.383 154.521C147.434 154.143 147.459 153.815 147.61 153.385V153.486C147.459 152.628 147.307 151.795 147.181 151.013L147.333 151.164C145.768 150.937 144.253 150.684 142.764 150.432C142.032 150.306 141.274 150.18 140.567 150.028C140.214 149.952 139.835 149.877 139.482 149.776C139.381 149.75 139.305 149.725 139.204 149.7C139.154 149.7 139.103 149.649 139.028 149.624C138.977 149.599 138.952 149.523 138.952 149.473V149.422V149.372L138.901 148.842C138.649 145.964 138.901 143.137 139.886 140.688C140.366 139.476 141.072 138.391 141.931 137.507C142.789 136.649 143.723 135.917 144.682 135.362C146.626 134.251 148.797 133.822 150.614 134.302H150.64V134.352C151.902 136.548 152.962 138.416 153.82 139.88C155.007 140.587 155.941 141.168 156.572 141.572C156.875 141.774 157.102 141.9 157.279 142.026C157.43 142.127 157.506 142.177 157.506 142.177H157.405Z" fill="#263239"/>
<path d="M173.838 169.642C173.838 169.642 174.317 169.895 175.024 170.4C175.403 170.702 175.807 171.005 176.236 171.308C176.463 171.485 176.716 171.662 176.943 171.864C177.044 171.965 177.195 172.015 177.347 172.242C177.448 172.469 177.397 172.747 177.246 172.899C177.17 172.974 177.044 173.05 176.943 173.075C176.817 173.075 176.716 173.075 176.64 173.075C176.463 173.05 176.312 173 176.16 172.974C175.857 172.873 175.554 172.772 175.302 172.646C174.772 172.394 174.343 172.091 173.964 171.838C173.257 171.334 172.853 170.955 172.879 170.93C172.904 170.879 173.358 171.157 174.115 171.611C174.494 171.838 174.923 172.091 175.428 172.318C175.681 172.419 175.958 172.545 176.261 172.621C176.413 172.646 176.564 172.697 176.716 172.722C176.892 172.747 176.917 172.722 176.993 172.671C177.069 172.596 177.069 172.495 177.044 172.419C177.044 172.368 176.867 172.268 176.766 172.167C176.539 171.965 176.286 171.788 176.059 171.611C175.655 171.258 175.251 170.955 174.898 170.627C174.242 170.071 173.838 169.693 173.888 169.642H173.838Z" fill="#263239"/>
<path d="M152.255 155.481C152.255 155.481 152.053 156.44 151.901 157.601C151.724 158.762 151.75 159.747 151.649 159.747C151.548 159.747 151.346 158.762 151.523 157.551C151.699 156.339 152.154 155.43 152.255 155.481Z" fill="#263239"/>
<path d="M157.556 158.03C157.556 158.03 157.707 158.838 157.682 159.848C157.657 160.832 157.556 161.64 157.455 161.64C157.354 161.64 157.303 160.832 157.329 159.822C157.354 158.838 157.455 158.03 157.556 158.03Z" fill="#263239"/>
<path d="M152.533 140.234C152.533 140.234 150.943 141.496 149.579 143.541C148.216 145.585 147.762 147.554 147.661 147.529C147.61 147.529 147.661 147.024 147.888 146.216C148.115 145.434 148.57 144.374 149.251 143.339C149.958 142.304 150.766 141.471 151.397 140.966C152.028 140.461 152.482 140.209 152.508 140.234H152.533Z" fill="#263239"/>
<path d="M151.195 140.183C151.195 140.183 150.311 140.814 149.327 141.698C148.342 142.556 147.686 143.44 147.585 143.364C147.509 143.313 148.039 142.329 149.074 141.42C150.109 140.511 151.169 140.107 151.195 140.183Z" fill="#263239"/>
<path d="M209.078 181.582C205.418 179.386 200.091 181.683 196.759 179.007C196.002 178.402 195.421 177.543 194.639 176.937C193.276 175.852 191.383 175.574 189.666 175.877C187.949 176.18 186.359 177.038 184.92 178.023C184.34 176.205 182.144 175.322 180.225 175.524C178.307 175.726 176.615 176.71 174.873 177.518C169.017 180.27 156.597 180.143 149.857 180.143V181.582L209.558 181.885L209.078 181.582Z" fill="#E0E0E0"/>
<path d="M149.857 180.143C149.857 180.143 150.085 180.118 150.489 180.118C150.943 180.118 151.549 180.118 152.331 180.093C153.922 180.068 156.244 180.042 159.071 179.941C161.924 179.815 165.306 179.639 169.017 179.007C170.86 178.679 172.804 178.25 174.646 177.442C176.489 176.609 178.382 175.423 180.654 175.347C181.588 175.347 182.522 175.549 183.33 175.978C184.138 176.407 184.794 177.114 185.072 177.998L184.794 177.897C186.334 176.837 188.025 175.978 189.767 175.701C191.509 175.423 193.326 175.776 194.639 176.786C195.295 177.291 195.775 177.897 196.28 178.427C196.532 178.679 196.81 178.932 197.088 179.108C197.365 179.336 197.668 179.487 197.971 179.639C199.208 180.194 200.521 180.295 201.682 180.371C204.004 180.446 205.923 180.446 207.185 180.825C207.513 180.901 207.765 181.002 208.018 181.103C208.245 181.178 208.447 181.279 208.598 181.355C208.901 181.532 209.053 181.607 209.053 181.633C209.053 181.683 208.447 181.254 207.185 180.951C205.923 180.623 204.055 180.648 201.707 180.598C200.546 180.547 199.208 180.472 197.895 179.891C197.567 179.739 197.239 179.588 196.961 179.361C196.633 179.159 196.355 178.906 196.103 178.654C195.573 178.124 195.093 177.518 194.487 177.064C193.276 176.13 191.534 175.802 189.868 176.079C188.177 176.357 186.561 177.19 185.047 178.225L184.845 178.376L184.769 178.149C184.516 177.392 183.936 176.761 183.179 176.357C182.446 175.953 181.563 175.751 180.705 175.776C178.559 175.852 176.691 177.013 174.823 177.846C172.905 178.679 170.961 179.108 169.093 179.437C165.357 180.042 161.949 180.194 159.096 180.295C156.244 180.371 153.947 180.345 152.331 180.345C151.549 180.345 150.943 180.32 150.489 180.32C150.059 180.32 149.857 180.32 149.857 180.27V180.143Z" fill="#263239"/>
<path d="M158.263 167.673H120.423V180.497H158.263V167.673Z" fill="#EE7160"/>
<path d="M158.263 180.497C158.263 180.497 158.263 180.421 158.263 180.27C158.263 180.093 158.263 179.891 158.263 179.613C158.263 179.007 158.263 178.174 158.238 177.064C158.238 174.842 158.187 171.662 158.162 167.673L158.288 167.799C149.125 167.799 135.569 167.85 120.474 167.875C120.297 168.052 120.701 167.648 120.651 167.698V168.531V169.365C120.651 169.92 120.651 170.475 120.651 171.005C120.651 172.091 120.651 173.176 120.651 174.262C120.651 176.407 120.651 178.503 120.651 180.522L120.474 180.345C131.329 180.371 140.769 180.396 147.509 180.421C150.867 180.421 153.543 180.472 155.411 180.472C156.319 180.472 157.026 180.472 157.531 180.472C157.758 180.472 157.935 180.472 158.086 180.472C158.213 180.472 158.288 180.472 158.288 180.472C158.288 180.472 158.238 180.472 158.112 180.472C157.985 180.472 157.809 180.472 157.581 180.472C157.077 180.472 156.395 180.472 155.486 180.472C153.618 180.472 150.943 180.497 147.61 180.522C140.845 180.522 131.379 180.572 120.449 180.598H120.272V180.421C120.272 178.402 120.272 176.306 120.272 174.161C120.272 173.1 120.272 172.015 120.272 170.904C120.272 170.349 120.272 169.794 120.272 169.264V168.43V168.001V167.648V167.597C120.272 167.597 120.625 167.244 120.474 167.396C135.595 167.421 149.15 167.446 158.288 167.471H158.415V167.597C158.389 171.611 158.364 174.817 158.339 177.064C158.339 178.149 158.339 178.982 158.314 179.563C158.314 179.84 158.314 180.042 158.314 180.194C158.314 180.345 158.314 180.396 158.314 180.396L158.263 180.497Z" fill="#263239"/>
<path d="M172.652 181.683H134.812V194.507H172.652V181.683Z" fill="#EE7160"/>
<path d="M172.652 194.481C172.652 194.481 172.652 194.406 172.652 194.254C172.652 194.078 172.652 193.876 172.652 193.598C172.652 192.992 172.652 192.159 172.627 191.048C172.627 188.827 172.576 185.646 172.551 181.658L172.677 181.784C163.514 181.784 149.959 181.835 134.838 181.86C134.661 182.037 135.065 181.633 135.015 181.683V183.349C135.015 183.905 135.015 184.46 135.015 184.99C135.015 186.075 135.015 187.161 135.015 188.246C135.015 190.392 135.015 192.487 135.015 194.507L134.838 194.33C145.692 194.355 155.133 194.38 161.873 194.406C165.231 194.406 167.906 194.456 169.8 194.456C170.708 194.456 171.415 194.456 171.92 194.456C172.147 194.456 172.324 194.456 172.476 194.456C172.602 194.456 172.677 194.456 172.677 194.456C172.677 194.456 172.627 194.456 172.501 194.456C172.375 194.456 172.198 194.456 171.971 194.456C171.466 194.456 170.784 194.456 169.875 194.456C168.007 194.456 165.332 194.481 162 194.507C155.234 194.507 145.768 194.557 134.838 194.582H134.661V194.406C134.661 192.386 134.661 190.291 134.661 188.145C134.661 187.085 134.661 186 134.661 184.889C134.661 184.334 134.661 183.778 134.661 183.248V182.415V181.986V181.683V181.633V181.582C134.661 181.582 135.015 181.229 134.863 181.38C149.984 181.405 163.539 181.431 172.703 181.456H172.829V181.582C172.804 185.596 172.778 188.802 172.753 191.048C172.753 192.134 172.753 192.967 172.728 193.547C172.728 193.825 172.728 194.027 172.728 194.179C172.728 194.33 172.728 194.38 172.728 194.38L172.652 194.481Z" fill="#263239"/>
<path d="M211.931 181.708H174.092V194.532H211.931V181.708Z" fill="#EE7160"/>
<path d="M211.931 194.532C211.931 194.532 211.931 194.456 211.931 194.305C211.931 194.128 211.931 193.926 211.931 193.648C211.931 193.043 211.931 192.21 211.906 191.099C211.906 188.878 211.855 185.697 211.83 181.708L211.956 181.835C202.793 181.835 189.237 181.885 174.142 181.91C173.965 182.087 174.369 181.683 174.319 181.734V183.4C174.319 183.955 174.319 184.51 174.319 185.041C174.319 186.126 174.319 187.211 174.319 188.297C174.319 190.443 174.319 192.538 174.319 194.557L174.142 194.381C184.996 194.406 194.437 194.431 201.177 194.456C204.535 194.456 207.211 194.507 209.079 194.507C209.987 194.507 210.694 194.507 211.199 194.507C211.426 194.507 211.603 194.507 211.754 194.507C211.881 194.507 211.956 194.507 211.956 194.507C211.956 194.507 211.906 194.507 211.78 194.507C211.653 194.507 211.477 194.507 211.249 194.507C210.745 194.507 210.063 194.507 209.154 194.507C207.286 194.507 204.61 194.532 201.278 194.557C194.513 194.557 185.047 194.608 174.117 194.633H173.94V194.456C173.94 192.437 173.94 190.342 173.94 188.196C173.94 187.136 173.94 186.05 173.94 184.94C173.94 184.384 173.94 183.829 173.94 183.299V182.466V182.037V181.683V181.633C173.94 181.633 174.293 181.279 174.142 181.431C189.263 181.456 202.818 181.481 211.956 181.506H212.082V181.633C212.057 185.646 212.032 188.852 212.007 191.099C212.007 192.184 212.007 193.017 211.982 193.598C211.982 193.876 211.982 194.078 211.982 194.229C211.982 194.381 211.982 194.431 211.982 194.431L211.931 194.532Z" fill="#263239"/>
<path d="M251.208 181.708H213.369V194.532H251.208V181.708Z" fill="#EE7160"/>
<path d="M251.183 194.532C251.183 194.532 251.183 194.456 251.183 194.305C251.183 194.128 251.183 193.926 251.183 193.648C251.183 193.043 251.183 192.21 251.158 191.099C251.158 188.878 251.108 185.697 251.083 181.708L251.209 181.835C242.045 181.835 228.49 181.885 213.394 181.91C213.218 182.087 213.622 181.683 213.571 181.734V183.4C213.571 183.955 213.571 184.51 213.571 185.041C213.571 186.126 213.571 187.211 213.571 188.297C213.571 190.443 213.571 192.538 213.571 194.557L213.394 194.381C224.249 194.406 233.69 194.431 240.43 194.456C243.787 194.456 246.463 194.507 248.331 194.507C249.24 194.507 249.947 194.507 250.451 194.507C250.679 194.507 250.855 194.507 251.007 194.507C251.133 194.507 251.209 194.507 251.209 194.507C251.209 194.507 251.158 194.507 251.032 194.507C250.906 194.507 250.729 194.507 250.502 194.507C249.997 194.507 249.315 194.507 248.407 194.507C246.539 194.507 243.863 194.532 240.531 194.557C233.766 194.557 224.299 194.608 213.369 194.633H213.192V194.456C213.192 192.437 213.192 190.342 213.192 188.196C213.192 187.136 213.192 186.05 213.192 184.94C213.192 184.384 213.192 183.829 213.192 183.299V182.466V182.037V181.683V181.633C213.192 181.633 213.546 181.279 213.394 181.431C228.515 181.456 242.071 181.481 251.209 181.506H251.335V181.633C251.31 185.646 251.284 188.852 251.259 191.099C251.259 192.184 251.259 193.017 251.234 193.598C251.234 193.876 251.234 194.078 251.234 194.229C251.234 194.381 251.234 194.431 251.234 194.431L251.183 194.532Z" fill="#263239"/>
<path d="M133.298 181.683H95.458V194.507H133.298V181.683Z" fill="#EE7160"/>
<path d="M133.298 194.481C133.298 194.481 133.298 194.406 133.298 194.254C133.298 194.078 133.298 193.876 133.298 193.598C133.298 192.992 133.298 192.159 133.272 191.048C133.272 188.827 133.222 185.646 133.197 181.658L133.323 181.784C124.16 181.784 110.604 181.835 95.5086 181.86C95.3319 182.037 95.7358 181.633 95.6853 181.683V182.516V183.349C95.6853 183.905 95.6853 184.46 95.6853 184.99C95.6853 186.075 95.6853 187.161 95.6853 188.246C95.6853 190.392 95.6853 192.487 95.6853 194.507L95.5086 194.33C106.363 194.355 115.804 194.38 122.544 194.406C125.901 194.406 128.577 194.456 130.445 194.456C131.354 194.456 132.061 194.456 132.566 194.456C132.793 194.456 132.97 194.456 133.121 194.456C133.247 194.456 133.323 194.456 133.323 194.456C133.323 194.456 133.272 194.456 133.146 194.456C133.02 194.456 132.843 194.456 132.616 194.456C132.111 194.456 131.43 194.456 130.521 194.456C128.653 194.456 125.977 194.481 122.645 194.507C115.88 194.507 106.414 194.557 95.4833 194.582H95.3066V194.406C95.3066 192.386 95.3066 190.291 95.3066 188.145C95.3066 187.085 95.3066 186 95.3066 184.889C95.3066 184.334 95.3066 183.778 95.3066 183.248V182.415V181.986V181.633V181.582C95.3066 181.582 95.66 181.229 95.5086 181.38C110.629 181.405 124.185 181.431 133.323 181.456H133.449V181.582C133.424 185.596 133.399 188.802 133.373 191.048C133.373 192.134 133.373 192.967 133.348 193.547C133.348 193.825 133.348 194.027 133.348 194.179C133.348 194.33 133.348 194.38 133.348 194.38L133.298 194.481Z" fill="#263239"/>
<path d="M150.665 195.946H112.826V208.769H150.665V195.946Z" fill="#EE7160"/>
<path d="M150.665 208.769C150.665 208.769 150.665 208.693 150.665 208.542C150.665 208.365 150.665 208.163 150.665 207.886C150.665 207.28 150.665 206.447 150.64 205.336C150.64 203.115 150.59 199.934 150.564 195.946L150.691 196.072C141.527 196.072 127.972 196.122 112.876 196.148C112.7 196.324 113.103 195.92 113.053 195.971V196.804V197.637C113.053 198.192 113.053 198.748 113.053 199.278C113.053 200.363 113.053 201.449 113.053 202.534C113.053 204.68 113.053 206.775 113.053 208.794L112.876 208.618C123.731 208.643 133.172 208.668 139.912 208.694C143.269 208.694 145.945 208.744 147.813 208.744C148.722 208.744 149.428 208.744 149.933 208.744C150.161 208.744 150.337 208.744 150.489 208.744C150.615 208.744 150.691 208.744 150.691 208.744C150.691 208.744 150.64 208.744 150.514 208.744C150.388 208.744 150.211 208.744 149.984 208.744C149.479 208.744 148.797 208.744 147.889 208.744C146.021 208.744 143.345 208.769 140.013 208.794C133.248 208.794 123.781 208.845 112.851 208.87H112.674V208.694C112.674 206.674 112.674 204.579 112.674 202.433C112.674 201.373 112.674 200.287 112.674 199.177C112.674 198.621 112.674 198.066 112.674 197.536V196.703V196.274V195.92V195.87C112.674 195.87 113.028 195.517 112.876 195.668C127.997 195.693 141.553 195.718 150.691 195.744H150.817V195.87C150.792 199.884 150.766 203.09 150.741 205.336C150.741 206.422 150.741 207.255 150.716 207.835C150.716 208.113 150.716 208.315 150.716 208.466C150.716 208.618 150.716 208.668 150.716 208.668L150.665 208.769Z" fill="#263239"/>
<path d="M190.751 195.946H152.912V208.769H190.751V195.946Z" fill="#EE7160"/>
<path d="M190.751 208.769C190.751 208.769 190.751 208.693 190.751 208.542C190.751 208.365 190.751 208.163 190.751 207.886C190.751 207.28 190.751 206.447 190.726 205.336C190.726 203.115 190.676 199.934 190.65 195.946L190.777 196.072C181.613 196.072 168.058 196.122 152.962 196.148C152.785 196.324 153.189 195.92 153.139 195.971V196.804V197.637C153.139 198.192 153.139 198.748 153.139 199.278C153.139 200.363 153.139 201.449 153.139 202.534C153.139 204.68 153.139 206.775 153.139 208.794L152.962 208.618C163.817 208.643 173.258 208.668 179.998 208.694C183.355 208.694 186.031 208.744 187.899 208.744C188.808 208.744 189.514 208.744 190.019 208.744C190.246 208.744 190.423 208.744 190.575 208.744C190.701 208.744 190.777 208.744 190.777 208.744C190.777 208.744 190.726 208.744 190.6 208.744C190.474 208.744 190.297 208.744 190.07 208.744C189.565 208.744 188.883 208.744 187.975 208.744C186.107 208.744 183.431 208.769 180.099 208.794C173.334 208.794 163.867 208.845 152.937 208.87H152.76V208.694C152.76 206.674 152.76 204.579 152.76 202.433C152.76 201.373 152.76 200.287 152.76 199.177C152.76 198.621 152.76 198.066 152.76 197.536V196.703V196.274V195.92V195.87C152.76 195.87 153.114 195.517 152.962 195.668C168.083 195.693 181.639 195.718 190.777 195.744H190.903V195.87C190.878 199.884 190.852 203.09 190.827 205.336C190.827 206.422 190.827 207.255 190.802 207.835C190.802 208.113 190.802 208.315 190.802 208.466C190.802 208.618 190.802 208.668 190.802 208.668L190.751 208.769Z" fill="#263239"/>
<path d="M230.156 195.946H192.316V208.769H230.156V195.946Z" fill="#EE7160"/>
<path d="M230.131 208.769C230.131 208.769 230.131 208.693 230.131 208.542C230.131 208.365 230.131 208.163 230.131 207.886C230.131 207.28 230.131 206.447 230.105 205.336C230.105 203.115 230.055 199.934 230.03 195.946L230.156 196.072C220.993 196.072 207.437 196.122 192.316 196.148C192.14 196.324 192.543 195.92 192.493 195.971V197.637C192.493 198.192 192.493 198.748 192.493 199.278C192.493 200.363 192.493 201.449 192.493 202.534C192.493 204.68 192.493 206.775 192.493 208.794L192.316 208.618C203.171 208.643 212.612 208.668 219.352 208.694C222.709 208.694 225.385 208.744 227.253 208.744C228.162 208.744 228.868 208.744 229.373 208.744C229.6 208.744 229.777 208.744 229.929 208.744C230.055 208.744 230.131 208.744 230.131 208.744C230.131 208.744 230.08 208.744 229.954 208.744C229.828 208.744 229.651 208.744 229.424 208.744C228.919 208.744 228.237 208.744 227.329 208.744C225.461 208.744 222.785 208.769 219.453 208.794C212.688 208.794 203.221 208.845 192.291 208.87H192.114V208.694C192.114 206.674 192.114 204.579 192.114 202.433C192.114 201.373 192.114 200.287 192.114 199.177C192.114 198.621 192.114 198.066 192.114 197.536V196.703V196.274V195.92V195.87C192.114 195.87 192.468 195.517 192.316 195.668C207.437 195.693 220.993 195.718 230.156 195.744H230.282V195.87C230.257 199.884 230.232 203.09 230.206 205.336C230.206 206.422 230.206 207.255 230.181 207.835C230.181 208.113 230.181 208.315 230.181 208.466C230.181 208.618 230.181 208.668 230.181 208.668L230.131 208.769Z" fill="#263239"/>
<path d="M270.267 195.946H232.428V208.769H270.267V195.946Z" fill="#EE7160"/>
<path d="M270.267 208.769C270.267 208.769 270.267 208.693 270.267 208.542C270.267 208.365 270.267 208.163 270.267 207.886C270.267 207.28 270.267 206.447 270.242 205.336C270.242 203.115 270.192 199.934 270.166 195.946L270.293 196.072C261.129 196.072 247.574 196.122 232.478 196.148C232.302 196.324 232.706 195.92 232.655 195.971V197.637C232.655 198.192 232.655 198.748 232.655 199.278C232.655 200.363 232.655 201.449 232.655 202.534C232.655 204.68 232.655 206.775 232.655 208.794L232.478 208.618C243.333 208.643 252.774 208.668 259.514 208.694C262.871 208.694 265.547 208.744 267.415 208.744C268.324 208.744 269.031 208.744 269.535 208.744C269.763 208.744 269.939 208.744 270.091 208.744C270.217 208.744 270.293 208.744 270.293 208.744C270.293 208.744 270.242 208.744 270.116 208.744C269.99 208.744 269.813 208.744 269.586 208.744C269.081 208.744 268.399 208.744 267.491 208.744C265.623 208.744 262.947 208.769 259.615 208.794C252.85 208.794 243.383 208.845 232.453 208.87H232.276V208.694C232.276 206.674 232.276 204.579 232.276 202.433C232.276 201.373 232.276 200.287 232.276 199.177C232.276 198.621 232.276 198.066 232.276 197.536V196.703V196.274V195.92V195.87C232.276 195.87 232.63 195.517 232.478 195.668C247.599 195.693 261.155 195.718 270.293 195.744H270.419V195.87C270.394 199.884 270.368 203.09 270.343 205.336C270.343 206.422 270.343 207.255 270.318 207.835C270.318 208.113 270.318 208.315 270.318 208.466C270.318 208.618 270.318 208.668 270.318 208.668L270.267 208.769Z" fill="#263239"/>
<path d="M111.336 195.895H73.4968V208.719H111.336V195.895Z" fill="#EE7160"/>
<path d="M111.311 208.719C111.311 208.719 111.311 208.643 111.311 208.491C111.311 208.315 111.311 208.113 111.311 207.835C111.311 207.229 111.311 206.396 111.286 205.286C111.286 203.064 111.235 199.884 111.21 195.895L111.336 196.021C102.173 196.021 88.6173 196.072 73.5219 196.097C73.3452 196.274 73.7491 195.87 73.6986 195.92H73.6733V197.586C73.6733 198.142 73.6733 198.697 73.6733 199.227C73.6733 200.313 73.6733 201.398 73.6733 202.484C73.6733 204.629 73.6733 206.724 73.6733 208.744L73.4966 208.567C84.3512 208.592 93.7922 208.618 100.532 208.643C103.889 208.643 106.565 208.693 108.459 208.693C109.367 208.693 110.074 208.693 110.579 208.693C110.806 208.693 110.983 208.693 111.134 208.693C111.261 208.693 111.336 208.693 111.336 208.693C111.336 208.693 111.286 208.693 111.16 208.693C111.033 208.693 110.857 208.693 110.629 208.693C110.125 208.693 109.443 208.693 108.534 208.693C106.666 208.693 103.99 208.719 100.658 208.744C93.8932 208.744 84.4269 208.794 73.4966 208.82H73.2947V208.643C73.2947 206.623 73.2947 204.528 73.2947 202.383C73.2947 201.322 73.2947 200.237 73.2947 199.126C73.2947 198.571 73.2947 198.016 73.2947 197.485V196.652V196.223V196.021V195.92V195.87V195.819C73.2947 195.819 73.6481 195.466 73.4966 195.617C88.6173 195.643 102.173 195.668 111.311 195.693H111.437V195.819C111.412 199.833 111.387 203.039 111.361 205.286C111.361 206.371 111.361 207.204 111.336 207.785C111.336 208.062 111.336 208.264 111.336 208.416C111.336 208.567 111.336 208.618 111.336 208.618L111.311 208.719Z" fill="#263239"/>
<path d="M198.147 98.8853C198.147 98.8853 204.61 100.854 207.26 103.707C209.911 106.559 222.785 129.505 222.785 129.505C222.785 129.505 225.259 132.232 226.546 133.771C227.43 134.857 228.086 137.028 228.465 138.542C228.742 139.628 228.313 140.789 227.43 141.445C224.072 143.97 215.843 148.413 212.385 150.71C211.476 151.316 210.239 151.063 209.658 150.129C208.421 148.16 206.553 144.979 206.553 143.793C206.553 142.001 205.594 140.032 205.594 140.032L198.223 126.628L198.147 98.86V98.8853Z" fill="#E0E0E0"/>
<path d="M227.859 149.498C226.445 143.541 225.183 139.956 225.183 139.956C218.847 139.956 213.824 142.96 211.653 148.917C211.653 148.917 213.369 152.098 214.859 155.506C215.767 157.576 218.418 164.871 218.418 164.871L230.611 166.007C230.611 166.007 229.525 156.591 227.859 149.523V149.498Z" fill="#F9BE9D"/>
<path d="M232.276 171.106L232.731 160.151C226.142 158.156 220.462 158.636 214.858 160.605C214.858 160.605 218.216 167.926 217.408 172.091L215.212 175.549C214.429 176.003 213.647 176.811 213.344 177.139C209.658 177.77 206.402 181.683 206.402 181.683L212.233 181.734L210.668 185.192L208.926 189.534C208.724 190.013 208.926 190.569 209.355 190.821C210.037 191.225 211.097 191.528 212.157 190.493L216.095 183.172C216.095 183.172 212.056 193.219 215.313 193.497C217.206 193.674 217.686 191.856 220.891 184.233C220.891 184.233 218.998 194.103 222.053 194.128C224.754 194.128 224.4 189.862 225.259 187.237C225.41 188.827 225.259 191.957 227.303 192.159C229.424 192.361 229.146 186.959 229.777 185.394C230.408 183.829 233.488 179.689 233.488 179.689C233.639 179.462 234.472 177.518 233.69 175.145L232.301 171.131L232.276 171.106Z" fill="#455A64"/>
<path d="M227.859 179.866C227.859 179.866 227.53 180.295 227.076 180.951C226.596 181.633 226.066 182.642 225.738 183.854C225.41 185.066 225.385 186.227 225.461 187.035C225.536 187.868 225.662 188.373 225.612 188.373C225.562 188.373 225.36 187.893 225.208 187.06C225.057 186.227 225.057 185.015 225.385 183.753C225.713 182.491 226.319 181.456 226.874 180.8C227.404 180.143 227.859 179.84 227.884 179.866H227.859Z" fill="#263239"/>
<path d="M223.391 178.831C223.391 178.831 222.937 179.84 222.129 181.304C221.573 182.188 221.245 183.501 220.993 184.914C220.69 186.707 220.564 188.373 220.488 189.559C220.412 190.745 220.387 191.503 220.336 191.503C220.286 191.503 220.21 190.771 220.235 189.559C220.235 188.347 220.336 186.681 220.639 184.864C220.892 183.425 221.245 182.112 221.902 181.153C222.785 179.714 223.366 178.805 223.441 178.831H223.391Z" fill="#263239"/>
<path d="M218.998 178.351C218.998 178.351 218.418 178.78 217.787 179.714C217.105 180.623 216.676 182.137 216.121 183.803C215.591 185.394 215.111 186.858 214.732 188.07C214.354 189.155 214.126 189.837 214.076 189.811C214.025 189.811 214.177 189.104 214.48 187.994C214.783 186.883 215.237 185.368 215.767 183.702C216.045 182.869 216.297 182.087 216.575 181.355C216.827 180.623 217.206 180.017 217.56 179.563C218.292 178.629 218.973 178.3 218.998 178.351Z" fill="#263239"/>
<path d="M217.661 171.737C217.661 171.737 217.408 172.343 216.929 173.302C216.373 174.363 215.742 175.625 215.036 176.988C213.546 179.866 212.183 182.137 212.082 182.062C212.032 182.036 212.335 181.456 212.814 180.497C213.37 179.436 214.001 178.174 214.707 176.811C216.197 173.933 217.56 171.662 217.661 171.737Z" fill="#263239"/>
<path d="M230.105 170.803C230.105 170.803 227.606 170.45 224.501 170.526C221.396 170.601 218.948 171.207 218.922 171.081C218.922 171.031 219.503 170.829 220.513 170.601C221.522 170.374 222.936 170.172 224.501 170.147C226.066 170.097 227.48 170.248 228.49 170.399C229.499 170.551 230.105 170.753 230.105 170.778V170.803Z" fill="#263239"/>
<path d="M223.517 130.742C223.517 130.742 222.306 130.995 220.438 131.55C219.504 131.828 218.418 132.257 217.232 132.787C216.071 133.342 214.808 134.049 213.572 134.882C212.335 135.74 211.249 136.674 210.315 137.558C209.406 138.467 208.624 139.35 208.018 140.133C206.806 141.673 206.226 142.758 206.175 142.733C206.175 142.733 206.276 142.455 206.554 141.95C206.68 141.698 206.857 141.42 207.059 141.092C207.286 140.764 207.513 140.385 207.816 139.981C208.397 139.174 209.154 138.265 210.088 137.331C211.022 136.397 212.133 135.463 213.37 134.604C214.632 133.746 215.894 133.065 217.08 132.509C218.292 131.979 219.403 131.575 220.362 131.323C220.842 131.171 221.271 131.096 221.675 131.02C222.053 130.919 222.381 130.868 222.659 130.843C223.214 130.767 223.517 130.742 223.517 130.767V130.742Z" fill="#263239"/>
<path d="M231.772 161.236C231.746 161.388 228.313 160.151 223.921 160.302C221.75 160.378 219.781 160.756 218.367 161.034C216.954 161.312 216.096 161.514 216.07 161.463C216.07 161.463 216.272 161.362 216.651 161.236C217.03 161.11 217.61 160.958 218.292 160.782C219.68 160.428 221.674 160.024 223.87 159.949C226.092 159.873 228.086 160.176 229.5 160.529C230.207 160.706 230.762 160.857 231.141 161.009C231.519 161.135 231.721 161.236 231.721 161.261L231.772 161.236Z" fill="#263239"/>
<g opacity="0.3">
<path d="M202.413 110.043C201.252 117.06 201.125 122.008 199.535 128.723C201.782 126.274 202.64 123.598 202.867 120.216C203.12 116.682 203.019 113.526 202.413 110.043Z" fill="black"/>
</g>
<path d="M201.807 113.4C201.807 113.4 201.782 114.359 201.58 115.874C201.378 117.389 201.1 119.484 200.722 121.806C200.343 124.129 199.99 126.198 199.661 127.713C199.51 128.47 199.358 129.076 199.258 129.48C199.157 129.884 199.081 130.111 199.056 130.111C199.005 130.111 199.157 129.177 199.409 127.663C199.661 126.047 199.99 124.002 200.368 121.756C200.747 119.509 201.075 117.464 201.327 115.849C201.58 114.334 201.757 113.4 201.807 113.4Z" fill="#263239"/>
</svg>
