<svg width="344" height="241" viewBox="0 0 344 241" fill="none" xmlns="http://www.w3.org/2000/svg">
<rect x="0.137695" y="0.558594" width="343.438" height="239.623" rx="23" fill="white"/>
<path d="M145.213 53.1556L146.65 54.1037C144.983 56.3734 143.619 58.2839 142.656 60.9702C142.642 61.3149 142.584 61.5448 142.469 61.8752C142.455 61.8177 142.426 61.7602 142.426 61.7028C142.254 58.4419 143.475 55.8562 145.213 53.17V53.1556Z" fill="#D99897"/>
<path d="M190.261 140.365C191.482 140.667 193.235 141.543 194.456 142.046L204.483 146.082L244.661 162.458C246.543 163.22 261.899 169.483 262.172 169.756C262.632 170.215 262.416 175.918 262.402 176.924C261.569 177.642 260.549 178.245 259.644 178.863L252.749 183.575C244.748 189.163 236.703 194.679 228.63 200.166C228.185 200.468 227.739 200.755 227.28 201.043C225.973 200.439 224.622 199.922 223.315 199.362C219.235 197.609 215.141 195.9 211.033 194.219L177.951 180.601C172.952 178.576 167.967 176.522 162.997 174.41C161.374 173.72 158.888 172.945 157.481 171.997C157.093 171.077 157.323 166.409 157.337 165.087C158.371 164.297 159.463 163.564 160.512 162.789L167.55 157.56L190.276 140.365H190.261Z" fill="#010101"/>
<path d="M261.554 170.761C261.827 171.163 261.669 175.703 261.655 176.522C259.184 178.116 256.8 179.883 254.358 181.549C245.38 187.669 236.516 193.989 227.466 199.994C227.179 199.261 227.352 195.196 227.352 194.147C230.138 192.423 232.767 190.427 235.482 188.588C244.187 182.67 252.734 176.507 261.54 170.761H261.554Z" fill="white"/>
<path d="M158.07 165.734C160.411 166.653 162.724 167.716 165.037 168.693L176.759 173.577L202.07 184.006C207.758 186.347 213.447 188.717 219.107 191.116C221.52 192.136 224.364 193.07 226.619 194.363L226.648 199.879C224.321 199.089 222.037 197.925 219.767 196.977L202.989 190.01L176.299 179.064C170.223 176.579 164.103 174.151 158.099 171.48C158.041 169.569 158.084 167.644 158.084 165.719L158.07 165.734Z" fill="white"/>
<path d="M190.391 141.256C191.684 141.687 192.934 142.261 194.198 142.764L200.949 145.493C209.037 148.725 217.11 152.015 225.169 155.348C233.242 158.58 241.286 161.884 249.316 165.245L256.757 168.319C258.222 168.908 259.716 169.397 261.153 170.057C260.09 170.876 258.898 171.58 257.777 172.327C255.637 173.778 253.496 175.243 251.37 176.708L228.516 192.495L227.007 193.558C224.249 192.481 221.52 191.289 218.791 190.14C214.237 188.258 209.683 186.347 205.144 184.422L186.843 176.881L168.715 169.382C165.439 168.018 161.891 166.696 158.731 165.101C159.88 164.168 161.116 163.32 162.308 162.43L170.28 156.511L190.434 141.256H190.391Z" fill="#FFFEFC"/>
<path d="M189.816 144.488C190.923 144.588 192.618 145.465 193.666 145.881L200.447 148.582C202.084 149.243 203.707 149.975 205.388 150.507C205.517 151.484 205.474 152.489 205.446 153.466C204.813 154.17 203.952 154.744 203.19 155.333C201.538 156.626 199.843 157.862 198.191 159.14C193.278 162.918 188.423 166.782 183.453 170.488C183.165 170.546 182.964 170.488 182.706 170.416C180.637 169.727 178.454 168.621 176.414 167.759C173.627 166.581 170.754 165.518 168.039 164.196C167.967 163.205 168.039 162.214 168.054 161.223C169.763 159.801 171.602 158.508 173.369 157.158L183.697 149.314C185.766 147.749 187.935 146.269 189.831 144.488H189.816Z" fill="#010101"/>
<path d="M190.376 145.378C194.844 147.246 199.426 148.869 203.865 150.78L203.147 151.369L202.285 152.029C198.263 150.708 194.312 148.998 190.391 147.404V145.378H190.376Z" fill="white"/>
<path d="M168.771 161.625C170.15 162.042 172.061 163.018 173.469 163.607C175.523 164.455 177.577 165.303 179.617 166.164C180.68 166.61 181.772 167.041 182.806 167.572V169.598C180.479 168.65 178.18 167.644 175.868 166.682C173.497 165.705 171.07 164.785 168.757 163.665C168.743 162.975 168.757 162.3 168.771 161.611V161.625Z" fill="white"/>
<path d="M189.486 145.895L189.558 145.953C189.701 146.413 189.615 147.03 189.601 147.519C187.288 149.544 184.602 151.397 182.16 153.293C178.511 156.138 174.877 159.126 171.07 161.754L170.28 161.424C170.079 161.352 169.878 161.309 169.749 161.122C169.777 160.878 169.921 160.72 170.122 160.576C171.846 159.197 173.685 157.919 175.437 156.583L189.486 145.881V145.895Z" fill="white"/>
<path d="M204.569 151.311L204.713 151.426C204.813 151.986 204.756 152.575 204.742 153.135C197.789 158.637 190.779 164.038 183.697 169.368L183.625 169.397C183.41 169.081 183.539 167.903 183.539 167.486C185.967 165.317 188.696 163.435 191.267 161.438C195.649 158.02 200.016 154.457 204.584 151.311H204.569Z" fill="white"/>
<path d="M190.089 148.223C190.721 148.237 200.101 152.058 201.466 152.59C199.326 154.371 197.013 156.008 194.815 157.703L183.251 166.667L183.136 166.725C182.648 166.725 173.067 162.659 171.917 162.128C174.158 160.347 176.486 158.652 178.755 156.913C182.504 153.983 186.282 151.096 190.075 148.223H190.089Z" fill="white"/>
<path d="M212.067 153.279C213.202 153.48 215.96 154.787 217.21 155.305L223.444 157.847C224.795 158.393 226.231 158.896 227.481 159.643C227.826 160.189 227.524 161.941 227.481 162.616C226.605 163.133 225.786 163.794 224.967 164.412C223.272 165.662 221.606 166.926 219.954 168.219L211.823 174.467C209.654 176.162 207.514 177.915 205.302 179.553C202.558 178.604 199.886 177.34 197.2 176.234C194.686 175.214 192 174.309 189.601 173.06C189.543 172.112 189.558 171.149 189.572 170.201C190.822 169.124 192.244 168.19 193.58 167.213C195.404 165.877 197.2 164.484 199.01 163.133C203.377 159.873 207.614 156.439 212.067 153.293V153.279Z" fill="#010101"/>
<path d="M212.47 154.242C214.107 154.744 215.702 155.534 217.296 156.181L226.145 159.758L225.427 160.246L224.508 160.921C220.543 159.197 216.406 157.818 212.498 155.965V154.227L212.47 154.242Z" fill="white"/>
<path d="M211.594 154.601C211.795 154.874 211.709 155.549 211.709 155.893C209.669 157.517 192.948 170.244 192.373 170.402C192.115 170.474 191.77 170.258 191.526 170.158C191.382 170.1 191.282 170.057 191.152 169.971C191.986 169.239 192.948 168.606 193.839 167.946L199.958 163.392L207.356 157.761C208.749 156.698 210.128 155.563 211.608 154.615L211.594 154.601Z" fill="white"/>
<path d="M190.319 170.56C192.775 171.451 195.189 172.528 197.602 173.534C200.001 174.525 202.443 175.459 204.799 176.55C204.799 177.197 204.799 177.843 204.799 178.49C199.943 176.651 195.189 174.511 190.348 172.629C190.319 171.939 190.333 171.25 190.319 170.56Z" fill="white"/>
<path d="M226.605 160.361L226.763 160.462C226.878 160.979 226.834 161.525 226.834 162.056C219.709 167.357 212.742 172.844 205.704 178.245C205.474 177.987 205.546 176.838 205.531 176.45C206.479 175.573 207.557 174.812 208.577 174.022L212.814 170.747C217.382 167.242 221.95 163.751 226.605 160.347V160.361Z" fill="white"/>
<path d="M212.024 156.727C215.96 158.249 219.867 159.83 223.76 161.438C221.519 162.947 219.408 164.714 217.267 166.351L205.014 175.818C201.092 174.036 197.056 172.442 193.077 170.819C195.605 169.124 198.047 167.242 200.475 165.389C204.296 162.473 208.117 159.499 212.038 156.727H212.024Z" fill="#97C4E5"/>
<path d="M234.074 162.358C235.712 162.746 248.023 167.888 249.042 168.721C249.416 169.411 249.2 170.948 249.172 171.738C248.31 172.657 247.132 173.419 246.126 174.166L241.271 177.771C238.183 180.127 235.065 182.44 231.919 184.738C230.21 186.002 228.544 187.353 226.777 188.531C223.976 187.597 221.218 186.261 218.488 185.141C216.922 184.494 213.015 183.129 211.823 182.253C211.421 181.521 211.636 179.955 211.651 179.122C212.599 178.461 213.475 177.699 214.394 176.996L220.025 172.657C222.941 170.402 225.944 168.247 228.917 166.078C230.397 164.987 232.48 163.148 234.06 162.386L234.074 162.358Z" fill="#010101"/>
<path d="M234.506 163.292C236.029 163.78 237.566 164.556 239.06 165.159C241.99 166.337 245.208 167.4 247.966 168.951L247.161 169.468L246.242 170.043C244.604 169.512 242.981 168.75 241.387 168.104C239.103 167.184 236.776 166.308 234.535 165.288C234.506 164.627 234.52 163.967 234.506 163.292Z" fill="white"/>
<path d="M212.426 179.782L221.275 183.345C222.884 183.991 224.809 184.58 226.26 185.5V187.511L212.412 181.793C212.412 181.118 212.412 180.443 212.426 179.768V179.782Z" fill="white"/>
<path d="M233.6 163.55L233.672 163.622C233.787 164.196 233.715 164.886 233.715 165.475C231.689 167.084 229.563 168.592 227.481 170.129L219.982 175.717C218.158 177.067 216.276 178.375 214.495 179.782L213.604 179.438C213.36 179.351 213.187 179.294 212.986 179.136C212.986 179.093 212.986 179.035 213.015 178.992C213.202 178.691 215.428 177.168 215.931 176.78C221.749 172.27 227.639 167.845 233.6 163.521V163.55Z" fill="white"/>
<path d="M248.167 169.899L248.339 169.942C248.468 170.388 248.396 170.919 248.382 171.379C247.721 171.824 247.118 172.384 246.486 172.873C245.193 173.864 243.9 174.855 242.593 175.832L227.165 187.324H227.079C226.878 186.85 226.993 185.931 227.007 185.399C230.498 182.655 234.118 180.098 237.666 177.441C241.113 174.87 244.489 172.112 248.167 169.899Z" fill="white"/>
<path d="M234.218 166.164C234.865 166.179 244.705 170.23 245.509 170.661C243.627 172.255 241.458 173.677 239.476 175.143L226.691 184.609C225.887 184.609 216.707 180.687 215.242 180.07C216.923 179.193 218.905 177.498 220.485 176.335C225.068 172.973 229.55 169.382 234.233 166.164H234.218Z" fill="#B3D9BB"/>
<path d="M81.9069 40.1266H116.483L127.3 40.141C128.866 40.141 130.532 40.0117 132.084 40.141C132.471 40.1697 132.629 40.2703 132.917 40.5145C133.262 42.1234 133.046 46.8207 133.046 48.7887L133.089 69.8477C134.167 69.1869 138.016 66.7305 138.936 66.515C139.41 66.4001 139.984 66.4576 140.458 66.4719C140.559 60.5967 140.43 54.707 140.43 48.8318C140.43 46.3467 140.229 43.6891 140.487 41.2184C140.53 40.8593 140.53 40.4139 140.803 40.1985C142.599 39.9255 144.667 40.141 146.492 40.141H157.122H178.885C182.72 40.141 186.57 40.0692 190.405 40.1554C190.793 40.1554 191.08 40.1554 191.425 40.3852C191.856 41.2327 191.626 76.8003 191.641 80.6501C193.853 81.1529 196.051 81.986 198.248 82.6037V55.3391V46.6483C198.248 44.7665 198.205 42.856 198.349 40.9742L198.105 40.9023L198.421 40.8305C198.421 40.6438 198.392 40.5001 198.435 40.3134C199.944 39.8681 207.543 40.141 209.539 40.141H233.73L244.848 40.1554C246.845 40.1554 248.942 40.0261 250.925 40.2416C251.198 40.5863 251.169 41.4626 251.169 41.9079C251.255 45.8582 251.169 49.8373 251.169 53.8021V76.9727L251.14 135.524C248.238 135.754 244.762 135.553 241.803 135.553H223.071H206.781C204.009 135.553 201.064 135.754 198.32 135.452C198.119 133.556 198.263 131.502 198.263 129.591V118.66V82.8767C196.223 84.9309 193.795 86.6546 191.641 88.5795L191.554 113.287V127.264C191.554 130.022 191.669 132.809 191.526 135.553C189.859 135.653 188.179 135.582 186.512 135.582H177.85H151.404C152.625 139.69 154.22 143.956 154.723 148.237C155.254 152.776 154.536 157.574 154.249 162.128L152.554 187.496C154.249 187.353 156.059 187.41 157.696 187.884C159.003 188.272 160.167 188.976 160.813 190.226C161.402 191.361 161.647 192.668 161.216 193.889C160.454 195.986 158.113 197.336 156.202 198.227C151.606 200.396 143.13 201.876 138.275 200.066C135.057 198.873 135.589 196.159 136.135 193.415C136.35 192.366 136.939 191.332 137.04 190.283C137.183 188.962 137.083 187.597 137.183 186.261C137.485 182.497 137.887 178.734 138.217 174.97C138.577 170.991 138.95 167.012 139.352 163.033C139.697 159.442 140.559 154.802 139.855 151.297C139.252 148.295 137.801 145.436 136.537 142.678L133.032 135.036C133.362 138.167 133.578 143.712 133.247 146.772C132.888 150.119 131.724 153.566 130.949 156.842C129.67 162.171 128.464 167.515 127.343 172.887C126.697 175.832 125.921 178.806 125.461 181.779C127.243 181.621 129.124 181.664 130.848 182.153C132.213 182.526 133.491 183.244 134.181 184.537C134.698 185.528 134.569 187.08 134.238 188.1C133.592 190.053 131.997 191.361 130.231 192.251C125.375 194.679 117.202 196 111.987 194.191C110.924 193.817 109.947 193.242 109.459 192.179C108.439 189.924 109.459 186.405 110.292 184.221C109.904 183.661 109.617 183.158 109.358 182.526L114.702 160.792L116.842 152.389C117.374 150.32 118.02 148.194 118.178 146.054C118.423 142.635 117.661 138.943 117.173 135.567L93.327 135.539C89.506 135.539 85.1103 135.768 81.3754 135.467C81.1312 127.738 81.3467 119.938 81.3323 112.21V65.1073V47.8262C81.3323 46.361 81.1025 41.793 81.4041 40.7012C81.4903 40.3852 81.6483 40.299 81.9213 40.1266H81.9069Z" fill="#010101"/>
<path d="M161.675 96.4946C162.465 96.7388 163.313 97.1841 164.046 97.5863L163.859 97.7587L162.738 98.4051C162.365 97.7874 162.02 97.141 161.675 96.5089V96.4946Z" fill="#F9DB95"/>
<path d="M141.449 62.4066C141.952 62.9525 142.369 64.6188 142.857 65.3802L142.383 66.4145C142.354 66.5437 142.297 66.6874 142.254 66.8023L141.895 66.8741L141.622 66.6587C141.133 65.5669 141.421 63.5846 141.449 62.3923V62.4066Z" fill="#FFFEFC"/>
<path d="M112.921 118.013C113.352 118.056 113.754 118.099 114.056 118.459C114.329 118.789 114.386 119.148 114.3 119.55C114.185 120.067 113.869 120.326 113.424 120.57C113.309 120.556 113.194 120.542 113.079 120.513C112.677 120.441 112.418 120.283 112.203 119.938C111.987 119.593 111.944 119.277 112.059 118.89C112.188 118.416 112.504 118.214 112.921 118.013Z" fill="#FFFEFC"/>
<path d="M156.361 62.4067C156.748 62.6509 156.619 63.1537 156.72 65.1647C156.792 66.5869 156.863 66.7736 156.691 67.1615C156.26 68.1239 155.068 68.4687 154.522 68.5836C154.263 67.8654 154.163 67.2189 154.12 66.7593C154.033 65.7393 154.177 65.0067 154.335 64.2454C154.594 62.9813 154.867 62.7371 154.982 62.6509C155.341 62.3636 155.958 62.1625 156.361 62.4067Z" fill="#FFFBE1"/>
<path d="M161.072 63.9149C162.652 64.9205 164.146 66.0984 165.64 67.2476C165.41 67.7504 165.209 68.2962 164.836 68.7128C163.356 67.0896 161.69 65.7393 159.966 64.389C160.339 64.2597 160.713 64.0873 161.086 63.9293L161.072 63.9149Z" fill="#EAD2CC"/>
<path d="M146.046 45.5709H151.002L149.25 47.4958L147.627 49.4495C147.109 49.1909 146.578 48.9754 146.061 48.7456V45.5709H146.046Z" fill="#FFFBE1"/>
<path d="M146.808 100.876C147.282 101.292 150.356 106.564 151.031 107.599L146.793 107.627C146.793 105.372 146.793 103.131 146.793 100.876H146.808Z" fill="url(#paint0_linear_55_2)"/>
<path d="M155.627 60.0651C156.662 60.295 159.204 62.421 160.124 63.1105C159.132 63.4265 158.127 63.7425 157.136 64.0586C157.193 63.8862 157.437 63.1679 157.078 62.4353C157.006 62.2773 156.762 61.7889 156.231 61.5734C155.57 61.3149 154.909 61.6596 154.837 61.7027C153.961 62.2342 153.53 63.3834 153.272 64.3171C153.128 64.8343 152.912 64.9348 152.467 65.1934C152.424 65.2221 152.381 65.2509 152.324 65.2652C150.456 66.2564 148.818 66.4862 146.721 66.4719C150.212 65.0354 152.841 62.5359 155.613 60.0651H155.627Z" fill="#D99897"/>
<path d="M182.476 98.3333C182.562 98.3764 182.519 98.3477 182.605 98.4482C182.965 98.8648 183.482 99.3101 183.64 99.8416L183.525 100.028C183.036 100.229 182.419 100.143 181.902 100.143C181.744 100.646 182.203 101.178 182.131 101.709C182.088 102.025 181.988 102.183 181.729 102.37C180.953 102.959 178.669 102.772 177.721 102.657C177.147 102.585 176.558 102.442 175.998 102.327C176.055 101.623 176.026 100.89 176.041 100.172C176.285 100.201 176.529 100.215 176.773 100.244C179.029 100.416 180.752 99.8129 182.462 98.3333H182.476Z" fill="#FFFEFC"/>
<path d="M149.436 55.9137C150.04 56.3733 150.686 56.7612 151.332 57.1634C149.379 59.6198 147.138 61.832 145.213 64.3459C144.969 64.6619 144.753 65.1216 144.351 65.179C144.078 64.9636 144.035 64.9205 143.906 64.6044C145.084 61.516 147.282 58.3988 149.422 55.8993L149.436 55.9137Z" fill="#D99897"/>
<path d="M170.984 93.6647C171.343 93.8084 171.63 94.0526 171.903 94.3112C173.943 96.193 175.021 99.109 175.049 101.824L173.484 102.815C173.369 102.269 173.34 101.723 173.239 101.178C172.693 98.3764 171.472 96.5952 169.361 94.7134C169.878 94.3399 170.438 94.0095 170.984 93.6791V93.6647Z" fill="#175AA7"/>
<path d="M168.585 95.3741C169.131 95.5465 169.921 96.4228 170.28 96.8681C171.774 98.7212 172.579 101.292 172.334 103.648L170.927 104.438L170.783 104.367C170.409 101.551 169.246 98.5057 166.962 96.6814L168.585 95.3741Z" fill="#175AA7"/>
<path d="M147.023 54.348C147.641 54.8076 148.345 55.1811 149.006 55.5977C147.081 58.0254 145.357 60.4243 143.964 63.2111L143.562 64.2741C143.26 63.757 143.044 63.2686 142.843 62.7084C143.504 59.1889 144.84 57.1348 147.023 54.348Z" fill="#D99897"/>
<path d="M139.022 67.4631C140.013 67.3338 140.918 67.5206 141.837 67.8509C144.409 68.7416 147.756 70.8676 148.948 73.4102C149.25 74.0566 149.81 75.3782 149.566 76.0677H149.379L148.977 75.5793C145.342 71.7582 142.383 69.977 137.427 68.3681C137.944 68.009 138.476 67.736 139.036 67.4775L139.022 67.4631Z" fill="#175AA7"/>
<path d="M145.759 100.517C146.046 101.695 145.831 104.424 145.831 105.731L145.888 118.76C145.644 118.085 145.443 117.381 145.242 116.677C144.768 115.14 144.136 113.689 143.633 112.181C142.383 108.532 144.193 103.778 145.774 100.517H145.759Z" fill="#EAD2CC"/>
<path d="M151.706 57.4363C152.855 58.0827 153.947 58.8584 155.053 59.5767C152.841 61.8463 150.571 63.8 147.785 65.3514C147.21 65.653 146.046 66.2851 145.386 66.0409C145.213 65.9834 145.256 65.9547 145.185 65.7536C145.299 64.1878 150.485 58.959 151.706 57.4219V57.4363Z" fill="#D99897"/>
<path d="M117.072 93.4636L117.23 93.4924C117.374 94.0239 116.182 97.3709 115.952 98.1466C112.705 99.7698 109.387 101.221 106.155 102.873L106.04 102.844C105.753 102.083 105.954 99.7124 105.954 98.8074C109.574 96.8968 113.38 95.2592 117.058 93.4636H117.072Z" fill="#D99897"/>
<path d="M118.667 87.4734C118.997 89.0823 118.437 90.4757 117.906 91.9409C114.085 93.9951 110.077 95.7477 106.169 97.6438L106.04 97.5433C105.767 96.4228 105.968 94.7708 105.968 93.5929C107.635 92.9178 109.244 92.0702 110.867 91.2945C113.481 90.0448 116.096 88.8094 118.667 87.4734Z" fill="#EAD2CC"/>
<path d="M92.2925 93.2769C96.4727 95.3023 100.797 97.0261 105.02 98.9654V102.988L92.2925 97.3709V93.2769Z" fill="#D99897"/>
<path d="M92.2783 82.9628C96.5447 84.701 100.768 86.6115 104.991 88.4646V92.5155C103.627 92.1851 102.09 91.2658 100.797 90.7055C97.9668 89.4701 95.1082 88.3066 92.2927 87.0425V82.9628H92.2783Z" fill="#EAD2CC"/>
<path d="M92.2783 67.1758C96.5016 69.1007 100.811 70.7958 105.02 72.7781V76.8147C100.768 75.0909 96.4585 73.1372 92.2783 71.2267V67.1614V67.1758Z" fill="#D99897"/>
<path d="M118.652 66.5724C118.954 67.4343 118.753 69.5747 118.753 70.5946C114.544 72.778 110.191 74.746 105.925 76.8146C105.81 75.4643 105.896 74.0278 105.882 72.6631C110.177 70.7526 114.486 68.7415 118.652 66.5724Z" fill="#D99897"/>
<path d="M92.2925 88.1917C96.5589 89.858 100.854 91.7398 104.991 93.7078V97.8593C103.626 97.3565 102.262 96.6239 100.94 96.0206C98.0959 94.7278 95.2086 93.4493 92.2925 92.3432V88.2061V88.1917Z" fill="#EAD2CC"/>
<path d="M92.2643 72.3615C93.8014 72.9074 95.2953 73.6687 96.7893 74.3295L105.006 77.9782V82.0722C100.84 80.1042 96.5307 78.1649 92.2212 76.513C92.2212 75.1339 92.1781 73.7405 92.2643 72.3615Z" fill="#EAD2CC"/>
<path d="M118.681 71.7151C118.882 73.0079 118.738 74.5593 118.738 75.8809C114.573 78.05 110.234 79.9318 106.025 82.0291C105.724 81.081 105.925 78.9406 105.939 77.8776C110.234 76.0246 114.544 73.8986 118.681 71.7295V71.7151Z" fill="#EAD2CC"/>
<path d="M118.509 77.0733H118.595C118.983 77.4898 118.753 80.3485 118.753 81.038C117.173 81.67 115.65 82.575 114.127 83.3364C111.542 84.6292 108.913 85.8646 106.313 87.1143L106.126 87.1574L105.997 87.0282C105.796 85.8215 105.939 84.3994 105.954 83.164L118.523 77.0589L118.509 77.0733Z" fill="#D99897"/>
<path d="M118.538 82.2158C118.538 82.2158 118.581 82.2158 118.595 82.2446C119.026 82.6468 118.811 85.649 118.811 86.3673C114.516 88.206 110.292 90.3895 106.083 92.4437L106.011 92.4149C105.739 91.8834 105.897 89.1541 105.897 88.4215C110.149 86.4391 114.372 84.3706 118.552 82.2302L118.538 82.2158Z" fill="#EAD2CC"/>
<path d="M92.2637 77.5904C94.0018 78.2368 95.7113 79.0843 97.4063 79.8313C99.9489 80.9374 102.491 82.0579 105.02 83.2071C105.034 84.5861 105.02 85.9795 105.02 87.3585C100.796 85.4767 96.5444 83.6524 92.2637 81.8711V77.5904Z" fill="#D99897"/>
<path d="M92.2927 61.4872C96.5016 63.5414 100.825 65.337 105.006 67.42V71.5714C100.811 69.6465 96.5734 67.8365 92.2783 66.1271V61.4872H92.2927Z" fill="#EAD2CC"/>
<path d="M118.537 60.9557C118.954 61.4585 118.739 64.5901 118.739 65.3945C117.072 66.3426 115.291 67.1327 113.567 67.9515L106.169 71.514C105.667 70.925 105.968 68.1526 105.968 67.2907C110.191 65.2509 114.458 63.2541 118.552 60.9557H118.537Z" fill="#EAD2CC"/>
<path d="M145.989 49.7942C146.118 49.8086 146.147 49.7942 146.291 49.866C146.98 50.182 149.422 52.2219 150.356 52.8683C154.392 55.6407 158.472 58.3413 162.552 61.0563C164.376 62.2773 166.689 63.4696 168.269 64.9779C169.361 66.0122 170.065 67.894 170.74 69.2443L169.634 68.5404C165.798 66.1415 162.279 63.326 158.573 60.7403C153.933 57.4938 149.092 54.4628 144.366 51.3456C144.868 50.7566 145.4 50.297 146.003 49.8086L145.989 49.7942Z" fill="#FFFEFC"/>
<path d="M115.391 108.274C116.555 108.762 117.618 109.595 118.781 110.141C122.33 111.779 126.625 112.799 130.489 113.23C133.132 113.517 135.703 113.589 138.332 113.23C139.007 113.144 141.981 112.31 142.354 112.382C142.469 112.397 142.555 112.483 142.67 112.526L142.642 112.741L142.757 112.885C142.757 112.885 142.757 112.928 142.742 112.957C142.512 113.345 142.11 113.46 141.708 113.603C137.916 115.14 134.023 115.859 129.914 115.729C125.073 115.571 118.81 114.106 115.377 110.457V108.274H115.391Z" fill="#175AA7"/>
<path d="M186.211 92.9608C186.412 94.4835 186.239 96.2073 186.239 97.7444V107.613L167.694 107.642L168.614 107.067C170.553 105.717 173.11 104.122 175.178 103.002C177.132 103.677 179.933 104.223 181.873 103.246C182.964 102.686 182.821 102.355 183.223 101.379C183.381 100.991 183.668 100.833 184.042 100.675C184.286 100.574 184.429 100.517 184.602 100.316C184.688 99.4969 184.042 98.5344 183.654 97.8305C184.587 96.4802 185.004 95.8769 184.76 94.2393C185.234 93.794 185.722 93.3774 186.211 92.9465V92.9608Z" fill="#FFFBE1"/>
<path d="M152.525 188.502C154.364 188.401 157.725 188.358 159.162 189.737C159.449 190.01 159.65 190.384 159.636 190.786C159.636 191.404 159.205 191.95 158.788 192.366C155.082 196.015 148.014 197.063 143.059 197.063C141.708 196.977 140.3 196.848 139.022 196.417C138.304 196.173 137.614 195.828 137.284 195.11C136.695 193.846 137.557 191.993 137.988 190.786C139.74 191.705 141.593 192.093 143.576 192.036C146.621 191.95 150.385 190.786 152.511 188.516L152.525 188.502Z" fill="#5797D1"/>
<path d="M125.26 182.842C125.26 182.842 125.332 182.842 125.375 182.842C127.558 182.684 130.992 182.684 132.701 184.264C133.046 184.58 133.276 184.954 133.247 185.442C133.218 186.017 132.715 186.577 132.313 186.936C128.722 190.211 121.669 191.562 116.943 191.332C115.621 191.188 114.314 191.016 113.036 190.599C112.073 190.283 111.024 189.838 110.565 188.875C109.99 187.64 110.637 186.117 111.096 184.939C114.314 186.52 117.747 186.864 121.18 185.729C122.761 185.212 124.456 184.394 125.246 182.857L125.26 182.842Z" fill="#5797D1"/>
<path d="M105.422 54.348C106.657 54.6065 108.108 55.4828 109.257 56.0143C112.202 57.3646 115.147 58.758 118.063 60.1801C113.94 62.2774 109.76 64.2598 105.638 66.357H105.623C105.609 66.3714 105.58 66.3858 105.566 66.4145C105.12 66.4576 94.045 61.2862 93.0107 60.6685C96.9898 58.3989 101.227 56.1723 105.422 54.348Z" fill="#EAD2CC"/>
<path d="M157.581 43.6604C159.535 43.488 161.589 44.0626 163.327 44.9389C166.401 46.519 168.958 49.3633 169.993 52.6672C171.214 56.5601 170.05 60.0651 168.24 63.5558C164.319 61.0707 160.469 58.4994 156.633 55.8706C157.438 55.0374 158.185 54.1468 158.917 53.2562C160.9 50.9147 162.882 48.2715 164.433 45.6284C161.316 48.6594 158.529 51.9058 156.518 55.7844C153.803 53.9169 151.031 52.1501 148.345 50.2252C148.603 49.8517 148.862 49.4925 149.135 49.1191C151.347 46.2317 153.89 44.1344 157.581 43.646V43.6604Z" fill="#FFFEFC"/>
<path d="M190.506 89.4415C190.578 89.5133 190.592 89.7 190.621 89.8006L190.549 89.9155L190.721 89.9873L190.535 90.0448L190.621 90.1166V134.677C187.101 134.648 151.591 134.792 151.146 134.576C150.959 134.476 150.916 134.231 150.844 134.045L149.853 130.913C153.818 130.841 186.124 131.258 187.029 130.712C187.288 130.094 187.202 95.6615 187.202 92.2139C188.25 91.2371 189.371 90.3321 190.491 89.4415H190.506Z" fill="#EAD2CC"/>
<path d="M180.738 78.4522C182.562 78.8544 184.386 79.5009 186.182 80.0324C189.615 81.0236 193.02 82.0722 196.41 83.1927C193.321 85.9507 190.061 88.4933 186.872 91.1221C185.665 92.1133 184.444 93.4779 183.137 94.3111C182.806 94.268 182.548 94.2393 182.217 94.3111C182.016 94.5266 181.901 94.6271 181.959 94.9432C181.988 95.1874 182.131 95.3741 182.304 95.5321C182.878 96.0349 183.252 95.1586 183.812 95.1443C183.927 95.3885 183.927 95.2879 183.898 95.5321C183.898 95.5896 183.898 95.6327 183.869 95.6901C183.869 95.7476 183.841 95.7907 183.826 95.8482C183.812 95.9056 183.797 95.9487 183.769 95.9918C183.754 96.0349 183.726 96.0924 183.697 96.1355C183.668 96.1786 183.639 96.2216 183.611 96.2647C183.582 96.3078 183.553 96.3509 183.51 96.394C183.481 96.4371 183.438 96.4802 183.395 96.5089C183.352 96.552 183.309 96.5808 183.28 96.6095C182.26 96.7819 181.829 97.5289 181.097 98.1609C179.689 99.3819 177.707 99.3963 175.954 99.2814C175.365 97.6869 174.604 96.3078 173.699 94.8857C176.974 92.6448 177.692 91.7973 181.93 92.4437L182.275 92.3C182.433 92.0415 182.505 91.9553 182.447 91.6249C182.318 90.921 181.801 90.3033 181.241 89.9011C180.465 89.3265 179.502 88.9386 178.526 89.0966L178.454 89.269C178.985 90.2171 180.594 90.605 181.413 91.3807C177.577 90.6768 176.213 92.142 173.124 93.9807C172.636 93.5354 172.047 92.9033 171.372 92.7597C170.438 92.5586 169.591 93.3056 168.872 93.794C168.384 93.6647 167.838 93.4061 167.35 93.5354C167.134 93.794 167.091 93.8227 167.062 94.1531C167.206 94.3111 167.35 94.426 167.522 94.5266L167.709 94.6415C167.436 95.2017 165.856 96.2504 165.31 96.7244C163.931 96.3653 162.566 95.8769 161.216 95.4316C165.051 91.9553 169.03 88.6082 172.923 85.1894C175.48 82.9485 177.98 80.4777 180.695 78.4379L180.738 78.4522Z" fill="#FFFEFC"/>
<path d="M171.659 89.1541C171.874 89.1541 172.061 89.1397 172.262 89.1541C172.952 89.2115 173.742 89.3696 174.201 89.9011L174.158 90.3464C173.77 90.4757 173.339 90.3751 172.937 90.3464C172.463 90.3033 172.162 90.2027 171.731 90.0016C171.529 89.6712 171.616 89.5276 171.659 89.1685V89.1541Z" fill="#010101"/>
<path d="M175.767 85.7928C176.385 85.7784 177.29 85.8215 177.85 86.0944C178.123 86.2237 178.195 86.3243 178.267 86.6116L178.023 87.0138C177.635 86.942 177.276 86.9276 176.874 86.9132C176.342 86.8845 175.825 86.9276 175.437 86.511C175.466 86.1519 175.552 86.0801 175.753 85.7928H175.767Z" fill="#010101"/>
<path d="M179.014 81.4976C179.746 81.5407 180.939 81.6556 181.47 82.1871C181.614 82.3308 181.571 82.417 181.585 82.6037C181.384 82.8479 181.398 82.8767 181.082 82.9341C180.292 82.6899 179.143 82.7043 178.454 82.3452C178.267 82.2446 178.339 82.259 178.281 82.0291C178.454 81.7275 178.698 81.6413 178.999 81.4976H179.014Z" fill="#010101"/>
<path d="M183.352 83.0059C184.3 83.0634 188.337 84.1982 188.954 84.8015C189.112 84.9596 189.055 85.2325 189.069 85.4336C187.575 85.3618 184.803 84.4568 183.467 83.8104C183.266 83.4943 183.323 83.3794 183.366 83.0059H183.352Z" fill="#010101"/>
<path d="M179.387 85.3474C180.465 85.4192 185.435 87.0137 186.124 87.732C186.254 87.8756 186.153 88.3353 186.124 88.5364C184.386 88.1055 181.025 87.0425 179.545 86.2093C179.344 85.8933 179.387 85.7209 179.387 85.3474Z" fill="#010101"/>
<path d="M141.363 41.089L170.926 41.1178C177.491 41.1034 184.07 41.0172 190.649 41.1321V80.3627C189.5 79.9605 188.294 79.6445 187.101 79.2854V66.0553L187.087 52.423C187.087 49.9378 187.231 47.3521 186.972 44.8814C186.34 44.3355 183.295 44.6228 182.375 44.6228H171.056C169.102 44.6084 166.804 44.8383 164.893 44.4361C163.571 44.1631 162.365 43.3156 161.015 42.9852C157.811 42.1951 155.039 42.9421 152.281 44.6084C149.91 44.5222 147.497 44.5941 145.127 44.6084C145.041 46.1311 145.098 47.6969 145.098 49.2339C144.624 49.5643 144.193 49.9522 143.805 50.3831C143.518 50.7135 143.274 51.1588 143.346 51.6185C143.446 52.1931 143.949 52.4086 144.394 52.6672C142.857 54.9512 141.938 57.0197 141.493 59.7491C141.349 57.4938 141.421 55.2098 141.421 52.9545L141.378 41.1034L141.363 41.089Z" fill="#EAD2CC"/>
<path d="M86.6616 108.504H114.415C114.415 108.978 114.372 109.481 114.458 109.94C114.645 111.061 115.435 114.077 114.86 115.054C114.616 115.054 114.486 115.04 114.271 115.14C114.07 115.801 114.214 116.821 114.228 117.525C113.783 117.324 113.395 117.18 112.906 117.166C112.346 117.151 111.872 117.324 111.47 117.726C111.068 118.143 110.967 118.746 110.996 119.306C111.025 119.909 111.168 120.628 111.657 121.03C112.418 121.662 113.467 121.217 114.328 121.13C114.486 121.36 114.587 121.475 114.846 121.576C114.917 121.605 114.989 121.633 115.061 121.648C115.391 122.38 115.506 124.765 115.636 125.727L116.325 129.864L86.676 129.907V108.475L86.6616 108.504Z" fill="#FFFEFC"/>
<path d="M107.462 117.18C107.879 117.151 108.324 117.108 108.712 117.252C108.784 117.281 108.856 117.309 108.928 117.338C108.999 117.367 109.071 117.41 109.143 117.453C109.215 117.496 109.272 117.539 109.344 117.582C109.402 117.625 109.473 117.683 109.531 117.74C109.588 117.798 109.646 117.855 109.689 117.913C109.746 117.97 109.789 118.028 109.833 118.099C109.876 118.171 109.919 118.229 109.962 118.301C110.005 118.372 110.034 118.444 110.062 118.516C110.278 119.033 110.264 119.622 110.062 120.139C109.746 120.886 109.157 121.116 108.439 121.389C108.037 121.418 107.563 121.389 107.189 121.274C106.672 121.102 106.198 120.7 105.954 120.211C105.925 120.154 105.897 120.082 105.868 120.024C105.839 119.953 105.825 119.895 105.81 119.823C105.796 119.751 105.782 119.694 105.767 119.622C105.767 119.55 105.753 119.479 105.753 119.421C105.753 119.349 105.753 119.277 105.753 119.22C105.753 119.148 105.753 119.076 105.782 119.019C105.782 118.947 105.81 118.89 105.825 118.818C105.839 118.746 105.868 118.688 105.897 118.617C106.198 117.841 106.758 117.525 107.491 117.209L107.462 117.18Z" fill="#010101"/>
<path d="M107.39 118.128C107.922 118.085 108.324 118.071 108.755 118.444C109.014 118.674 109.157 118.947 109.143 119.292C109.143 119.838 108.841 120.154 108.482 120.498C108.008 120.541 107.592 120.57 107.204 120.225C106.945 119.996 106.845 119.723 106.83 119.378C106.801 118.875 107.074 118.487 107.39 118.114V118.128Z" fill="#FFFEFC"/>
<path d="M102.247 117.18C102.693 117.166 103.152 117.18 103.583 117.338C104.144 117.554 104.646 118.042 104.876 118.602C105.092 119.119 105.092 119.665 104.847 120.182C104.546 120.829 104.043 121.102 103.411 121.346C102.894 121.375 102.348 121.403 101.845 121.217C101.314 121.001 100.825 120.542 100.595 120.024C100.38 119.536 100.351 118.961 100.595 118.473C100.94 117.74 101.529 117.439 102.262 117.209L102.247 117.18Z" fill="#010101"/>
<path d="M102.147 118.143C102.664 118.114 103.081 118.071 103.512 118.43C103.756 118.645 103.928 118.918 103.928 119.249C103.928 119.751 103.656 120.082 103.311 120.398C102.765 120.47 102.291 120.513 101.86 120.111C101.63 119.895 101.515 119.608 101.53 119.292C101.558 118.775 101.817 118.473 102.162 118.143H102.147Z" fill="#FFFEFC"/>
<path d="M97.895 119.593C98.2397 118.387 98.3403 116.304 99.3315 115.485C99.6188 115.413 99.6475 115.37 99.9348 115.471C100.05 115.859 99.8055 116.39 99.6906 116.778C99.3171 118.099 99.0442 119.608 98.4696 120.843C98.2972 121.202 98.1535 121.403 97.7801 121.561C97.0187 121.145 96.4154 118.444 96.0563 117.554C95.769 118.487 95.338 120.987 94.5623 121.533C94.3468 121.547 94.2894 121.547 94.117 121.418C93.2551 120.786 92.3788 116.62 92.1777 115.456C92.465 115.456 92.8673 115.399 93.1258 115.543C93.4562 115.729 94.2463 119.191 94.4474 119.823C94.7778 118.631 95.0364 116.878 95.7115 115.859C95.8695 115.614 95.9126 115.6 96.1855 115.528C97.0618 116.06 97.5789 118.602 97.895 119.593Z" fill="#010101"/>
<path d="M82.2802 41.0316L132.098 41.0603L132.126 70.5659C130.891 71.5715 129.728 72.7637 128.55 73.8411V54.4197C128.55 51.4893 128.636 48.5301 128.55 45.614C128.55 45.1831 128.478 44.9963 128.162 44.6947C126.754 44.4217 125.102 44.5798 123.651 44.5798H115.291C105.767 44.5798 96.2142 44.4074 86.6902 44.5654C86.3311 44.5654 86.0582 44.5654 85.7421 44.7665C85.2968 46.1886 85.5554 55.454 85.5554 57.4651V90.2315L85.6703 118.89C85.6703 120.743 85.4261 129.29 85.7852 130.626C85.8427 130.683 85.8858 130.741 85.9576 130.784C86.5466 131.071 113.438 130.87 116.411 130.856L116.928 134.691L82.2515 134.662V41.0316H82.2802Z" fill="#EAD2CC"/>
<path d="M166.085 108.619C172.794 108.576 179.517 108.561 186.225 108.59L186.182 126.517V130.008L149.58 129.951C148.876 127.939 147.109 123.156 146.822 121.202C146.635 119.866 146.793 118.358 146.793 117.008V108.604H151.62C153.028 110.084 154.436 111.319 156.504 111.75C160.009 112.497 163.256 110.4 166.071 108.604L166.085 108.619Z" fill="#FFFEFC"/>
<path d="M158.299 116.246C158.702 116.246 159.248 116.203 159.635 116.347C159.951 116.476 159.98 116.534 160.095 116.835C160.023 117.18 159.894 117.324 159.678 117.582C159.348 117.64 158.917 117.726 158.572 117.697C158.271 117.668 158.098 117.482 157.897 117.281C157.84 117.065 157.711 116.792 157.811 116.577C157.926 116.347 158.084 116.318 158.299 116.246Z" fill="#FFFEFC"/>
<path d="M157.883 118.617C158.4 118.617 158.946 118.559 159.463 118.602C159.808 118.631 159.994 118.746 160.224 119.004C160.382 119.378 160.282 119.636 160.196 120.01C159.42 120.24 158.687 120.197 157.897 120.197V118.617H157.883Z" fill="#FFFEFC"/>
<path d="M166.157 45.5709C172.808 45.5134 179.473 45.5422 186.124 45.6284V79.0125C184.3 78.4235 182.303 78.0787 180.565 77.303C178.181 78.9694 175.006 82.0578 172.736 84.0833L160.742 94.6128C158.917 91.5961 157.581 88.3209 156.102 85.1176C155.297 83.3794 154.507 81.5551 153.372 80.0036C152.611 78.955 151.735 78.1218 150.744 77.2887C150.672 74.5306 150.226 73.209 148.46 71.0112C146.951 69.3736 145.184 68.2388 143.216 67.2045C143.317 66.8597 143.417 66.5868 143.575 66.2708C144.021 66.2277 144.825 66.8741 145.285 67.0752C145.644 67.2189 146.089 67.305 146.477 67.3769C148.862 67.8365 151.275 67.1614 153.272 65.8398C153.358 66.2133 153.459 66.6155 153.631 66.9603C153.818 67.3481 154.191 67.7216 154.622 67.7935C154.909 67.8365 155.154 67.7647 155.398 67.6067C156.188 67.0752 156.446 66.0553 156.633 65.1647C157.452 65.1359 158.256 65.0498 159.075 64.9636C160.526 65.9691 161.934 67.0177 163.198 68.2531C161.488 70.4797 159.822 72.8643 157.323 74.272C153.602 76.3693 152.841 72.8355 151.534 72.4764C151.39 72.7063 151.39 72.7494 151.404 73.0223C151.462 73.8555 152.18 74.5737 152.798 75.0621C153.645 75.7373 154.651 76.0389 155.728 75.8953C159.003 75.45 161.891 71.7007 163.758 69.2443C163.773 69.273 163.801 69.3018 163.816 69.3161C163.859 69.3592 163.887 69.4023 163.931 69.4454C164.045 69.5603 164.175 69.7615 164.318 69.8333C164.591 69.9913 164.836 70.02 165.123 69.9051C165.683 69.6896 166.272 68.3824 166.588 67.8653C167.55 68.4111 170.51 70.6664 171.544 70.451C171.716 70.4079 171.745 70.3073 171.831 70.178C172.004 68.7415 169.835 65.5238 169.044 64.2453C170.61 61.5016 171.688 58.3557 171.443 55.1523C171.156 51.2451 169.073 48.0704 166.157 45.5709Z" fill="#FFFBE1"/>
<path d="M160.196 67.2763C160.412 67.2907 160.685 67.2907 160.886 67.3625C161.187 67.4631 161.288 67.6354 161.417 67.9084C161.417 68.3537 161.288 68.5692 161.058 68.9427C160.857 68.9139 160.642 68.8996 160.455 68.8277C160.153 68.7128 160.067 68.5117 159.923 68.2388C159.923 67.8366 159.995 67.6211 160.182 67.262L160.196 67.2763Z" fill="#010101"/>
<path d="M110.105 45.5135L127.602 45.5709V74.9329C124.284 78.6103 121.928 82.8479 119.73 87.258L119.672 59.8353C117.23 58.4276 114.458 57.3358 111.887 56.1579C109.775 55.1811 107.62 53.9888 105.408 53.2562C103.627 53.9601 101.889 54.98 100.165 55.8419C97.2344 57.3215 93.9592 58.7436 91.2873 60.6541C91.1293 70.5085 91.2729 80.3772 91.316 90.2315C91.316 92.8459 91.2155 95.5178 91.3879 98.1179C96.0277 100.301 100.854 102.111 105.509 104.266L115.751 99.3389C115.191 102.083 114.702 104.769 114.53 107.57L86.6762 107.541C86.5038 86.8701 86.4607 66.199 86.5612 45.5278C94.4045 45.4273 102.248 45.5278 110.091 45.5135H110.105Z" fill="white"/>
<path d="M136.134 69.2588C136.336 69.2588 136.336 69.2588 136.508 69.2731C141.191 69.8477 145.687 73.2235 148.589 76.7572C148.1 76.7285 147.612 76.6998 147.138 76.6998C146.822 76.6998 146.621 76.7429 146.391 77.0014C146.247 77.1595 146.29 77.1164 146.305 77.3749C146.937 78.0788 149.092 77.7772 150.068 78.1794C151.304 78.6965 152.266 80.0755 152.97 81.1673C155.111 84.5143 156.82 89.2835 158.673 92.9465C159.434 94.4405 160.239 95.9201 161.072 97.3853C161.546 98.2328 162.192 99.1091 162.523 100.028C163.097 101.623 162.221 103.49 161.23 104.74C160.813 105.257 160.21 105.817 159.937 106.421C159.822 106.694 159.793 106.708 159.908 106.981C160.124 107.024 160.224 107.01 160.44 106.938C161.704 106.493 162.681 104.467 163.212 103.318C163.931 101.81 163.988 100.632 163.428 99.0803C164.419 98.5488 165.41 98.0461 166.33 97.3853C166.444 97.4858 166.545 97.5864 166.66 97.7013C168.57 99.6549 169.734 102.413 169.691 105.142C167.493 106.593 165.238 108.058 162.939 109.337C160.871 110.486 158.501 111.348 156.145 110.615C155.01 110.271 154.019 109.595 153.2 108.748C151.189 106.665 147.282 99.7268 145.845 96.94C144.768 94.9289 143.662 92.9465 142.728 90.8492C142.225 89.7288 141.019 86.1232 140.516 85.4337C140.401 85.2756 140.329 85.3187 140.157 85.3044L139.927 85.5055C139.438 87.4735 144.394 96.351 145.5 98.5057C143.044 103.591 142.398 105.573 142.153 111.176C141.837 111.348 141.493 111.492 141.162 111.607C140.817 111.736 140.473 111.836 140.128 111.923C134.037 113.417 125.547 111.851 119.802 109.423C118.264 108.762 116.857 107.915 115.435 107.067C115.923 103.634 116.411 100.172 117.374 96.825C120.405 86.2525 126.151 74.7749 136.106 69.2444L136.134 69.2588Z" fill="#F9DB95"/>
<path d="M116.052 112.483C117.575 113.646 119.414 114.508 121.209 115.14C121.439 115.212 121.654 115.298 121.884 115.37C122.114 115.442 122.33 115.514 122.559 115.586C122.789 115.657 123.019 115.715 123.249 115.787C123.479 115.844 123.709 115.902 123.939 115.959C124.168 116.017 124.398 116.074 124.628 116.117C124.858 116.175 125.088 116.218 125.318 116.261C125.547 116.304 125.777 116.347 126.021 116.39C126.251 116.433 126.495 116.462 126.725 116.505C126.955 116.534 127.199 116.562 127.429 116.591C127.659 116.62 127.903 116.649 128.133 116.663C128.363 116.692 128.607 116.706 128.837 116.72C129.067 116.735 129.311 116.749 129.541 116.764C129.771 116.764 130.015 116.778 130.245 116.792C130.475 116.792 130.719 116.792 130.949 116.792C131.178 116.792 131.423 116.792 131.652 116.792C131.882 116.792 132.127 116.778 132.356 116.764C132.586 116.749 132.83 116.735 133.06 116.72C133.29 116.706 133.534 116.677 133.764 116.663C133.994 116.634 134.238 116.606 134.468 116.577C134.698 116.548 134.942 116.519 135.172 116.476C135.402 116.448 135.646 116.404 135.876 116.361C136.106 116.318 136.335 116.275 136.58 116.232C136.809 116.189 137.039 116.131 137.269 116.088C137.499 116.031 137.729 115.973 137.959 115.916C138.189 115.859 138.418 115.801 138.648 115.729C138.878 115.672 139.108 115.6 139.323 115.528C139.553 115.456 139.769 115.385 139.998 115.313C140.228 115.241 140.444 115.155 140.674 115.083C140.889 114.997 141.119 114.925 141.334 114.839C141.55 114.752 141.78 114.666 141.995 114.566C142.211 114.48 142.426 114.379 142.642 114.278C142.857 114.178 143.073 114.077 143.288 113.977C143.963 115.83 144.509 117.755 145.112 119.622L148.431 129.893C149.451 133.096 150.456 136.3 151.433 139.518C152.352 142.534 153.401 145.608 153.717 148.754C154.191 153.538 153.458 158.565 153.128 163.349C152.525 171.638 151.964 179.912 151.476 188.2C149.336 190.125 145.428 191.16 142.599 191.073C140.875 191.016 139.151 190.614 137.93 189.321C138.016 186.333 138.404 183.316 138.691 180.343L140.228 164.139C140.602 160.232 141.564 154.615 140.731 150.866C140.042 147.777 138.605 144.948 137.284 142.089L134.296 135.495C133.506 133.815 132.845 132.077 132.098 130.381C132.17 130.065 132.227 129.907 132.112 129.606C132.012 129.477 131.983 129.433 131.825 129.347C131.408 129.117 130.561 129.017 130.072 128.888C129.483 128.715 128.909 128.514 128.349 128.255C127.788 128.011 127.257 127.724 126.74 127.394C125.777 126.79 124.757 126.029 124.01 125.196C123.637 124.779 123.35 124.248 122.933 123.874C122.804 123.759 122.66 123.716 122.502 123.687L122.258 123.86C122.186 124.161 122.129 124.334 122.287 124.621C123.809 127.437 128.162 129.505 131.135 130.223C131.394 131.128 131.724 131.962 131.868 132.91C132.127 134.576 132.069 136.372 132.127 138.067C132.241 140.954 132.5 143.971 132.184 146.829C131.968 148.769 131.408 150.679 130.934 152.561L128.736 161.625C127.07 168.721 125.734 175.89 124.125 182.986C122.186 184.638 119.586 185.399 117.072 185.414C114.529 185.428 112.245 184.796 110.407 182.986C110.55 180.429 111.628 177.139 112.26 174.597C113.682 168.736 115.133 162.875 116.641 157.028C117.503 153.653 118.724 150.047 119.054 146.585C119.299 144.057 118.896 141.428 118.58 138.9C117.92 133.657 116.871 128.457 116.225 123.213C115.794 119.694 115.894 116.074 115.995 112.54L116.052 112.483Z" fill="#DC854F"/>
<path d="M203.549 107.168H245.854C245.811 114.781 245.811 122.395 245.854 130.008H203.506C203.406 122.409 203.564 114.781 203.549 107.168Z" fill="#FFFEFC"/>
<path d="M239.964 117.783C240.237 117.783 240.496 117.783 240.74 117.927C240.999 118.071 241.142 118.286 241.228 118.559C241.042 118.789 240.941 118.732 240.654 118.775C240.28 118.775 239.835 118.846 239.476 118.717C239.246 118.645 239.332 118.703 239.217 118.459C239.39 118.143 239.677 117.985 239.964 117.783Z" fill="#FFFEFC"/>
<path d="M231.949 117.755C232.207 117.769 232.452 117.812 232.681 117.956C232.954 118.128 233.098 118.344 233.155 118.631C232.94 118.832 232.882 118.789 232.61 118.803C232.265 118.803 231.877 118.861 231.547 118.789C231.317 118.731 231.288 118.731 231.159 118.516C231.317 118.157 231.633 117.984 231.949 117.769V117.755Z" fill="#FFFEFC"/>
<path d="M213.375 118.042C213.533 118.028 213.691 117.999 213.834 117.999C214.194 117.984 214.495 118.085 214.739 118.358C214.969 118.602 215.055 118.904 215.027 119.234C214.984 119.766 214.725 120.096 214.323 120.427C213.834 120.441 213.404 120.455 213.016 120.11C212.757 119.881 212.671 119.622 212.671 119.277C212.671 118.76 213.001 118.387 213.346 118.056L213.375 118.042Z" fill="#FFFEFC"/>
<path d="M219.581 114.925C219.911 114.925 220.328 114.882 220.586 115.112C220.802 117.123 220.615 119.306 220.586 121.346C220.27 121.346 220.04 121.317 219.739 121.231C219.293 120.728 219.566 115.916 219.581 114.925Z" fill="#010101"/>
<path d="M232.093 116.95C232.797 116.907 233.702 116.993 234.248 117.467L234.176 117.74C233.702 117.956 233.098 117.855 232.581 117.913C232.308 117.941 232.122 117.941 231.949 118.171C232.366 119.019 233.644 118.717 234.233 119.493C234.348 119.866 234.319 120.326 234.118 120.671C233.86 121.13 233.515 121.231 233.041 121.375C232.452 121.346 231.777 121.346 231.231 121.102C230.987 120.987 230.857 120.915 230.757 120.656L231.015 120.383L231.102 120.527L231.159 120.34C231.834 120.383 232.653 120.556 233.299 120.369L233.386 120.154C232.84 119.378 231.389 119.478 230.886 118.588C230.814 118.444 230.757 118.243 230.814 118.085C231.001 117.554 231.619 117.166 232.093 116.95Z" fill="#010101"/>
<path d="M227.97 116.95C228.128 116.95 228.128 116.95 228.315 116.95C228.832 116.979 229.622 117.065 229.981 117.467L229.78 117.783C229.249 117.97 228.674 117.855 228.114 117.941C227.827 117.984 227.812 117.97 227.625 118.229C227.625 118.257 227.64 118.301 227.654 118.329C227.941 118.904 229.062 118.918 229.608 119.162C229.866 119.277 230.067 119.493 230.111 119.78C230.154 120.096 229.996 120.585 229.809 120.857C229.579 121.188 229.148 121.245 228.775 121.332C228.415 121.332 228.071 121.317 227.726 121.26C227.18 121.188 226.878 121.13 226.534 120.671L226.62 120.269C227.295 120.082 228.243 120.513 229.004 120.412C229.004 120.312 229.076 120.039 229.019 119.967C228.286 119.651 226.95 119.206 226.606 118.459C226.534 118.301 226.505 118.099 226.577 117.941C226.821 117.424 227.467 117.108 227.985 116.936L227.97 116.95Z" fill="#010101"/>
<path d="M223.359 116.95C223.847 116.95 224.321 116.907 224.752 117.166C225.226 117.439 225.499 118.013 225.628 118.53C225.772 119.177 225.887 120.656 225.442 121.202C225.341 121.332 225.212 121.303 225.054 121.317C223.977 120.757 223.732 121.619 222.296 121.173C222.066 120.872 221.865 120.556 221.793 120.182C221.506 118.645 223.933 119.091 224.494 118.301C223.876 117.324 223.028 118.2 222.238 117.74L222.267 117.51C222.598 117.166 222.899 117.079 223.344 116.95H223.359Z" fill="#010101"/>
<path d="M215.429 115.37C216.377 115.313 217.282 115.37 218.058 115.945C218.202 116.232 218.202 116.246 218.144 116.562C217.455 116.893 216.334 116.318 215.53 116.419C215.027 116.491 214.61 116.72 214.294 117.123C213.978 117.539 213.734 118.099 213.82 118.631C213.892 119.119 214.208 119.493 214.596 119.78C215.142 120.182 216.033 120.484 216.722 120.326C217.052 120.254 217.153 120.139 217.34 119.866C217.34 119.55 217.34 119.536 217.153 119.292C216.88 119.249 216.607 119.206 216.363 119.076C216.191 118.976 216.176 118.674 216.119 118.487C216.693 118.143 217.656 118.315 218.302 118.344C218.317 118.933 218.417 119.651 218.173 120.182C217.929 120.714 217.541 121.145 216.981 121.332C216.176 121.619 215.084 121.375 214.352 120.972C214.266 120.915 214.165 120.872 214.079 120.8C213.993 120.743 213.907 120.671 213.82 120.613C213.734 120.541 213.662 120.47 213.591 120.398C213.519 120.326 213.447 120.24 213.375 120.154C213.303 120.067 213.246 119.981 213.188 119.895C213.131 119.809 213.073 119.708 213.03 119.622C212.987 119.522 212.944 119.435 212.901 119.335C212.858 119.234 212.829 119.134 212.8 119.033C212.614 118.315 212.657 117.568 213.045 116.922C213.547 116.074 214.495 115.586 215.415 115.341L215.429 115.37Z" fill="#010101"/>
<path d="M222.669 120.542C222.784 120.771 223.574 120.7 224.106 120.326C224.436 120.096 224.781 119.68 224.666 119.493C224.551 119.277 223.862 119.392 223.373 119.68C222.985 119.909 222.554 120.34 222.655 120.542H222.669Z" fill="#FFFEFC"/>
<path d="M155.47 119.723C155.642 119.723 155.743 119.838 155.786 120.053C155.786 120.053 155.786 120.082 155.786 120.096C155.786 120.254 155.57 120.455 155.139 120.685C154.794 120.872 154.407 120.958 153.947 120.958C153.674 120.958 153.372 120.929 153.071 120.858C152.51 120.743 152.079 120.498 151.792 120.111C151.534 119.766 151.404 119.335 151.404 118.847C151.404 118.157 151.62 117.525 152.065 116.965C152.539 116.376 153.085 116.074 153.746 116.074C154.019 116.074 154.205 116.074 154.306 116.103C154.565 116.16 154.68 116.261 154.665 116.433C154.651 116.692 154.392 116.807 153.904 116.792C153.415 116.792 152.999 116.979 152.64 117.381C152.295 117.769 152.137 118.214 152.137 118.717C152.137 118.875 152.151 119.019 152.194 119.148C152.281 119.507 152.496 119.78 152.826 119.996C153.128 120.182 153.473 120.283 153.861 120.283C154.249 120.283 154.608 120.182 154.909 119.967C155.139 119.809 155.326 119.723 155.47 119.723Z" fill="#010101"/>
<path d="M153.947 121.073C153.66 121.073 153.358 121.044 153.042 120.972C152.453 120.858 152.008 120.585 151.692 120.168C151.419 119.795 151.275 119.349 151.275 118.832C151.275 118.114 151.505 117.453 151.965 116.878C152.453 116.261 153.057 115.945 153.732 115.945C154.019 115.945 154.206 115.945 154.321 115.973C154.752 116.06 154.795 116.304 154.78 116.433C154.752 116.764 154.464 116.922 153.904 116.907C153.459 116.907 153.071 117.08 152.741 117.453C152.425 117.812 152.267 118.243 152.267 118.703C152.267 118.846 152.281 118.976 152.324 119.105C152.41 119.435 152.597 119.68 152.899 119.881C153.186 120.053 153.502 120.139 153.861 120.139C154.22 120.139 154.565 120.039 154.838 119.852C155.096 119.68 155.298 119.593 155.47 119.593C155.599 119.593 155.829 119.651 155.901 120.01C155.901 120.01 155.901 120.053 155.901 120.082C155.901 120.297 155.671 120.513 155.197 120.771C154.838 120.958 154.421 121.059 153.947 121.059V121.073ZM153.732 116.189C153.114 116.189 152.597 116.462 152.152 117.036C151.735 117.568 151.52 118.186 151.52 118.846C151.52 119.306 151.649 119.708 151.893 120.039C152.166 120.398 152.568 120.642 153.1 120.743C153.904 120.901 154.579 120.858 155.096 120.57C155.628 120.283 155.671 120.125 155.671 120.096C155.614 119.852 155.513 119.852 155.47 119.852C155.384 119.852 155.24 119.895 154.982 120.067C154.666 120.283 154.292 120.398 153.861 120.398C153.43 120.398 153.085 120.297 152.769 120.096C152.41 119.866 152.195 119.565 152.094 119.177C152.051 119.033 152.022 118.875 152.022 118.717C152.022 118.186 152.209 117.712 152.568 117.295C152.942 116.864 153.401 116.649 153.919 116.663C154.321 116.663 154.536 116.591 154.551 116.404C154.551 116.361 154.551 116.261 154.292 116.203C154.235 116.203 154.077 116.175 153.746 116.175L153.732 116.189Z" fill="#010101"/>
<path d="M159.722 118.933C159.722 119.593 159.521 120.096 159.133 120.47C158.788 120.8 158.372 120.958 157.869 120.958C157.438 120.958 157.079 120.843 156.792 120.599C156.476 120.34 156.303 120.01 156.303 119.608C156.303 118.875 156.49 118.301 156.878 117.898C157.208 117.539 157.625 117.352 158.128 117.352C158.559 117.352 158.932 117.496 159.234 117.769C159.564 118.071 159.736 118.459 159.736 118.933H159.722ZM159.133 119.22C159.133 118.76 159.09 118.459 158.975 118.315C158.86 118.157 158.587 118.071 158.156 118.042C157.481 117.999 157.079 118.358 156.964 119.119C156.95 119.234 156.935 119.335 156.935 119.421C156.935 119.996 157.266 120.297 157.941 120.312C158.717 120.312 159.119 119.967 159.133 119.22Z" fill="#010101"/>
<path d="M157.869 121.087C157.41 121.087 157.022 120.958 156.706 120.699C156.361 120.427 156.174 120.053 156.174 119.608C156.174 118.846 156.375 118.243 156.792 117.812C157.151 117.424 157.596 117.238 158.128 117.238C158.588 117.238 158.99 117.381 159.306 117.683C159.665 117.999 159.837 118.43 159.837 118.933C159.837 119.622 159.622 120.168 159.205 120.556C158.846 120.901 158.387 121.073 157.855 121.073L157.869 121.087ZM158.128 117.482C157.668 117.482 157.28 117.64 156.964 117.985C156.605 118.372 156.419 118.918 156.419 119.608C156.419 119.981 156.562 120.269 156.849 120.498C157.122 120.714 157.453 120.829 157.855 120.829C158.329 120.829 158.717 120.685 159.033 120.369C159.406 120.024 159.593 119.536 159.593 118.918C159.593 118.473 159.45 118.128 159.133 117.841C158.846 117.582 158.516 117.453 158.114 117.453L158.128 117.482ZM157.97 120.427C157.97 120.427 157.941 120.427 157.927 120.427C157.007 120.427 156.806 119.866 156.806 119.421C156.806 119.32 156.806 119.22 156.835 119.105C156.993 118.071 157.64 117.884 158.157 117.927C158.616 117.956 158.918 118.056 159.062 118.243C159.205 118.415 159.263 118.746 159.248 119.234C159.22 120.024 158.789 120.441 157.97 120.441V120.427ZM158.042 118.157C157.496 118.157 157.18 118.473 157.079 119.134C157.065 119.234 157.051 119.335 157.051 119.421C157.051 119.938 157.324 120.182 157.927 120.182C158.645 120.182 158.975 119.881 159.004 119.22C159.019 118.688 158.947 118.473 158.875 118.387C158.803 118.301 158.631 118.2 158.157 118.157C158.114 118.157 158.085 118.157 158.056 118.157H158.042Z" fill="#010101"/>
<path d="M160.885 118.143C161.173 117.597 161.517 117.324 161.905 117.324C162.351 117.324 162.71 117.654 162.997 118.329C163.241 118.89 163.356 119.493 163.356 120.111C163.356 120.527 163.299 120.757 163.169 120.814C163.112 120.843 163.054 120.843 163.011 120.843C162.868 120.843 162.782 120.685 162.767 120.383C162.753 119.967 162.681 119.507 162.552 119.004C162.365 118.301 162.149 117.956 161.877 117.956C161.79 117.956 161.704 117.999 161.604 118.071C161.259 118.358 161.058 118.918 161.015 119.751C160.972 120.57 160.857 120.972 160.684 120.972H160.67C160.483 120.944 160.383 120.8 160.383 120.556C160.383 120.326 160.383 120.01 160.397 119.593C160.397 119.392 160.397 119.105 160.354 118.746C160.311 118.358 160.296 118.085 160.296 117.913C160.296 117.755 160.325 117.611 160.383 117.496C160.44 117.381 160.512 117.324 160.598 117.324C160.77 117.324 160.871 117.597 160.871 118.128L160.885 118.143Z" fill="#010101"/>
<path d="M160.713 121.13H160.67C160.526 121.102 160.282 121.001 160.282 120.585C160.282 120.355 160.282 120.024 160.296 119.622C160.296 119.421 160.296 119.148 160.253 118.803C160.21 118.415 160.196 118.128 160.196 117.956C160.196 117.783 160.239 117.611 160.296 117.482C160.383 117.324 160.483 117.238 160.612 117.238C160.857 117.238 160.943 117.482 160.986 117.769C161.244 117.41 161.56 117.223 161.92 117.223C162.422 117.223 162.825 117.582 163.126 118.315C163.37 118.889 163.5 119.507 163.5 120.154C163.5 120.642 163.414 120.886 163.241 120.972C163.155 121.001 163.098 121.015 163.04 121.015C162.882 121.015 162.695 120.915 162.681 120.441C162.667 120.039 162.595 119.579 162.465 119.091C162.25 118.257 162.02 118.142 161.905 118.142C161.848 118.142 161.776 118.171 161.718 118.229C161.402 118.487 161.216 119.033 161.173 119.823C161.115 120.771 160.986 121.159 160.713 121.159V121.13ZM160.612 117.467C160.612 117.467 160.555 117.496 160.512 117.582C160.454 117.683 160.44 117.798 160.44 117.941C160.44 118.099 160.454 118.387 160.497 118.76C160.541 119.119 160.555 119.407 160.541 119.622C160.541 120.039 160.526 120.355 160.526 120.585C160.526 120.814 160.627 120.872 160.713 120.886C160.713 120.886 160.871 120.8 160.928 119.78C160.972 118.889 161.187 118.315 161.56 117.999C161.675 117.913 161.79 117.855 161.905 117.855C162.236 117.855 162.494 118.229 162.695 118.99C162.825 119.507 162.896 119.967 162.925 120.398C162.925 120.484 162.954 120.743 163.04 120.743C163.054 120.743 163.098 120.743 163.141 120.714C163.141 120.714 163.256 120.656 163.256 120.125C163.256 119.522 163.141 118.933 162.911 118.387C162.652 117.769 162.322 117.453 161.934 117.453C161.589 117.453 161.273 117.712 161.015 118.2L160.785 118.631V118.142C160.785 117.611 160.684 117.467 160.627 117.467H160.612Z" fill="#010101"/>
<path d="M166.732 119.938C166.818 119.938 166.876 119.981 166.905 120.082C166.905 120.111 166.919 120.154 166.933 120.211V120.24C166.933 120.412 166.732 120.599 166.316 120.814C166.1 120.929 165.885 120.987 165.64 120.987C165.31 120.987 164.965 120.886 164.606 120.671C164.118 120.383 163.874 119.953 163.874 119.349C163.874 118.861 164.046 118.444 164.376 118.071C164.735 117.669 165.195 117.467 165.755 117.467C166.114 117.467 166.301 117.568 166.316 117.783C166.33 117.999 166.229 118.114 166 118.114C165.956 118.114 165.87 118.114 165.755 118.114C165.64 118.114 165.554 118.114 165.482 118.114C164.922 118.114 164.577 118.487 164.477 119.22C164.477 119.277 164.477 119.32 164.477 119.378C164.477 119.68 164.592 119.938 164.836 120.139C165.066 120.326 165.324 120.427 165.612 120.427C165.87 120.427 166.086 120.34 166.287 120.182C166.459 120.039 166.603 119.967 166.732 119.967V119.938Z" fill="#010101"/>
<path d="M165.654 121.116C165.31 121.116 164.936 121.001 164.563 120.786C164.031 120.484 163.758 119.996 163.758 119.364C163.758 118.846 163.945 118.401 164.29 118.013C164.678 117.582 165.166 117.381 165.755 117.381C166.287 117.381 166.43 117.611 166.445 117.798C166.445 117.941 166.43 118.056 166.358 118.128C166.287 118.214 166.172 118.257 166.014 118.257C165.97 118.257 165.884 118.257 165.769 118.257C165.654 118.257 165.568 118.257 165.511 118.257C165.008 118.257 164.721 118.588 164.62 119.249C164.62 119.292 164.62 119.349 164.62 119.392C164.62 119.665 164.721 119.881 164.936 120.067C165.137 120.24 165.367 120.326 165.64 120.326C165.87 120.326 166.057 120.254 166.229 120.111C166.43 119.938 166.603 119.866 166.746 119.866C166.832 119.866 166.976 119.895 167.048 120.096C167.048 120.139 167.077 120.182 167.077 120.24V120.283C167.077 120.498 166.861 120.714 166.401 120.958C166.172 121.087 165.927 121.145 165.669 121.145L165.654 121.116ZM165.769 117.597C165.238 117.597 164.821 117.783 164.477 118.157C164.161 118.502 164.003 118.89 164.003 119.349C164.003 119.895 164.218 120.297 164.678 120.556C165.267 120.901 165.812 120.944 166.272 120.7C166.775 120.427 166.818 120.283 166.818 120.24V120.211C166.818 120.211 166.804 120.139 166.789 120.111C166.775 120.053 166.746 120.053 166.732 120.053C166.674 120.053 166.559 120.082 166.373 120.24C166.157 120.412 165.913 120.513 165.626 120.513C165.31 120.513 165.008 120.412 164.764 120.197C164.491 119.967 164.362 119.68 164.362 119.335C164.362 119.277 164.362 119.206 164.376 119.148C164.52 118.157 165.066 117.941 165.496 117.941C165.568 117.941 165.669 117.941 165.784 117.941C165.899 117.941 165.97 117.941 166.014 117.941C166.071 117.941 166.143 117.941 166.172 117.898C166.2 117.87 166.2 117.798 166.2 117.755C166.2 117.712 166.186 117.554 165.755 117.554L165.769 117.597Z" fill="#010101"/>
<path d="M168.054 119.004C168.586 117.827 169.002 117.238 169.333 117.238H169.376C169.491 117.252 169.62 117.309 169.749 117.41C169.893 117.51 169.95 117.597 169.95 117.697V117.726C169.922 117.913 169.85 118.013 169.721 118.013C169.663 118.013 169.606 117.985 169.534 117.941C169.505 117.927 169.476 117.913 169.433 117.913C169.261 117.913 169.045 118.157 168.772 118.66C168.499 119.177 168.356 119.651 168.356 120.082C168.356 120.139 168.356 120.197 168.356 120.297C168.356 120.383 168.356 120.455 168.356 120.513C168.356 120.829 168.241 120.987 168.025 120.987C167.753 120.987 167.623 120.757 167.638 120.283C167.638 119.967 167.595 119.636 167.494 119.292C167.393 118.961 167.336 118.746 167.336 118.66C167.336 118.559 167.365 118.473 167.436 118.372C167.508 118.272 167.58 118.229 167.652 118.229C167.839 118.229 167.968 118.487 168.011 119.004H168.054Z" fill="#010101"/>
<path d="M168.068 121.116C167.939 121.116 167.824 121.073 167.738 120.987C167.609 120.857 167.551 120.628 167.551 120.297C167.551 119.996 167.508 119.665 167.408 119.349C167.264 118.875 167.25 118.746 167.25 118.674C167.25 118.545 167.293 118.43 167.379 118.315C167.465 118.186 167.58 118.128 167.695 118.128C167.939 118.128 168.054 118.372 168.111 118.602C168.743 117.295 169.103 117.137 169.332 117.137H169.376C169.534 117.166 169.663 117.223 169.821 117.324C169.993 117.439 170.079 117.582 170.079 117.712V117.74C170.036 118.099 169.835 118.157 169.735 118.157C169.648 118.157 169.577 118.128 169.476 118.071C169.476 118.071 169.462 118.071 169.447 118.071C169.419 118.071 169.261 118.099 168.901 118.76C168.643 119.249 168.499 119.708 168.499 120.125C168.499 120.168 168.499 120.24 168.499 120.326C168.499 120.427 168.499 120.498 168.499 120.556C168.499 121.073 168.212 121.159 168.04 121.159L168.068 121.116ZM167.709 118.358C167.709 118.358 167.623 118.401 167.594 118.444C167.537 118.516 167.508 118.588 167.508 118.66C167.508 118.703 167.522 118.832 167.652 119.263C167.752 119.608 167.81 119.952 167.795 120.283C167.795 120.613 167.853 120.743 167.91 120.8C167.953 120.843 167.996 120.857 168.068 120.857C168.14 120.857 168.284 120.857 168.284 120.498C168.284 120.455 168.284 120.383 168.284 120.297C168.284 120.197 168.284 120.125 168.284 120.082C168.284 119.636 168.427 119.134 168.715 118.602C169.088 117.898 169.376 117.683 169.634 117.826C169.706 117.87 169.735 117.884 169.763 117.884C169.778 117.884 169.85 117.884 169.864 117.697C169.864 117.697 169.806 117.568 169.706 117.496C169.591 117.41 169.476 117.367 169.39 117.352H169.361C169.203 117.352 168.858 117.568 168.198 119.048L168.011 119.478L167.968 119.019C167.925 118.53 167.824 118.358 167.738 118.358H167.709Z" fill="#010101"/>
<path d="M171.014 119.177C170.999 119.579 171.1 119.909 171.315 120.125C171.516 120.326 171.789 120.441 172.134 120.441C172.407 120.441 172.68 120.369 172.967 120.24C173.211 120.125 173.398 120.067 173.527 120.067C173.7 120.067 173.8 120.154 173.815 120.312C173.815 120.484 173.585 120.656 173.14 120.843C172.881 120.958 172.594 121.015 172.292 121.015C171.962 121.015 171.631 120.958 171.301 120.829C170.726 120.599 170.439 120.11 170.439 119.335C170.439 119.205 170.439 119.076 170.453 118.933C170.511 118.372 170.726 117.927 171.085 117.611C171.401 117.338 171.761 117.194 172.191 117.194C172.579 117.194 172.924 117.309 173.197 117.554C173.484 117.812 173.642 118.142 173.642 118.559C173.642 118.775 173.571 118.976 173.427 119.134C173.283 119.292 172.996 119.378 172.551 119.378C172.163 119.378 171.66 119.32 171.028 119.191L171.014 119.177ZM171.1 118.559C171.66 118.674 172.091 118.731 172.393 118.731C172.895 118.731 173.125 118.602 173.068 118.344C173.01 118.157 172.91 117.999 172.752 117.898C172.594 117.798 172.407 117.74 172.206 117.74C171.962 117.74 171.746 117.812 171.545 117.941C171.33 118.099 171.186 118.3 171.1 118.573V118.559Z" fill="#010101"/>
<path d="M172.277 121.13C171.933 121.13 171.588 121.059 171.243 120.929C170.611 120.685 170.295 120.139 170.295 119.32C170.295 119.191 170.295 119.062 170.309 118.904C170.381 118.315 170.597 117.841 170.97 117.496C171.3 117.194 171.703 117.051 172.148 117.051C172.565 117.051 172.938 117.18 173.24 117.439C173.556 117.712 173.728 118.085 173.728 118.53C173.728 118.775 173.642 119.004 173.484 119.177C173.182 119.507 172.435 119.536 171.114 119.292C171.114 119.593 171.214 119.838 171.387 120.01C171.573 120.197 171.803 120.283 172.119 120.283C172.378 120.283 172.636 120.225 172.895 120.096C173.154 119.967 173.355 119.909 173.513 119.909C173.743 119.909 173.886 120.039 173.929 120.254V120.297C173.929 120.498 173.699 120.699 173.168 120.929C172.895 121.044 172.593 121.102 172.277 121.102V121.13ZM172.177 117.309C171.775 117.309 171.444 117.439 171.157 117.697C170.826 117.985 170.625 118.415 170.568 118.947C170.568 119.076 170.553 119.22 170.553 119.335C170.553 120.053 170.812 120.498 171.344 120.714C171.961 120.944 172.579 120.958 173.096 120.743C173.699 120.484 173.699 120.34 173.699 120.34C173.699 120.254 173.656 120.197 173.527 120.197C173.455 120.197 173.297 120.225 173.01 120.355C172.708 120.498 172.407 120.57 172.119 120.57C171.746 120.57 171.444 120.455 171.214 120.225C170.97 119.981 170.855 119.622 170.87 119.177V119.033L171.013 119.062C171.631 119.177 172.134 119.249 172.507 119.249C173.01 119.249 173.211 119.148 173.297 119.048C173.426 118.904 173.484 118.746 173.484 118.559C173.484 118.171 173.355 117.87 173.082 117.64C172.823 117.424 172.521 117.309 172.162 117.309H172.177ZM172.407 118.846C172.091 118.846 171.66 118.789 171.085 118.674L170.956 118.645L170.999 118.516C171.085 118.229 171.243 117.985 171.487 117.826C171.703 117.683 171.947 117.611 172.205 117.611C172.435 117.611 172.636 117.668 172.823 117.783C173.01 117.913 173.139 118.085 173.197 118.301C173.24 118.459 173.197 118.573 173.139 118.631C173.024 118.775 172.794 118.846 172.407 118.846ZM171.272 118.473C171.76 118.559 172.134 118.617 172.407 118.617C172.809 118.617 172.909 118.53 172.938 118.502C172.938 118.487 172.967 118.459 172.952 118.387C172.909 118.229 172.823 118.099 172.694 118.013C172.392 117.812 171.947 117.826 171.631 118.056C171.473 118.171 171.358 118.315 171.286 118.487L171.272 118.473Z" fill="#010101"/>
<path d="M175.136 118.143C175.107 119.191 175.136 119.852 175.236 120.139C175.294 120.326 175.409 120.383 175.581 120.34C175.725 120.283 175.868 120.225 176.026 120.168C176.184 120.125 176.256 120.211 176.27 120.398C176.27 120.57 176.213 120.728 176.041 120.829C175.883 120.929 175.71 120.987 175.48 120.987C175.193 120.987 174.978 120.901 174.834 120.743C174.662 120.541 174.575 119.909 174.575 118.875C174.575 118.688 174.575 118.444 174.575 118.157C174.274 118.128 174.116 117.999 174.116 117.798C174.116 117.611 174.231 117.525 174.475 117.525H174.604C174.662 116.548 174.777 116.045 174.963 116.045C175.164 116.074 175.265 116.218 175.265 116.491C175.265 116.577 175.265 116.663 175.236 116.763C175.179 117.008 175.15 117.266 175.121 117.554L175.868 117.51C176.127 117.51 176.27 117.597 176.299 117.783C176.299 117.984 175.897 118.114 175.093 118.157L175.136 118.143Z" fill="#010101"/>
<path d="M175.48 121.102C175.15 121.102 174.905 121.001 174.747 120.814C174.618 120.671 174.46 120.312 174.46 118.861C174.46 118.703 174.46 118.487 174.46 118.243C174.087 118.171 174 117.956 174 117.783C174 117.668 174.044 117.381 174.475 117.381H174.489C174.575 116.088 174.762 115.902 174.963 115.902H174.992C175.15 115.916 175.408 116.017 175.408 116.462C175.408 116.548 175.408 116.649 175.38 116.764C175.336 116.965 175.308 117.166 175.279 117.396L175.882 117.352C176.328 117.352 176.414 117.597 176.443 117.74C176.443 118.028 176.083 118.186 175.236 118.243C175.207 119.206 175.236 119.823 175.322 120.082C175.365 120.211 175.408 120.24 175.523 120.197L175.954 120.024C176.098 119.981 176.184 120.024 176.227 120.053C176.313 120.111 176.356 120.211 176.371 120.369C176.385 120.585 176.285 120.786 176.083 120.915C175.911 121.03 175.71 121.087 175.466 121.087L175.48 121.102ZM174.475 117.625C174.245 117.625 174.245 117.726 174.245 117.783C174.245 117.841 174.245 117.985 174.604 118.013H174.719V118.143C174.719 118.43 174.719 118.674 174.719 118.861C174.719 120.182 174.862 120.556 174.949 120.656C175.063 120.786 175.236 120.858 175.494 120.858C175.696 120.858 175.854 120.814 175.983 120.728C176.112 120.642 176.17 120.541 176.17 120.412C176.17 120.326 176.141 120.297 176.127 120.283C176.127 120.283 176.098 120.283 176.069 120.283L175.638 120.455C175.38 120.527 175.193 120.427 175.121 120.182C175.02 119.881 174.992 119.22 175.02 118.157V118.042H175.135C176.198 117.97 176.227 117.783 176.227 117.783C176.227 117.755 176.213 117.625 175.925 117.625L175.035 117.683V117.539C175.063 117.252 175.107 116.979 175.164 116.735C175.178 116.649 175.193 116.562 175.193 116.491C175.193 116.189 175.063 116.175 174.992 116.175C174.992 116.175 174.819 116.304 174.747 117.554V117.683L174.489 117.654L174.475 117.625Z" fill="#010101"/>
<path d="M177.42 119.177C177.405 119.579 177.506 119.909 177.721 120.125C177.923 120.326 178.196 120.441 178.54 120.441C178.813 120.441 179.086 120.369 179.373 120.24C179.618 120.125 179.804 120.067 179.934 120.067C180.106 120.067 180.207 120.154 180.221 120.312C180.221 120.484 179.991 120.656 179.546 120.843C179.287 120.958 179 121.015 178.698 121.015C178.368 121.015 178.038 120.958 177.707 120.829C177.133 120.599 176.845 120.11 176.845 119.335C176.845 119.205 176.845 119.076 176.86 118.933C176.917 118.372 177.133 117.927 177.492 117.611C177.808 117.338 178.167 117.194 178.598 117.194C178.986 117.194 179.33 117.309 179.603 117.554C179.891 117.812 180.049 118.142 180.049 118.559C180.049 118.775 179.977 118.976 179.833 119.134C179.689 119.292 179.402 119.378 178.957 119.378C178.569 119.378 178.066 119.32 177.434 119.191L177.42 119.177ZM177.506 118.559C178.066 118.674 178.497 118.731 178.799 118.731C179.302 118.731 179.531 118.602 179.474 118.344C179.417 118.157 179.316 117.999 179.158 117.898C179 117.798 178.813 117.74 178.612 117.74C178.368 117.74 178.152 117.812 177.951 117.941C177.736 118.099 177.592 118.3 177.506 118.573V118.559Z" fill="#010101"/>
<path d="M178.684 121.13C178.339 121.13 177.994 121.059 177.65 120.929C177.018 120.685 176.702 120.139 176.702 119.32C176.702 119.191 176.702 119.062 176.716 118.904C176.788 118.315 177.003 117.841 177.377 117.496C177.707 117.194 178.109 117.051 178.555 117.051C178.971 117.051 179.345 117.18 179.646 117.439C179.962 117.712 180.135 118.085 180.135 118.53C180.135 118.775 180.049 119.004 179.891 119.177C179.589 119.507 178.842 119.536 177.52 119.292C177.52 119.593 177.621 119.838 177.793 120.01C177.98 120.197 178.21 120.283 178.526 120.283C178.785 120.283 179.043 120.225 179.302 120.096C179.56 119.967 179.761 119.909 179.919 119.909C180.149 119.909 180.293 120.039 180.336 120.254V120.297C180.336 120.498 180.106 120.699 179.575 120.929C179.302 121.044 179 121.102 178.684 121.102V121.13ZM178.583 117.309C178.181 117.309 177.851 117.439 177.564 117.697C177.233 117.985 177.032 118.415 176.975 118.947C176.975 119.076 176.96 119.22 176.96 119.335C176.96 120.053 177.219 120.498 177.75 120.714C178.368 120.944 178.986 120.958 179.503 120.743C180.106 120.484 180.106 120.34 180.106 120.34C180.106 120.254 180.063 120.197 179.934 120.197C179.862 120.197 179.704 120.225 179.417 120.355C179.115 120.498 178.813 120.57 178.526 120.57C178.153 120.57 177.851 120.455 177.621 120.225C177.377 119.981 177.262 119.622 177.276 119.177V119.033L177.42 119.062C178.038 119.177 178.54 119.249 178.914 119.249C179.417 119.249 179.618 119.148 179.704 119.048C179.833 118.904 179.891 118.746 179.891 118.559C179.891 118.171 179.761 117.87 179.488 117.64C179.23 117.424 178.928 117.309 178.569 117.309H178.583ZM178.813 118.846C178.497 118.846 178.066 118.789 177.492 118.674L177.362 118.645L177.406 118.516C177.492 118.229 177.65 117.985 177.894 117.826C178.109 117.683 178.354 117.611 178.612 117.611C178.842 117.611 179.043 117.668 179.23 117.783C179.417 117.913 179.546 118.085 179.603 118.301C179.646 118.459 179.603 118.573 179.546 118.631C179.431 118.775 179.201 118.846 178.813 118.846ZM177.678 118.473C178.167 118.559 178.54 118.617 178.813 118.617C179.216 118.617 179.316 118.53 179.345 118.502C179.345 118.487 179.374 118.459 179.359 118.387C179.316 118.229 179.23 118.099 179.101 118.013C178.799 117.812 178.354 117.826 178.038 118.056C177.88 118.171 177.765 118.315 177.693 118.487L177.678 118.473Z" fill="#010101"/>
<path d="M249.445 39.7244C249.976 39.7244 250.335 39.71 250.766 40.0404C250.853 40.2272 250.896 40.3852 250.91 40.5863C251.054 45.3555 250.881 50.1677 250.881 54.9369L250.91 85.5916V118.444C250.91 124.003 251.039 129.606 250.867 135.165C249.028 135.309 247.075 135.179 245.222 135.179L234.003 135.151H200.231L198.794 135.136C198.564 132.421 198.708 129.606 198.708 126.876L198.737 111.966V64.6045V48.6881C198.737 46.0019 198.622 43.2869 198.737 40.615C198.737 40.3565 198.794 40.1841 198.938 39.9542C199.397 39.7819 199.9 39.7819 200.374 39.7675C205.1 39.6095 209.884 39.7675 214.61 39.7675L249.43 39.7244H249.445Z" fill="#010101"/>
<path d="M199.642 40.6293H249.919V134.231C233.169 134.044 216.405 134.217 199.642 134.231V40.6293Z" fill="#EAD2CC"/>
<path d="M203.477 44.3212C213.475 44.1057 223.516 44.3212 233.514 44.3068H241.817C243.182 44.3068 244.949 44.1201 246.256 44.4217C246.471 44.7952 246.5 45.2118 246.5 45.6284C246.558 48.6019 246.457 51.6042 246.457 54.5921V75.608L246.486 130.439C244.862 130.597 243.153 130.482 241.53 130.482H232.221L203.262 130.439C203.032 126.891 203.219 123.199 203.219 119.622L203.247 99.109C203.276 81.239 203.061 63.3547 203.247 45.4847C203.247 45.0681 203.219 44.6803 203.463 44.3068L203.477 44.3212Z" fill="#010101"/>
<path d="M241.3 97.2128H245.466L245.451 105.803H241.314L241.3 97.2128Z" fill="#D99897"/>
<path d="M241.329 76.6854H245.437C245.437 79.6014 245.437 82.5175 245.423 85.4336H241.357C241.357 82.5175 241.357 79.6014 241.329 76.6854Z" fill="#D99897"/>
<path d="M241.314 56.3303H245.466C245.437 59.2176 245.437 62.0906 245.466 64.9636C244.159 65.1073 242.679 64.9923 241.358 64.978L241.314 56.3159V56.3303Z" fill="#D99897"/>
<path d="M204.181 97.141L215.486 97.1697V105.846H204.195V97.141H204.181Z" fill="#EAD2CC"/>
<path d="M204.225 56.2728H215.501C215.515 59.1888 215.501 62.1049 215.501 65.0066H204.225V56.2728Z" fill="#EAD2CC"/>
<path d="M204.196 76.513C207.959 76.4699 211.737 76.513 215.515 76.5273V85.4336H204.196V76.513Z" fill="#EAD2CC"/>
<path d="M228.429 65.9261H245.437V75.7517L228.429 75.7086V65.9261Z" fill="#EAD2CC"/>
<path d="M228.4 86.3099L245.437 86.3386L245.466 96.3222C239.806 96.509 234.06 96.2935 228.386 96.2648V86.3099H228.4Z" fill="#EAD2CC"/>
<path d="M228.443 45.2549H245.509L245.494 55.4253H228.429L228.443 45.2549Z" fill="#D99897"/>
<path d="M216.406 97.1698L240.41 97.2129V105.817L216.42 105.889C216.42 102.988 216.42 100.072 216.406 97.1698Z" fill="#D99897"/>
<path d="M216.435 56.2728L240.438 56.3015V65.0354L216.435 65.0497V56.2728Z" fill="#D99897"/>
<path d="M216.435 76.5704L240.41 76.6422V85.4048C232.423 85.3474 224.436 85.3617 216.449 85.4336V76.556L216.435 76.5704Z" fill="#D99897"/>
<path d="M204.195 65.8973H227.538C227.509 69.1725 227.509 72.4477 227.538 75.7085L204.181 75.6511V65.8829L204.195 65.8973Z" fill="#D99897"/>
<path d="M226.691 86.2811C226.949 86.2811 227.179 86.2955 227.438 86.353C227.711 87.0856 227.538 94.8139 227.538 96.2648H205.086C204.77 96.2648 204.569 96.2648 204.281 96.1786C204.066 95.1443 204.21 93.8658 204.21 92.8172V86.3386C211.708 86.353 219.206 86.3386 226.705 86.2811H226.691Z" fill="#D99897"/>
<path d="M204.224 45.1975L227.538 45.2262V55.411L204.21 55.3822C204.195 51.9921 204.21 48.5876 204.21 45.1975H204.224Z" fill="#EAD2CC"/>
<path d="M204.181 106.766H245.451L245.48 129.548C231.69 129.721 217.885 129.548 204.095 129.577C204.023 121.978 204.095 114.365 204.167 106.766H204.181Z" fill="#FFFEFC"/>
<path d="M225.168 118.933C225.542 118.904 225.973 118.861 226.303 119.048C226.49 119.163 226.461 119.206 226.519 119.392C226.389 119.737 226.188 119.866 225.901 120.082C225.714 120.096 225.441 120.154 225.255 120.125C224.939 120.068 224.881 119.996 224.723 119.751C224.781 119.349 224.91 119.234 225.154 118.918L225.168 118.933Z" fill="#FFFEFC"/>
<path d="M223.574 114.954C224.062 114.982 224.335 115.025 224.694 115.37C224.709 115.787 224.622 115.902 224.436 116.261C224.393 116.261 224.35 116.261 224.292 116.261C223.861 116.246 223.689 116.16 223.401 115.873C223.33 115.471 223.401 115.313 223.559 114.954H223.574Z" fill="#010101"/>
<path d="M223.545 116.95C223.904 116.95 224.306 116.878 224.608 117.094C224.766 118.43 224.665 119.866 224.651 121.217C224.234 121.217 223.947 121.26 223.602 121.044C223.401 119.723 223.53 118.301 223.545 116.965V116.95Z" fill="#010101"/>
<path d="M220.327 116.749L220.715 116.907L220.816 117.295C221.189 117.209 221.505 116.965 221.893 116.893C222.181 116.835 222.224 116.864 222.454 117.022L222.511 117.353C222.224 117.87 221.534 117.87 221.161 118.301C220.916 118.574 220.902 118.918 220.888 119.263C220.888 119.306 220.888 119.349 220.888 119.392V119.852C220.888 120.398 220.888 120.786 220.672 121.289L220.284 121.418C220.284 121.418 220.241 121.375 220.213 121.346C219.566 120.384 219.609 118.574 219.796 117.467C219.868 117.065 219.997 117.008 220.327 116.764V116.749Z" fill="#010101"/>
<path d="M227.151 116.993C227.754 116.936 228.788 116.85 229.32 117.18C229.679 117.396 229.664 117.554 229.736 117.927C229.262 118.071 228.601 117.956 228.113 117.985C227.711 117.999 227.294 118.099 227.05 118.444C226.835 118.746 226.82 119.306 226.935 119.651C227.036 119.967 227.266 120.154 227.567 120.283C228.07 120.513 228.63 120.283 229.104 120.096C229.32 120.125 229.406 120.154 229.607 120.24L229.535 120.542C229.578 120.671 229.564 120.599 229.478 120.786C228.874 121.188 228.156 121.403 227.424 121.26C226.921 121.159 226.461 120.901 226.188 120.484C225.786 119.881 225.757 119.076 225.958 118.401C226.159 117.683 226.519 117.367 227.165 117.008L227.151 116.993Z" fill="#010101"/>
<path d="M230.785 115.14C231.072 115.14 231.287 115.14 231.56 115.227C232.149 115.945 231.848 117.812 231.819 118.732L233.499 116.95C233.873 116.462 234.404 116.29 234.749 116.462C234.807 116.491 234.965 116.591 235.065 116.85C234.879 117.051 234.706 117.252 234.519 117.453C234.103 117.898 233.686 118.329 233.27 118.775L234.39 120.34C234.591 120.613 234.735 120.814 234.85 121.13L234.749 121.332C234.62 121.332 234.519 121.36 234.376 121.332C233.557 121.174 232.925 120.197 232.422 119.608C231.962 119.838 231.948 120.613 231.632 121.016C231.417 121.274 231.302 121.274 231 121.303L230.813 121.159C230.598 119.809 230.655 116.548 230.813 115.14H230.785Z" fill="#010101"/>
<path d="M213.604 115.284C214.696 115.255 215.96 115.14 217.023 115.384C217.469 115.485 217.957 115.7 218.144 116.146C218.503 116.95 217.885 117.338 217.569 117.97C217.684 118.372 218.244 118.617 218.46 119.004C218.704 119.435 218.56 119.996 218.474 120.441C217.196 121.518 215.142 121.217 213.547 121.188C213.547 119.22 213.533 117.238 213.59 115.27L213.604 115.284Z" fill="#010101"/>
<path d="M214.725 120.312C214.725 120.312 214.926 120.498 216.133 120.312C217.081 120.168 217.569 120.096 217.67 119.823C217.799 119.507 217.454 119.076 217.196 118.875C216.592 118.401 215.544 118.415 214.998 118.99C214.653 119.364 214.452 120.01 214.711 120.312H214.725Z" fill="#FFFEFC"/>
<path d="M214.983 117.482C215.256 117.755 215.817 117.539 216.161 117.41C216.477 117.295 216.808 117.166 216.923 116.85C216.995 116.634 216.966 116.347 216.808 116.175C216.434 115.772 215.357 115.93 214.998 116.548C214.84 116.821 214.782 117.252 214.998 117.467L214.983 117.482Z" fill="#FFFEFC"/>
<path d="M175.164 103.002L175.997 102.312L176.04 100.158C176.04 100.158 179.732 100.79 182.476 98.3189C185.22 95.8481 184.76 94.2393 184.76 94.2393L185.248 99.899L184.386 104.769L177.391 105.588L175.178 102.987L175.164 103.002Z" fill="#FFFBE1"/>
<defs>
<linearGradient id="paint0_linear_55_2" x1="146.793" y1="104.252" x2="151.031" y2="104.252" gradientUnits="userSpaceOnUse">
<stop stop-color="#FCF2C8"/>
<stop offset="1" stop-color="#FFFDF4"/>
</linearGradient>
</defs>
</svg>
