<svg width="344" height="241" viewBox="0 0 344 241" fill="none" xmlns="http://www.w3.org/2000/svg">
<rect x="0.137695" y="0.558594" width="343.438" height="239.623" rx="23" fill="white"/>
<path d="M227.097 189.92H191.923C189.899 189.92 188.256 188.307 188.197 186.282L185.029 31.9169C184.971 29.7167 186.819 27.9859 189.019 28.1326L227.361 30.8902C229.297 31.0368 230.823 32.6503 230.823 34.5865V186.194C230.823 188.248 229.15 189.92 227.097 189.92Z" fill="white"/>
<path d="M193.653 91.0288L194.415 109.305C194.474 111.036 195.882 112.385 197.613 112.415L222.196 112.767C224.015 112.767 225.482 111.329 225.482 109.51V91.2341C225.482 89.474 224.045 88.0072 222.284 87.9778L196.938 87.6258C195.061 87.6258 193.565 89.1513 193.653 90.9994V91.0288Z" fill="url(#paint0_linear_55_2)"/>
<path d="M222.285 115.554L198.112 115.202C196.235 115.202 194.738 116.727 194.826 118.575L195.589 136.851C195.648 138.582 197.056 139.932 198.787 139.961L222.197 140.284C224.016 140.284 225.482 138.846 225.482 137.027V118.751C225.482 116.991 224.045 115.524 222.285 115.495V115.554Z" fill="url(#paint1_linear_55_2)"/>
<path d="M225.483 54.447V40.6884C225.483 39.0456 224.28 37.6668 222.666 37.4615L195.091 33.8825C193.096 33.6185 191.336 35.232 191.424 37.2268L192.128 54.1829C192.186 55.9138 193.594 57.2632 195.325 57.2926L222.197 57.6739C224.016 57.6739 225.483 56.2365 225.483 54.4176V54.447Z" fill="url(#paint2_linear_55_2)"/>
<path d="M192.509 63.4824L193.271 81.7587C193.33 83.4895 194.738 84.8389 196.469 84.8683L222.197 85.2203C224.015 85.2203 225.482 83.7828 225.482 81.964V63.6878C225.482 61.9276 224.045 60.4608 222.285 60.4315L195.794 60.0501C193.917 60.0501 192.421 61.5756 192.509 63.4237V63.4824Z" fill="url(#paint3_linear_55_2)"/>
<path d="M195.972 146.151L196.529 159.469C196.588 161.2 198.025 162.579 199.785 162.579H222.257C224.046 162.579 225.513 161.112 225.513 159.323V146.327C225.513 144.567 224.075 143.1 222.315 143.071L199.287 142.748C197.409 142.748 195.913 144.274 196.001 146.122L195.972 146.151Z" fill="url(#paint4_linear_55_2)"/>
<path d="M229.678 187.866L196.851 200.54C194.973 201.273 192.832 200.364 192.069 198.486L133.485 55.6496C132.664 53.6254 133.749 51.3079 135.832 50.6918L172.59 39.4562C174.467 38.8988 176.433 39.8669 177.137 41.6857L231.76 183.085C232.494 184.992 231.555 187.162 229.619 187.896L229.678 187.866Z" fill="white"/>
<path d="M162.85 107.692L170.154 124.472C170.829 126.056 172.648 126.819 174.261 126.232L197.29 117.695C198.992 117.079 199.842 115.172 199.197 113.471L192.626 96.4266C191.98 94.7838 190.132 93.933 188.46 94.5491L164.698 103.35C162.938 103.995 162.116 105.99 162.85 107.692Z" fill="url(#paint5_linear_55_2)"/>
<path d="M198.376 120.247L175.699 128.637C173.939 129.283 173.118 131.278 173.851 132.979L181.156 149.759C181.831 151.343 183.649 152.106 185.263 151.519L207.235 143.393C208.937 142.777 209.788 140.871 209.142 139.169L202.571 122.125C201.926 120.482 200.077 119.631 198.405 120.247H198.376Z" fill="url(#paint6_linear_55_2)"/>
<path d="M179.336 62.0743L174.379 49.2251C173.792 47.6997 172.179 46.8489 170.594 47.2303L143.576 53.8309C141.611 54.3003 140.554 56.4418 141.376 58.2899L148.152 73.8673C148.827 75.4514 150.646 76.2142 152.259 75.6274L177.459 66.2986C179.16 65.6826 180.011 63.7757 179.366 62.0743H179.336Z" fill="url(#paint7_linear_55_2)"/>
<path d="M151.849 82.404L159.153 99.1841C159.828 100.768 161.647 101.531 163.26 100.944L187.374 91.9968C189.076 91.3807 189.927 89.4739 189.281 87.7724L182.71 70.7283C182.065 69.0855 180.217 68.2347 178.544 68.8508L153.697 78.0622C151.937 78.7076 151.115 80.7025 151.849 82.404Z" fill="url(#paint8_linear_55_2)"/>
<path d="M184.852 158.267L190.161 170.47C190.866 172.055 192.684 172.817 194.298 172.201L215.273 164.105C216.945 163.459 217.767 161.582 217.121 159.909L212.457 147.794C211.811 146.151 209.963 145.3 208.291 145.916L186.7 153.925C184.94 154.57 184.118 156.565 184.852 158.267Z" fill="url(#paint9_linear_55_2)"/>
<path d="M231.702 184.229L209.231 211.276C207.94 212.831 205.623 213.066 204.039 211.805L83.2922 115.612C81.5907 114.233 81.4147 111.71 82.9401 110.126L109.577 82.4039C110.927 80.9958 113.127 80.8785 114.652 82.1106L231.262 178.978C232.847 180.298 233.052 182.645 231.761 184.229H231.702Z" fill="white"/>
<path d="M134.307 146.767L148.858 157.856C150.237 158.912 152.173 158.706 153.288 157.386L169.246 138.699C170.42 137.321 170.244 135.238 168.865 134.094L154.813 122.418C153.434 121.274 151.44 121.45 150.266 122.799L133.809 142.073C132.606 143.481 132.841 145.623 134.307 146.767Z" fill="url(#paint10_linear_55_2)"/>
<path d="M171.447 140.401L155.723 158.795C154.52 160.203 154.755 162.344 156.222 163.488L170.772 174.577C172.151 175.633 174.087 175.428 175.202 174.108L190.428 156.301C191.601 154.922 191.425 152.839 190.046 151.695L175.994 140.02C174.616 138.875 172.621 139.051 171.447 140.401Z" fill="url(#paint11_linear_55_2)"/>
<path d="M126.475 98.8907L115.885 90.0899C114.623 89.0338 112.804 89.0925 111.602 90.2073L91.2132 109.129C89.7464 110.508 89.8637 112.855 91.4479 114.087L104.942 124.384C106.321 125.44 108.257 125.234 109.372 123.914L126.827 103.496C128 102.118 127.824 100.035 126.446 98.8907H126.475Z" fill="url(#paint12_linear_55_2)"/>
<path d="M112.364 130.045L126.915 141.134C128.294 142.19 130.23 141.985 131.345 140.665L148.066 121.098C149.24 119.719 149.064 117.636 147.685 116.492L133.633 104.816C132.254 103.672 130.259 103.848 129.086 105.198L111.866 125.322C110.663 126.73 110.898 128.872 112.364 130.016V130.045Z" fill="url(#paint13_linear_55_2)"/>
<path d="M178.164 180.21L188.755 188.277C190.133 189.333 192.099 189.098 193.214 187.778L207.588 170.5C208.732 169.121 208.556 167.067 207.177 165.923L197.203 157.621C195.824 156.477 193.83 156.653 192.656 158.002L177.695 175.516C176.492 176.924 176.727 179.066 178.194 180.21H178.164Z" fill="url(#paint14_linear_55_2)"/>
<defs>
<linearGradient id="paint0_linear_55_2" x1="205.299" y1="14.3448" x2="212.076" y2="139.55" gradientUnits="userSpaceOnUse">
<stop stop-color="#40509E"/>
<stop offset="1" stop-color="#4857A3"/>
</linearGradient>
<linearGradient id="paint1_linear_55_2" x1="204.361" y1="14.3741" x2="211.167" y2="139.609" gradientUnits="userSpaceOnUse">
<stop stop-color="#40509E"/>
<stop offset="1" stop-color="#4857A3"/>
</linearGradient>
<linearGradient id="paint2_linear_55_2" x1="207.001" y1="14.2275" x2="213.807" y2="139.462" gradientUnits="userSpaceOnUse">
<stop stop-color="#40509E"/>
<stop offset="1" stop-color="#4857A3"/>
</linearGradient>
<linearGradient id="paint3_linear_55_2" x1="206.208" y1="14.2861" x2="213.014" y2="139.492" gradientUnits="userSpaceOnUse">
<stop stop-color="#40509E"/>
<stop offset="1" stop-color="#4857A3"/>
</linearGradient>
<linearGradient id="paint4_linear_55_2" x1="203.482" y1="14.4329" x2="210.288" y2="139.638" gradientUnits="userSpaceOnUse">
<stop stop-color="#40509E"/>
<stop offset="1" stop-color="#4857A3"/>
</linearGradient>
<linearGradient id="paint5_linear_55_2" x1="150.851" y1="48.1104" x2="196.967" y2="142.279" gradientUnits="userSpaceOnUse">
<stop stop-color="#E2473D"/>
<stop offset="1" stop-color="#E9615A"/>
</linearGradient>
<linearGradient id="paint6_linear_55_2" x1="149.238" y1="48.9025" x2="195.354" y2="143.071" gradientUnits="userSpaceOnUse">
<stop stop-color="#E2473D"/>
<stop offset="1" stop-color="#E9615A"/>
</linearGradient>
<linearGradient id="paint7_linear_55_2" x1="153.961" y1="46.6142" x2="200.048" y2="140.753" gradientUnits="userSpaceOnUse">
<stop stop-color="#E2473D"/>
<stop offset="1" stop-color="#E9615A"/>
</linearGradient>
<linearGradient id="paint8_linear_55_2" x1="152.494" y1="47.3182" x2="198.61" y2="141.486" gradientUnits="userSpaceOnUse">
<stop stop-color="#E2473D"/>
<stop offset="1" stop-color="#E9615A"/>
</linearGradient>
<linearGradient id="paint9_linear_55_2" x1="147.712" y1="49.6652" x2="193.828" y2="143.804" gradientUnits="userSpaceOnUse">
<stop stop-color="#E2473D"/>
<stop offset="1" stop-color="#E9615A"/>
</linearGradient>
<linearGradient id="paint10_linear_55_2" x1="99.6323" y1="99.8" x2="196.705" y2="175.017" gradientUnits="userSpaceOnUse">
<stop stop-color="#EE7065"/>
<stop offset="1" stop-color="#F2908F"/>
</linearGradient>
<linearGradient id="paint11_linear_55_2" x1="99.4276" y1="100.064" x2="196.5" y2="175.311" gradientUnits="userSpaceOnUse">
<stop stop-color="#EE7065"/>
<stop offset="1" stop-color="#F2908F"/>
</linearGradient>
<linearGradient id="paint12_linear_55_2" x1="100.043" y1="99.2721" x2="197.116" y2="174.519" gradientUnits="userSpaceOnUse">
<stop stop-color="#EE7065"/>
<stop offset="1" stop-color="#F2908F"/>
</linearGradient>
<linearGradient id="paint13_linear_55_2" x1="99.8674" y1="99.5066" x2="196.94" y2="174.724" gradientUnits="userSpaceOnUse">
<stop stop-color="#EE7065"/>
<stop offset="1" stop-color="#F2908F"/>
</linearGradient>
<linearGradient id="paint14_linear_55_2" x1="99.2214" y1="100.357" x2="196.264" y2="175.575" gradientUnits="userSpaceOnUse">
<stop stop-color="#EE7065"/>
<stop offset="1" stop-color="#F2908F"/>
</linearGradient>
</defs>
</svg>
