<svg width="344" height="241" viewBox="0 0 344 241" fill="none" xmlns="http://www.w3.org/2000/svg">
<rect x="0.137695" y="0.558594" width="343.438" height="239.623" rx="23" fill="white"/>
<path d="M277.363 36.686H66.3506V204.054H277.363V36.686Z" fill="#7CCDF1"/>
<mask id="mask0_55_2" style="mask-type:luminance" maskUnits="userSpaceOnUse" x="66" y="45" width="212" height="160">
<path d="M277.363 45.754H66.3506V204.054H277.363V45.754Z" fill="white"/>
</mask>
<g mask="url(#mask0_55_2)">
<path d="M188.889 214.494C247.53 214.494 295.068 182.846 295.068 143.807C295.068 104.767 247.53 73.1194 188.889 73.1194C130.248 73.1194 82.7102 104.767 82.7102 143.807C82.7102 182.846 130.248 214.494 188.889 214.494Z" fill="url(#paint0_linear_55_2)"/>
<path d="M115.512 94.2692L110.83 76.4561L112.606 75.7565L116.211 92.9776L114.462 68.3568L123.907 70.5632L117.368 92.3318L122.669 81.2995L123.53 82.7256L119.386 92.3318L126.732 87.9458L127.432 89.6679L119.117 94.2692H115.512Z" fill="#3A9936"/>
<path d="M273.757 112.863L269.075 95.0494L270.851 94.3229L274.457 111.544L272.708 86.9232L282.152 89.1297L275.614 110.898L280.915 99.8929L281.803 101.319L277.659 110.898L284.978 106.512L285.677 108.234L277.39 112.863H273.757Z" fill="#3A9936"/>
<path d="M151.676 169.746L146.994 151.933L148.77 151.233L152.402 168.455L150.626 143.807L160.071 146.04L153.532 167.809L158.833 156.776L159.721 158.203L155.577 167.809L162.896 163.423L163.596 165.145L155.308 169.746H151.676Z" fill="#3A9936"/>
<path d="M133.809 90.5289L139.109 70.4017L137.118 69.5945L133.028 89.049L135.019 61.2261L124.337 63.7016L131.737 88.3225L125.736 75.864L124.741 77.4785L129.422 88.3225L121.162 83.3714L120.354 85.3088L129.718 90.5289H133.809Z" fill="#3A9936"/>
<path d="M188.89 73.1194C188.89 73.1194 157.219 86.0891 145.084 122.334C132.948 158.579 162.708 124.272 162.708 124.272C164.377 118.083 168.467 106.162 178.907 94.9687C191.769 81.1649 206.757 76.5098 212.973 74.9491C204.927 74.3302 196.908 73.7383 188.863 73.1194H188.89Z" fill="#4C3F24"/>
<path d="M140.536 235.779C187.57 235.779 225.7 210.383 225.7 179.056C225.7 147.73 187.57 122.334 140.536 122.334C93.501 122.334 55.3718 147.73 55.3718 179.056C55.3718 210.383 93.501 235.779 140.536 235.779Z" fill="#2F8A36"/>
<path d="M87.3922 141.52L82.7102 123.707L84.4861 123.007L88.0918 140.228L86.3159 115.58L95.7875 117.787L89.2489 139.582L94.5497 128.55L95.4108 129.976L91.267 139.582L98.5859 135.196L99.3125 136.918L90.9979 141.52H87.3922Z" fill="#3A9936"/>
<path d="M129.584 122.792C134.751 122.63 139.917 122.469 145.083 122.334C150.25 123.76 161.067 127.554 169.758 137.726C173.364 141.95 175.705 146.175 177.212 149.646C171.749 151.287 166.287 152.902 160.825 154.543C159.183 150.292 156.331 144.345 151.245 138.371C143.469 129.223 134.536 124.81 129.584 122.792Z" fill="#4C3F24"/>
<path d="M200.514 260.776C247.549 260.776 285.678 235.381 285.678 204.054C285.678 172.727 247.549 147.332 200.514 147.332C153.479 147.332 115.35 172.727 115.35 204.054C115.35 235.381 153.479 260.776 200.514 260.776Z" fill="#53AF3F"/>
<path d="M242.356 163.719L237.674 145.906L239.45 145.206L243.055 162.427L241.306 137.779L250.751 139.986L244.212 161.781L249.513 150.749L250.374 152.175L246.231 161.781L253.576 157.368L254.276 159.117L245.962 163.719H242.356Z" fill="#53AF3F"/>
<path d="M136.931 179.056L132.249 161.243L134.024 160.517L137.63 177.738L135.881 153.117L145.326 155.324L138.787 177.092L144.088 166.087L144.949 167.513L140.805 177.092L148.151 172.706L148.851 174.428L140.536 179.056H136.931Z" fill="#53AF3F"/>
<path d="M217.439 148.462C206.272 146.928 196.37 147.143 188.324 147.924C181.92 154.355 171.776 166.436 166.582 184.33C155.685 221.894 175.731 253.672 179.202 258.973C187.302 260.238 197.903 261.099 210.2 260.076C221.098 259.161 230.381 256.982 237.646 254.749C232.911 251.17 216.604 237.985 211.895 214.736C204.738 179.406 230.973 153.413 232.884 151.583C228.282 150.345 223.089 149.242 217.439 148.462Z" fill="#4C3F24"/>
</g>
<defs>
<linearGradient id="paint0_linear_55_2" x1="222.901" y1="72.9848" x2="154.878" y2="214.656" gradientUnits="userSpaceOnUse">
<stop stop-color="#41A362"/>
<stop offset="1" stop-color="#20502F"/>
</linearGradient>
</defs>
</svg>
