<svg width="344" height="241" viewBox="0 0 344 241" fill="none" xmlns="http://www.w3.org/2000/svg">
<rect x="0.137695" y="0.558594" width="343.438" height="239.623" rx="23" fill="white"/>
<path d="M182.72 188.163C182.72 188.163 182.635 188.163 182.578 188.163C181.898 188.078 181.416 187.483 181.501 186.803C183.485 170.251 186.829 153.756 191.392 137.743C191.591 137.091 192.243 136.722 192.894 136.892C193.546 137.091 193.915 137.743 193.745 138.394C189.182 154.294 185.894 170.676 183.91 187.086C183.825 187.71 183.315 188.163 182.691 188.163H182.72Z" fill="url(#paint0_linear_55_2)"/>
<path d="M187.227 187.256C187.227 187.256 187.142 187.256 187.085 187.256C186.405 187.171 185.923 186.576 186.008 185.896C187.992 169.344 191.337 152.849 195.9 136.836C196.098 136.184 196.75 135.815 197.402 135.985C198.054 136.184 198.422 136.836 198.252 137.488C193.689 153.387 190.401 169.769 188.417 186.179C188.332 186.803 187.822 187.256 187.199 187.256H187.227Z" fill="url(#paint1_linear_55_2)"/>
<path d="M174.132 167.048C171.524 167.417 168.888 167.955 166.224 168.664C156.815 171.13 147.547 174.729 137.826 175.211C123.144 175.948 108.293 168.891 99.5637 157.044C95.8226 151.942 93.1017 145.678 93.9803 139.415C94.6605 134.653 97.2964 130.43 99.3086 126.066C105.346 112.915 99.5637 97.7803 109.313 87.322C117.249 78.8478 127.254 70.8269 138.846 70.8553C140.858 70.8553 142.87 71.1104 144.826 70.6569C148.482 69.835 151.146 66.8024 153.867 64.2232C168.492 50.3639 191.817 46.5378 210.126 55.0121C217.155 58.2714 223.815 63.8264 225.233 71.4505C226.111 76.1553 224.892 81.2568 226.678 85.6782C228.69 90.6664 233.905 93.4439 238.355 96.4482C255.644 108.21 265.422 132.188 256.579 151.12C249.635 166 232.97 173.029 217.353 173.567C209.021 173.85 201.992 172.065 194.425 169.117C187.623 166.482 180.962 166.085 174.103 167.02L174.132 167.048Z" fill="url(#paint2_linear_55_2)"/>
<path d="M168.011 190.204C167.161 190.204 165.744 189.779 164.893 187.2C163.93 184.337 163.079 181.305 162.229 178.385C158.941 166.963 155.54 155.173 146.358 148.314C145.819 147.918 145.706 147.152 146.102 146.614C146.499 146.075 147.264 145.962 147.803 146.359C157.638 153.699 161.152 165.915 164.553 177.733C165.007 179.292 165.46 180.879 165.942 182.467C164.78 172.972 164.355 163.081 163.93 153.501C163.703 148.173 163.448 142.674 163.079 137.431C163.023 136.751 163.533 136.184 164.213 136.127C164.893 136.071 165.46 136.581 165.517 137.261C165.885 142.533 166.112 148.059 166.367 153.388C166.849 164.356 167.359 175.664 168.918 186.293C169.768 186.775 170.023 187.908 169.825 188.73C169.626 189.58 168.946 190.176 168.124 190.204C168.068 190.204 168.039 190.204 167.983 190.204H168.011Z" fill="url(#paint3_linear_55_2)"/>
<path d="M176.712 188.107C176.712 188.107 176.712 188.107 176.683 188.107C176.003 188.107 175.465 187.511 175.493 186.859C175.947 170.081 174.926 153.132 172.432 136.552C172.319 135.872 172.801 135.249 173.452 135.163C174.133 135.05 174.756 135.532 174.841 136.184C177.335 152.934 178.384 169.996 177.93 186.945C177.93 187.596 177.364 188.135 176.712 188.135V188.107Z" fill="url(#paint4_linear_55_2)"/>
<path d="M106.423 152.169C98.2605 149.023 90.2113 144.176 86.1017 136.411C81.9921 128.673 83.3525 117.591 90.8065 113.028C100.556 107.048 113.338 114.729 124.505 112.291C129.834 111.129 134.34 107.757 139.073 105.093C146.442 100.983 154.973 98.4888 163.334 99.6225C171.695 100.728 179.772 105.914 182.975 113.709C184.874 118.328 185.129 123.713 188.247 127.596C191.563 131.706 197.6 133.378 199.839 138.168C201.794 142.334 199.924 147.549 196.551 150.695C193.178 153.841 188.615 155.343 184.165 156.505C171.213 159.878 157.807 161.125 144.486 162.372C131.931 163.534 118.128 156.675 106.395 152.169H106.423Z" fill="url(#paint5_linear_55_2)"/>
<path d="M180.708 148.428C179.518 144.148 178.951 140.067 174.898 136.325C171.128 132.839 166.509 130.26 163.136 126.377C159.791 122.523 157.949 116.628 160.812 112.376C163.107 108.975 167.614 107.757 171.78 107.53C180.595 107.048 189.579 110.024 196.296 115.607C197.26 116.401 198.223 117.28 199.442 117.563C200.916 117.903 202.446 117.28 203.892 116.769C213.273 113.425 224.156 114.332 232.829 119.15C235.862 120.822 238.667 123.005 240.595 125.839C242.862 129.155 243.882 133.179 246.206 136.439C248.275 139.358 251.28 141.54 253.434 144.375C257.94 150.241 255.163 162.23 250.656 167.587C244.903 174.361 234.53 175.381 225.687 173.737C215.087 171.753 203.863 169.911 194.369 164.583C189.579 161.89 185.158 158.319 182.635 153.416C181.757 151.715 181.19 150.043 180.736 148.399L180.708 148.428Z" fill="url(#paint6_linear_55_2)"/>
<defs>
<linearGradient id="paint0_linear_55_2" x1="181.501" y1="162.514" x2="193.801" y2="162.514" gradientUnits="userSpaceOnUse">
<stop stop-color="#2A3780"/>
<stop offset="1" stop-color="#201D3F"/>
</linearGradient>
<linearGradient id="paint1_linear_55_2" x1="186.008" y1="161.607" x2="198.309" y2="161.607" gradientUnits="userSpaceOnUse">
<stop stop-color="#2A3780"/>
<stop offset="1" stop-color="#201D3F"/>
</linearGradient>
<linearGradient id="paint2_linear_55_2" x1="188.161" y1="-61.6157" x2="175.095" y2="170.223" gradientUnits="userSpaceOnUse">
<stop stop-color="#41A362"/>
<stop offset="1" stop-color="#20502F"/>
</linearGradient>
<linearGradient id="paint3_linear_55_2" x1="145.904" y1="163.137" x2="169.91" y2="163.137" gradientUnits="userSpaceOnUse">
<stop stop-color="#2A3780"/>
<stop offset="1" stop-color="#201D3F"/>
</linearGradient>
<linearGradient id="paint4_linear_55_2" x1="172.432" y1="161.607" x2="178.044" y2="161.607" gradientUnits="userSpaceOnUse">
<stop stop-color="#2A3780"/>
<stop offset="1" stop-color="#201D3F"/>
</linearGradient>
<linearGradient id="paint5_linear_55_2" x1="157.325" y1="84.6862" x2="118.128" y2="212.027" gradientUnits="userSpaceOnUse">
<stop stop-color="#41A362"/>
<stop offset="1" stop-color="#20502F"/>
</linearGradient>
<linearGradient id="paint6_linear_55_2" x1="162.597" y1="28.4838" x2="236.06" y2="201.512" gradientUnits="userSpaceOnUse">
<stop stop-color="#41A362"/>
<stop offset="1" stop-color="#20502F"/>
</linearGradient>
</defs>
</svg>
