<svg width="344" height="241" viewBox="0 0 344 241" fill="none" xmlns="http://www.w3.org/2000/svg">
<rect x="0.137695" y="0.558594" width="343.438" height="239.623" rx="23" fill="white"/>
<g clip-path="url(#clip0_55_2)">
<path d="M182.907 194.766C236.469 189.026 279.038 176.377 277.987 166.514C276.936 156.652 232.663 153.31 179.101 159.051C125.539 164.791 82.9699 177.44 84.021 187.302C85.072 197.165 129.345 200.506 182.907 194.766Z" fill="#F09D28"/>
<path d="M229.411 127.287C227.984 129.147 224.844 129.839 222.632 128.932C222.038 128.694 221.586 128.264 221.253 127.716C223.869 127.382 226.699 126.428 228.412 124.663C230.124 122.922 230.552 120.179 228.721 118.343C226.818 116.411 223.774 116.339 221.396 117.293C218.423 118.486 216.52 121.348 216.068 124.425C215.378 124.21 214.736 123.924 214.118 123.494C214.047 123.351 213.999 123.232 213.928 123.089C213.262 121.753 211.145 122.516 211.74 123.948C211.74 123.995 211.787 124.043 211.787 124.091C211.787 124.258 211.859 124.401 211.977 124.544C212.691 126.309 213.404 128.241 213.143 130.149C212.953 131.723 211.787 133.726 209.956 133.488C206.626 133.035 206.912 127.191 206.793 124.83C206.721 123.637 205.128 123.28 204.414 124.138C204.081 124.568 203.796 125.021 203.558 125.546C203.083 125.736 202.75 126.237 203.011 126.833C203.035 126.905 203.059 126.953 203.083 127.024C202.678 128.98 202.94 131.198 203.772 133.106C203.201 134.823 201.513 137.399 199.539 136.183C198.183 135.348 198.421 132.295 198.326 130.864C198.183 128.932 198.516 127.024 198.445 125.116C198.397 124.21 197.065 123.804 196.542 124.568C194.806 127.12 193.569 132.414 194.592 136.135C193.831 137.972 192.57 140.023 190.739 138.878C189.169 137.9 189.431 134.537 189.241 132.963C189.003 130.96 188.67 128.932 188.266 126.929C189.003 126.833 189.764 126.69 190.477 126.547C192.761 126.046 192 122.731 189.716 123.399C189.003 123.614 188.289 123.781 187.576 123.9C187.267 122.66 186.934 121.443 186.553 120.251C186.22 119.201 184.508 119.392 184.413 120.489C184.294 121.753 184.222 123.041 184.175 124.305C182.272 124.401 180.37 124.329 178.419 124.234C177.444 124.186 176.802 125.617 177.872 126.023C179.87 126.786 181.987 127.144 184.127 127.191C184.127 128.575 184.175 129.958 184.246 131.317C184.365 133.726 184.484 136.445 185.483 138.711C185.031 139.856 184.508 141.072 183.176 141.358C181.559 141.716 180.346 140.571 179.823 139.164C178.919 136.708 179.204 134.084 177.658 131.842C177.159 131.127 175.97 131.437 175.851 132.271C175.851 132.271 175.851 132.271 175.851 132.295C175.399 132.343 174.947 132.581 174.685 133.011C172.759 131.651 169.429 133.846 168.216 135.491C166.813 137.399 165.743 140.452 166.1 143.076C164.554 144.888 162.794 146.51 160.392 147.178C158.275 147.774 156.039 147.25 155.778 145.079C159.773 144.888 164.577 143.076 163.935 138.83C163.079 133.011 154.731 136.254 152.496 139.093C150.759 141.311 150.26 144.221 150.973 146.606C150.831 147.989 150.498 149.348 149.642 150.398C148.595 151.638 146.764 152.139 146.074 150.302C145.575 148.991 146.074 146.916 146.336 145.58C146.716 143.529 147.335 141.502 148.024 139.546C148.595 137.948 146.954 136.564 145.503 137.495C142.602 139.331 139.557 140.094 136.156 140.285C135.348 140.333 135.134 141.239 135.491 141.812C138.249 146.534 135.253 155.335 128.712 153.522C122.338 151.781 127.452 142.002 132.113 141.263C133.136 141.096 133.802 139.617 132.803 138.95C123.599 132.796 114.419 153.498 126.001 156.718C134.373 159.032 140.509 149.348 137.774 142.122C139.415 142.002 141.032 141.764 142.649 141.454C140.152 146.176 139.01 152.759 144.742 154.572C146.954 155.263 149.57 153.904 151.069 152.234C151.853 151.376 152.353 150.35 152.662 149.277C153.613 150.183 154.921 150.803 156.563 150.923C160.439 151.256 164.649 149.038 167.384 146.009C167.527 146.176 167.669 146.343 167.836 146.486C170.428 148.824 174.186 147.393 175.993 144.841C176.517 144.125 176.873 143.314 177.135 142.456C177.753 143.29 178.61 143.982 179.775 144.459C182.581 145.604 186.363 144.173 187.671 141.502C189.383 142.861 191.69 143.171 193.688 142.002C194.925 141.263 195.781 140.214 196.376 139.021C197.279 139.808 198.516 140.285 200.133 140.214C203.011 140.094 204.914 138.306 205.865 135.968C207.007 136.97 208.481 137.542 210.194 137.352C212.786 137.065 214.95 134.8 215.711 132.391C216.258 130.65 216.116 128.885 215.616 127.167C215.783 127.239 215.973 127.31 216.163 127.382C216.425 128.908 217.091 130.363 218.232 131.556C222.181 135.706 230.386 134.37 233.216 129.624C234.524 127.454 230.98 125.355 229.482 127.31L229.411 127.287ZM157.038 140.929C157.538 140.19 161.153 136.922 161.081 140.166C161.058 141.311 158.346 142.432 157.585 142.718C157.038 142.933 156.515 143.1 155.944 143.219C156.182 142.408 156.586 141.621 157.038 140.929ZM174.495 140.023C174.329 141.191 172.83 145.413 170.928 143.934C169.667 142.956 170.928 139.474 171.522 138.353C172.307 136.827 173.282 136.35 174.495 135.634C174.566 137.113 174.685 138.592 174.495 140.047V140.023ZM225.011 120.275C226.557 120.656 226.224 122.039 225.13 122.755C224.392 123.232 223.512 123.59 222.704 123.9C222.038 124.162 221.348 124.377 220.658 124.52C220.73 123.542 220.991 122.588 221.419 121.896C222.133 120.68 223.631 119.941 225.034 120.275H225.011Z" fill="#1D1D1C"/>
<path d="M200.371 119.726C199.563 119.368 198.54 119.607 197.969 120.298C197.969 120.322 197.922 120.346 197.898 120.394C197.256 121.205 197.374 122.421 198.183 123.089C198.207 123.089 198.231 123.137 198.278 123.16C198.897 123.685 199.824 123.733 200.514 123.351C201.18 122.97 201.679 122.183 201.56 121.372C201.465 120.68 201.037 120.036 200.371 119.75V119.726Z" fill="#1D1D1C"/>
<path d="M163.365 57.7145C160.558 50.2254 154.303 45.0737 146.669 43.0941C142.911 42.1401 138.987 42.2355 135.253 43.2372C133.136 43.8096 131.019 44.9067 130.068 47.0294C128.998 49.4145 129.759 52.0619 130.116 54.4947C130.877 59.6225 131.519 64.7743 131.852 69.9498C132.185 74.863 131.757 81.3504 134.896 85.4527C136.014 86.9076 137.536 87.2892 138.939 86.9314C146.36 88.3625 154.065 85.6197 159.155 80.0625C164.601 74.1475 166.147 65.1797 163.341 57.6906L163.365 57.7145ZM153.162 63.7725C153.637 70.1883 148.928 75.197 143.196 75.8886C143.196 75.6501 143.196 75.4116 143.173 75.1731C143.054 72.2872 142.602 69.4013 142.245 66.5392C141.888 63.6533 141.579 60.7912 141.199 57.9053C141.008 56.4027 140.794 54.8763 140.58 53.3737C140.556 53.2067 140.533 53.0398 140.509 52.8728C143.101 52.6582 145.955 53.2306 148.119 54.6378C151.52 56.832 152.9 60.0757 153.185 63.7725H153.162Z" fill="#5BC0C6"/>
<path d="M201.941 45.7892C198.802 41.4484 193.879 37.9662 188.456 37.4415C184.936 37.0837 180.679 37.9423 177.635 40.1127C176.327 40.8998 175.066 41.9015 173.829 43.0702C170.381 46.4093 168.026 50.7978 167.241 55.5679C165.695 64.965 170.214 76.3895 179.632 79.8001C188.718 83.0915 198.921 79.2038 203.725 70.9038C208.22 63.1524 207.078 52.9205 201.917 45.7892H201.941ZM194.212 60.0757C194.212 60.0757 194.116 61.2682 194.116 61.292C194.093 61.5306 193.593 63.6771 193.855 62.9139C193.26 64.7981 192.975 65.2512 191.786 66.5392C192.333 65.9429 190.763 67.3262 190.525 67.4932C190.406 67.5647 190.311 67.6363 190.216 67.684C189.859 67.851 189.479 68.0179 189.098 68.161C188.813 68.2803 188.527 68.3757 188.218 68.4472C188.147 68.4472 187.957 68.4949 187.647 68.5426C187.433 68.5426 185.864 68.5903 185.887 68.6619C185.412 68.5903 184.508 68.4234 184.437 68.4472C183.937 68.2326 182.891 67.7078 183.105 67.8748C180.774 66.3007 179.561 63.4624 179.252 60.982C178.871 57.953 179.585 54.9716 181.321 52.7058C181.654 52.2765 182.035 51.8711 182.439 51.4656C182.962 51.1794 183.462 50.8693 183.985 50.5831C183.604 50.8216 184.96 50.2731 185.103 50.1538C185.721 50.1061 186.839 50.0346 186.53 50.0107C186.91 50.0346 187.291 50.0823 187.671 50.1538C188.385 50.3208 188.527 50.3446 188.075 50.2492C190.834 51.2033 192.594 53.5883 193.522 56.1642C193.641 56.4981 193.736 56.832 193.831 57.1659C193.831 57.2613 193.879 57.4521 193.95 57.7145C194.045 58.5015 194.14 59.2647 194.188 60.0518L194.212 60.0757Z" fill="#5BC0C6"/>
<path d="M245.155 102.22C245.56 105.392 244.608 107.61 241.207 108.23C238.924 108.659 235.975 108.802 234.524 106.68C233.454 105.153 233.121 103.102 232.741 101.313C232.027 97.7834 230.933 93.2041 232.36 89.7458C233.216 87.6708 235.19 86.1921 237.45 86.0967C239.495 86.0013 241.088 87.0745 242.373 88.5056C242.04 88.8633 241.707 89.2211 241.421 89.6504C241.16 90.032 240.803 90.4375 240.66 90.8906C239.638 89.7458 237.878 88.8633 236.427 89.7219C235.143 90.4852 235.024 92.0593 235.048 93.3949C235.048 97.2349 234.929 103.341 239.019 105.273C239.21 105.368 239.4 105.225 239.471 105.058C240.256 105.129 241.065 104.915 241.707 104.39C243.015 103.293 243.158 101.337 242.23 99.9538C242.111 99.7869 241.945 99.7153 241.802 99.7392C241.754 99.6438 241.659 99.5484 241.54 99.5484C240.708 99.4768 239.78 99.6676 238.924 99.8823C238.877 99.4768 238.877 99.0475 238.805 98.6421C238.734 98.2604 238.639 97.8788 238.52 97.4972C240.494 97.3303 242.468 97.0679 244.418 96.7579C244.656 98.5705 244.918 100.407 245.155 102.243V102.22Z" fill="#F6BE2B"/>
<path d="M238.52 97.4734C238.639 97.855 238.734 98.2366 238.805 98.6182C238.876 98.9998 238.876 99.453 238.924 99.8584C239.78 99.6438 240.708 99.453 241.54 99.5245C241.659 99.5245 241.754 99.6199 241.802 99.7153C241.968 99.7153 242.111 99.763 242.23 99.93C243.134 101.289 243.015 103.269 241.707 104.366C241.064 104.891 240.256 105.106 239.471 105.034C239.4 105.201 239.233 105.344 239.019 105.249C234.928 103.317 235.047 97.211 235.047 93.3711C235.047 92.0354 235.142 90.4613 236.427 89.6981C237.877 88.8395 239.661 89.7219 240.66 90.8667C240.803 90.4136 241.16 90.0081 241.421 89.6265C241.707 89.2211 242.04 88.8633 242.372 88.4817L243.395 88.1716C243.467 88.3386 243.562 88.5055 243.633 88.6725C243.657 88.744 243.657 88.8156 243.657 88.8633C243.823 89.0064 243.895 89.2449 243.799 89.4596C243.348 90.6044 242.539 91.6777 241.802 92.6317C241.611 92.8702 241.278 92.894 241.064 92.7032C240.28 92.107 239.447 91.6538 238.52 91.3199C238.496 91.3199 238.472 91.3199 238.448 91.3199C235.689 91.6538 236.95 96.1139 237.235 97.8073C237.402 98.7136 237.521 99.7153 237.806 100.622C238.187 101.886 238.853 103.007 240.208 103.555C240.375 103.627 240.446 103.746 240.446 103.889C240.66 103.794 240.85 103.675 241.041 103.508C241.564 103.031 241.802 102.339 241.754 101.647C240.636 102.22 239.304 102.053 238.329 101.17C238.258 101.122 238.234 101.051 238.234 100.979C238.068 100.908 237.949 100.765 237.901 100.598C237.901 100.526 237.901 100.455 237.901 100.359C238.139 99.4768 237.759 98.2366 237.497 97.4018C237.402 97.0917 237.592 96.8532 237.83 96.7817C237.877 96.7101 237.973 96.6386 238.091 96.6147C238.163 96.6147 238.234 96.5909 238.306 96.567L238.496 97.4018L238.52 97.4734Z" fill="#1D1D1C"/>
<path d="M231.741 102.697C230.647 97.9742 228.792 90.5329 232.931 86.7168C236.022 83.8547 241.421 84.3794 243.419 88.1955L242.396 88.5056C241.088 87.0745 239.519 86.0012 237.473 86.0966C235.214 86.192 233.24 87.6708 232.384 89.7458C230.957 93.2041 232.051 97.8073 232.764 101.313C233.121 103.102 233.478 105.129 234.548 106.68C236.022 108.802 238.948 108.635 241.231 108.23C244.632 107.61 245.583 105.416 245.179 102.22C244.941 100.383 244.68 98.5705 244.442 96.734C242.492 97.0441 240.518 97.3064 238.544 97.4734L238.353 96.6386C240.47 96.1616 242.587 95.78 244.727 95.4699C244.989 95.4222 245.179 95.5415 245.274 95.7084C245.274 95.7084 245.298 95.7084 245.322 95.7084C245.75 95.7323 246.154 95.8992 246.511 96.1616C246.891 96.4478 247.248 96.7817 247.32 97.2587C247.343 97.4257 247.296 97.5688 247.201 97.6642C247.581 101.79 248.628 107.348 244.37 109.804C241.326 111.569 237.14 111.498 234.905 108.85C234.738 108.755 234.595 108.635 234.429 108.516C232.764 107.085 232.217 104.772 231.741 102.72V102.697Z" fill="#1D1D1C"/>
<path d="M224.773 87.2891C225.843 94.5874 226.581 102.053 228.222 109.232C227.58 109.256 226.914 109.494 226.295 109.637C225.938 109.709 225.558 109.78 225.201 109.828L224.773 109.899C222.157 103.651 219.351 97.2587 215.521 91.6776C215.284 91.3437 214.689 91.6538 214.879 92.0354C214.927 92.1308 214.974 92.2023 214.998 92.2977C214.76 92.3454 214.57 92.5363 214.618 92.8463C215.188 95.9946 215.735 99.1429 216.235 102.315C216.639 104.843 216.853 107.419 217.424 109.899C216.425 110.09 215.498 110.376 214.546 110.734C214.071 103.364 212.81 95.8276 211.597 88.5532C212.786 88.5532 214.047 88.4101 215.212 88.2193C215.498 88.1716 215.64 87.9569 215.664 87.7423C216.829 89.9604 218.256 92.0115 219.541 94.1581C221.087 96.734 222.419 99.4291 223.869 102.053C224.202 102.625 225.106 102.363 224.94 101.743C225.011 101.719 225.058 101.671 225.082 101.552C225.249 99.4291 224.892 97.211 224.107 95.2314C224.107 95.2314 224.107 95.2314 224.107 95.2075C223.703 92.5601 223.108 89.9365 222.371 87.4322C223.18 87.5038 224.036 87.4799 224.797 87.313L224.773 87.2891Z" fill="#F6BE2B"/>
<path d="M225.011 86.3113C225.297 86.192 225.677 86.2874 225.796 86.6213C226.272 87.0506 226.652 87.5992 227.104 88.0524C227.271 88.1001 227.413 88.2432 227.509 88.4578C227.818 89.3403 227.865 90.1989 227.889 91.0814C228.365 93.061 228.745 95.0883 229.031 97.0917C229.031 97.1871 229.031 97.2587 228.983 97.3302C229.054 97.6403 229.102 97.9265 229.15 98.2366C229.697 102.339 230.267 106.513 230.481 110.639C230.481 110.854 230.386 110.997 230.244 111.044C230.315 111.331 230.22 111.664 229.911 111.76C228.674 112.07 227.342 111.998 226.082 112.022C226.082 112.022 226.082 112.022 226.034 112.022C225.915 112.094 225.772 112.118 225.606 112.07C225.273 111.951 225.035 111.688 224.75 111.474C224.607 111.378 224.464 111.259 224.345 111.164L225.368 110.877C225.582 110.949 225.796 111.02 226.01 111.164C225.986 111.068 225.986 110.973 226.01 110.877C225.796 110.877 225.606 110.877 225.392 110.877L225.225 109.852C225.582 109.804 225.939 109.733 226.319 109.661C226.962 109.542 227.604 109.303 228.246 109.256C226.605 102.077 225.867 94.5874 224.797 87.313C224.036 87.48 223.18 87.5038 222.371 87.4322L222.252 86.4544C223.132 86.3351 224.06 86.2397 224.892 86.2874C224.94 86.2874 225.011 86.2874 225.035 86.3351L225.011 86.3113Z" fill="#1D1D1C"/>
<path d="M216.402 86.9314C217.258 87.2653 217.924 87.0507 218.637 87.6708C219.303 88.2432 219.779 89.2449 220.254 89.9843C221.039 91.2007 221.777 92.4171 222.49 93.6573C222.11 91.6061 221.705 89.555 221.23 87.5038C221.206 87.4084 221.23 87.313 221.253 87.2176C221.063 87.003 221.158 86.5975 221.491 86.5498C221.729 86.526 221.943 86.4783 222.181 86.4544L222.3 87.4323C223.037 89.9366 223.655 92.5602 224.036 95.2076C224.036 95.2076 224.036 95.2076 224.036 95.2314C224.821 97.211 225.178 99.453 225.011 101.552C225.011 101.647 224.94 101.719 224.868 101.743C225.035 102.363 224.107 102.649 223.798 102.053C222.347 99.4291 221.016 96.734 219.47 94.1581C218.185 92.0116 216.758 89.9366 215.593 87.7423L215.545 87.4084C215.545 87.4084 215.641 87.2892 215.712 87.2653C215.783 87.0268 216.069 86.8122 216.354 86.9076L216.402 86.9314Z" fill="#1D1D1C"/>
<path d="M217.852 98.165C218.542 101.957 219.303 105.797 219.612 109.613C219.826 109.804 219.945 110.066 219.874 110.4C219.85 110.52 219.779 110.615 219.707 110.687C219.707 110.901 219.731 111.116 219.755 111.331C219.755 111.45 219.707 111.545 219.636 111.593C219.683 111.784 219.636 111.998 219.446 112.118C218.399 112.714 217.044 112.714 215.878 112.571C215.759 112.571 215.688 112.499 215.64 112.428C215.355 112.332 215.07 112.189 214.808 111.998C214.546 111.831 214.285 111.641 214.118 111.378C213.952 111.354 213.809 111.235 213.761 111.02C213.761 110.973 213.761 110.901 213.714 110.854L214.594 110.663C215.545 110.305 216.473 110.019 217.472 109.828C216.901 107.347 216.687 104.748 216.282 102.243C215.783 99.0952 215.236 95.9231 214.665 92.7748C214.618 92.4647 214.808 92.2739 215.046 92.2262C214.998 92.1308 214.951 92.0593 214.927 91.9639C214.76 91.5823 215.331 91.2484 215.569 91.6061C219.398 97.1871 222.228 103.603 224.821 109.828L225.249 109.756L225.415 110.782L224.393 111.068C224.25 110.973 224.131 110.854 223.988 110.734C223.941 110.687 223.917 110.639 223.893 110.591C223.893 110.567 223.869 110.543 223.846 110.52C222.014 106.298 219.921 102.22 217.876 98.0935L217.852 98.165Z" fill="#1D1D1C"/>
<path d="M215.094 87.1222C215.355 87.1222 215.522 87.2414 215.617 87.4084L215.664 87.7423C215.664 87.957 215.498 88.1716 215.212 88.2193C214.047 88.4101 212.81 88.5532 211.597 88.5532C212.81 95.8276 214.071 103.364 214.547 110.734L213.667 110.925C212.144 103.651 211.36 96.0423 210.575 88.6486C210.575 88.5294 210.575 88.4101 210.646 88.3386C210.551 88.1239 210.598 87.8139 210.86 87.7423C212.192 87.3607 213.714 87.2176 215.07 87.146L215.094 87.1222Z" fill="#1D1D1C"/>
<path d="M208.91 111.044C207.768 111.116 206.674 111.283 205.58 111.664C205.295 107.968 204.51 104.271 204.034 100.598C203.558 96.9248 203.154 93.2518 202.869 89.5788L203.13 89.5311C203.986 89.388 204.866 89.2926 205.723 89.1495C206.507 96.4239 207.34 103.889 208.91 111.044Z" fill="#F6BE2B"/>
<path d="M206.888 89.5788C207.245 92.0593 207.649 94.5397 208.006 97.0202C208.006 96.8771 208.006 96.7101 208.006 96.567C208.006 96.567 208.006 96.5432 208.006 96.5193C207.625 94.2535 207.245 91.9639 207.031 89.6742C206.983 89.6265 206.912 89.6026 206.864 89.5788H206.888ZM205.723 89.1495C204.866 89.3164 203.986 89.4118 203.13 89.5311L203.011 88.7679C203.939 88.4578 204.961 88.1716 205.937 88.1478C206.127 88.1478 206.246 88.2193 206.341 88.3147C206.46 88.3147 206.555 88.3863 206.626 88.4578C207.15 88.6725 207.673 88.9348 208.172 89.221C208.172 89.221 208.196 89.221 208.22 89.221C208.529 89.1495 208.886 89.2687 208.957 89.6742C209.48 93.5618 209.98 97.4495 210.503 101.361C210.979 104.891 211.74 108.564 211.645 112.118C211.954 112.356 211.882 112.952 211.407 113.072C209.956 113.406 208.505 113.525 207.031 113.501C206.912 113.572 206.769 113.62 206.602 113.572C206.032 113.358 205.508 112.905 205.176 112.404C205.128 112.332 205.104 112.261 205.104 112.189C205.104 112.141 205.104 112.118 205.104 112.07C205.104 112.07 205.104 112.046 205.104 112.022C205.104 111.951 205.057 111.879 205.033 111.808L205.651 111.641C206.721 111.259 207.839 111.092 208.981 111.02C207.411 103.889 206.579 96.4001 205.794 89.1256L205.723 89.1495Z" fill="#1D1D1C"/>
<path d="M203.011 88.7917L203.13 89.555L202.869 89.6027C203.178 93.2757 203.558 96.9486 204.034 100.622C204.51 104.295 205.294 107.991 205.58 111.688L204.962 111.855C202.869 104.7 202.393 96.7578 201.775 89.3403C201.727 88.8156 202.345 88.6486 202.655 88.911L202.988 88.7917H203.011Z" fill="#1D1D1C"/>
<path d="M187.386 91.4868C187.98 95.0406 188.599 98.4989 188.622 102.124C188.622 102.553 189.05 102.673 189.36 102.53C189.431 102.577 189.502 102.625 189.621 102.625C189.621 102.625 189.669 102.625 189.693 102.625C191.762 102.649 193.926 102.458 195.948 101.957C196.209 101.886 196.304 101.671 196.257 101.456C196.304 101.146 196.352 100.836 196.257 100.502C196.233 100.359 196.114 100.288 195.995 100.264C195.9 96.8771 195.258 93.4187 194.806 90.0796C195.615 90.0796 196.447 90.0319 197.208 89.865C197.327 93.5141 198.088 97.211 198.516 100.836C198.968 104.652 199.349 108.445 199.682 112.261C198.944 112.475 198.207 112.571 197.446 112.523C197.279 110.376 197.089 108.23 196.661 106.131C196.614 105.893 196.566 105.63 196.495 105.392C196.495 105.225 196.447 105.034 196.376 104.891C196.328 104.748 196.304 104.605 196.281 104.462C196.209 104.199 195.948 104.175 195.757 104.295C195.662 104.151 195.52 104.056 195.305 104.104C193.807 104.438 192.285 104.724 190.763 104.986C190.501 104.843 190.145 104.891 189.907 105.034C189.597 104.915 189.169 105.106 189.193 105.559C189.336 108.158 189.336 110.973 189.907 113.549C189.265 113.739 188.646 113.906 188.004 114.002C188.004 113.954 188.004 113.906 188.004 113.835C187.291 109.899 186.743 105.916 186.173 101.957C185.673 98.5704 185.483 94.8975 184.437 91.6061C185.388 91.773 186.411 91.6776 187.362 91.5107L187.386 91.4868Z" fill="#F6BE2B"/>
<path d="M196.257 101.456C196.305 101.671 196.209 101.91 195.948 101.957C193.926 102.458 191.762 102.649 189.693 102.625V101.79C189.693 101.79 189.812 101.79 189.859 101.766L190.502 101.695C192.095 101.456 193.688 101.218 195.258 101.051C194.378 97.5449 194.117 93.8004 193.665 90.1989C193.665 90.0797 193.665 89.9604 193.712 89.865C193.593 89.6742 193.688 89.388 193.974 89.3165C195.044 89.078 196.209 88.8156 197.304 88.8633C197.351 88.8633 197.399 88.8633 197.422 88.8871C197.518 88.7679 197.708 88.744 197.827 88.8394C198.398 89.2926 198.992 89.865 199.42 90.4851C199.515 90.6044 199.539 90.7236 199.515 90.8429C199.515 90.8906 199.539 90.9144 199.539 90.9621C199.943 94.7544 200.348 98.5466 200.823 102.339C201.299 106.107 202.084 109.9 202.155 113.692C202.155 114.002 201.846 114.193 201.608 114.145C201.537 114.24 201.418 114.312 201.252 114.336C200.395 114.431 199.539 114.503 198.683 114.527C198.588 114.741 198.374 114.884 198.065 114.765C197.708 114.622 197.47 114.312 197.185 114.073C196.899 113.835 196.614 113.596 196.352 113.334C196.209 113.191 196.233 112.976 196.352 112.857C196.186 110.663 195.924 108.492 195.71 106.322L196.638 106.131C197.066 108.23 197.256 110.377 197.422 112.523C198.183 112.571 198.921 112.475 199.658 112.261C199.325 108.445 198.945 104.629 198.493 100.836C198.065 97.211 197.28 93.5142 197.185 89.865C196.4 90.032 195.591 90.0797 194.782 90.0797C195.234 93.4426 195.877 96.8771 195.972 100.288C196.091 100.312 196.209 100.383 196.233 100.526C196.328 100.86 196.257 101.17 196.233 101.48L196.257 101.456Z" fill="#1D1D1C"/>
<path d="M190.787 114.169C190.739 113.93 190.668 113.716 190.62 113.477C190.62 113.668 190.596 113.883 190.573 114.073C190.573 114.193 190.454 114.264 190.359 114.264C190.359 114.264 190.359 114.264 190.311 114.264C189.954 114.407 189.574 114.479 189.193 114.527C189.193 114.527 189.193 114.55 189.217 114.574C189.526 114.503 189.835 114.431 190.168 114.36C190.382 114.288 190.596 114.216 190.81 114.169H190.787ZM185.055 102.053C184.579 98.642 183.747 95.0406 183.842 91.5823H184.46C185.507 94.8975 185.697 98.5466 186.197 101.933C186.767 105.893 187.314 109.876 188.028 113.811C188.028 113.859 188.028 113.93 188.028 113.978C188.694 113.906 189.312 113.739 189.93 113.525C189.336 110.973 189.336 108.135 189.217 105.535C189.217 105.106 189.621 104.915 189.93 105.01C190.168 104.843 190.525 104.819 190.787 104.962C192.309 104.7 193.831 104.438 195.329 104.08C195.543 104.032 195.686 104.128 195.781 104.271C195.971 104.152 196.233 104.175 196.304 104.438C196.352 104.581 196.376 104.724 196.4 104.867C196.471 105.01 196.518 105.177 196.518 105.368C196.566 105.606 196.637 105.869 196.685 106.107L195.757 106.298C194.449 106.847 192.832 107.085 191.357 107.061C191.643 109.375 191.904 111.712 191.833 114.05C192.214 114.216 192.19 114.837 191.786 115.051C190.906 115.528 189.55 115.624 188.575 115.552C188.408 115.552 188.313 115.457 188.266 115.337C187.814 115.218 187.409 114.884 187.314 114.431C187.053 114.383 186.839 114.216 186.791 113.906C186.101 109.971 185.626 105.988 185.079 102.029L185.055 102.053Z" fill="#1D1D1C"/>
<path d="M187.933 90.4613C188.48 90.5328 188.908 90.9145 189.193 91.4153C189.479 91.2484 189.907 91.3438 189.954 91.7492C190.192 95.0406 190.549 98.3797 190.525 101.671L189.883 101.743C189.812 101.266 189.74 100.789 189.693 100.335C189.693 100.836 189.717 101.313 189.717 101.79V102.625C189.717 102.625 189.669 102.625 189.645 102.625C189.55 102.625 189.455 102.577 189.384 102.53C189.074 102.673 188.646 102.53 188.646 102.124C188.623 98.4989 188.004 95.0406 187.41 91.4869C186.458 91.6538 185.459 91.7492 184.484 91.5823H183.866C183.866 91.5823 183.866 91.4869 183.866 91.4392C183.771 91.4392 183.699 91.3915 183.604 91.3676C183.2 91.2245 183.366 90.6521 183.723 90.5805C184.936 90.4136 186.173 90.4374 187.386 90.2228C187.647 90.1751 187.838 90.2705 187.933 90.4374V90.4613ZM188.218 91.3199C188.385 91.8208 188.527 92.2978 188.67 92.8225C188.646 92.2978 188.551 91.6777 188.218 91.3199Z" fill="#1D1D1C"/>
<path d="M167.027 95.8515C166.861 95.7322 166.67 95.8038 166.575 95.9469C166.623 95.0644 166.552 94.1581 166.433 93.2756C170.69 93.4426 174.995 92.8225 179.157 91.8446C179.157 92.7748 179.252 93.7049 179.347 94.6351C178.729 94.6351 178.086 94.7782 177.468 94.8975C177.23 94.8498 176.945 94.8975 176.755 95.0644C176.707 95.0644 176.659 95.0883 176.612 95.1121C176.398 94.8736 175.946 94.9929 175.946 95.3983C175.875 101.695 176.683 108.254 177.444 114.526C177.444 114.622 177.468 114.693 177.516 114.741C177.183 114.789 176.683 114.813 176.541 114.837C176.255 114.86 175.993 114.908 175.708 114.956C175.708 114.932 175.708 114.908 175.708 114.884C175.708 114.55 175.494 114.336 175.256 114.264C174.876 111.14 174.495 108.015 174.091 104.891C173.71 101.838 173.663 98.4751 172.474 95.6368C172.355 95.3745 172.069 95.3506 171.879 95.4937C171.784 95.3983 171.641 95.3268 171.451 95.3268C169.976 95.3268 168.478 95.613 167.027 95.8754V95.8515Z" fill="#F6BE2B"/>
<path d="M165.838 92.4647C170.404 92.1308 174.828 91.7015 179.323 90.7236C179.49 90.6998 179.609 90.7236 179.704 90.8429C179.751 90.819 179.823 90.7952 179.918 90.8429C180.275 91.0098 180.584 91.3199 180.845 91.7015C181.012 91.7492 181.154 91.8685 181.25 92.107C181.583 92.9894 181.773 93.9673 181.868 94.8975C181.939 95.4699 182.082 96.2808 181.654 96.7578C181.178 97.2825 180.227 97.2349 179.585 97.2826C179.157 97.3064 178.729 97.3303 178.301 97.2826C178.8 102.649 179.347 108.015 179.656 113.382C179.751 115.051 180.037 115.981 178.324 116.482C176.802 116.912 175.542 116.84 174.305 115.862C174.162 115.743 174.138 115.576 174.21 115.433C173.473 109.518 172.759 103.627 172.022 97.7119H171.974C170.737 97.9742 169.334 98.165 168.097 98.2366C167.265 98.2843 166.694 97.2826 166.195 96.6624C166.195 96.6386 166.147 96.5909 166.147 96.567C166.147 96.567 166.147 96.5432 166.147 96.5193C166.076 96.4955 166.005 96.4239 165.957 96.3285C165.648 95.2791 165.529 94.1343 165.41 93.0371C165.386 92.7748 165.553 92.584 165.743 92.5363C165.767 92.5363 165.814 92.5124 165.862 92.4886L165.838 92.4647ZM179.133 91.8208C174.995 92.8225 170.69 93.4188 166.409 93.2518C166.504 94.1343 166.599 95.0406 166.552 95.9231C166.647 95.78 166.837 95.7323 167.003 95.8277C168.454 95.5415 169.976 95.2791 171.427 95.2791C171.617 95.2791 171.76 95.3507 171.855 95.4461C172.046 95.303 172.331 95.3268 172.45 95.5892C173.639 98.4512 173.687 101.814 174.067 104.843C174.448 107.968 174.828 111.092 175.232 114.216C175.47 114.288 175.684 114.503 175.684 114.837C175.684 114.837 175.684 114.884 175.684 114.908C175.97 114.86 176.231 114.813 176.517 114.789C176.659 114.789 177.135 114.741 177.492 114.693C177.468 114.622 177.421 114.55 177.421 114.479C176.659 108.23 175.851 101.671 175.922 95.3507C175.922 94.9452 176.374 94.8259 176.588 95.0644C176.636 95.0644 176.683 95.0406 176.731 95.0167C176.945 94.8736 177.206 94.8021 177.444 94.8498C178.063 94.7067 178.705 94.6113 179.323 94.5874C179.228 93.6573 179.133 92.7271 179.133 91.7969V91.8208Z" fill="#1D1D1C"/>
<path d="M152.757 116.816C152.757 113.477 151.949 109.947 151.545 106.68C151.045 102.744 150.617 98.7851 150.094 94.8498C154.137 94.7067 158.204 94.1343 162.247 93.7288C162.247 94.492 162.413 95.1837 162.77 95.78C159.702 96.0662 156.61 96.567 153.59 97.1156C153.542 97.1156 153.471 97.1395 153.447 97.1872C153.114 96.9248 152.52 97.0918 152.615 97.6165C152.853 99.2145 153.067 100.908 153.637 102.434C153.519 102.649 153.685 103.031 153.994 103.007C154.708 102.959 155.445 102.887 156.158 102.792C157.086 102.673 157.99 102.554 158.917 102.387C159.06 103.317 159.131 104.247 159.203 105.177H159.155C157.752 105.559 156.301 105.869 154.874 106.107C154.589 105.893 154.161 105.94 154.089 106.346C154.042 106.417 154.042 106.489 154.089 106.584C153.97 108.659 154.089 111.068 154.946 112.952C154.755 113.262 154.946 113.739 155.374 113.668C158.37 113.167 161.415 112.857 164.411 112.308C164.506 113.239 164.625 114.193 164.839 115.123C160.891 115.552 156.801 115.981 152.924 116.768C152.876 116.768 152.829 116.792 152.781 116.816H152.757Z" fill="#F6BE2B"/>
<path d="M162.223 93.7288C158.204 94.1343 154.137 94.7067 150.07 94.8498L149.927 93.9912C153.947 93.2518 158.061 92.9656 162.128 92.4886C162.342 92.4886 162.509 92.5363 162.628 92.6794C162.699 92.584 162.818 92.5363 162.96 92.584C163.555 92.7986 164.078 93.1087 164.554 93.4665C164.72 93.5857 164.744 93.8242 164.673 94.015C164.673 94.0627 164.649 94.1343 164.625 94.182V94.2297C164.863 95.4461 165.838 97.5211 164.245 98.0458C163.222 98.3797 161.914 98.4274 160.701 98.4512C159.036 98.7613 157.276 98.9282 155.611 98.9759C155.707 99.8584 155.873 100.741 156.016 101.647C156.016 101.695 156.016 101.719 156.016 101.766L156.135 102.768C155.421 102.864 154.684 102.911 153.97 102.983C153.661 102.983 153.495 102.625 153.614 102.41C153.043 100.884 152.829 99.2144 152.591 97.5926C152.52 97.0679 153.09 96.9009 153.423 97.1633C153.471 97.1394 153.519 97.1156 153.566 97.0917C156.587 96.5193 159.678 96.0185 162.746 95.7561C162.366 95.136 162.199 94.4443 162.223 93.705V93.7288Z" fill="#1D1D1C"/>
<path d="M155.445 110.83C155.445 110.83 155.468 110.877 155.492 110.901C155.445 110.52 155.397 110.138 155.35 109.78C155.278 109.256 155.207 108.731 155.159 108.206C155.207 109.089 155.326 109.947 155.468 110.83H155.445ZM155.897 112.595C155.897 112.595 155.849 112.547 155.849 112.523C155.706 112.118 155.611 111.688 155.54 111.259C155.54 111.354 155.54 111.474 155.54 111.569C155.564 111.76 155.587 111.951 155.611 112.165C155.635 112.332 155.683 112.499 155.683 112.642L155.897 112.595ZM154.921 112.952C154.041 111.044 153.946 108.659 154.065 106.584C154.065 106.513 154.065 106.417 154.065 106.346C154.137 105.94 154.565 105.893 154.85 106.107C156.301 105.869 157.728 105.559 159.131 105.201H159.179C159.084 104.247 159.012 103.341 158.893 102.41C157.99 102.577 157.062 102.697 156.134 102.816L156.016 101.814C157.038 101.6 158.061 101.385 159.107 101.242C159.202 101.242 159.298 101.242 159.369 101.242C159.583 101.242 159.773 101.337 159.892 101.528C160.415 101.623 160.891 101.862 161.319 102.22C161.414 102.291 161.462 102.41 161.486 102.53C161.652 102.601 161.795 102.744 161.842 102.935C161.938 103.531 161.842 104.175 161.842 104.795C161.842 105.392 161.89 105.964 161.89 106.537C162.08 106.751 162.08 107.109 161.723 107.276C160.154 107.944 158.418 108.182 156.705 108.23C156.753 108.707 156.777 109.184 156.824 109.637C156.919 110.567 157.014 111.521 156.919 112.452C159.369 112.022 161.89 111.641 164.363 111.593V112.356C161.391 112.905 158.346 113.215 155.35 113.716C154.898 113.787 154.755 113.31 154.921 113V112.952Z" fill="#1D1D1C"/>
<path d="M165.148 116.435C164.292 116.554 163.436 116.697 162.556 116.816C162.556 116.816 162.556 116.84 162.556 116.864C163.602 116.792 164.625 116.721 165.672 116.673C165.648 116.53 165.6 116.387 165.576 116.244C165.481 116.339 165.362 116.435 165.172 116.458L165.148 116.435ZM153.851 118.009C154.494 117.889 155.136 117.77 155.778 117.675C155.445 117.675 155.136 117.722 154.826 117.722C154.422 117.746 154.042 117.794 153.637 117.818C153.709 117.889 153.78 117.937 153.875 118.009H153.851ZM152.9 116.745C156.777 115.958 160.867 115.528 164.815 115.099C164.601 114.169 164.482 113.215 164.387 112.285V111.521C164.53 111.521 164.697 111.521 164.863 111.521C164.934 111.521 164.982 111.521 165.029 111.569C165.22 111.593 165.362 111.712 165.434 111.903C165.576 112.046 165.695 112.213 165.814 112.38C165.814 112.38 165.838 112.428 165.862 112.451C166.124 112.857 166.29 113.334 166.219 113.811C166.433 114.789 166.575 115.814 166.552 116.792C166.861 117.102 166.789 117.77 166.219 117.818C162.223 118.104 158.227 118.51 154.256 118.796C154.113 119.058 153.756 119.201 153.495 118.987C153.185 118.724 152.9 118.414 152.615 118.08C152.448 118.199 152.187 118.152 152.115 117.961C150.997 114.455 150.95 110.4 150.474 106.775C149.975 102.768 149.404 98.7613 148.928 94.7544C148.881 94.3728 149.19 94.1581 149.475 94.182C149.547 94.1104 149.618 94.0389 149.737 94.015C149.784 94.015 149.832 94.015 149.903 93.9911L150.046 94.8498C150.569 98.7851 151.021 102.744 151.497 106.68C151.901 109.971 152.686 113.477 152.71 116.816C152.757 116.816 152.781 116.768 152.852 116.768L152.9 116.745Z" fill="#1D1D1C"/>
<path d="M145.147 118.414C144.6 113.215 144.124 107.944 142.935 102.864C142.864 102.554 142.555 102.482 142.364 102.577C142.222 102.577 142.079 102.649 141.984 102.792C141.27 103.818 140.7 104.915 140.081 106.012C139.82 105.797 139.582 105.559 139.32 105.344C138.559 104.676 137.798 104.032 136.989 103.412C136.87 102.768 135.824 102.911 135.872 103.603C136.228 108.659 136.371 113.883 137.18 118.891C136.205 119.01 135.253 119.13 134.302 119.368C134.397 115.862 133.612 112.189 133.137 108.755C132.613 104.867 132.066 101.003 131.472 97.1395C132.589 97.1872 133.874 97.1157 134.92 96.8533C136.205 98.5467 137.584 100.169 138.773 101.91C139.011 102.244 139.653 102.22 139.796 101.79C140.438 99.8346 141.223 97.8789 141.722 95.8993C142.959 96.0424 144.22 95.9708 145.432 95.6608C145.884 103.054 146.265 110.615 147.621 117.889C146.788 118.056 145.956 118.223 145.147 118.414Z" fill="#F6BE2B"/>
<path d="M147.644 105.964C147.454 104.533 147.24 103.126 147.026 101.695C147.169 103.174 147.311 104.629 147.478 106.107C147.525 106.036 147.573 105.988 147.644 105.964ZM147.621 117.889C146.241 110.615 145.884 103.054 145.432 95.6608C144.219 95.9708 142.959 96.0424 141.722 95.8993L141.675 95.0168C143.102 94.8975 144.481 94.6352 145.884 94.349C146.051 94.3013 146.194 94.349 146.289 94.4682C146.431 94.4444 146.598 94.4921 146.693 94.6829C146.788 94.8498 146.907 94.9929 147.05 95.136C147.216 95.303 147.43 95.4222 147.549 95.613C147.668 95.78 147.644 96.0424 147.502 96.1855C148.001 99.9777 148.477 103.77 148.929 107.562C149.404 111.331 150.118 115.242 150.094 119.058C150.094 119.201 150.046 119.297 149.975 119.344C150.023 119.583 149.951 119.869 149.666 119.941C148.358 120.37 146.883 120.513 145.504 120.322C145.385 120.322 145.314 120.251 145.266 120.155C145.266 120.155 145.242 120.155 145.218 120.155C145.028 120.036 144.862 119.869 144.695 119.702C144.576 119.583 144.457 119.487 144.338 119.368C144.053 119.368 143.887 119.034 144.005 118.844C143.934 118.772 143.91 118.653 143.887 118.533C143.435 114.431 142.816 110.305 142.412 106.179C142.222 106.513 142.008 106.871 141.77 107.181C141.627 107.371 141.342 107.395 141.128 107.324C140.961 107.276 140.795 107.228 140.604 107.204C140.414 107.395 140.081 107.514 139.843 107.276C139.415 106.871 138.987 106.441 138.559 106.036L139.273 105.296C139.534 105.511 139.772 105.75 140.034 105.964C140.628 104.867 141.223 103.77 141.936 102.744C142.031 102.601 142.174 102.554 142.317 102.53C142.507 102.41 142.816 102.506 142.888 102.816C144.101 107.896 144.552 113.191 145.099 118.366C145.908 118.176 146.741 118.009 147.573 117.866L147.621 117.889Z" fill="#1D1D1C"/>
<path d="M139.32 105.32L138.607 106.06C138.607 106.06 138.488 105.94 138.416 105.869C138.725 108.182 138.821 110.543 139.011 112.881C139.201 115.337 139.558 117.842 139.32 120.275C139.32 120.489 139.106 120.585 138.94 120.608C138.916 120.752 138.821 120.895 138.654 120.942C137.536 121.3 136.252 121.324 135.11 121.515C134.873 121.562 134.73 121.372 134.706 121.181C134.254 120.99 133.802 120.68 133.422 120.441C133.113 120.251 133.184 119.893 133.422 119.798C133.422 119.798 133.422 119.798 133.422 119.75C133.422 119.678 133.398 119.631 133.374 119.559L134.326 119.32C135.277 119.106 136.228 118.963 137.203 118.843C136.371 113.835 136.252 108.612 135.895 103.555C135.848 102.864 136.87 102.72 137.013 103.364C137.822 103.961 138.583 104.629 139.344 105.296L139.32 105.32Z" fill="#1D1D1C"/>
<path d="M135.11 95.5892C135.919 95.5176 136.751 95.5892 137.584 95.6846C137.679 95.6846 137.774 95.7323 137.822 95.78C137.869 95.78 137.917 95.78 137.964 95.8277C138.369 96.1855 138.702 96.6148 139.011 97.0441C139.249 97.3541 139.534 97.688 139.748 98.022C140.033 97.1395 140.343 96.257 140.699 95.3984C140.699 95.3984 140.699 95.3745 140.699 95.3507C140.699 95.1837 140.818 95.0406 141.032 95.0406C141.246 95.0406 141.437 95.0406 141.651 95.0168L141.698 95.8993C141.199 97.9027 140.414 99.8346 139.772 101.79C139.629 102.22 138.987 102.244 138.749 101.91C137.536 100.145 136.181 98.5228 134.896 96.8533C133.85 97.0918 132.565 97.1872 131.448 97.1395L131.186 96.2093C132.304 95.8993 133.636 95.6846 134.754 95.7084C134.801 95.7084 134.849 95.7084 134.896 95.7084C134.944 95.6607 135.015 95.6369 135.086 95.613L135.11 95.5892ZM135.966 96.5432C136.157 96.734 136.347 96.9248 136.537 97.1156C136.513 96.9487 136.49 96.7817 136.49 96.6386C136.323 96.6148 136.133 96.5671 135.966 96.5432Z" fill="#1D1D1C"/>
<path d="M133.16 108.755C133.636 112.189 134.421 115.862 134.325 119.368L133.374 119.607C132.47 116.172 132.399 112.404 131.947 108.874C131.448 104.915 130.877 100.956 130.259 96.9964C130.211 96.6147 130.473 96.3762 130.782 96.3762C130.829 96.3524 130.853 96.3285 130.924 96.3047C131.043 96.2808 131.139 96.2331 131.257 96.2093L131.519 97.1395C132.114 101.003 132.661 104.891 133.184 108.755H133.16Z" fill="#1D1D1C"/>
<path d="M121.91 98.809C127.214 98.9044 128.403 105.559 128.855 109.78C129.117 112.38 129.378 115.409 127.785 117.651C126.5 119.44 124.36 120.489 122.148 120.275C121.102 120.179 120.222 119.869 119.484 119.416C119.365 119.321 119.223 119.249 119.104 119.154C116.416 117.174 115.822 113.024 115.655 109.685C115.441 105.153 116.393 99.6199 121.744 98.8567C121.791 98.8567 121.863 98.8329 121.887 98.7852L121.91 98.809ZM126.643 111.498C126.5 108.588 125.977 105.678 124.408 103.317C124.408 103.269 124.408 103.245 124.408 103.198C124.265 102.291 123.599 101.695 122.838 101.48C122.838 101.48 122.814 101.456 122.79 101.433C122.6 101.266 122.362 101.266 122.196 101.361C121.72 101.361 121.221 101.456 120.792 101.743C119.984 102.243 119.58 102.983 119.413 103.794C118.557 105.463 118.581 107.777 118.604 109.661C118.628 112.642 118.842 117.556 122.862 117.842C126.334 118.08 126.786 114.05 126.643 111.521V111.498Z" fill="#F6BE2B"/>
<path d="M119.96 113.525C120.008 113.787 120.079 114.05 120.174 114.288C120.293 114.622 120.483 114.932 120.697 115.218C120.388 114.694 120.15 114.121 119.96 113.501V113.525ZM125.193 108.492C124.931 107.014 124.479 105.606 123.742 104.39C123.551 104.485 123.337 104.533 123.123 104.485C120.341 103.603 120.959 109.709 121.054 110.877C121.245 113.048 121.815 114.908 123.004 116.697C123.813 116.745 124.598 116.339 125.145 115.242C126.049 113.429 125.525 110.448 125.169 108.492H125.193ZM124.408 103.317C125.977 105.678 126.501 108.588 126.643 111.498C126.762 114.026 126.31 118.056 122.862 117.818C118.866 117.532 118.652 112.619 118.605 109.637C118.605 107.753 118.581 105.463 119.413 103.77C119.58 102.959 119.984 102.22 120.793 101.719C121.221 101.456 121.72 101.337 122.196 101.337C122.362 101.242 122.576 101.218 122.79 101.409C122.79 101.409 122.79 101.433 122.838 101.456C123.623 101.671 124.265 102.267 124.408 103.174C124.408 103.221 124.408 103.245 124.408 103.293V103.317Z" fill="#1D1D1C"/>
<path d="M121.91 98.809C121.91 98.809 121.815 98.8567 121.768 98.8806C116.393 99.6438 115.465 105.177 115.679 109.709C115.846 113.048 116.416 117.198 119.128 119.177C119.247 119.273 119.389 119.344 119.508 119.44C120.246 119.893 121.126 120.203 122.172 120.298C124.384 120.513 126.524 119.464 127.809 117.675C129.402 115.433 129.141 112.404 128.879 109.804C128.451 105.583 127.262 98.9283 121.934 98.8329L121.91 98.809ZM119.58 120.895C115.489 119.01 114.49 113.429 114.371 109.017C114.252 104.629 115.774 98.4036 120.959 98.0697C121.007 97.8789 121.149 97.688 121.435 97.6642C121.91 97.5926 122.339 97.5688 122.767 97.5926C122.767 97.3303 123.004 97.0202 123.314 97.0441C126.952 97.4257 129.093 100.646 130.068 103.913C131.186 107.634 132.161 112.261 131.115 116.101C130.306 119.034 128.308 121.539 125.216 122.159C123.147 122.564 121.126 122.135 119.58 120.919V120.895Z" fill="#1D1D1C"/>
<path d="M110.4 103.078C109.662 103.269 108.854 103.436 108.164 103.746C108.069 103.579 107.926 103.436 107.807 103.293C106.404 101.886 103.717 102.554 103.479 104.772C102.646 108.254 109.02 110.496 110.852 112.547C113.634 115.671 113.539 120.728 109.092 122.302C108.045 122.66 107.07 122.707 106.166 122.54C105.714 122.421 105.263 122.278 104.811 122.087C102.884 121.181 101.41 119.249 100.625 117.174C100.696 117.174 100.767 117.198 100.863 117.174C101.695 117.079 102.48 116.959 103.288 116.721C103.241 116.792 103.217 116.864 103.241 116.959C103.407 119.13 105.096 121.109 107.427 120.68C109.972 120.203 110.733 117.484 109.401 115.457C108.521 114.145 107.094 113.382 105.762 112.595C103.384 111.187 101.219 109.613 100.435 106.823C99.6497 103.985 100.339 100.812 103.693 100.407C106.095 100.121 109.044 100.646 110.281 102.935C110.305 102.983 110.328 103.007 110.376 103.031L110.4 103.078Z" fill="#F6BE2B"/>
<path d="M103.288 116.745L103.479 116.029C103.716 116.077 103.93 116.101 104.168 116.172C104.478 116.268 104.81 116.387 105.096 116.554C105.12 116.554 105.167 116.602 105.191 116.625C105.334 116.625 105.476 116.721 105.476 116.864C105.476 117.341 105.619 117.794 105.857 118.2C105.881 118.247 105.928 118.295 105.952 118.343C106.023 118.414 106.095 118.462 106.166 118.533C106.737 118.963 107.355 119.154 108.045 119.344C108.116 119.344 108.164 119.392 108.211 119.44C108.402 119.297 108.568 119.106 108.758 118.891C110.614 116.411 107.094 114.693 105.619 113.93C104.145 113.191 102.765 112.38 101.576 111.211C99.4117 109.041 98.2939 105.702 99.1738 102.697C99.9111 100.168 102.741 99.0237 105.453 99.2145C108.711 99.1191 112.564 100.431 112.73 104.175C113.063 104.39 113.135 104.939 112.659 105.106C111.636 105.439 110.614 105.678 109.543 105.702C109.496 105.75 109.424 105.773 109.329 105.773C108.663 105.773 108.069 105.32 107.76 104.748C107.76 104.7 107.712 104.652 107.712 104.629C107.569 104.557 107.522 104.414 107.546 104.271C107.45 104.128 107.355 104.008 107.236 103.889L107.807 103.364C107.95 103.508 108.069 103.651 108.164 103.818C108.854 103.508 109.662 103.341 110.4 103.15C110.352 103.15 110.328 103.102 110.304 103.054C109.044 100.765 106.095 100.24 103.716 100.526C100.363 100.908 99.6733 104.104 100.458 106.942C101.243 109.733 103.407 111.307 105.786 112.714C107.117 113.501 108.544 114.264 109.424 115.576C110.78 117.603 109.995 120.322 107.45 120.799C105.12 121.229 103.407 119.249 103.265 117.079C103.265 116.983 103.265 116.912 103.312 116.84L103.288 116.745Z" fill="#1D1D1C"/>
<path d="M100.648 117.174C101.433 119.225 102.908 121.157 104.834 122.087C105.286 122.278 105.738 122.421 106.19 122.54C107.094 122.707 108.093 122.66 109.115 122.302C113.563 120.752 113.658 115.671 110.875 112.547C109.044 110.496 102.67 108.254 103.502 104.772C103.74 102.577 106.404 101.91 107.831 103.293L107.26 103.818C106.713 103.937 105.334 104.08 105.167 104.247C104.382 105.153 106.927 107.276 107.451 107.705C108.806 108.802 110.4 109.589 111.708 110.734C113.872 112.666 115.156 115.409 114.681 118.343C114.276 120.895 112.469 122.97 110.043 123.828C108.069 124.52 106.333 124.067 104.763 123.089C102.29 122.135 100.244 119.941 99.8637 117.055C99.8161 116.768 100.101 116.625 100.316 116.673C100.316 116.411 100.434 116.125 100.791 116.101C101.576 116.005 102.337 115.981 103.122 116.029C103.146 115.981 103.217 115.934 103.312 115.958C103.384 115.958 103.455 116.005 103.55 116.005L103.36 116.721C102.551 116.959 101.766 117.079 100.934 117.174C100.839 117.174 100.767 117.174 100.696 117.174H100.648Z" fill="#1D1D1C"/>
<path d="M113.372 195.785C112.017 195.976 110.661 196.119 109.305 196.239C108.687 196.286 106.665 196.835 106.142 196.477C105.643 196.143 105.571 194.521 105.5 193.973C105.262 192.327 105.048 190.681 104.834 189.012C104.81 188.75 104.763 188.487 104.739 188.201C106.213 188.249 107.736 188.01 109.044 187.772C112.968 187.08 112.231 181.093 108.33 181.07C107.093 181.07 105.857 181.26 104.62 181.404C104.43 181.404 104.263 181.451 104.073 181.475C104.025 180.855 103.978 180.211 103.93 179.591C103.811 178.136 103.835 176.514 103.692 174.964C104.144 174.94 104.62 174.892 105.119 174.845C107.26 174.63 109.829 174.797 111.779 173.747C114.3 172.364 113.895 168.62 111.137 167.785C109.02 167.165 106.546 167.856 104.406 168.119C102.694 168.31 101.267 168.5 99.9347 169.335C99.3639 169.407 98.8407 169.717 98.5315 170.265C96.6288 173.604 97.604 178.422 97.9131 182.262C98.2699 186.555 98.7218 190.896 99.4115 195.165C99.9585 198.433 101.029 201.629 104.097 202.845C107.07 204.038 111.089 203.012 114.086 202.631C118.01 202.106 117.32 195.308 113.372 195.833V195.785Z" fill="#1D1D1C"/>
<path d="M132.232 165.543C130.377 165.71 129.545 167.451 129.521 169.287C129.474 173.867 129.283 178.422 128.95 182.978C128.784 185.243 128.594 187.509 128.38 189.775C128.332 190.252 128.213 190.825 128.118 191.421C127.761 190.562 127.404 189.704 127.072 188.821C126.287 186.818 125.597 184.766 125.002 182.691C123.742 178.375 122.933 173.938 122.41 169.478C121.911 165.209 115.989 165.829 116.393 170.122C116.964 176.3 118.248 182.381 120.222 188.249C121.197 191.158 122.362 194.044 123.694 196.787C124.836 199.101 126.548 201.343 129.164 201.176C134.539 200.842 134.373 192.78 134.754 188.535C135.324 181.928 135.61 175.298 135.681 168.643C135.681 166.783 133.755 165.424 132.232 165.567V165.543Z" fill="#1D1D1C"/>
<path d="M153.138 191.564C151.735 192.065 150.355 192.375 148.857 192.446C148.476 192.446 147.906 192.351 147.454 192.351C147.573 191.278 146.835 189.393 146.645 188.392C146.383 186.865 146.146 185.363 145.908 183.836C146.526 183.836 147.121 183.836 147.739 183.836C149.047 183.836 150.545 183.956 151.711 183.288C152.734 182.691 153.495 181.881 153.495 180.569C153.495 179.448 152.9 178.112 151.806 177.707C150.331 177.182 149.047 177.373 147.549 177.42C146.716 177.444 145.884 177.42 145.052 177.468C144.956 176.705 144.861 175.942 144.766 175.179C144.552 173.39 144.409 171.601 144.1 169.836C144.528 169.836 144.956 169.86 145.385 169.86C147.382 169.884 149.38 169.86 151.378 169.741C155.35 169.55 154.684 163.039 150.688 163.301C148.833 163.42 146.954 163.492 145.099 163.492C143.339 163.492 141.437 163.492 140.01 164.732C139.938 164.804 139.867 164.875 139.795 164.947C139.272 165.281 138.82 165.829 138.63 166.568C137.655 170.432 138.487 174.749 138.963 178.661C139.463 182.596 140.057 186.508 140.747 190.419C141.318 193.663 141.555 197.407 145.075 198.504C148.334 199.53 152.282 198.671 155.397 197.55C159.155 196.215 156.848 190.181 153.114 191.54L153.138 191.564Z" fill="#1D1D1C"/>
<path d="M172.283 186.484C176.065 183.121 178.562 178.422 176.992 172.889C175.161 166.449 167.432 160.63 160.962 161.918C159.345 162.252 157.99 163.611 158.227 165.471C158.846 170.528 159.393 175.584 159.868 180.664C160.32 185.625 160.32 190.801 161.509 195.642C162.199 198.409 166.361 197.693 166.694 195.094C166.861 193.687 166.932 192.279 166.908 190.848C169.144 192.112 171.142 193.639 173.282 195.165C176.564 197.479 179.823 193.138 177.064 190.252C175.684 188.821 174.043 187.581 172.283 186.508V186.484ZM166.005 180.02C165.648 176.228 165.267 172.46 164.815 168.667C167.55 169.574 170.167 171.959 170.975 174.558C172.141 178.279 169.168 181.284 166.29 183.049C166.195 182.024 166.076 181.022 165.981 180.02H166.005Z" fill="#1D1D1C"/>
<path d="M192.761 158.149C191.357 157.458 189.288 158.149 188.741 159.723C188.741 159.771 188.694 159.843 188.694 159.89C188.408 160.749 188.408 161.822 188.813 162.705C188.86 163.11 188.908 163.516 188.955 163.921C189.027 164.637 189.146 165.4 189.122 166.139C189.05 168.071 187.861 168.667 186.101 168.739C182.225 168.906 183.319 163.921 182.581 161.25C181.939 158.889 178.633 159.151 177.777 161.107C176.326 164.446 176.85 169.049 179.038 171.983C180.441 173.891 182.462 174.845 184.627 175.131C184.508 177.158 184.983 179.376 185.198 181.237L186.315 191.779C186.648 194.879 191.096 195.833 192.237 192.78C192.451 192.184 192.618 191.612 192.737 190.991C192.88 190.157 192.665 189.393 192.237 188.773C191.952 186.031 191.643 183.312 191.357 180.569C191.143 178.637 191.167 176.204 190.525 174.201C192.998 173.032 194.782 170.909 195.21 167.809C195.591 164.994 195.615 159.556 192.784 158.149H192.761Z" fill="#1D1D1C"/>
<path d="M217.971 174.916C216.758 165.924 211.098 157.481 202.06 156.026C200.11 155.716 198.207 157.434 198.492 159.556C199.158 164.684 199.777 169.812 200.276 174.94C200.799 180.068 201.013 185.267 201.703 190.347C202.036 192.804 204.153 193.496 205.746 192.78C209.48 192.947 213.19 190.848 215.474 187.843C218.256 184.194 218.565 179.424 217.947 174.916H217.971ZM211.121 183.073C210.241 184.623 208.981 185.434 207.554 185.935C207.268 178.661 206.317 171.315 205.342 164.088C208.648 166.282 210.812 170.17 211.597 174.32C212.12 177.063 212.548 180.569 211.121 183.073Z" fill="#1D1D1C"/>
<path d="M234.001 166.187C232.407 161.441 230.457 152.878 223.941 153.57C222.157 153.761 221.182 155.311 221.206 156.981C221.253 162.442 221.348 167.88 221.443 173.342C221.538 178.47 220.873 184.504 222.609 189.37C223.512 191.874 226.676 190.991 227.294 188.869C227.793 187.175 227.865 185.387 227.841 183.622C228.507 183.574 229.173 183.526 229.815 183.526C230.576 183.526 231.266 183.55 231.979 183.479C232.122 184.337 232.265 185.196 232.384 186.054C232.954 190.014 239.114 189.37 238.544 185.387C237.592 178.875 236.094 172.436 234.001 166.187ZM227.675 177.587C227.627 175.966 227.603 174.344 227.579 172.698C227.532 170.552 227.508 168.429 227.461 166.282C228.103 168.095 228.721 169.908 229.268 171.744C229.839 173.604 230.314 175.512 230.766 177.397C229.744 177.325 228.673 177.397 227.675 177.564V177.587Z" fill="#1D1D1C"/>
<path d="M251.434 153.57C250.15 150.374 245.488 151.638 245.679 154.977C245.774 156.766 246.844 160.177 243.752 159.819C241.398 159.533 240.946 156.265 240.09 154.595C239.424 153.331 237.759 152.854 236.76 154.095C233.145 158.555 237.521 164.637 242.325 165.805C242.135 168.572 242.777 171.601 243.062 174.225C243.467 178.088 243.942 181.928 244.442 185.792C244.941 189.727 251.077 189.107 250.578 185.124C250.102 181.284 249.674 177.42 249.222 173.557C248.913 170.838 248.937 167.689 248.152 164.947C251.791 162.848 253.218 157.982 251.458 153.57H251.434Z" fill="#1D1D1C"/>
<path d="M264.277 174.225C263.587 172.793 263.73 170.456 263.564 168.858C263.35 166.926 263.135 164.97 262.945 163.039C262.541 159.294 262.612 154.691 260.852 151.304C259.758 149.205 257.023 149.491 256.405 151.781C255.786 154.023 256.143 156.48 256.333 158.769C256.524 161.178 256.809 163.563 257.047 165.948C257.309 168.333 257.546 170.742 257.808 173.127C258.046 175.274 258.212 176.991 260.305 178.041C262.517 179.162 265.419 176.586 264.277 174.248V174.225Z" fill="#1D1D1C"/>
<path d="M265.062 182.238C264.943 181.928 264.777 181.594 264.586 181.332C264.42 181.117 264.182 180.879 263.992 180.688C263.944 180.64 263.897 180.616 263.849 180.569C263.54 180.306 263.207 180.139 262.803 180.044C262.422 179.901 262.018 179.853 261.613 179.901C260.876 179.972 260.02 180.402 259.568 181.022C259.544 181.07 259.521 181.117 259.473 181.141C259.14 181.427 258.855 181.785 258.712 182.167C258.403 182.93 258.308 183.789 258.664 184.552C258.997 185.291 259.521 185.864 260.258 186.245C260.472 186.364 260.71 186.46 260.924 186.579C261.304 186.77 261.685 186.841 262.089 186.818C262.493 186.865 262.898 186.818 263.302 186.627C264.016 186.317 264.658 185.768 264.967 185.029C265.347 184.122 265.395 183.145 265.062 182.214V182.238Z" fill="#1D1D1C"/>
</g>
<defs>
<clipPath id="clip0_55_2">
<rect width="194" height="166" fill="white" transform="translate(84 37.3699)"/>
</clipPath>
</defs>
</svg>
