<svg width="344" height="241" viewBox="0 0 344 241" fill="none" xmlns="http://www.w3.org/2000/svg">
<rect x="0.137695" y="0.558594" width="343.438" height="239.623" rx="23" fill="white"/>
<path d="M261.331 163.848C257.253 163.896 253.199 163.848 249.121 163.896C247.898 163.896 247.418 163.632 247.466 162.313C247.562 159.339 247.49 156.34 247.49 153.318C246.842 153.222 246.411 153.126 245.811 153.03C245.811 150.439 245.907 147.944 245.787 145.426C245.763 144.874 245.787 144.394 245.883 143.962L245.931 139.069V125.852C246.627 125.852 247.226 125.852 247.802 125.852C251.664 125.852 255.502 125.852 259.364 125.852C260.18 125.852 260.707 125.684 260.707 124.724C260.707 123.789 260.252 123.525 259.412 123.549C257.421 123.573 255.454 123.549 253.463 123.549C250.92 123.549 248.378 123.549 245.787 123.549C245.715 122.973 245.667 122.661 245.667 122.349C245.619 114.961 245.547 107.597 245.523 100.209C245.499 93.0845 245.571 85.9601 245.427 78.8598C245.427 78.2841 245.475 77.7803 245.595 77.3485V70.704H245.619V68.665H250.009C250.081 67.9694 250.129 67.4416 250.177 66.9619C251.208 66.8419 252.839 68.4011 252.935 65.8584C250.177 64.9469 247.466 64.0354 244.468 63.0519L243.268 62.6441C243.004 62.6441 242.717 62.5481 242.429 62.4282C240.893 61.8045 239.286 61.3727 237.727 60.845C235.016 59.9335 232.33 59.0219 229.379 58.0145L228.156 57.6067C227.916 57.5827 227.676 57.5347 227.388 57.4387C223.694 56.1674 219.976 54.968 216.282 53.7446C214.171 53.049 212.06 52.3294 209.877 51.5857C209.877 51.5857 209.901 51.5618 209.925 51.5378L208.438 51.034C208.294 51.034 208.174 51.034 208.054 50.986C198.795 47.9876 189.584 44.9411 180.348 41.8707C180.085 41.7748 179.845 41.6069 179.605 41.4389L178.286 41.0072C177.974 41.0072 177.662 40.9592 177.374 40.8632C174.16 39.8557 170.969 38.8003 167.755 37.7448C167.347 37.6009 167.011 37.2651 167.035 37.2891C156.888 40.6473 146.958 43.9576 136.859 47.3159C136.859 47.3159 136.859 47.268 136.835 47.244L136.043 47.5078C135.803 47.6278 135.683 47.6997 135.539 47.7477C130.094 49.5468 124.649 51.2739 119.252 53.1449C118.916 53.2649 118.628 53.3129 118.388 53.3129L116.781 53.8406C116.781 53.8406 116.685 53.9125 116.613 53.9365C112.559 55.3038 108.505 56.6711 104.427 57.9425C104.331 57.9665 104.235 57.9905 104.139 57.9905L102.868 58.4222C102.868 58.4222 102.916 58.4462 102.94 58.4702C95.1681 61.0369 87.8278 63.4597 80.5596 65.8824C80.6315 68.3292 82.1667 66.9619 83.1263 67.0818C83.2222 67.6575 83.3182 68.1613 83.4381 68.8329H87.7319V99.3933L87.8039 111.579C87.8518 111.843 87.8758 112.107 87.8758 112.443C87.8278 123.261 87.8758 134.079 87.8758 144.874C87.8758 147.585 87.8758 150.319 87.8758 152.982C87.2282 153.15 86.7724 153.246 86.3406 153.366C86.2686 153.869 86.2207 154.325 86.1487 154.877L86.1967 158.355V159.339C86.1967 161.378 86.1967 163.416 86.1967 165.431V167.542C86.3886 167.231 86.7484 166.895 87.0363 166.799C87.444 166.655 87.9958 166.895 88.4995 167.207C89.2191 166.991 89.9628 166.799 90.6824 166.583C90.7543 166.727 90.8503 166.847 90.9223 166.991C89.411 168.382 87.8758 169.797 86.1967 171.332C86.1967 171.236 86.1967 171.141 86.1967 171.045V172.412C87.612 169.989 90.2506 168.718 92.0737 166.559C93.2011 168.334 91.3061 168.574 90.8023 169.797C91.426 169.461 91.8098 169.269 92.1936 169.078C92.3136 169.221 92.4335 169.365 92.5534 169.485C91.5459 171.908 89.507 173.227 87.468 173.803C86.9163 173.587 86.6285 173.443 86.2207 173.275V177.857C86.3406 176.73 86.6764 175.746 87.9958 174.955C89.579 174.019 90.8023 172.508 92.3136 171.117C92.7213 173.635 92.4815 175.482 90.3945 176.874C88.9553 177.809 87.7559 179.128 86.2207 180.496V181.311C86.2207 181.311 86.3406 181.191 86.3886 181.119C88.1397 179.392 89.9867 177.785 91.8578 176.154C92.0257 176.01 92.4575 176.154 92.7933 176.154C93.369 174.091 95.264 173.371 96.5114 172.028C96.6553 172.1 96.7753 172.172 96.9192 172.244C96.7033 172.892 96.4874 173.539 96.2715 174.211C97.1351 174.835 97.0151 175.602 96.1756 176.298C95.0002 177.257 93.6809 178.049 92.5774 179.08C90.7543 180.76 89.0512 182.583 87.3001 184.31C87.0602 184.55 86.7724 184.766 86.2447 184.861V185.941C88.3076 184.046 90.2026 182.343 92.0737 180.616C92.2416 180.664 92.4095 180.712 92.6014 180.736C92.4095 182.055 92.5534 183.566 91.9297 184.646C90.7304 186.709 88.6914 186.852 86.2447 186.397V187.284H87.492C89.0992 187.212 90.7304 187.284 92.3615 187.284H96.7993C97.7588 187.14 97.6628 186.373 97.6628 185.653C97.6628 179.92 97.6628 174.187 97.6628 168.478C97.6628 167.95 97.6628 167.446 97.6628 166.799H160.511V167.015C160.655 168.766 160.727 169.797 160.511 170.541V172.124C160.511 172.124 160.559 172.124 160.583 172.1V180.592C162.574 181.719 165.044 179.944 166.795 181.791C168.379 179.872 170.753 181.647 172.888 180.736V166.775H236.312C236.312 170.013 236.312 173.155 236.312 176.298C236.312 179.392 236.36 182.511 236.264 185.605C236.24 186.613 236.504 187.14 237.175 187.26H238.327C239.07 187.212 239.814 187.26 240.606 187.26H242.189C242.189 187.26 242.429 187.26 242.573 187.26C243.796 187.308 245.019 187.212 246.219 187.26H247.298C248.09 187.116 248.306 186.565 248.282 185.533C248.21 181.047 248.258 176.538 248.258 172.052C248.258 170.301 248.258 168.574 248.258 166.679C252.815 166.679 257.157 166.679 261.475 166.679C262.41 166.679 263.13 166.703 263.154 165.383C263.154 164.064 262.626 163.752 261.427 163.776L261.331 163.848ZM246.555 153.917V163.776H241.205V157.707C241.085 157.707 240.965 157.707 240.821 157.707V163.728H237.583C237.583 160.658 237.583 157.611 237.583 154.589C237.583 153.15 237.583 151.71 237.583 150.247C237.583 148.168 238.639 146.721 240.75 145.905V154.829C240.893 154.829 241.037 154.829 241.181 154.829C241.181 152.838 241.181 150.871 241.181 148.88C241.181 146.401 242.453 144.682 244.995 143.723C244.995 145.857 244.995 147.896 244.995 149.935C244.995 150.727 245.091 151.543 244.995 152.334C244.851 153.486 245.187 154.109 246.579 153.893L246.555 153.917ZM247.154 173.179L247.49 173.371C247.202 173.947 246.986 174.595 246.579 175.122C245.979 175.89 245.283 176.562 244.636 177.281C243.556 178.073 242.501 178.889 241.517 179.632C241.253 178.649 240.989 177.665 240.726 176.682C240.726 176.682 240.726 176.682 240.75 176.682C241.709 175.626 242.693 174.595 243.652 173.539C244.779 172.7 245.907 171.86 247.034 171.021C248.09 172.436 246.363 172.772 245.835 173.851C246.435 173.563 246.794 173.371 247.154 173.203V173.179ZM240.51 172.124C240.654 172.22 240.798 172.292 240.917 172.388C240.486 173.203 240.03 174.043 239.574 174.907C239.862 174.787 240.198 174.667 240.797 174.451C240.606 176.922 238.447 177.521 237.079 179.176C236.816 176.898 236.624 175.051 238.423 173.731C239.118 173.179 239.838 172.652 240.534 172.1L240.51 172.124ZM245.043 171.884C244.468 172.244 244.108 172.94 243.652 173.467C242.908 173.971 242.141 174.499 241.397 175.003C241.253 174.907 241.109 174.811 240.965 174.715C241.469 173.851 241.997 172.988 242.573 172.004C242.093 172.268 241.709 172.484 241.301 172.7C241.181 171.117 245.403 166.943 247.082 166.823C247.802 169.078 246.914 170.637 245.043 171.86V171.884ZM241.445 170.517C241.325 170.445 241.181 170.349 241.061 170.277C241.325 169.581 241.589 168.91 241.709 168.622C241.421 167.854 241.253 167.422 241.133 167.063H245.307C244.06 168.19 242.765 169.365 241.469 170.541L241.445 170.517ZM236.792 162.697C236.744 163.129 236.24 163.848 235.928 163.848C232.138 163.92 228.372 163.896 224.438 163.896V133.144H236.816C236.816 134.055 236.816 134.943 236.816 135.831C236.816 138.637 236.816 141.468 236.816 144.274L236.911 144.226V150.103L236.816 150.151C236.816 153.15 236.816 156.004 236.816 158.835C236.816 160.13 236.888 161.401 236.768 162.673L236.792 162.697ZM223.454 131.561C223.766 131.369 224.078 130.961 224.39 130.985C228.132 131.177 231.85 130.793 235.592 130.985C236.048 131.009 236.48 131.393 236.935 131.633C236.816 131.849 236.696 132.065 236.6 132.28C232.546 132.28 228.492 132.28 224.438 132.256C224.126 132.256 223.79 131.801 223.478 131.561H223.454ZM223.622 133.552V163.321C223.622 163.321 223.55 163.321 223.502 163.321V133.552C223.502 133.552 223.574 133.552 223.622 133.552ZM200.09 159.099C199.635 158.211 199.443 157.156 198.867 156.868C198.147 156.508 197.116 156.772 196.156 156.772C196.036 156.052 195.94 155.477 195.821 154.757H193.374C193.374 154.757 193.302 154.517 193.254 154.397C202.945 147.465 212.636 140.556 222.543 133.48V163.776H207.359C207.287 163.033 207.239 162.409 207.167 161.617H203.641C204.216 157.851 201.338 159.602 200.09 159.123V159.099ZM221.703 132.856C221.535 132.76 221.391 132.688 221.224 132.592C221.176 132.112 221.128 131.633 221.104 131.129C221.248 130.985 221.391 130.817 221.535 130.673C221.943 131.009 222.351 131.345 222.759 131.657C222.423 132.041 222.063 132.448 221.727 132.832L221.703 132.856ZM220.288 129.33V129.258C218.537 129.258 216.81 129.282 215.155 129.282C214.795 128.25 214.723 127.051 214.147 126.691C213.452 126.283 212.324 126.595 211.844 126.595C211.197 125.42 210.933 124.293 210.285 123.957C209.542 123.573 208.414 123.861 207.622 123.861C207.239 122.877 207.167 121.678 206.567 121.294C205.871 120.838 204.72 121.102 203.856 121.054C203.569 120.215 203.377 119.423 203.329 118.655H199.994V118.368C199.994 118.368 199.97 118.368 199.946 118.368C199.611 117.48 199.539 116.305 198.939 115.921C198.243 115.465 197.092 115.705 196.18 115.657C195.861 113.946 194.845 113.082 193.134 113.066C186.273 113.066 179.437 113.066 172.576 113.066C171.953 113.066 171.305 113.066 170.561 113.066V76.6049C170.561 76.6049 170.585 76.6049 170.609 76.6049V75.8133C170.418 75.5015 170.442 75.0937 170.609 74.542H236.744V129.138H231.85V129.282H220.312L220.288 129.33ZM217.146 133.264C216.666 133.096 216.114 133.024 215.706 132.736C213.116 130.961 210.525 129.138 208.006 127.267C207.67 127.003 207.718 126.236 207.599 125.684C208.246 126.259 208.894 126.859 209.589 127.363C212.156 129.21 214.771 131.033 217.338 132.88C217.266 133.024 217.218 133.144 217.146 133.288V133.264ZM217.29 134.032C216.33 134.727 215.706 135.183 214.867 135.783V134.032H217.29ZM207.646 125.084C207.646 125.084 207.694 124.892 207.694 124.796H210.333V126.835C209.302 126.164 208.462 125.612 207.622 125.084H207.646ZM211.485 127.771C211.485 127.771 211.556 127.579 211.58 127.483H214.003V129.498C213.044 128.85 212.276 128.322 211.485 127.795V127.771ZM214.987 130.217H217.889V132.256C216.906 131.561 216.114 131.009 214.987 130.217ZM197.308 118.679C200.402 120.862 203.497 123.069 206.615 125.252C206.903 125.444 207.263 125.516 207.599 125.66C206.999 125.66 206.231 125.948 205.823 125.66C201.17 122.421 196.564 119.111 191.983 115.801C191.719 115.609 191.575 115.273 191.383 115.009C191.479 114.913 191.551 114.817 191.647 114.721C193.542 116.041 195.437 117.36 197.332 118.679H197.308ZM192.414 114.266C192.414 114.266 192.486 114.074 192.51 113.978H195.029V116.065C194.021 115.369 193.206 114.817 192.414 114.266ZM196.276 116.952C196.276 116.952 196.396 116.736 196.444 116.64H198.651C198.675 117.24 198.699 117.792 198.747 118.703C197.74 118.008 197.02 117.48 196.276 116.976V116.952ZM200.018 119.615C200.018 119.615 200.09 119.375 200.138 119.255C200.978 119.375 201.817 119.495 202.681 119.639V121.462C201.65 120.742 200.834 120.167 200.018 119.615ZM203.569 122.134H206.303V124.053C205.32 123.357 204.6 122.853 203.569 122.134ZM171.569 115.177C171.209 115.177 170.849 114.793 170.49 114.601C170.873 114.338 171.233 113.882 171.617 113.882C176.726 113.834 181.86 113.858 186.969 113.882C187.353 113.882 187.737 114.314 188.12 114.53C187.713 114.745 187.329 115.153 186.921 115.153C184.426 115.201 181.908 115.177 179.413 115.177C176.798 115.177 174.184 115.177 171.569 115.129V115.177ZM170.226 168.046C170.705 167.614 171.209 167.207 171.713 166.775C172.145 168.19 170.058 170.661 167.059 172.316C166.58 168.622 167.827 166.655 170.729 166.799C170.442 167.231 170.25 167.542 170.034 167.854C170.106 167.902 170.154 167.974 170.226 168.022V168.046ZM169.602 115.465C169.698 116.976 169.578 117.144 167.155 118.847C166.699 117.552 167.419 116.544 169.602 115.465ZM166.819 111.771V85.8882H169.626V111.771H166.819ZM169.482 119.015C169.746 120.406 169.338 120.982 167.131 122.302C166.819 120.934 167.347 120.191 169.482 119.015ZM169.65 127.435V153.39H166.867V127.435H169.65ZM166.963 80.9227C166.699 78.428 168.547 78.1162 169.602 76.6529C169.962 79.1236 168.067 79.4355 166.963 80.9227ZM167.083 83.4174C166.963 83.2975 166.843 83.1776 166.699 83.0576C167.635 82.242 168.57 81.4025 169.506 80.5869C169.818 82.0741 168.786 83.2735 167.083 83.4174ZM169.578 73.2706C170.01 75.6694 167.755 75.7174 167.107 76.9647C166.747 74.9258 168.523 74.59 169.578 73.2706ZM167.275 73.6065C167.107 73.5105 166.939 73.3906 166.771 73.2946C167.083 72.7189 167.275 72.0473 167.707 71.6155C168.163 71.1837 168.858 71.0158 169.458 70.7519C169.554 70.9438 169.65 71.1117 169.77 71.3036C168.93 72.0713 168.115 72.8389 167.275 73.6305V73.6065ZM175.743 44.6053C176.175 44.6533 176.654 44.7732 177.134 44.9411C182.891 46.9561 188.696 48.7792 194.477 50.6982C194.957 50.8661 195.413 51.082 196.204 51.4178L190.447 54.4163C188.696 55.3278 186.921 56.2633 185.17 57.1749L179.941 59.9095C177.854 61.0129 175.743 62.0924 173.632 63.1958L168.187 66.0503C168.187 65.1148 168.187 64.4911 168.187 63.8914C168.187 59.2858 168.235 54.7041 168.187 50.0985C168.187 49.7147 168.235 49.4029 168.307 49.115L168.355 42.1346C170.202 42.7343 172.001 43.334 174.136 44.0536L175.767 44.6053H175.743ZM169.554 164.088C170.01 166.055 169.026 166.127 167.467 165.935C168.211 165.264 168.81 164.76 169.554 164.088ZM167.131 164.256C166.819 162.841 167.419 161.977 169.626 160.778C169.722 162.217 169.386 162.721 167.131 164.256ZM167.203 161.042C166.747 159.411 167.107 158.907 169.674 157.252C169.89 159.339 168.043 159.746 167.203 161.042ZM167.011 157.492C166.891 155.501 167.083 155.333 169.194 155.572C168.451 156.22 167.851 156.772 167.011 157.492ZM169.41 70.2962V68.641L200.642 52.4253L238.063 65.0908V70.608H183.803C183.803 70.608 183.755 70.4401 183.731 70.3681L169.386 70.2962H169.41ZM211.724 71.5675H190.135C190.135 71.5675 190.135 71.4236 190.135 71.3276H211.724C211.724 71.3276 211.724 71.4716 211.724 71.5675ZM176.127 73.7504C175.791 73.7264 175.479 73.2946 175.167 73.0547C175.503 72.8149 175.863 72.3831 176.175 72.4071C177.206 72.479 178.238 72.8868 179.245 72.8868C180.253 72.8868 181.26 72.479 182.291 72.4311C182.699 72.4311 183.107 72.9108 183.539 73.1747C183.131 73.3906 182.747 73.7504 182.339 73.7984C181.332 73.8943 180.324 73.8224 179.317 73.8224C178.262 73.8224 177.182 73.8703 176.127 73.7744V73.7504ZM174.687 73.6544H170.609C170.25 72.527 170.801 72.1432 171.713 72.3591C172.696 72.599 174.304 71.4476 174.711 73.6544H174.687ZM236.648 73.7984C228.084 73.7984 219.52 73.7984 210.981 73.7984C202.537 73.7984 194.069 73.7984 185.626 73.7984C185.194 73.7984 184.738 73.8463 184.354 73.7024C184.187 73.6544 183.995 73.0547 184.091 72.9348C184.33 72.6709 184.714 72.3831 185.05 72.3591C187.713 72.3111 190.399 72.3111 193.062 72.3111C207.67 72.3111 222.255 72.3111 236.864 72.3111C237.223 72.3111 237.607 72.3591 237.967 72.4071C238.495 73.8943 237.535 73.7504 236.648 73.7504V73.7984ZM240.75 138.517C240.75 140.004 240.75 141.516 240.75 143.003C240.75 145.474 240.366 145.905 237.655 146.505V134.319H240.654C240.726 134.751 240.774 135.159 240.845 135.591C240.965 135.567 241.085 135.543 241.085 135.519C241.061 134.463 241.589 134.151 242.573 134.247C243.292 134.319 244.036 134.247 244.995 134.247C244.995 137.078 245.019 139.741 244.947 142.403C244.947 142.739 244.492 143.195 244.132 143.411C243.292 143.938 242.357 144.346 241.133 144.97V138.541C241.013 138.541 240.869 138.541 240.75 138.541V138.517ZM241.061 82.242C241.133 80.6589 241.229 79.0757 241.301 77.4685C241.493 77.4685 241.709 77.5165 241.901 77.5405V102.032C241.901 102.032 241.661 102.128 241.541 102.152C241.349 101.696 241.181 101.24 240.869 100.521C240.989 102.847 239.286 101.816 238.183 102.296V114.985C238.039 114.985 237.919 114.985 237.775 114.985V77.5405H240.75V82.242C240.75 82.242 240.941 82.242 241.037 82.242H241.061ZM241.421 118.056C241.085 116.568 241.589 115.897 244.708 113.714C244.755 115.393 244.324 115.945 241.421 118.056ZM241.469 121.558C240.893 120.287 241.781 119.135 244.612 117.384C244.827 118.871 244.708 119.039 241.469 121.558ZM244.444 110.236C244.971 111.723 244.492 112.371 241.157 114.769C241.181 112.203 243.388 111.747 244.444 110.236ZM241.421 110.931C241.421 108.7 243.412 108.077 244.66 106.805C244.899 109.18 242.597 109.612 241.421 110.931ZM240.51 117.456C241.061 119.711 238.735 119.999 237.847 121.294C237.415 119.087 239.574 118.727 240.51 117.456ZM240.462 114.002C240.965 116.257 238.759 116.568 237.799 117.768C237.535 115.657 239.646 115.321 240.462 114.002ZM239.19 113.186C238.998 113.066 238.807 112.97 238.615 112.85C239.166 112.011 239.718 111.171 240.414 110.116C241.229 112.035 239.934 112.443 239.19 113.186ZM238.615 109.324C239.142 108.533 239.67 107.741 240.342 106.71C241.205 108.557 239.982 109.012 239.214 109.684C239.022 109.564 238.807 109.444 238.615 109.3V109.324ZM239.214 106.614C238.471 104.671 239.598 104.167 240.486 103.543C240.654 103.663 240.845 103.759 241.013 103.879C240.486 104.695 239.958 105.51 239.238 106.638L239.214 106.614ZM240.534 121.006C240.989 123.261 238.711 123.501 237.799 124.772C237.463 122.565 239.502 122.182 240.534 121.006ZM240.534 124.508C240.941 126.739 238.926 127.171 237.751 128.226C237.559 126.092 239.502 125.684 240.534 124.508ZM237.823 131.825C237.391 129.618 239.478 129.21 240.534 128.059C240.845 130.217 238.783 130.601 237.823 131.825ZM241.181 132.112C241.181 129.594 243.58 129.162 244.54 127.579C245.259 128.97 244.252 130.289 241.181 132.112ZM241.421 128.634C241.037 126.811 242.093 125.804 244.18 125.996C243.244 126.883 242.405 127.699 241.421 128.634ZM241.685 123.333C242.693 122.397 243.604 121.582 244.731 120.526C244.779 122.757 243.724 123.693 241.685 123.333ZM241.565 107.741C240.989 106.23 241.901 105.03 244.875 103.255C244.755 105.702 242.525 106.182 241.565 107.741ZM242.884 101.984V78.7638H244.564V101.984H242.884ZM241.349 76.509C241.349 76.509 241.277 76.2691 241.253 76.1492H244.396C244.444 76.6769 244.492 77.2046 244.612 78.2841C243.34 77.5884 242.357 77.0607 241.349 76.509ZM241.157 74.9258C242.285 73.9183 243.34 73.0068 244.444 72.0233C244.755 74.0143 243.1 75.5015 241.157 74.9258ZM241.445 72.647C241.109 71.3276 242.093 70.0563 244.372 68.8809C244.708 70.1282 244.156 70.8239 241.445 72.647ZM238.998 71.6395C238.902 69.4806 239.67 68.7849 242.021 68.8809C240.965 69.8644 240.102 70.656 238.998 71.6395ZM240.582 71.8554C240.774 74.0143 239.406 75.3336 238.351 75.1417C238.95 74.2781 239.694 73.1507 240.582 71.8554ZM240.702 76.1971C240.702 76.3411 240.702 76.461 240.702 76.6049H237.655C237.655 76.461 237.655 76.3411 237.655 76.1971H240.702ZM259.748 124.58C259.748 124.724 259.748 124.844 259.748 124.988H242.237C242.237 124.844 242.237 124.724 242.237 124.58H259.748ZM248.33 66.77C247.466 66.8419 246.627 66.9139 245.595 67.0098V65.3307C246.603 65.6665 247.466 65.9784 248.33 66.2662C248.33 66.4341 248.33 66.6021 248.33 66.746V66.77ZM244.156 63.7715C246.627 64.5871 249.121 65.4027 251.592 66.2182C251.568 66.3142 251.52 66.4102 251.496 66.5061C249.025 65.6905 246.531 64.8749 244.06 64.0594C244.084 63.9634 244.108 63.8675 244.156 63.7715ZM248.018 67.8014C248.018 67.8014 248.018 67.9694 247.994 68.0653H239.214C239.214 68.0653 239.214 67.8974 239.214 67.8014H248.018ZM227.964 59.5497C232.666 61.0369 237.343 62.6201 242.021 64.1793C242.021 64.3472 242.021 64.5151 242.045 64.683C241.469 64.803 240.798 65.1628 240.318 65.0189C235.712 63.5556 231.13 61.9964 226.525 60.4612C226.453 60.4372 226.405 60.3173 226.165 60.0054C226.837 59.8375 227.508 59.4297 227.964 59.5737V59.5497ZM208.462 53.1449C214.459 55.064 220.432 57.031 226.429 58.9979C226.429 59.1659 226.453 59.3578 226.477 59.5257C225.853 59.6216 225.158 59.9335 224.63 59.7656C218.777 57.8945 212.948 55.9515 207.095 54.0085C206.999 53.9845 206.927 53.8646 206.519 53.4808C207.335 53.3129 207.982 52.953 208.462 53.097V53.1449ZM206.783 52.7132C204.864 54.2724 203.377 52.4253 201.698 52.1375C203.617 50.5783 205.104 52.3773 206.783 52.7132ZM201.122 50.5303C201.17 50.7462 201.242 50.9621 201.29 51.1779C190.375 56.887 179.485 62.5721 168.523 68.3052C167.875 66.9859 168.666 66.674 169.362 66.3142C174.999 63.3637 180.636 60.4372 186.297 57.4867C190.519 55.2798 194.717 53.049 198.963 50.9141C199.587 50.6022 200.402 50.6502 201.146 50.5303H201.122ZM177.638 42.9981C184.498 45.205 191.359 47.4838 198.195 49.7387C198.291 49.7627 198.363 49.8826 198.435 49.9306C198.435 50.0985 198.435 50.2424 198.435 50.4103C197.764 50.4583 197.02 50.6982 196.42 50.5063C189.8 48.3714 183.227 46.1645 176.63 43.9816C176.438 43.9097 176.271 43.7897 176.055 43.262C176.582 43.1661 177.182 42.8302 177.638 42.9981ZM167.107 39.4959C170.082 40.4794 173.032 41.4389 176.055 42.4464C175.023 43.5978 173.056 43.262 167.923 41.0791C167.467 40.8872 167.131 40.3355 166.747 39.9517L167.107 39.4959ZM167.251 42.0626V48.3954C167.251 48.3954 167.107 48.3954 167.035 48.3954V42.0866C167.035 42.0866 167.179 42.0866 167.251 42.0866V42.0626ZM166.028 42.1346C166.028 42.1346 166.22 42.1346 166.316 42.1346V51.7057C166.46 51.7057 166.604 51.7057 166.771 51.7297C166.843 51.01 166.915 50.2904 167.011 49.5708C167.131 49.5708 167.251 49.6187 167.371 49.6187V67.9214C167.251 67.9214 167.131 67.9214 166.987 67.9214V55.4718C166.819 55.4718 166.627 55.4718 166.46 55.4718V67.8974C166.316 67.8974 166.196 67.8974 166.052 67.8974V42.1346H166.028ZM165.812 112.778C165.812 112.778 165.812 112.922 165.812 112.994H116.181C116.181 112.994 116.181 112.85 116.181 112.778H165.812ZM163.701 111.747V87.1115H165.644V111.747H163.701ZM163.701 164.064C163.341 161.689 165.284 161.378 166.22 159.866C166.651 162.337 164.852 162.721 163.701 164.064ZM163.893 165.863C164.589 165.072 165.236 164.304 166.028 163.392C166.651 165.455 166.004 166.127 163.893 165.863ZM94.1366 148.256C94.3765 148.4 94.5924 148.52 94.8323 148.664C94.3765 149.48 93.9207 150.295 93.4889 151.135C93.2251 150.967 92.9372 150.823 92.6734 150.655C93.1531 149.863 93.6569 149.072 94.1366 148.256ZM94.3285 144.898C94.4964 144.994 94.6643 145.09 94.8323 145.186C94.3765 145.977 93.9207 146.769 93.4889 147.561C92.4815 145.953 93.6809 145.57 94.3285 144.898ZM93.1531 154.829C92.4095 152.934 93.6329 152.526 94.3525 151.854C94.5444 151.974 94.7363 152.094 94.9282 152.238C94.4005 153.006 93.8728 153.773 93.1531 154.829ZM93.2251 157.947C93.0332 157.827 92.8413 157.707 92.6494 157.587C93.1531 156.796 93.6329 156.004 94.2805 154.973C95.1681 156.796 93.8967 157.228 93.2251 157.947ZM92.9612 143.579C92.8893 142.763 92.8413 142.043 92.7933 141.324C92.6494 141.324 92.5055 141.324 92.3615 141.324C92.3615 141.78 92.4335 142.259 92.3375 142.691C92.2656 143.027 91.9537 143.291 91.7378 143.603C91.5459 143.291 91.2101 142.979 91.1861 142.667C91.1382 139.932 91.1621 137.198 91.1621 134.487C91.1621 129.834 91.1621 125.18 91.1861 120.526C91.1861 120.047 91.522 119.543 91.7139 119.063C91.9537 119.567 92.2656 120.047 92.4335 120.574C92.5534 120.934 92.4335 121.342 92.4335 121.726C92.5294 121.726 92.6494 121.726 92.7453 121.702C92.6974 121.318 92.5534 120.934 92.6014 120.574C92.6974 119.615 92.9852 118.919 94.2566 118.943C95.432 118.991 95.6718 119.447 95.6718 120.502C95.6239 127.843 95.6718 135.159 95.6478 142.499C95.6478 142.859 95.5999 143.243 95.5999 143.603H92.9612V143.579ZM88.5235 121.678C88.5235 120.406 88.8833 119.855 90.2986 120.335V143.555C89.7709 143.579 89.3151 143.603 88.6914 143.651C88.6434 143.051 88.5475 142.547 88.5475 142.043C88.5475 135.255 88.5475 128.466 88.5475 121.678H88.5235ZM94.0647 68.7849C94.0647 68.7849 94.3525 68.8569 95.0002 69.0488C93.8008 70.1522 92.8173 70.9678 91.9297 71.9033C91.2821 72.575 90.8263 73.4146 90.1786 74.0862C89.8668 74.3981 89.2911 74.47 88.8593 74.6379C88.7634 74.2541 88.4755 73.6544 88.6194 73.5345C90.3945 71.9273 92.2416 70.3681 94.0886 68.8089L94.0647 68.7849ZM91.354 68.9049C90.3945 69.7924 89.6749 70.4401 88.9073 71.1357C88.3316 69.4326 89.0512 68.737 91.354 68.9049ZM96.5114 70.632C100.182 70.632 103.852 70.7279 107.522 70.7759C112.631 70.8239 117.765 70.8959 122.874 70.9198C128.655 70.9438 134.436 70.9918 140.193 70.9438C147.101 70.9198 153.986 70.7999 160.894 70.7519C161.494 70.7519 162.094 70.8719 162.694 70.9438C162.694 71.1837 162.646 71.3996 162.646 71.6395C158.184 71.6395 153.746 71.6395 149.284 71.6395C144.727 71.6395 140.193 71.6395 135.635 71.6395C131.15 71.6395 126.64 71.6395 122.154 71.6395C117.597 71.6395 113.063 71.7354 108.505 71.6155C104.211 71.4955 99.8937 71.8554 95.5759 71.5435C95.5279 71.3996 95.5039 71.2317 95.4559 71.0878C95.7918 70.9198 96.1516 70.632 96.4874 70.632H96.5114ZM95.5999 70.1043V64.9949C101.957 62.9079 108.337 60.797 114.718 58.7101C120.307 56.863 125.896 55.064 131.462 53.1689C132.709 52.7372 133.692 52.7611 134.916 53.4088C144.247 58.3743 153.65 63.2678 163.029 68.1133C163.989 68.617 164.301 69.1208 163.869 70.0803H95.5999V70.1043ZM161.23 86.296C156.625 86.296 152.259 86.296 147.869 86.296C146.766 86.296 146.934 87.0876 146.934 87.7592C146.934 93.7082 146.934 99.6331 146.934 105.582C146.934 107.597 146.934 109.636 146.934 111.771H143.215V74.6139H162.67V111.699C161.038 112.299 161.23 111.147 161.23 110.284C161.23 103.231 161.23 96.1549 161.23 89.1025C161.23 88.263 161.23 87.3994 161.23 86.296ZM160.295 87.0636V111.747H147.797V87.0636H160.295ZM162.55 73.7984H160.966C143.839 73.7984 126.712 73.7984 109.585 73.7984C108.529 73.7984 107.45 73.8463 106.874 72.3351C109.441 72.3351 111.816 72.3351 114.214 72.3351C129.83 72.3351 145.47 72.3351 161.086 72.3351C161.95 72.3351 163.053 72.0952 162.55 73.7984ZM142.4 110.787C142.4 111.915 141.92 112.035 141.057 111.795V87.1595C141.896 86.8237 142.4 87.0156 142.4 88.191C142.4 95.7231 142.376 103.255 142.4 110.811V110.787ZM140.841 75.5495C140.841 74.3741 141.416 74.3981 142.328 74.6859V86.152C141.248 86.5358 140.841 86.224 140.841 85.1685C140.865 81.9542 140.865 78.7638 140.841 75.5495ZM162.741 152.19C162.741 153.174 162.598 153.797 161.23 153.366C161.23 149.815 161.23 146.217 161.23 142.595C161.23 138.157 161.182 133.72 161.23 129.282C161.23 128.083 160.846 127.723 159.647 127.747C156.001 127.819 152.379 127.819 148.733 127.747C147.341 127.723 146.886 128.083 146.91 129.522C146.982 137.126 146.934 144.73 146.91 152.334C146.91 152.646 146.886 152.958 146.862 153.414H143.215V115.993C144.799 115.993 146.334 115.993 147.869 115.993C152.355 115.993 156.864 116.017 161.35 115.993C162.406 115.993 162.741 116.329 162.717 117.384C162.694 128.994 162.694 140.604 162.717 152.214L162.741 152.19ZM147.725 144.994C147.725 140.028 147.725 135.063 147.725 130.074C147.725 129.426 147.485 128.538 148.589 128.538C152.475 128.538 156.361 128.538 160.391 128.538V153.39H147.749C147.749 150.511 147.749 147.752 147.749 144.994H147.725ZM162.574 115.201C154.874 115.201 147.293 115.201 139.689 115.201C125.608 115.201 111.552 115.201 97.4709 115.201C97.207 115.201 96.8952 115.297 96.6793 115.201C96.2715 115.009 95.9357 114.697 95.5519 114.434C95.9357 114.242 96.2955 113.882 96.6793 113.882C101.165 113.858 105.675 113.882 110.16 113.882C127.192 113.882 144.223 113.858 161.23 113.858C161.998 113.858 162.981 113.666 162.55 115.225L162.574 115.201ZM140.937 128.658C141.992 128.394 142.424 128.61 142.424 129.69C142.4 137.27 142.424 144.85 142.424 152.43C142.424 153.558 141.896 153.653 140.937 153.366V128.658ZM140.889 126.859C140.841 123.285 140.865 119.735 140.865 116.137C141.848 115.825 142.424 115.945 142.4 117.048C142.4 120.311 142.4 123.549 142.352 126.811C142.352 127.147 141.896 127.459 141.632 127.795C141.368 127.483 140.865 127.171 140.865 126.859H140.889ZM125.177 153.51C120.835 153.51 116.493 153.51 112.151 153.51C111.959 153.51 111.792 153.51 111.6 153.486L96.5354 153.438C96.5354 150.247 96.5354 147.105 96.5354 143.986C96.5354 135.207 96.5594 126.451 96.5114 117.672C96.5114 116.281 96.9432 115.993 98.2385 115.993C111.72 116.041 125.201 116.017 138.682 115.993C139.833 115.993 140.145 116.401 140.145 117.48C140.121 129.042 140.145 140.604 140.121 152.166C140.121 152.574 140.025 153.006 139.977 153.558C139.329 153.558 138.754 153.558 138.178 153.558C133.86 153.558 129.542 153.558 125.225 153.558L125.177 153.51ZM95.5519 73.0068C95.8637 72.7909 96.1516 72.3831 96.4634 72.3831C99.4619 72.3351 102.46 72.3351 105.435 72.4071C105.939 72.4071 106.418 73.0068 106.922 73.3186L106.73 73.7984C103.324 73.7984 99.8937 73.7984 96.4874 73.7744C96.1756 73.7744 95.8637 73.2706 95.5519 73.0068ZM96.0316 112.778H114.718C114.718 112.778 114.718 112.898 114.718 112.97H96.0796C96.0796 112.97 96.0556 112.85 96.0316 112.778ZM96.5834 111.747L96.4634 105.03L96.5834 74.494C97.375 74.494 98.1426 74.494 98.9102 74.494C99.318 74.494 99.7018 74.494 100.11 74.494H104.211C104.643 74.494 105.075 74.47 105.483 74.422C106.011 74.3741 106.466 74.422 106.898 74.494L140.073 74.59C140.073 76.461 140.073 78.332 140.073 80.2031C140.073 82.9857 140.025 85.7682 140.097 88.5508C140.097 88.8627 140.097 89.1025 140.025 89.3424L139.953 111.843C139.186 111.843 138.514 111.843 137.842 111.843C130.838 111.843 123.809 111.843 116.805 111.867C116.445 111.867 116.133 111.843 115.869 111.747L96.5594 111.675L96.5834 111.747ZM95.5519 77.5165V102.176C94.4964 101.768 92.9132 102.847 92.6974 100.928C92.3375 101.312 91.9777 101.672 91.6179 102.032C91.474 101.528 91.1861 101.024 91.1621 100.521C91.1382 93.3004 91.1382 86.1041 91.1621 78.8838C91.1621 78.38 91.474 77.8523 91.6179 77.3485C91.8098 77.3965 92.0257 77.4445 92.2176 77.4685C92.2656 78.1881 92.3375 78.8838 92.3855 79.6034C92.4815 79.6034 92.5774 79.6274 92.6734 79.6514C92.7693 78.9797 92.8413 78.2841 92.9612 77.5165H95.5039H95.5519ZM94.1366 106.35C94.3525 106.494 94.5924 106.614 94.8083 106.757C94.3525 107.549 93.8728 108.317 93.417 109.108C93.1771 108.964 92.9372 108.82 92.6974 108.677C93.1771 107.909 93.6569 107.141 94.1366 106.35ZM92.6014 105.174C93.1291 104.407 93.6569 103.639 94.1846 102.871C94.4005 103.015 94.6164 103.135 94.8323 103.279C94.3525 104.071 93.8728 104.862 93.369 105.654C93.1051 105.486 92.8413 105.342 92.5774 105.174H92.6014ZM94.2566 109.612C95.1201 111.411 93.9687 111.819 93.2491 112.491C93.0812 112.395 92.9132 112.299 92.7213 112.203C93.1771 111.435 93.6569 110.643 94.2566 109.636V109.612ZM94.4245 113.522C94.5684 113.618 94.7123 113.714 94.8802 113.81C94.3765 114.577 93.8967 115.345 93.2011 116.425C92.5294 114.553 93.5129 114.074 94.4245 113.546V113.522ZM89.2191 111.099C90.2266 110.14 91.1142 109.324 92.1936 108.293C92.4095 110.284 91.0182 111.675 89.2191 111.099ZM88.8353 116.353C88.4995 113.882 90.9942 113.522 92.0737 112.083C92.3855 114.506 89.9388 114.937 88.8353 116.353ZM88.7874 109.396C88.6194 106.925 91.0182 106.518 92.1216 105.054C92.3615 107.573 89.8908 107.933 88.7874 109.396ZM92.2176 117.6C92.2176 117.6 92.2176 117.792 92.2176 117.912C91.1142 118.463 90.0107 119.015 88.6434 119.711V117.6H92.2176ZM88.7394 106.158C88.5235 104.071 89.8908 102.847 92.2176 102.967C91.0182 104.071 89.9867 105.006 88.7394 106.158ZM88.6194 78.2121V76.1971H92.3375C92.3375 76.1971 92.2176 76.389 92.1696 76.509C91.0662 77.0367 89.9628 77.5644 88.6434 78.2121H88.6194ZM94.4964 71.7114C94.6404 71.7834 94.7603 71.8793 94.9042 71.9513C94.4245 72.6949 93.9447 73.4625 93.297 74.446C92.7933 72.6949 92.8413 72.647 94.4964 71.7114ZM90.2746 78.6679V102.008C89.459 102.008 88.5475 102.488 88.5475 101.096C88.5475 93.7082 88.5475 86.3439 88.5475 78.8358C89.1472 78.7878 89.6509 78.7398 90.2986 78.6919L90.2746 78.6679ZM88.8353 148.016C88.4755 146.145 90.3466 144.37 92.6014 144.586C91.2101 145.857 90.0587 146.913 88.8353 148.016ZM92.1936 147.009C92.3375 149.48 90.0107 149.959 88.7394 151.303C88.7394 148.928 90.9702 148.376 92.1936 147.009ZM96.1996 155.453C96.5594 155.357 96.9432 155.429 97.327 155.429C118.628 155.429 139.929 155.429 161.23 155.429C161.95 155.429 162.981 155.141 162.622 156.748C155.713 156.748 148.925 156.748 142.136 156.748C127.312 156.748 112.487 156.748 97.6388 156.748C97.1591 156.748 96.6553 156.82 96.1996 156.7C95.9597 156.628 95.6958 156.268 95.5999 156.004C95.5759 155.884 95.9357 155.525 96.1756 155.477L96.1996 155.453ZM95.8158 154.589C95.8158 154.589 95.8158 154.445 95.8158 154.349H166.076C166.076 154.349 166.076 154.493 166.076 154.589H95.8158ZM164.085 127.675C163.797 127.555 163.773 126.811 163.629 126.355C164.469 126.14 165.308 125.9 166.124 125.684C165.812 127.075 165.452 128.226 164.085 127.675ZM165.62 128.61V153.366H163.677V128.61H165.62ZM163.605 125.036C163.797 123.333 165.188 122.829 166.1 121.798C166.46 123.405 165.764 124.316 163.605 125.036ZM166.196 156.484C166.723 158.907 164.708 159.171 163.821 160.25C163.365 158.259 165.284 157.923 166.196 156.484ZM163.941 122.302C163.533 120.406 163.605 120.311 166.244 118.32C166.915 120.598 164.565 120.67 163.941 122.302ZM163.869 118.392C163.269 116.281 165.308 116.065 166.124 114.937C166.723 117.048 164.589 117.216 163.869 118.392ZM165.956 80.0831C166.604 81.3545 165.956 82.314 163.653 83.4654C163.365 81.5704 165.14 81.1866 165.956 80.0831ZM166.172 73.0547C166.364 74.6139 165.692 75.4535 163.701 76.485C163.293 74.3981 165.356 74.1582 166.172 73.0547ZM163.845 79.9632C163.485 78.5959 163.701 78.2601 166.244 76.533C166.34 78.1641 166.292 78.2361 163.845 79.9632ZM165.884 69.5046C166.651 70.8239 166.172 71.5675 163.725 73.1027C163.221 71.0398 165.332 70.8479 165.884 69.5046ZM137.674 48.9951C141.201 47.7957 144.727 46.5963 148.277 45.4209C152.883 43.8857 157.512 42.3265 162.142 40.8872C162.981 40.6234 163.965 40.8392 164.9 40.8392C164.9 40.9832 164.9 41.1511 164.924 41.295C159.575 43.0701 154.202 44.8452 148.853 46.6203C145.614 47.6997 142.376 48.8032 139.114 49.8346C138.682 49.9786 138.13 49.6667 137.626 49.5708C137.626 49.3789 137.674 49.163 137.698 48.9711L137.674 48.9951ZM164.972 42.1586V65.9784C160.343 63.5556 155.809 61.2768 151.395 58.83C147.03 56.4313 142.352 54.4883 138.274 51.5857C138.346 51.3459 138.442 51.13 138.514 50.8901C147.269 47.9876 156.025 45.1091 164.948 42.1586H164.972ZM135.084 49.8346C135.827 49.7387 136.667 48.7072 137.243 50.6022C136.499 50.5303 135.755 50.4583 135.012 50.3864C135.012 50.1945 135.036 50.0026 135.06 49.8346H135.084ZM139.066 53.9845C139.617 53.9845 140.169 53.8166 140.529 54.0085C148.397 58.1104 156.265 62.2363 164.085 66.3862C164.565 66.65 164.828 67.2737 165.212 67.7295L164.732 68.1852C153.89 62.5002 143.072 56.8151 131.869 50.9621C134.076 50.2184 138.202 52.2574 139.066 53.9845ZM104.331 59.9814C104.787 59.8375 105.339 60.0534 105.531 60.0534C106.059 59.6696 106.37 59.2858 106.754 59.1419C114.406 56.5992 122.058 54.0565 129.734 51.5857C130.358 51.3938 131.15 51.6577 131.869 51.7057V52.2574C130.142 52.8331 128.367 53.3848 126.616 53.9605C115.606 57.6067 104.619 61.2768 93.5849 64.8509C92.2656 65.2827 90.7543 65.1628 89.3391 65.3067C89.3391 65.1628 89.2911 65.0189 89.2671 64.8749C94.2805 63.2438 99.294 61.5886 104.307 59.9814H104.331ZM87.492 65.4267C87.8278 67.0338 87.492 67.2017 85.2852 66.3382C86.0048 66.0503 86.7244 65.7385 87.492 65.4267ZM85.501 67.9454C85.501 67.9454 85.501 67.7774 85.501 67.6815H94.3525C94.3525 67.6815 94.3525 67.8494 94.3525 67.9454H85.4771H85.501ZM92.5534 150.271C91.7858 153.486 88.8353 154.277 87.2761 156.484C86.8444 155.021 89.1951 152.31 92.5534 150.271ZM92.0497 153.845C92.4335 155.285 90.3945 157.683 86.9403 159.626C87.9958 157.18 90.1786 155.716 92.0497 153.845ZM92.1696 157.515C91.7378 160.562 89.6989 162.217 86.7964 163.464C87.3241 160.154 90.4665 159.482 92.1696 157.515ZM89.0272 165.216C88.5235 165.647 87.8039 165.815 87.1802 166.127C87.0602 165.935 86.9643 165.743 86.8444 165.551C89.6989 162.985 92.5294 160.442 95.4559 157.803C96.0316 159.003 95.264 159.602 94.5684 160.226C92.7213 161.881 90.9223 163.584 89.0512 165.216H89.0272ZM93.0092 165.144C92.7453 162.745 94.5204 162.409 95.5999 161.042C95.9117 163.464 94.1126 163.776 93.0092 165.144ZM95.8158 166.751C95.8158 166.751 95.8877 166.967 95.9357 167.087C95.0481 167.878 94.1606 168.694 92.9612 169.773C92.8893 168.598 92.8413 167.782 92.8173 167.135C93.8967 166.991 94.8562 166.895 95.8158 166.775V166.751ZM96.3435 171.236C95.7198 172.412 94.3285 173.203 93.1051 174.283C92.4815 170.709 92.9372 169.845 96.6313 167.35C96.5594 168.742 96.8952 170.229 96.3435 171.236ZM96.5834 176.634C96.5114 178.073 96.8232 179.584 96.2715 180.616C95.6478 181.791 94.2326 182.535 93.0812 183.542C91.9058 179.92 94.2326 178.385 96.5594 176.634H96.5834ZM95.6239 185.989C94.9042 186.373 93.8967 186.229 93.0092 186.325C93.2251 185.461 93.2011 184.454 93.6809 183.806C94.3765 182.847 95.432 182.175 96.3195 181.359L96.8232 181.599C95.7198 182.942 97.5908 184.957 95.5999 185.989H95.6239ZM96.6074 165.935V157.539C97.1351 157.515 97.6388 157.468 98.1426 157.468C119.156 157.468 140.193 157.468 161.206 157.42C162.406 157.42 162.813 157.755 162.765 158.955C162.694 161.234 162.765 163.536 162.765 165.935H96.6074ZM161.278 174.499C161.35 173.995 161.734 173.491 162.094 173.084C163.125 172.004 164.205 170.973 165.26 169.941C165.548 169.845 165.836 169.749 166.292 169.581C166.076 171.452 167.035 173.515 164.756 174.739C164.445 174.907 164.229 175.338 163.989 175.65C163.125 176.274 162.262 176.898 161.23 177.641C161.23 176.466 161.134 175.482 161.278 174.499ZM164.828 179.248C164.109 179.992 163.413 180.784 162.142 179.944C161.014 179.2 160.894 178.889 161.902 177.905C162.622 177.185 163.293 176.442 163.989 175.698C164.684 175.266 165.38 174.835 166.052 174.403C166.276 174.851 165.876 175.842 164.852 177.377C165.26 177.137 165.476 177.018 165.668 176.898C165.836 176.802 165.98 176.658 166.148 176.538C166.987 178.121 165.548 178.529 164.852 179.248H164.828ZM165.716 169.174C165.572 169.413 165.428 169.653 165.308 169.917C164.421 170.157 163.533 170.397 162.598 170.637C162.694 170.301 162.765 170.061 162.933 169.533C162.31 170.037 161.878 170.397 161.446 170.733C161.158 169.269 163.125 166.679 164.613 166.799C165.284 166.847 165.908 167.494 166.556 167.854C166.268 168.286 166.004 168.742 165.716 169.174ZM165.572 85.9362C165.5 86.176 164.541 86.272 164.037 86.152C163.821 86.1041 163.581 85.3365 163.653 84.9766C163.725 84.6648 164.277 84.305 164.637 84.281C166.028 84.209 167.443 84.209 168.858 84.257C169.146 84.257 169.41 84.4969 169.698 84.6168C169.65 84.7608 169.602 84.9287 169.578 85.0726C168.834 85.0726 168.115 85.0726 167.371 85.0726C166.651 85.0726 165.908 84.8567 165.596 85.9122L165.572 85.9362ZM169.482 122.254C169.77 124.221 168.834 125.108 166.699 124.844C167.707 123.909 168.547 123.141 169.482 122.254ZM171.737 175.914C171.785 176.442 172.025 177.017 171.881 177.473C171.425 178.721 168.618 180.28 166.987 180.184C166.532 176.418 170.37 175.962 171.641 173.635C171.809 173.707 171.953 173.803 172.121 173.875C171.905 174.595 171.689 175.29 171.473 176.01C171.569 175.986 171.641 175.962 171.737 175.914ZM170.705 172.1C171.089 171.86 171.425 171.668 171.785 171.452C171.905 171.548 172.001 171.668 172.121 171.764C171.497 174.427 168.714 175.194 167.251 177.137C167.083 177.041 166.915 176.922 166.747 176.826C167.083 176.106 167.443 175.386 167.803 174.595C167.587 174.595 167.299 174.619 166.747 174.667C167.443 171.812 170.226 171.069 171.665 169.126C171.857 169.245 172.025 169.365 172.217 169.461C171.737 170.301 171.257 171.164 170.729 172.1H170.705ZM185.098 165.911H170.585V157.611H185.098V165.911ZM184.354 156.724C179.773 156.772 175.191 156.748 170.609 156.748C170.514 156.58 170.442 156.436 170.346 156.268C170.705 155.98 171.089 155.477 171.449 155.477C175.719 155.429 179.989 155.429 184.258 155.477C184.57 155.477 184.858 155.86 185.17 156.052C184.906 156.292 184.618 156.724 184.354 156.724ZM187.473 164.976C187.449 165.335 187.041 165.647 186.801 166.007C186.561 165.695 186.082 165.383 186.082 165.048C186.01 162.865 186.034 160.658 186.082 158.475C186.082 158.139 186.513 157.803 186.729 157.468C186.993 157.827 187.425 158.187 187.449 158.571C187.545 159.626 187.473 160.706 187.473 161.785C187.473 162.865 187.545 163.92 187.449 165L187.473 164.976ZM187.065 154.613H170.585V115.969C172.912 115.969 175.191 115.969 177.494 115.969C181.5 115.969 185.53 115.969 189.536 116.017C190.183 116.017 190.951 116.185 191.479 116.544C191.911 116.856 192.366 117.168 192.798 117.48L193.182 117.768C196.924 120.406 200.666 123.069 204.384 125.732L210.117 129.81C210.261 129.906 210.405 130.026 210.549 130.122L210.717 130.241C211.676 130.913 212.612 131.609 213.571 132.28C214.963 133.264 213.571 134.535 214.123 135.783C212.828 135.855 211.748 135.903 210.693 135.975C210.597 136.118 210.501 136.19 210.501 136.286C210.213 138.661 210.213 138.733 207.814 138.613C206.759 138.565 206.303 138.877 206.375 139.932C206.399 140.292 206.351 140.676 206.327 141.348C205.368 141.348 204.264 141.036 203.545 141.444C202.945 141.78 202.777 142.907 202.273 144.01C201.146 144.49 197.907 142.619 198.795 146.649C197.524 146.721 196.42 146.769 195.245 146.841C195.173 147.681 195.125 148.424 195.077 149.336H191.311C191.239 150.271 191.167 151.039 191.071 152.07C190.087 152.07 188.96 151.758 188.264 152.166C187.665 152.526 187.521 153.677 187.089 154.685L187.065 154.613ZM213.428 136.646C213.02 137.03 212.78 137.294 212.516 137.486C212.228 137.726 211.916 137.918 211.341 138.301C211.269 137.678 211.221 137.222 211.173 136.646H213.428ZM210.093 139.381L206.735 141.684V139.213L210.093 139.381ZM206.135 142.091C205.224 142.763 204.576 143.219 203.665 143.89V142.091H206.135ZM202.417 144.754C201.314 145.522 200.594 146.025 199.683 146.649V144.754H202.417ZM198.603 147.489C197.644 148.16 196.996 148.616 196.108 149.216C196.084 148.52 196.036 148.04 196.012 147.489H198.603ZM194.885 150.127C193.854 150.847 193.11 151.399 192.054 152.142V150.127H194.885ZM191.071 152.886C190.087 153.534 189.368 154.037 188.576 154.565C188.24 152.574 188.36 152.478 191.071 152.886ZM189.176 155.189C199.203 147.968 209.23 140.796 219.281 133.624C219.688 133.336 220.288 133.288 220.816 133.12C220.84 133.312 220.888 133.48 220.912 133.672C210.141 141.348 199.371 149.048 188.6 156.724C188.48 156.604 188.36 156.484 188.24 156.364C188.552 155.956 188.768 155.453 189.152 155.165L189.176 155.189ZM188.408 158.019C188.408 157.851 188.528 157.563 188.672 157.492C190.615 156.412 192.318 154.469 195.077 155.74C195.125 156.196 195.173 156.7 195.221 157.396H198.147C198.771 158.427 199.059 159.482 199.683 159.77C200.474 160.13 201.554 159.866 202.609 159.866C202.681 160.658 202.729 161.33 202.777 161.857C203.689 163.057 206.135 160.97 206.399 163.776H188.36C188.36 161.833 188.36 159.914 188.36 158.019H188.408ZM229.259 166.031C216.426 166.031 203.593 166.031 190.759 166.031C190.327 166.031 189.872 166.103 189.488 166.007C189.104 165.911 188.768 165.623 188.408 165.407C188.792 165.144 189.152 164.688 189.536 164.664C191.407 164.568 193.278 164.616 195.149 164.616C209.853 164.616 224.558 164.616 239.262 164.616C240.126 164.616 241.109 164.448 240.606 166.031C236.84 166.031 233.049 166.031 229.283 166.031H229.259ZM240.342 166.823C239.19 167.878 238.207 168.79 236.935 169.965C237.055 168.67 237.127 167.806 237.199 166.823H240.342ZM236.911 172.004C236.959 169.485 239.31 168.982 240.63 167.111C240.726 169.437 241.277 171.332 239.214 172.604C238.855 172.82 238.687 173.323 238.447 173.707C238.015 173.875 237.607 174.043 237.175 174.235C237.031 174.163 236.912 174.091 236.768 174.043C237.175 173.251 237.559 172.484 238.015 171.596C237.751 171.692 237.439 171.812 236.911 172.028V172.004ZM237.079 180.112C237.967 178.745 239.454 177.785 240.702 176.658C240.989 177.761 240.102 178.865 240.702 179.992C240.798 180.184 240.414 180.76 240.126 181.023C239.166 181.935 238.159 182.775 236.983 183.782C236.983 182.367 236.552 180.904 237.079 180.088V180.112ZM237.703 186.445C237.823 186.157 237.943 185.893 238.135 185.437C237.679 185.605 237.391 185.725 237.079 185.845C236.36 185.101 238.087 182.99 240.534 181.527C241.205 184.933 240.462 186.757 237.679 186.445H237.703ZM246.003 185.149C244.468 186.541 243.004 186.445 240.893 186.277C242.429 183.566 245.043 182.199 247.106 180.232C247.01 181.959 247.73 183.59 246.003 185.149ZM246.818 177.665C246.818 177.665 247.034 177.665 247.13 177.665C247.106 178.265 247.322 179.104 247.01 179.416C245.235 181.167 243.34 182.775 241.469 184.43C241.349 184.358 241.205 184.286 241.085 184.19C241.325 183.494 241.565 182.823 241.805 182.127C240.606 181.599 241.109 180.904 241.781 180.208C242.717 179.248 243.652 178.289 244.588 177.353C245.427 176.754 246.267 176.154 247.49 175.266C247.202 176.298 247.01 176.994 246.794 177.665H246.818ZM260.779 165.983C257.733 166.031 254.686 166.007 251.616 166.007C248.57 166.007 245.523 166.031 242.477 165.983C242.045 165.983 241.613 165.527 241.181 165.288C241.637 165.048 242.093 164.592 242.573 164.592C248.618 164.544 254.662 164.544 260.707 164.592C261.187 164.592 261.667 165.072 262.147 165.335C261.691 165.551 261.235 165.935 260.755 165.935L260.779 165.983Z" fill="black"/>
<path d="M91.2338 203.452C88.4992 203.452 86.2683 201.221 86.2683 198.486C86.2683 195.752 88.4992 193.521 91.2338 193.521C93.9684 193.521 96.1992 195.752 96.1992 198.486C96.1992 201.221 93.9684 203.452 91.2338 203.452ZM91.2338 194.169C88.859 194.169 86.916 196.112 86.916 198.486C86.916 200.861 88.859 202.804 91.2338 202.804C93.6086 202.804 95.5516 200.861 95.5516 198.486C95.5516 196.112 93.6086 194.169 91.2338 194.169Z" fill="black"/>
<path d="M165.813 203.452C163.078 203.452 160.847 201.221 160.847 198.486C160.847 195.752 163.078 193.521 165.813 193.521C168.547 193.521 170.778 195.752 170.778 198.486C170.778 201.221 168.547 203.452 165.813 203.452ZM165.813 194.169C163.438 194.169 161.495 196.112 161.495 198.486C161.495 200.861 163.438 202.804 165.813 202.804C168.187 202.804 170.13 200.861 170.13 198.486C170.13 196.112 168.187 194.169 165.813 194.169Z" fill="black"/>
<path d="M242.956 203.452C240.222 203.452 237.991 201.221 237.991 198.486C237.991 195.752 240.222 193.521 242.956 193.521C245.691 193.521 247.922 195.752 247.922 198.486C247.922 201.221 245.691 203.452 242.956 203.452ZM242.956 194.169C240.581 194.169 238.638 196.112 238.638 198.486C238.638 200.861 240.581 202.804 242.956 202.804C245.331 202.804 247.274 200.861 247.274 198.486C247.274 196.112 245.331 194.169 242.956 194.169Z" fill="black"/>
<path d="M161.159 198.175H95.8882V198.822H161.159V198.175Z" fill="black"/>
<path d="M238.327 198.175H170.465V198.822H238.327V198.175Z" fill="black"/>
</svg>
