<svg width="344" height="241" viewBox="0 0 344 241" fill="none" xmlns="http://www.w3.org/2000/svg">
<rect x="0.137695" y="0.558594" width="343.438" height="239.623" rx="23" fill="white"/>
<path d="M160.925 86.0158C160.925 86.0158 160.788 86.0158 160.736 86.0158C159.237 85.9125 158.117 84.6031 158.22 83.1214L160.253 54.9352C160.357 53.4363 161.666 52.3165 163.148 52.4198C164.647 52.5232 165.767 53.8326 165.663 55.3143L163.63 83.5004C163.527 84.9304 162.338 86.0158 160.925 86.0158Z" fill="#EE7261"/>
<path d="M112.375 74.955C111.823 73.4044 111.548 71.8366 111.789 70.1827C111.961 69.0628 112.357 68.0463 112.943 67.1332C113.908 65.5826 115.39 64.2904 117.044 63.2739C118.181 62.5848 119.404 62.0162 120.645 61.5855C120.817 61.5166 121.006 61.4649 121.179 61.396C122.126 61.0859 123.091 60.8275 124.073 60.6035C128.432 59.6387 132.997 59.587 137.391 60.4484C138.993 60.7586 140.561 61.2065 142.077 61.7578C144.61 62.6882 146.763 64.3249 148.314 66.4096C149.572 68.0808 150.433 70.0621 150.795 72.1984C150.967 73.2321 150.984 74.1797 150.881 75.0756C150.864 75.2479 150.829 75.4202 150.812 75.5925C150.622 75.5925 150.45 75.6959 150.312 75.8681C148.796 77.8839 147.642 80.1409 146.815 82.5357C146.78 82.6563 146.729 82.7769 146.694 82.8975C146.625 82.9491 146.556 83.0008 146.505 83.087C145.04 85.6196 144.334 88.3417 143.955 91.15C143.18 94.1134 142.732 97.1284 142.456 100.178C142.422 100.247 142.404 100.333 142.404 100.436C142.404 100.54 142.404 100.626 142.404 100.729C142.249 102.624 142.146 104.537 142.077 106.449C142.043 106.449 142.025 106.449 141.991 106.449C135.03 107.104 127.984 106.845 121.075 105.691C119.731 105.467 118.353 105.191 117.233 104.416C114.752 102.728 114.356 99.2647 114.873 96.2669C114.907 96.0774 114.942 95.9051 114.976 95.7329C115.648 92.6317 117.026 89.5994 116.82 86.4293C116.544 82.3461 113.684 78.7281 112.34 74.9378L112.375 74.955Z" fill="#E0C7B3"/>
<path d="M123.367 61.0342C126.244 59.4664 127.915 55.9517 127.312 52.7472H133.049C132.98 54.9869 134.307 56.572 135.547 58.4499C136.185 59.4319 136.96 60.4312 138.08 60.7585C136.461 62.9294 133.652 64.0148 130.947 64.0837C128.242 64.1526 125.107 63.1189 123.367 61.0342Z" fill="#EE7261"/>
<path d="M135.754 58.7428C134.083 58.4499 132.394 57.8986 131.119 56.7787C129.931 55.7105 129.259 54.2805 128.897 52.7472H133.066C132.997 54.9869 134.324 56.572 135.564 58.4499C135.633 58.5533 135.702 58.6566 135.771 58.7428H135.754Z" fill="#261917"/>
<path d="M130.758 54.7113C133.48 54.7113 135.702 52.4888 135.702 49.7666V42.6167C135.702 39.8946 133.48 37.6721 130.758 37.6721C128.035 37.6721 125.813 39.8946 125.813 42.6167V49.7666C125.813 52.4888 128.035 54.7113 130.758 54.7113Z" fill="#EE7261"/>
<path d="M122.953 47.9404C122.953 48.9913 123.797 49.8355 124.848 49.8355C125.899 49.8355 126.743 48.9913 126.743 47.9404C126.743 46.8894 125.899 46.0452 124.848 46.0452C123.797 46.0452 122.953 46.8894 122.953 47.9404Z" fill="#EE7261"/>
<path d="M130.086 49.6461C130.189 50.6626 131.016 51.4723 132.033 51.4723C133.049 51.4723 133.894 50.697 134.014 49.6805L130.069 49.6461H130.086Z" fill="white"/>
<path d="M133.566 196.573C133.152 190.112 131.188 120.783 131.567 114.323L142.232 106.328C153.138 119.095 148.607 189.388 148.331 196.504L133.566 196.573Z" fill="#5D515E"/>
<path d="M112.84 197.141C112.84 188.906 109.204 127.124 117.302 105.071L130.861 112.048C130.981 119.388 127.294 189.974 126.416 197.262L112.84 197.141Z" fill="#5D515E"/>
<path d="M129.689 46.5793C129.241 44.9771 129.069 43.3059 129.19 41.6519C128.242 43.5643 127.829 45.7351 128.035 47.8543" fill="#EE7261"/>
<path d="M142.301 105.312L117.251 104.433C117.251 104.433 114.029 117.114 113.805 124.229L129.811 128.312H132.033L147.229 122.92C147.229 122.92 145.696 109.378 142.301 105.295V105.312Z" fill="#5D515E"/>
<path d="M144.765 81.5881L145.264 99.4026C145.316 101.246 144.368 102.969 142.783 103.916L141.026 104.967L137.873 102.624L139.854 87.084L144.765 81.5881Z" fill="#FABE81"/>
<path d="M117.595 106.242H141.543C142.215 106.242 142.766 105.691 142.766 105.019C142.766 104.347 142.215 103.796 141.543 103.796H117.595C116.923 103.796 116.372 104.347 116.372 105.019C116.372 105.691 116.923 106.242 117.595 106.242Z" fill="#5D515E"/>
<path d="M130.155 128.502C128.622 128.502 126.881 128.071 125.124 126.796C124.935 126.658 124.9 126.417 125.038 126.228C125.176 126.038 125.417 126.004 125.606 126.142C130.379 129.605 134.789 126.297 134.979 126.142C135.151 126.004 135.41 126.038 135.547 126.21C135.685 126.383 135.651 126.641 135.479 126.779C135.444 126.813 133.204 128.502 130.172 128.502H130.155Z" fill="#261917"/>
<path d="M144.162 195.453C143.714 198.244 145.23 201.242 147.728 202.551C149.416 203.447 151.398 203.567 153.241 204.084C156.842 205.084 159.978 207.651 161.666 210.976H137.305V195.246L144.144 195.47L144.162 195.453Z" fill="#8B4A14"/>
<path d="M116.837 195.453C117.285 198.244 115.769 201.242 113.271 202.551C111.583 203.447 109.601 203.567 107.758 204.084C104.157 205.084 101.021 207.651 99.333 210.976H123.694V195.246L116.855 195.47L116.837 195.453Z" fill="#8B4A14"/>
<path d="M137.563 213.405H162.682C163.578 213.405 164.302 212.681 164.302 211.786C164.302 210.89 163.578 210.166 162.682 210.166H137.563C136.667 210.166 135.943 210.89 135.943 211.786C135.943 212.681 136.667 213.405 137.563 213.405Z" fill="#FEE1BE"/>
<path d="M142.922 200.931C142.749 200.931 142.594 200.794 142.594 200.621C142.594 200.432 142.732 200.277 142.904 200.277L148.125 200.036C148.314 200.036 148.469 200.173 148.469 200.346C148.469 200.535 148.331 200.69 148.159 200.69L142.939 200.931H142.922Z" fill="#482B1D"/>
<path d="M143.662 203.171C143.49 203.171 143.334 203.033 143.334 202.861C143.334 202.672 143.472 202.516 143.645 202.516L148.865 202.275C149.054 202.275 149.209 202.413 149.209 202.585C149.209 202.775 149.072 202.93 148.899 202.93L143.679 203.171H143.662Z" fill="#482B1D"/>
<path d="M123.332 212.647H98.2128C97.3169 212.647 96.5933 211.923 96.5933 211.027C96.5933 210.132 97.3169 209.408 98.2128 209.408H123.332C124.228 209.408 124.952 210.132 124.952 211.027C124.952 211.923 124.228 212.647 123.332 212.647Z" fill="#FEE1BE"/>
<path d="M117.974 200.173L112.754 199.932C112.564 199.932 112.427 199.76 112.444 199.588C112.444 199.398 112.616 199.277 112.788 199.277L118.009 199.519C118.198 199.519 118.336 199.691 118.319 199.863C118.319 200.036 118.164 200.173 117.991 200.173H117.974Z" fill="#482B1D"/>
<path d="M117.233 202.413L112.013 202.172C111.823 202.172 111.685 202 111.703 201.827C111.703 201.638 111.875 201.517 112.047 201.517L117.268 201.758C117.457 201.758 117.595 201.931 117.578 202.103C117.578 202.275 117.423 202.413 117.25 202.413H117.233Z" fill="#482B1D"/>
<path d="M119.973 173.004C119.852 173.004 119.749 172.9 119.749 172.78V154.155H113.477C113.357 154.155 113.253 154.052 113.253 153.931C113.253 153.811 113.357 153.707 113.477 153.707H119.973C120.093 153.707 120.197 153.811 120.197 153.931V172.78C120.197 172.9 120.093 173.004 119.973 173.004Z" fill="#261917"/>
<path d="M115.131 179.809C115.045 179.809 114.959 179.757 114.925 179.671C114.89 179.551 114.942 179.43 115.062 179.396C116.992 178.706 118.491 176.949 118.887 174.951C118.904 174.83 119.025 174.744 119.146 174.778C119.266 174.795 119.335 174.916 119.318 175.037C118.887 177.19 117.268 179.068 115.2 179.809C115.183 179.809 115.149 179.809 115.131 179.809Z" fill="#261917"/>
<path d="M119.663 157.687H113.581C113.46 157.687 113.357 157.584 113.357 157.463C113.357 157.343 113.46 157.239 113.581 157.239H119.663C119.783 157.239 119.887 157.343 119.887 157.463C119.887 157.584 119.783 157.687 119.663 157.687Z" fill="#261917"/>
<path d="M140.234 156.654C140.113 156.654 140.01 156.55 140.01 156.43V143.043C140.01 142.922 140.113 142.819 140.234 142.819H147.608C147.728 142.819 147.832 142.922 147.832 143.043C147.832 143.163 147.728 143.267 147.608 143.267H140.44V156.43C140.44 156.55 140.337 156.654 140.217 156.654H140.234Z" fill="#261917"/>
<path d="M145.713 163.683H145.678C143.145 163.183 140.957 161.185 140.251 158.704C140.217 158.583 140.286 158.463 140.406 158.428C140.527 158.394 140.647 158.463 140.682 158.583C141.354 160.909 143.404 162.787 145.781 163.252C145.902 163.269 145.971 163.39 145.954 163.511C145.937 163.614 145.833 163.683 145.73 163.683H145.713Z" fill="#261917"/>
<path d="M146.074 183.186H146.04C143.507 182.686 141.319 180.688 140.613 178.207C140.578 178.086 140.647 177.966 140.768 177.931C140.889 177.897 141.009 177.966 141.044 178.086C141.716 180.412 143.766 182.29 146.143 182.755C146.264 182.772 146.333 182.893 146.316 183.014C146.298 183.117 146.195 183.186 146.092 183.186H146.074Z" fill="#261917"/>
<path d="M140.527 174.193C140.406 174.193 140.303 174.089 140.303 173.969V168.645C140.303 168.524 140.406 168.421 140.527 168.421H146.298C146.419 168.421 146.522 168.524 146.522 168.645C146.522 168.765 146.419 168.869 146.298 168.869H140.751V173.969C140.751 174.089 140.647 174.193 140.527 174.193Z" fill="#261917"/>
<path d="M144.161 195.677H137.322C137.201 195.677 137.098 195.573 137.098 195.453C137.098 195.332 137.201 195.229 137.322 195.229H144.161C144.282 195.229 144.385 195.332 144.385 195.453C144.385 195.573 144.282 195.677 144.161 195.677Z" fill="#261917"/>
<path d="M123.419 195.556H116.579C116.458 195.556 116.355 195.453 116.355 195.332C116.355 195.212 116.458 195.108 116.579 195.108H123.419C123.539 195.108 123.643 195.212 123.643 195.332C123.643 195.453 123.539 195.556 123.419 195.556Z" fill="#261917"/>
<path d="M122.212 51.5929C124.711 51.5929 126.761 49.5426 126.761 47.0445C126.761 44.5463 124.711 42.4961 122.212 42.4961C119.714 42.4961 117.664 44.5463 117.664 47.0445C117.664 49.5426 119.714 51.5929 122.212 51.5929Z" fill="#261917"/>
<path d="M124.745 44.9081L142.353 45.5456C143.059 45.5628 143.645 45.0287 143.662 44.3223C143.679 43.6159 143.145 43.0302 142.439 43.0129L124.831 42.3755C124.125 42.3582 123.539 42.8923 123.522 43.5987C123.505 44.3051 124.039 44.8909 124.745 44.9081Z" fill="#DC854F"/>
<path d="M124.779 43.8227L124.952 39.2916C125.072 36.1904 127.691 33.7611 130.775 33.8645C133.876 33.9851 136.305 36.6039 136.202 39.6878L136.03 44.219L124.779 43.8055V43.8227Z" fill="#DC854F"/>
<path d="M133.79 41.0661C133.79 41.0661 133.773 41.0661 133.756 41.0661C133.652 41.0489 133.583 40.9455 133.618 40.8594C134.1 38.2579 133.583 35.932 132.153 34.3297C132.084 34.2608 132.102 34.1402 132.153 34.0713C132.222 34.0024 132.343 34.0196 132.412 34.0713C133.911 35.7597 134.462 38.1889 133.962 40.9111C133.962 40.9972 133.876 41.0661 133.79 41.0661Z" fill="#261917"/>
<path d="M131.068 41.1523C131.068 41.1523 131.051 41.1523 131.033 41.1523C130.93 41.135 130.861 41.0317 130.896 40.9455C131.378 38.344 130.861 36.0181 129.431 34.4158C129.362 34.3469 129.38 34.2263 129.431 34.1574C129.5 34.0885 129.621 34.1057 129.69 34.1574C131.189 35.8458 131.74 38.2751 131.24 40.9972C131.24 41.0833 131.154 41.1523 131.068 41.1523Z" fill="#261917"/>
<path d="M125.383 51.5929C126.33 51.5929 127.105 50.8176 127.105 49.87V48.9569C127.105 48.0093 126.33 47.234 125.383 47.234C124.435 47.234 123.66 48.0093 123.66 48.9569V49.87C123.66 50.8176 124.435 51.5929 125.383 51.5929Z" fill="#EE7261"/>
<path d="M126.382 53.0573C126.985 53.0573 127.467 52.5749 127.467 51.9719C127.467 51.3689 126.985 50.8865 126.382 50.8865C125.779 50.8865 125.296 51.3689 125.296 51.9719C125.296 52.5749 125.779 53.0573 126.382 53.0573Z" fill="#E0C7B3"/>
<path d="M158.651 58.5705L156.739 81.6742L148.986 68.1152C147.728 66.2545 144.076 66.3234 142.215 67.5811C140.354 68.8388 140.957 74.9206 142.215 76.7985L156.446 95.8534C157.221 96.9905 158.496 97.6625 159.823 97.6625C160.167 97.6625 160.512 97.628 160.839 97.5246C162.51 97.0939 163.733 95.6467 163.871 93.9238L166.387 63.4807C163.733 61.9473 161.063 60.4312 158.634 58.5705H158.651Z" fill="#E0C7B3"/>
<path d="M131.671 105.984H115.683C113.856 104.485 112.857 102.263 112.426 99.9367C112.013 97.6108 112.461 95.1471 113.65 93.1141C111.823 91.2017 111.117 88.4623 111.582 85.8608C111.582 85.7747 111.617 85.7057 111.634 85.6196C111.892 84.3619 112.426 83.1214 112.616 81.8637C112.668 81.4847 112.702 81.1057 112.668 80.7266C112.616 79.8997 112.358 79.1071 112.065 78.3319C111.978 78.0907 111.892 77.8494 111.806 77.6255C111.462 76.6434 111.065 75.6097 110.738 74.5415C110.083 72.4052 109.722 70.1827 110.686 68.322C113.271 63.2739 118.715 59.811 124.383 59.6215C126.83 64.2215 128.794 69.3385 130.051 74.5415C130.362 75.7992 130.62 77.0742 130.844 78.3319C131.051 79.5206 131.223 80.6922 131.344 81.8637C131.361 82.0533 131.395 82.26 131.412 82.4495C131.516 83.5866 131.619 84.7237 131.688 85.8608C132.119 92.5455 131.912 99.282 131.688 105.984H131.671Z" fill="#ED6D1E"/>
<path d="M150.158 74.9034C150.037 75.5926 149.865 76.2817 149.693 76.9536C149.555 77.4877 149.382 78.0907 149.21 78.6937C148.883 79.7619 148.487 80.8818 148.021 81.8638C147.763 82.3979 147.487 82.9148 147.177 83.3455C147.66 84.0863 148.039 84.9477 148.297 85.8436C149.227 89.1343 148.624 93.1831 146.678 95.7846C146.781 97.7315 146.884 99.7128 146.471 101.625C146.04 103.538 145.058 105.329 143.37 106.329H136.754C136.461 99.7989 136.03 92.9936 136.099 86.4466C136.099 86.2571 136.099 86.0504 136.099 85.8436C136.099 84.6893 136.099 83.3282 136.047 81.8466C136.03 80.8301 135.996 79.7619 135.961 78.6765C135.927 77.4016 135.892 76.1266 135.858 74.8862C135.789 72.5431 135.737 70.3722 135.737 68.7355C135.737 66.0306 136.22 63.3429 138.27 60.4313C142.973 60.4313 148.021 64.5834 149.503 67.4089C150.692 69.6831 150.64 72.3191 150.158 74.8862V74.9034Z" fill="#ED6D1E"/>
<path d="M130.413 92.7178C129 92.2699 127.691 91.5291 126.554 90.5643L121.368 86.1365V97.0767C123.901 98.6273 125.71 99.3164 129.965 100.195L152.432 103.761L153.276 100.522L130.396 92.7178H130.413Z" fill="#EE7261"/>
<path d="M130.81 78.3319H112.048C111.962 78.0907 111.876 77.8495 111.789 77.6255C111.445 76.6435 111.049 75.6097 110.721 74.5416H130.017C130.327 75.7993 130.586 77.0742 130.81 78.3319Z" fill="white"/>
<path d="M150.157 74.9033C150.037 75.5925 149.864 76.2816 149.692 76.9535C149.554 77.4876 149.382 78.0906 149.21 78.6936H135.961C135.926 77.4187 135.892 76.1438 135.857 74.9033H150.157Z" fill="white"/>
<path d="M131.654 85.8608H111.565C111.565 85.8608 111.599 85.7058 111.617 85.6196C111.875 84.3619 112.409 83.1215 112.599 81.8638H131.326C131.344 82.0533 131.378 82.26 131.395 82.4495C131.499 83.5866 131.602 84.7237 131.671 85.8608H131.654Z" fill="white"/>
<path d="M148.279 85.8608H136.099C136.099 84.7065 136.099 83.3454 136.047 81.8638H148.021C147.762 82.3979 147.487 82.9147 147.177 83.3454C147.659 84.0863 148.038 84.9477 148.296 85.8436L148.279 85.8608Z" fill="white"/>
<path d="M114.804 118.957C114.701 118.957 114.614 118.888 114.597 118.802C114.563 118.682 114.632 118.561 114.752 118.526C115.51 118.32 116.165 117.837 116.647 117.458C119.594 115.132 121.575 111.514 121.971 107.776C121.971 107.655 122.092 107.569 122.212 107.586C122.333 107.586 122.419 107.707 122.402 107.827C122.006 111.738 120.007 115.374 116.923 117.82C116.406 118.234 115.7 118.733 114.873 118.974C114.856 118.974 114.838 118.974 114.804 118.974V118.957Z" fill="#261917"/>
<path d="M144.92 120.508C144.92 120.508 144.816 120.508 144.782 120.456C143.059 119.061 141.732 117.045 140.837 114.461C140.044 112.186 139.682 109.774 139.338 107.431C139.32 107.311 139.407 107.19 139.527 107.173C139.648 107.156 139.768 107.242 139.786 107.362C140.13 109.671 140.492 112.066 141.267 114.305C142.146 116.821 143.421 118.768 145.075 120.112C145.178 120.18 145.178 120.336 145.109 120.422C145.058 120.473 145.006 120.508 144.937 120.508H144.92Z" fill="#261917"/>
<path d="M130.844 125.159C130.723 125.159 130.62 125.056 130.62 124.936V108.499C130.62 108.379 130.723 108.275 130.844 108.275C130.965 108.275 131.068 108.379 131.068 108.499V124.936C131.068 125.056 130.965 125.159 130.844 125.159Z" fill="#261917"/>
<path d="M215.678 27.4382H153.637C150.478 27.4382 147.917 29.9991 147.917 33.1582V37.2931C147.917 40.4521 150.478 43.013 153.637 43.013H215.678C218.837 43.013 221.398 40.4521 221.398 37.2931V33.1582C221.398 29.9991 218.837 27.4382 215.678 27.4382Z" fill="#314D77"/>
<path d="M132.602 121.283C132.602 121.283 132.498 121.266 132.464 121.231C132.378 121.145 132.361 121.007 132.447 120.921C133.343 119.888 134.049 118.716 134.514 117.441C135.582 114.581 135.427 111.445 135.186 109.033C135.186 108.999 135.169 108.965 135.134 108.93C135.066 108.965 134.997 108.947 134.928 108.93C134.824 108.861 134.79 108.741 134.842 108.637C134.91 108.517 135.048 108.448 135.186 108.482C135.41 108.534 135.582 108.792 135.6 109.016C135.858 111.48 136.013 114.684 134.91 117.631C134.411 118.957 133.687 120.18 132.757 121.249C132.705 121.3 132.654 121.318 132.585 121.318L132.602 121.283Z" fill="#261917"/>
<path d="M229.185 41.4624V132.137H182.685C171.573 132.137 162.562 122.403 162.562 110.412L163.889 36.1387C163.889 33.451 162.872 31.0218 161.235 29.2645C160.495 28.4719 159.633 27.8172 158.686 27.3348H216.092C223.328 27.3348 229.185 33.6578 229.185 41.4796V41.4624Z" fill="#5797D1"/>
<path d="M160.994 50.9037C161.184 50.0767 161.425 49.2325 161.977 48.5778C162.597 47.837 163.544 47.4407 164.492 47.2857C165.439 47.1134 166.404 47.1478 167.369 47.0961C168.42 47.0445 169.454 46.9239 170.488 46.6999C170.746 47.0962 170.367 47.5958 170.005 47.8887C168.765 48.8535 167.197 49.4048 165.629 49.422C166.129 50.8692 166.37 52.4715 165.784 53.8843C165.353 54.9008 164.492 55.7277 163.458 56.124C159.117 57.7435 160.391 53.4191 160.994 50.9037Z" fill="#EE7261"/>
<path d="M152.552 103.796C151.518 103.469 150.433 103.124 149.761 102.245L153.258 100.454C155.463 98.8512 157.617 98.5583 159.96 99.6438C160.529 99.9022 161.201 100.023 161.804 100.23C161.976 100.281 162.527 100.385 162.631 100.54C162.906 100.953 161.752 101.005 161.562 101.005C160.977 100.97 160.425 100.695 159.84 100.677C159.254 100.66 158.599 100.953 158.272 101.47C158.134 101.694 158.203 101.987 158.427 102.142C159.288 102.728 160.098 103.348 160.89 104.02C161.287 104.192 161.7 104.347 162.097 104.502C162.941 104.812 163.802 105.105 164.543 105.605C165.284 106.105 165.921 106.863 166.059 107.741C165.215 107.259 164.336 106.828 163.423 106.484C163.647 106.725 163.854 106.966 164.078 107.224C164.474 107.69 164.853 108.361 164.526 108.896C160.684 106.845 156.687 105.14 152.552 103.813V103.796Z" fill="#EE7261"/>
<path d="M165.508 111.962C164.319 113.685 163.613 115.856 163.613 118.216V121.955C163.613 127.451 167.455 131.948 172.158 131.948H238.575C243.278 131.948 247.12 127.451 247.12 121.955V118.216C247.12 115.856 246.414 113.668 245.225 111.962H165.508Z" fill="#5797D1"/>
<path d="M148.607 106.621L125.693 99.9539C123.625 99.3509 121.885 97.9209 120.886 96.0085L109.722 74.6104C108.567 72.6119 109.532 69.0111 111.531 67.8568C113.512 66.7024 116.062 67.3744 117.216 69.3729L128.415 90.323L151.191 98.6789L148.607 106.604V106.621Z" fill="#E0C7B3"/>
<path d="M162.683 111.583V119.801C162.683 126.9 167.61 132.688 173.623 132.688C179.636 132.688 184.563 126.882 184.563 119.801V111.773L162.666 111.583H162.683Z" fill="#314D77"/>
<path d="M128.018 45.7178H131.068C131.705 45.7178 132.222 46.2347 132.222 46.8722V47.6991C132.222 48.3366 131.705 48.8535 131.068 48.8535H128.949C128.311 48.8535 127.794 48.3366 127.794 47.6991V45.9418C127.794 45.8212 127.898 45.7178 128.018 45.7178Z" fill="#261917"/>
<path d="M136.013 48.7501H134.066C133.48 48.7501 133.015 48.2849 133.015 47.6992V46.9411C133.015 46.3553 133.48 45.8902 134.066 45.8902H136.771C136.943 45.8902 137.064 46.028 137.064 46.183V47.6992C137.064 48.2849 136.599 48.7501 136.013 48.7501Z" fill="#261917"/>
<path d="M136.823 46.252H128.019C127.743 46.252 127.519 46.028 127.519 45.7524C127.519 45.4767 127.743 45.2527 128.019 45.2527H136.823C137.098 45.2527 137.322 45.4767 137.322 45.7524C137.322 46.028 137.098 46.252 136.823 46.252Z" fill="#261917"/>
<path d="M192.902 106.966H176.655C176.276 106.966 175.966 106.656 175.966 106.277V40.0668C175.915 39.8945 175.966 39.7912 176.018 39.6706C176.121 39.4294 176.38 39.2571 176.655 39.2571C176.983 39.2571 177.258 39.4811 177.327 39.7912C178.223 41.1522 187.354 51.455 193.402 58.2087C193.522 58.3293 193.574 58.5016 193.574 58.6738V106.294C193.574 106.673 193.264 106.983 192.885 106.983L192.902 106.966ZM177.362 105.588H192.23V58.9151C191.403 57.9847 187.768 53.936 184.219 49.9044C180.601 45.804 178.533 43.4264 177.379 42.0309V105.588H177.362Z" fill="#5797D1"/>
<path d="M173.365 107.931C172.986 107.931 172.676 107.621 172.676 107.242V33.6233C172.676 33.2443 172.986 32.9341 173.365 32.9341C173.744 32.9341 174.054 33.2443 174.054 33.6233V107.242C174.054 107.621 173.744 107.931 173.365 107.931Z" fill="#5797D1"/>
<path d="M187.406 109.171C187.027 109.171 186.717 108.861 186.717 108.482V44.3568C186.717 43.9777 187.027 43.6676 187.406 43.6676C187.785 43.6676 188.095 43.9777 188.095 44.3568V108.482C188.095 108.861 187.785 109.171 187.406 109.171Z" fill="#5797D1"/>
<path d="M186.855 101.883C186.855 101.883 186.751 101.883 186.7 101.832L173.761 93.0279C173.658 92.959 173.623 92.8212 173.658 92.7178C173.692 92.6144 173.813 92.5111 173.933 92.5283L186.665 93.2864L172.934 84.224C172.831 84.1551 172.779 84.0345 172.831 83.9139C172.882 83.7933 172.986 83.7244 173.106 83.7244L186.407 83.9828L172.4 75.1445C172.297 75.0756 172.245 74.955 172.279 74.8344C172.314 74.7138 172.417 74.6276 172.538 74.6276H186.441L172.383 65.7721C172.279 65.7032 172.228 65.5826 172.262 65.462C172.297 65.3414 172.4 65.2552 172.521 65.2552H186.372L172.658 57.2439C172.555 57.175 172.503 57.0544 172.538 56.9338C172.572 56.8132 172.676 56.727 172.796 56.727H186.355L172.658 48.7157C172.555 48.6467 172.503 48.5261 172.538 48.4055C172.572 48.2849 172.676 48.1988 172.796 48.1988H187.389C187.544 48.1988 187.665 48.3194 187.665 48.4745C187.665 48.6295 187.544 48.7501 187.389 48.7501H173.813L187.51 56.7615C187.613 56.8304 187.665 56.951 187.63 57.0716C187.596 57.1922 187.492 57.2783 187.372 57.2783H173.813L187.527 65.2897C187.63 65.3586 187.682 65.4792 187.647 65.5998C187.613 65.7204 187.51 65.8065 187.389 65.8065H173.485L187.544 74.6621C187.647 74.731 187.699 74.8516 187.665 74.9722C187.63 75.0928 187.527 75.179 187.406 75.179H173.503L187.544 84.0345C187.647 84.1034 187.699 84.224 187.665 84.3446C187.63 84.4652 187.527 84.5342 187.389 84.5342L174.037 84.2757L187.837 93.3897C187.94 93.4586 187.992 93.5965 187.94 93.6998C187.906 93.8204 187.785 93.9066 187.665 93.8894L174.898 93.1313L187.01 101.384C187.13 101.47 187.165 101.642 187.079 101.763C187.027 101.849 186.941 101.883 186.855 101.883Z" fill="#FFFBF6"/>
<path d="M215.971 110.239C215.971 110.239 215.885 110.239 215.833 110.205C213.955 109.188 212.198 107.948 210.475 106.742C209.7 106.191 208.924 105.657 208.149 105.14C208.097 105.105 208.063 105.071 208.046 105.019C208.046 105.019 208.028 104.967 208.028 104.95C208.028 104.95 208.028 104.881 208.028 104.847C208.028 104.83 208.028 104.812 208.046 104.795C208.046 104.795 208.08 104.743 208.115 104.709C208.115 104.709 208.166 104.675 208.201 104.657C208.201 104.657 208.252 104.657 208.27 104.657C211.095 104.485 214.058 104.623 216.918 104.761C218.417 104.83 219.968 104.899 221.467 104.933C221.45 104.899 221.432 104.881 221.415 104.847V104.812L207.58 96.0947C207.477 96.0257 207.425 95.9052 207.46 95.7846C207.494 95.664 207.598 95.5778 207.718 95.5778H221.622L217.401 92.9246C215.385 91.8909 213.49 90.6159 211.646 89.3582C210.337 88.4623 208.976 87.5492 207.58 86.7395C207.546 86.7222 207.512 86.6878 207.494 86.6533C207.494 86.6533 207.46 86.55 207.477 86.4983C207.477 86.4983 207.477 86.4983 207.477 86.481C207.477 86.4466 207.512 86.4121 207.529 86.3777C207.529 86.3777 207.58 86.326 207.615 86.3088C207.615 86.3088 207.684 86.2743 207.718 86.2743H221.467C221.467 86.2743 221.467 86.2398 221.45 86.2398C221.45 86.2054 221.45 86.1709 221.45 86.1365C219.158 84.7065 216.832 83.3971 214.386 82.0188C212.267 80.83 210.061 79.5896 207.891 78.2629C207.839 78.2285 207.804 78.1768 207.77 78.1251C207.77 78.1251 207.753 78.0217 207.77 77.9528C207.804 77.8322 207.908 77.7633 208.028 77.7461H221.501C221.501 77.7461 221.501 77.7116 221.484 77.7116C219.382 76.5228 217.297 75.2651 215.282 74.0591C212.887 72.6291 210.423 71.1475 207.925 69.752C207.891 69.752 207.873 69.7175 207.856 69.7003C207.856 69.7003 207.822 69.6486 207.804 69.6313C207.804 69.6313 207.787 69.5452 207.787 69.5107C207.787 69.5107 207.787 69.4763 207.787 69.4591C207.822 69.3385 207.925 69.2695 208.028 69.2523H222.638C222.793 69.2523 222.914 69.3729 222.914 69.528C222.914 69.683 222.793 69.8036 222.638 69.8036H210.285C210.285 69.8036 210.268 69.8209 210.251 69.8381C210.148 69.9242 209.786 69.9587 209.372 69.9759C211.474 71.1647 213.542 72.4052 215.54 73.6112C217.728 74.9206 219.985 76.2816 222.259 77.5566C222.397 77.6255 222.552 77.7116 222.742 77.8322C222.759 77.8322 222.776 77.8495 222.793 77.8667C222.793 77.8667 222.845 77.9356 222.862 77.9701C222.862 77.9701 222.862 78.039 222.862 78.0907C222.862 78.0907 222.862 78.0907 222.862 78.1079C222.862 78.1079 222.862 78.1423 222.862 78.1596C222.862 78.1596 222.793 78.2629 222.742 78.2802C222.742 78.2802 222.673 78.2974 222.656 78.2974H210.303C210.303 78.2974 210.285 78.3146 210.268 78.3319C210.165 78.418 209.769 78.4697 209.321 78.4697C211.13 79.5379 212.939 80.5544 214.696 81.5536C217.504 83.1387 220.175 84.6376 222.811 86.3432C222.845 86.3604 222.862 86.3777 222.88 86.4121C222.88 86.4121 222.897 86.4466 222.914 86.4638C222.914 86.4638 222.948 86.55 222.931 86.6016C222.931 86.6016 222.931 86.6361 222.931 86.6533C222.931 86.6533 222.914 86.705 222.897 86.7222C222.897 86.7222 222.845 86.7912 222.811 86.8084C222.811 86.8084 222.742 86.8428 222.69 86.8428H210.096C210.096 86.8428 210.061 86.8773 210.044 86.8945C209.941 86.9807 209.527 87.0324 209.079 87.0151C210.096 87.6526 211.078 88.3245 212.043 88.9792C213.869 90.2197 215.747 91.4946 217.763 92.5111L222.811 95.6812C222.914 95.7501 222.966 95.8707 222.931 95.9913C222.897 96.1119 222.793 96.198 222.673 96.198H208.769L222.811 105.054C222.811 105.054 222.931 105.191 222.931 105.278C222.931 105.278 222.931 105.329 222.931 105.364C222.897 105.484 222.793 105.553 222.673 105.553C220.812 105.553 218.865 105.467 216.987 105.381C214.851 105.278 212.646 105.174 210.509 105.209C210.492 105.243 210.475 105.26 210.44 105.295C210.354 105.364 209.872 105.364 209.372 105.364C209.872 105.708 210.354 106.053 210.854 106.397C212.56 107.586 214.317 108.827 216.16 109.826C216.298 109.895 216.35 110.067 216.264 110.205C216.212 110.291 216.126 110.343 216.023 110.343L215.971 110.239Z" fill="#FFFBF6"/>
<path d="M213.266 34.1747H181.893C181.738 34.1747 181.617 34.0541 181.617 33.899C181.617 33.744 181.738 33.6234 181.893 33.6234H213.266C213.421 33.6234 213.542 33.744 213.542 33.899C213.542 34.0541 213.421 34.1747 213.266 34.1747Z" fill="#FFFBF6"/>
<path d="M197.864 109.86C197.709 109.86 197.588 109.74 197.588 109.585V33.899C197.588 33.744 197.709 33.6234 197.864 33.6234C198.019 33.6234 198.14 33.744 198.14 33.899V109.585C198.14 109.74 198.019 109.86 197.864 109.86Z" fill="#FFFBF6"/>
<path d="M190.972 43.8055C190.214 43.8055 189.594 43.1853 189.594 42.4272C189.594 41.6692 190.214 41.049 190.972 41.049C191.73 41.049 192.35 41.6692 192.35 42.4272C192.35 43.1853 191.73 43.8055 190.972 43.8055ZM190.972 41.6003C190.524 41.6003 190.145 41.9621 190.145 42.4272C190.145 42.8924 190.507 43.2542 190.972 43.2542C191.437 43.2542 191.799 42.8924 191.799 42.4272C191.799 41.9621 191.437 41.6003 190.972 41.6003Z" fill="#FFFBF6"/>
<path d="M213.128 62.7916C212.594 62.7916 212.164 62.3608 212.164 61.8267C212.164 61.2927 212.594 60.8619 213.128 60.8619C213.662 60.8619 214.093 61.2927 214.093 61.8267C214.093 62.3608 213.662 62.7916 213.128 62.7916ZM213.128 61.4133C212.904 61.4133 212.715 61.6028 212.715 61.8267C212.715 62.0507 212.904 62.2402 213.128 62.2402C213.352 62.2402 213.542 62.0507 213.542 61.8267C213.542 61.6028 213.352 61.4133 213.128 61.4133Z" fill="#FFFBF6"/>
<path d="M168.54 81.7948C167.851 81.7948 167.3 81.2435 167.3 80.5543C167.3 79.8652 167.851 79.3138 168.54 79.3138C169.229 79.3138 169.781 79.8652 169.781 80.5543C169.781 81.2435 169.229 81.7948 168.54 81.7948ZM168.54 79.8652C168.161 79.8652 167.851 80.1753 167.851 80.5543C167.851 80.9333 168.161 81.2435 168.54 81.2435C168.919 81.2435 169.229 80.9333 169.229 80.5543C169.229 80.1753 168.919 79.8652 168.54 79.8652Z" fill="#FFFBF6"/>
<path d="M203.222 101.884C202.688 101.884 202.257 101.453 202.257 100.919C202.257 100.385 202.688 99.9539 203.222 99.9539C203.756 99.9539 204.187 100.385 204.187 100.919C204.187 101.453 203.756 101.884 203.222 101.884ZM203.222 100.505C202.998 100.505 202.809 100.695 202.809 100.919C202.809 101.143 202.998 101.332 203.222 101.332C203.446 101.332 203.636 101.143 203.636 100.919C203.636 100.695 203.446 100.505 203.222 100.505Z" fill="#FFFBF6"/>
<path d="M219.882 108.482H205.565C205.41 108.482 205.289 108.362 205.289 108.206V74.3521C205.289 74.3521 205.306 74.2142 205.358 74.1798L212.784 65.6516C212.784 65.6516 212.904 65.5482 213.008 65.5654C213.094 65.5654 213.163 65.5999 213.214 65.6688L220.089 74.5588C220.089 74.5588 220.14 74.6622 220.14 74.7311V108.224C220.14 108.379 220.02 108.499 219.865 108.499L219.882 108.482ZM205.84 107.931H219.606V74.8L212.99 66.2546L205.84 74.4554V107.931Z" fill="#FFFBF6"/>
<path d="M211.337 40.2219H200.879C200.724 40.2219 200.603 40.1013 200.603 39.9462C200.603 39.7911 200.724 39.6705 200.879 39.6705H211.337C211.492 39.6705 211.612 39.7911 211.612 39.9462C211.612 40.1013 211.492 40.2219 211.337 40.2219Z" fill="#FFFBF6"/>
<path d="M211.337 43.2541H200.879C200.724 43.2541 200.603 43.1335 200.603 42.9785C200.603 42.8234 200.724 42.7028 200.879 42.7028H211.337C211.492 42.7028 211.612 42.8234 211.612 42.9785C211.612 43.1335 211.492 43.2541 211.337 43.2541Z" fill="#FFFBF6"/>
<path d="M211.337 46.2864H200.879C200.724 46.2864 200.603 46.1658 200.603 46.0108C200.603 45.8557 200.724 45.7351 200.879 45.7351H211.337C211.492 45.7351 211.612 45.8557 211.612 46.0108C211.612 46.1658 211.492 46.2864 211.337 46.2864Z" fill="#FFFBF6"/>
<path d="M211.337 49.3014H200.879C200.724 49.3014 200.603 49.1808 200.603 49.0258C200.603 48.8707 200.724 48.7501 200.879 48.7501H211.337C211.492 48.7501 211.612 48.8707 211.612 49.0258C211.612 49.1808 211.492 49.3014 211.337 49.3014Z" fill="#FFFBF6"/>
<path d="M224.275 40.2219H213.817C213.662 40.2219 213.542 40.1013 213.542 39.9462C213.542 39.7911 213.662 39.6705 213.817 39.6705H224.275C224.43 39.6705 224.551 39.7911 224.551 39.9462C224.551 40.1013 224.43 40.2219 224.275 40.2219Z" fill="#FFFBF6"/>
<path d="M224.275 43.2541H213.817C213.662 43.2541 213.542 43.1335 213.542 42.9785C213.542 42.8234 213.662 42.7028 213.817 42.7028H224.275C224.43 42.7028 224.551 42.8234 224.551 42.9785C224.551 43.1335 224.43 43.2541 224.275 43.2541Z" fill="#FFFBF6"/>
<path d="M224.275 46.2864H213.817C213.662 46.2864 213.542 46.1658 213.542 46.0108C213.542 45.8557 213.662 45.7351 213.817 45.7351H224.275C224.43 45.7351 224.551 45.8557 224.551 46.0108C224.551 46.1658 224.43 46.2864 224.275 46.2864Z" fill="#FFFBF6"/>
<path d="M224.275 49.3014H213.817C213.662 49.3014 213.542 49.1808 213.542 49.0258C213.542 48.8707 213.662 48.7501 213.817 48.7501H224.275C224.43 48.7501 224.551 48.8707 224.551 49.0258C224.551 49.1808 224.43 49.3014 224.275 49.3014Z" fill="#FFFBF6"/>
</svg>
