<svg width="344" height="241" viewBox="0 0 344 241" fill="none" xmlns="http://www.w3.org/2000/svg">
<rect x="0.137695" y="0.558594" width="343.438" height="239.623" rx="23" fill="white"/>
<g clip-path="url(#clip0_55_2)">
<path d="M98.8569 47.3699H244.857V193.37H98.8569V47.3699Z" fill="#2F5FAA"/>
<path d="M176.923 84.9401C173.112 82.1043 168.813 80.4425 164.153 79.5213C163.033 79.3046 161.823 79.0517 160.667 78.9795H160.613C161.209 78.6363 165.905 78.7808 166.844 78.853C169.662 79.0698 177.881 80.8941 179.615 82.9352C178.693 83.5674 177.79 84.2537 176.923 84.9401Z" fill="#E5A573"/>
<path d="M238.011 83.9648C238.011 84.7234 238.011 85.482 238.084 86.2226C238.102 88.7514 238.156 91.2801 238.084 93.8089C236.765 92.6529 235.555 91.3343 234.327 90.088C233.839 89.5823 233.261 88.8417 232.701 88.4804C232.358 88.0831 231.96 87.7037 231.581 87.3244C233.694 86.1504 235.898 85.1569 238.011 83.9648Z" fill="white"/>
<path d="M218.377 115.285C219.19 115.231 220.455 114.96 221.014 114.292C221.141 114.129 221.159 114.039 221.159 113.822C221.069 113.678 221.033 113.624 220.888 113.569C219.804 113.931 218.793 114.165 217.691 113.624C217.005 113.28 216.3 112.648 216.065 111.908C215.903 111.384 215.975 110.842 216.228 110.354C216.716 109.433 217.781 108.855 218.757 108.584C220.328 108.151 222.098 108.458 223.489 109.27C224.446 109.83 225.295 110.661 225.584 111.745C225.801 112.558 225.693 113.389 225.259 114.093C224.428 115.466 222.767 116.225 221.267 116.568C220.364 116.766 217.89 117.074 217.023 116.821C217.637 116.73 219.804 116.857 220.202 116.55C220.129 116.423 220.093 116.333 220.057 116.188C220.003 115.881 219.967 115.466 219.786 115.213C219.353 115.285 218.937 115.376 218.504 115.285C218.468 115.285 218.432 115.285 218.395 115.267L218.377 115.285Z" fill="#E5A573"/>
<path d="M131.857 106.976C132.399 106.724 132.923 106.453 133.519 106.362C134.513 106.2 135.687 106.362 136.518 106.976C137.077 107.392 137.439 108.006 137.511 108.71C137.601 109.523 137.276 110.318 136.752 110.914C135.831 111.998 134.314 112.468 132.941 112.558C131.514 112.648 129.87 112.323 128.769 111.33C128.1 110.733 127.649 109.866 127.613 108.963C127.577 108.006 128.082 107.157 128.733 106.507C130.105 105.098 132.381 104.249 134.332 104.249L134.26 104.285C134.025 104.375 133.826 104.43 133.573 104.448C133.429 104.683 133.628 105.297 133.7 105.586C133.88 105.531 134.133 105.405 134.314 105.441L134.35 105.495C133.176 106.055 132.923 106.055 131.857 106.995V106.976Z" fill="#E5A573"/>
<path d="M232.755 75.6559C234.507 75.963 236.368 76.4146 238.029 76.9926C238.011 78.7085 238.029 80.4064 238.029 82.1224C238.047 83.477 238.12 84.8679 238.065 86.2226C237.993 85.482 238.011 84.7234 237.993 83.9647C235.898 85.1569 233.676 86.1323 231.563 87.3244C230.678 86.4574 229.811 85.5723 228.944 84.6692C229.973 84.0009 231.202 83.2964 231.978 82.321C233.315 80.6773 232.936 77.6248 232.737 75.6379L232.755 75.6559Z" fill="#C8C7C0"/>
<path d="M219.064 119.747C220.4 120.343 221.845 121.716 222.369 123.088C222.694 123.937 222.694 124.858 222.279 125.689C221.773 126.737 220.743 127.441 219.66 127.803C218.052 128.308 216.192 128.074 214.71 127.315C213.627 126.755 212.687 125.834 212.344 124.642C212.164 124.046 212.182 123.413 212.525 122.872C212.995 122.095 213.916 121.625 214.783 121.445C215.379 121.318 216.011 121.318 216.535 121.679C216.842 121.896 217.33 122.42 217.727 122.42C217.817 122.42 217.908 122.33 217.962 122.257C218.088 122.077 218.16 121.734 218.106 121.535C217.962 120.885 217.149 120.487 216.607 120.253C217.528 119.765 218.377 120.126 219.045 119.801L219.064 119.747Z" fill="#E5A573"/>
<path d="M137.366 102.082C136.192 101.774 134.946 100.871 134.133 99.9501C133.429 99.1554 133.031 98.1619 133.122 97.0782C133.212 95.9764 133.808 95.0732 134.657 94.3869C134.729 94.3146 134.819 94.2604 134.91 94.2062C135 94.152 135.072 94.0798 135.163 94.0256C135.253 93.9714 135.343 93.9172 135.434 93.863C135.524 93.8089 135.614 93.7547 135.705 93.7185C135.795 93.6824 135.885 93.6282 135.975 93.5921C136.066 93.556 136.156 93.5018 136.264 93.4657C136.355 93.4295 136.463 93.3934 136.553 93.3573C136.644 93.3212 136.752 93.285 136.842 93.267C136.933 93.2309 137.041 93.2128 137.15 93.1947C137.258 93.1767 137.348 93.1586 137.457 93.1405C137.565 93.1405 137.655 93.1044 137.764 93.0864C137.872 93.0864 137.962 93.0683 138.071 93.0502C138.179 93.0502 138.269 93.0502 138.378 93.0502C138.486 93.0502 138.576 93.0502 138.685 93.0502C138.793 93.0502 138.884 93.0502 138.992 93.0502C139.1 93.0502 139.191 93.0502 139.299 93.0864C140.726 93.2489 142.261 93.8811 143.128 95.0552C143.58 95.6512 143.851 96.4099 143.742 97.1685C143.616 97.9452 143.11 98.5413 142.496 98.9748C142.442 99.0109 142.37 99.0651 142.297 99.1012C142.225 99.1373 142.171 99.1735 142.099 99.2096C142.026 99.2457 141.972 99.2818 141.9 99.318C141.828 99.3541 141.755 99.3902 141.683 99.4083C141.611 99.4444 141.539 99.4625 141.466 99.4986C141.394 99.5166 141.322 99.5528 141.25 99.5708C141.177 99.5889 141.105 99.607 141.033 99.625C140.961 99.6431 140.888 99.6611 140.816 99.6792C140.744 99.6792 140.672 99.7153 140.599 99.7153C140.527 99.7153 140.455 99.7334 140.365 99.7515C140.292 99.7515 140.22 99.7515 140.13 99.7515C140.058 99.7515 139.985 99.7515 139.895 99.7515C139.823 99.7515 139.751 99.7515 139.66 99.7515C139.588 99.7515 139.516 99.7515 139.425 99.7515C139.353 99.7515 139.281 99.7515 139.191 99.7153C139.118 99.7153 139.046 99.6973 138.974 99.6792C137.8 99.4263 137.204 98.7399 136.572 97.8007C136.752 98.6316 136.879 99.4625 137.529 100.077C137.619 100.149 137.565 100.095 137.655 100.203C137.655 100.203 137.691 100.239 137.709 100.257C137.565 100.257 137.529 100.293 137.42 100.167C137.384 100.131 137.348 100.059 137.33 100.004C137.15 100.077 137.059 100.239 136.969 100.402C136.77 100.781 136.662 101.16 136.409 101.504C136.734 101.648 137.131 101.756 137.366 102.027V102.082Z" fill="#E5A573"/>
<path d="M218.377 90.7382C219.027 91.3704 219.714 91.9665 220.418 92.5264C220.978 93.1947 221.719 93.7908 222.351 94.4049C223.958 95.9583 225.602 97.4756 227.192 99.0651C230.858 102.696 234.326 106.507 238.029 110.101C238.065 111.727 238.065 113.371 238.011 114.996C237.343 114.418 236.765 113.732 236.169 113.1C235.266 112.124 234.363 111.167 233.441 110.21C231.418 108.096 229.323 106.037 227.354 103.888C226.108 102.533 224.916 101.106 223.706 99.7153C222.911 98.8122 222.062 97.9452 221.249 97.0421C220.31 95.9944 219.407 94.9468 218.504 93.863C218.034 93.3031 217.528 92.5806 216.95 92.129L216.896 91.9304C217.257 91.4607 217.926 91.0995 218.395 90.7382H218.377Z" fill="#E5A573"/>
<path d="M156.115 79.8103C158.319 79.7381 160.631 80.1174 162.78 80.5329C166.682 81.3095 170.367 82.3211 173.799 84.3802C174.413 84.7595 175.171 85.193 175.677 85.6988C175.713 85.7349 175.731 85.771 175.767 85.8071C173.654 87.2702 170.457 89.1126 168.849 90.9911C168.127 90.3047 167.35 89.7087 166.592 89.0765C165.147 87.8121 163.683 86.5658 162.22 85.3194C160.812 84.1092 159.457 82.7546 157.994 81.6347C157.38 81.0205 156.729 80.4064 156.115 79.8103Z" fill="white"/>
<path d="M222.839 92.6528C223.579 92.1471 227.355 90.7382 228.42 90.377C228.745 90.7021 229.07 91.0272 229.432 91.3343C230.136 92.2013 231.021 92.978 231.816 93.7547C233.893 95.8319 236.061 97.8729 238.03 100.059C238.03 102.804 238.03 105.55 238.066 108.313C236.855 107.067 235.699 105.748 234.489 104.484C231.798 101.666 229.07 98.8664 226.325 96.0847C225.657 95.3984 224.013 93.556 223.308 93.1044L222.857 92.6348L222.839 92.6528Z" fill="white"/>
<path d="M197.425 105.369C198.761 104.773 200.062 103.996 201.308 103.238C202.5 102.515 203.728 101.774 204.884 100.98C206.51 99.8598 208.063 98.6135 209.617 97.3853C210.953 96.3557 212.326 95.3442 213.609 94.2424C213.518 94.6578 213.428 95.0552 213.374 95.4706C213.193 96.0848 213.103 96.6989 212.85 97.2949C211.098 101.485 207.178 104.556 203.259 106.669C198.057 109.487 191.41 111.023 185.485 110.734C184.04 110.661 182.577 110.354 181.132 110.174C179.452 109.975 177.158 109.848 175.569 109.343C175.406 109.289 175.478 109.343 175.352 109.234C175.406 109.234 175.442 109.252 175.497 109.27C181.529 110.734 188.791 109.162 194.39 106.76C195.383 106.326 196.467 105.929 197.388 105.351L197.425 105.369Z" fill="white"/>
<path d="M235.41 54.4504H238.083C238.047 58.081 238.047 61.7297 238.083 65.3783C238.101 69.2437 238.192 73.1272 238.083 76.9926C236.404 76.3965 234.561 75.963 232.809 75.6559C232.665 75.385 232.484 75.2224 232.249 75.0237C231.978 72.206 231.454 70.6165 230.497 68.0155C231.129 67.7084 231.78 67.4013 232.412 67.0581C232.791 66.2814 233.676 62.7773 233.712 61.9464C233.712 61.7116 233.55 61.5671 233.405 61.4045C233.839 60.0679 234.254 58.7313 234.633 57.3946C234.922 56.4193 235.248 55.4439 235.464 54.4504H235.41Z" fill="white"/>
<path d="M214.999 95.1816C215.27 95.4526 215.379 96.2293 215.415 96.6086C215.722 99.5528 214.475 102.569 212.651 104.809C208.515 109.903 200.676 112.504 194.336 113.172C195.293 113.876 196.395 114.418 197.406 115.051C200.947 117.308 203.728 120.036 205.643 123.829C207.774 128.056 207.666 131.957 206.564 136.4C206.347 137.322 206.131 138.243 205.842 139.128C205.842 137.827 205.914 136.545 205.842 135.244C205.842 134.811 205.842 134.396 205.805 133.962C205.787 133.529 205.733 133.113 205.697 132.68C205.643 132.246 205.589 131.831 205.516 131.415C205.444 131 205.354 130.566 205.264 130.151C205.173 129.735 205.065 129.32 204.938 128.905C204.83 128.489 204.686 128.092 204.559 127.676C204.415 127.279 204.27 126.882 204.108 126.484C203.945 126.087 203.782 125.689 203.584 125.31C201.308 120.56 197.352 117.019 192.909 114.364C191.446 113.479 189.983 112.684 188.357 112.106C195.726 111.871 203.222 109.252 209.075 104.701C211.351 102.93 213.554 100.582 214.457 97.8007C214.746 96.9337 214.873 96.0667 214.981 95.1636L214.999 95.1816Z" fill="#E5A573"/>
<path d="M152.647 83.7119C152.738 84.2357 152.358 85.7529 152.268 86.349C151.762 89.6906 152.069 93.1947 153.388 96.3195C155.574 101.504 160.306 105.55 165.454 107.645C164.406 107.789 163.359 107.843 162.329 107.988C159.385 108.385 156.368 109.018 153.605 110.101C146.362 112.919 140.401 118.121 137.24 125.274C136.68 126.484 136.427 127.748 136.084 129.013C136.247 127.64 136.265 126.249 136.481 124.877C137.132 120.849 139.227 116.947 142.135 114.093C145.567 110.715 149.83 108.837 154.436 107.663C155.953 107.265 157.506 106.904 159.078 106.904C158.445 106.38 157.723 105.947 157.091 105.441C154.129 103.093 151.257 100.095 150.335 96.3195C149.504 92.9057 150.191 89.5822 151.473 86.3851C151.835 85.482 152.196 84.5608 152.702 83.7299L152.647 83.7119Z" fill="#E5A573"/>
<path d="M173.528 120.632C173.763 121.282 173.708 122.131 173.853 122.835C174.341 125.184 175.153 127.387 176.382 129.446C179.597 134.793 185.395 138.839 191.193 140.988C192.728 141.548 194.3 142.072 195.889 142.47C196.828 142.704 197.786 142.885 198.743 143.12C193.487 143.228 187.002 141.892 182.396 139.327C178.983 137.412 175.767 134.739 174.033 131.162C173.492 130.042 173.13 128.832 172.787 127.64C172.661 127.17 172.588 126.683 172.516 126.195C171.649 126.918 170.909 127.803 170.096 128.561C168.362 130.169 166.321 131.379 164.189 132.354C158.138 135.154 151.293 135.443 144.808 134.323C143.435 134.088 141.954 133.872 140.636 133.384C146.434 133.962 153.027 133.258 158.572 131.451C164.262 129.591 170.728 126.159 173.528 120.614V120.632Z" fill="#E5A573"/>
<path d="M159.692 140.717C160.197 140.645 160.775 140.663 161.281 140.754C162.329 140.934 163.467 141.53 164.063 142.415C164.334 142.813 164.478 143.3 164.37 143.77C164.316 144.077 164.135 144.312 163.882 144.474C163.286 144.836 162.654 144.655 162.022 144.529L162.202 144.637C163.015 145.143 163.846 145.396 164.821 145.305C166.014 145.197 167.404 144.583 168.163 143.662C168.669 144.872 169.5 145.974 170.746 146.497C171.812 146.931 172.841 146.859 173.871 146.407C173.311 146.389 172.733 146.407 172.245 146.082C172.028 145.938 171.848 145.739 171.812 145.468C171.757 145.161 171.902 144.854 172.083 144.619C172.606 143.951 173.582 143.68 174.395 143.589C175.858 143.427 177.321 143.77 178.477 144.691C179.47 145.468 180.211 146.588 180.337 147.87C180.464 149.08 180.066 150.11 179.308 151.049C178.495 151.916 177.556 152.53 176.399 152.856C174.702 153.325 172.823 152.856 171.324 152.007C169.048 150.706 168.199 149.117 167.549 146.678C165.706 148.123 164.045 149.478 161.66 149.875C159.89 150.164 158.048 149.947 156.585 148.864C155.609 148.159 154.887 147.166 154.706 145.956C154.544 144.8 154.887 143.698 155.591 142.795C156.585 141.512 158.138 140.916 159.71 140.735L159.692 140.717Z" fill="#E5A573"/>
<path d="M178.387 111.293C178.766 111.312 179.145 111.348 179.507 111.402C181.53 111.619 183.535 111.98 185.485 112.594C190.904 114.274 196.07 117.76 199.592 122.203C204.487 128.381 204.776 134.721 203.927 142.199C203.927 142.253 203.891 142.325 203.873 142.397C203.476 142.235 202.88 141.277 202.591 140.916C200.405 138.062 198.797 135.208 197.334 131.921C196.124 129.212 195.257 126.52 193.469 124.1C191.717 121.716 189.351 120.036 186.966 118.356C183.968 116.243 180.771 114.129 178.369 111.33L178.387 111.293Z" fill="white"/>
<path d="M176.797 111.492C177.14 111.709 177.429 112.305 177.646 112.648C179.506 115.629 180.735 118.952 182.107 122.167C182.794 123.757 183.372 125.382 184.437 126.773C186.551 129.501 189.531 131.126 192.367 132.951C193.577 133.745 194.751 134.594 195.889 135.479C197.677 136.906 199.195 138.622 200.766 140.284C201.507 141.079 202.301 141.819 203.06 142.596C202.5 142.56 201.976 142.488 201.416 142.397C199.538 142.072 197.677 141.566 195.853 141.043C188.502 138.947 181.258 134.937 177.447 128.038C174.069 121.896 174.918 117.814 176.761 111.51L176.797 111.492Z" fill="white"/>
<path d="M155.826 79.8104H156.115C156.748 80.4245 157.38 81.0205 157.994 81.6347C159.457 82.7726 160.812 84.1273 162.221 85.3194C163.684 86.5658 165.147 87.8121 166.592 89.0765C167.332 89.7267 168.127 90.3228 168.85 90.9911C168.416 91.7136 168.055 92.5806 167.531 93.2128C166.971 93.8811 166.249 94.3688 165.761 95.1094C165.327 95.7235 165.183 96.5002 164.767 97.1324C164.207 98.7038 164.334 100.637 165.056 102.136C165.093 102.226 165.147 102.316 165.201 102.407C166.068 104.303 168.832 106.543 170.692 107.374C170.963 107.573 171.288 107.699 171.577 107.844C171.125 107.898 170.638 107.771 170.204 107.681C168.073 107.266 166.176 106.435 164.298 105.369C159.909 102.894 155.592 98.9928 154.201 93.9895C153.117 90.0518 153.587 85.7891 154.923 81.9779C155.176 81.2373 155.429 80.4425 155.826 79.7562V79.8104Z" fill="white"/>
<path d="M155.826 79.8104H156.115C156.747 80.4245 157.38 81.0206 157.994 81.6347L157.867 81.6889C157.65 81.5082 157.434 81.2915 157.199 81.1289C157.361 81.3818 157.632 81.6889 157.687 81.9959L157.632 82.0682C157.072 81.2734 156.386 80.6051 155.808 79.8104H155.826Z" fill="#2C2C2E"/>
<path d="M157.199 81.1108C157.434 81.2734 157.651 81.4902 157.868 81.6708L157.994 81.6166C159.457 82.7545 160.812 84.1092 162.221 85.3014C163.684 86.5477 165.147 87.794 166.592 89.0584C167.332 89.7086 168.127 90.3047 168.85 90.973C168.416 91.6955 168.055 92.5625 167.531 93.1947C166.971 93.863 166.249 94.3507 165.761 95.0913C165.327 95.7054 165.183 96.4821 164.767 97.1143C164.478 96.6447 164.298 96.0486 164.081 95.5429L162.69 92.1832C161.516 89.3474 160.252 86.3671 158.716 83.7119C158.391 83.1519 157.994 82.61 157.651 82.0501L157.705 81.9778C157.651 81.6708 157.38 81.3637 157.217 81.1108H157.199Z" fill="#2F5FAA"/>
<path d="M203.114 55.7148C203.548 55.191 203.909 54.8298 204.487 54.4866C204.288 54.9381 204.089 55.3175 203.782 55.7148C203.945 55.9858 204.089 56.2386 204.288 56.4915C202.121 57.6295 200.35 58.93 199.032 61.0252C198.689 61.5852 198.346 62.1632 198.165 62.7954C197.858 63.843 198.093 64.8003 198.4 65.7938C198.093 66.155 197.768 66.5163 197.497 66.8956C196.864 66.7511 196.232 66.6066 195.582 66.5343C194.878 66.444 194.119 66.426 193.433 66.2634C193.035 66.1731 191.518 65.5228 191.373 65.5228C191.301 65.7034 191.355 65.8118 191.428 65.9744C191.554 66.2815 191.771 66.6246 191.988 66.8775C192.385 67.311 193.541 68.0155 193.631 68.5935C193.234 68.8463 192.547 68.9186 192.06 69.045C191.247 69.334 190.416 69.5508 189.603 69.8578C189.296 69.9662 188.971 70.0927 188.664 70.183C187.797 70.49 183.028 72.5311 182.739 73.091C182.685 73.1814 182.685 73.1994 182.667 73.2897C182.812 73.6149 183.155 73.7774 183.462 73.9039C184.636 74.3916 187.129 74.5902 187.996 75.3489C187.996 75.385 187.96 75.4392 187.941 75.4753C187.851 75.7282 187.887 76.0172 187.887 76.2701C187.183 76.9564 186.37 77.4622 185.611 78.0763C185.214 78.546 184.654 78.9072 184.184 79.3046C183.932 79.5575 183.787 79.72 183.408 79.72C182.848 79.72 182.432 79.5575 181.963 79.9548C181.349 80.5148 181.475 81.4902 181.078 81.8333C179.56 81.2915 178.134 80.4425 176.616 79.8645C170.565 77.5886 164.568 77.0106 158.247 78.257C158.951 77.8596 159.728 77.5706 160.45 77.2274C161.877 76.5591 163.286 75.8908 164.713 75.2224L187.382 64.2223L195.889 60.1221C197.28 59.4538 198.689 58.8397 200.061 58.1172C200.531 57.8643 201.055 57.6295 201.398 57.2321C201.452 56.9611 201.633 56.6902 201.85 56.5096C202.012 56.3651 202.139 56.2748 202.193 56.058L202.139 56.1303V56.058L201.814 56.2567L201.687 56.2206C202.066 55.8955 202.428 55.5703 202.807 55.2452L203.114 55.6968V55.7148Z" fill="white"/>
<path d="M201.687 56.2568C202.067 55.9316 202.428 55.6065 202.807 55.2814L203.114 55.7329C202.554 56.2568 201.976 56.7625 201.417 57.2683C201.471 56.9973 201.651 56.7264 201.868 56.5458C202.031 56.4013 202.157 56.3109 202.211 56.0942L202.157 56.1664V56.0942L201.832 56.2929L201.706 56.2568H201.687Z" fill="#2C2C2E"/>
<path d="M188.989 69.4244C189.369 69.0631 189.947 68.16 190.488 68.1238C191.012 68.0877 191.663 68.756 192.06 69.0631C191.247 69.3521 190.416 69.5689 189.603 69.8759C189.405 69.7134 189.188 69.5508 188.971 69.4063L188.989 69.4244Z" fill="#2F5FAA"/>
<path d="M184.203 79.3407C182.469 78.4015 180.681 77.5706 179.615 75.8185C179.091 74.9696 178.874 73.9581 179.145 72.9827C179.489 71.7002 180.627 70.6887 181.764 70.0746C183.968 68.8644 186.605 68.7199 188.99 69.4063C189.206 69.5508 189.423 69.7134 189.622 69.8759C189.315 69.9843 188.99 70.1107 188.682 70.201C187.472 69.6411 184.781 69.8217 183.517 70.2733C182.379 70.6887 181.259 71.4654 180.735 72.5853C180.428 73.2356 180.374 73.94 180.627 74.6264C181.114 76.0172 182.469 76.8481 183.751 77.4261C184.366 77.697 184.998 77.9499 185.648 78.0944C185.251 78.564 184.691 78.9253 184.221 79.3227L184.203 79.3407Z" fill="#2F5FAA"/>
<path d="M185.612 78.1125C184.961 77.9499 184.311 77.7151 183.715 77.4442C182.433 76.8662 181.096 76.0353 180.59 74.6445C180.355 73.9581 180.391 73.2536 180.699 72.6034C181.222 71.4835 182.36 70.7068 183.48 70.2914C184.726 69.8398 187.436 69.6592 188.646 70.2191C187.779 70.5262 183.011 72.5673 182.722 73.1272C182.667 73.2175 182.667 73.2356 182.649 73.3259C182.794 73.651 183.137 73.8136 183.444 73.94C184.618 74.4277 187.111 74.6264 187.978 75.385C187.978 75.4212 187.942 75.4753 187.924 75.5115C187.833 75.7643 187.869 76.0533 187.869 76.3062C187.165 76.9926 186.352 77.4984 185.593 78.1125H185.612Z" fill="#E5A573"/>
<path d="M137.113 131.74C137.222 130.891 137.366 130.061 137.565 129.23C137.764 128.399 138.016 127.586 138.305 126.773C140.617 120.325 145.964 115.285 152.051 112.413C158.481 109.379 167.513 107.844 174.322 110.3C172.245 111.113 170.33 112.179 168.217 112.901C166.7 113.407 165.164 113.858 163.611 114.238C159.583 115.231 156.711 115.701 153.261 118.356C151.347 119.837 149.757 121.643 148.095 123.377C146.939 124.569 145.801 125.816 144.555 126.936C143.67 127.749 142.713 128.471 141.773 129.23L141.828 129.356C141.719 129.464 141.719 129.483 141.683 129.627L141.828 129.555L141.99 129.645C142.767 129.483 143.562 129.103 144.302 128.832C145.765 128.29 147.246 127.785 148.728 127.279C152.376 126.051 156.224 125.111 159.746 123.594C161.028 123.052 162.311 122.312 163.394 121.445C164.442 120.596 165.327 119.548 166.212 118.537C168.091 116.387 170.005 114.093 172.516 112.648C173.365 112.16 174.286 111.781 175.189 111.402C174.665 113.009 174.34 114.671 173.835 116.279C172.66 119.945 170.33 123.124 167.314 125.491C161.931 129.717 153.514 131.867 146.795 132.21C143.598 132.373 140.292 132.174 137.131 131.776L137.113 131.74Z" fill="white"/>
<path d="M141.774 129.23L141.828 129.356C141.72 129.464 141.72 129.482 141.684 129.627L141.828 129.555L141.991 129.645C141.124 129.988 140.257 130.368 139.354 130.657C140.076 130.097 140.979 129.699 141.774 129.248V129.23Z" fill="#2C2C2E"/>
<path d="M185.142 54.5047C188.628 54.3963 192.168 54.4324 195.654 54.5588C193.577 55.7149 191.301 56.5999 189.17 57.6476L175.478 64.3307L147.517 77.8957C140.997 80.9483 134.476 84.0551 127.992 87.198C122.844 89.6184 117.714 92.0929 112.602 94.6036C110.218 95.7596 107.798 96.8434 105.432 98.0717C105.432 96.3015 105.323 94.4772 105.468 92.7071C106.335 92.1291 107.437 91.6956 108.376 91.2259C110.67 90.1241 112.982 89.0765 115.258 87.9747L138.631 76.83L171.703 60.8808L180.391 56.7083C181.963 55.9677 183.534 55.1549 185.142 54.5047Z" fill="white"/>
<path d="M113.018 100.149C114.716 99.2277 116.54 98.469 118.292 97.602C123.747 94.8746 129.238 92.2194 134.765 89.6726L150.317 82.2669C151.383 81.7611 152.431 81.2193 153.496 80.7316C153.243 80.9844 153.009 81.2373 152.792 81.4902C149.83 84.886 148.132 89.3836 148.457 93.9173C148.457 94.134 148.493 94.3508 148.511 94.5675C148.529 94.7843 148.565 95.001 148.601 95.1997C148.638 95.4165 148.674 95.6332 148.71 95.8319C148.746 96.0487 148.8 96.2473 148.854 96.4641C148.908 96.6808 148.963 96.8795 149.017 97.0963C149.071 97.295 149.143 97.5117 149.197 97.7104C149.27 97.9091 149.342 98.1259 149.414 98.3245C149.486 98.5232 149.577 98.7219 149.649 98.9206C149.739 99.1193 149.83 99.318 149.92 99.5167C150.01 99.7154 150.101 99.896 150.209 100.095C150.317 100.293 150.408 100.474 150.516 100.655C150.624 100.835 150.733 101.034 150.841 101.215C150.95 101.395 151.076 101.576 151.202 101.756C151.329 101.937 151.455 102.1 151.582 102.28C151.708 102.461 151.853 102.623 151.979 102.786C152.124 102.949 152.25 103.111 152.395 103.274C153.135 104.105 153.966 104.827 154.797 105.55C150.787 104.881 146.777 104.213 142.785 103.418C141.033 103.075 139.01 102.822 137.385 102.082C137.168 101.793 136.752 101.684 136.427 101.558C136.68 101.215 136.788 100.835 136.987 100.456C137.077 100.293 137.168 100.131 137.348 100.059C137.366 100.095 137.421 100.185 137.439 100.221C137.547 100.329 137.583 100.311 137.728 100.311C139.1 101.016 140.853 101.034 142.316 100.582C143.49 100.221 144.754 99.3541 145.332 98.2523C145.729 97.5117 145.766 96.6808 145.513 95.8861C145.061 94.4591 143.797 93.267 142.478 92.6168C140.509 91.6233 137.836 91.6233 135.777 92.2916C134.097 92.8335 132.435 94.0256 131.641 95.6332C131.604 95.6874 131.586 95.7416 131.55 95.8138C131.532 95.868 131.496 95.9403 131.478 95.9945C131.46 96.0487 131.442 96.1209 131.406 96.1751C131.388 96.2293 131.37 96.3015 131.352 96.3557C131.352 96.4099 131.315 96.4822 131.297 96.5363C131.297 96.5905 131.279 96.6628 131.261 96.717C131.261 96.7892 131.243 96.8434 131.225 96.9157C131.225 96.9879 131.225 97.0421 131.225 97.1143C131.225 97.1866 131.225 97.2408 131.225 97.313C131.225 97.3853 131.225 97.4395 131.225 97.5117C131.225 97.584 131.225 97.6382 131.225 97.7104C131.225 97.7827 131.225 97.8368 131.243 97.9091C131.243 97.9814 131.243 98.0355 131.279 98.1078C131.279 98.162 131.297 98.2342 131.315 98.2884C131.315 98.3426 131.352 98.4149 131.37 98.469C131.37 98.5232 131.406 98.5955 131.424 98.6497C132.11 100.709 133.953 101.684 135.632 102.786C131.984 101.774 128.209 100.618 125.59 97.7104C125.138 97.2047 124.795 96.6447 124.397 96.1028C124.253 97.313 124.127 98.5232 123.115 99.3541C121.869 100.366 119.719 100.384 118.202 100.185H118.13C118.13 100.185 118.184 100.185 118.202 100.221C119.25 100.745 121.11 101.034 121.562 102.262C121.995 103.4 121.146 105.224 120.749 106.29C123.639 103.635 127.92 102.931 131.695 103.093C132.453 103.129 133.194 103.183 133.953 103.256C133.23 103.346 132.49 103.4 131.767 103.563C130.015 103.96 127.992 105.008 126.872 106.453C126.186 107.32 125.716 108.476 125.843 109.596C126.005 110.842 126.872 111.926 127.866 112.648C129.527 113.876 131.803 114.202 133.808 113.876C135.542 113.605 137.493 112.793 138.559 111.33C139.119 110.553 139.444 109.578 139.281 108.602C139.119 107.627 138.468 106.832 137.674 106.29C136.626 105.568 135.578 105.405 134.314 105.568L134.278 105.513C134.097 105.477 133.844 105.604 133.664 105.658C133.609 105.369 133.411 104.755 133.537 104.52C133.772 104.484 133.989 104.43 134.224 104.357L134.296 104.321C136.987 103.888 143.327 105.297 146.235 105.748C148.294 106.073 150.39 106.29 152.431 106.724C147.391 108.494 143.074 110.354 139.552 114.581C136.644 118.067 134.838 122.402 134.747 126.954C134.729 127.965 134.82 128.959 134.892 129.952C133.971 128.76 133.122 127.46 132.219 126.249L120.893 110.842C118.961 108.259 116.974 105.712 115.059 103.129C114.373 102.19 113.524 101.251 112.982 100.239L113.018 100.149Z" fill="white"/>
<path d="M216.354 93.9353C216.607 94.2062 216.878 94.5675 217.149 94.8023C218.251 96.1751 219.515 97.4394 220.707 98.74C224.735 103.201 228.944 107.5 233.08 111.871C234.706 113.587 236.44 115.249 237.975 117.037C237.993 119.837 238.011 122.619 237.993 125.418C236.91 125.816 235.88 126.394 234.85 126.918L230.606 129.103C228.854 130.006 227.12 130.964 225.386 131.903L215.198 137.267C212.2 138.875 209.183 140.627 206.041 141.946C208.678 137.466 209.924 131.578 208.569 126.502C207.558 122.655 205.029 119.078 202.031 116.477C201.344 115.881 200.586 115.339 199.845 114.816C202.518 115.484 205.21 116.098 207.919 116.622C211.315 117.326 216.174 117.922 219.064 119.747C218.395 120.09 217.546 119.711 216.625 120.198C215.867 119.909 215 119.837 214.205 119.927C212.995 120.054 211.803 120.632 211.044 121.589C211.008 121.643 210.972 121.679 210.936 121.734C210.899 121.788 210.863 121.842 210.827 121.878C210.791 121.932 210.755 121.987 210.737 122.041C210.701 122.095 210.683 122.149 210.647 122.203C210.61 122.257 210.592 122.312 210.574 122.366C210.556 122.42 210.52 122.474 210.502 122.528C210.484 122.583 210.466 122.637 210.448 122.709C210.43 122.763 210.412 122.817 210.394 122.89C210.394 122.944 210.358 123.016 210.358 123.07C210.358 123.124 210.34 123.197 210.321 123.251C210.321 123.305 210.303 123.377 210.303 123.432C210.303 123.486 210.303 123.558 210.303 123.612C210.303 123.666 210.303 123.739 210.303 123.793C210.303 123.847 210.303 123.919 210.303 123.973C210.303 124.028 210.303 124.1 210.303 124.154C210.303 124.208 210.303 124.28 210.321 124.335C210.52 125.689 211.459 126.9 212.525 127.712C214.476 129.193 217.077 129.916 219.497 129.555C221.105 129.32 222.749 128.579 223.742 127.243C224.464 126.249 224.898 125.057 224.699 123.811C224.356 121.716 222.694 120.216 221.014 119.078C220.617 118.808 220.184 118.645 219.786 118.356C219.895 118.302 220.093 118.374 220.22 118.41L220.274 118.302L220.671 118.266L220.635 118.193C221.105 117.922 222.152 117.94 222.73 117.796C223.417 117.633 224.121 117.326 224.753 117.001C226.072 116.315 227.192 115.321 227.625 113.858C227.969 112.738 227.77 111.709 227.21 110.697C226.253 108.963 224.41 107.771 222.532 107.265C220.455 106.687 217.962 106.76 216.065 107.88C215.108 108.44 214.349 109.27 214.078 110.372C213.88 111.239 214.06 112.088 214.512 112.829C215.379 114.22 216.842 114.906 218.377 115.267C218.413 115.267 218.45 115.267 218.486 115.285C218.919 115.376 219.353 115.285 219.768 115.213C219.949 115.466 219.985 115.881 220.039 116.188C220.075 116.333 220.111 116.423 220.184 116.55C219.786 116.857 217.637 116.712 217.005 116.821C215.65 116.694 213.717 116.206 212.308 115.917L206.51 114.78C204.162 114.292 201.85 113.804 199.466 113.533C204.776 112.793 211.116 109.487 214.404 105.242C216.264 102.84 217.384 99.7515 216.932 96.6989C216.806 95.8138 216.427 94.9287 216.336 94.0617C216.336 94.0256 216.336 93.9895 216.336 93.9534L216.354 93.9353Z" fill="white"/>
<path d="M220.653 118.284H220.744C221.647 118.356 222.514 118.573 223.417 118.627C225.964 118.753 228.872 118.211 231.202 117.164C232.105 116.766 232.954 116.243 233.803 115.719C233.496 117.019 233.207 118.32 232.99 119.638C234.381 120.632 236.043 121.481 237.704 121.914C236.801 121.896 235.934 121.968 235.049 122.095C235.194 121.878 236.043 121.788 236.332 121.716C235.194 121.12 233.803 120.56 232.809 119.765C233.098 118.609 233.261 117.399 233.46 116.225L233.387 116.261C232.556 116.622 231.798 117.092 230.949 117.435C228.547 118.428 225.675 118.934 223.074 118.97C226.65 120.686 229.233 122.33 230.66 126.213C230.678 126.267 230.696 126.322 230.714 126.358C231.184 125.129 231.581 123.901 231.924 122.637C232.322 122.528 233.442 122.131 233.821 122.312L232.087 122.763C231.762 124.136 231.346 125.617 230.732 126.9C230.696 126.972 230.732 126.954 230.624 126.99C230.624 126.954 230.624 126.918 230.624 126.881V126.737C230.57 126.123 230.208 125.4 229.919 124.858C228.691 122.474 226.614 120.957 224.266 119.765C223.652 119.458 223.019 119.115 222.351 118.898C221.683 118.681 220.96 118.645 220.292 118.41C220.274 118.41 220.238 118.41 220.22 118.392L220.274 118.284L220.671 118.248L220.653 118.284Z" fill="#060809"/>
<path d="M223.055 118.97C225.656 118.934 228.546 118.428 230.93 117.435C231.761 117.092 232.538 116.622 233.369 116.261L233.441 116.225C233.242 117.399 233.08 118.609 232.791 119.765C233.784 120.56 235.175 121.12 236.313 121.716C236.024 121.77 235.175 121.878 235.031 122.095C234.651 122.221 234.2 122.312 233.802 122.348C233.423 122.149 232.303 122.546 231.906 122.673C231.545 123.937 231.165 125.166 230.696 126.394C230.696 126.34 230.66 126.285 230.641 126.249C229.233 122.366 226.632 120.722 223.055 119.006V118.97Z" fill="#2F5FAA"/>
<path d="M170.854 129.988C170.854 130.476 170.602 131.09 170.475 131.578C170.114 133.059 169.735 134.54 169.355 136.021C169.03 137.268 167.982 141.729 167.459 142.524C167.061 143.138 166.321 143.553 165.707 143.915C165.707 143.626 165.743 143.337 165.725 143.066C165.652 142.144 165.092 141.277 164.406 140.681C163.033 139.507 160.902 139.092 159.15 139.254C157.199 139.435 155.284 140.41 154.056 141.946C153.117 143.102 152.575 144.583 152.738 146.082C152.9 147.581 153.731 148.864 154.905 149.803C156.657 151.194 159.023 151.736 161.227 151.483C163.431 151.23 165.472 150.327 166.863 148.575C166.917 148.846 166.989 149.135 167.061 149.406C167.567 151.122 168.831 152.422 170.367 153.271C172.516 154.445 175.28 154.77 177.628 154.03C179.308 153.506 180.735 152.44 181.547 150.851C182.216 149.55 182.469 148.069 181.999 146.66C181.457 145.016 180.157 143.734 178.621 142.957C176.923 142.09 174.774 141.946 172.968 142.542C171.667 142.975 170.963 143.734 170.349 144.944C170.096 144.691 169.843 144.384 169.698 144.059C169.5 143.662 169.5 143.282 169.536 142.849C169.626 141.855 169.897 140.862 170.132 139.887L171.161 135.624C171.523 134.088 171.776 132.463 172.263 130.982C172.426 131.343 172.588 131.704 172.769 132.047C172.95 132.391 173.13 132.734 173.347 133.077C173.546 133.42 173.762 133.745 173.979 134.07C174.196 134.396 174.431 134.703 174.666 135.01C179.524 141.133 186.587 143.499 194.101 144.33C196.828 144.565 199.411 144.474 202.121 144.204C200.64 145.052 199.104 145.811 197.605 146.606L189.423 150.959L174.431 158.943C173.004 159.683 171.559 160.388 170.132 161.128C167.26 162.609 164.424 164.163 161.588 165.698C160.956 164.994 160.432 164.145 159.854 163.386C158.193 161.164 156.603 158.907 154.941 156.685L138.017 133.98C141.737 135.208 145.639 136.112 149.559 136.364C156.892 136.834 165.255 134.955 170.891 130.006L170.854 129.988Z" fill="white"/>
<path d="M170.692 157.461C171.216 157.624 171.758 157.769 172.281 157.913C171.758 157.931 171.234 157.913 170.71 157.985L170.674 157.48L170.692 157.461Z" fill="#2C2C2E"/>
<path d="M155.501 154.553C156.983 155.077 158.265 155.222 159.836 154.987C162.148 154.644 164.045 153.65 165.436 151.772C165.526 152.332 165.689 152.892 165.924 153.415C166.791 155.438 168.705 156.685 170.674 157.48L170.71 157.985C169.5 158.112 168.272 158.256 167.098 158.636C164.587 159.484 162.799 161.291 161.643 163.639C161.878 162.682 162.04 161.652 161.914 160.677C161.643 158.708 159.999 157.028 158.319 156.125C157.434 155.637 156.387 155.258 155.574 154.626C155.556 154.608 155.52 154.589 155.501 154.571V154.553Z" fill="#2F5FAA"/>
<path d="M105.721 99.047C111.609 96.3376 117.389 93.3753 123.223 90.5576L173.383 66.3718C179.651 63.3553 185.846 60.1943 192.15 57.2501C193.902 56.4373 195.618 55.4439 197.425 54.7214C197.623 54.6311 197.84 54.5769 198.057 54.5588C198.906 54.4685 202.897 54.3782 203.512 54.6491L202.807 55.2633C202.428 55.5884 202.067 55.9135 201.687 56.2386C201.2 56.347 200.622 56.7625 200.134 56.9611C197.587 57.9907 195.167 59.1828 192.71 60.375L184.582 64.2765L134.946 88.2275L118.455 96.1028C116.36 97.0962 114.192 98.0174 112.133 99.0651C111.826 99.2276 111.465 99.4083 111.248 99.6792C111.266 99.9682 111.447 100.221 111.591 100.438C112.892 102.316 114.3 104.105 115.655 105.965C118.545 109.957 121.453 113.913 124.397 117.868L140.545 139.832L154.725 158.961C156.838 161.796 158.879 164.759 161.119 167.504C163.647 166.348 166.068 164.939 168.542 163.639L180.301 157.48L221.592 135.66C223.254 134.793 224.862 133.836 226.505 132.932C227.716 132.264 228.962 131.632 230.172 130.982C232.755 129.609 235.266 128.254 237.957 127.08V130.909C229.684 135.028 221.592 139.543 213.41 143.878L159.547 172.688C157.795 170.485 156.17 168.118 154.526 165.842L147.68 156.468L132.092 135.154C126.077 127.026 120.117 118.862 114.192 110.661L108.846 103.346C107.816 101.937 106.696 100.546 105.775 99.047H105.721Z" fill="#E5A573"/>
<path d="M105.377 100.889C105.865 101.359 106.28 102.082 106.678 102.641L110.272 107.663L122.826 125.003L152.882 166.204C154.905 169.003 157.036 171.749 159.041 174.567C161.317 173.483 163.521 172.201 165.724 171.008C169.879 168.751 174.051 166.475 178.224 164.289L237.866 132.499C237.903 134.63 237.939 136.762 237.921 138.875C237.686 138.983 237.433 139.092 237.198 139.2C235.862 139.923 234.489 140.555 233.152 141.259C228.962 143.481 224.753 145.685 220.526 147.834L196.864 160.46L170.872 174.35C167.856 175.976 164.821 177.601 161.787 179.191C160.053 180.112 158.337 181.051 156.585 181.918C154.219 178.866 152.015 175.705 149.757 172.58L138.45 157.028L105.413 111.221C105.269 107.771 105.468 104.321 105.377 100.889Z" fill="white"/>
<path d="M105.793 54.3963C107.057 54.306 108.34 54.3421 109.604 54.3421H115.619C120.08 54.3421 124.578 54.2337 129.039 54.4144C126.366 55.2272 124.181 55.4439 121.832 57.2502C120.044 58.623 118.527 60.8266 118.256 63.1025C118.22 63.3915 118.202 63.6444 118.401 63.8792C118.744 64.0056 119.502 63.7347 119.846 63.6263C124.867 62.1452 126.8 58.6591 129.094 54.3963C131.261 54.3241 133.429 54.3963 135.596 54.4144C138.035 54.4324 140.491 54.4505 142.93 54.4324H171.848L177.447 54.5047C176.634 54.9562 175.767 55.3536 174.937 55.7691C173.275 56.618 171.595 57.4308 169.915 58.2256L160.378 62.8496C148.348 68.738 136.301 74.5542 124.199 80.28C120.622 81.9598 117.046 83.6577 113.488 85.3917C110.796 86.6561 108.087 87.8844 105.45 89.2571L105.504 65.3061V58.2256C105.504 56.9431 105.432 55.5884 105.594 54.3241C105.775 54.3602 105.865 54.3782 105.992 54.5227C106.552 55.0646 107.184 56.618 107.599 57.3586C108.015 58.0991 108.484 58.8397 109.008 59.508C109.803 60.5015 110.923 61.4227 111.97 62.1271C113.144 62.9038 114.499 63.536 115.908 63.7527C116.107 63.7889 116.414 63.8611 116.612 63.7889C116.757 63.7347 116.829 63.6444 116.847 63.4999C117.046 62.5787 115.944 60.4473 115.474 59.6886C113.271 56.2387 109.568 55.2633 105.811 54.4324L105.793 54.3963Z" fill="white"/>
<path d="M118.238 64.8184C120.08 64.7281 122.374 66.0647 123.783 67.1485C125.951 68.8103 127.161 70.9055 128.407 73.2717C128.696 73.8136 129.184 74.5361 129.256 75.1322C126.312 73.3801 122.591 72.495 120.261 69.876C119.141 68.6116 118.13 66.5524 118.238 64.8184Z" fill="#2F5FAA"/>
<path d="M116.251 64.8726C116.378 64.8545 116.486 64.8365 116.612 64.8726C116.703 64.9087 116.757 64.981 116.775 65.0713C116.902 65.4687 116.576 66.4982 116.414 66.9137C114.77 71.4113 110.327 72.8382 106.371 74.6806L106.046 74.8251L105.956 74.789C106.642 72.5853 108.051 70.183 109.532 68.449C111.23 66.4621 113.632 65.0894 116.251 64.8726Z" fill="#2F5FAA"/>
<path d="M105.486 118.934C106.841 120.776 108.087 122.691 109.423 124.551L120.153 139.58L140.003 167.233C143.164 171.713 146.452 176.138 149.667 180.6C150.841 182.243 152.232 183.833 153.279 185.549H119.25H110.272C109.369 185.549 107.382 185.675 106.624 185.477C107.111 185.007 108.141 184.736 108.791 184.447C111.356 183.345 114.3 182.099 116.233 180.022C117.353 178.811 118.184 177.294 118.527 175.687C118.581 175.434 118.672 175.091 118.653 174.838C118.653 174.747 118.653 174.693 118.563 174.639C118.075 174.332 116.432 174.874 115.89 175.054C112.151 176.283 110.146 179.173 108.286 182.424C107.708 183.417 107.111 184.411 106.588 185.44C106.335 185.639 105.937 185.603 105.612 185.603C105.522 184.447 105.576 183.273 105.576 182.135L105.522 177.312V160.514V133.818C105.522 128.868 105.45 123.919 105.522 118.988L105.486 118.934Z" fill="white"/>
<path d="M107.617 163.314C110.092 164.181 112.548 165.03 114.698 166.601C116.937 168.263 118.274 170.539 118.69 173.284C117.931 173.447 116.937 173.14 116.233 172.905C115.203 172.544 114.174 172.092 113.271 171.442C110.742 169.618 108.972 166.059 107.617 163.296V163.314Z" fill="#2F5FAA"/>
<path d="M131.081 163.223L131.117 163.278C130.683 163.982 130.376 164.795 130.015 165.554C129.401 166.854 128.624 168.155 127.721 169.274C125.788 171.641 123.043 173.086 120.008 173.393C119.972 173.339 119.936 173.302 119.918 173.248C119.756 172.779 120.153 171.749 120.334 171.297C122.248 166.33 126.71 165.174 131.081 163.223Z" fill="#2F5FAA"/>
<path d="M119.864 174.621C120.117 174.621 120.37 174.621 120.623 174.657C123.386 175 125.843 176.572 127.541 178.775C128.082 179.498 131.334 184.772 131.261 185.332C128.082 183.941 123.856 182.081 121.724 179.281C120.912 178.197 119.665 176.03 119.864 174.621Z" fill="#2F5FAA"/>
<path d="M237.849 143.445C238.029 144.384 237.885 145.865 237.885 146.859V154.481L237.957 185.549C236.837 185.531 235.717 185.585 234.615 185.585H228.546C221.249 185.531 213.952 185.531 206.655 185.549L159.312 185.513L159.168 185.477C159.349 185.169 161.173 184.411 161.624 184.176C166.357 181.81 170.981 179.227 175.659 176.788C196.449 165.77 217.185 154.662 237.867 143.427L237.849 143.445Z" fill="white"/>
<path d="M235.898 163.133L236.025 163.187C236.115 163.964 234.056 167.613 233.532 168.371C231.599 171.225 228.781 172.869 225.422 173.519L225.295 173.375C225.205 172.544 225.639 171.297 225.946 170.521C227.553 166.439 232.177 164.723 235.898 163.115V163.133Z" fill="#2F5FAA"/>
<path d="M212.218 162.7C212.922 162.934 213.627 163.458 214.295 163.783C216.21 164.723 218.215 165.409 219.967 166.691C220.093 166.8 220.238 166.89 220.364 166.999C220.49 167.107 220.617 167.215 220.743 167.324C220.87 167.432 220.996 167.558 221.105 167.667C221.231 167.793 221.339 167.902 221.448 168.028C221.556 168.155 221.665 168.281 221.773 168.407C221.881 168.534 221.99 168.678 222.08 168.805C222.188 168.931 222.279 169.076 222.369 169.22C222.459 169.365 222.55 169.509 222.64 169.654C222.73 169.798 222.802 169.943 222.893 170.087C222.965 170.232 223.055 170.394 223.128 170.539C223.2 170.683 223.272 170.846 223.326 171.008C223.399 171.171 223.453 171.316 223.507 171.478C223.561 171.641 223.615 171.803 223.669 171.948C223.724 172.11 223.76 172.273 223.796 172.435C223.832 172.598 223.868 172.761 223.904 172.923C223.94 173.086 223.958 173.248 223.995 173.411C222.983 173.501 221.665 172.977 220.761 172.58C217.257 171.063 215.433 168.769 213.645 165.517C213.139 164.596 212.597 163.657 212.218 162.682V162.7Z" fill="#2F5FAA"/>
<path d="M223.435 174.422C223.435 174.422 223.507 174.422 223.543 174.422C223.742 174.422 223.76 174.458 223.886 174.603C224.031 175.289 223.651 176.229 223.399 176.879C221.665 181.376 217.004 183.038 212.958 184.826L212.507 185.097C212.507 184.321 215.144 179.913 215.722 179.137C217.6 176.608 220.31 174.892 223.435 174.422Z" fill="#2F5FAA"/>
<path d="M225.331 174.314C226.036 174.44 226.722 174.603 227.391 174.838C232.773 176.608 234.598 180.744 236.964 185.368C236.187 185.043 235.428 184.61 234.67 184.248C232.069 183.002 229.143 181.792 227.282 179.516C226.198 178.179 225.169 176.066 225.331 174.314Z" fill="#2F5FAA"/>
<path d="M207.269 47.3699H237.144L237.506 47.4964C236.928 49.3929 236.422 51.3618 235.753 53.2403C235.627 53.6377 235.483 54.0531 235.41 54.4685C235.212 55.462 234.868 56.4374 234.579 57.4127C234.182 58.7494 233.767 60.1041 233.351 61.4226C233.496 61.5852 233.658 61.7478 233.658 61.9645C233.64 62.8135 232.737 66.2995 232.358 67.0762C231.726 67.4014 231.093 67.7265 230.443 68.0335C231.4 70.6346 231.924 72.2241 232.195 75.0418C232.43 75.2405 232.611 75.4031 232.755 75.674C232.972 77.6609 233.333 80.7135 231.996 82.3572C231.202 83.3145 229.991 84.0189 228.962 84.7053C229.811 85.6085 230.696 86.4935 231.581 87.3605C231.942 87.7398 232.358 88.1011 232.701 88.5165C232.087 88.372 229.504 85.3736 228.763 84.8137C227.625 85.5001 226.469 86.1142 225.277 86.7103C225.837 87.4147 229.395 91.0453 229.432 91.3704C229.088 91.0634 228.763 90.7382 228.42 90.4131C227.354 90.7744 223.579 92.1832 222.839 92.689L223.29 93.1586C222.857 93.1044 220.274 90.395 219.75 89.8893C219.316 90.1422 218.901 90.4131 218.486 90.684C219.118 91.3162 219.822 91.8762 220.454 92.5084L220.418 92.5806C219.714 92.0026 219.027 91.4066 218.377 90.7924C217.908 91.1356 217.239 91.5149 216.878 91.9846L216.932 92.1832C216.932 92.1832 216.86 92.1832 216.824 92.1652C216.806 92.1652 216.734 92.0929 216.715 92.0568C216.372 92.1652 216.047 92.4722 215.758 92.6709C216.156 93.4838 216.607 94.0979 217.203 94.7662L217.149 94.8384C216.86 94.6036 216.589 94.2424 216.354 93.9714L216.282 93.8811L216.228 94.0618C216.029 93.6102 215.812 93.1947 215.559 92.7793C214.981 93.2128 214.367 93.6102 213.825 94.0979C213.753 94.423 213.627 95.29 213.392 95.4887C213.446 95.0733 213.518 94.6759 213.627 94.2604C212.344 95.3623 210.972 96.3738 209.635 97.4033C208.063 98.6135 206.528 99.8599 204.903 100.998C203.747 101.793 202.518 102.533 201.326 103.256C200.08 104.014 198.761 104.791 197.443 105.387C196.521 105.965 195.438 106.362 194.444 106.796C188.845 109.198 181.584 110.752 175.551 109.307C175.497 109.307 175.461 109.289 175.406 109.27C175.153 109.126 174.81 109.072 174.539 108.981C173.618 108.656 172.444 108.331 171.577 107.88C171.27 107.735 170.963 107.609 170.692 107.41C168.813 106.579 166.068 104.339 165.201 102.443C165.147 102.352 165.111 102.262 165.056 102.172C164.334 100.655 164.208 98.74 164.767 97.1685C165.165 96.5363 165.327 95.7777 165.761 95.1455C166.267 94.423 166.971 93.9173 167.531 93.2489C168.073 92.6167 168.416 91.7497 168.85 91.0272C170.457 89.1668 173.654 87.3063 175.768 85.8433C176.165 85.5723 176.544 85.2833 176.906 84.9763C177.791 84.2899 178.676 83.6035 179.597 82.9713C180.121 82.6823 180.626 82.303 181.06 81.9056C181.457 81.5624 181.331 80.569 181.945 80.0271C182.397 79.6117 182.83 79.7742 183.39 79.7923C183.769 79.7923 183.914 79.6297 184.167 79.3769C184.636 78.9795 185.196 78.6182 185.594 78.1486C186.352 77.5345 187.165 77.0287 187.87 76.3423C187.87 76.0895 187.833 75.7824 187.924 75.5476C187.924 75.5115 187.96 75.4573 187.978 75.4212C187.129 74.6625 184.618 74.4638 183.444 73.9761C183.137 73.8497 182.794 73.6871 182.649 73.362C182.667 73.2717 182.649 73.2536 182.722 73.1633C183.011 72.6034 187.779 70.5623 188.646 70.2552C188.971 70.183 189.278 70.0385 189.585 69.9301C190.398 69.6231 191.229 69.3882 192.042 69.1173C192.512 68.9909 193.198 68.9186 193.613 68.6657C193.541 68.0877 192.367 67.4014 191.97 66.9498C191.753 66.6969 191.536 66.3537 191.41 66.0467C191.338 65.8841 191.283 65.7757 191.356 65.5951C191.5 65.5951 193.035 66.2273 193.415 66.3357C194.119 66.4982 194.86 66.5344 195.564 66.6066C196.214 66.6789 196.847 66.8234 197.479 66.9679C197.75 66.5885 198.075 66.2273 198.382 65.866C198.075 64.8545 197.84 63.9153 198.147 62.8676C198.328 62.2355 198.671 61.6575 199.014 61.0975C200.333 59.0022 202.103 57.7017 204.27 56.5638C204.072 56.3109 203.927 56.058 203.765 55.7871C204.072 55.3897 204.288 55.0104 204.469 54.5588C203.891 54.902 203.512 55.2633 203.096 55.7871L202.789 55.3355L203.494 54.7214C203.891 54.6853 204.162 54.4685 204.487 54.2518C204.65 53.9808 204.776 53.7099 204.903 53.4209C205.643 51.416 206.51 49.4471 207.269 47.4422V47.3699Z" fill="#060809"/>
<path d="M212.398 69.4244C212.543 69.5147 212.615 69.5869 212.778 69.6231C212.778 70.1649 212.651 70.6888 212.489 71.1945C212.489 70.5984 212.453 70.0024 212.416 69.4063L212.398 69.4244Z" fill="#3C3836"/>
<path d="M173.438 87.8663C173.835 87.5954 174.485 86.9632 174.919 86.8729L174.738 87.1438C174.539 87.3786 174.341 87.6134 174.178 87.8663C173.925 87.8663 173.672 87.8663 173.438 87.8663Z" fill="#2F5FAA"/>
<path d="M205.3 79.124C205.589 79.1601 205.769 79.2323 206.022 79.3768L206.058 79.4491C206.058 79.4491 205.95 79.5033 205.896 79.5033C205.824 79.6117 205.787 79.72 205.751 79.8465C205.824 80.0813 205.878 80.3161 205.914 80.5509C205.607 80.0813 205.462 79.6478 205.318 79.124H205.3Z" fill="#3C3836"/>
<path d="M206.203 79.3588C206.402 79.7381 206.6 80.1174 206.763 80.5148C206.564 80.587 206.384 80.7135 206.185 80.6412C206.185 80.4967 206.185 80.3703 206.185 80.2258C206.185 80.0632 206.149 79.9187 206.113 79.7561L206.185 79.3588H206.203Z" fill="#3C3836"/>
<path d="M187.4 78.7808C187.219 78.7266 187.075 78.7266 186.966 78.5641C187.093 78.2931 187.382 78.2209 187.653 78.1125L187.833 78.1847C187.942 78.3834 187.924 78.3654 187.888 78.5821C187.725 78.7447 187.725 78.7808 187.49 78.7808C187.472 78.7808 187.436 78.7808 187.418 78.7808H187.4Z" fill="#2F5FAA"/>
<path d="M198.49 66.1912C198.653 66.3899 198.887 66.9317 198.887 67.1846C198.887 67.3291 198.906 67.2749 198.815 67.3833L198.562 67.311C198.291 67.2027 198.02 67.0762 197.731 66.9679L198.472 66.1912H198.49Z" fill="#2F5FAA"/>
<path d="M190.181 75.4031C190.705 75.385 191.229 75.367 191.753 75.2767C190.886 75.8186 190.055 76.3785 189.242 76.9746L189.17 76.9384C189.387 76.7036 189.64 76.4869 189.874 76.2521C189.965 76.1979 190.055 76.1256 190.145 76.0534C190.326 75.9269 190.362 75.8547 190.398 75.656L190.181 75.4031Z" fill="#C8C7C0"/>
<path d="M193.632 74.6625C193.939 74.7528 194.318 75.3489 194.535 75.6199L193.559 75.4754C193.198 75.4212 192.837 75.3489 192.476 75.2947C192.855 75.0599 193.252 74.8612 193.65 74.6806L193.632 74.6625Z" fill="white"/>
<path d="M183.552 80.4606C183.191 80.6773 182.794 81.0025 182.396 81.165C182.216 81.2373 182.125 81.2373 181.945 81.165L181.891 81.0025C181.945 80.6593 182.107 80.3703 182.378 80.1355C182.541 80.009 182.703 79.9548 182.902 79.991C182.938 79.991 182.974 79.991 183.011 80.009C183.047 80.009 183.083 80.0452 183.119 80.0632C183.155 80.0813 183.173 80.0993 183.209 80.1355C183.245 80.1535 183.263 80.1897 183.281 80.2258C183.3 80.2619 183.318 80.28 183.354 80.3161L183.552 80.4606Z" fill="white"/>
<path d="M188.212 76.5952C188.79 76.1617 189.477 75.5656 190.181 75.4031L190.398 75.656C190.362 75.8727 190.326 75.9269 190.145 76.0533C190.055 76.1256 189.964 76.1798 189.874 76.252C189.531 76.3062 189.368 76.5771 189.061 76.6855C188.79 76.6494 188.501 76.6313 188.23 76.5952H188.212Z" fill="#4978BB"/>
<path d="M202.916 73.2897C203.114 73.4162 203.241 73.5787 203.385 73.7594C203.656 74.1206 204.83 75.7824 204.866 76.1617C204.866 76.2339 204.848 76.3062 204.83 76.3784C204.722 76.4326 204.631 76.4687 204.505 76.5049C204.017 75.8546 203.259 74.0845 202.916 73.2897Z" fill="#2F5FAA"/>
<path d="M200.784 72.6034L200.838 72.6756C200.874 73.5607 201.073 74.4458 201.236 75.3128L200.802 74.789L199.718 73.5788C200.098 73.2717 200.423 72.9285 200.766 72.5853L200.784 72.6034Z" fill="white"/>
<path d="M210.682 79.2324C210.682 79.2324 210.719 79.2504 210.737 79.2685C211.116 79.6117 211.224 80.6412 211.206 81.147C211.206 81.3457 211.206 81.5082 211.044 81.6527C210.845 81.6527 210.845 81.5986 210.719 81.436C210.393 80.8941 210.068 80.3703 209.779 79.8104C210.086 79.6478 210.375 79.4491 210.682 79.2324Z" fill="white"/>
<path d="M205.119 78.3112C204.956 77.8054 204.722 77.2455 204.686 76.7217L204.812 76.5952C204.993 76.5952 205.065 76.6313 205.191 76.7758C205.643 77.3177 206.094 78.6544 206.203 79.3407L206.131 79.7381C206.076 79.6117 206.004 79.5755 205.914 79.4852C205.968 79.4852 206.022 79.4491 206.076 79.431L206.04 79.3588C205.787 79.2143 205.607 79.142 205.318 79.1059C205.318 78.835 205.209 78.564 205.137 78.3112H205.119Z" fill="#4978BB"/>
<path d="M205.119 78.3112C205.264 78.3473 205.39 78.3473 205.48 78.4918C205.607 78.7085 205.607 78.835 205.535 79.0698L205.3 79.1059C205.3 78.835 205.191 78.564 205.119 78.3112Z" fill="#2F5FAA"/>
<path d="M199.249 61.4407C199.953 59.9234 202.573 57.6475 204.126 57.1418C204.162 57.1418 204.198 57.1237 204.234 57.1057C203.042 58.2978 201.669 59.3635 200.405 60.5014C200.08 60.7904 199.664 61.0794 199.375 61.4046L199.249 61.4587V61.4407Z" fill="#2F5FAA"/>
<path d="M203.403 62.3257C203.403 62.3257 203.403 62.3257 203.421 62.3438L203.494 62.5064C203.53 63.1927 201.651 66.5163 201.344 67.5278C201.344 67.5458 201.344 67.582 201.326 67.6H201.236L200.911 66.733C201.705 65.3241 202.446 63.5901 203.403 62.3077V62.3257Z" fill="#4978BB"/>
<path d="M188.213 76.5952C188.484 76.6133 188.773 76.6494 189.044 76.6855C187.924 77.4261 186.804 78.1847 185.702 78.9614C185.106 79.3769 184.51 79.8826 183.86 80.2258C183.733 80.28 183.643 80.3703 183.535 80.4425L183.336 80.298C183.336 80.298 183.517 80.298 183.589 80.2619C183.697 80.2258 184.835 79.0879 185.052 78.9072C186.045 78.0944 187.147 77.3358 188.195 76.5952H188.213Z" fill="url(#paint0_linear_55_2)"/>
<path d="M195.076 70.4358C195.456 70.5442 195.889 70.8332 196.25 71.0319C194.95 71.628 193.704 72.3685 192.457 73.0369C192.078 73.2356 191.663 73.3981 191.247 73.5426C191.933 73.0369 192.638 72.513 193.288 71.9531C193.884 71.4474 194.444 70.8874 195.094 70.4178L195.076 70.4358Z" fill="#4978BB"/>
<path d="M207.738 75.7101C208.298 76.0172 208.84 76.541 209.292 77.0107C209.689 77.4261 210.556 78.3473 210.556 78.9433L210.339 79.124C210.141 79.2685 209.924 79.3949 209.707 79.5214C209.075 78.2208 208.497 76.9384 207.738 75.7101Z" fill="#2F5FAA"/>
<path d="M188.159 78.8711C188.141 78.5099 187.996 78.1667 188.032 77.8054C188.104 77.6429 188.159 77.5887 188.303 77.5164C188.592 77.3358 188.881 77.1371 189.152 76.9384L189.224 76.9745C189.351 77.5706 190.2 78.7989 190.489 79.4852C189.694 79.2866 188.917 79.1782 188.159 78.8711Z" fill="white"/>
<path d="M193.433 83.3506C194.498 83.6396 196.034 84.037 196.901 84.7053C197.081 84.8318 197.208 85.0485 197.316 85.2292L196.792 85.482C196.485 85.6627 196.196 85.8794 195.907 86.0781C195.04 85.2111 194.263 84.2357 193.415 83.3326L193.433 83.3506Z" fill="#4978BB"/>
<path d="M201.759 81.3638C202.084 81.6889 202.301 82.2488 202.518 82.6462C201.886 83.3868 201.29 84.0732 200.513 84.6512C200.242 84.2357 199.971 83.8383 199.7 83.441C200.477 82.8991 201.145 82.0863 201.759 81.3638Z" fill="#4978BB"/>
<path d="M173.347 88.8778C176.797 89.0946 180.933 91.5149 183.354 93.9534C185.81 96.446 187.002 98.9748 186.966 102.479C186.966 102.804 186.966 102.985 186.732 103.22L186.605 103.165C186.406 102.75 186.804 101.413 186.75 100.835C186.677 99.9321 186.388 98.9748 186.027 98.1439C184.311 94.0437 180.103 91.1537 176.075 89.6003C175.208 89.2752 174.232 89.2571 173.401 88.8959C173.383 88.8959 173.365 88.8959 173.347 88.8778Z" fill="#E5A573"/>
<path d="M197.407 85.5181C197.677 85.7168 197.912 86.2948 198.093 86.6199C197.118 87.3063 196.07 87.8843 195.04 88.4804L194.155 87.6856C195.257 86.9993 196.323 86.2587 197.407 85.5181Z" fill="#4978BB"/>
<path d="M202.41 81.4721C202.771 81.8334 203.222 82.1946 203.764 82.1765C204.144 82.1765 204.487 81.9598 204.722 81.6708C205.137 81.147 205.191 80.6232 205.245 79.991C205.534 80.858 205.86 81.9598 205.444 82.8268C205.245 83.2242 204.902 83.477 204.487 83.6035C204.397 83.6215 204.306 83.6577 204.216 83.6757C203.204 83.2603 202.861 82.7907 202.446 81.7972C202.41 81.725 202.392 81.6527 202.337 81.5624L202.41 81.4902V81.4721Z" fill="white"/>
<path d="M202.392 69.2618C202.645 69.2618 202.934 69.2979 203.169 69.4063C203.53 69.5688 203.819 69.8759 203.945 70.2552C204.054 70.6165 204.017 70.9777 203.837 71.3029C203.602 71.7183 203.259 71.917 202.825 72.0434C202.067 72.0434 201.669 71.8447 201.127 71.3209C201.2 71.0139 201.254 70.6887 201.344 70.3997C201.525 69.8578 201.868 69.5147 202.392 69.2618Z" fill="white"/>
<path d="M197.154 79.4491C198.581 80.0813 200.116 80.4967 201.543 81.1289C201.254 81.5263 200.947 81.8875 200.622 82.2488L199.592 83.2784C198.834 81.9417 198.129 80.6593 197.154 79.4672V79.4491Z" fill="#2F5FAA"/>
<path d="M184.293 80.3703C184.419 80.3703 184.564 80.3703 184.69 80.3703C185.214 80.4606 185.756 80.7857 186.262 80.9664C186.966 81.2012 187.779 81.3276 188.429 81.6527C189.35 82.1224 191.337 84.8137 191.988 85.8071C191.265 85.482 189.314 83.8383 188.52 83.2784C187.309 82.4294 185.268 81.2915 184.293 80.3522V80.3703Z" fill="#2F5FAA"/>
<path d="M196.63 73.9039C196.63 73.9039 196.666 73.9039 196.684 73.9039C197.443 74.229 198.743 76.3604 199.267 77.1009C198.671 76.9023 198.075 76.6674 197.497 76.4326C195.799 75.7824 195.149 76.1075 193.884 74.5902C194.787 74.3374 195.709 74.1026 196.63 73.8858V73.9039Z" fill="#2F5FAA"/>
<path d="M191.5 88.9681C191.771 89.1848 192.06 89.4377 192.349 89.6183C190.091 90.8827 188.357 94.1882 187.273 96.446L186.858 95.7957C187.815 93.1586 189.369 90.8105 191.5 88.9681Z" fill="#4978BB"/>
<path d="M198.581 73.2537C198.689 73.2537 198.743 73.2717 198.834 73.344C199.43 73.7955 201.236 75.7282 201.489 76.3785C201.688 76.9023 201.706 77.5887 201.76 78.1667L200.73 77.7874C200.459 77.679 200.188 77.5706 199.935 77.4803C198.96 76.2521 198.183 74.8793 197.118 73.7233C197.605 73.5427 198.093 73.4162 198.581 73.2717V73.2537Z" fill="white"/>
<path d="M192.042 66.2273C192.566 66.3718 193.072 66.6066 193.613 66.7511C194.191 66.8956 194.842 66.9137 195.438 66.9679C197.461 67.1666 199.357 67.7807 200.676 69.4063C200.586 69.4063 200.568 69.4063 200.459 69.4063C199.845 69.3341 199.231 69.0812 198.599 68.9909C195.709 68.5574 193.993 68.6296 192.024 66.2454L192.042 66.2273Z" fill="white"/>
<path d="M190.561 76.5049C190.561 76.5049 190.597 76.5049 190.615 76.5049C193.09 77.3538 193.776 78.8891 194.914 81.0205L194.354 80.7857C193.216 80.28 192.078 79.9187 190.886 79.5755C190.434 78.7446 190.145 77.9499 189.549 77.1913C189.874 76.9384 190.218 76.7216 190.561 76.4868V76.5049Z" fill="#2F5FAA"/>
<path d="M203.728 57.8462C203.746 58.8036 203.114 59.6525 202.988 60.5556C202.879 61.242 203.186 61.6575 203.584 62.1813V62.2535C203.439 62.2535 203.24 62.2535 203.15 62.3258C202.608 62.8315 201.254 66.1009 200.838 66.3357L200.748 66.1731C200.206 64.5836 200.098 62.976 199.682 61.3685C201.091 60.2847 202.41 59.0023 203.746 57.8282L203.728 57.8462Z" fill="#4978BB"/>
<path d="M200.423 71.2126C200.423 71.2126 200.604 71.2126 200.694 71.2126C200.766 71.339 200.766 71.3751 200.784 71.5196C200.712 71.6822 200.622 71.7725 200.495 71.8628C198.996 72.9285 196.377 73.4523 194.589 73.9942C193.577 74.3013 192.602 74.7167 191.536 74.8793C190.38 75.0599 189.224 75.078 188.068 74.8793C187.888 74.8431 187.707 74.8251 187.581 74.7167C190.001 74.6083 192.385 73.4704 194.499 72.3686C195.203 72.0073 195.98 71.5016 196.756 71.3209C197.714 71.0861 199.357 71.2848 200.441 71.2126H200.423Z" fill="white"/>
<path d="M199.375 61.3865C199.52 61.7297 199.556 63.6262 199.718 64.3126C200.116 66.0466 200.875 67.7445 201.507 69.4063C201.218 69.8578 201.019 70.2913 200.838 70.779C199.718 70.9235 198.544 70.9235 197.425 70.779C195.835 70.5442 194.805 69.6953 193.884 68.449C196.214 69.0811 198.436 69.2076 200.784 69.8578C200.929 69.6772 201.055 69.4605 201.182 69.2618C201.182 69.2437 201.145 69.2256 201.127 69.2076C201.091 69.1715 201.073 69.1534 201.037 69.1173C200.586 68.6296 199.989 68.2864 199.484 67.8709C199.267 67.0401 198.978 66.2273 198.743 65.4144C198.31 63.8791 198.472 62.8315 199.249 61.4587L199.375 61.4045V61.3865Z" fill="white"/>
<path d="M201.218 71.9893C201.561 72.1699 201.904 72.3144 202.247 72.4408C202.753 74.3374 203.981 75.9992 204.614 77.8596C205.011 79.0517 205.083 80.1355 204.523 81.2915C204.306 81.5624 203.981 81.8334 203.62 81.8695C203.439 81.8695 203.277 81.7972 203.132 81.6708C202.753 81.3096 202.518 80.6593 202.392 80.1536C202.103 78.9614 202.175 77.6429 201.994 76.4146C201.778 74.8973 201.308 73.5968 201.2 71.9893H201.218Z" fill="white"/>
<path d="M173.004 88.083C173.13 88.083 173.257 88.0649 173.383 88.0649C177.646 88.1733 181.945 90.8466 184.817 93.8811C187.4 96.6266 188.267 99.0831 188.158 102.786C187.869 102.858 187.562 102.894 187.273 102.93C187.183 102.804 187.201 100.582 187.165 100.185C186.749 96.9879 184.148 93.9895 181.656 92.0929C179.163 90.1963 175.406 88.2817 172.173 88.6971C172.444 88.4804 172.733 88.2817 173.004 88.083Z" fill="white"/>
<path d="M228.095 68.9186H228.185C228.167 69.1173 228.059 69.2437 227.95 69.3882C225.421 72.9104 222.315 75.8366 217.853 76.5591C215.505 76.9384 212.597 76.3423 210.664 74.9515L209.653 74.2832C212.001 75.0418 214.277 75.8907 216.806 75.674C219.587 75.4392 222.531 73.6149 224.554 71.7544C225.349 71.0138 226.054 70.183 226.758 69.3521C227.21 69.1895 227.661 69.0631 228.113 68.9366L228.095 68.9186Z" fill="white"/>
<path d="M225.06 86.7645C226.072 88.0288 227.3 89.2029 228.42 90.377C227.354 90.7382 223.579 92.1471 222.839 92.6529C221.809 91.8581 220.888 90.6841 220.003 89.7267C221.629 88.661 223.381 87.7398 225.06 86.7825V86.7645Z" fill="#C8C7C0"/>
<path d="M193.704 69.045C193.902 69.0992 194.733 70.0204 194.986 70.2191C193.686 71.0861 192.638 72.2963 191.301 73.1272C189.26 74.4096 187.201 74.4277 184.907 73.8858C184.275 73.7233 183.679 73.4704 183.047 73.3259C183.842 72.8021 184.799 72.4408 185.666 72.0615C187.183 71.3932 188.7 70.6887 190.272 70.1107C191.41 69.7134 192.584 69.4424 193.704 69.045Z" fill="white"/>
<path d="M186.623 78.8169C188.032 79.4671 189.622 79.6116 191.103 80.009C192.53 80.3883 193.866 80.9483 195.221 81.5263C195.745 82.321 196.16 83.2422 196.612 84.0912C195.167 83.477 193.649 83.0616 192.204 82.4475C192.764 83.2061 193.415 83.8925 194.047 84.615C194.516 85.1207 194.968 85.6626 195.438 86.1864C194.842 86.4935 194.246 86.8006 193.686 87.1618C192.331 85.9697 189.911 82.032 188.664 81.3818C187.49 80.7677 186.027 80.5148 184.745 80.1174L186.623 78.835V78.8169Z" fill="white"/>
<path d="M183.787 80.6412C184.528 80.7677 191.301 85.753 192.295 86.5477C193.18 87.2521 193.993 88.0469 194.842 88.7875C195.347 89.239 196.052 89.7087 196.467 90.2505C196.612 90.4312 196.684 90.666 196.702 90.8827C196.72 91.1356 196.648 91.533 196.431 91.7136C196.142 91.9484 195.763 91.8942 195.438 91.84C194.227 91.1175 192.8 89.51 191.608 88.5888C189.025 86.5838 186.172 84.904 183.661 82.7907C183.173 82.3933 182.631 81.9779 182.216 81.5082V81.4179C182.866 81.3637 183.282 81.0025 183.805 80.6593L183.787 80.6412Z" fill="white"/>
<path d="M229.991 68.5212C230.1 68.6116 230.118 68.6657 230.172 68.7741C231.021 70.5081 232.195 74.6625 231.526 76.4327C231.111 77.5525 229.576 78.6724 228.655 79.3407C224.879 82.1043 220.544 84.0912 216.661 86.7283C214.764 88.0288 212.886 89.3113 211.062 90.7202C209.129 92.2374 207.268 93.845 205.318 95.3442C202.355 97.6201 199.014 99.7334 195.582 101.251C193.649 102.118 191.626 102.768 189.567 103.31C183.859 104.827 178.025 105.224 172.426 103.057C170.023 102.136 167.206 100.6 166.14 98.1258C165.724 97.1505 165.634 96.2293 166.032 95.2539C166.357 94.712 166.79 94.3327 167.26 93.9173C166.88 94.9468 166.483 95.9945 166.61 97.1143C166.754 98.5052 167.693 99.6431 168.741 100.492C172.733 103.743 178.585 104.556 183.588 104.014C188.267 103.508 193.252 101.919 197.442 99.8057C204.216 96.3918 209.183 91.2079 215.415 87.0535C216.661 86.2226 217.943 85.3917 219.226 84.615C221.321 83.3506 229.359 78.835 230.461 77.4622C230.533 76.2882 230.678 75.1141 230.696 73.94C230.714 72.0796 230.389 70.3456 229.973 68.5393L229.991 68.5212Z" fill="white"/>
<path d="M192.168 75.5837C194.751 75.9089 196.305 76.4146 198.689 77.2816C199.736 77.6609 200.802 78.0402 201.832 78.4918C201.922 79.5394 202.03 80.4787 202.41 81.4721L202.337 81.5444C202.193 81.3457 202.03 81.1651 201.832 81.0025C201.055 80.4606 200.043 80.1355 199.176 79.7743C198.039 79.3046 196.883 78.835 195.727 78.3834C197.37 80.0994 198.057 81.4541 199.285 83.4048C199.736 84.1273 200.26 84.8137 200.694 85.5543C200.947 85.9878 201.109 86.4935 200.965 86.9812C200.892 87.2341 200.748 87.4509 200.495 87.5592C199.971 87.8121 199.321 87.5412 198.942 87.1619C198.165 86.4032 197.713 85.2653 197.208 84.308C196.431 82.8268 194.155 78.5279 193.089 77.4803C192.493 76.8842 191.662 76.5952 190.886 76.2882C191.301 76.0353 191.735 75.8005 192.168 75.5657V75.5837Z" fill="white"/>
<path d="M204.252 71.2848C206.149 72.0434 210.086 74.4457 211.405 76.0533C212.398 77.2816 213.193 78.9072 213.012 80.5148C212.922 81.3818 212.543 82.1946 211.838 82.7365C211.242 83.188 210.393 83.4951 209.635 83.3867C207.449 83.0435 206.727 79.0698 205.914 77.3358C205.589 76.6674 205.246 76.0352 204.848 75.4031C204.469 74.7709 204.053 74.1748 203.602 73.5968C203.277 73.1814 202.897 72.8201 202.518 72.4408C202.988 72.3866 203.331 72.2963 203.728 72.0253C204.451 72.8924 205.372 73.6149 206.167 74.4277C207.666 75.9811 208.298 77.3719 209.255 79.2504C209.544 79.8465 210.429 81.7972 210.989 82.032C211.17 82.1043 211.206 82.0862 211.387 82.014C211.712 81.5805 211.694 80.9302 211.622 80.4064C211.513 79.6658 211.242 78.8891 210.845 78.2569C209.779 76.5771 205.661 73.1633 203.927 71.8267L204.252 71.2487V71.2848Z" fill="white"/>
<path d="M213.121 68.9728C217.546 70.5803 221.412 70.779 225.981 69.5688C225.042 70.6165 224.085 71.5377 222.983 72.4047C222.369 72.8382 221.737 73.2897 221.068 73.6691C218.016 75.4392 215.469 75.5295 212.127 74.6444C212.326 73.9219 212.398 73.1814 212.543 72.4589C212.76 71.3029 213.031 70.1649 213.139 68.9908L213.121 68.9728Z" fill="white"/>
<path d="M203.747 62.398C204.234 63.0121 204.83 63.554 205.408 64.0778C207.702 66.1731 209.978 67.4736 212.742 68.8283L212.778 69.605C212.615 69.5508 212.543 69.4966 212.399 69.4063L212.507 69.2799C212.489 69.0992 212.471 69.027 212.362 68.8825H212.254C212.055 69.2257 212.2 70.183 212.2 70.6165C212.2 71.9351 211.965 73.2536 211.766 74.5541C211.026 74.3554 210.267 74.1748 209.581 73.8316C209.003 73.5426 208.461 73.1633 207.919 72.8021C206.799 72.0796 205.589 71.3571 204.325 70.9055C204.325 70.3094 204.252 69.7856 203.801 69.3521C203.367 68.9367 202.717 68.8283 202.157 68.8644C202.049 68.8644 201.958 68.8644 201.85 68.9005C201.687 68.5754 201.507 68.2322 201.344 67.889C201.904 67.022 203.512 63.3553 203.747 62.3619V62.398Z" fill="#4978BB"/>
<path d="M174.756 87.1438C177.285 85.5001 179.759 83.7299 182.252 82.032C183.281 82.8268 184.239 83.7119 185.286 84.4886C187.273 85.9516 189.368 87.3063 191.319 88.8236C189.296 90.5034 187.544 93.0502 186.641 95.5248C183.932 91.822 179.976 88.7152 175.352 87.9927C174.972 87.9385 174.575 87.9024 174.196 87.8663C174.358 87.6134 174.557 87.3786 174.756 87.1438Z" fill="#4978BB"/>
<path d="M204.523 56.9973C204.812 57.2683 205.083 57.6476 205.354 57.9366C205.896 58.5507 206.474 59.1106 207.106 59.6345C210.43 62.398 215.541 64.1682 219.786 64.7462C223.814 65.288 229.865 64.8184 233.17 62.3077C232.755 63.7889 232.629 65.4506 232.032 66.8414C231.852 66.9859 231.671 67.0943 231.491 67.2207C231.256 67.3472 231.039 67.4736 230.804 67.582C227.806 69.0089 223.507 70.2553 220.165 70.1469C218.088 70.0927 216.029 69.5869 214.06 68.9186C210.863 67.8168 208.19 66.0286 205.661 63.7889C204.704 62.9399 203.728 62.0368 203.168 60.8808C203.566 59.5803 203.891 58.2075 204.523 56.9973Z" fill="#3C3836"/>
<path d="M203.891 61.2601C204.614 61.7658 205.426 62.7954 206.131 63.4095C208.064 65.0893 210.556 66.5524 212.94 67.5097C213.103 67.582 213.266 67.6362 213.428 67.6904C213.591 67.7445 213.753 67.8168 213.916 67.871C214.078 67.9252 214.241 67.9794 214.404 68.0335C214.566 68.0877 214.729 68.1419 214.891 68.178C215.054 68.2322 215.216 68.2684 215.379 68.3225C215.541 68.3587 215.704 68.4129 215.885 68.449C216.047 68.4851 216.21 68.5212 216.39 68.5574C216.553 68.5935 216.734 68.6296 216.896 68.6657C217.059 68.7019 217.239 68.7199 217.402 68.756C217.564 68.7922 217.745 68.8102 217.908 68.8283C218.07 68.8464 218.251 68.8644 218.413 68.9006C218.576 68.9186 218.757 68.9367 218.919 68.9547C219.082 68.9547 219.262 68.9909 219.425 68.9909C219.588 68.9909 219.768 69.0089 219.931 69.0089C220.093 69.0089 220.274 69.0089 220.436 69.0089C220.599 69.0089 220.78 69.0089 220.942 69.0089C221.105 69.0089 221.285 69.0089 221.448 69.0089C221.611 69.0089 221.791 69.0089 221.954 68.9909C222.116 68.9909 222.297 68.9728 222.459 68.9547C222.622 68.9547 222.803 68.9186 222.965 68.9006C223.128 68.8825 223.308 68.8644 223.471 68.8464C223.634 68.8283 223.814 68.7922 223.977 68.7741C224.139 68.738 224.32 68.7199 224.482 68.6838C224.645 68.6477 224.826 68.6115 224.988 68.5754C225.151 68.5393 225.331 68.5032 225.494 68.467C225.657 68.4309 225.819 68.3767 226 68.3406C226.162 68.3045 226.325 68.2503 226.487 68.1961C226.65 68.1419 226.813 68.1058 226.975 68.0516C227.138 67.9974 227.3 67.9432 227.463 67.889C227.625 67.8349 227.788 67.7807 227.95 67.7084C228.113 67.6542 228.276 67.582 228.438 67.5278C228.601 67.4555 228.763 67.4014 228.908 67.3291C229.558 67.0401 231.13 66.5163 231.382 65.8299C231.509 65.5048 231.455 65.1255 231.599 64.8003V64.8726C231.599 65.2158 231.617 65.577 231.563 65.9202C231.491 66.2634 231.238 66.4621 230.967 66.6427C230.154 67.1665 229.125 67.5459 228.221 67.871C224.573 69.1534 220.563 69.7495 216.752 68.9547C212.615 68.1058 208.335 65.848 205.318 62.9038C204.794 62.398 204.234 61.8561 203.837 61.2601H203.891Z" fill="#060809"/>
<path d="M171.938 88.9139C172.426 88.9139 172.95 89.0042 173.438 89.0764C177.7 89.817 182.18 92.4903 184.636 96.0667C186.208 98.3245 186.786 100.546 186.28 103.256C185.54 103.436 184.781 103.563 184.022 103.689C183.264 103.797 182.505 103.888 181.746 103.942C179.994 104.068 178.17 103.942 176.436 103.617C173.636 103.093 169.482 101.702 167.802 99.2276C167.766 99.1554 167.712 99.1012 167.676 99.0289C167.64 98.9567 167.603 98.8844 167.549 98.8302C167.513 98.758 167.477 98.6857 167.441 98.6135C167.405 98.5412 167.369 98.469 167.351 98.3967C167.314 98.3245 167.296 98.2522 167.26 98.18C167.242 98.1077 167.206 98.0355 167.188 97.9632C167.17 97.891 167.152 97.8187 167.134 97.7284C167.116 97.6562 167.098 97.5839 167.08 97.4936C167.08 97.4214 167.043 97.3311 167.043 97.2588C167.043 97.1866 167.025 97.0962 167.025 97.024C167.025 96.9517 167.025 96.8614 167.025 96.7892C167.025 96.7169 167.025 96.6266 167.025 96.5544C167.025 96.4821 167.025 96.3918 167.025 96.3195C167.025 96.2473 167.025 96.157 167.043 96.0847C167.043 96.0125 167.062 95.9222 167.08 95.8499C167.08 95.7777 167.116 95.6874 167.116 95.6151C167.26 94.9107 167.567 94.2423 167.874 93.5921C168.868 91.4968 170.006 90.1963 171.938 88.9139Z" fill="white"/>
<path d="M165.508 96.4641C165.508 97.6201 165.707 98.4871 166.375 99.4444C168.561 102.623 172.986 104.105 176.617 104.755C180.518 105.459 184.203 105.116 188.032 104.249C194.173 102.858 199.141 100.51 204.27 96.8434C207.666 94.4049 210.737 91.533 214.169 89.1487C216.318 87.6495 218.468 86.2045 220.725 84.8679C223.308 83.3506 226 81.9417 228.456 80.2077C230.154 79.0156 231.96 77.6067 232.34 75.4573C232.394 75.8005 232.448 76.1617 232.484 76.5049C232.556 77.0648 232.701 78.1486 232.322 78.6363H232.484C232.683 79.1782 232.304 80.7677 232.051 81.2734C230.913 83.4951 223.561 86.9451 221.123 88.2998C220.184 88.8236 219.28 89.4016 218.377 89.9977C213.591 93.1586 209.31 97.0601 204.614 100.348C202.157 102.082 199.484 103.545 196.793 104.899C196.991 105.008 197.009 104.99 197.226 104.935C198.238 104.646 199.123 103.797 200.116 103.49L200.152 103.563C199.484 103.96 197.804 104.719 197.371 105.261L197.425 105.405C196.504 105.983 195.42 106.38 194.426 106.814C188.827 109.216 181.566 110.77 175.533 109.325C175.479 109.325 175.443 109.307 175.388 109.289C175.135 109.144 174.792 109.09 174.521 109C173.6 108.674 172.426 108.349 171.559 107.898C171.252 107.753 170.945 107.627 170.674 107.428C168.795 106.597 166.05 104.357 165.183 102.461L165.273 102.389C165.346 102.19 165.418 102.1 165.562 101.955C165.165 101.124 164.93 100.275 164.948 99.3541C164.786 98.3426 165.02 97.4033 165.508 96.5183V96.4641Z" fill="white"/>
<path d="M165.562 101.901C167.711 105.423 171.197 107.175 175.027 108.313C175.478 108.422 176.002 108.494 176.418 108.656C177.05 108.747 177.682 108.819 178.314 108.927C179.416 109.018 180.5 109 181.602 109.036C183.317 108.837 184.979 108.711 186.677 108.422C188.501 108.024 190.254 107.518 192.042 106.922C192.602 106.615 193.306 106.399 193.902 106.164C194.878 105.766 195.817 105.297 196.774 104.881C196.973 104.99 196.991 104.972 197.208 104.917C198.219 104.628 199.104 103.779 200.098 103.472L200.134 103.545C199.465 103.942 197.786 104.701 197.352 105.243L197.406 105.387C196.485 105.965 195.401 106.362 194.408 106.796C188.809 109.198 181.547 110.752 175.514 109.307C175.46 109.307 175.424 109.289 175.37 109.27C175.117 109.126 174.774 109.072 174.503 108.981C173.582 108.656 172.408 108.331 171.541 107.88C171.234 107.735 170.927 107.609 170.656 107.41C168.777 106.579 166.032 104.339 165.165 102.443L165.255 102.371C165.327 102.172 165.399 102.082 165.544 101.937L165.562 101.901Z" fill="#2C2C2E"/>
<path d="M181.62 109.036C183.336 108.837 184.998 108.711 186.696 108.422L186.515 108.729C185.016 108.801 183.21 109.361 181.728 109.252C180.663 109.325 179.525 109.307 178.477 109.198C177.809 109.162 177.05 109.036 176.418 108.765V108.674C177.068 108.765 177.7 108.837 178.333 108.945C179.434 109.036 180.518 109.018 181.62 109.054V109.036Z" fill="#060809"/>
<path d="M196.359 103.346C199.646 101.829 203.096 99.607 205.968 97.4034C207.504 96.2293 208.967 94.9649 210.484 93.7728C212.76 91.9846 215.054 90.2325 217.402 88.5527C219.208 87.2522 221.105 86.0239 223.037 84.9221C224.573 84.037 226.162 83.2061 227.679 82.2669C228.998 81.436 230.19 80.4426 231.491 79.5756C231.147 80.1536 231.617 80.9122 231.292 81.3276C231.292 81.1109 231.31 80.9122 231.184 80.7135C231.057 80.7316 231.093 80.7135 231.021 80.8038C230.877 80.9844 230.822 81.3096 230.768 81.5263C230.804 81.5805 230.84 81.6166 230.895 81.6528C230.461 82.2127 229.395 82.7185 228.781 83.0797C227.788 83.6938 226.794 84.326 225.783 84.904C223.886 85.9697 221.917 86.9632 220.075 88.1372C218.359 89.2391 216.733 90.4312 215.072 91.6233C214.223 92.2194 213.356 92.7793 212.543 93.4115C210.809 94.7481 209.147 96.1932 207.413 97.5298C206.311 98.3787 205.191 99.1915 204.035 99.9863C203.367 100.438 202.663 100.853 202.031 101.341C201.38 101.847 197.623 104.105 196.81 104.213L196.883 104.123L196.756 104.014L196.865 104.141L196.919 104.087C197.804 103.274 199.032 102.876 200.062 102.28C202.32 100.962 204.451 99.3902 206.546 97.8188C207.251 97.295 208.027 96.8253 208.678 96.2293C208.678 96.0667 208.678 96.0848 208.587 95.9403C208.407 95.868 208.371 95.8319 208.172 95.9222C207.865 96.0306 206.582 97.2588 206.167 97.5659C204.83 98.5774 197.515 103.671 196.467 103.364C196.431 103.364 196.413 103.346 196.377 103.328L196.359 103.346Z" fill="#C8C7C0"/>
<path d="M211.748 75.945C215.234 77.2274 217.89 77.2636 221.285 75.6921C222.694 75.0419 224.031 74.1929 225.133 73.1092C225.873 72.3867 226.596 71.5738 227.228 70.743C227.734 70.0746 228.203 69.2799 228.836 68.7199C229.07 68.5213 229.45 68.4129 229.739 68.3045C230.01 70.0205 230.353 71.6461 230.407 73.3801C230.407 74.7709 230.353 76.1075 230.136 77.4803C229.125 78.3654 227.878 79.0518 226.74 79.7743C223.417 81.8876 219.985 83.7661 216.679 85.8794C214.801 87.0896 212.958 88.3359 211.188 89.7087C208.678 91.6414 206.275 93.7186 203.692 95.5429C200.893 97.5298 197.316 99.5889 194.137 100.907C192.349 101.648 190.452 102.154 188.61 102.696C188.646 100.456 188.339 98.6316 187.4 96.5905C188.267 94.8746 189.296 92.978 190.507 91.4788C191.049 90.8105 191.952 90.2867 192.367 89.5642C193.18 90.2686 194.95 92.2013 196.034 92.1652C196.323 92.1652 196.576 92.0568 196.756 91.8401C196.991 91.5511 197.154 91.1718 197.118 90.7924C197.027 89.8713 195.817 89.1849 195.239 88.5346C196.233 87.9386 197.334 87.5051 198.201 86.7103C198.617 87.2702 199.123 87.8302 199.863 87.9385C200.224 87.9927 200.586 87.9205 200.857 87.6857C201.146 87.4328 201.29 87.0715 201.308 86.6922C201.344 86.0239 200.983 85.3917 200.586 84.8679C201.38 84.3802 202.121 83.6035 202.681 82.863C203.078 83.3507 203.439 83.8203 204.108 83.9287C204.523 83.9828 204.939 83.8383 205.264 83.5855C205.752 83.17 206.041 82.4475 206.077 81.8334C206.077 81.5805 206.077 81.3276 206.077 81.0748L206.835 80.6954C207.413 81.8515 208.064 83.2603 209.4 83.6758C210.123 83.9106 210.917 83.7661 211.568 83.4048C212.453 82.9171 213.049 82.0682 213.32 81.0928C213.699 79.6298 213.193 78.257 212.453 77.0107C212.236 76.6494 212.001 76.2882 211.748 75.945Z" fill="#4978BB"/>
<path d="M207.81 47.3699H237.144L237.505 47.4964C237.361 47.4964 237.252 47.4964 237.108 47.4964C236.71 48.255 235.934 51.3256 235.663 52.3371C235.031 54.5588 234.326 56.7444 233.64 58.9481C233.315 60.0137 233.062 61.1156 232.701 62.1813L232.339 62.3799C227.408 65.1074 221.195 65.0351 215.884 63.5179C211.513 62.2535 206.654 59.9596 204.378 55.8413C205.571 53.0235 206.727 50.2058 207.828 47.3338L207.81 47.3699Z" fill="#E5A573"/>
<path d="M212.326 47.3699H233.496L233.405 47.4602C232.285 47.5686 231.057 47.4602 229.919 47.4602C226.848 47.4964 223.778 47.4783 220.725 47.4602C219.064 47.4602 217.402 47.4602 215.74 47.4602C214.62 47.4602 213.446 47.5325 212.326 47.3699Z" fill="#C8C7C0"/>
<path d="M211.748 47.4603H212.308C211.911 48.4537 211.658 49.4833 211.297 50.4767C210.484 52.7887 209.563 55.0646 208.515 57.2683C208.443 57.3766 208.425 57.4308 208.298 57.485C208.298 57.0334 210.466 51.3618 210.773 50.4767C211.134 49.4833 211.459 48.4718 211.748 47.4603Z" fill="#060809"/>
<path d="M233.496 47.3699H236.006C235.609 48.9233 235.121 50.4406 234.67 51.9759C234.038 54.1976 233.442 56.4193 232.791 58.6229C232.448 59.7789 232.015 60.9349 231.708 62.109C231.111 62.5064 230.371 62.7773 229.703 63.0302C226.307 64.2223 222.604 64.2765 219.1 63.6263C217.366 63.3011 215.758 62.8135 214.096 62.1632C213.862 62.0729 213.464 61.9645 213.302 61.802L213.338 61.6936H213.211L213.284 61.8381V61.7297C214.223 62.0548 215.162 62.4341 216.119 62.7051C220.256 63.8972 224.573 64.0959 228.763 63.0663C228.998 60.8808 229.901 58.6229 230.57 56.5457C231.527 53.5293 232.466 50.5128 233.351 47.4783L233.442 47.388L233.496 47.3699Z" fill="#060809"/>
<path d="M233.64 47.3699H234.308C232.9 52.4997 231.184 57.5572 229.775 62.7051C229.54 62.8315 229.269 62.9038 229.016 62.976C229.991 59.0022 231.364 55.1188 232.538 51.1992C232.918 49.9348 233.333 48.6524 233.64 47.3699Z" fill="#E5A573"/>
<path d="M234.651 47.3699H235.735L232.827 57.5572C232.394 59.0384 231.906 60.5014 231.545 62.0006C231.057 62.2174 230.533 62.4161 230.027 62.6148C230.389 61.4046 230.804 60.1944 231.183 58.9842L234.669 47.388L234.651 47.3699Z" fill="#3C3836"/>
<path d="M98.8569 47.3699H207.269C206.528 49.3749 205.643 51.3437 204.902 53.3487C201.073 53.2945 197.262 53.3487 193.433 53.3487L165.418 53.3125L104.059 53.2764C103.969 57.6656 104.059 62.0729 104.059 66.4621C103.987 77.8596 103.987 89.239 104.059 100.637V186.705H239.384L239.456 88.932V64.8545C239.402 61.0072 239.42 57.1599 239.456 53.3306C238.698 53.3306 236.386 53.4932 235.771 53.2583C236.44 51.3979 236.946 49.411 237.524 47.5144L237.162 47.388H244.875V193.388H98.8569V47.3699Z" fill="white"/>
</g>
<defs>
<linearGradient id="paint0_linear_55_2" x1="184.925" y1="78.1486" x2="187.888" y2="79.0698" gradientUnits="userSpaceOnUse">
<stop stop-color="#3B5E90"/>
<stop offset="1" stop-color="#46759A"/>
</linearGradient>
<clipPath id="clip0_55_2">
<rect width="146" height="146" fill="white" transform="translate(98.8569 47.3699)"/>
</clipPath>
</defs>
</svg>
