<svg width="344" height="241" viewBox="0 0 344 241" fill="none" xmlns="http://www.w3.org/2000/svg">
<rect x="0.137695" y="0.558594" width="343.438" height="239.623" rx="23" fill="white"/>
<g clip-path="url(#clip0_55_2)">
<path d="M156.843 34.0201H185.687C187.333 34.0201 188.661 35.3492 188.661 36.9962V41.6337H154.678V36.1871C154.678 34.988 155.645 34.0201 156.843 34.0201Z" fill="#302769"/>
<path d="M156.93 177.912H185.774C187.419 177.912 188.748 179.242 188.748 180.889V184.746H154.764V180.08C154.764 178.88 155.731 177.912 156.93 177.912Z" fill="#ED6A56"/>
<path d="M122.686 97.5436H151.53C153.176 97.5436 154.504 98.8728 154.504 100.52V104.377H120.521V99.7107C120.521 98.5116 121.488 97.5436 122.686 97.5436Z" fill="#ED6A56"/>
<path d="M191.361 97.5436H220.205C221.851 97.5436 223.179 98.8728 223.179 100.52V104.377H189.195V99.7107C189.195 98.5116 190.163 97.5436 191.361 97.5436Z" fill="#ED6A56"/>
<path d="M186.135 63.4775H157.204C155.443 63.4775 153.999 61.8595 153.999 59.8658V36.9817C153.999 34.988 155.428 33.3699 157.204 33.3699H186.135C187.896 33.3699 189.339 34.988 189.339 36.9817V59.8802C189.339 61.8739 187.91 63.492 186.135 63.492V63.4775ZM157.204 34.6702C156.078 34.6702 155.168 35.7104 155.168 36.9672V59.8658C155.168 61.1371 156.078 62.1629 157.204 62.1629H186.135C187.261 62.1629 188.17 61.1227 188.17 59.8658V36.9817C188.17 35.7104 187.261 34.6846 186.135 34.6846H157.204V34.6702Z" fill="#302769"/>
<path d="M151.978 127.016H123.062C121.301 127.016 119.857 125.397 119.857 123.404V100.505C119.857 98.5116 121.286 96.8935 123.062 96.8935H151.992C153.754 96.8935 155.197 98.5116 155.197 100.505V123.404C155.197 125.397 153.768 127.016 151.992 127.016H151.978ZM123.062 98.1937C121.936 98.1937 121.012 99.2339 121.012 100.491V123.389C121.012 124.661 121.921 125.686 123.062 125.686H151.992C153.118 125.686 154.028 124.646 154.028 123.389V100.491C154.028 99.2195 153.118 98.1937 151.992 98.1937H123.062Z" fill="#302769"/>
<path d="M220.667 127.016H191.736C189.975 127.016 188.531 125.397 188.531 123.404V100.505C188.531 98.5116 189.96 96.8935 191.736 96.8935H220.667C222.428 96.8935 223.872 98.5116 223.872 100.505V123.404C223.872 125.397 222.442 127.016 220.667 127.016ZM191.736 98.1937C190.61 98.1937 189.701 99.2339 189.701 100.491V123.389C189.701 124.661 190.61 125.686 191.736 125.686H220.667C221.793 125.686 222.717 124.646 222.717 123.389V100.491C222.717 99.2195 221.807 98.1937 220.667 98.1937H191.736Z" fill="#302769"/>
<path d="M194.19 90.3056H149.148C147.387 90.3056 145.943 88.6876 145.943 86.6939V75.2085C145.943 73.2148 147.373 71.5967 149.148 71.5967H194.19C195.951 71.5967 197.395 73.2148 197.395 75.2085V86.6939C197.395 88.6876 195.966 90.3056 194.19 90.3056ZM149.148 72.897C148.022 72.897 147.098 73.9372 147.098 75.1941V86.6794C147.098 87.9508 148.008 88.9765 149.148 88.9765H194.19C195.316 88.9765 196.225 87.9363 196.225 86.6794V75.1941C196.225 73.9227 195.316 72.897 194.19 72.897H149.148Z" fill="#302769"/>
<path d="M172.232 168.984L144.023 155.216L171.583 139.483L202.043 155.39L172.247 168.984H172.232ZM146.737 155.115L172.247 167.568L199.127 155.303L171.597 140.928L146.737 155.115Z" fill="#302769"/>
<path d="M189.123 41.3158H154.591V42.616H189.123V41.3158Z" fill="#302769"/>
<path d="M154.793 103.727H120.261V105.027H154.793V103.727Z" fill="#302769"/>
<path d="M186.135 207.37H157.204C155.443 207.37 153.999 205.752 153.999 203.758V180.86C153.999 178.866 155.428 177.248 157.204 177.248H186.135C187.896 177.248 189.339 178.866 189.339 180.86V203.758C189.339 205.752 187.91 207.37 186.135 207.37ZM157.204 178.563C156.078 178.563 155.168 179.603 155.168 180.86V203.758C155.168 205.03 156.078 206.055 157.204 206.055H186.135C187.261 206.055 188.17 205.015 188.17 203.758V180.86C188.17 179.588 187.261 178.563 186.135 178.563H157.204Z" fill="#302769"/>
<path d="M188.935 184.096H154.403V185.396H188.935V184.096Z" fill="#302769"/>
<path d="M223.467 103.727H188.935V105.027H223.467V103.727Z" fill="#302769"/>
<path d="M138.09 97.5436H136.935V84.1223C136.935 82.0131 138.465 80.2939 140.342 80.2939H146.535V81.5941H140.342C139.101 81.5941 138.09 82.7354 138.09 84.1223V97.5436Z" fill="#302769"/>
<path d="M206.779 97.5436H205.624V83.9056C205.624 82.6343 204.7 81.5941 203.574 81.5941H197.193V80.2939H203.574C205.349 80.2939 206.779 81.912 206.779 83.9056V97.5436Z" fill="#302769"/>
<path d="M172.247 62.8274H171.092V72.2469H172.247V62.8274Z" fill="#302769"/>
<path d="M172.839 168.089H171.684V177.508H172.839V168.089Z" fill="#302769"/>
<path d="M172.247 89.6411H171.092V140.206H172.247V89.6411Z" fill="#302769"/>
<path d="M145.38 155.823H141.006C138.768 155.823 136.935 153.771 136.935 151.243V126.365H138.09V151.243C138.09 153.049 139.389 154.523 141.006 154.523H145.38V155.823Z" fill="#302769"/>
<path d="M202.895 156.097H199.33V154.797H202.895C204.945 154.797 206.62 152.919 206.62 150.608V126.64H207.775V150.608C207.775 153.641 205.581 156.112 202.895 156.112V156.097Z" fill="#302769"/>
</g>
<defs>
<clipPath id="clip0_55_2">
<rect width="104" height="174" fill="white" transform="translate(119.857 33.3699)"/>
</clipPath>
</defs>
</svg>
