<svg width="344" height="241" viewBox="0 0 344 241" fill="none" xmlns="http://www.w3.org/2000/svg">
<rect x="0.137695" y="0.558594" width="343.438" height="239.623" rx="23" fill="white"/>
<g clip-path="url(#clip0_55_2)">
<path fill-rule="evenodd" clip-rule="evenodd" d="M217.183 31.704C217.183 32.2647 217.415 32.7093 217.858 33.038C217.338 33.038 216.836 32.922 216.354 32.7093C215.216 33.27 214.059 33.7727 212.843 34.2174C212.265 34.6814 211.821 35.2421 211.513 35.8995C209.603 37.0402 207.597 38.0455 205.514 38.9156C205.128 39.9983 204.357 40.617 203.18 40.7523C203.026 41.081 202.794 41.3517 202.505 41.5837C198.956 43.5364 195.176 45.4698 191.164 47.4419H190.836C189.91 46.9779 189.023 46.4172 188.174 45.7598C189.814 44.5998 191.492 43.4204 193.189 42.241C200.113 38.6062 206.884 34.7007 213.557 30.5246C214.232 30.2926 214.888 30.2926 215.563 30.5246C216.122 30.9113 216.682 31.3173 217.241 31.704H217.183Z" fill="#62C0BF"/>
<path fill-rule="evenodd" clip-rule="evenodd" d="M211.841 49.7813C212.612 49.7039 213.326 49.8006 214.001 50.11C214.175 87.0187 214.232 123.947 214.175 160.855C213.114 161.551 212.111 162.344 211.166 163.195C208.774 163.988 206.537 165.109 204.492 166.54C203.258 166.559 202.255 167.062 201.483 168.048C199.689 168.57 198.031 169.362 196.468 170.387C196.584 170.503 196.7 170.619 196.796 170.716C196.256 170.793 195.928 171.064 195.793 171.547C180.98 180.363 166.071 189.122 151.065 197.803C150.428 198.054 149.869 198.015 149.387 197.629H150.39C150.12 160.836 149.946 124.024 149.888 87.212C149.753 87.0187 149.599 86.922 149.387 86.8833C149.927 85.8586 150.833 85.3559 152.048 85.3753C152.762 84.8533 153.495 84.3506 154.209 83.8672C154.324 83.9832 154.44 84.0992 154.537 84.1959C155.154 83.1905 155.867 82.3012 156.697 81.5278C159.764 79.7104 162.753 77.8157 165.704 75.8436C166.881 75.0896 168.115 74.4129 169.369 73.8328C170.16 73.7942 170.7 73.4655 171.047 72.8275C171.047 72.5955 171.163 72.4988 171.375 72.4988C172.088 71.9961 172.86 71.6674 173.709 71.4934C173.786 72.7695 173.4 73.8908 172.532 74.8382C169.543 76.9456 166.765 79.285 164.18 81.8565C162.715 83.8479 161.885 86.0906 161.673 88.5461C161.808 88.7781 162.04 88.9521 162.348 89.0487C162.117 89.1647 161.905 89.2807 161.673 89.3774C162.136 89.5708 162.58 89.5128 163.004 89.2034C163.332 90.0734 163.448 90.9628 163.332 91.8715C162.097 91.6202 161.268 92.0649 160.824 93.2056C160.554 95.487 160.612 97.7297 160.998 99.8951C161.326 100.282 161.77 100.514 162.329 100.572C162.888 100.34 163.448 100.127 164.007 99.8951C164.316 99.9338 164.605 100.05 164.836 100.224C165.068 99.9338 165.338 99.7211 165.666 99.5471C166.071 99.7598 166.514 99.8178 166.997 99.7211C165.936 100.939 164.605 101.713 162.985 102.061C161.885 102.989 160.651 103.723 159.32 104.226C159.088 104.052 158.915 103.82 158.818 103.549C158.664 103.975 158.606 104.419 158.645 104.883C157.931 104.845 157.256 104.999 156.639 105.386C156.427 106.024 156.099 106.585 155.636 107.068C155.848 112.23 155.964 117.412 155.964 122.632C155.964 128.007 155.732 133.362 155.289 138.699C155.347 138.931 155.405 139.143 155.462 139.375C155.694 139.066 155.983 139.008 156.292 139.201C156.427 139.511 156.543 139.781 156.62 140.033C157.256 139.743 157.931 139.646 158.626 139.704V138.37C159.706 138.022 160.767 137.577 161.789 137.036C162.232 136.823 162.502 136.495 162.618 136.03C163.37 135.373 164.258 134.986 165.28 134.851C166.032 133.807 166.919 132.918 167.942 132.183C169.89 131.178 171.78 130.114 173.612 129.012C174.461 128.587 175.367 128.2 176.274 127.833C177.778 126.769 179.225 125.648 180.614 124.488C181.983 124.005 183.314 123.444 184.626 122.806C186.169 121.762 187.712 120.815 189.293 119.964C190.856 119.036 192.514 118.301 194.308 117.798C199.246 114.57 204.261 111.399 209.333 108.267C209.719 97.9037 209.777 87.5214 209.507 77.1583C208.658 76.6556 207.925 76.7523 207.347 77.487C205.823 77.6997 204.608 78.415 203.682 79.6524C202.139 80.0391 200.808 80.7544 199.67 81.8178C198.821 81.6825 198.088 81.9145 197.51 82.4945C197.086 82.4558 196.642 82.3398 196.179 82.1658C196.005 83.4032 195.272 84.0799 194.019 84.1766C193.749 84.0799 193.517 83.9059 193.344 83.6739C193.845 83.1712 194.115 82.5525 194.173 81.8371C194.636 81.5858 195.137 81.4311 195.678 81.3345C195.157 81.1218 194.713 80.8511 194.347 80.5031C195.33 80.2324 196.218 79.7877 197.008 79.169C197.221 79.2077 197.375 79.3237 197.51 79.4977C197.818 79.0724 198.088 78.6277 198.339 78.1637C198.783 78.3957 199.226 78.6084 199.67 78.8404C199.959 78.5697 200.075 78.2217 199.998 77.835C201.464 76.7909 202.139 75.3409 202.004 73.4848C201.078 73.5815 200.191 73.4848 199.342 73.1561C199.767 72.1508 200.422 71.8221 201.348 72.1508C201.657 71.6288 201.772 71.0681 201.676 70.4687H200.345C200.017 70.488 199.728 70.3914 199.516 70.14C199.361 71.0101 198.86 71.4548 198.011 71.4741C198.146 72.3828 197.761 72.8468 196.835 72.8081C195.851 72.3441 194.79 72.0541 193.672 71.9768L193.344 71.6481C193.652 71.4934 193.999 71.4354 194.347 71.4741C194.308 70.8747 194.405 70.314 194.675 69.792C196.372 68.6513 198.166 67.5879 200.017 66.6212C201.618 65.4999 201.734 64.2625 200.345 62.9478C199.574 62.2904 198.686 61.8844 197.683 61.7684C196.237 62.1937 194.848 62.7351 193.517 63.4505C193.267 62.1937 193.324 60.9757 193.691 59.777C194.81 59.777 195.697 59.313 196.353 58.4429C201.02 55.6588 205.707 52.8747 210.375 50.0713C210.818 49.9553 211.262 49.8393 211.706 49.7426L211.841 49.7813Z" fill="#F3F4F4"/>
<path fill-rule="evenodd" clip-rule="evenodd" d="M214.174 160.855C214.232 123.947 214.174 87.0187 214.001 50.11C213.326 49.8006 212.593 49.6846 211.84 49.7813C212.631 48.8919 213.461 48.8919 214.348 49.7813C214.618 86.864 214.579 123.889 214.174 160.855Z" fill="#D6EDF3"/>
<path fill-rule="evenodd" clip-rule="evenodd" d="M217.183 31.704H217.511C217.608 31.9747 217.781 32.1873 218.013 32.3807C218.283 76.675 218.244 120.95 217.839 165.206C216.566 165.786 215.332 166.462 214.174 167.216C214.406 166.424 214.965 165.921 215.852 165.708C215.563 165.148 215.737 165.09 216.354 165.534C216.662 164.896 217.048 164.336 217.53 163.852C217.858 120.254 217.974 76.6363 217.858 33.038C217.415 32.7094 217.203 32.2647 217.183 31.704Z" fill="#65C0B7"/>
<path fill-rule="evenodd" clip-rule="evenodd" d="M211.165 163.195C212.11 162.325 213.113 161.551 214.174 160.855C214.56 123.889 214.618 86.864 214.348 49.7813C213.48 48.8919 212.631 48.8919 211.84 49.7813C211.397 49.8973 210.953 50.0133 210.51 50.11C210.529 49.7813 210.432 49.4913 210.182 49.2786C211.146 49.182 212.033 48.9113 212.843 48.4473C213.769 48.6019 214.483 49.0466 215.004 49.7813C215.235 86.806 215.235 123.831 215.004 160.855C214.058 162.189 212.785 162.982 211.165 163.195Z" fill="#6AC1B8"/>
<path fill-rule="evenodd" clip-rule="evenodd" d="M188.136 45.7598C188.984 46.4172 189.891 46.9779 190.798 47.4419C188.483 46.9585 186.651 47.7319 185.281 49.7813C183.449 52.0241 182.272 54.5955 181.771 57.4763C181.192 57.9016 180.691 57.7856 180.266 57.1476C180.421 56.5482 180.363 55.9875 180.093 55.4655C181.134 53.7061 181.694 51.8114 181.771 49.7813C182.022 50.0327 182.195 50.3807 182.272 50.7867C183.275 49.6653 184.105 48.4473 184.78 47.1132C185.821 46.5332 186.921 46.0885 188.117 45.7792L188.136 45.7598Z" fill="#30545D"/>
<path fill-rule="evenodd" clip-rule="evenodd" d="M183.468 44.4258C184.259 45.1218 184.703 46.0112 184.799 47.0939C184.124 48.4279 183.295 49.646 182.292 50.7674C182.215 50.3613 182.041 50.0133 181.79 49.762C181.848 49.4333 181.732 49.2013 181.462 49.0853C181.443 48.9113 181.327 48.7953 181.134 48.7566C180.324 49.1046 179.765 49.6653 179.456 50.4387C178.28 52.2367 177.836 54.2475 178.126 56.4516C178.936 56.4129 179.611 56.0842 180.131 55.4462C180.402 55.9489 180.459 56.5096 180.305 57.1283C180.71 57.7663 181.212 57.8823 181.81 57.4569C182.311 54.5762 183.468 52.0047 185.32 49.762C186.67 47.7126 188.502 46.9392 190.836 47.4226H191.164C191.743 48.5633 191.955 49.8006 191.839 51.096C193.286 51.3474 194.636 51.9081 195.851 52.7781C196.179 54.6535 196.295 56.5482 196.179 58.4623C195.234 58.6363 194.462 59.081 193.845 59.7964C193.479 60.9951 193.421 62.2131 193.672 63.4698C195.002 62.7738 196.391 62.2131 197.838 61.7878C198.841 61.9038 199.747 62.2904 200.499 62.9671C201.888 64.3012 201.772 65.5192 200.172 66.6406C198.32 67.6266 196.526 68.69 194.829 69.8114C184.375 75.7276 173.921 81.6245 163.448 87.5407C163.293 87.56 163.197 87.502 163.12 87.3667C164.2 86.8253 164.759 85.936 164.798 84.6986C166.881 81.3538 169.658 78.7437 173.149 76.8296C175.406 74.9349 176.351 72.4795 175.985 69.4634C176.505 67.936 176.949 66.3699 177.315 64.7845C178.299 63.2958 179.36 61.8458 180.479 60.4344C180.942 59.1777 180.479 58.675 179.148 58.9263C177.991 60.6277 176.718 62.2518 175.31 63.7792C174.866 66.0413 174.364 68.2647 173.805 70.4687C173.458 70.8748 173.014 71.0874 172.474 71.1454C171.818 70.8748 171.143 70.8168 170.468 70.9714C170.835 71.3194 171.298 71.5515 171.799 71.6481C171.548 71.8801 171.433 72.1508 171.471 72.4795C171.24 72.4795 171.143 72.5955 171.143 72.8082C170.41 72.8855 169.87 73.2335 169.465 73.8135C168.192 74.3936 166.977 75.0702 165.801 75.8243C165.164 75.9209 164.721 75.6889 164.47 75.1476C164.161 73.3882 164.045 71.6095 164.142 69.7921H165.473C166.765 67.878 168.154 65.9832 169.639 64.1078C170.179 63.2765 170.353 62.4451 170.14 61.5944C174.075 58.791 176.235 55.0595 176.64 50.3807C177.354 49.1046 177.952 47.7512 178.473 46.3592C179.688 44.4645 181.347 43.8071 183.488 44.3484L183.468 44.4258Z" fill="#2B464F"/>
<path fill-rule="evenodd" clip-rule="evenodd" d="M181.462 49.1046C181.752 49.2206 181.848 49.4333 181.79 49.7813C181.713 51.8114 181.173 53.7061 180.112 55.4655C179.591 56.1035 178.936 56.4322 178.106 56.4709C177.817 54.2475 178.26 52.2367 179.437 50.458C180.189 50.1487 180.864 49.704 181.443 49.1239L181.462 49.1046Z" fill="#59BDBA"/>
<path fill-rule="evenodd" clip-rule="evenodd" d="M188.136 49.4333C188.676 49.3559 189.177 49.4719 189.64 49.7619C189.988 53.1261 188.811 55.8715 186.13 57.9596C185.204 58.2883 184.548 57.9983 184.124 57.1282C186.786 55.2528 188.117 52.7007 188.136 49.4333Z" fill="#1A3038"/>
<path fill-rule="evenodd" clip-rule="evenodd" d="M181.462 49.1046C180.883 49.6846 180.228 50.1293 179.456 50.4387C179.745 49.6653 180.305 49.1046 181.134 48.7566C181.346 48.7953 181.443 48.9113 181.462 49.0853V49.1046Z" fill="#C8E6EA"/>
<path fill-rule="evenodd" clip-rule="evenodd" d="M196.16 58.4816H196.487C195.832 59.371 194.944 59.8157 193.826 59.8157C194.443 59.081 195.214 58.6363 196.16 58.4816Z" fill="#A8D8D6"/>
<path fill-rule="evenodd" clip-rule="evenodd" d="M183.468 44.4258C181.347 43.8651 179.669 44.5418 178.453 46.4365C177.933 47.8286 177.315 49.1626 176.621 50.458C176.216 55.1368 174.056 58.8683 170.121 61.6717C170.333 62.5224 170.16 63.3538 169.62 64.1852C168.115 66.0606 166.726 67.9553 165.453 69.8694H164.123C165.029 68.9607 165.569 67.8393 165.801 66.5246C166.939 64.7072 167.942 62.8125 168.809 60.8404C170.796 58.849 172.474 56.6256 173.824 54.1508C174.499 52.0627 175.117 49.936 175.657 47.7899C176.447 45.9918 177.605 44.4838 179.167 43.2657C180.884 42.821 182.33 43.2077 183.507 44.4451L183.468 44.4258Z" fill="#335861"/>
<path fill-rule="evenodd" clip-rule="evenodd" d="M168.79 60.821C167.922 62.7931 166.919 64.6878 165.781 66.5052C163.988 67.8973 163.313 69.734 163.775 72.0348C163.775 73.2335 164.007 74.2969 164.451 75.2056C164.721 75.7469 165.164 75.9596 165.781 75.8822C162.83 77.8543 159.821 79.7491 156.774 81.5665C154.112 83.0165 151.431 84.4666 148.769 85.9166C148.326 104.381 148.094 122.941 148.094 141.618C148.094 160.295 148.21 178.817 148.422 197.319C148.654 197.435 148.866 197.551 149.097 197.648C149.097 198.151 149.329 198.537 149.772 198.827C150.409 198.905 150.949 199.117 151.451 199.504C151.007 199.949 151.007 200.394 151.451 200.838C152.453 200.548 153.456 200.664 154.459 201.167C154.209 201.399 154.093 201.67 154.132 201.998C150.795 203.893 147.458 205.788 144.121 207.682C143.678 207.682 143.446 207.45 143.446 207.006C143.446 163.291 143.446 119.577 143.446 75.8436C143.504 75.5149 143.388 75.2829 143.118 75.1669C148.268 72.6341 153.283 69.85 158.143 66.7952C158.51 66.4086 158.78 65.9639 158.973 65.4612C159.32 65.8092 159.706 65.8479 160.149 65.6352C163.042 63.9145 165.936 62.2904 168.829 60.7823L168.79 60.821Z" fill="#59BCAE"/>
<path fill-rule="evenodd" clip-rule="evenodd" d="M173.785 54.1315C172.435 56.6062 170.777 58.8296 168.771 60.821C165.877 62.3291 162.984 63.9532 160.091 65.6739C159.667 65.9059 159.281 65.8479 158.915 65.4999C158.722 66.0026 158.432 66.4472 158.085 66.8339C153.225 69.8887 148.21 72.6728 143.06 75.2056C142.192 74.7802 141.401 74.2195 140.726 73.5235C140.842 73.2915 140.958 73.0788 141.054 72.8468C150.466 67.1819 159.917 61.5557 169.426 55.9489C170.873 55.3302 172.32 54.7115 173.766 54.1121L173.785 54.1315Z" fill="#62C0BF"/>
<path fill-rule="evenodd" clip-rule="evenodd" d="M165.781 66.5052C165.569 67.8393 165.01 68.9413 164.103 69.85C164.007 71.6674 164.103 73.4462 164.431 75.2056C163.988 74.2775 163.775 73.2142 163.756 72.0348C163.293 69.734 163.968 67.8973 165.762 66.5052H165.781Z" fill="#14716D"/>
<path fill-rule="evenodd" clip-rule="evenodd" d="M200.499 70.5267H201.83C201.926 71.1261 201.83 71.6868 201.502 72.2088C200.576 71.8801 199.92 72.2088 199.496 73.2142C200.364 73.5428 201.251 73.6588 202.158 73.5428C202.293 75.3989 201.618 76.849 200.152 77.893C198.898 77.893 198.57 77.3323 199.149 76.2109C200.422 76.733 201.078 76.2883 201.155 74.8769C198.802 75.0509 198.185 74.0455 199.323 71.8608C199.785 71.4548 200.171 71.0101 200.499 70.5267Z" fill="#4B6369"/>
<path fill-rule="evenodd" clip-rule="evenodd" d="M171.124 72.8661C170.796 73.5042 170.237 73.8329 169.446 73.8715C169.832 73.2915 170.391 72.9435 171.124 72.8661Z" fill="#72BBB0"/>
<path fill-rule="evenodd" clip-rule="evenodd" d="M141.073 72.8661C140.958 73.0981 140.842 73.3108 140.745 73.5428C140.514 73.5428 140.418 73.6588 140.418 73.8715C140.186 106.333 139.974 138.776 139.742 171.238C139.627 171.006 139.511 170.793 139.415 170.561C139.685 138.273 139.858 105.927 139.916 73.5235C140.186 73.0788 140.572 72.8661 141.093 72.8468L141.073 72.8661Z" fill="#A6D7D5"/>
<path fill-rule="evenodd" clip-rule="evenodd" d="M140.746 73.5235C141.421 74.2002 142.212 74.7609 143.079 75.2056C143.369 75.3216 143.465 75.5342 143.407 75.8823C143.137 118.533 142.964 161.261 142.906 204.028C142.906 205.092 142.617 206.039 142.076 206.87C142.501 207.025 142.944 207.083 143.407 207.044C143.407 207.489 143.639 207.721 144.082 207.721C143.716 208.088 143.272 208.146 142.752 207.895C141.71 207.47 140.823 206.851 140.09 206.058C140.418 162.015 140.533 117.953 140.418 73.8908C140.418 73.6588 140.533 73.5622 140.746 73.5622V73.5235Z" fill="#30B39E"/>
<path fill-rule="evenodd" clip-rule="evenodd" d="M140.418 73.8715C140.533 117.934 140.418 161.977 140.09 206.039C139.762 204.995 139.646 203.874 139.762 202.694C140.09 200.742 140.206 198.75 140.09 196.681C140.148 195.966 140.032 195.309 139.762 194.671C140.206 190.205 140.206 185.758 139.762 181.292V180.963C140.167 180.441 140.167 179.88 139.762 179.281C140.206 176.709 140.206 174.157 139.762 171.586V171.257C139.993 138.795 140.206 106.353 140.437 73.8909L140.418 73.8715Z" fill="#29AF9A"/>
<path fill-rule="evenodd" clip-rule="evenodd" d="M189.486 120.041C187.904 120.892 186.342 121.839 184.818 122.883C183.507 123.502 182.176 124.063 180.807 124.565C179.418 125.725 177.971 126.847 176.467 127.91C175.541 128.278 174.654 128.664 173.805 129.09C172.783 129.264 171.78 129.534 170.796 129.921C168.501 131.12 166.399 132.57 164.45 134.271C162.02 135.644 159.59 136.939 157.102 138.119C156.986 128.297 157.102 118.495 157.43 108.673C157.7 117.702 157.873 126.731 157.931 135.779C158.066 137.229 158.298 137.345 158.606 136.108C159.32 136.378 159.937 136.146 160.439 135.431C159.937 134.735 159.281 134.406 158.433 134.426C158.799 133.459 158.799 132.512 158.433 131.584C159.223 130.366 159.223 129.206 158.433 128.065C158.934 127.872 159.494 127.872 160.111 128.065C159.918 128.278 159.686 128.51 159.436 128.742C159.551 128.858 159.667 128.974 159.764 129.07C161.229 128.452 162.56 127.678 163.775 126.731C164.007 126.615 164.219 126.499 164.45 126.402C176.139 119.867 187.712 113.12 199.169 106.159C198.841 105.927 198.494 105.927 198.166 106.159C187.114 112.694 176.1 118.997 165.126 125.068C165.839 124.295 166.514 123.444 167.131 122.555C168.366 122.168 169.6 121.723 170.796 121.221C171.838 119.751 172.841 118.243 173.805 116.696C176.293 116.542 178.743 116.136 181.154 115.517C182.89 112.366 184.336 109.079 185.494 105.637H188.83C189.158 104.11 189.814 102.757 190.836 101.616C191.164 102.061 191.492 102.505 191.839 102.95C193.17 103.337 194.501 103.395 195.851 103.124C194.732 103.008 193.633 102.892 192.514 102.795C191.858 102.312 191.415 101.693 191.183 100.959C192.456 98.6578 194.019 96.5504 195.851 94.5976C195.677 94.2496 195.465 94.1916 195.176 94.4236C193.402 96.241 191.858 98.1937 190.508 100.282C189.93 99.7018 189.486 99.0444 189.177 98.2711C189.255 98.0777 189.428 97.9617 189.679 97.9424C190.103 98.3484 190.605 98.5611 191.183 98.6191V97.6137C190.373 97.3817 189.602 97.053 188.85 96.6084C189.274 94.8296 190.373 93.8243 192.186 93.5922C191.588 93.5729 191.029 93.2249 190.508 92.5869C193.054 90.8661 195.716 89.3581 198.513 88.0627C199.053 87.6954 199.381 87.1927 199.516 86.5546C199.111 85.5106 198.783 84.4472 198.513 83.3839C201.29 81.4698 204.299 79.9231 207.52 78.705C207.134 78.3183 207.134 77.9317 207.52 77.5256C208.041 77.2163 208.542 77.2163 209.025 77.5256C209.295 87.676 209.256 97.8264 208.851 107.977C207.52 109.098 206.074 110.046 204.511 110.819C203.547 111.264 202.544 111.534 201.502 111.65V112.984C200.48 112.888 199.921 113.332 199.824 114.318C199.361 114.26 198.918 114.318 198.494 114.492C196.333 115.904 194.115 117.141 191.82 118.166C191.106 118.92 190.335 119.539 189.486 120.003V120.041Z" fill="#CCE7E6"/>
<path fill-rule="evenodd" clip-rule="evenodd" d="M143.407 75.8823C143.407 119.597 143.407 163.311 143.407 207.044C142.944 207.102 142.501 207.044 142.076 206.87C142.636 206.039 142.906 205.092 142.906 204.028C142.963 161.261 143.137 118.533 143.407 75.8823Z" fill="#3CB5A2"/>
<path fill-rule="evenodd" clip-rule="evenodd" d="M163.447 87.5794C163.061 88.1594 162.502 88.5074 161.769 88.5848C161.981 86.11 162.811 83.8866 164.276 81.8952C166.842 79.3238 169.619 76.9843 172.628 74.8769C173.496 73.9296 173.882 72.8082 173.805 71.5321C172.956 71.7061 172.184 72.0348 171.471 72.5375C171.452 72.2088 171.548 71.9188 171.799 71.7061C171.278 71.6095 170.834 71.3775 170.468 71.0295C171.143 70.8555 171.818 70.9135 172.474 71.2035C173.014 71.1648 173.457 70.9328 173.805 70.5268C174.364 68.3227 174.865 66.0799 175.309 63.8372C176.717 62.3098 177.99 60.6857 179.147 58.9843C180.498 58.733 180.941 59.2357 180.478 60.4924C179.36 61.9038 178.299 63.3538 177.315 64.8426C176.949 66.428 176.505 67.994 175.984 69.5214C176.351 72.5182 175.406 74.9736 173.149 76.8877C169.677 78.8017 166.9 81.4118 164.797 84.7566C164.778 86.0133 164.219 86.9027 163.119 87.4247C163.196 87.5601 163.312 87.6181 163.447 87.5987V87.5794Z" fill="#385760"/>
<path fill-rule="evenodd" clip-rule="evenodd" d="M197.163 79.2271C196.372 79.8458 195.485 80.2904 194.501 80.5611C194.404 78.357 194.501 76.1723 194.829 74.0455C195.716 73.3108 196.661 73.1368 197.664 73.5429C197.973 75.4956 197.818 77.3903 197.163 79.2271Z" fill="#52676C"/>
<path fill-rule="evenodd" clip-rule="evenodd" d="M207.501 77.545C207.115 77.951 207.115 78.3377 207.501 78.7244C204.28 79.9424 201.271 81.5085 198.494 83.4032C198.764 84.4666 199.091 85.5299 199.496 86.574C199.361 87.212 199.034 87.7147 198.494 88.082C195.697 89.3774 193.035 90.8855 190.489 92.6062C191.01 93.2442 191.569 93.5922 192.167 93.6116C190.354 93.8436 189.255 94.849 188.83 96.6277C189.583 97.053 190.354 97.4011 191.164 97.6331V98.6384C190.605 98.5998 190.103 98.3678 189.66 97.9617C189.409 97.9811 189.235 98.0971 189.158 98.2904C188.753 98.0391 188.31 97.9424 187.827 97.9617C187.133 100.301 186.226 102.544 185.166 104.651C184.066 104.4 183.179 103.781 182.504 102.815C181.983 102.389 181.424 102.157 180.826 102.138C178.878 104.748 176.833 107.261 174.654 109.659C173.169 111.921 171.838 114.28 170.642 116.677C169.407 117.818 168.057 118.804 166.63 119.693C165.704 121.433 164.875 123.212 164.123 125.049C163.891 125.493 163.679 125.938 163.448 126.383C162.329 126.943 161.229 127.504 160.111 128.065C159.494 127.872 158.934 127.872 158.433 128.065C159.223 129.186 159.223 130.366 158.433 131.584C158.799 132.512 158.799 133.459 158.433 134.426C159.262 134.406 159.937 134.735 160.439 135.431C159.918 136.146 159.32 136.378 158.606 136.108C158.298 137.345 158.086 137.229 157.931 135.779C157.873 126.75 157.7 117.702 157.43 108.673C157.102 118.494 156.986 128.297 157.102 138.119C159.571 136.939 162.02 135.644 164.45 134.271C166.399 132.57 168.501 131.12 170.796 129.921C171.78 129.534 172.783 129.264 173.805 129.09C171.973 130.192 170.083 131.255 168.134 132.26C167.093 132.995 166.206 133.904 165.473 134.928C164.431 135.064 163.544 135.45 162.811 136.108C161.287 136.649 159.841 137.365 158.471 138.273C157.815 138.525 157.218 138.467 156.639 138.099C156.407 128.181 156.407 118.243 156.639 108.325C156.755 107.996 156.87 107.648 156.967 107.319C157.912 106.488 158.857 105.637 159.802 104.806C161.905 103.743 164.007 102.757 166.148 101.79C167.903 99.9725 170.005 98.7351 172.494 98.1164C172.764 97.7877 172.879 97.3817 172.821 96.937C175.194 96.299 177.296 95.139 179.167 93.4182C180.247 93.3409 181.25 92.9929 182.176 92.4129C184.124 90.9241 186.246 89.7061 188.522 88.7394C190.875 86.5933 193.537 85.0273 196.526 84.0606C197.529 83.1132 198.629 82.3785 199.863 81.8951C200.982 80.8318 202.332 80.0971 203.875 79.7297C204.801 78.4924 206.035 77.7577 207.54 77.5643L207.501 77.545Z" fill="#CFE9E7"/>
<path fill-rule="evenodd" clip-rule="evenodd" d="M189.486 120.041C190.335 119.577 191.126 118.959 191.82 118.205C194.115 117.16 196.333 115.942 198.494 114.531C198.918 114.376 199.361 114.318 199.824 114.357C199.902 113.371 200.461 112.926 201.502 113.023V111.689C202.544 111.573 203.547 111.283 204.511 110.858C206.074 110.084 207.52 109.137 208.851 108.015C209.237 97.8651 209.295 87.7147 209.025 77.5643C208.562 77.255 208.06 77.255 207.52 77.5643C208.118 76.8297 208.832 76.7136 209.68 77.2357C209.95 87.6181 209.912 97.9811 209.507 108.344C204.434 111.476 199.439 114.666 194.482 117.876C192.707 118.398 191.029 119.113 189.467 120.041H189.486Z" fill="#D7ECEA"/>
<path fill-rule="evenodd" clip-rule="evenodd" d="M206.17 82.2238C206.748 82.3398 206.922 82.6685 206.671 83.2292C205.475 83.8479 204.299 84.5246 203.161 85.2399C202.794 84.9499 202.737 84.6212 202.987 84.2346C204.029 83.5192 205.09 82.8425 206.15 82.2238H206.17Z" fill="#406668"/>
<path fill-rule="evenodd" clip-rule="evenodd" d="M200.827 85.24H201.83V86.574C201.348 86.5547 200.904 86.6514 200.499 86.9027C200.113 86.2453 200.21 85.6847 200.827 85.2206V85.24Z" fill="#57BBA9"/>
<path fill-rule="evenodd" clip-rule="evenodd" d="M148.75 85.9166C148.422 123.038 148.306 160.179 148.422 197.339C148.191 178.817 148.094 160.256 148.094 141.637C148.094 123.019 148.326 104.381 148.769 85.936L148.75 85.9166Z" fill="#54BBAF"/>
<path fill-rule="evenodd" clip-rule="evenodd" d="M205.495 87.2507C205.996 87.154 206.44 87.27 206.826 87.5794C205.61 88.6428 204.28 89.5321 202.814 90.2475C202.447 89.9575 202.389 89.6288 202.64 89.2421C203.643 88.6041 204.588 87.9467 205.475 87.2314L205.495 87.2507Z" fill="#44696C"/>
<path fill-rule="evenodd" clip-rule="evenodd" d="M194.81 69.85C194.54 70.3721 194.424 70.9327 194.482 71.5321C194.135 71.4741 193.787 71.5321 193.479 71.7061L193.807 72.0348C194.945 72.1121 195.986 72.4021 196.97 72.8661C197.896 72.8855 198.281 72.4408 198.146 71.5321C198.995 71.5128 199.497 71.0681 199.651 70.1981C199.882 70.4494 200.152 70.5654 200.48 70.5267C200.152 71.0101 199.767 71.4548 199.304 71.8608C198.166 74.0455 198.783 75.0509 201.136 74.8769C201.078 76.2883 200.403 76.733 199.13 76.2109C198.551 77.3323 198.879 77.893 200.133 77.893C200.21 78.2797 200.094 78.6277 199.805 78.8984C199.362 78.6664 198.918 78.4537 198.474 78.2217C198.224 78.6857 197.954 79.1304 197.645 79.5557C197.51 79.3624 197.356 79.2657 197.143 79.2271C197.799 77.3903 197.954 75.4956 197.645 73.5428C196.642 73.1368 195.697 73.3108 194.81 74.0455C194.482 76.1916 194.366 78.357 194.482 80.5611C194.848 80.9091 195.292 81.1991 195.813 81.3925C195.272 81.4891 194.771 81.6438 194.308 81.8951C194.25 82.6298 193.98 83.2292 193.479 83.7319C193.652 83.9639 193.884 84.1379 194.154 84.2346C195.427 84.1379 196.14 83.4612 196.314 82.2238C196.777 82.4172 197.221 82.5138 197.645 82.5525C198.243 81.9725 198.956 81.7598 199.805 81.8758C198.571 82.3785 197.471 83.0939 196.468 84.0412C193.479 85.0273 190.817 86.574 188.464 88.7201C186.188 89.6868 184.086 90.9242 182.118 92.3935C181.192 92.9736 180.209 93.3216 179.109 93.3989C177.258 95.1003 175.136 96.2797 172.764 96.9177C172.821 97.3624 172.706 97.7491 172.436 98.0971C169.948 98.7351 167.845 99.9532 166.09 101.771C163.949 102.718 161.847 103.723 159.744 104.787C158.799 105.618 157.854 106.469 156.909 107.3C156.793 107.629 156.678 107.977 156.581 108.305C156.35 118.224 156.35 128.162 156.581 138.08C157.16 138.447 157.777 138.505 158.413 138.254C159.783 137.345 161.229 136.611 162.753 136.088C162.637 136.553 162.348 136.881 161.924 137.094C160.882 137.635 159.841 138.08 158.761 138.428V139.762C158.066 139.704 157.391 139.82 156.755 140.091C156.678 139.839 156.562 139.569 156.427 139.259C156.118 139.047 155.829 139.105 155.597 139.433C155.54 139.201 155.482 138.989 155.424 138.757C155.867 133.44 156.08 128.084 156.099 122.69C156.099 117.489 155.983 112.288 155.771 107.126C156.234 106.643 156.562 106.082 156.774 105.444C157.391 105.057 158.066 104.903 158.78 104.941C158.722 104.477 158.78 104.033 158.954 103.607C159.05 103.878 159.224 104.11 159.455 104.284C160.805 103.762 162.02 103.047 163.12 102.119C164.74 101.771 166.071 100.997 167.132 99.7791C166.649 99.8758 166.206 99.8372 165.801 99.6051C165.473 99.7598 165.203 99.9918 164.971 100.282C164.721 100.088 164.451 99.9918 164.142 99.9532C163.583 100.185 163.023 100.398 162.464 100.63C161.905 100.572 161.461 100.359 161.133 99.9532C160.747 97.7877 160.689 95.545 160.959 93.2636C161.403 92.1035 162.232 91.6588 163.467 91.9295C163.563 91.0015 163.467 90.1121 163.139 89.2614C162.715 89.5708 162.271 89.6288 161.808 89.4354C162.04 89.3194 162.252 89.2034 162.483 89.1067C162.175 89.0101 161.962 88.8554 161.808 88.6041C162.541 88.5267 163.081 88.1787 163.486 87.5987C173.94 81.6825 184.394 75.7856 194.867 69.8694L194.81 69.85Z" fill="#EEF2F2"/>
<path fill-rule="evenodd" clip-rule="evenodd" d="M178.8 84.5632C178.82 84.3892 178.935 84.2732 179.128 84.2346C179.36 85.9553 179.572 87.6373 179.803 89.2614C179.784 89.4354 179.668 89.5514 179.475 89.5901C179.244 87.8694 179.032 86.1873 178.8 84.5632Z" fill="#909FA7"/>
<path fill-rule="evenodd" clip-rule="evenodd" d="M183.796 80.2324C184.452 80.1358 184.954 80.3678 185.301 80.9091C185.474 82.0112 185.301 83.0746 184.799 84.0799C184.876 84.7373 185.108 85.356 185.474 85.9167C184.626 86.3613 184.066 86.0907 183.796 85.0853C183.488 84.9306 183.14 84.8726 182.793 84.9113C182.89 85.8393 182.793 86.7287 182.465 87.5794C182.08 85.588 182.022 83.5772 182.292 81.5665C182.851 81.1605 183.353 80.7158 183.796 80.2324Z" fill="#4C6268"/>
<path fill-rule="evenodd" clip-rule="evenodd" d="M179.803 89.2615C179.572 87.6374 179.36 85.9747 179.128 84.2346C178.916 84.2733 178.82 84.3893 178.801 84.5633C178.145 84.4086 178.029 84.0799 178.473 83.5579C179.36 82.9972 180.247 82.4365 181.134 81.8759C181.578 82.6686 181.347 83.2292 180.459 83.5579C180.228 85.5107 180.016 87.4054 179.784 89.2421L179.803 89.2615Z" fill="#4D6369"/>
<path fill-rule="evenodd" clip-rule="evenodd" d="M183.796 81.5665C184.683 82.2818 184.567 82.9585 183.468 83.5772C183.044 82.8038 183.159 82.1272 183.796 81.5665Z" fill="#DEECED"/>
<path fill-rule="evenodd" clip-rule="evenodd" d="M186.805 85.2399C186.477 83.2872 186.361 81.2958 186.477 79.227C187.152 78.5504 187.923 78.009 188.811 77.545C188.926 77.719 189.042 77.8737 189.139 78.0477C188.348 78.7244 187.692 79.4977 187.133 80.3871C187.19 80.6578 187.248 80.9478 187.306 81.2185C187.827 80.9284 188.328 80.5998 188.811 80.2131C188.926 80.3871 189.042 80.5418 189.139 80.7158C188.425 81.3731 187.75 82.1078 187.133 82.8812C187.248 83.1132 187.364 83.3259 187.46 83.5579C187.904 83.3259 188.348 83.1132 188.791 82.8812C188.907 83.0552 189.023 83.2099 189.119 83.3839C188.502 84.1766 187.711 84.7759 186.785 85.2206L186.805 85.2399Z" fill="#4B5F66"/>
<path fill-rule="evenodd" clip-rule="evenodd" d="M186.477 79.227C186.362 81.2958 186.477 83.3065 186.805 85.2399C186.786 85.4139 186.67 85.5299 186.477 85.5686C186.034 83.4032 186.034 81.2764 186.477 79.2077V79.227Z" fill="#97A4A8"/>
<path fill-rule="evenodd" clip-rule="evenodd" d="M193.151 81.5665C193.209 79.5557 193.151 77.545 192.977 75.5536C192.919 76.791 192.746 78.0283 192.476 79.227C192.206 79.0724 192.09 78.8597 192.148 78.5504C192.476 77.5063 192.591 76.3849 192.476 75.2056H193.479C193.594 77.3903 193.479 79.4977 193.151 81.5665Z" fill="#6C7E85"/>
<path fill-rule="evenodd" clip-rule="evenodd" d="M193.151 81.5665C192.475 81.0058 191.858 80.3484 191.318 79.5557C191.202 80.6771 191.087 81.7792 190.99 82.9005C190.855 83.0552 190.682 83.1712 190.489 83.2292C190.103 81.1218 190.045 78.995 190.315 76.8683C190.45 76.7136 190.624 76.5976 190.817 76.5396C191.395 77.1196 191.839 77.7963 192.148 78.5504C192.109 78.8404 192.205 79.0724 192.475 79.2271C192.745 78.009 192.919 76.791 192.977 75.5536C193.151 77.5643 193.208 79.5751 193.151 81.5665Z" fill="#466166"/>
<path fill-rule="evenodd" clip-rule="evenodd" d="M195.812 74.5289H197.143C197.201 75.5342 197.143 76.5396 196.969 77.545C196.738 78.2217 196.294 78.6664 195.639 78.879C195.388 77.4096 195.446 75.9596 195.812 74.5289Z" fill="#EBEEF1"/>
<path fill-rule="evenodd" clip-rule="evenodd" d="M156.774 81.5665C155.944 82.3592 155.211 83.2485 154.614 84.2346C154.498 84.1186 154.382 84.0026 154.286 83.9059C153.553 84.3892 152.839 84.8919 152.125 85.4139C150.891 85.3946 150.004 85.8973 149.464 86.922C149.02 123.831 149.02 160.739 149.464 197.667H149.136C148.904 197.551 148.692 197.435 148.461 197.339C148.345 160.179 148.461 123.038 148.789 85.9166C151.45 84.4666 154.131 83.0165 156.793 81.5665H156.774Z" fill="#C4E4E0"/>
<path fill-rule="evenodd" clip-rule="evenodd" d="M149.425 86.922C149.637 86.9607 149.791 87.0767 149.926 87.2507C149.984 124.063 150.158 160.875 150.428 197.667H149.425C148.981 160.739 148.981 123.811 149.425 86.922Z" fill="#DEE1DF"/>
<path fill-rule="evenodd" clip-rule="evenodd" d="M171.78 87.2507C172.108 87.2507 172.339 87.4053 172.455 87.7534C172.262 88.3334 171.876 88.7201 171.278 88.9327C171.22 90.8468 171.047 92.7415 170.777 94.6169C170.545 92.9349 170.333 91.2722 170.102 89.5901C169.639 90.0541 169.311 89.9961 169.099 89.4161C169.832 88.5074 170.719 87.792 171.76 87.2507H171.78Z" fill="#4A5F65"/>
<path fill-rule="evenodd" clip-rule="evenodd" d="M174.133 85.9167C174.673 85.878 175.059 86.0907 175.309 86.5934C175.753 88.2754 176.139 89.9382 176.486 91.6202C174.769 90.5955 173.651 91.0982 173.149 93.1283C172.783 93.2636 172.551 93.1089 172.474 92.6256C173.111 90.4022 173.651 88.1594 174.152 85.936L174.133 85.9167Z" fill="#526A6F"/>
<path fill-rule="evenodd" clip-rule="evenodd" d="M174.133 87.9274C174.538 88.082 174.75 88.4107 174.808 88.9327C174.692 89.2614 174.577 89.6094 174.48 89.9381C174.152 89.3001 174.056 88.6427 174.152 87.9274H174.133Z" fill="#CEE2E6"/>
<path fill-rule="evenodd" clip-rule="evenodd" d="M167.112 89.9188C167.536 89.9382 167.806 90.1702 167.942 90.5955C168.424 91.9102 168.809 93.2443 169.118 94.617C169.041 95.777 168.713 95.8737 168.115 94.9457C167.556 95.2164 166.996 95.5064 166.437 95.777C166.283 96.5117 165.936 97.1111 165.434 97.6138C165.511 94.9843 166.071 92.4129 167.112 89.9188Z" fill="#4D646A"/>
<path fill-rule="evenodd" clip-rule="evenodd" d="M162.116 99.6245C161.461 97.7684 161.249 95.7577 161.441 93.6116C162.348 92.3935 163.409 92.1615 164.605 92.9349C165.473 95.8737 164.643 98.1164 162.097 99.6245H162.116Z" fill="#4F666A"/>
<path fill-rule="evenodd" clip-rule="evenodd" d="M167.112 91.9296C167.961 92.7223 167.961 93.515 167.112 94.269C166.746 93.4956 166.746 92.7223 167.112 91.9296Z" fill="#CBD8E0"/>
<path fill-rule="evenodd" clip-rule="evenodd" d="M161.441 93.6116C161.229 95.7577 161.441 97.7684 162.116 99.6245C161.885 99.9339 161.538 100.031 161.114 99.9532C160.998 97.7684 161.114 95.661 161.441 93.5923V93.6116Z" fill="#91A3A6"/>
<path fill-rule="evenodd" clip-rule="evenodd" d="M162.772 93.6116H163.775C163.833 94.849 163.775 96.067 163.602 97.285C163.216 97.7104 162.772 98.0391 162.271 98.2904C161.924 96.6277 162.097 95.0616 162.772 93.6116Z" fill="#E8EFF1"/>
<path fill-rule="evenodd" clip-rule="evenodd" d="M191.145 100.959C190.817 100.843 190.585 100.63 190.47 100.282C191.82 98.1938 193.382 96.241 195.137 94.4236C195.407 94.1916 195.639 94.2496 195.812 94.5976C193.98 96.5504 192.418 98.6578 191.145 100.959Z" fill="#69C1B5"/>
<path fill-rule="evenodd" clip-rule="evenodd" d="M190.142 100.959C189.602 102.196 188.946 103.356 188.136 104.477C187.403 104.748 186.728 104.69 186.13 104.303C186.728 102.428 187.499 100.649 188.464 98.9478C189.177 99.4892 189.737 100.166 190.142 100.959Z" fill="#CAE6E8"/>
<path fill-rule="evenodd" clip-rule="evenodd" d="M190.142 100.958C190.47 101.075 190.701 101.287 190.817 101.635C189.795 102.776 189.139 104.11 188.811 105.657H185.474C185.628 105.154 185.86 104.709 186.149 104.323C186.747 104.69 187.422 104.748 188.155 104.497C188.965 103.395 189.621 102.215 190.161 100.978L190.142 100.958Z" fill="#6BC2B8"/>
<path fill-rule="evenodd" clip-rule="evenodd" d="M189.139 98.2904C189.448 99.0444 189.891 99.7211 190.47 100.301C190.585 100.63 190.798 100.862 191.145 100.978C191.396 101.732 191.839 102.331 192.476 102.815C193.594 102.931 194.694 103.047 195.813 103.143C194.462 103.414 193.131 103.356 191.801 102.969C191.453 102.525 191.126 102.08 190.798 101.635C190.682 101.307 190.47 101.075 190.123 100.959C189.718 100.166 189.177 99.4891 188.445 98.9478C187.48 100.649 186.709 102.428 186.111 104.303C185.821 104.69 185.609 105.135 185.436 105.637C184.278 109.059 182.832 112.346 181.096 115.517C178.685 116.136 176.235 116.522 173.747 116.696C172.783 118.224 171.78 119.732 170.738 121.221C169.523 121.723 168.308 122.168 167.074 122.555C166.456 123.444 165.801 124.275 165.068 125.068C164.682 125.416 164.45 125.861 164.393 126.402C164.161 126.518 163.949 126.634 163.718 126.731C163.486 126.731 163.39 126.615 163.39 126.402C163.621 125.957 163.833 125.513 164.065 125.068C164.971 124.488 165.627 123.715 166.071 122.729C167.247 121.859 168.597 121.24 170.083 120.892C171.298 119.21 172.532 117.547 173.747 115.865C176.312 116.329 178.762 115.942 181.096 114.686C182.253 111.631 183.488 108.634 184.761 105.657C185.069 105.425 185.166 105.077 185.088 104.651C186.169 102.525 187.056 100.301 187.75 97.9617C188.232 97.9424 188.676 98.0584 189.081 98.2904H189.139Z" fill="#517878"/>
<path fill-rule="evenodd" clip-rule="evenodd" d="M161.441 107.996H162.444C162.502 108.441 162.386 108.828 162.116 109.176C161.345 109.562 160.554 109.949 159.782 110.355C159.416 110.065 159.358 109.736 159.609 109.35C160.342 109.021 160.94 108.576 161.441 108.015V107.996Z" fill="#44686B"/>
<path fill-rule="evenodd" clip-rule="evenodd" d="M185.146 104.651C185.223 105.077 185.108 105.425 184.818 105.657C183.7 105.038 182.697 104.207 181.809 103.143C181.482 102.911 181.134 102.911 180.807 103.143C178.897 106.063 176.718 108.808 174.307 111.341C173.188 113.352 172.088 115.362 170.97 117.354C169.755 118.243 168.52 119.133 167.305 120.022C166.649 120.795 166.244 121.685 166.128 122.69C165.704 123.676 165.029 124.449 164.123 125.029C164.875 123.193 165.704 121.414 166.63 119.674C168.057 118.804 169.388 117.799 170.642 116.658C171.818 114.241 173.149 111.902 174.654 109.64C176.833 107.242 178.878 104.729 180.826 102.119C181.424 102.119 181.983 102.351 182.504 102.795C183.179 103.762 184.085 104.381 185.166 104.632L185.146 104.651Z" fill="#69C0B4"/>
<path fill-rule="evenodd" clip-rule="evenodd" d="M196.159 111.012C196.526 111.051 196.738 111.283 196.835 111.689C196.179 112.462 195.388 113.139 194.501 113.7C194.057 113.255 194.057 112.81 194.501 112.366C195.021 111.824 195.581 111.38 196.179 111.032L196.159 111.012Z" fill="#81A6A5"/>
<path fill-rule="evenodd" clip-rule="evenodd" d="M184.799 105.657C183.507 108.634 182.291 111.65 181.134 114.686C178.82 115.942 176.37 116.329 173.785 115.865C172.57 117.547 171.336 119.21 170.121 120.892C168.636 121.24 167.305 121.859 166.109 122.729C166.225 121.723 166.61 120.834 167.285 120.061C168.501 119.171 169.735 118.282 170.95 117.392C172.069 115.382 173.168 113.371 174.287 111.38C176.717 108.847 178.877 106.101 180.787 103.182C181.115 102.95 181.462 102.95 181.79 103.182C182.658 104.226 183.661 105.077 184.799 105.695V105.657Z" fill="#CBE7E8"/>
<path fill-rule="evenodd" clip-rule="evenodd" d="M161.769 112.675C162.483 112.868 162.599 113.255 162.097 113.854C161.441 114.376 160.728 114.763 159.937 115.034C159.763 114.918 159.609 114.802 159.436 114.705C160.168 113.951 160.94 113.294 161.769 112.694V112.675Z" fill="#3F6468"/>
<path fill-rule="evenodd" clip-rule="evenodd" d="M189.139 115.014C189.563 115.42 189.563 115.865 189.139 116.348C188.695 116.909 188.136 117.354 187.461 117.683C187.094 117.276 187.036 116.832 187.287 116.348C187.943 115.923 188.56 115.478 189.119 115.014H189.139Z" fill="#85AAAA"/>
<path fill-rule="evenodd" clip-rule="evenodd" d="M164.45 126.402C164.508 125.841 164.72 125.397 165.125 125.068C176.1 118.997 187.113 112.694 198.165 106.159C198.493 105.927 198.84 105.927 199.168 106.159C187.711 113.12 176.139 119.867 164.45 126.402Z" fill="#42A290"/>
<path fill-rule="evenodd" clip-rule="evenodd" d="M162.116 117.354C162.695 117.47 162.868 117.798 162.618 118.359C161.653 118.881 160.708 119.423 159.782 120.041C159.416 119.751 159.358 119.423 159.609 119.036C160.438 118.437 161.268 117.876 162.116 117.354Z" fill="#456B6E"/>
<path fill-rule="evenodd" clip-rule="evenodd" d="M181.809 119.365C182.369 119.597 182.6 120.041 182.484 120.699C181.597 120.757 180.806 121.085 180.151 121.704C179.842 121.298 179.726 120.853 179.823 120.37C180.691 120.37 181.346 120.041 181.829 119.365H181.809Z" fill="#7CA3A0"/>
<path fill-rule="evenodd" clip-rule="evenodd" d="M161.769 122.381C162.348 122.497 162.522 122.825 162.271 123.386C161.461 123.869 160.631 124.314 159.763 124.72C159.397 124.43 159.339 124.101 159.59 123.715C160.361 123.309 161.094 122.864 161.75 122.381H161.769Z" fill="#45696D"/>
<path fill-rule="evenodd" clip-rule="evenodd" d="M174.789 123.386C175.078 123.347 175.309 123.444 175.464 123.715L174.962 124.72C174.229 125.087 173.574 125.532 172.956 126.054C172.686 125.474 172.744 124.913 173.13 124.372C173.766 124.121 174.326 123.773 174.808 123.367L174.789 123.386Z" fill="#8CB1B0"/>
<path fill-rule="evenodd" clip-rule="evenodd" d="M163.447 126.402C163.447 126.634 163.563 126.731 163.775 126.731C162.579 127.678 161.229 128.452 159.763 129.07C159.648 128.954 159.532 128.838 159.436 128.742C159.686 128.51 159.898 128.297 160.111 128.065C161.229 127.504 162.329 126.943 163.447 126.383V126.402Z" fill="#4AA997"/>
<path fill-rule="evenodd" clip-rule="evenodd" d="M167.787 127.736C168.096 128.084 168.212 128.548 168.115 129.07C167.286 129.167 166.572 129.496 165.955 130.076C165.685 129.592 165.743 129.148 166.128 128.742C166.669 128.316 167.228 127.968 167.807 127.736H167.787Z" fill="#84A8A8"/>
<path fill-rule="evenodd" clip-rule="evenodd" d="M198.166 125.397C198.513 125.706 198.976 125.822 199.496 125.725C199.439 126.402 199.496 127.079 199.67 127.736C200.557 127.234 201.29 126.557 201.83 125.725C202.197 126.093 202.582 126.093 203.007 125.725C203.354 125.841 203.508 126.054 203.508 126.402C203.026 126.383 202.582 126.479 202.177 126.731C201.85 128.046 201.734 129.38 201.85 130.752C203.99 130.443 205.321 131.332 205.861 133.42V137.094C206.556 137.423 207.347 137.539 208.195 137.423C208.292 137.964 208.176 138.409 207.867 138.757V137.751H205.861C205.437 140.671 204.106 143.068 201.85 144.944C200.191 145.833 198.802 145.543 197.683 144.112C196.179 138.873 197.413 134.406 201.348 130.733C201.618 129.824 201.56 128.935 201.174 128.065C197.953 130.617 196.005 133.962 195.33 138.099C195.079 140.574 195.137 143.029 195.504 145.466C195.292 145.427 195.137 145.311 195.002 145.137C194.809 143.667 194.52 142.217 194.173 140.787C193.845 140.632 193.575 140.4 193.344 140.11C193.44 141.135 193.401 142.14 193.17 143.126C192.572 142.217 192.36 141.212 192.495 140.11H191.492C191.453 140.767 191.685 141.328 192.167 141.792C190.566 143.339 190.123 143.01 190.836 140.787C190.431 140.516 190.084 140.187 189.833 139.781C190.431 139.298 191.087 138.911 191.839 138.602C190.952 137.983 190.065 138.041 189.177 138.776C188.869 139.182 188.753 139.627 188.85 140.11C188.136 139.124 187.249 138.273 186.188 137.597C185.031 137.268 183.97 137.423 183.025 138.099C182.851 139.317 182.793 140.555 182.851 141.773C184.818 141.521 186.149 142.314 186.863 144.112V148.791C186.477 151.343 185.358 153.528 183.526 155.307C182.793 155.925 181.964 156.312 181.019 156.486C180.401 156.486 179.9 156.254 179.514 155.809C178.955 154.031 178.608 152.174 178.511 150.28C179.109 148.346 179.669 146.394 180.189 144.421C180.71 143.397 181.424 142.507 182.35 141.753C182.523 140.864 182.562 139.975 182.523 139.085C180.903 139.762 179.63 140.864 178.685 142.43C176.409 146.355 175.522 150.589 176.023 155.152C176.409 156.699 177.123 158.033 178.183 159.173C176.852 158.651 176.081 157.646 175.85 156.157C175.579 155.867 175.232 155.751 174.847 155.829V157.163H173.844C173.766 156.254 173.979 155.403 174.519 154.649C174.422 153.973 174.133 153.798 173.689 154.147C172.976 153.044 172.358 151.942 171.857 150.802C171.433 151.865 171.529 152.87 172.185 153.818C171.799 155.133 171.529 156.467 171.355 157.839C170.835 158.129 170.487 158.574 170.352 159.173C170.179 160.971 169.947 162.75 169.677 164.529C168.809 164.8 168.077 165.244 167.517 165.863C169.716 161.687 170.449 157.221 169.677 152.484C169.272 151.401 168.597 150.512 167.671 149.816C167.536 150.009 167.382 150.106 167.17 150.144V149.468C167.189 149.139 167.093 148.849 166.842 148.636C165.936 148.385 165.048 148.443 164.18 148.81C163.795 150.241 163.737 151.691 164.007 153.16C164.566 152.851 165.183 152.754 165.839 152.832C166.206 152.832 166.533 152.967 166.842 153.16C167.112 153.47 167.401 153.799 167.671 154.166C168.289 156.525 168.231 158.864 167.498 161.184C167.074 161.455 166.669 161.783 166.321 162.189C165.993 163.35 165.608 164.471 165.145 165.534C163.351 168.106 161.345 168.202 159.146 165.863C158.664 163.292 158.722 160.72 159.32 158.168C160.169 157.221 160.728 156.099 160.998 154.823C162.155 154.011 162.869 152.948 163.158 151.652C163.042 151.15 162.927 150.647 162.83 150.144C162.599 150.26 162.387 150.376 162.155 150.473C160.786 151.768 159.686 153.218 158.818 154.823C158.953 154.282 159.185 153.779 159.493 153.315C159.301 152.6 159.185 151.884 159.166 151.15C159.397 150.028 159.609 148.907 159.841 147.805C160.882 147.167 161.885 146.452 162.85 145.64C174.596 138.815 186.381 132.067 198.223 125.397H198.166Z" fill="#EFF3F3"/>
<path fill-rule="evenodd" clip-rule="evenodd" d="M207.829 111.67C208.639 111.612 208.87 111.902 208.504 112.501C192.032 122.187 175.579 131.777 159.108 141.27C158.548 141.541 157.989 141.831 157.429 142.101C157.005 141.521 157.121 141.019 157.757 140.593C174.615 131.197 191.318 121.549 207.829 111.65V111.67Z" fill="#E2E1E1"/>
<path fill-rule="evenodd" clip-rule="evenodd" d="M203.489 126.402C206.286 126.499 207.906 127.949 208.33 130.752C208.6 132.821 208.542 134.832 208.156 136.765H206.151C206.247 135.586 206.151 134.464 205.823 133.42C205.283 131.332 203.952 130.424 201.811 130.752C201.695 129.399 201.811 128.065 202.139 126.731C202.544 126.479 202.987 126.363 203.47 126.402H203.489Z" fill="#3E5C65"/>
<path fill-rule="evenodd" clip-rule="evenodd" d="M204.492 134.097C204.492 135.083 204.646 136.089 204.993 137.113C204.53 137.558 204.202 137.442 203.99 136.785C203.759 137.229 203.547 137.674 203.315 138.119C203.257 137.094 203.142 136.089 202.987 135.102C203.373 134.774 203.701 134.89 203.99 135.431C204.125 134.967 204.299 134.522 204.492 134.097Z" fill="#6E8486"/>
<path fill-rule="evenodd" clip-rule="evenodd" d="M205.842 133.42C206.17 134.464 206.285 135.586 206.17 136.765H208.176C207.481 137.094 206.69 137.21 205.842 137.094V133.42Z" fill="#74828A"/>
<path fill-rule="evenodd" clip-rule="evenodd" d="M198.165 125.397C186.323 132.067 174.519 138.815 162.792 145.64C161.827 146.452 160.824 147.186 159.783 147.805C158.722 148.172 157.719 148.617 156.774 149.139C156.697 148.501 156.928 147.998 157.449 147.631C174.364 137.713 191.395 127.949 208.523 118.359C208.89 118.823 208.774 119.21 208.195 119.539C204.8 121.433 201.464 123.386 198.185 125.397H198.165Z" fill="#E2E1E1"/>
<path fill-rule="evenodd" clip-rule="evenodd" d="M199.496 137.094C199.901 136.688 200.345 136.688 200.827 137.094V139.105C200.596 139.337 200.384 139.549 200.152 139.781C199.959 138.969 199.959 138.177 200.152 137.442C199.998 137.171 199.786 137.055 199.477 137.113L199.496 137.094Z" fill="#9DADB2"/>
<path fill-rule="evenodd" clip-rule="evenodd" d="M199.496 137.094C199.785 137.055 200.017 137.152 200.171 137.423C199.978 138.177 199.978 138.95 200.171 139.762C199.863 140.516 199.323 140.845 198.493 140.767V139.762C199.033 139.82 199.477 139.665 199.824 139.259C199.245 138.873 198.917 138.312 198.821 137.577C198.937 137.229 199.149 137.075 199.496 137.075V137.094Z" fill="#506667"/>
<path fill-rule="evenodd" clip-rule="evenodd" d="M200.827 139.105V137.094C201.483 135.354 202.042 135.354 202.505 137.094C202.505 138.138 202.042 138.911 201.174 139.433C200.962 139.395 200.866 139.279 200.846 139.105H200.827Z" fill="#556A6F"/>
<path fill-rule="evenodd" clip-rule="evenodd" d="M201.155 136.765C201.541 136.862 201.753 137.133 201.83 137.597C201.714 137.867 201.599 138.157 201.502 138.428C201.194 137.906 201.078 137.345 201.174 136.746L201.155 136.765Z" fill="#BFD0D6"/>
<path fill-rule="evenodd" clip-rule="evenodd" d="M188.811 140.11C188.927 141.019 188.695 141.792 188.136 142.449C187.692 143.01 187.249 143.571 186.805 144.131C186.111 142.333 184.761 141.541 182.793 141.792C182.735 140.555 182.793 139.337 182.967 138.119C183.912 137.442 184.973 137.287 186.13 137.616C187.191 138.293 188.078 139.124 188.792 140.129L188.811 140.11Z" fill="#3D5C65"/>
<path fill-rule="evenodd" clip-rule="evenodd" d="M208.176 115.014C208.986 115.266 208.986 115.672 208.176 116.194C190.932 125.996 173.805 135.876 156.774 145.814C156.735 145.002 157.063 144.402 157.777 143.977C174.634 134.522 191.434 124.875 208.176 115.034V115.014Z" fill="#E2E1E1"/>
<path fill-rule="evenodd" clip-rule="evenodd" d="M207.829 138.776C206.999 140.787 206.054 142.778 204.993 144.789C203.412 147.38 201.136 148.675 198.146 148.636C196.912 147.863 196.005 146.819 195.485 145.466C195.118 143.029 195.06 140.574 195.311 138.099C195.986 133.942 197.934 130.598 201.155 128.065C201.541 128.935 201.599 129.824 201.329 130.733C197.375 134.406 196.16 138.873 197.664 144.112C198.802 145.562 200.191 145.833 201.83 144.944C204.087 143.068 205.418 140.651 205.842 137.751H207.848V138.757L207.829 138.776Z" fill="#37B4A1"/>
<path fill-rule="evenodd" clip-rule="evenodd" d="M188.136 142.449H189.139C189.254 144.402 189.139 146.297 188.811 148.134C188.868 146.355 188.811 144.557 188.637 142.778C188.193 143.223 187.75 143.667 187.306 144.112C187.248 145.736 187.075 147.302 186.805 148.791V144.112C187.248 143.551 187.692 142.991 188.136 142.43V142.449Z" fill="#93D0CF"/>
<path fill-rule="evenodd" clip-rule="evenodd" d="M139.415 170.232C136.946 166.424 133.725 163.408 129.732 161.203C129.096 160.024 128.093 159.579 126.723 159.869C126.665 159.521 126.723 159.173 126.897 158.864C130.523 153.779 134.631 149.1 139.241 144.808C139.415 153.276 139.473 161.764 139.415 170.232Z" fill="#F4F3F4"/>
<path fill-rule="evenodd" clip-rule="evenodd" d="M208.176 146.471C208.986 146.413 209.217 146.703 208.851 147.302C204.337 149.835 199.882 152.464 195.504 155.171C195.06 154.727 195.06 154.282 195.504 153.837C199.843 151.556 204.067 149.1 208.195 146.471H208.176Z" fill="#E1E1E1"/>
<path fill-rule="evenodd" clip-rule="evenodd" d="M167.112 149.487C166.495 150.512 166.051 151.614 165.781 152.832C165.126 152.754 164.508 152.87 163.949 153.16C163.679 151.691 163.737 150.241 164.123 148.81C164.991 148.462 165.878 148.404 166.784 148.636C167.035 148.868 167.151 149.139 167.112 149.468V149.487Z" fill="#3A5B62"/>
<path fill-rule="evenodd" clip-rule="evenodd" d="M167.112 149.487V150.164C166.9 151.15 166.784 152.155 166.784 153.18C166.495 152.967 166.148 152.87 165.781 152.851C166.051 151.633 166.495 150.531 167.112 149.506V149.487Z" fill="#A2D6DB"/>
<path fill-rule="evenodd" clip-rule="evenodd" d="M208.176 149.816H209.179C209.16 150.512 208.832 151.014 208.176 151.324C203.99 153.779 199.766 156.196 195.484 158.516C195.079 158.129 195.079 157.743 195.484 157.337C199.786 154.901 204.01 152.387 208.176 149.816Z" fill="#E3E1E2"/>
<path fill-rule="evenodd" clip-rule="evenodd" d="M180.131 144.46C179.668 144.828 179.282 145.272 178.955 145.794C177.932 148.269 177.604 150.84 177.952 153.489C178.299 154.398 178.8 155.191 179.456 155.829C179.823 156.273 180.324 156.486 180.961 156.505C181.906 156.331 182.735 155.945 183.468 155.326C185.3 153.528 186.419 151.362 186.805 148.81C187.075 147.302 187.248 145.756 187.306 144.131C187.75 143.687 188.193 143.242 188.637 142.797C188.811 144.576 188.869 146.355 188.811 148.153C188.193 151.904 186.631 155.191 184.143 158.033C183.294 158.632 182.407 159.135 181.481 159.541C180.343 159.599 179.225 159.483 178.145 159.212C177.084 158.091 176.351 156.757 175.984 155.191C175.502 150.647 176.389 146.413 178.646 142.469C179.591 140.903 180.864 139.801 182.484 139.124C182.542 140.033 182.484 140.922 182.311 141.792C181.385 142.546 180.652 143.435 180.15 144.46H180.131Z" fill="#5BBDB0"/>
<path fill-rule="evenodd" clip-rule="evenodd" d="M180.131 144.46C179.61 146.432 179.051 148.385 178.453 150.318C178.55 152.213 178.897 154.05 179.456 155.848C178.8 155.21 178.299 154.417 177.952 153.508C177.604 150.86 177.952 148.288 178.955 145.814C179.263 145.272 179.668 144.827 180.131 144.479V144.46Z" fill="#DBEEEF"/>
<path fill-rule="evenodd" clip-rule="evenodd" d="M180.131 148.153C180.883 148.714 180.999 149.448 180.459 150.318C180.729 150.415 180.961 150.589 181.134 150.821C180.691 151.15 180.247 151.498 179.803 151.826C179.514 150.956 179.726 150.164 180.478 149.487C180.093 149.12 179.823 149.236 179.649 149.816C179.437 149.139 179.61 148.598 180.15 148.134L180.131 148.153Z" fill="#586C71"/>
<path fill-rule="evenodd" clip-rule="evenodd" d="M183.14 147.805C182.986 147.341 182.658 147.109 182.137 147.128C182.735 146.838 183.352 146.49 183.97 146.123C184.22 146.181 184.452 146.278 184.645 146.452C184.78 146.065 185.011 145.717 185.32 145.446C185.474 146.394 185.59 147.38 185.648 148.462C185.069 148.81 184.741 148.598 184.645 147.786C184.529 148.424 184.24 148.984 183.815 149.468C183.7 149.41 183.584 149.352 183.487 149.294C184.432 148.424 184.317 147.921 183.159 147.786L183.14 147.805Z" fill="#76888D"/>
<path fill-rule="evenodd" clip-rule="evenodd" d="M182.137 147.148C182.639 147.128 182.986 147.341 183.14 147.824C183.526 149.39 182.967 150.28 181.462 150.492C181.404 149.584 181.462 148.694 181.636 147.824C181.732 147.515 181.886 147.302 182.137 147.148Z" fill="#52676B"/>
<path fill-rule="evenodd" clip-rule="evenodd" d="M182.137 147.805C182.562 148.424 182.562 149.1 182.137 149.816C181.732 149.139 181.732 148.482 182.137 147.805Z" fill="#AEC3C6"/>
<path fill-rule="evenodd" clip-rule="evenodd" d="M159.107 165.882C158.857 165.631 158.683 165.283 158.606 164.877C158.355 162.75 158.413 160.623 158.779 158.516C158.779 158.11 158.587 157.762 158.278 157.511C157.217 161.261 157.159 165.051 158.104 168.879C157.834 168.57 157.545 168.241 157.275 167.874C156.503 163.35 157.005 159.019 158.779 154.823C159.647 153.218 160.747 151.768 162.116 150.473C162.348 150.357 162.56 150.241 162.791 150.144C162.907 150.647 163.023 151.15 163.119 151.652C162.83 152.948 162.097 154.011 160.959 154.823C160.708 156.099 160.149 157.221 159.281 158.168C158.683 160.72 158.625 163.292 159.107 165.863V165.882Z" fill="#81CAC9"/>
<path fill-rule="evenodd" clip-rule="evenodd" d="M208.176 153.16H209.179V154.166C208.832 154.108 208.485 154.166 208.176 154.34C204.01 156.931 199.767 159.444 195.485 161.861C195.06 161.281 195.176 160.778 195.813 160.353C200.056 158.11 204.164 155.713 208.157 153.16H208.176Z" fill="#E2E1E1"/>
<path fill-rule="evenodd" clip-rule="evenodd" d="M163.775 159.193C163.775 158.825 163.64 158.497 163.447 158.187C163.891 157.859 164.335 157.53 164.778 157.182C164.971 157.259 165.145 157.356 165.28 157.511C166.013 156.157 166.186 156.196 165.781 157.685C166.302 158.226 166.475 158.825 166.283 159.521C165.955 159.966 165.608 159.966 165.28 159.521C165.087 160.024 164.797 160.469 164.45 160.855C164.142 160.507 164.142 160.121 164.45 159.676C164.335 159.328 164.122 159.173 163.775 159.173V159.193Z" fill="#7A8E91"/>
<path fill-rule="evenodd" clip-rule="evenodd" d="M178.125 159.193C179.206 159.463 180.324 159.579 181.462 159.521C180.266 160.391 179.167 160.295 178.125 159.193Z" fill="#97D1CB"/>
<path fill-rule="evenodd" clip-rule="evenodd" d="M123.714 160.198C124.64 159.869 125.643 159.753 126.723 159.869C128.093 159.579 129.076 160.043 129.732 161.203C127.823 160.391 125.817 160.043 123.734 160.198H123.714Z" fill="#BDC7CB"/>
<path fill-rule="evenodd" clip-rule="evenodd" d="M188.811 157.839C189.158 157.781 189.505 157.839 189.814 158.013C189.37 158.458 188.927 158.903 188.483 159.347C184.51 161.435 180.613 163.678 176.794 166.037C176.409 166.288 176.081 166.23 175.792 165.863C176.428 164.993 177.2 164.258 178.125 163.698C181.751 161.783 185.3 159.831 188.811 157.839Z" fill="#E3E2E2"/>
<path fill-rule="evenodd" clip-rule="evenodd" d="M189.139 160.855C189.64 160.855 189.814 161.087 189.64 161.532C185.223 164.606 180.613 167.294 175.792 169.556C175.927 168.744 176.37 168.144 177.122 167.719C181.308 165.65 185.3 163.349 189.139 160.855Z" fill="#E2E1E1"/>
<path fill-rule="evenodd" clip-rule="evenodd" d="M208.176 156.505H209.179V157.511C204.608 160.005 200.036 162.576 195.485 165.206C195.176 164.8 195.06 164.355 195.157 163.872C199.651 161.667 203.99 159.212 208.176 156.505Z" fill="#E2E1E1"/>
<path fill-rule="evenodd" clip-rule="evenodd" d="M167.44 165.882C166.282 167.777 164.72 169.266 162.772 170.406C161.229 170.754 159.782 170.58 158.432 169.904C158.432 169.536 158.297 169.208 158.104 168.898C157.159 165.07 157.217 161.281 158.278 157.53C158.587 157.781 158.76 158.129 158.78 158.535C158.413 160.643 158.355 162.77 158.606 164.896C158.683 165.302 158.857 165.65 159.107 165.902C161.326 168.241 163.312 168.125 165.106 165.573C166.437 164.452 167.228 163.002 167.44 161.223C168.153 158.883 168.211 156.544 167.613 154.205C167.324 153.837 167.054 153.509 166.784 153.199C166.784 152.174 166.9 151.169 167.112 150.183C167.324 150.144 167.478 150.028 167.613 149.854C168.539 150.55 169.214 151.459 169.619 152.522C170.372 157.259 169.658 161.725 167.459 165.902L167.44 165.882Z" fill="#79C7C7"/>
<path fill-rule="evenodd" clip-rule="evenodd" d="M167.44 161.184C167.228 162.963 166.437 164.413 165.106 165.534C165.55 164.452 165.955 163.349 166.283 162.189C166.63 161.783 167.015 161.455 167.459 161.184H167.44Z" fill="#D4EBEE"/>
<path fill-rule="evenodd" clip-rule="evenodd" d="M161.441 159.193H162.116V161.532C161.885 161.861 161.673 162.209 161.441 162.537V159.193Z" fill="#A2B1B8"/>
<path fill-rule="evenodd" clip-rule="evenodd" d="M163.448 158.187C163.66 158.477 163.756 158.825 163.775 159.193C164.026 160.43 163.583 161.339 162.445 161.861C162.232 161.822 162.136 161.706 162.117 161.532V159.193C162.367 158.613 162.811 158.265 163.448 158.187Z" fill="#4F6266"/>
<path fill-rule="evenodd" clip-rule="evenodd" d="M162.444 159.193C162.83 159.289 163.042 159.56 163.12 160.024C163.004 160.295 162.888 160.585 162.792 160.855C162.483 160.333 162.367 159.773 162.464 159.173L162.444 159.193Z" fill="#CDE7EB"/>
<path fill-rule="evenodd" clip-rule="evenodd" d="M161.441 159.193V162.537C161.191 161.822 160.863 161.087 160.438 160.372C160.593 159.831 160.94 159.425 161.441 159.193Z" fill="#4F656F"/>
<path fill-rule="evenodd" clip-rule="evenodd" d="M218.514 160.527H219.189C220.597 161.416 222.044 162.305 223.529 163.195C223.972 163.64 223.972 164.084 223.529 164.529C212.708 170.928 201.791 177.173 190.817 183.264C190.489 182.664 190.392 182.007 190.489 181.253C192.514 180.402 194.636 179.687 196.834 179.087C197.22 178.836 197.22 178.565 196.834 178.256C197.278 177.869 197.606 177.425 197.837 176.922C200.576 175.008 203.45 173.326 206.517 171.895C208.407 171.74 209.969 170.967 211.185 169.556C212.477 169.846 213.248 169.285 213.518 167.874C213.634 167.545 213.846 167.313 214.193 167.197C215.37 166.443 216.585 165.766 217.858 165.186C218.514 163.775 218.726 162.209 218.533 160.507L218.514 160.527Z" fill="#DEE1DF"/>
<path fill-rule="evenodd" clip-rule="evenodd" d="M189.139 164.2C189.853 164.394 189.968 164.78 189.467 165.38C185.185 167.738 180.961 170.194 176.775 172.746C176.39 172.997 176.062 172.939 175.772 172.572C176.197 171.914 176.737 171.412 177.451 171.064C181.385 168.802 185.281 166.52 189.139 164.2Z" fill="#E1E1E1"/>
<path fill-rule="evenodd" clip-rule="evenodd" d="M204.492 166.54C201.715 168.376 198.821 170.058 195.812 171.567C195.948 171.083 196.275 170.812 196.815 170.735C196.7 170.619 196.584 170.503 196.488 170.406C198.031 169.382 199.709 168.589 201.502 168.067C202.255 167.081 203.258 166.578 204.511 166.559L204.492 166.54Z" fill="#E0F1F3"/>
<path fill-rule="evenodd" clip-rule="evenodd" d="M213.519 167.893C213.249 169.285 212.477 169.846 211.185 169.575C209.97 170.986 208.407 171.76 206.517 171.914C208.774 170.445 211.108 169.111 213.519 167.893Z" fill="#CAE6E5"/>
<path fill-rule="evenodd" clip-rule="evenodd" d="M123.714 160.198C125.797 160.043 127.803 160.391 129.713 161.203C133.686 163.408 136.927 166.424 139.395 170.232V170.561C139.511 170.793 139.627 171.006 139.723 171.238V171.566C139.839 173.964 139.723 176.323 139.395 178.585C136.348 172.417 132.008 167.332 126.376 163.369C125.99 163.118 125.662 163.176 125.373 163.543C131.854 167.932 136.637 173.732 139.723 180.943V181.272C139.781 184.056 139.723 186.86 139.55 189.644C138.219 187.478 136.714 185.468 135.036 183.631C134.246 182.722 133.474 181.833 132.703 180.963C128.903 177.27 125.122 173.597 121.361 169.923C120.204 167.854 119.703 165.612 119.857 163.234C120.648 161.532 121.921 160.527 123.695 160.217L123.714 160.198Z" fill="#2D464E"/>
<path fill-rule="evenodd" clip-rule="evenodd" d="M167.44 165.882C167.498 166.675 167.613 167.448 167.768 168.222C167.42 169.014 167.093 169.788 166.765 170.561C165.723 171.296 164.624 171.856 163.428 172.243C163.293 171.489 162.907 171.373 162.251 171.914C161.673 171.876 161.615 171.702 162.078 171.412C160.612 171.296 159.281 171.682 158.066 172.591C157.005 171.663 155.906 170.832 154.729 170.078C154.999 169.749 155.115 169.343 155.057 168.898C156.176 169.188 156.966 169.904 157.391 171.064C157.699 171.218 158.047 171.276 158.394 171.238V169.904C159.744 170.58 161.19 170.754 162.733 170.406C164.682 169.285 166.244 167.777 167.401 165.882H167.44Z" fill="#EAF5F3"/>
<path fill-rule="evenodd" clip-rule="evenodd" d="M188.811 167.545H189.814C189.872 167.99 189.756 168.376 189.486 168.724C185.069 171.238 180.671 173.751 176.293 176.245C176.119 176.129 175.965 176.013 175.792 175.917C176.062 175.472 176.389 175.085 176.794 174.737C180.401 172.649 184.066 170.638 187.808 168.724C188.213 168.376 188.541 167.99 188.811 167.545Z" fill="#E2E1E1"/>
<path fill-rule="evenodd" clip-rule="evenodd" d="M139.415 178.585C139.531 178.817 139.646 179.029 139.743 179.261C140.148 179.861 140.148 180.421 139.743 180.944C136.657 173.732 131.873 167.932 125.393 163.543C125.682 163.176 126.01 163.118 126.396 163.369C132.028 167.352 136.367 172.417 139.415 178.585Z" fill="#C7D8DC"/>
<path fill-rule="evenodd" clip-rule="evenodd" d="M163.448 172.243C164.643 171.876 165.762 171.315 166.784 170.561C168.077 169.788 169.407 169.13 170.796 168.55C170.873 168.937 170.758 169.285 170.468 169.556C166.129 172.263 161.75 174.815 157.275 177.251C157.102 177.135 156.948 177.019 156.774 176.922C157.044 176.477 157.372 176.091 157.777 175.743C159.783 174.737 161.673 173.558 163.448 172.224V172.243Z" fill="#E3E2E2"/>
<path fill-rule="evenodd" clip-rule="evenodd" d="M170.121 171.895C170.449 171.895 170.68 172.05 170.796 172.398C166.379 175.569 161.692 178.295 156.774 180.595C156.716 180.151 156.832 179.764 157.102 179.416C161.577 177.057 165.916 174.544 170.121 171.895Z" fill="#E2E1E1"/>
<path fill-rule="evenodd" clip-rule="evenodd" d="M139.742 171.566C140.186 174.138 140.186 176.69 139.742 179.261C139.627 179.029 139.511 178.817 139.415 178.585C139.742 176.303 139.858 173.964 139.742 171.566Z" fill="#186E67"/>
<path fill-rule="evenodd" clip-rule="evenodd" d="M169.793 175.24H170.796C170.777 175.936 170.449 176.439 169.793 176.748C165.646 179.068 161.519 181.466 157.449 183.94C157.044 183.554 157.044 183.167 157.449 182.761C161.615 180.306 165.723 177.792 169.793 175.24Z" fill="#E2E1E1"/>
<path fill-rule="evenodd" clip-rule="evenodd" d="M197.818 176.922C197.587 177.425 197.259 177.869 196.815 178.256C197.201 178.565 197.201 178.836 196.815 179.087C194.616 179.687 192.495 180.422 190.469 181.253C190.373 182.007 190.469 182.664 190.797 183.264C189.409 184.462 187.866 185.352 186.13 185.932C185.821 185.584 185.705 185.12 185.802 184.598C184.085 185.545 182.311 186.318 180.459 186.937C186.149 183.418 191.935 180.073 197.818 176.903V176.922Z" fill="#D4E4E2"/>
<path fill-rule="evenodd" clip-rule="evenodd" d="M132.741 180.924C133.513 181.794 134.304 182.703 135.075 183.592C135.094 183.747 135.036 183.844 134.901 183.921C134.111 183.07 133.262 182.278 132.394 181.582C132.683 181.466 132.78 181.253 132.722 180.905L132.741 180.924Z" fill="#AABAC1"/>
<path fill-rule="evenodd" clip-rule="evenodd" d="M169.793 178.585H170.796C170.873 179.223 170.642 179.725 170.121 180.093C165.762 182.355 161.48 184.752 157.275 187.285C157.102 187.169 156.948 187.053 156.774 186.956C157.044 186.512 157.372 186.125 157.777 185.777C161.577 183.457 165.473 181.272 169.465 179.261C169.735 179.107 169.851 178.894 169.793 178.585Z" fill="#E2E1E1"/>
<path fill-rule="evenodd" clip-rule="evenodd" d="M139.742 194.651C140.032 195.289 140.128 195.947 140.07 196.662H139.742C136.869 189.818 131.969 185.081 125.064 182.452C126.472 182.452 127.803 182.761 129.076 183.457C133.725 186.164 137.293 189.895 139.762 194.671L139.742 194.651Z" fill="#D0E2E4"/>
<path fill-rule="evenodd" clip-rule="evenodd" d="M217.858 33.038C217.974 76.6556 217.858 120.254 217.53 163.852C217.048 164.336 216.662 164.896 216.354 165.534C215.737 165.09 215.582 165.148 215.852 165.708C214.984 165.921 214.425 166.424 214.174 167.216C213.846 167.332 213.615 167.545 213.499 167.893C211.069 169.111 208.735 170.445 206.498 171.914C203.45 173.345 200.557 175.008 197.818 176.941C191.935 180.112 186.149 183.457 180.459 186.976C171.664 191.887 162.888 196.913 154.093 202.037C154.073 201.708 154.17 201.418 154.421 201.206C153.437 200.703 152.434 200.587 151.412 200.877C150.968 200.432 150.968 199.988 151.412 199.543C150.93 199.175 150.37 198.943 149.734 198.866C149.29 198.595 149.078 198.209 149.059 197.687H149.386C149.869 198.054 150.428 198.112 151.065 197.861C166.07 189.18 180.98 180.421 195.793 171.605C198.802 170.097 201.695 168.415 204.473 166.578C206.536 165.148 208.754 164.026 211.146 163.233C212.766 163.001 214.039 162.228 214.984 160.894C215.216 123.869 215.216 86.8447 214.984 49.82C214.464 49.0853 213.731 48.6406 212.824 48.4859C212.014 48.9499 211.127 49.2399 210.162 49.3173C210.413 49.5493 210.529 49.82 210.49 50.1486C205.823 52.9327 201.136 55.7168 196.468 58.5203H196.14C196.256 56.6062 196.14 54.7115 195.812 52.8361C194.597 51.966 193.266 51.4247 191.8 51.154C191.935 49.8393 191.704 48.6212 191.125 47.4805C195.137 45.5278 198.918 43.5751 202.467 41.6223C202.756 41.3903 202.968 41.1196 203.142 40.791C204.318 40.6556 205.09 40.0369 205.476 38.9542C207.559 38.0842 209.565 37.0788 211.474 35.9381C211.783 35.2807 212.246 34.7201 212.805 34.256C214.02 33.8114 215.177 33.3087 216.315 32.748C216.797 32.9607 217.299 33.0767 217.82 33.0767L217.858 33.038Z" fill="#5BBDB0"/>
<path fill-rule="evenodd" clip-rule="evenodd" d="M132.394 181.601C133.262 182.297 134.091 183.09 134.901 183.94C135.036 183.863 135.094 183.747 135.075 183.612C136.753 185.468 138.257 187.478 139.588 189.624C139.762 186.84 139.82 184.056 139.762 181.253C140.205 185.719 140.205 190.166 139.762 194.632C137.293 189.876 133.725 186.125 129.076 183.418C127.803 182.742 126.472 182.394 125.064 182.413C131.989 185.062 136.888 189.798 139.742 196.623C139.858 198.479 139.742 200.258 139.415 201.979C138.894 200.664 138.103 199.562 137.081 198.634C136.058 197.107 134.824 195.695 133.416 194.458C129.848 192.003 126.299 189.547 122.731 187.092C119.548 184.288 119.664 181.736 123.058 179.397C126.511 178.759 129.636 179.474 132.413 181.562L132.394 181.601Z" fill="#3A5C65"/>
<path fill-rule="evenodd" clip-rule="evenodd" d="M186.149 185.951C172.32 194.207 158.413 202.308 144.43 210.215C143.755 210.447 143.099 210.447 142.424 210.215C138.836 208.282 135.326 206.213 131.912 204.028C131.854 203.854 131.796 203.7 131.738 203.526C132.163 203.081 132.626 202.636 133.069 202.192C134.477 201.457 135.866 200.722 137.235 200.026C137.293 199.582 137.235 199.137 137.062 198.692C138.084 199.62 138.875 200.722 139.396 202.037C139.511 202.269 139.627 202.482 139.723 202.714C139.627 203.893 139.723 205.014 140.051 206.058C140.804 206.851 141.691 207.47 142.713 207.895C143.234 208.146 143.677 208.088 144.044 207.721C147.381 205.826 150.718 203.932 154.054 202.037C162.85 196.913 171.645 191.887 180.421 186.976C182.272 186.357 184.047 185.564 185.764 184.636C185.667 185.178 185.783 185.622 186.091 185.97L186.149 185.951Z" fill="#DDE2E1"/>
<path fill-rule="evenodd" clip-rule="evenodd" d="M139.742 196.662H140.07C140.186 198.731 140.07 200.742 139.742 202.675C139.627 202.443 139.511 202.23 139.415 201.998C139.742 200.278 139.858 198.499 139.742 196.643V196.662Z" fill="#207E78"/>
</g>
<defs>
<clipPath id="clip0_55_2">
<rect width="104" height="180" fill="white" transform="translate(119.857 30.3699)"/>
</clipPath>
</defs>
</svg>
