<svg width="344" height="241" viewBox="0 0 344 241" fill="none" xmlns="http://www.w3.org/2000/svg">
<rect x="0.137695" y="0.558594" width="343.438" height="239.623" rx="23" fill="white"/>
<g clip-path="url(#clip0_55_2)">
<path d="M146.983 130.957H98.1411V81.1117H115.338L122.936 93.7838L189.849 25.8699H208.953V89.1034L216.519 96.6813V110.929H195.682V97.1429L205.775 89.0079V29.0539H191.168L124.7 96.5061H146.983V130.973V130.957ZM101.32 127.773H143.804V99.6742H109.68L104.705 90.377L107.503 88.8805L111.587 96.5061H120.854L113.542 84.2956H101.336V127.773H101.32ZM198.877 107.746H213.356V98.0026L207.269 91.9053L198.893 98.6712V107.746H198.877Z" fill="#232B30"/>
<path d="M106.749 128.675L102.069 138.433L104.935 139.812L109.615 130.054L106.749 128.675Z" fill="#232B30"/>
<path d="M140.933 128.694L138.068 130.074L142.649 139.615L145.513 138.235L140.933 128.694Z" fill="#232B30"/>
<path d="M94.9463 179.751C94.0722 179.751 93.3569 179.034 93.3569 178.159V139.028C93.3569 138.152 94.0722 137.436 94.9463 137.436H223.846V132.151C223.846 131.275 224.561 130.559 225.435 130.559H238.246C239.12 130.559 239.835 131.275 239.835 132.151V177.506C239.835 178.382 239.12 179.098 238.246 179.098C237.372 179.098 236.656 178.382 236.656 177.506V133.743H227.025V139.028C227.025 139.904 226.309 140.62 225.435 140.62H96.5357V178.159C96.5357 179.034 95.8205 179.751 94.9463 179.751Z" fill="#232B30"/>
<path d="M144.456 101.919L140.228 77.8481L157.235 76.7178L154.739 62.8676L168.615 62.6288L169.06 48.9537L179.295 48.1736L178.723 37.3322H190.246L198.622 26.4749L201.133 28.4171L144.456 101.903V101.919ZM143.963 80.7933L146.331 94.2615L157.409 79.8859L143.963 80.7774V80.7933ZM158.522 65.9879L160.35 76.1129L168.281 65.8287L158.522 65.9879ZM172.127 51.9148L171.825 61.2119L179.422 51.3576L172.127 51.9148ZM182.061 40.5321L182.426 47.4731L187.783 40.5321H182.061Z" fill="#232B30"/>
<path d="M205.965 173.494L199.48 160.376L200.275 118.157L214.246 118.269L213.706 160.472L205.965 173.51V173.494ZM202.675 159.644L206.219 166.824L210.527 159.565L211.019 121.421L203.39 121.357L202.675 159.66V159.644Z" fill="#232B30"/>
<path d="M225.435 178.955C224.561 178.955 223.846 178.238 223.846 177.363V139.028C223.846 138.152 224.561 137.436 225.435 137.436C226.309 137.436 227.024 138.152 227.024 139.028V177.363C227.024 178.238 226.309 178.955 225.435 178.955Z" fill="#232B30"/>
<path d="M248.767 214.87C247.893 214.87 247.178 214.154 247.178 213.278V140.508H238.246C237.371 140.508 236.656 139.792 236.656 138.917C236.656 138.041 237.371 137.325 238.246 137.325H250.357V213.278C250.357 214.154 249.642 214.87 248.767 214.87Z" fill="#232B30"/>
</g>
<defs>
<clipPath id="clip0_55_2">
<rect width="157" height="189" fill="white" transform="translate(93.3569 25.8699)"/>
</clipPath>
</defs>
</svg>
