<svg width="344" height="241" viewBox="0 0 344 241" fill="none" xmlns="http://www.w3.org/2000/svg">
<rect x="0.137695" y="0.558594" width="343.438" height="239.623" rx="23" fill="white"/>
<path fill-rule="evenodd" clip-rule="evenodd" d="M92.4238 54.5759C118.111 52.9605 143.904 51.4775 169.751 50.127C195.676 48.7764 221.47 47.7171 247.157 46.9227L246.336 46.9756C195.094 49.2266 143.799 51.7688 92.4238 54.5759Z" fill="#2DA1B0"/>
<path fill-rule="evenodd" clip-rule="evenodd" d="M92.4248 54.576C143.8 51.7689 195.095 49.2267 246.337 46.9757C194.698 49.518 143.137 52.3515 91.6569 55.4499L90.8359 55.5028C91.1272 54.8143 91.6569 54.523 92.4513 54.6025L92.4248 54.576Z" fill="#1C4959"/>
<path fill-rule="evenodd" clip-rule="evenodd" d="M246.337 46.9757C194.962 50.4713 143.402 53.4373 91.6831 55.8471V55.4234C143.137 52.3515 194.697 49.518 246.337 46.9757Z" fill="#37394C"/>
<path fill-rule="evenodd" clip-rule="evenodd" d="M246.337 46.9756L247.158 46.9227C247.449 47.1875 247.74 47.4523 248.032 47.6906C247.449 47.6906 246.893 47.8495 246.416 48.1938C246.655 51.4775 246.31 51.504 245.383 48.2468C245.225 48.4851 245.039 48.644 244.801 48.6969C194.3 51.3981 143.826 53.9668 93.3515 56.3767C92.7159 56.3237 92.1598 56.1383 91.6831 55.847C143.402 53.4372 194.962 50.4712 246.337 46.9756Z" fill="#264154"/>
<path fill-rule="evenodd" clip-rule="evenodd" d="M90.8352 55.4762L91.6562 55.4233V55.847C92.1593 56.1383 92.7154 56.3237 93.351 56.3766C143.825 53.9403 194.3 51.398 244.774 48.6969L244.827 49.5178C110.246 56.7209 110.264 56.9945 244.88 50.3388V50.7625C194.406 53.3842 143.931 56.0059 93.4834 58.6541C93.7482 63.7386 94.0131 68.7966 94.2779 73.8811V74.3048C95.549 98.2973 96.7936 122.316 98.0648 146.309C148.619 144.084 199.225 141.595 249.911 138.814C199.384 141.78 148.804 144.64 98.1177 147.342C98.4885 147.739 98.6474 148.215 98.5944 148.772C97.2438 148.666 95.9992 149.01 94.9399 149.778C92.7684 118.927 91.153 88.0488 90.0938 57.1711C92.0004 87.3338 93.8012 117.497 95.4431 147.659C95.1253 132.459 94.5427 117.232 93.6688 101.952C92.8479 86.5394 91.7886 71.1799 90.438 55.9264C90.438 55.6616 90.5439 55.5027 90.8352 55.5027V55.4762Z" fill="#313A4C"/>
<path fill-rule="evenodd" clip-rule="evenodd" d="M90.4385 55.9265C91.789 71.2064 92.8483 86.5394 93.6692 101.952C94.5431 117.232 95.1257 132.459 95.4435 147.659C93.8017 117.497 92.0009 87.3339 90.0942 57.1711C91.1535 88.0489 92.7689 118.927 94.9139 149.751C95.9996 148.957 97.2178 148.639 98.5684 148.745C98.6213 148.189 98.436 147.712 98.0917 147.315C148.751 144.614 199.358 141.754 249.885 138.788C248.614 114.504 247.343 90.2469 246.098 65.9631C245.966 60.7991 245.569 55.7411 244.88 50.7625V50.3388C245.383 50.0475 245.383 49.7562 244.827 49.5179L244.774 48.6969C245.013 48.644 245.225 48.4851 245.357 48.2467C246.284 51.504 246.628 51.4775 246.39 48.1938C246.893 47.8495 247.423 47.6906 248.005 47.6906C248.588 48.1143 249.117 48.6175 249.541 49.253C251.501 80.1573 253.037 111.035 254.149 141.833C200.656 144.614 147.162 147.421 93.6957 150.202C92.0274 119.377 90.4914 88.4991 89.0879 57.6478C89.3262 56.8798 89.7764 56.2972 90.4385 55.9265Z" fill="#2D4052"/>
<path fill-rule="evenodd" clip-rule="evenodd" d="M245.675 65.9896H246.098C247.369 90.247 248.641 114.531 249.885 138.788C199.226 141.569 148.592 144.058 98.0386 146.282C148.513 143.661 198.987 141.013 249.461 138.391C248.243 114.796 246.999 91.2003 245.781 67.6315L245.728 66.8106L245.675 65.9896Z" fill="#68727C"/>
<path fill-rule="evenodd" clip-rule="evenodd" d="M94.2789 74.2784C94.5437 74.2784 94.7026 74.3843 94.7026 74.6756C144.939 72.8749 195.28 70.518 245.755 67.6315C246.973 91.2268 248.218 114.822 249.436 138.391C198.961 141.013 148.487 143.661 98.0129 146.282C96.7682 122.29 95.4971 98.2709 94.2524 74.2784H94.2789Z" fill="#E5E5E4"/>
<path fill-rule="evenodd" clip-rule="evenodd" d="M172.188 136.219C173.009 136.378 173.856 136.537 174.677 136.696C192.659 136.087 210.64 135.081 228.568 133.677C228.356 134.207 227.985 134.577 227.376 134.763C209.554 135.954 191.732 136.908 173.883 137.543C173.194 137.199 172.638 136.749 172.162 136.193L172.188 136.219Z" fill="#D44645"/>
<path fill-rule="evenodd" clip-rule="evenodd" d="M228.567 133.704C210.639 135.107 192.658 136.113 174.677 136.723C173.83 136.564 173.009 136.405 172.188 136.246C169.99 133.28 170.413 130.711 173.432 128.54C191.122 127.348 208.812 126.421 226.502 125.786C230.077 126.686 231.242 128.91 229.945 132.406C229.547 132.936 229.097 133.359 228.567 133.704Z" fill="#D83534"/>
<path fill-rule="evenodd" clip-rule="evenodd" d="M144.063 126.977C150.234 126.659 156.404 126.342 162.574 126.024C162.786 130.128 162.998 134.26 163.21 138.364L144.699 139.318L144.063 126.977Z" fill="#CBCACA"/>
<path fill-rule="evenodd" clip-rule="evenodd" d="M123.488 128.036L141.999 127.083L142.635 139.424C136.464 139.741 130.294 140.059 124.124 140.377L123.488 128.036Z" fill="#CBCACA"/>
<path fill-rule="evenodd" clip-rule="evenodd" d="M103.335 129.096L121.846 128.142L122.481 140.483L103.971 141.436C103.759 137.331 103.547 133.2 103.335 129.096Z" fill="#CBCACA"/>
<path fill-rule="evenodd" clip-rule="evenodd" d="M212.837 116.782C218.187 116.437 223.536 116.226 228.885 116.146C230.05 117.179 230.103 118.291 229.044 119.43C223.562 119.986 218.081 120.277 212.599 120.277C211.434 119.033 211.513 117.867 212.837 116.755V116.782Z" fill="#9EABB9"/>
<path fill-rule="evenodd" clip-rule="evenodd" d="M191.864 117.867C197.213 117.523 202.562 117.311 207.912 117.232C209.077 118.265 209.13 119.377 208.071 120.516C202.748 121.072 197.398 121.336 192.023 121.363C190.884 120.251 190.831 119.086 191.837 117.867H191.864Z" fill="#9EAAB9"/>
<path fill-rule="evenodd" clip-rule="evenodd" d="M170.889 118.98C176.239 118.635 181.588 118.423 186.937 118.344C188.394 119.244 188.606 120.33 187.52 121.601C182.038 122.157 176.557 122.449 171.075 122.449C169.936 121.336 169.883 120.171 170.889 118.953V118.98Z" fill="#9EAAB9"/>
<path fill-rule="evenodd" clip-rule="evenodd" d="M170.228 106.639C180.371 106.03 190.54 105.58 200.683 105.262C201.848 106.295 201.901 107.407 200.841 108.546C190.699 109.34 180.556 109.87 170.387 110.135C169.249 109.023 169.196 107.857 170.202 106.639H170.228Z" fill="#CBCACA"/>
<path fill-rule="evenodd" clip-rule="evenodd" d="M169.83 98.8005C185.455 97.9266 201.105 97.1586 216.756 96.5496C217.921 97.5824 217.974 98.6946 216.915 99.8333C201.291 100.919 185.667 101.74 170.016 102.27C168.877 101.157 168.824 99.9922 169.83 98.774V98.8005Z" fill="#CBCACA"/>
<path fill-rule="evenodd" clip-rule="evenodd" d="M169.408 90.9884C182.993 90.2204 196.552 89.5848 210.164 89.0817C211.673 89.9291 211.858 91.0148 210.746 92.3389C197.055 93.3188 183.337 94.0338 169.593 94.4839C168.455 93.3717 168.402 92.2065 169.408 90.9884Z" fill="#CBCACA"/>
<path fill-rule="evenodd" clip-rule="evenodd" d="M169.01 83.1762C191.917 81.905 214.824 80.7928 237.73 79.7865C238.896 80.8193 238.949 81.9315 237.889 83.0702C215.009 84.5267 192.102 85.7449 169.169 86.6453C168.03 85.533 167.977 84.3679 168.984 83.1497L169.01 83.1762Z" fill="#304050"/>
<path fill-rule="evenodd" clip-rule="evenodd" d="M101.137 86.7248C120.76 85.692 140.356 84.6857 159.979 83.6529C160.668 96.8143 161.356 109.976 162.045 123.164C142.422 124.197 122.825 125.203 103.202 126.236C102.514 113.074 101.825 99.9127 101.137 86.7248Z" fill="#CBCACA"/>
<path fill-rule="evenodd" clip-rule="evenodd" d="M94.728 74.6756C145.07 72.0539 195.385 69.4322 245.727 66.8105L245.78 67.6315C195.332 70.5445 144.964 72.8749 94.728 74.6756Z" fill="#DBE9E9"/>
<path fill-rule="evenodd" clip-rule="evenodd" d="M94.2783 74.2784V73.8547C94.2783 73.8547 94.5431 73.8547 94.6755 73.8547C145.017 71.233 195.333 68.6113 245.675 65.9896L245.728 66.8106C195.386 69.4323 145.07 72.054 94.7285 74.6757C94.7285 74.4108 94.5696 74.2784 94.3048 74.2784H94.2783Z" fill="#F9CCCC"/>
<path fill-rule="evenodd" clip-rule="evenodd" d="M244.88 50.7626C245.542 55.7412 245.939 60.7992 246.098 65.9631H245.674C245.542 60.9581 245.145 56.0325 244.483 51.1863C194.3 53.808 144.09 56.4297 93.9072 59.0514L94.6487 73.4575V73.8812C94.6487 73.8812 94.3839 73.8812 94.2515 73.8812C93.9867 68.7967 93.7218 63.7387 93.457 58.6541C143.931 56.0325 194.406 53.3843 244.88 50.7626Z" fill="#95363D"/>
<path fill-rule="evenodd" clip-rule="evenodd" d="M244.483 51.1862C245.145 56.0324 245.542 60.958 245.675 65.9895C195.333 68.6112 145.017 71.2329 94.6753 73.8546V73.4309C94.6753 73.4309 94.9401 73.4309 95.0725 73.4309C144.593 70.8622 194.088 68.267 243.609 65.6982L244.43 65.6453C245.012 60.958 245.039 56.1383 244.509 51.2127L244.483 51.1862Z" fill="#C43433"/>
<path fill-rule="evenodd" clip-rule="evenodd" d="M244.483 51.1862C245.012 56.1383 244.986 60.9315 244.403 65.6188C244.165 61.0904 243.927 56.562 243.688 52.0336C193.929 54.5229 144.143 57.2506 94.3839 60.243C143.905 57.9391 193.426 55.6352 242.947 53.3312C193.452 56.1913 143.958 59.0513 94.4633 61.8849C136.225 59.9782 177.934 58.0715 219.59 56.1913L217.127 56.3237C193.399 57.4889 169.672 58.7865 145.97 60.243C145.759 60.5608 145.494 60.7726 145.176 60.905C144.567 59.8458 143.958 59.8722 143.322 61.011L142.66 60.4284C140.648 60.19 138.741 60.3754 136.914 60.9315C125.262 61.1434 113.583 61.5936 101.931 62.3351L94.5163 62.7323L95.0724 73.4309H94.6487C94.4104 68.6642 94.1456 63.8445 93.9072 59.0513C144.09 56.4296 194.3 53.8079 244.483 51.2127V51.1862Z" fill="#DC3231"/>
<path fill-rule="evenodd" clip-rule="evenodd" d="M235.559 61.9642C233.864 60.7461 233.361 59.1042 234.076 57.0916C236.353 54.6288 238.631 54.6553 240.882 57.1446C241.729 60.137 240.643 61.9642 237.651 62.6793C236.83 62.7587 236.115 62.5204 235.559 61.9642Z" fill="#CEC6C6"/>
<path fill-rule="evenodd" clip-rule="evenodd" d="M234.076 57.0918C233.387 59.1044 233.89 60.7462 235.559 61.9644C235.559 62.3881 235.691 62.7059 236.035 62.9707C237.386 62.9707 238.684 63.1296 239.981 63.3944C240.352 63.1561 240.67 62.8648 240.961 62.5205C240.564 61.4083 240.961 61.117 242.153 61.6201C242.471 61.1964 242.788 60.7727 243.106 60.3225C243.397 62.0968 243.556 63.8711 243.583 65.6719C194.062 68.2406 144.567 70.8358 95.0464 73.4045L94.4902 62.7059L101.905 62.3087C99.8925 63.8976 99.5218 65.8308 100.766 68.1347C101.296 68.7438 101.932 69.1939 102.7 69.4852C113.822 69.1675 124.944 68.6113 136.014 67.7374C138.715 65.8308 139.006 63.5268 136.888 60.8787C138.715 60.3225 140.622 60.1372 142.634 60.3755L143.296 60.9581C143.932 59.8459 144.541 59.8194 145.15 60.8522C143.376 63.5004 143.905 65.5924 146.712 67.1548C170.175 66.2015 193.638 64.9833 217.074 63.4739C219.352 62.3881 220.146 60.6403 219.484 58.204C218.743 57.4625 217.948 56.8005 217.101 56.2708L219.564 56.1384C220.464 56.2708 221.444 56.2708 222.45 56.1914C223.006 56.5092 223.324 56.9594 223.351 57.5949C222.609 59.8988 223.245 61.7261 225.284 63.0766C229.521 63.262 231.057 61.3024 229.945 57.2771C229.865 56.6151 230.104 56.1119 230.686 55.7942C230.395 55.6617 230.13 55.5558 229.839 55.4234C231.878 54.629 233.281 55.1586 234.049 57.0653L234.076 57.0918Z" fill="#D93332"/>
<path fill-rule="evenodd" clip-rule="evenodd" d="M229.971 57.3035C231.11 61.3552 229.547 63.2884 225.31 63.103C223.271 61.7525 222.636 59.9252 223.377 57.6213C225.469 55.3174 227.641 55.2115 229.971 57.2771V57.3035Z" fill="#CEC6C5"/>
<path fill-rule="evenodd" clip-rule="evenodd" d="M217.127 56.3237C217.948 56.8798 218.743 57.5154 219.511 58.2568C220.173 60.6932 219.378 62.4674 217.101 63.5267C193.664 65.0362 170.202 66.2543 146.739 67.2077C143.932 65.6453 143.402 63.5267 145.176 60.905C145.494 60.7726 145.759 60.5608 145.971 60.243C169.698 58.813 193.4 57.4889 217.127 56.3237Z" fill="#C11818"/>
<path fill-rule="evenodd" clip-rule="evenodd" d="M101.906 62.335C113.584 61.5935 125.236 61.1168 136.888 60.9315C139.007 63.5796 138.715 65.8571 136.014 67.7902C124.918 68.6377 113.823 69.2203 102.7 69.538C101.959 69.2467 101.297 68.7966 100.767 68.1875C99.5224 65.8836 99.8932 63.9504 101.906 62.3615V62.335Z" fill="#C11818"/>
<path fill-rule="evenodd" clip-rule="evenodd" d="M244.43 65.6188L243.609 65.6718C243.609 63.871 243.423 62.0967 243.132 60.3224C242.814 60.7461 242.496 61.1699 242.179 61.62C240.987 61.0904 240.59 61.3817 240.987 62.5204C240.696 62.8647 240.378 63.156 240.007 63.3943C238.736 63.1295 237.412 62.9971 236.061 62.9706C235.744 62.7058 235.585 62.388 235.585 61.9643C236.167 62.5204 236.856 62.7588 237.677 62.6793C240.669 61.9643 241.728 60.1371 240.907 57.1446C238.657 54.6553 236.379 54.6288 234.102 57.0917C233.334 55.2114 231.93 54.6553 229.891 55.4498C230.182 55.5822 230.447 55.6881 230.738 55.8205C230.156 56.1383 229.891 56.6415 229.997 57.3035C227.693 55.2114 225.495 55.3439 223.403 57.6478C223.377 57.0122 223.059 56.562 222.503 56.2442C221.47 56.3237 220.516 56.3237 219.616 56.1913C177.987 58.098 136.278 59.9782 94.4896 61.8849C143.984 59.0248 193.479 56.1648 242.973 53.3312C193.452 55.6352 143.931 57.9391 94.4102 60.243C144.169 57.2241 193.955 54.4964 243.741 52.0336C243.979 56.562 244.218 61.0904 244.456 65.6188H244.43Z" fill="#D73434"/>
<path fill-rule="evenodd" clip-rule="evenodd" d="M244.827 49.5178C245.383 49.7562 245.41 50.0475 244.88 50.3388C110.282 57.1711 110.265 56.8974 244.827 49.5178Z" fill="#214458"/>
<path fill-rule="evenodd" clip-rule="evenodd" d="M93.6959 150.228C147.189 147.448 200.682 144.64 254.149 141.86C254.44 146.256 254.599 150.652 254.626 155.048C254.07 156.451 253.09 157.325 251.66 157.669C233.414 158.623 215.168 159.576 196.948 160.53C163.767 162.251 130.559 163.999 97.3769 165.72C95.9734 165.296 95.0465 164.396 94.5433 162.992C94.1196 158.755 93.8283 154.518 93.6694 150.255L93.6959 150.228Z" fill="#2D4052"/>
<path fill-rule="evenodd" clip-rule="evenodd" d="M152.565 163.257C167.236 162.489 181.907 161.721 196.578 160.953L196.922 167.547C182.516 168.289 168.11 169.057 153.731 169.798L154.552 185.422C154.419 185.767 154.154 185.926 153.757 185.873V185.449C153.36 178.034 152.963 170.646 152.565 163.231V163.257Z" fill="#D6D7D7"/>
<path fill-rule="evenodd" clip-rule="evenodd" d="M97.4033 165.72C130.585 163.999 163.793 162.251 196.975 160.53L198.167 183.172C183.628 183.94 169.09 184.681 154.551 185.449L153.73 169.825C168.136 169.083 182.542 168.315 196.922 167.574L196.578 160.98C181.907 161.748 167.236 162.516 152.565 163.284C134.134 164.37 115.729 165.19 97.4033 165.747V165.72Z" fill="#E5E7E6"/>
<path fill-rule="evenodd" clip-rule="evenodd" d="M153.73 185.873C147.931 186.588 142.025 187.038 136.067 187.197L136.385 193.367C163.131 191.963 189.878 190.586 216.624 189.183L216.307 183.013C210.216 183.463 204.178 183.648 198.193 183.542L216.704 182.589L217.075 189.58C190.063 190.984 163.052 192.387 136.014 193.817L135.643 186.826L153.757 185.873H153.73Z" fill="#F1F9FB"/>
<path fill-rule="evenodd" clip-rule="evenodd" d="M154.552 185.423C169.09 184.655 183.629 183.913 198.167 183.145V183.569C204.179 183.675 210.216 183.489 216.307 183.039L216.625 189.209C189.878 190.613 163.132 191.99 136.385 193.394L136.067 187.223C142.052 187.038 147.931 186.614 153.731 185.899C154.154 185.952 154.419 185.793 154.525 185.449L154.552 185.423Z" fill="#2D4052"/>
</svg>
