<svg width="344" height="241" viewBox="0 0 344 241" fill="none" xmlns="http://www.w3.org/2000/svg">
<rect x="0.137695" y="0.558594" width="343.438" height="239.623" rx="23" fill="white"/>
<path d="M125.556 123.24C127.086 121.711 128.657 120.202 130.145 118.61C131.758 116.85 133.518 115.069 134.9 113.121C135.131 112.786 135.382 112.451 135.571 112.094C135.864 111.508 136.032 110.796 136.493 110.314C137.666 109.015 139.258 107.779 140.557 106.584C143.742 103.672 146.905 100.76 150.152 97.9318C152.541 95.7948 154.971 93.6578 157.401 91.5628C158.679 90.4524 159.936 89.3001 161.298 88.2945C164.734 88.9858 165.677 87.9174 168.799 87.4564C170.077 87.2679 171.648 87.2679 172.716 88.1059C173.932 89.0487 174.707 91.0809 174.853 92.5894C175 94.1397 174.581 95.1244 173.617 96.2976C173.638 96.3395 173.659 96.4024 173.68 96.4443C174.225 97.5128 175.084 98.4975 175.796 99.4612C177.053 101.179 178.289 103.211 179.819 104.699C180.112 104.992 180.384 105.16 180.803 105.285C183.234 106.061 186.334 104.971 188.471 103.819C192.41 101.682 194.924 98.2251 196.16 93.9931C194.589 91.1019 192.787 88.2526 190.985 85.4871C190.189 85.5499 189.393 85.5918 188.597 85.4871C186.963 85.2776 185.454 84.4814 184.47 83.1616C182.877 81.0036 182.605 78.1962 182.982 75.6193C183.108 74.6975 183.359 73.8176 183.485 72.8957V72.791L181.097 71.1149C181.39 71.6596 181.662 72.1834 181.914 72.7281C181.641 73.4614 181.264 74.1947 180.908 74.886C179.023 78.5734 175.859 81.3179 171.983 82.7844C170.873 83.2035 169.699 83.4758 168.568 83.832C168.38 83.1406 168.17 82.4702 167.898 81.7998C166.326 78.1334 162.828 75.2003 159.203 73.7547C159.685 72.4139 160.146 71.0521 160.23 69.6274C160.46 66.2963 158.784 63.5098 156.647 61.1214C151.347 55.4229 143.281 52.2174 135.738 50.8137C134.502 50.5832 133.266 50.4366 132.03 50.3109C131.171 50.2271 130.249 50.1852 129.39 49.9757C129.348 49.9757 129.328 49.9757 129.286 49.9547C132.114 49.7243 135.005 49.431 137.854 49.5357C139.74 49.5986 141.584 49.8919 143.448 50.269C149.796 51.526 155.369 53.9563 160.774 57.5179C162.576 58.6912 164.231 60.0949 165.97 61.3309C166.913 62.0014 167.73 62.6089 168.442 63.1537C169.72 64.1174 170.705 64.9135 171.271 65.3954C171.501 65.5839 171.669 65.7306 171.69 65.7515C172.591 66.5058 175.67 68.4123 183.485 72.791C183.506 72.4139 183.527 72.0158 183.548 71.6387C179.043 68.098 174.015 64.4526 168.442 60.8281C163.435 57.5598 158.575 54.6896 153.986 52.1755C151.43 51.2746 148.875 50.3737 146.298 49.4729C146.067 49.41 145.837 49.3472 145.606 49.3053C145.25 49.2215 144.894 49.1377 144.538 49.0538C144.182 48.97 143.825 48.9072 143.469 48.8443C143.113 48.7815 142.757 48.7186 142.401 48.6558C142.045 48.5929 141.688 48.551 141.332 48.4882C140.976 48.4463 140.62 48.4044 140.243 48.3625C139.887 48.3206 139.531 48.2996 139.153 48.2577C138.797 48.2368 138.42 48.1949 138.064 48.1739C137.708 48.1739 137.331 48.132 136.975 48.132C136.618 48.132 136.241 48.132 135.885 48.132C135.529 48.132 135.152 48.132 134.796 48.132C134.439 48.132 134.062 48.153 133.706 48.1739C133.35 48.1739 132.973 48.2158 132.617 48.2368C132.261 48.2577 131.904 48.2996 131.527 48.3415C130.166 48.4882 127.798 48.7815 126.604 49.3053C125.808 49.6405 125.473 50.4785 125.158 51.2327C130.983 51.6936 137.582 54.0401 142.736 56.7427C149.587 60.3463 157.506 66.2334 155.495 75.0536C155.223 76.2688 154.322 77.8401 154.322 79.0133C154.322 79.3485 154.447 79.6837 154.552 79.998C146.968 88.1059 138.567 95.5225 130.019 102.583C128.594 103.777 127.987 103.777 126.478 104.636C125.368 105.265 124.341 106.061 123.294 106.794C120.256 108.973 96.9168 127.347 96.1626 129.127C96.6235 128.96 97.1263 128.52 97.5453 128.247C98.9281 127.347 100.29 126.467 101.61 125.482C105.276 122.758 108.859 119.867 112.42 117.018L119.837 111.152C121.848 109.58 126.436 105.725 128.72 105.034C129.286 104.866 129.893 105.013 130.417 105.244C132.072 106.019 133.853 107.779 134.46 109.538C134.544 109.79 134.607 110.041 134.691 110.314C134.419 111.131 134 111.843 133.497 112.555C132.428 114.064 131.087 115.384 129.83 116.725C127.714 118.945 125.577 121.145 123.378 123.282L112.148 134.365C107.246 139.184 102.154 143.814 97.5872 148.968C97.3149 149.261 96.4559 150.057 96.414 150.434C98.0272 149.198 99.5985 147.836 101.128 146.495C105.863 142.389 110.304 138.031 114.809 133.674C118.391 130.238 121.932 126.76 125.452 123.261L125.556 123.24ZM162.618 87.1631L162.513 87.1212C162.639 86.807 163.247 86.388 163.519 86.1366C163.687 86.3461 163.708 86.8279 163.749 87.1003L162.618 87.1631ZM181.599 103.987L180.74 103.777C179.169 101.808 177.64 99.7754 176.089 97.7851C177.011 97.7851 177.933 97.7851 178.855 97.7013C179.274 97.7432 183.38 103.149 184.093 103.882C183.213 104.049 182.5 104.091 181.62 103.987H181.599ZM194.715 94.2235C194.421 95.1244 194.044 96.0043 193.583 96.8423C191.614 100.425 188.304 102.75 184.449 103.882L184.03 103.4C183.38 102.667 182.815 101.829 182.228 101.053C181.348 99.8802 180.426 98.7489 179.63 97.5337C179.986 97.429 180.342 97.3242 180.699 97.2195C185.35 95.7948 188.702 92.4008 190.943 88.2107C191.509 88.6716 194.317 93.3855 194.736 94.2445L194.715 94.2235ZM168.359 85.4033C169.553 85.4033 172.297 84.2091 173.513 83.7482C176.76 82.3235 179.714 79.7256 181.495 76.6459C181.39 79.558 181.83 82.3235 183.883 84.5652C185.224 86.0108 187.089 86.9746 189.079 87.0374C189.393 87.0374 189.707 87.0374 190.022 87.0374C187.885 91.039 184.931 94.454 180.447 95.8158C179.609 96.0672 178.771 96.2348 177.912 96.4024L177.388 96.4862C176.697 96.57 175.985 96.57 175.293 96.549C176.11 95.0196 176.383 93.4483 176.089 91.7513C175.775 89.9915 174.77 87.7498 173.24 86.7232C171.522 85.5709 169.49 85.9689 167.583 86.3251L168.359 85.4033ZM155.872 66.401C155.872 66.401 155.767 66.2125 155.725 66.1287C155.683 66.0449 155.621 65.9401 155.579 65.8563C155.537 65.7725 155.474 65.6677 155.411 65.5839C151.64 59.173 142.778 54.522 135.927 52.2174C134.649 51.7774 133.308 51.4841 131.988 51.1489C132.722 51.107 133.685 51.4003 134.419 51.547C138.567 52.3431 142.526 53.3906 146.36 55.2133C150.97 57.4132 156.605 61.2681 158.344 66.3172C159.266 68.957 158.784 71.5968 157.59 74.069C157.36 74.5299 157.087 74.9489 156.794 75.3679C156.815 75.2631 156.836 75.1584 156.878 75.0536C156.899 74.9489 156.92 74.8441 156.941 74.7394C156.961 74.6346 156.982 74.5299 157.003 74.4251C157.003 74.3204 157.045 74.2156 157.045 74.1109C157.045 74.0061 157.066 73.9014 157.087 73.7966C157.087 73.6918 157.108 73.5871 157.129 73.4823C157.129 73.3776 157.129 73.2728 157.15 73.1681C157.15 73.0633 157.15 72.9586 157.15 72.8538C157.15 72.7491 157.15 72.6443 157.15 72.5396C157.15 72.4348 157.15 72.3301 157.15 72.2253C157.15 72.1205 157.15 72.0158 157.15 71.911C157.15 71.8063 157.15 71.7015 157.15 71.5968C157.15 71.492 157.15 71.3873 157.15 71.2825C157.15 71.1778 157.15 71.073 157.129 70.9683C157.108 70.8635 157.108 70.7588 157.087 70.654C157.087 70.5492 157.066 70.4445 157.045 70.3397C157.045 70.235 157.024 70.1302 157.003 70.0255C157.003 69.9207 156.961 69.816 156.941 69.7112C156.941 69.6065 156.899 69.5017 156.878 69.397C156.857 69.2922 156.836 69.1875 156.815 69.0827C156.794 68.9779 156.773 68.8732 156.731 68.7684C156.71 68.6637 156.668 68.5589 156.647 68.4542C156.626 68.3494 156.584 68.2447 156.563 68.1609C156.522 68.0561 156.501 67.9514 156.459 67.8676C156.417 67.7628 156.396 67.679 156.354 67.5742C156.312 67.4695 156.27 67.3857 156.228 67.2809C156.186 67.1762 156.144 67.0924 156.102 66.9876C156.061 66.8829 156.019 66.7991 155.977 66.6943C155.935 66.5896 155.893 66.5058 155.83 66.401H155.872ZM158.575 75.1584C158.575 75.1584 158.721 75.1793 158.784 75.2003C161.508 75.7869 164.546 78.6781 166.012 80.9617C166.62 81.9255 167.395 83.3292 167.102 84.5024C166.808 85.6547 165.677 86.5346 164.713 87.1212L164.839 85.9689C164.65 84.1672 163.624 82.3864 162.451 81.0455C160.9 79.2857 158.847 77.7144 156.459 77.5677C156.165 77.9867 155.914 78.4477 155.642 78.8876C156.061 77.2325 157.548 76.4783 158.575 75.1584ZM130.731 103.819C132.742 102.08 134.817 100.425 136.828 98.707C140.369 95.6272 143.846 92.5056 147.261 89.3001C150.76 86.0527 154.196 82.7635 157.276 79.0971C157.779 79.139 158.323 79.4533 158.763 79.7047C160.733 80.8151 162.576 82.6168 163.226 84.8376C162.178 85.8013 161.026 86.6394 159.936 87.5402C158.177 89.0068 156.438 90.5152 154.699 92.0237C148.518 97.408 142.422 102.897 136.472 108.533L135.906 109.078C134.921 106.626 133.099 104.908 130.731 103.798V103.819Z" fill="#261917"/>
<path d="M162.513 87.1213L162.618 87.1632L163.749 87.1003C163.707 86.828 163.686 86.3461 163.519 86.1366C163.246 86.3671 162.639 86.807 162.513 87.1213Z" fill="#AE988C"/>
<path d="M178.834 97.6804C177.913 97.7433 176.991 97.7852 176.069 97.7642C177.619 99.7545 179.149 101.787 180.72 103.756L181.579 103.966C182.459 104.07 183.171 104.028 184.051 103.861C183.339 103.128 179.232 97.7014 178.813 97.6804H178.834Z" fill="#988A82"/>
<path d="M173.219 86.7022C174.749 87.7288 175.754 89.9705 176.069 91.7303C176.362 93.4483 176.069 95.0196 175.272 96.528C175.964 96.528 176.676 96.549 177.368 96.4652C177.326 96.2976 177.284 96.1509 177.221 95.9833L177.347 95.8576C177.263 95.6481 177.682 94.0559 177.724 93.6368C177.766 93.1969 177.724 92.7988 177.661 92.3589C177.43 90.578 176.509 89.1953 176.006 87.5192L175.964 87.3935C176.194 87.603 176.404 87.8335 176.634 88.064C176.634 87.9592 176.634 87.8545 176.634 87.7707C176.341 86.5136 174.56 84.5023 173.534 83.7272C172.297 84.1881 169.574 85.3613 168.38 85.3823L167.604 86.3041C169.511 85.9479 171.522 85.5499 173.261 86.7022H173.219Z" fill="#988A82"/>
<path d="M177.828 95.3968C178.037 94.9568 178.205 94.5168 178.31 94.035C178.771 91.8142 177.828 89.8867 176.634 88.085C176.424 87.8545 176.194 87.6241 175.963 87.4146L176.005 87.5403C176.529 89.2163 177.43 90.5991 177.66 92.3799C177.723 92.7989 177.765 93.2179 177.723 93.6579C177.681 94.0769 177.262 95.6691 177.346 95.8786C177.514 95.732 177.66 95.5644 177.828 95.4177V95.3968Z" fill="#261917"/>
<path d="M162.451 81.0456C163.624 82.3864 164.651 84.1672 164.839 85.969L164.714 87.1213C165.677 86.5556 166.809 85.6547 167.102 84.5025C167.395 83.3292 166.62 81.9255 166.013 80.9618C164.567 78.6782 161.508 75.8079 158.785 75.2003C158.722 75.2003 158.638 75.1794 158.575 75.1584C157.549 76.4783 156.061 77.2326 155.642 78.8877C155.914 78.4477 156.166 77.9868 156.459 77.5678C158.848 77.7144 160.901 79.2857 162.451 81.0456Z" fill="#988A82"/>
<path d="M156.145 66.9876C156.145 66.9876 156.228 67.1762 156.27 67.2809C156.312 67.3857 156.354 67.4695 156.396 67.5742C156.438 67.679 156.48 67.7628 156.501 67.8675C156.543 67.9723 156.564 68.077 156.605 68.1608C156.647 68.2656 156.668 68.3703 156.689 68.4542C156.71 68.5589 156.752 68.6637 156.773 68.7684C156.794 68.8732 156.836 68.9779 156.857 69.0827C156.878 69.1874 156.899 69.2922 156.92 69.3969C156.941 69.5017 156.962 69.6064 156.983 69.7112C156.983 69.8159 157.024 69.9207 157.045 70.0255C157.045 70.1302 157.087 70.235 157.087 70.3397C157.087 70.4445 157.108 70.5492 157.129 70.654C157.129 70.7587 157.15 70.8635 157.171 70.9682C157.192 71.073 157.171 71.1777 157.192 71.2825C157.192 71.3872 157.192 71.492 157.192 71.5968C157.192 71.7015 157.192 71.8063 157.192 71.911C157.192 72.0158 157.192 72.1205 157.192 72.2253C157.192 72.33 157.192 72.4348 157.192 72.5395C157.192 72.6443 157.192 72.749 157.192 72.8538C157.192 72.9585 157.192 73.0633 157.192 73.1681C157.192 73.2728 157.192 73.3776 157.171 73.4823C157.171 73.5871 157.15 73.6918 157.129 73.7966C157.129 73.9013 157.108 74.0061 157.087 74.1108C157.087 74.2156 157.045 74.3203 157.045 74.4251C157.045 74.5299 157.003 74.6346 156.983 74.7394C156.962 74.8441 156.941 74.9489 156.92 75.0536C156.899 75.1584 156.878 75.2631 156.836 75.3679C157.129 74.9489 157.402 74.5299 157.632 74.0689C158.826 71.5968 159.287 68.957 158.386 66.3172C156.647 61.2681 151.012 57.4341 146.402 55.2133C142.568 53.3906 138.609 52.3431 134.461 51.547C133.727 51.4003 132.764 51.107 132.03 51.1489C133.35 51.5051 134.67 51.7774 135.969 52.2174C142.82 54.5429 151.682 59.173 155.453 65.5839C155.516 65.6677 155.558 65.7725 155.621 65.8563C155.663 65.9401 155.725 66.0448 155.767 66.1286C155.809 66.2124 155.872 66.3172 155.914 66.401C155.956 66.5057 155.998 66.5895 156.061 66.6943C156.103 66.799 156.145 66.8829 156.186 66.9876H156.145Z" fill="#988A82"/>
<path d="M180.698 97.1985C180.342 97.3033 179.986 97.408 179.63 97.5128C180.447 98.7279 181.348 99.8802 182.228 101.032C182.814 101.808 183.38 102.646 184.03 103.379L184.449 103.861C188.324 102.729 191.614 100.404 193.583 96.8214C194.044 95.9834 194.421 95.1244 194.714 94.2026C194.295 93.3436 191.509 88.6506 190.922 88.1688C188.681 92.3798 185.328 95.7529 180.677 97.1776L180.698 97.1985Z" fill="#D6C8B5"/>
<path d="M176.634 87.7706C176.634 87.7706 176.634 87.9801 176.634 88.0639C177.828 89.8657 178.771 91.7932 178.31 94.0139C178.206 94.4958 178.017 94.9358 177.828 95.3757C177.87 95.7109 177.912 96.0252 177.891 96.3814C178.75 96.2138 179.588 96.0462 180.426 95.7948C184.91 94.433 187.864 91.018 190.001 87.0164C189.687 87.0164 189.372 87.0164 189.058 87.0164C187.068 86.9536 185.203 85.9898 183.862 84.5442C181.809 82.3235 181.369 79.537 181.474 76.6249C179.714 79.7256 176.739 82.3025 173.492 83.7272C174.539 84.4814 176.32 86.4926 176.592 87.7706H176.634ZM181.348 83.1615C182.982 85.6337 185.203 87.2678 187.885 88.462C186.67 88.5668 185.308 87.8754 184.323 87.2469C184.177 87.1631 184.051 87.0583 183.925 86.9745C183.799 86.8698 183.653 86.786 183.527 86.6812C183.401 86.5765 183.276 86.4717 183.15 86.3669C183.024 86.2622 182.899 86.1365 182.794 86.0317C182.668 85.927 182.563 85.8013 182.438 85.6756C182.333 85.5499 182.207 85.4242 182.102 85.2985C181.998 85.1728 181.893 85.0471 181.788 84.9213C181.683 84.7956 181.6 84.649 181.495 84.5233C181.39 84.3976 181.306 84.2509 181.223 84.1043C181.139 83.9576 181.055 83.8319 180.971 83.6853C180.887 83.5386 180.803 83.3919 180.741 83.2453C180.657 83.0986 180.594 82.952 180.531 82.8053C180.468 82.6587 180.405 82.512 180.343 82.3444C180.28 82.1978 180.217 82.0302 180.175 81.8835C180.133 81.7368 180.07 81.5692 180.028 81.4016C179.986 81.234 179.945 81.0874 179.903 80.9198C180.489 81.5064 180.908 82.4701 181.369 83.1615H181.348ZM180.803 86.3041C181.704 87.5192 182.815 88.5458 183.862 89.6353C183.297 89.5305 182.731 89.1324 182.27 88.7972C180.51 87.4983 178.897 85.1728 178.562 82.9939C179.065 83.4758 180.238 85.5499 180.803 86.3041Z" fill="#D6C8B5"/>
<path d="M177.828 95.3967C177.682 95.5644 177.514 95.711 177.346 95.8577L177.221 95.9834C177.263 96.151 177.325 96.2976 177.367 96.4652L177.891 96.3814C177.891 96.0462 177.87 95.711 177.828 95.3758V95.3967Z" fill="#AE988C"/>
<path d="M182.27 88.7764C182.731 89.1116 183.318 89.4887 183.863 89.6144C182.815 88.5459 181.705 87.5193 180.804 86.2832C180.238 85.5081 179.065 83.4339 178.562 82.973C178.897 85.1519 180.51 87.4774 182.27 88.7764Z" fill="#261917"/>
<path d="M180.154 81.8627C180.196 82.0093 180.259 82.1769 180.322 82.3236C180.385 82.4702 180.447 82.6378 180.51 82.7845C180.573 82.9311 180.657 83.0778 180.72 83.2245C180.804 83.3711 180.866 83.5178 180.95 83.6644C181.034 83.8111 181.118 83.9577 181.202 84.0834C181.285 84.2301 181.39 84.3558 181.474 84.5024C181.579 84.6281 181.663 84.7748 181.767 84.9005C181.872 85.0262 181.977 85.1519 182.082 85.2776C182.186 85.4033 182.291 85.529 182.417 85.6547C182.522 85.7804 182.647 85.8852 182.773 86.0109C182.899 86.1156 183.003 86.2413 183.129 86.3461C183.255 86.4509 183.381 86.5556 183.506 86.6604C183.632 86.7651 183.758 86.8699 183.904 86.9537C184.03 87.0584 184.177 87.1422 184.302 87.226C185.308 87.8755 186.649 88.5459 187.864 88.4412C185.182 87.247 182.962 85.6128 181.327 83.1406C180.866 82.4493 180.447 81.4646 179.861 80.8989C179.903 81.0665 179.945 81.2132 179.987 81.3808C180.028 81.5484 180.07 81.6951 180.133 81.8627H180.154Z" fill="#261917"/>
<path d="M136.472 108.554C142.443 102.918 148.519 97.4289 154.699 92.0446C156.438 90.5362 158.177 89.0277 159.937 87.5612C161.026 86.6603 162.199 85.8223 163.226 84.8585C162.576 82.6378 160.733 80.836 158.763 79.7256C158.323 79.4742 157.779 79.1599 157.276 79.118C154.217 82.7844 150.76 86.0737 147.262 89.321C143.826 92.5055 140.348 95.6481 136.828 98.7279C134.817 100.467 132.743 102.101 130.731 103.84C133.099 104.95 134.922 106.668 135.906 109.119L136.472 108.575V108.554ZM135.655 107.297C135.906 106.333 159.182 85.8013 162.074 83.3291V83.5386C161.466 84.6071 159.287 86.4089 158.282 87.3307C154.51 90.8295 150.635 94.2235 146.822 97.6594C143.658 100.509 140.599 103.505 137.31 106.207C136.807 106.626 136.283 107.129 135.655 107.318C135.655 107.318 135.655 107.297 135.655 107.276V107.297Z" fill="#D6C8B5"/>
<path d="M146.821 97.6594C150.655 94.2235 154.51 90.8295 158.281 87.3307C159.287 86.4089 161.445 84.6072 162.073 83.5387V83.3292C159.182 85.8013 135.885 106.333 135.633 107.297C135.633 107.297 135.633 107.318 135.633 107.339C136.262 107.129 136.786 106.626 137.288 106.228C140.578 103.505 143.616 100.53 146.8 97.6804L146.821 97.6594Z" fill="#261917"/>
<path d="M178.875 70.5911C179.378 71.5548 179.965 72.5814 180.3 73.6289C179.588 72.8538 179.085 71.6805 178.54 70.7587C177.996 69.8578 177.409 68.9779 176.822 68.098L166.515 60.8909C164.378 59.2358 162.45 57.9997 160.963 57.0989C158.847 55.8418 154.573 53.4534 148.832 51.6517C146.13 50.7927 144.139 50.3946 143.469 50.2689C141.625 49.9128 139.781 49.6195 137.875 49.5357C135.026 49.4309 132.155 49.7242 129.306 49.9547C129.348 49.9547 129.369 49.9547 129.411 49.9756C130.249 50.1851 131.171 50.227 132.051 50.3108C133.287 50.4365 134.523 50.5832 135.759 50.8137C143.28 52.2173 151.367 55.4228 156.668 61.1214C158.805 63.5307 160.481 66.3172 160.25 69.6274C160.146 71.052 159.706 72.4138 159.224 73.7546C162.869 75.2002 166.347 78.1333 167.918 81.7997C168.191 82.4492 168.421 83.1405 168.589 83.8319C169.72 83.4548 170.893 83.2034 172.004 82.7844C177.493 80.7103 180.133 76.2268 180.929 74.886C181.578 73.7756 181.997 72.8119 182.207 72.2252L177.975 68.915C178.289 69.4807 178.603 70.0254 178.896 70.612L178.875 70.5911Z" fill="#D6C8B5"/>
<path d="M180.321 73.6291C179.986 72.6025 179.399 71.5549 178.896 70.5912C178.603 70.0255 178.289 69.4599 177.975 68.8942L176.843 68.0981C177.43 68.978 177.996 69.8579 178.561 70.7588C179.106 71.6597 179.63 72.8539 180.321 73.6291Z" fill="#261917"/>
<path d="M112.274 134.365L123.504 123.282C125.703 121.145 127.84 118.945 129.956 116.725C131.234 115.384 132.554 114.064 133.623 112.555C134.126 111.843 134.545 111.152 134.817 110.314C134.754 110.062 134.67 109.811 134.586 109.538C134 107.779 132.219 106.019 130.543 105.244C130.019 104.992 129.412 104.846 128.846 105.034C126.583 105.725 121.974 109.601 119.963 111.152L112.546 117.018C108.985 119.867 105.402 122.758 101.736 125.482C100.395 126.467 99.0541 127.347 97.6713 128.247C97.2523 128.52 96.7495 128.96 96.2886 129.127C96.3933 134.302 96.2886 139.498 96.3514 144.694L96.3933 148.276C96.3933 148.989 96.3514 149.722 96.4562 150.413H96.54C96.5819 150.057 97.4409 149.261 97.7132 148.968C102.28 143.835 107.371 139.184 112.274 134.365ZM120.927 124.015C118.852 126.32 116.506 128.415 114.285 130.594C110.765 134.093 107.204 137.55 103.621 141.006C102.008 142.536 100.374 144.044 98.7189 145.553L98.5722 145.657C98.8865 144.4 118.412 125.335 121.073 122.947L121.325 123.01C121.325 123.01 121.471 123.135 121.45 123.261C121.408 123.554 121.115 123.827 120.927 124.036V124.015ZM127.023 117.081C128.469 115.635 129.956 114.022 131.549 112.744C131.549 112.765 131.549 112.807 131.549 112.828C131.423 114.043 124.572 120.663 123.378 121.774C123.084 122.067 122.959 122.172 122.54 122.172C122.456 122.025 122.435 121.941 122.435 121.795C123.839 120.14 125.494 118.631 127.023 117.102V117.081ZM113.887 117.646C116.485 115.635 119.083 113.624 121.807 111.801L121.848 111.864C121.513 112.995 100.709 129.274 97.9646 131.097H97.9227C98.2998 130.28 112.023 119.092 113.866 117.646H113.887Z" fill="#5797D1"/>
<path d="M123.398 121.774C124.592 120.642 131.443 114.022 131.569 112.828C131.569 112.807 131.569 112.765 131.569 112.744C129.976 114.022 128.489 115.635 127.043 117.081C125.514 118.61 123.838 120.119 122.455 121.774C122.455 121.941 122.497 122.025 122.56 122.151C123 122.151 123.105 122.046 123.398 121.753V121.774Z" fill="#261917"/>
<path d="M121.869 111.864L121.827 111.801C119.103 113.624 116.484 115.635 113.907 117.646C112.064 119.071 98.341 130.259 97.9639 131.076H98.0058C100.75 129.274 121.554 112.995 121.89 111.864H121.869Z" fill="#261917"/>
<path d="M121.073 122.947C118.412 125.335 98.886 144.421 98.5718 145.657L98.7184 145.553C100.374 144.065 102.008 142.536 103.621 141.006C107.203 137.57 110.744 134.093 114.285 130.594C116.506 128.415 118.831 126.32 120.926 124.015C121.115 123.806 121.408 123.534 121.45 123.24C121.45 123.115 121.387 123.073 121.324 122.989L121.073 122.926V122.947Z" fill="#261917"/>
<path d="M246.63 113.1C246.86 112.911 246.902 112.744 246.965 112.472C247.3 110.921 247.384 108.658 247.552 107.024C246.337 106.207 244.451 105.621 243.068 105.055C241.057 104.238 238.983 103.274 236.909 102.667C236.594 102.583 236.28 102.499 235.945 102.562C235.379 102.667 234.814 102.981 234.248 103.148C234.248 102.646 234.206 102.185 234.059 101.703C232.132 100.844 230.142 100.132 228.172 99.4192C226.79 98.9164 225.407 98.3507 224.003 97.9736C222.62 98.4974 221.3 99.1678 219.96 99.7754C217.676 100.781 215.434 101.829 213.172 102.897C208.143 105.306 203.094 107.653 198.024 109.957C196.202 110.795 194.379 111.759 192.514 112.555C192.389 112.702 192.263 112.849 192.158 112.953C191.509 113.624 190.713 114.127 189.874 114.504C190.105 115.551 190.084 116.536 190.419 117.73C191.027 119.867 191.76 122.025 192.472 124.12C192.829 125.147 193.289 126.194 193.52 127.242C193.646 127.828 193.646 128.331 193.478 128.897L193.185 129.023C192.996 128.981 192.933 128.96 192.787 128.834C192.305 128.373 192.137 127.179 191.949 126.529C191.215 123.869 190.545 121.187 189.728 118.547C189.351 117.353 188.785 116.201 188.471 115.007C188.219 115.069 187.989 115.132 187.738 115.174C187.779 115.342 187.821 115.488 187.842 115.593C185.852 116.557 183.82 117.437 181.808 118.38L170.034 123.973L133.643 141.279C126.08 144.882 118.412 148.381 110.953 152.236C110.807 154.038 110.723 155.839 110.639 157.641C110.597 158.437 110.513 159.296 110.597 160.113C110.639 160.47 110.702 160.763 110.89 161.077C111.184 161.266 111.561 161.203 111.896 161.119C112.483 160.993 113.048 160.742 113.614 160.574C113.027 161.056 112.441 161.538 111.938 162.125L111.812 162.083C111.77 161.852 111.791 161.706 111.603 161.559C111.226 161.559 110.849 161.831 110.555 162.041C110.367 163.905 110.471 165.896 110.471 167.781C110.471 169.73 110.513 171.657 110.576 173.606C110.597 174.716 110.576 175.868 110.744 176.979C111.645 177.754 115.311 179.493 116.61 180.205C118.391 181.169 120.507 182.447 122.288 183.264C122.916 182.95 123.419 182.51 123.985 182.112C123.985 182.803 124.026 183.494 124.068 184.186C127.337 186.113 130.71 187.873 134.02 189.717C135.717 190.659 137.372 191.749 139.111 192.608C142.484 190.722 145.836 188.795 149.188 186.846L161.717 179.681L208.898 152.445C218.263 147.124 227.586 141.698 236.825 136.167L242.607 132.71C243.55 132.123 244.64 131.599 245.478 130.866C245.645 129.672 245.708 128.436 245.792 127.221C245.876 126.194 246.022 125.126 245.938 124.12C245.457 123.932 244.954 123.764 244.514 123.492C245.1 123.177 245.645 122.884 246.148 122.423C246.399 120.6 246.546 118.757 246.693 116.913C246.756 116.243 246.902 115.551 246.902 114.881C246.902 114.671 246.902 114.462 246.756 114.273C246.609 114.085 246.42 113.98 246.148 113.98C245.624 113.98 240.68 116.955 239.863 117.458C239.486 117.709 238.941 117.961 238.773 118.422C238.899 118.505 238.836 118.484 239.004 118.463C240.345 118.275 244.283 115.886 245.645 115.174C245.478 116.222 245.352 117.248 245.268 118.296C245.184 119.26 245.205 120.977 244.891 121.816C244.786 122.109 244.43 122.36 244.2 122.549C243.173 123.324 237.516 126.383 237.265 127.2C237.412 127.305 237.579 127.263 237.747 127.242C239.339 126.948 242.984 123.932 243.802 123.932C243.571 124.351 242.964 124.288 242.901 124.874C243.005 125.021 243.047 125.063 243.215 125.147C243.613 124.979 244.032 124.644 244.472 124.623C244.619 124.728 244.598 124.665 244.598 124.791C244.723 126.006 244.304 128.729 244.221 130.154C242.754 131.201 241.141 132.06 239.59 132.982L233.012 136.879L207.997 151.398L162.408 177.775L145.857 187.224C143.804 188.397 141.814 189.696 139.719 190.785C139.698 189.549 139.698 188.292 139.719 187.056C143.636 184.207 147.868 181.776 151.912 179.116C153.085 178.34 154.321 177.628 155.432 176.79C155.62 176.643 155.746 176.518 155.83 176.287C155.788 176.078 155.788 176.078 155.62 175.952C155.411 175.952 155.243 176.015 155.054 176.12C154.175 176.581 153.316 177.23 152.457 177.733C149.691 179.367 146.926 181.043 144.244 182.824C142.694 183.871 141.185 185.024 139.614 186.029C139.614 183.117 139.404 180.205 139.404 177.293C140.724 176.581 148.308 171.636 148.623 170.735C148.664 170.61 148.664 170.61 148.685 170.484L148.602 170.4C148.183 170.484 147.764 170.777 147.407 171.008C146.129 171.783 144.914 172.705 143.678 173.564C142.924 174.108 142.086 174.842 141.206 175.156C142.379 174.339 144.872 172.768 145.585 171.678V171.552C145.354 171.531 145.333 171.552 145.166 171.636C144.432 172.118 139.886 175.177 139.404 175.114L139.362 174.946C139.425 174.779 139.446 174.737 139.614 174.632C140.347 174.129 141.227 173.773 142.002 173.333C143.05 172.747 144.034 172.076 145.082 171.49C145.522 171.133 146.171 170.84 146.653 170.547C147.91 169.793 149.167 169.017 150.424 168.263C150.864 167.991 151.43 167.718 151.807 167.362C151.954 167.216 151.954 167.195 151.954 167.006L151.828 166.922C150.278 167.258 141.29 172.747 139.32 173.983L139.216 166.461C140.179 165.77 141.353 165.267 142.4 164.723C144.076 163.843 145.731 162.963 147.366 162.041C151.639 159.673 155.913 157.369 160.229 155.064C164.65 152.781 169.07 150.455 173.449 148.088L210.469 127.451C216.712 124.057 222.998 120.705 229.283 117.416L240.889 111.298C242.586 110.418 244.241 109.455 245.98 108.658C245.876 109.916 245.75 111.194 245.708 112.451C245.352 112.618 244.996 112.828 244.661 113.016C242.482 114.315 240.324 115.656 238.187 117.018C236.909 117.814 235.547 118.568 234.353 119.49C234.122 119.679 233.787 119.909 233.703 120.202C233.766 120.307 233.745 120.307 233.85 120.328C234.122 120.391 234.541 120.328 234.793 120.223C235.379 119.993 235.987 119.532 236.511 119.197C237.537 118.568 238.585 117.919 239.611 117.311C241.057 116.389 242.503 115.447 243.969 114.588C244.786 114.127 245.771 113.749 246.504 113.184L246.63 113.1ZM232.886 102.708C231.462 103.798 229.786 104.385 228.13 105.034C227.67 105.223 227.209 105.369 226.748 105.537C228.026 104.825 230.435 103.442 231.147 102.164C231.734 102.269 232.321 102.52 232.886 102.708ZM112.147 153.702C113.446 154.205 114.662 154.939 115.94 155.462C115.479 155.714 114.976 155.902 114.494 156.133C113.614 156.552 112.713 156.95 111.938 157.536C111.938 156.258 112.064 154.98 112.147 153.702ZM125.284 183.369C125.284 182.74 125.388 181.965 125.137 181.357C125.053 181.169 124.906 181.001 124.697 180.938C123.985 180.729 123 181.483 122.434 181.839C121.051 180.75 119.166 179.954 117.595 179.158C115.688 178.173 113.803 177.188 111.938 176.162C111.938 174.695 111.666 170.756 112.043 169.562C112.755 167.362 115.877 161.014 117.909 160.03C119.313 159.338 120.989 159.38 122.392 158.668L122.497 158.605C121.114 158.479 119.564 158.626 118.244 159.045C117.699 159.212 117.176 159.443 116.736 159.82C115.625 160.784 113.572 164.136 112.923 165.456C112.525 166.252 112.231 167.132 111.791 167.928L111.749 167.991C111.749 167.048 111.624 164.408 112.001 163.612C112.273 163.026 112.797 162.46 113.237 161.999C113.698 161.496 114.347 160.93 114.682 160.344C114.745 160.218 114.787 160.176 114.724 160.03C114.641 159.82 114.536 159.715 114.305 159.652C113.593 159.401 112.462 160.051 111.854 160.407C111.875 159.673 111.896 158.919 111.98 158.186C113.258 157.285 115.332 156.594 116.799 155.986C118.642 156.531 120.423 157.536 122.162 158.374C125.179 159.799 128.175 161.245 131.15 162.753C133.329 163.843 135.675 164.723 137.77 165.959C137.728 167.677 137.875 169.395 137.938 171.112C137.98 171.93 138.042 172.809 137.938 173.627C137.812 172.453 137.498 171.364 137.037 170.274C136.073 168.096 133.936 165.121 132.051 163.654C131.904 163.549 131.778 163.445 131.611 163.424L131.506 163.507C131.548 164.052 133.119 165.665 133.538 166.21C134.774 167.823 135.968 169.793 136.765 171.678C137.058 172.37 137.163 173.166 137.519 173.836C137.665 173.941 137.749 173.983 137.917 174.004C138.022 174.192 138.147 181.19 138.189 182.028C137.582 182.803 137.163 183.662 136.681 184.521C135.989 185.799 135.298 187.098 134.502 188.334C131.317 186.867 128.321 185.003 125.221 183.39L125.284 183.369ZM136.325 189.361L135.067 188.648C136.639 187.182 137.498 184.919 138.21 182.929C138.378 183.096 138.399 189.465 138.42 190.45C137.707 190.115 137.016 189.759 136.325 189.361ZM225.826 117.73C218.975 121.313 212.166 124.979 205.399 128.729C199.805 131.83 194.253 134.993 188.617 138.01C187.696 138.513 186.816 139.079 185.894 139.561C185.014 140.022 184.511 139.875 183.589 140.043C182.542 140.231 177.765 141.132 177.22 141.656V141.802C177.43 142.033 177.681 142.096 177.974 142.201C179.357 141.928 180.782 141.886 182.186 141.74L139.027 164.806C136.094 163.675 133.224 162.146 130.375 160.805C132.072 159.631 133.664 158.353 135.235 157.013C135.759 156.573 136.345 156.133 136.785 155.609L136.744 155.462C136.555 155.399 136.45 155.42 136.262 155.462C135.487 155.714 134.69 156.154 133.957 156.489C131.841 157.432 129.432 158.626 127.274 159.401C124.11 158.102 121.177 156.3 118.014 154.98C119.941 154.184 131.234 148.444 132.176 147.375C132.302 147.229 132.302 147.124 132.302 146.956L132.197 146.873C131.925 146.873 131.715 146.935 131.464 147.04C129.453 147.962 127.483 149.093 125.514 150.099L116.819 154.478C115.562 154.017 114.347 153.325 113.174 152.697C113.719 152.341 114.305 152.047 114.892 151.733C119.208 149.785 123.482 147.501 127.798 145.469L167.415 126.676L182.688 119.427C184.532 118.568 186.501 117.374 188.429 116.745C188.953 119.218 189.854 121.606 190.398 124.078C188.157 124.895 181.683 128.457 180.091 130.028C179.902 130.217 179.797 130.342 179.797 130.615L179.965 130.699C180.258 130.699 180.489 130.636 180.74 130.468C181.054 130.28 181.368 130.028 181.683 129.819C182.667 129.19 183.673 128.583 184.679 127.975C186.648 126.802 188.659 125.775 190.713 124.77C191.006 125.712 191.299 126.634 191.509 127.598C190.65 127.556 188.638 127.284 187.947 127.849V127.954C188.743 128.415 190 128.394 190.88 128.541C190.482 128.687 189.665 128.876 189.455 129.253L189.518 129.421C189.791 129.609 190.084 129.651 190.419 129.714C189.916 129.965 187.423 131.055 187.193 131.306C187.046 131.453 187.046 131.516 187.067 131.704C187.298 131.788 187.402 131.704 187.633 131.662C188.387 131.453 189.12 131.097 189.874 130.845C190.901 130.489 191.97 130.259 193.038 130.049C193.52 130.782 194.002 131.788 194.861 132.102L194.945 132.018C194.735 131.222 194.232 130.615 193.75 129.965C194.211 129.902 194.882 129.965 195.238 129.63L195.196 129.463C195.322 129.253 198.695 129.002 199.365 128.645V128.52C198.779 128.164 195.322 128.205 194.358 128.185C194.421 126.718 193.708 125.23 193.268 123.848C196.725 122.088 200.224 120.391 203.744 118.757C207.662 116.892 211.621 115.048 215.623 113.393C216.796 112.911 223.479 110.649 223.752 110.23C223.668 110.146 223.584 110.104 223.479 110.062C223.144 109.936 222.285 110.251 221.929 110.335C217.927 111.298 214.073 113.037 210.301 114.692C204.456 117.311 198.716 120.119 193.038 123.094C192.326 120.705 190.754 117.269 190.796 114.902C193.499 113.687 196.16 112.304 198.841 111.026L211.496 105.139C215.644 103.211 219.918 101.493 224.024 99.4611C224.674 99.3564 229.744 101.389 230.854 101.808C228.989 103.002 227.23 104.364 225.365 105.579C224.715 105.998 223.521 106.417 223.123 107.045C222.998 107.234 223.018 107.339 223.06 107.548C223.291 107.695 223.437 107.737 223.71 107.695C224.569 107.569 225.512 107.087 226.329 106.794C228.34 106.061 234.227 103.777 236.05 103.861C237.014 103.903 238.983 104.845 239.968 105.223C238.794 105.914 237.684 106.647 236.532 107.36C235.715 107.862 234.751 108.344 233.997 108.931C233.85 109.057 233.829 109.036 233.808 109.245C233.892 109.308 233.934 109.371 234.039 109.392C235.254 109.622 239.758 106.228 240.847 105.495C242.461 106.082 244.032 106.815 245.666 107.401C238.983 110.628 232.425 114.148 225.889 117.625L225.826 117.73Z" fill="#261917"/>
<path d="M226.749 105.537C227.209 105.369 227.67 105.223 228.131 105.034C229.786 104.385 231.462 103.798 232.887 102.708C232.321 102.499 231.756 102.269 231.148 102.164C230.436 103.463 228.006 104.824 226.749 105.537Z" fill="#FFFEFC"/>
<path d="M115.94 155.462C114.662 154.918 113.446 154.184 112.147 153.703C112.064 154.981 111.959 156.258 111.938 157.536C112.734 156.95 113.614 156.552 114.494 156.133C114.976 155.923 115.458 155.714 115.94 155.462Z" fill="#D6C8B5"/>
<path d="M135.047 188.648L136.304 189.36C136.996 189.759 137.666 190.115 138.399 190.45C138.399 189.444 138.358 183.075 138.19 182.929C137.478 184.919 136.619 187.182 135.047 188.648Z" fill="#D6C8B5"/>
<path d="M189.749 118.484C190.566 121.124 191.237 123.806 191.97 126.467C192.159 127.116 192.326 128.31 192.808 128.771C192.955 128.918 193.018 128.918 193.206 128.96L193.499 128.834C193.667 128.268 193.688 127.745 193.541 127.179C193.29 126.111 192.829 125.084 192.494 124.057C191.781 121.962 191.048 119.804 190.441 117.667C190.105 116.473 190.126 115.489 189.896 114.441C189.435 114.65 188.974 114.797 188.513 114.923C188.827 116.117 189.414 117.29 189.77 118.464L189.749 118.484Z" fill="#D6C8B5"/>
<path d="M138.253 181.986C138.211 181.148 138.085 174.15 137.981 173.962C137.813 173.962 137.729 173.899 137.583 173.794C137.226 173.124 137.122 172.328 136.828 171.636C136.032 169.751 134.838 167.802 133.602 166.168C133.183 165.623 131.612 164.031 131.57 163.466L131.675 163.382C131.842 163.424 131.968 163.507 132.114 163.612C134 165.079 136.137 168.054 137.101 170.233C137.583 171.322 137.876 172.412 138.002 173.585C138.085 172.768 138.002 171.909 138.002 171.071C137.939 169.353 137.792 167.635 137.834 165.917C135.739 164.681 133.392 163.801 131.214 162.711C128.239 161.203 125.243 159.757 122.226 158.333C120.487 157.495 118.706 156.489 116.862 155.944C115.396 156.552 113.322 157.243 112.044 158.144C111.96 158.877 111.939 159.611 111.918 160.365C112.505 160.009 113.657 159.359 114.369 159.611C114.579 159.694 114.704 159.778 114.788 159.988C114.851 160.134 114.809 160.176 114.746 160.302C114.432 160.889 113.762 161.454 113.301 161.957C112.861 162.439 112.337 162.984 112.065 163.57C111.709 164.345 111.834 167.006 111.813 167.949L111.855 167.886C112.274 167.09 112.567 166.231 112.987 165.414C113.636 164.115 115.71 160.763 116.8 159.778C117.219 159.401 117.763 159.171 118.308 159.003C119.628 158.584 121.178 158.437 122.561 158.563L122.456 158.626C121.053 159.338 119.376 159.317 117.973 159.988C115.92 160.972 112.819 167.341 112.107 169.52C111.729 170.694 112.002 174.653 112.002 176.12C113.887 177.146 115.773 178.131 117.659 179.116C119.23 179.912 121.115 180.708 122.498 181.797C123.064 181.42 124.048 180.687 124.761 180.897C124.97 180.959 125.117 181.106 125.201 181.316C125.452 181.902 125.368 182.698 125.347 183.327C128.448 184.94 131.465 186.805 134.629 188.271C135.425 187.035 136.116 185.736 136.807 184.458C137.268 183.599 137.687 182.74 138.316 181.965L138.253 181.986ZM122.812 169.562C122.624 169.897 122.121 170.149 121.828 170.379C120.696 171.217 119.795 172.516 119.46 173.899C119.146 175.114 119.376 176.287 120.131 177.314C120.319 177.565 120.55 177.796 120.717 178.068L120.634 178.361C120.068 178.236 119.46 177.712 119.125 177.251C118.517 176.455 118.266 175.345 118.413 174.36C118.727 172.16 120.508 170.379 122.205 169.122C122.477 169.122 122.603 169.143 122.812 169.311C122.833 169.416 122.875 169.478 122.812 169.583V169.562ZM126.688 174.842C126.039 176.497 125.054 177.712 123.399 178.424C123.189 178.466 123.085 178.466 122.875 178.361C122.854 178.278 122.791 178.215 122.854 178.131C122.959 177.963 124.174 177.146 124.467 176.853C125.494 175.868 125.913 174.674 126.374 173.375V173.312C125.934 172.516 125.389 171.804 124.782 171.134C124.467 170.777 123.567 170.023 123.399 169.646C123.357 169.562 123.357 169.478 123.357 169.395C123.525 169.395 123.65 169.395 123.818 169.437C125.243 169.981 126.563 171.909 127.17 173.229C127.044 173.752 126.898 174.276 126.688 174.8V174.842ZM129.998 182.258C129.747 182.845 129.16 184.27 128.553 184.521L128.406 184.458C128.343 184.291 128.322 184.228 128.385 184.06C128.49 183.683 128.741 183.285 128.909 182.908C129.328 181.923 129.684 180.917 129.894 179.87C130.732 175.847 129.978 171.364 127.715 167.907C126.563 166.21 124.928 164.785 123.315 163.549C118.643 166.022 116.632 168.347 115.375 173.543C115.228 174.15 115.04 175.868 114.788 176.287C114.684 176.476 114.621 176.476 114.411 176.539L114.264 176.434C113.783 175.198 114.621 172.495 115.082 171.238C116.59 167.216 119.251 164.576 123.127 162.795C123.231 162.816 123.231 162.795 123.357 162.858C123.881 163.068 124.405 163.57 124.866 163.926C127.191 165.749 128.846 167.614 129.978 170.379C131.465 174.067 131.612 178.613 130.019 182.3L129.998 182.258ZM132.387 185.631C132.24 185.715 132.303 185.673 132.156 185.736C131.989 185.778 132.073 185.799 131.905 185.694C131.863 185.506 131.905 185.38 131.989 185.212C132.492 184.123 133.141 183.222 133.602 182.028C133.853 181.42 134.042 180.792 134.21 180.163C134.377 179.535 134.503 178.885 134.587 178.236C134.796 176.476 134.629 174.716 134.21 172.998C133.497 170.065 132.156 167.572 130.25 165.267C129.579 164.45 128.846 163.675 128.176 162.837C127.841 162.397 127.463 161.957 127.526 161.371C127.673 161.412 127.757 161.475 127.861 161.58C128.427 162.167 128.888 162.9 129.433 163.507C130.229 164.408 131.067 165.225 131.821 166.189C131.968 166.378 132.114 166.566 132.261 166.776C132.408 166.964 132.533 167.174 132.68 167.383C132.806 167.593 132.952 167.802 133.078 167.991C133.204 168.2 133.33 168.41 133.434 168.619C133.56 168.829 133.665 169.059 133.77 169.269C133.874 169.478 133.979 169.709 134.084 169.939C134.189 170.17 134.272 170.379 134.356 170.61C134.44 170.84 134.524 171.071 134.608 171.301C134.691 171.532 134.754 171.762 134.838 171.992C134.901 172.223 134.964 172.453 135.027 172.705C135.089 172.935 135.131 173.187 135.194 173.417C135.236 173.648 135.278 173.899 135.32 174.129C135.362 174.36 135.383 174.611 135.425 174.863C135.446 175.114 135.467 175.345 135.488 175.596C135.488 175.847 135.508 176.078 135.529 176.329C135.529 176.581 135.529 176.811 135.529 177.063C135.488 180.059 134.566 183.515 132.366 185.652L132.387 185.631Z" fill="#D6C8B5"/>
<path d="M123.817 169.478C123.67 169.415 123.524 169.436 123.356 169.436C123.356 169.52 123.356 169.604 123.398 169.688C123.566 170.044 124.467 170.819 124.781 171.175C125.388 171.825 125.933 172.537 126.331 173.354V173.417C125.891 174.737 125.472 175.91 124.446 176.895C124.152 177.167 122.937 178.005 122.832 178.173C122.77 178.257 122.832 178.319 122.853 178.403C123.063 178.487 123.147 178.487 123.377 178.466C125.032 177.733 126.017 176.539 126.666 174.884C126.876 174.381 127.023 173.857 127.148 173.312C126.541 171.992 125.221 170.065 123.796 169.52L123.817 169.478Z" fill="#261917"/>
<path d="M122.183 169.101C120.486 170.358 118.705 172.139 118.391 174.339C118.244 175.324 118.496 176.434 119.103 177.23C119.438 177.67 120.046 178.215 120.612 178.34L120.695 178.047C120.528 177.775 120.297 177.544 120.109 177.293C119.355 176.287 119.124 175.114 119.438 173.878C119.795 172.516 120.695 171.217 121.806 170.358C122.099 170.128 122.602 169.876 122.791 169.541C122.853 169.436 122.811 169.395 122.791 169.269C122.56 169.101 122.455 169.101 122.183 169.08V169.101Z" fill="#261917"/>
<path d="M135.508 175.575C135.508 175.324 135.466 175.093 135.445 174.842C135.424 174.59 135.382 174.36 135.34 174.108C135.299 173.878 135.257 173.627 135.215 173.396C135.173 173.166 135.11 172.914 135.047 172.684C134.984 172.453 134.921 172.223 134.859 171.971C134.796 171.741 134.712 171.511 134.628 171.28C134.544 171.05 134.461 170.819 134.377 170.589C134.293 170.358 134.188 170.128 134.104 169.918C134 169.688 133.895 169.478 133.79 169.248C133.685 169.038 133.581 168.808 133.455 168.598C133.329 168.389 133.224 168.179 133.099 167.97C132.973 167.76 132.847 167.551 132.701 167.362C132.575 167.153 132.428 166.964 132.282 166.755C132.135 166.566 131.988 166.357 131.842 166.168C131.108 165.225 130.249 164.387 129.453 163.486C128.909 162.858 128.448 162.146 127.882 161.559C127.777 161.454 127.693 161.37 127.547 161.349C127.484 161.936 127.84 162.376 128.196 162.816C128.846 163.654 129.579 164.429 130.27 165.246C132.177 167.572 133.539 170.044 134.23 172.977C134.649 174.695 134.796 176.455 134.607 178.215C134.523 178.864 134.398 179.514 134.23 180.142C134.062 180.771 133.853 181.399 133.623 182.007C133.162 183.201 132.491 184.102 132.009 185.191C131.925 185.359 131.905 185.485 131.926 185.673C132.093 185.757 132.009 185.757 132.177 185.715C132.345 185.673 132.282 185.694 132.407 185.61C134.607 183.452 135.529 180.016 135.571 177.021C135.571 176.769 135.571 176.539 135.571 176.287C135.571 176.036 135.571 175.805 135.529 175.554L135.508 175.575Z" fill="#261917"/>
<path d="M124.844 163.885C124.404 163.528 123.881 163.026 123.336 162.816C123.21 162.774 123.21 162.774 123.105 162.753C119.209 164.534 116.548 167.174 115.06 171.196C114.599 172.453 113.761 175.156 114.243 176.392L114.39 176.497C114.579 176.434 114.641 176.434 114.767 176.245C115.018 175.826 115.207 174.129 115.354 173.501C116.632 168.326 118.622 166.001 123.294 163.507C124.907 164.744 126.541 166.189 127.694 167.865C129.956 171.322 130.731 175.806 129.873 179.828C129.663 180.876 129.307 181.881 128.888 182.866C128.72 183.243 128.469 183.641 128.364 184.018C128.301 184.207 128.322 184.249 128.385 184.416L128.532 184.479C129.139 184.228 129.726 182.824 129.977 182.216C131.549 178.529 131.423 173.983 129.935 170.295C128.825 167.53 127.149 165.665 124.823 163.843L124.844 163.885Z" fill="#261917"/>
<path d="M233.976 109.497C233.871 109.476 233.829 109.413 233.745 109.35C233.766 109.161 233.787 109.161 233.934 109.036C234.688 108.449 235.652 107.967 236.469 107.464C237.621 106.773 238.753 106.019 239.905 105.327C238.92 104.95 236.972 104.008 235.987 103.966C234.164 103.882 228.277 106.165 226.266 106.899C225.449 107.192 224.506 107.674 223.647 107.8C223.375 107.842 223.228 107.8 222.998 107.653C222.956 107.443 222.935 107.339 223.061 107.15C223.459 106.522 224.674 106.103 225.302 105.684C227.167 104.468 228.927 103.107 230.791 101.912C229.681 101.493 224.611 99.4612 223.961 99.566C219.855 101.577 215.581 103.316 211.433 105.244L198.779 111.131C196.097 112.409 193.436 113.771 190.734 115.007C190.692 117.374 192.263 120.81 192.975 123.198C198.653 120.223 204.393 117.416 210.239 114.797C213.989 113.142 217.865 111.403 221.866 110.439C222.222 110.356 223.081 110.041 223.417 110.167C223.521 110.209 223.605 110.251 223.689 110.335C223.417 110.754 216.733 113.016 215.56 113.498C211.538 115.153 207.599 117.018 203.681 118.862C200.161 120.496 196.663 122.193 193.206 123.953C193.646 125.335 194.358 126.823 194.295 128.289C195.259 128.331 198.716 128.289 199.344 128.625V128.75C198.653 129.085 195.28 129.358 195.133 129.567L195.175 129.735C194.819 130.07 194.17 130.007 193.688 130.07C194.17 130.72 194.672 131.327 194.882 132.123L194.798 132.207C193.939 131.893 193.457 130.887 192.975 130.154C191.907 130.363 190.838 130.573 189.812 130.95C189.079 131.202 188.345 131.558 187.57 131.767C187.34 131.83 187.235 131.893 187.004 131.809C187.004 131.621 187.004 131.558 187.13 131.411C187.361 131.16 189.854 130.07 190.356 129.819C190.042 129.756 189.728 129.714 189.456 129.525L189.393 129.358C189.623 129.002 190.44 128.792 190.817 128.646C189.937 128.499 188.68 128.499 187.905 128.059V127.954C188.576 127.388 190.587 127.661 191.446 127.703C191.236 126.739 190.943 125.817 190.65 124.874C188.597 125.88 186.585 126.907 184.616 128.08C183.61 128.687 182.605 129.295 181.62 129.924C181.306 130.133 181.012 130.384 180.677 130.573C180.426 130.72 180.195 130.782 179.902 130.803L179.735 130.72C179.735 130.468 179.86 130.322 180.028 130.133C181.62 128.541 188.094 125 190.336 124.183C189.812 121.711 188.89 119.322 188.366 116.85C186.439 117.458 184.469 118.673 182.626 119.532L167.353 126.781L127.735 145.574C123.419 147.606 119.166 149.89 114.829 151.838C114.243 152.131 113.677 152.446 113.111 152.802C114.285 153.43 115.5 154.122 116.757 154.582L125.451 150.204C127.421 149.198 129.39 148.067 131.401 147.145C131.653 147.04 131.862 146.956 132.135 146.977L132.239 147.061C132.239 147.25 132.239 147.354 132.114 147.48C131.15 148.549 119.857 154.289 117.951 155.085C121.094 156.384 124.048 158.207 127.211 159.506C129.348 158.731 131.778 157.537 133.894 156.594C134.649 156.259 135.424 155.819 136.199 155.567C136.388 155.504 136.492 155.504 136.681 155.567L136.723 155.714C136.304 156.238 135.696 156.678 135.172 157.117C133.601 158.458 132.009 159.736 130.312 160.91C133.161 162.25 136.031 163.78 138.964 164.911L182.123 141.844C180.719 141.991 179.295 142.033 177.912 142.305C177.618 142.201 177.367 142.138 177.158 141.907V141.761C177.723 141.237 182.5 140.336 183.548 140.147C184.469 139.98 184.972 140.106 185.852 139.666C186.774 139.184 187.654 138.618 188.576 138.115C194.211 135.098 199.763 131.935 205.357 128.834C212.124 125.084 218.933 121.418 225.784 117.835C232.342 114.357 238.899 110.837 245.562 107.611C243.927 107.024 242.377 106.291 240.743 105.705C239.653 106.459 235.128 109.832 233.934 109.601L233.976 109.497ZM207.997 111.445C207.159 112.66 200.748 115.656 199.219 116.159C199.072 116.117 199.135 116.159 199.051 116.033C199.407 115.447 206.677 111.571 207.892 111.152L208.039 111.277V111.445H207.997ZM216.168 106.103C216.021 106.144 215.937 106.144 215.791 106.124L215.728 106.019C216.21 105.265 223.438 101.829 224.653 101.326C224.799 101.326 224.883 101.326 225.03 101.326V101.452C224.129 102.73 217.907 105.495 216.168 106.061V106.103ZM175.586 136.293C174.581 140.064 162.974 146.496 159.58 148.36C153.651 151.628 147.596 154.52 141.06 156.384C140.431 156.573 139.258 157.076 138.629 156.887C138.462 156.74 138.462 156.761 138.42 156.531C138.545 156.321 138.755 156.259 138.964 156.154C140.033 155.693 141.185 155.441 142.296 155.085C144.181 154.499 146.046 153.828 147.889 153.116C150.152 152.236 152.289 151.147 154.447 150.036C157.443 148.486 160.334 146.894 163.246 145.155C165.886 143.583 168.589 142.054 170.956 140.106C171.899 139.33 174.811 136.921 174.769 135.748C174.769 135.559 174.685 135.392 174.518 135.266C173.365 134.344 167.562 136.041 166.054 136.418C159.37 138.283 145.375 141.824 140.892 146.977C140.305 147.669 139.404 148.821 139.488 149.785C139.509 150.078 139.677 150.309 139.907 150.476C140.557 150.958 141.709 150.874 142.484 150.811C145.773 150.539 148.539 149.177 151.367 147.606C151.807 147.375 152.771 146.663 153.19 146.579C153.379 146.642 153.399 146.621 153.525 146.789L153.483 146.935C153.043 147.396 152.499 147.711 151.954 148.046C149.251 149.743 145.669 151.419 142.484 151.712C141.416 151.817 140.054 151.796 139.195 151.042C139.153 151 139.111 150.958 139.069 150.916C139.027 150.874 138.985 150.832 138.944 150.769C138.902 150.728 138.881 150.665 138.839 150.623C138.797 150.581 138.776 150.518 138.755 150.455C138.734 150.392 138.713 150.35 138.692 150.288C138.671 150.225 138.65 150.183 138.629 150.12C138.629 150.057 138.608 149.994 138.587 149.952C138.587 149.89 138.587 149.827 138.587 149.764C138.504 148.591 139.342 147.417 140.075 146.558C141.227 145.176 142.736 144.023 144.286 143.122C150.487 139.519 165.907 134.826 173.03 134.197C173.428 134.197 173.847 134.197 174.245 134.281C174.727 134.386 175.209 134.616 175.461 135.035C175.691 135.392 175.712 135.811 175.586 136.23V136.293ZM151.074 144.338C151.032 144.568 150.969 144.715 150.823 144.903C149.754 146.433 147.743 147.794 145.899 148.109H145.564C145.375 148.004 145.354 147.983 145.271 147.794C145.292 147.69 145.292 147.69 145.354 147.564C145.941 146.516 149.335 144.484 150.508 144.149C150.55 144.149 150.571 144.149 150.613 144.149C150.823 144.17 150.948 144.17 151.074 144.338ZM171.564 127.682C167.374 129.777 163.204 131.893 158.972 133.883L154.007 136.272C153.127 136.691 152.247 137.193 151.325 137.529C151.221 137.487 151.158 137.445 151.074 137.361C150.969 137.256 151.011 137.256 151.011 137.11C152.038 136.083 161.843 131.432 163.707 130.51C167.227 128.75 170.768 127.011 174.308 125.314C176.361 124.33 178.373 123.324 180.51 122.507L180.698 122.549L180.782 122.696C180.635 122.968 180.363 123.115 180.112 123.261C179.378 123.701 178.624 124.036 177.891 124.434C175.796 125.545 173.701 126.634 171.585 127.703L171.564 127.682ZM183.422 137.55C183.422 137.55 183.275 137.424 183.212 137.34C183.212 137.235 183.212 137.235 183.254 137.131C183.652 136.02 189.372 132.71 190.503 132.123C190.671 132.228 190.671 132.228 190.734 132.417C190.419 133.318 184.532 136.942 183.422 137.55ZM219.059 118.862C218.64 119.343 218.116 119.741 217.571 120.077C216.461 120.789 210.553 123.827 209.38 123.848C209.212 123.848 209.212 123.848 209.086 123.701C209.38 122.926 215.937 119.951 217.131 119.218C217.634 118.903 218.116 118.547 218.493 118.107C218.745 117.814 219.038 117.416 219.017 117.018C218.954 116.934 218.912 116.871 218.808 116.829C217.76 116.452 212.795 118.631 211.538 119.155C209.338 120.035 204.058 122.339 202.592 124.078C202.382 124.33 202.194 124.644 202.277 125C202.424 125.65 203.367 126.027 203.87 126.362V126.467C203.325 126.571 202.738 126.383 202.298 126.09C201.963 125.859 201.67 125.503 201.628 125.105C201.544 124.56 201.879 124.015 202.215 123.596C204.352 120.873 214.785 116.431 218.095 116.033C218.535 115.991 218.996 115.991 219.331 116.285C219.604 116.515 219.792 116.871 219.813 117.227C219.855 117.856 219.436 118.443 219.038 118.883L219.059 118.862ZM229.178 111.026C228.654 111.592 222.956 113.875 222.013 114.043C221.866 114.022 221.803 113.98 221.678 113.917V113.771C222.516 112.828 227.565 110.984 228.885 110.523C229.011 110.544 229.094 110.628 229.157 110.712C229.241 110.816 229.178 110.921 229.157 111.047L229.178 111.026Z" fill="#FFFEFC"/>
<path d="M228.885 110.502C227.565 110.984 222.516 112.807 221.699 113.75V113.896C221.699 113.896 221.866 114.001 222.013 114.022C222.935 113.854 228.654 111.592 229.178 111.005C229.178 110.879 229.241 110.796 229.178 110.67C229.115 110.565 229.031 110.502 228.906 110.481L228.885 110.502Z" fill="#261917"/>
<path d="M199.03 116.033C199.114 116.159 199.051 116.117 199.198 116.159C200.748 115.656 207.159 112.66 207.976 111.445V111.277L207.85 111.152C206.635 111.592 199.365 115.447 199.009 116.033H199.03Z" fill="#261917"/>
<path d="M225.03 101.493V101.368C224.883 101.347 224.799 101.347 224.653 101.368C223.437 101.871 216.209 105.306 215.728 106.061L215.79 106.165C215.937 106.165 216.021 106.165 216.168 106.145C217.906 105.579 224.129 102.813 225.051 101.535L225.03 101.493Z" fill="#261917"/>
<path d="M190.503 132.123C189.372 132.71 183.652 136.02 183.254 137.131C183.212 137.235 183.212 137.235 183.212 137.34C183.275 137.424 183.317 137.487 183.422 137.55C184.532 136.942 190.419 133.318 190.734 132.417C190.671 132.228 190.671 132.228 190.503 132.123Z" fill="#261917"/>
<path d="M150.53 144.128C149.357 144.463 145.963 146.495 145.376 147.543C145.313 147.669 145.313 147.669 145.292 147.773C145.397 147.983 145.397 147.983 145.586 148.088H145.921C147.765 147.773 149.776 146.412 150.844 144.882C150.97 144.694 151.054 144.547 151.096 144.317C150.97 144.149 150.844 144.149 150.635 144.128C150.593 144.128 150.572 144.128 150.53 144.128Z" fill="#261917"/>
<path d="M219.331 116.264C218.975 115.97 218.514 115.97 218.095 116.012C214.785 116.431 204.351 120.852 202.214 123.575C201.879 123.994 201.565 124.539 201.628 125.084C201.691 125.503 201.963 125.838 202.298 126.068C202.738 126.362 203.325 126.571 203.848 126.446V126.341C203.367 126.006 202.424 125.629 202.277 124.979C202.193 124.644 202.382 124.309 202.591 124.057C204.058 122.297 209.338 119.993 211.537 119.134C212.794 118.61 217.76 116.452 218.807 116.808C218.912 116.85 218.954 116.913 219.017 116.997C219.038 117.395 218.744 117.793 218.493 118.086C218.095 118.526 217.613 118.882 217.131 119.197C215.937 119.93 209.379 122.926 209.086 123.68C209.212 123.806 209.191 123.827 209.379 123.827C210.553 123.827 216.461 120.768 217.571 120.056C218.116 119.72 218.619 119.322 219.059 118.84C219.457 118.401 219.876 117.793 219.834 117.185C219.813 116.829 219.603 116.473 219.352 116.243L219.331 116.264Z" fill="#261917"/>
<path d="M180.762 122.675L180.678 122.528L180.489 122.486C178.352 123.303 176.341 124.309 174.288 125.293C170.726 126.99 167.207 128.729 163.687 130.489C161.822 131.411 152.017 136.062 150.991 137.089C150.991 137.235 150.949 137.235 151.054 137.34C151.137 137.424 151.2 137.466 151.305 137.508C152.227 137.193 153.107 136.691 153.987 136.251L158.952 133.862C163.184 131.851 167.353 129.756 171.543 127.661C173.659 126.592 175.754 125.503 177.849 124.392C178.583 123.994 179.358 123.659 180.07 123.219C180.322 123.073 180.594 122.926 180.741 122.654L180.762 122.675Z" fill="#261917"/>
<path d="M174.225 134.344C173.827 134.26 173.429 134.26 173.01 134.26C165.908 134.889 150.467 139.582 144.266 143.185C142.715 144.086 141.228 145.238 140.055 146.621C139.342 147.48 138.483 148.653 138.567 149.827C138.567 149.889 138.567 149.952 138.567 150.015C138.567 150.078 138.588 150.141 138.609 150.183C138.609 150.246 138.651 150.308 138.672 150.35C138.693 150.413 138.714 150.455 138.735 150.518C138.756 150.581 138.797 150.623 138.818 150.686C138.86 150.727 138.881 150.79 138.923 150.832C138.965 150.874 139.007 150.916 139.049 150.979C139.091 151.042 139.133 151.063 139.175 151.105C140.034 151.838 141.374 151.88 142.464 151.775C145.648 151.482 149.252 149.806 151.934 148.109C152.457 147.773 153.023 147.459 153.463 146.998L153.505 146.852C153.379 146.684 153.379 146.684 153.17 146.642C152.751 146.726 151.766 147.417 151.347 147.669C148.519 149.24 145.774 150.602 142.464 150.874C141.689 150.937 140.557 151.021 139.887 150.539C139.656 150.371 139.51 150.12 139.468 149.848C139.363 148.884 140.264 147.732 140.872 147.04C145.334 141.865 159.329 138.325 166.033 136.481C167.542 136.104 173.345 134.407 174.497 135.329C174.644 135.454 174.728 135.601 174.749 135.811C174.791 136.963 171.879 139.393 170.936 140.168C168.568 142.117 165.845 143.646 163.226 145.217C160.335 146.935 157.423 148.549 154.427 150.099C152.269 151.209 150.132 152.278 147.869 153.179C146.025 153.912 144.161 154.561 142.275 155.148C141.165 155.504 140.013 155.756 138.944 156.217C138.735 156.3 138.525 156.384 138.399 156.594C138.441 156.803 138.441 156.803 138.609 156.95C139.216 157.138 140.39 156.615 141.039 156.447C147.576 154.582 153.631 151.67 159.56 148.423C162.933 146.558 174.539 140.105 175.566 136.355C175.671 135.957 175.65 135.538 175.44 135.161C175.168 134.742 174.707 134.491 174.225 134.407V134.344Z" fill="#261917"/>
<path d="M234.898 120.16C234.647 120.265 234.228 120.328 233.956 120.265C233.83 120.244 233.872 120.244 233.809 120.139C233.893 119.846 234.228 119.595 234.458 119.427C235.653 118.505 237.014 117.751 238.292 116.955C240.429 115.593 242.587 114.252 244.766 112.953C245.101 112.744 245.457 112.534 245.814 112.388C245.855 111.11 245.981 109.853 246.086 108.596C244.347 109.392 242.692 110.355 240.995 111.235L229.388 117.353C223.082 120.642 216.818 123.994 210.575 127.388L173.555 148.025C169.155 150.392 164.755 152.718 160.335 155.001C156.019 157.285 151.745 159.611 147.471 161.978C145.816 162.9 144.161 163.78 142.506 164.66C141.458 165.204 140.285 165.707 139.321 166.399L139.426 173.92C141.395 172.684 150.362 167.195 151.934 166.859L152.059 166.943C152.059 167.132 152.059 167.153 151.913 167.299C151.536 167.656 150.97 167.928 150.53 168.2C149.273 168.976 148.016 169.73 146.759 170.484C146.277 170.777 145.627 171.071 145.187 171.427C144.14 171.992 143.134 172.663 142.108 173.27C141.333 173.71 140.453 174.067 139.719 174.569C139.552 174.674 139.552 174.716 139.468 174.884L139.51 175.051C139.992 175.114 144.538 172.034 145.271 171.573C145.439 171.49 145.481 171.469 145.669 171.49V171.615C144.978 172.705 142.464 174.276 141.312 175.093C142.192 174.779 143.03 174.046 143.784 173.501C144.999 172.621 146.214 171.72 147.513 170.945C147.869 170.714 148.288 170.421 148.707 170.337L148.791 170.421C148.791 170.526 148.791 170.547 148.728 170.673C148.414 171.573 140.83 176.518 139.51 177.23C139.51 180.142 139.698 183.054 139.719 185.967C141.291 184.94 142.778 183.788 144.349 182.761C147.031 180.98 149.797 179.304 152.562 177.67C153.421 177.167 154.28 176.518 155.16 176.057C155.349 175.952 155.495 175.889 155.726 175.889C155.893 176.036 155.893 176.015 155.935 176.224C155.851 176.455 155.705 176.581 155.537 176.727C154.427 177.565 153.17 178.299 152.017 179.053C147.974 181.714 143.742 184.165 139.824 186.993C139.824 188.229 139.824 189.486 139.824 190.722C141.919 189.633 143.909 188.334 145.963 187.161L162.514 177.712L208.102 151.335L233.117 136.816L239.696 132.919C241.246 131.998 242.86 131.139 244.326 130.091C244.41 128.666 244.829 125.943 244.703 124.728C244.703 124.602 244.703 124.665 244.577 124.56C244.138 124.602 243.719 124.937 243.32 125.084C243.153 125 243.132 124.979 243.006 124.811C243.069 124.225 243.677 124.288 243.907 123.869C243.09 123.869 239.424 126.886 237.852 127.179C237.664 127.221 237.517 127.263 237.37 127.137C237.601 126.32 243.279 123.24 244.305 122.486C244.557 122.297 244.892 122.046 244.997 121.753C245.311 120.915 245.29 119.218 245.374 118.233C245.457 117.185 245.583 116.138 245.751 115.111C244.389 115.824 240.45 118.212 239.109 118.401C238.942 118.422 239.005 118.442 238.879 118.359C239.047 117.898 239.57 117.646 239.968 117.395L239.822 117.269C238.774 117.898 237.748 118.526 236.721 119.155C236.176 119.49 235.569 119.951 235.003 120.181L234.898 120.16ZM212.355 130.363C212.502 130.384 212.565 130.447 212.691 130.531V130.699C212.586 130.95 212.376 131.076 212.146 131.243C210.679 132.186 209.024 132.982 207.495 133.82C205.735 134.784 203.724 136.083 201.88 136.753C201.838 136.753 201.796 136.732 201.775 136.711C201.608 136.586 201.587 136.502 201.545 136.313C201.859 135.685 211.098 130.929 212.355 130.363ZM158.533 174.15L158.303 174.192C158.114 174.129 158.093 174.129 157.988 173.962C158.03 173.773 158.093 173.71 158.24 173.585C159.078 172.914 160.083 172.411 161.005 171.846C162.556 170.903 164.085 169.918 165.635 168.934C165.866 168.934 165.971 168.996 166.138 169.143V169.332C165.531 170.358 159.832 173.543 158.533 174.15ZM169.867 158.919C168.212 159.82 166.536 160.868 164.797 161.58C164.609 161.496 164.609 161.496 164.525 161.308C164.546 161.203 164.525 161.182 164.609 161.077C165.174 159.967 191.845 145.93 195.301 144.191C196.6 143.541 197.878 142.955 199.219 142.41L199.366 142.452L199.429 142.62C199.01 143.206 197.711 143.751 197.082 144.128C194.568 145.553 191.991 146.893 189.456 148.276L177.703 154.729L169.909 158.961L169.867 158.919ZM187.277 159.715C187.068 159.757 186.9 159.799 186.691 159.736V159.59C187.131 158.877 194.463 155.127 195.7 154.478C195.741 154.478 195.804 154.478 195.846 154.499C196.014 154.54 196.202 154.729 196.265 154.897C196.035 155.295 188.304 159.233 187.277 159.694V159.715ZM215.687 137.738C214.723 139.142 194.987 151.23 192.557 152.32C192.431 152.299 192.389 152.257 192.285 152.194V152.026C192.871 151.482 193.667 151.063 194.338 150.623C195.804 149.638 197.271 148.695 198.737 147.732L208.019 141.823C210.491 140.273 212.963 138.681 215.54 137.34L215.624 137.382C215.749 137.549 215.749 137.529 215.707 137.738H215.687ZM218.955 126.069C218.955 126.069 218.934 125.838 218.976 125.754C219.5 124.874 223.313 123.156 224.339 122.905L224.444 122.968L224.486 123.135C224.004 123.848 220.044 126.048 219.081 126.299C219.039 126.236 218.955 126.131 218.934 126.069H218.955ZM230.792 133.422C230.017 134.344 221.741 138.807 220.191 139.582L219.898 139.666L219.814 139.582C219.814 139.582 219.814 139.498 219.856 139.435C220.212 138.681 229.011 133.443 230.268 133.003C230.499 133.045 230.624 133.045 230.792 133.213V133.422ZM241.728 122.716C241.896 122.758 241.812 122.716 241.959 122.842V122.968C241.288 123.848 233.39 128.562 232.259 128.855C232.217 128.834 232.196 128.813 232.154 128.792C232.007 128.666 231.986 128.624 231.986 128.436C232.74 127.451 240.241 123.345 241.749 122.716H241.728Z" fill="#D6C8B5"/>
<path d="M224.486 123.135L224.444 122.968L224.339 122.905C223.313 123.156 219.5 124.874 218.976 125.754C218.913 125.838 218.913 125.964 218.955 126.069C218.976 126.131 219.06 126.236 219.102 126.299C220.065 126.069 224.025 123.848 224.507 123.135H224.486Z" fill="#261917"/>
<path d="M195.846 154.499C195.846 154.499 195.742 154.499 195.7 154.478C194.464 155.148 187.131 158.877 186.67 159.59V159.736C186.921 159.799 187.068 159.757 187.298 159.715C188.325 159.233 196.056 155.295 196.286 154.918C196.223 154.75 196.035 154.582 195.867 154.52L195.846 154.499Z" fill="#261917"/>
<path d="M165.614 168.955C164.085 169.918 162.535 170.903 160.984 171.867C160.062 172.432 159.057 172.914 158.219 173.606C158.072 173.731 158.009 173.794 157.967 173.983C158.093 174.15 158.093 174.15 158.282 174.213L158.512 174.171C159.811 173.564 165.489 170.4 166.117 169.353V169.164C165.929 169.017 165.824 168.976 165.593 168.955H165.614Z" fill="#261917"/>
<path d="M231.986 128.436C231.986 128.624 231.986 128.666 232.153 128.792C232.174 128.813 232.216 128.834 232.258 128.855C233.41 128.562 241.309 123.848 241.958 122.968V122.842C241.833 122.716 241.896 122.737 241.749 122.716C240.24 123.345 232.761 127.472 231.986 128.436Z" fill="#261917"/>
<path d="M219.855 139.456C219.855 139.456 219.834 139.54 219.813 139.603L219.897 139.687L220.191 139.603C221.72 138.828 230.016 134.365 230.792 133.443V133.234C230.624 133.087 230.498 133.087 230.268 133.024C229.011 133.443 220.212 138.702 219.855 139.456Z" fill="#261917"/>
<path d="M201.753 136.712C201.753 136.712 201.816 136.753 201.858 136.753C203.702 136.083 205.713 134.784 207.473 133.82C209.002 132.982 210.678 132.186 212.124 131.243C212.354 131.097 212.564 130.95 212.711 130.699V130.531C212.564 130.447 212.48 130.384 212.354 130.363C211.097 130.929 201.837 135.685 201.544 136.313C201.565 136.502 201.607 136.586 201.774 136.712H201.753Z" fill="#261917"/>
<path d="M215.518 137.34C212.942 138.702 210.469 140.273 207.997 141.823L198.716 147.732C197.249 148.674 195.762 149.638 194.316 150.623C193.646 151.063 192.871 151.482 192.284 152.026V152.194C192.284 152.194 192.431 152.299 192.557 152.32C194.987 151.23 214.722 139.121 215.686 137.738C215.707 137.529 215.707 137.55 215.602 137.382L215.518 137.34Z" fill="#261917"/>
<path d="M197.061 144.128C197.69 143.772 198.989 143.206 199.408 142.62L199.345 142.452L199.198 142.41C197.857 142.955 196.558 143.541 195.28 144.191C191.824 145.93 165.153 159.988 164.588 161.077C164.525 161.182 164.525 161.203 164.504 161.308C164.588 161.496 164.609 161.496 164.776 161.58C166.515 160.847 168.191 159.82 169.846 158.919L177.64 154.687L189.393 148.234C191.949 146.852 194.505 145.532 197.019 144.086L197.061 144.128Z" fill="#261917"/>
<path d="M187.445 110.083C187.571 109.874 187.613 109.874 187.843 109.853C188.702 110.209 189.959 112.493 190.441 113.352C190.734 113.247 191.028 113.142 191.321 113.016C191.489 112.87 191.656 112.744 191.803 112.576C192.746 111.634 193.919 109.79 193.353 108.596C192.934 107.737 191.656 107.339 190.19 107.339C189.1 107.339 187.927 107.548 186.9 107.946C184.952 108.721 183.004 110.502 182.354 112.115C182.124 112.681 182.082 113.184 182.249 113.54C182.501 114.085 183.276 114.504 184.386 114.692C185.35 114.86 186.502 114.839 187.634 114.63C187.319 113.163 186.942 110.796 187.424 110.083H187.445Z" fill="#D6C8B5"/>
<path d="M190.441 113.331C189.98 112.472 188.723 110.209 187.843 109.832C187.613 109.874 187.571 109.853 187.445 110.062C186.963 110.775 187.34 113.163 187.655 114.609C187.885 114.567 188.137 114.504 188.367 114.441C188.137 113.31 188.095 112.157 188.053 111.005C188.535 111.361 188.996 112.304 189.268 112.828C189.477 113.226 189.624 113.603 189.729 113.959C190.294 113.708 190.818 113.372 191.3 112.995C191.007 113.1 190.714 113.226 190.42 113.331H190.441Z" fill="#D6C8B5"/>
<path d="M188.052 111.026C188.073 112.178 188.115 113.331 188.366 114.462C188.827 114.336 189.309 114.169 189.749 113.959C189.644 113.603 189.497 113.226 189.288 112.828C189.015 112.304 188.555 111.361 188.073 111.005L188.052 111.026Z" fill="#D6C8B5"/>
<path d="M182.06 113.645C181.327 112.073 183.883 108.889 186.837 107.716C189.225 106.773 192.766 106.794 193.583 108.47C194.233 109.79 192.976 111.738 191.991 112.723C192.179 112.639 192.347 112.576 192.536 112.492C193.395 111.466 194.463 109.685 193.814 108.365C192.892 106.459 189.079 106.563 186.753 107.485C184.658 108.302 182.647 110.188 181.935 111.927C181.662 112.618 181.62 113.247 181.851 113.729C182.165 114.42 183.045 114.923 184.344 115.153C184.805 115.237 185.308 115.279 185.831 115.279C186.46 115.279 187.109 115.216 187.78 115.09C187.78 115.007 187.738 114.944 187.717 114.86C185.161 115.363 182.605 114.839 182.06 113.645Z" fill="#010101"/>
<path d="M188.43 114.713C188.199 114.776 187.948 114.839 187.717 114.881C187.717 114.965 187.759 115.049 187.78 115.111C188.032 115.069 188.262 115.007 188.513 114.944C188.513 114.86 188.472 114.797 188.451 114.713H188.43Z" fill="#010101"/>
<path d="M191.97 112.744C191.363 113.372 190.609 113.854 189.812 114.21C189.833 114.294 189.854 114.378 189.875 114.462C190.713 114.085 191.489 113.582 192.159 112.911C192.264 112.807 192.389 112.66 192.515 112.513C192.348 112.597 192.159 112.66 191.97 112.744Z" fill="#010101"/>
<path d="M188.43 114.713C188.43 114.797 188.472 114.86 188.493 114.944C188.953 114.818 189.435 114.65 189.875 114.462C189.875 114.378 189.833 114.294 189.812 114.21C189.352 114.42 188.891 114.588 188.43 114.713Z" fill="#010101"/>
<path d="M184.407 114.692C183.296 114.504 182.521 114.085 182.27 113.54C182.102 113.184 182.144 112.681 182.374 112.115C183.024 110.502 184.972 108.7 186.921 107.946C187.926 107.548 189.121 107.339 190.21 107.339C191.677 107.339 192.955 107.737 193.374 108.596C193.96 109.79 192.766 111.634 191.823 112.576C191.677 112.723 191.509 112.87 191.341 113.016C191.572 112.932 191.781 112.849 192.012 112.744C192.996 111.759 194.233 109.811 193.604 108.491C192.787 106.815 189.246 106.794 186.858 107.737C183.904 108.91 181.369 112.094 182.081 113.666C182.626 114.86 185.182 115.384 187.738 114.881C187.738 114.797 187.696 114.734 187.696 114.65C186.544 114.881 185.391 114.881 184.449 114.713L184.407 114.692Z" fill="#010101"/>
<path d="M187.654 114.629C187.654 114.629 187.696 114.797 187.696 114.86C187.927 114.818 188.178 114.755 188.409 114.692C188.409 114.608 188.367 114.525 188.367 114.462C188.136 114.525 187.885 114.587 187.654 114.629Z" fill="#010101"/>
<path d="M189.749 113.98C189.749 113.98 189.791 114.148 189.812 114.211C190.608 113.854 191.363 113.372 191.97 112.744C191.761 112.828 191.53 112.933 191.3 113.016C190.818 113.393 190.294 113.729 189.729 113.98H189.749Z" fill="#010101"/>
<path d="M189.749 113.98C189.309 114.189 188.848 114.336 188.366 114.483C188.366 114.567 188.408 114.65 188.408 114.713C188.89 114.588 189.351 114.42 189.791 114.21C189.791 114.127 189.749 114.043 189.728 113.98H189.749Z" fill="#010101"/>
<path d="M148.791 50.1852C148.456 50.0804 148.1 49.9547 147.764 49.85C147.408 49.7452 147.073 49.6405 146.717 49.5567C146.591 49.5148 146.466 49.4938 146.34 49.4519L154.029 52.1545C152.269 51.547 150.572 50.7718 148.791 50.1852Z" fill="#FFFEFC"/>
</svg>
