<svg width="344" height="241" viewBox="0 0 344 241" fill="none" xmlns="http://www.w3.org/2000/svg">
<rect x="0.137695" y="0.558594" width="343.438" height="239.623" rx="23" fill="white"/>
<path d="M103.48 142.328C103.265 142.544 103.076 142.759 102.888 143.001C101.03 145.452 100.168 149.383 100.841 152.372C104.854 169.768 158.656 169.983 170.127 170.037C179.417 170.064 238.74 170.306 242.86 151.941C243.587 148.71 242.537 143.19 239.332 141.547C223.31 133.28 206.399 127.518 188.411 125.39C183.645 124.825 178.825 124.502 174.032 124.448C150.658 124.098 127.581 129.807 106.792 140.362C105.634 140.955 104.423 141.466 103.48 142.382V142.328Z" fill="#FACA48"/>
<path fill-rule="evenodd" clip-rule="evenodd" d="M231.955 134.061C231.955 138.72 228.535 142.705 223.957 143.621C208.743 146.691 192.909 149.222 170.532 149.087C149.151 148.953 134.179 147.445 119.449 144.671C115.437 143.917 112.179 140.793 111.505 136.754C110.267 129.51 111.075 120.786 114.441 112.276C114.629 111.819 114.791 111.388 114.979 110.957C122.6 92.592 133.694 84.1097 134.556 83.4634C136.414 82.117 138.38 80.9321 138.38 80.9321C139.457 80.2859 140.561 79.6665 141.692 79.101C142.365 78.7779 143.038 78.4278 143.738 78.1316C144.035 77.997 144.331 77.8623 144.627 77.7546C145.166 77.5123 145.704 77.2968 146.27 77.0814C147.858 76.4621 149.474 75.9235 151.144 75.4388C154.483 74.4694 158.01 73.7962 161.78 73.3923C162.049 73.3653 162.319 73.3653 162.588 73.3115C164.931 73.0961 167.354 72.9614 169.832 72.9614C172.121 72.9614 174.329 73.0422 176.483 73.2038C176.725 73.2038 176.995 73.2307 177.264 73.2846C182.246 73.7154 186.877 74.5771 191.186 75.8966C192.182 76.1928 193.151 76.5159 194.121 76.8929C194.686 77.1353 195.225 77.3238 195.763 77.5661C196.06 77.7008 196.356 77.8085 196.652 77.9431C197.002 78.0778 197.325 78.2393 197.675 78.4009C198.429 78.751 199.156 79.101 199.91 79.478C199.91 79.478 201.418 80.2589 202.899 81.1745C210.951 86.0485 218.221 97.1159 222.126 103.821C224.038 107.079 225.115 109.341 225.115 109.341C228.104 115.454 232.036 123.775 231.982 134.061H231.955Z" fill="#FACA48"/>
<path fill-rule="evenodd" clip-rule="evenodd" d="M197.647 78.4277V91.3801C197.647 96.308 193.608 100.374 188.68 100.374H153.619C148.692 100.374 144.625 96.308 144.625 91.3801V77.7814C145.164 77.5391 145.703 77.3236 146.268 77.1082C147.857 76.4889 149.473 75.9503 151.142 75.4656C154.481 74.4962 158.009 73.823 161.779 73.4191C162.048 73.3921 162.317 73.3921 162.587 73.3383C164.929 73.1229 167.353 72.9882 169.83 72.9882C172.119 72.9882 174.327 73.069 176.481 73.2306C176.724 73.2306 176.993 73.2575 177.262 73.3114C182.244 73.7422 186.876 74.6039 191.184 75.9234C192.181 76.2196 193.15 76.5427 194.119 76.9197C194.685 77.1621 195.223 77.3506 195.762 77.5929C196.058 77.7276 196.354 77.8353 196.651 77.9699C197.001 78.1046 197.324 78.2661 197.674 78.4277H197.647Z" fill="#F9B248"/>
<path fill-rule="evenodd" clip-rule="evenodd" d="M191.159 75.9503V88.0949C191.159 92.0802 187.9 95.3385 183.942 95.3385H158.36C154.402 95.3385 151.144 92.0802 151.144 88.0949V75.4656C154.483 74.4962 158.01 73.823 161.78 73.4191C162.049 73.3921 162.319 73.3921 162.588 73.3383C164.931 73.1229 167.354 72.9882 169.832 72.9882C172.121 72.9882 174.329 73.069 176.483 73.2306C176.725 73.2306 176.995 73.2575 177.264 73.3114C182.246 73.7422 186.877 74.6039 191.186 75.9234L191.159 75.9503Z" fill="#FFDB39"/>
<path fill-rule="evenodd" clip-rule="evenodd" d="M231.12 142.14C213.563 145.829 196.436 149.249 170.504 149.114C146.188 148.979 130.139 147.014 113.336 143.486C109.97 135.327 109.889 123.64 114.386 112.303C114.575 111.846 114.736 111.415 114.925 110.984C116.325 114.458 118.883 119.574 123.488 124.583C130.112 131.799 137.302 134.788 142.93 137.158C155.398 142.355 166.088 142.624 168.916 142.651C173.305 142.678 184.507 142.328 197.083 136.646C203.438 133.765 209.362 131.099 214.424 124.717C220.752 116.72 221.803 107.914 222.018 103.875C222.772 105.14 223.499 106.487 224.226 107.86C224.738 108.83 225.007 109.395 225.007 109.395C228.75 117.043 233.92 128.137 231.066 142.167L231.12 142.14Z" fill="#F9B248"/>
<path fill-rule="evenodd" clip-rule="evenodd" d="M185.988 141.817C185.988 142.005 185.934 142.194 185.88 142.355C185.88 142.382 185.88 142.436 185.88 142.463C185.826 142.571 185.799 142.678 185.718 142.786C185.395 143.459 184.803 143.971 183.995 144.348C183.887 144.429 183.753 144.482 183.618 144.509C182.972 144.779 182.218 144.994 181.437 145.129C181.087 145.209 180.71 145.263 180.333 145.317C180.198 145.317 180.064 145.317 179.956 145.344C179.525 145.398 179.121 145.425 178.663 145.452C178.152 145.479 177.613 145.506 177.074 145.533C175.89 145.56 174.624 145.533 173.412 145.533C172.928 145.533 172.47 145.533 172.012 145.506C171.743 145.506 171.473 145.506 171.177 145.506H170.773C163.934 145.263 158.548 144.94 157.767 141.52C157.605 140.82 157.767 136.862 158.063 131.153C158.063 130.938 158.063 130.722 158.09 130.507C158.279 127.248 158.521 123.478 158.763 119.439C158.79 119.008 158.844 118.551 158.844 118.12C158.979 115.858 159.167 113.569 159.329 111.199C159.356 110.553 159.41 109.907 159.464 109.287C159.517 108.587 159.544 107.887 159.598 107.16C159.867 103.282 160.137 99.3778 160.406 95.6079C160.433 95.177 160.46 94.7731 160.487 94.3423C160.487 93.9114 160.541 93.5075 160.568 93.1036C160.621 92.3227 160.675 91.5418 160.729 90.7339C160.729 90.6262 160.729 90.4916 160.729 90.3569C160.783 89.6568 160.837 88.9567 160.864 88.2565V88.1757C160.891 87.7449 160.918 87.341 160.945 86.937C161.214 83.1402 161.429 79.7203 161.618 76.8929C161.645 76.3543 161.699 75.8427 161.725 75.3849C161.752 74.5501 161.806 73.7692 161.86 73.0691C161.914 72.4497 162.183 71.8842 162.587 71.4534C163.072 70.9956 163.691 70.6994 164.391 70.6994H177.236C177.99 70.6994 178.663 71.0225 179.094 71.5342C179.498 71.965 179.74 72.4767 179.794 73.096C179.875 74.6848 180.037 76.5428 180.225 78.6432C180.279 79.101 180.306 79.5318 180.36 80.0165C180.44 80.8513 180.494 81.7399 180.602 82.6555C180.656 83.3556 180.737 84.1096 180.791 84.8367C180.898 86.1023 181.033 87.4218 181.168 88.7682C181.248 89.6299 181.329 90.4916 181.41 91.3533C181.679 93.9922 181.948 96.7389 182.218 99.5125C182.299 100.455 182.406 101.371 182.487 102.313C182.972 106.972 183.43 111.711 183.887 116.181C183.968 116.854 184.022 117.527 184.076 118.174C184.776 125.148 185.368 131.422 185.691 135.812C185.718 136.189 185.772 136.539 185.772 136.889C185.799 137.239 185.826 137.562 185.826 137.885C185.826 138.208 185.853 138.477 185.88 138.774C185.961 140.255 186.015 141.305 185.961 141.817H185.988Z" fill="#FFDB39"/>
<path fill-rule="evenodd" clip-rule="evenodd" d="M171.958 145.533C171.689 145.533 171.42 145.533 171.124 145.533H170.72C163.88 145.29 158.494 144.967 157.713 141.547C157.552 140.847 157.713 136.889 158.01 131.18C158.01 130.964 158.01 130.749 158.036 130.534C158.225 127.275 158.467 123.505 158.71 119.466C158.737 119.035 158.79 118.578 158.79 118.147C158.925 115.885 159.114 113.596 159.275 111.226C159.302 110.58 159.356 109.934 159.41 109.314C159.464 108.614 159.491 107.914 159.544 107.187C159.814 103.309 160.083 99.4047 160.352 95.6348C160.379 95.2039 160.406 94.8 160.433 94.3692C160.433 93.9383 160.487 93.5344 160.514 93.1305C160.568 92.3226 160.622 91.5686 160.675 90.7608C160.675 90.6531 160.675 90.5185 160.675 90.3838C160.729 89.6837 160.783 88.9836 160.81 88.2834V88.2026C160.837 87.7718 160.864 87.3679 160.891 86.9639C161.16 83.1671 161.376 79.7472 161.564 76.9198C161.591 76.3812 161.645 75.8696 161.672 75.4118C161.699 74.577 161.753 73.7961 161.806 73.096C161.86 72.4766 162.13 71.9111 162.533 71.4803C163.934 88.9836 163.584 108.695 162.614 127.275C161.86 141.305 164.984 143.728 170.154 145.075C170.531 145.156 170.935 145.263 171.366 145.398C171.501 145.452 171.689 145.479 171.851 145.533H171.958Z" fill="#FFED3D"/>
<path fill-rule="evenodd" clip-rule="evenodd" d="M185.988 141.817C185.988 142.005 185.934 142.194 185.88 142.355C185.88 142.382 185.88 142.436 185.88 142.463C185.827 142.57 185.8 142.678 185.719 142.786C185.396 143.459 184.803 143.971 183.996 144.348C183.888 144.429 183.753 144.482 183.619 144.509C182.972 144.779 182.218 144.994 181.437 145.129C181.087 145.209 180.71 145.263 180.333 145.317C180.199 145.317 180.064 145.317 179.956 145.344C179.525 145.398 179.122 145.425 178.664 145.452C178.152 145.479 177.614 145.506 177.075 145.533C175.89 145.56 174.625 145.533 173.413 145.533C172.928 145.533 172.47 145.533 172.013 145.506C171.743 145.506 171.474 145.506 171.178 145.506L171.528 145.398C176.671 144.052 179.822 141.601 179.068 127.598C178.071 108.937 177.775 89.1182 179.148 71.5611C179.552 71.9919 179.795 72.5036 179.849 73.096C179.929 74.6848 180.091 76.5428 180.279 78.6432C180.306 79.074 180.36 79.5318 180.414 80.0165C180.495 80.8513 180.549 81.7399 180.656 82.6555C180.71 83.3556 180.791 84.1096 180.845 84.8366C180.953 86.1023 181.087 87.4217 181.222 88.7682C181.303 89.6298 181.383 90.4915 181.464 91.3532C181.734 93.9922 182.003 96.7389 182.272 99.5125C182.353 100.455 182.461 101.37 182.541 102.313C183.026 106.972 183.484 111.711 183.942 116.181C184.022 116.854 184.076 117.527 184.13 118.174C184.83 125.148 185.423 131.422 185.746 135.812C185.773 136.189 185.827 136.539 185.827 136.889C185.854 137.239 185.88 137.562 185.88 137.885C185.907 138.208 185.934 138.504 185.934 138.774C186.015 140.255 186.069 141.305 186.015 141.817H185.988Z" fill="#F9B248"/>
<path d="M242.887 151.915C238.767 170.306 179.444 170.064 170.154 170.037C158.683 169.983 104.853 169.768 100.841 152.372C100.491 150.784 100.572 149.168 100.949 147.66C105.661 164.652 158.763 164.867 170.154 164.921C179.39 164.948 237.851 165.19 242.752 147.256C243.129 148.737 243.237 150.299 242.887 151.915Z" fill="#E2721D"/>
</svg>
