<svg width="344" height="241" viewBox="0 0 344 241" fill="none" xmlns="http://www.w3.org/2000/svg">
<rect x="0.137695" y="0.558594" width="343.438" height="239.623" rx="23" fill="white"/>
<g clip-path="url(#clip0_55_2)">
<path d="M255.832 58.6366H78.9772C70.5351 58.6366 63.6914 65.465 63.6914 73.8884V178.787C63.6914 187.21 70.5351 194.038 78.9772 194.038H255.832C264.274 194.038 271.118 187.21 271.118 178.787V73.8884C271.118 65.465 264.274 58.6366 255.832 58.6366Z" fill="#302769"/>
<path d="M262.771 195.37H72.0137C66.6758 195.37 62.3569 191.037 62.3569 185.735V66.9645C62.3569 61.6385 66.7001 57.3293 72.0137 57.3293H262.771C268.109 57.3293 272.428 61.6627 272.428 66.9645V185.711C272.428 191.037 268.085 195.346 262.771 195.346V195.37ZM72.0137 59.9681C68.1558 59.9681 65.0016 63.1153 65.0016 66.9645V185.711C65.0016 189.56 68.1558 192.707 72.0137 192.707H262.771C266.629 192.707 269.783 189.56 269.783 185.711V66.9645C269.783 63.1153 266.629 59.9681 262.771 59.9681H72.0137Z" fill="#302769"/>
<path d="M87.882 46.7014H264.737C273.18 46.7014 280.023 53.5284 280.023 61.9532V166.852C280.023 175.276 273.18 182.103 264.737 182.103H87.882C79.4384 182.103 72.5962 175.276 72.5962 166.852V61.9532C72.5962 53.5284 79.4627 46.7014 87.882 46.7014Z" fill="white"/>
<path d="M271.7 183.411H80.9427C75.6047 183.411 71.2859 179.077 71.2859 173.775V55.0052C71.2859 49.6792 75.629 45.3699 80.9427 45.3699H271.7C277.038 45.3699 281.357 49.7034 281.357 55.0052V173.751C281.357 179.077 277.014 183.386 271.7 183.386V183.411ZM80.9427 48.0087C77.0848 48.0087 73.9306 51.1559 73.9306 55.0052V173.751C73.9306 177.6 77.0848 180.748 80.9427 180.748H271.7C275.558 180.748 278.712 177.6 278.712 173.751V55.0052C278.712 51.1559 275.558 48.0087 271.7 48.0087H80.9427Z" fill="#302769"/>
<path d="M97.7812 173.001H90.4294C85.6981 173.001 81.8645 169.151 81.8645 164.455V105.288C81.8645 104.561 82.4468 103.956 83.199 103.956C83.9511 103.956 84.5335 104.537 84.5335 105.288V164.455C84.5335 167.723 87.2024 170.362 90.4537 170.362H97.8054C98.5333 170.362 99.1399 170.943 99.1399 171.693C99.1399 172.444 98.5576 173.025 97.8054 173.025L97.7812 173.001Z" fill="#302769"/>
<path d="M280.047 66.795H72.596C71.8681 66.795 71.2615 66.214 71.2615 65.4635C71.2615 64.713 71.8438 64.132 72.596 64.132H280.022C280.75 64.132 281.357 64.713 281.357 65.4635C281.357 66.214 280.775 66.795 280.022 66.795H280.047Z" fill="#302769"/>
<path d="M240.158 60.428C237.829 60.428 235.936 58.5397 235.936 56.2156C235.936 53.8915 237.829 52.0032 240.158 52.0032C242.487 52.0032 244.38 53.8915 244.38 56.2156C244.38 58.5397 242.487 60.428 240.158 60.428ZM240.158 54.6662C239.284 54.6662 238.581 55.3683 238.581 56.2398C238.581 57.1114 239.284 57.8134 240.158 57.8134C241.031 57.8134 241.735 57.1114 241.735 56.2398C241.735 55.3683 241.031 54.6662 240.158 54.6662Z" fill="#302769"/>
<path d="M251.489 60.428C249.16 60.428 247.267 58.5397 247.267 56.2156C247.267 53.8915 249.16 52.0032 251.489 52.0032C253.818 52.0032 255.711 53.8915 255.711 56.2156C255.711 58.5397 253.818 60.428 251.489 60.428ZM251.489 54.6662C250.615 54.6662 249.912 55.3683 249.912 56.2398C249.912 57.1114 250.615 57.8134 251.489 57.8134C252.362 57.8134 253.066 57.1114 253.066 56.2398C253.066 55.3683 252.362 54.6662 251.489 54.6662Z" fill="#302769"/>
<path d="M265.731 56.2398C265.731 54.642 264.445 53.3589 262.844 53.3589C261.242 53.3589 259.957 54.642 259.957 56.2398C259.957 57.8376 261.242 59.1207 262.844 59.1207C264.445 59.1207 265.731 57.8376 265.731 56.2398Z" fill="#302769"/>
<path d="M262.819 60.428C260.49 60.428 258.598 58.5397 258.598 56.2156C258.598 53.8915 260.49 52.0032 262.819 52.0032C265.149 52.0032 267.041 53.8915 267.041 56.2156C267.041 58.5397 265.149 60.428 262.819 60.428ZM262.819 54.6662C261.946 54.6662 261.242 55.3683 261.242 56.2398C261.242 57.1114 261.946 57.8134 262.819 57.8134C263.693 57.8134 264.397 57.1114 264.397 56.2398C264.397 55.3683 263.693 54.6662 262.819 54.6662Z" fill="#302769"/>
<path d="M138.883 75.7767C138.883 75.2199 139.32 74.7599 139.927 74.7599H146.817C147.424 74.7599 147.861 75.2199 147.861 75.7767V124.97C147.861 125.744 147.254 126.35 146.478 126.35H140.291C139.514 126.35 138.908 125.744 138.908 124.97V102.649C138.908 101.874 138.301 101.269 137.525 101.269C136.748 101.269 136.142 101.874 136.142 102.649V124.97C136.142 125.744 135.535 126.35 134.759 126.35H128.571C127.795 126.35 127.188 125.744 127.188 124.97V75.7767C127.188 75.2199 127.625 74.7599 128.232 74.7599H135.123C135.729 74.7599 136.166 75.2199 136.166 75.7767V90.9558C136.166 91.7305 136.772 92.3357 137.549 92.3357C138.325 92.3357 138.932 91.7305 138.932 90.9558V75.7767H138.883Z" fill="#302769"/>
<path d="M170.595 74.7599C171.372 74.7599 171.978 75.3409 171.978 76.1156V82.3131C171.978 83.0878 171.372 83.6931 170.595 83.6931H166.786C166.398 83.6931 166.107 83.9836 166.107 84.3709V124.945C166.107 125.72 165.524 126.325 164.748 126.325H158.512C157.736 126.325 157.129 125.72 157.129 124.945V84.3709C157.129 83.9836 156.789 83.6931 156.45 83.6931H152.665C151.888 83.6931 151.282 83.0878 151.282 82.3131V76.1156C151.282 75.3409 151.888 74.7599 152.665 74.7599H170.595Z" fill="#302769"/>
<path d="M198.692 75.1472C198.959 74.8809 199.274 74.7599 199.687 74.7599H206.699C207.475 74.7599 208.058 75.3409 208.058 76.1156V124.97C208.058 125.744 207.475 126.35 206.699 126.35H200.463C199.687 126.35 199.08 125.744 199.08 124.97V89.0917C199.08 88.4865 198.352 88.1718 197.916 88.6075L196.969 89.5517C196.581 89.8906 196.363 90.399 196.363 91.0042V124.945C196.363 125.72 195.756 126.325 194.98 126.325H188.793C188.016 126.325 187.41 125.72 187.41 124.945V90.9558C187.41 90.4232 187.191 89.939 186.779 89.5275L185.833 88.5833C185.396 88.1233 184.668 88.4623 184.668 89.0675V124.97C184.668 125.744 184.061 126.35 183.285 126.35H177.098C176.321 126.35 175.715 125.744 175.715 124.97V76.1156C175.715 75.3409 176.321 74.7599 177.098 74.7599H184.086C184.474 74.7599 184.838 74.8809 185.105 75.1472L191.437 81.49C191.68 81.7805 192.165 81.7805 192.384 81.49L198.741 75.1472H198.692Z" fill="#302769"/>
<path d="M232.515 99.6469C232.952 99.1869 233.68 99.5259 233.68 100.131V124.97C233.68 125.744 233.073 126.35 232.297 126.35H214.366C213.59 126.35 212.983 125.744 212.983 124.97V76.1156C212.983 75.3409 213.59 74.7599 214.366 74.7599H220.529C221.306 74.7599 221.912 75.3409 221.912 76.1156V114.657C221.912 115.431 222.519 116.037 223.295 116.037C224.072 116.037 224.654 115.431 224.654 114.657V108.29C224.654 107.757 224.872 107.273 225.285 106.861L232.491 99.6711L232.515 99.6469Z" fill="#302769"/>
<path d="M102.634 173.001H101.857C101.13 173.001 100.523 172.42 100.523 171.669C100.523 170.919 101.105 170.338 101.857 170.338H102.634C103.362 170.338 103.968 170.919 103.968 171.669C103.968 172.42 103.386 173.001 102.634 173.001Z" fill="#302769"/>
<path d="M129.032 132.426H137.767V134.193H131.119V139.616H137.257V141.359H131.119V148.743H129.032V132.402V132.426Z" fill="#302769"/>
<path d="M141.503 143.611L139.805 148.743H137.646L143.153 132.402H145.677L151.209 148.743H148.976L147.254 143.611H141.503ZM146.817 141.964L145.216 137.268C144.852 136.203 144.609 135.234 144.366 134.29H144.318C144.075 135.259 143.808 136.251 143.493 137.244L141.892 141.964H146.793H146.817Z" fill="#302769"/>
<path d="M153.32 146.177C154.266 146.758 155.625 147.242 157.081 147.242C159.216 147.242 160.478 146.104 160.478 144.458C160.478 142.933 159.604 142.061 157.42 141.214C154.776 140.27 153.126 138.89 153.126 136.59C153.126 134.048 155.212 132.16 158.367 132.16C160.041 132.16 161.23 132.547 161.958 132.959L161.375 134.678C160.842 134.387 159.75 133.903 158.294 133.903C156.086 133.903 155.237 135.234 155.237 136.348C155.237 137.873 156.232 138.624 158.464 139.495C161.205 140.56 162.613 141.892 162.613 144.289C162.613 146.806 160.769 148.985 156.935 148.985C155.358 148.985 153.66 148.525 152.786 147.944L153.32 146.177Z" fill="#302769"/>
<path d="M168.582 134.218H163.632V132.426H175.666V134.218H170.692V148.767H168.582V134.218Z" fill="#302769"/>
<path d="M193.912 148.21C193.136 148.598 191.607 148.985 189.618 148.985C185.032 148.985 181.586 146.08 181.586 140.73C181.586 135.38 185.032 132.16 190.079 132.16C192.092 132.16 193.378 132.596 193.936 132.886L193.427 134.605C192.626 134.218 191.51 133.927 190.151 133.927C186.342 133.927 183.819 136.372 183.819 140.657C183.819 144.652 186.099 147.218 190.054 147.218C191.34 147.218 192.626 146.952 193.475 146.54L193.912 148.21Z" fill="#302769"/>
<path d="M209.902 140.415C209.902 146.032 206.505 149.009 202.356 149.009C198.207 149.009 195.053 145.669 195.053 140.73C195.053 135.791 198.255 132.16 202.599 132.16C206.942 132.16 209.902 135.573 209.902 140.415ZM197.309 140.681C197.309 144.168 199.177 147.291 202.477 147.291C205.777 147.291 207.694 144.216 207.694 140.512C207.694 137.268 205.995 133.879 202.502 133.879C199.008 133.879 197.309 137.098 197.309 140.681Z" fill="#302769"/>
<path d="M212.619 132.644C213.905 132.45 215.409 132.305 217.084 132.305C220.092 132.305 222.227 133.007 223.659 134.339C225.115 135.67 225.94 137.558 225.94 140.197C225.94 142.836 225.115 145.039 223.61 146.54C222.082 148.065 219.583 148.888 216.428 148.888C214.924 148.888 213.687 148.816 212.619 148.695V132.62V132.644ZM214.706 147.073C215.24 147.169 216.016 147.194 216.817 147.194C221.305 147.194 223.732 144.676 223.732 140.27C223.732 136.421 221.597 133.975 217.156 133.975C216.065 133.975 215.264 134.072 214.706 134.193V147.097V147.073Z" fill="#302769"/>
<path d="M237.076 141.093H230.768V146.976H237.804V148.743H228.681V132.402H237.44V134.169H230.768V139.326H237.076V141.069V141.093Z" fill="#302769"/>
</g>
<defs>
<clipPath id="clip0_55_2">
<rect width="219" height="150" fill="white" transform="translate(62.3569 45.3699)"/>
</clipPath>
</defs>
</svg>
