<svg width="344" height="241" viewBox="0 0 344 241" fill="none" xmlns="http://www.w3.org/2000/svg">
<rect x="0.137695" y="0.558594" width="343.438" height="239.623" rx="23" fill="white"/>
<path d="M206.193 65.0634C205.239 67.0299 204.363 68.7628 203.584 70.5151C203.136 71.4887 202.552 71.1382 201.812 70.9435C198.931 70.2231 196.049 69.5416 193.128 68.9965C192.369 68.8602 191.454 69.0743 190.695 69.3664C188.611 70.1452 188.261 72.5011 190.071 73.8057C191.045 74.5066 192.174 75.0323 193.265 75.519C195.835 76.6678 198.483 77.6413 201.014 78.9069C205.959 81.3602 207.751 85.4879 206.174 90.4334C205.2 93.4708 203.019 95.3984 200.138 96.3914C193.362 98.7278 186.547 98.3773 179.772 96.3524C179.363 96.2356 178.818 95.6515 178.818 95.2815C178.72 93.1398 178.779 91.0175 178.779 88.9147C181.699 89.6546 184.444 90.4918 187.248 91.0175C189.02 91.3485 190.87 91.2901 192.7 91.2901C193.381 91.2901 194.121 91.0175 194.744 90.706C196.906 89.6351 197.12 87.104 195.114 85.78C193.829 84.9233 192.388 84.3197 190.987 83.6772C188.825 82.6842 186.606 81.808 184.464 80.7955C179.986 78.6927 178.058 75.1296 178.837 70.2815C179.382 66.8547 181.66 64.8298 184.756 63.7394C190.383 61.7729 196.068 62.026 201.734 63.5642C203.156 63.9536 204.538 64.5183 206.212 65.0829L206.193 65.0634Z" fill="#FFDB43"/>
<path d="M234.679 76.4536C234.718 77.0572 234.757 77.6023 234.757 78.128C234.757 79.783 234.757 81.4185 234.757 83.1319C233.121 83.385 231.641 83.5213 230.2 83.8718C227.027 84.6312 225.781 86.2861 225.761 89.5377C225.761 92.7503 225.781 95.9435 225.761 99.1561C225.722 103.323 224.223 105.465 220.154 106.38C217.486 106.983 214.702 107.061 211.957 107.373C210.964 107.489 210.711 106.964 210.73 106.088C210.769 104.764 210.788 103.44 210.73 102.116C210.691 101.142 211.08 100.772 212.035 100.636C216.007 100.052 216.883 98.9809 216.902 94.9894C216.902 92.4388 216.902 89.9076 216.902 87.357C216.902 83.8718 218.07 82.1974 221.38 81.0291C222.549 80.6202 223.756 80.3477 225.002 79.6078C224.476 79.452 223.95 79.2768 223.405 79.16C218.616 78.128 216.902 76.0058 216.902 71.0992C216.902 68.7238 216.902 66.3484 216.902 63.973C216.902 60.7604 215.617 59.2612 212.404 59.0081C211.022 58.8912 210.574 58.4239 210.691 57.1C210.788 56.068 210.769 54.9971 210.691 53.9457C210.594 52.758 210.964 52.1545 212.249 52.3102C214.76 52.6023 217.33 52.6218 219.803 53.1475C224.028 54.0236 225.664 56.1848 225.742 60.4878C225.8 63.5836 225.742 66.6794 225.761 69.7752C225.761 73.6109 227.299 75.4022 231.135 76.0252C232.264 76.2005 233.413 76.3173 234.659 76.4536H234.679Z" fill="#1A1432"/>
<path d="M132.03 107.684C128.584 107.217 125.391 107.003 122.295 106.282C118.635 105.426 117.155 103.245 117.077 99.3898C116.999 96.1772 117.058 92.984 117.058 89.7714C117.058 86.3252 115.792 84.6702 112.482 83.8719C111.625 83.6772 110.73 83.463 109.873 83.5019C108.53 83.5604 108.004 83.132 108.101 81.7301C108.218 80.0362 108.121 78.3228 108.121 76.5315C109.503 76.3563 110.749 76.2395 111.995 76.0058C115.695 75.3244 117.097 73.6304 117.097 69.8921C117.097 66.7379 117.058 63.5837 117.116 60.4295C117.213 56.3212 118.713 54.1989 122.685 53.3033C125.663 52.6413 128.759 52.4855 132.128 52.0572C132.128 54.3547 132.186 56.2239 132.069 58.0736C132.069 58.3851 131.407 58.8524 130.979 58.9108C126.832 59.5922 125.956 60.5852 125.936 64.8103C125.936 67.2441 125.936 69.6779 125.936 72.1117C125.917 75.6748 124.515 77.6024 121.107 78.7512C120.075 79.1016 119.005 79.3353 117.914 80.0362C118.42 80.2114 118.946 80.3672 119.452 80.5424C120.699 80.9903 122.003 81.3018 123.152 81.9054C125.001 82.8789 125.956 84.4949 125.917 86.6367C125.878 89.5767 125.917 92.4973 125.917 95.4373C125.917 98.9031 127.143 100.266 130.609 100.539C131.758 100.636 132.128 101.025 132.069 102.155C131.972 103.81 132.05 105.465 132.05 107.645L132.03 107.684Z" fill="#1A1432"/>
<path d="M159.074 63.0774H169.355V65.0634C169.355 76.7846 169.355 88.4863 169.355 100.208C169.355 108.307 165.831 112.123 157.75 112.552C155.725 112.669 153.681 112.318 151.656 112.065C151.267 112.026 150.644 111.481 150.624 111.13C150.527 109.106 150.585 107.061 150.585 105.056C152.104 105.134 153.408 105.27 154.732 105.27C157.088 105.27 158.549 103.965 158.899 101.609C159.055 100.461 159.094 99.2924 159.094 98.1436C159.094 87.0844 159.094 76.0447 159.094 64.9855C159.094 64.3819 159.094 63.7978 159.094 63.0579L159.074 63.0774Z" fill="#FFDB43"/>
<path d="M237.52 132.003C239.234 132.003 240.83 131.925 242.408 132.042C242.933 132.081 243.42 132.684 243.965 133.054C245.698 132.606 247.665 131.828 249.67 131.652C255.492 131.166 259.892 134.32 261.002 140.044C261.547 142.789 261.625 145.807 261.138 148.572C259.853 155.854 253.194 159.417 246.165 156.886C245.659 156.711 245.153 156.477 244.452 156.205V167.322H237.501V132.003H237.52ZM254.693 144.464C254.362 142.828 254.187 141.154 253.661 139.616C252.999 137.688 251.461 136.948 249.125 137.065C246.847 137.182 245.503 138 244.958 139.947C244.101 142.984 244.121 146.08 244.997 149.098C245.601 151.142 246.925 151.96 249.281 152.038C251.656 152.116 252.98 151.415 253.681 149.351C254.207 147.813 254.362 146.138 254.693 144.464Z" fill="#1A1432"/>
<path d="M157.555 149.799C160.359 150.5 162.89 151.259 165.48 151.707C167.018 151.96 168.673 151.843 170.25 151.629C172.333 151.376 173.346 150.383 173.599 148.747C173.871 147.014 173.171 145.788 171.204 144.853C169.705 144.152 168.128 143.627 166.609 142.984C165.188 142.361 163.747 141.777 162.442 140.979C158.879 138.817 157.536 135.527 158.159 131.497C158.723 127.778 161.255 125.694 164.662 124.74C170.036 123.222 175.254 124.039 180.472 126.259C179.576 128.07 178.72 129.783 177.882 131.458C175.682 130.912 173.638 130.25 171.535 129.939C170.153 129.725 168.673 129.88 167.271 130.114C165.986 130.328 165.071 131.204 164.896 132.567C164.72 133.911 165.09 135.157 166.297 135.877C167.485 136.578 168.751 137.104 170.016 137.669C171.885 138.486 173.833 139.148 175.663 140.044C179.148 141.757 180.783 144.736 180.628 148.533C180.472 152.252 178.389 154.881 175.001 156.243C169.568 158.424 164.078 157.996 158.646 156.146C158.159 155.99 157.672 155.153 157.614 154.608C157.477 153.031 157.575 151.415 157.575 149.818L157.555 149.799Z" fill="#1A1432"/>
<path d="M105.979 157.217C104.265 157.217 102.766 157.353 101.325 157.139C100.722 157.042 100.254 156.185 99.6313 155.601C96.7108 157.704 93.2061 158.093 89.5651 157.256C86.2746 156.497 84.1523 154.102 83.8213 150.967C83.4124 147.229 84.7754 144.289 88.0269 142.926C90.0713 142.069 92.3688 141.738 94.569 141.329C95.9709 141.076 97.4312 141.134 98.833 141.057C99.2614 138.623 98.3657 137.124 96.0682 137.201C93.9654 137.26 91.8821 137.941 89.7987 138.409C89.1757 138.545 88.5916 138.895 87.7933 139.246C86.9171 137.591 86.0799 136.014 85.1648 134.3C90.3439 131.594 95.6009 130.718 101.092 132.509C103.759 133.385 105.414 135.391 105.745 138.233C105.979 140.2 105.94 142.205 105.959 144.191C105.979 148.436 105.959 152.7 105.959 157.237L105.979 157.217ZM98.872 145.866C96.6913 146.255 94.6079 146.45 92.622 147.015C91.1617 147.423 90.6749 148.825 90.9864 150.383C91.2785 151.882 92.4078 152.096 93.5955 152.174C97.1975 152.369 99.3198 150.013 98.872 145.866Z" fill="#FFDB43"/>
<path d="M147.1 141.037C147.353 138.292 146.419 137.007 143.887 137.143C141.901 137.26 139.915 137.922 137.949 138.409C137.326 138.564 136.742 138.895 136.002 139.207C135.126 137.552 134.308 136.014 133.296 134.106C135.437 133.385 137.384 132.334 139.429 132.12C142.291 131.789 145.27 131.75 148.132 132.159C151.637 132.665 153.954 135.293 154.07 138.759C154.265 144.834 154.129 150.909 154.129 157.198C152.493 157.198 150.897 157.314 149.339 157.139C148.852 157.081 148.463 156.224 147.898 155.581C145.562 157.334 142.7 157.821 139.682 157.587C134.191 157.178 131.037 153.031 132.225 147.754C132.77 145.36 134.25 143.646 136.469 142.809C138.358 142.088 140.383 141.699 142.388 141.368C143.946 141.115 145.562 141.134 147.12 141.057L147.1 141.037ZM147.022 145.905C144.919 146.255 142.894 146.469 140.947 146.995C139.429 147.404 138.884 148.845 139.234 150.48C139.546 151.941 140.714 152.155 141.901 152.194C145.523 152.33 147.665 149.857 147.022 145.905Z" fill="#FFDB43"/>
<path d="M106.543 132.003C108.724 132.003 110.827 131.925 112.91 132.061C113.339 132.081 113.923 132.782 114.117 133.307C115.909 138.058 117.642 142.828 119.394 147.599C119.511 147.891 119.647 148.183 119.861 148.689C121.263 144.873 122.607 141.251 123.931 137.649C124.495 136.092 125.021 134.514 125.683 132.996C125.878 132.567 126.481 132.081 126.929 132.042C128.915 131.944 130.901 132.003 133.101 132.003C132.926 132.587 132.829 133.035 132.673 133.463C129.772 140.979 126.851 148.494 123.989 156.029C123.639 156.944 123.171 157.314 122.178 157.256C120.523 157.178 118.849 157.314 117.213 157.197C116.707 157.159 115.967 156.711 115.792 156.263C112.735 148.514 109.756 140.725 106.758 132.937C106.66 132.684 106.641 132.412 106.563 132.003H106.543Z" fill="#FFDB43"/>
<path d="M64.2729 158.852C65.85 159.086 67.1351 159.339 68.4396 159.475C71.6912 159.787 72.9762 158.658 72.9762 155.406C72.9762 145.788 72.9762 136.169 72.9762 126.532C72.9762 125.889 72.9762 125.227 72.9762 124.487H80.0829C80.0829 125.11 80.0829 125.714 80.0829 126.298C80.0829 135.819 80.0829 145.32 80.0829 154.842C80.0829 162.883 72.7036 167.75 65.1686 164.674C64.7792 164.518 64.3313 163.954 64.2924 163.545C64.1951 162.065 64.2535 160.585 64.2535 158.872L64.2729 158.852Z" fill="#FFDB43"/>
<path d="M203.604 133.385C202.844 135.254 202.182 136.948 201.462 138.701C200.002 138.272 198.658 137.785 197.276 137.493C192.661 136.5 190.091 138.389 189.76 143.101C189.643 144.678 189.76 146.314 190.013 147.871C190.461 150.519 192.019 151.882 194.706 151.882C196.439 151.882 198.191 151.454 199.904 151.084C200.8 150.889 201.657 150.461 202.844 150.013C202.844 151.979 202.883 153.771 202.805 155.542C202.805 155.835 202.241 156.185 201.871 156.341C197.276 158.19 192.681 158.288 188.242 155.99C183.471 153.498 181.407 147.345 182.926 140.667C183.861 136.52 186.256 133.58 190.383 132.334C194.842 130.99 199.203 131.399 203.584 133.385H203.604Z" fill="#1A1432"/>
<path d="M279.46 151.493C279.46 153.011 279.518 154.452 279.421 155.854C279.402 156.205 278.915 156.711 278.545 156.828C275.819 157.762 273.035 157.996 270.25 157.022C267.388 156.029 265.811 153.557 265.733 149.799C265.655 146.255 265.714 142.731 265.714 139.187C265.714 138.584 265.714 138 265.714 137.318C264.429 137.24 263.3 137.182 262.131 137.104C262.092 136.578 262.131 136.189 262.053 135.819C261.722 134.125 262.404 133.113 264.078 132.684C265.461 132.334 266.24 131.458 266.726 130.056C267.992 126.356 268.07 126.376 272.665 126.863V131.983C273.872 131.983 274.884 131.983 275.916 131.983C276.948 131.983 278 131.983 279.168 131.983V137.201H272.879C272.879 141.757 272.84 146.099 272.879 150.461C272.879 151.804 273.814 152.252 275.04 152.096C276.403 151.921 277.766 151.726 279.441 151.493H279.46Z" fill="#1A1432"/>
<path d="M213.163 157.139H206.368V132.1H212.17C212.326 132.704 212.462 133.288 212.657 134.106C215.714 131.127 219.277 131.321 223.152 132.042C222.86 133.95 222.587 135.761 222.276 137.747C221.516 137.688 220.854 137.669 220.212 137.571C215.831 136.948 213.3 139.071 213.222 143.51C213.163 147.482 213.222 151.473 213.202 155.445C213.202 155.99 213.163 156.516 213.124 157.139H213.163Z" fill="#1A1432"/>
<path d="M225.274 132.1H232.069C232.108 132.548 232.166 132.918 232.166 133.288C232.166 140.375 232.166 147.443 232.166 154.53C232.166 155.835 230.804 157.236 229.48 157.236C228.117 157.236 226.734 157.236 225.274 157.236V132.081V132.1Z" fill="#1A1432"/>
<path d="M143.07 87.9022C147.431 87.9996 149.768 90.6086 148.872 94.4248C148.522 95.924 147.626 96.9949 146.205 97.5596C144.122 98.3773 141.999 98.3773 139.916 97.5596C137.949 96.7807 137.093 95.2036 137.19 92.7698C137.287 90.4918 138.3 89.0315 140.325 88.4279C141.22 88.1748 142.155 88.0775 143.07 87.9217V87.9022Z" fill="#FFDB43"/>
<path d="M164.273 49.3313C165.188 49.4676 166.084 49.5065 166.921 49.7596C168.965 50.3438 169.88 51.7456 169.822 54.0042C169.763 56.0875 168.751 57.6062 166.746 57.9178C165.091 58.1709 163.338 58.1709 161.683 57.9178C159.697 57.6062 158.646 56.0486 158.587 53.9847C158.529 51.804 159.503 50.3243 161.527 49.7596C162.423 49.5065 163.358 49.4676 164.273 49.3508V49.3313Z" fill="#FFDB43"/>
<path d="M223.833 125.947C224.592 125.383 225.449 124.701 226.364 124.117C227.902 123.124 230.025 123.222 231.329 124.312C232.517 125.305 232.906 127.077 232.244 128.537C231.582 129.958 230.025 130.737 228.233 130.523C226.306 130.289 225.313 129.296 224.845 127.252C224.748 126.824 224.261 126.473 223.852 125.967L223.833 125.947Z" fill="#1A1432"/>
</svg>
