<svg width="344" height="241" viewBox="0 0 344 241" fill="none" xmlns="http://www.w3.org/2000/svg">
<rect x="0.137695" y="0.558594" width="343.438" height="239.623" rx="23" fill="white"/>
<mask id="mask0_55_2" style="mask-type:luminance" maskUnits="userSpaceOnUse" x="46" y="43" width="251" height="154">
<path d="M296.794 43.9119H46.9197V196.828H296.794V43.9119Z" fill="white"/>
</mask>
<g mask="url(#mask0_55_2)">
<path d="M185.898 183.591C185.241 183.591 184.676 183.093 184.608 182.437C181.01 149.446 183.114 112.133 183.137 111.771C183.182 111.047 183.793 110.504 184.517 110.55C185.241 110.595 185.784 111.206 185.739 111.93C185.739 112.292 183.612 149.401 187.187 182.165C187.278 182.889 186.757 183.523 186.033 183.591C185.988 183.591 185.943 183.591 185.898 183.591Z" fill="#48AE4D"/>
<path d="M138.493 201.987C139.149 201.942 139.669 201.399 139.669 200.72C140.484 167.548 135.234 130.552 135.166 130.19C135.053 129.489 134.42 128.991 133.696 129.081C132.994 129.195 132.496 129.851 132.587 130.552C132.632 130.914 137.859 167.706 137.044 200.652C137.044 201.376 137.587 201.964 138.312 201.987C138.357 201.987 138.402 201.987 138.447 201.987H138.493Z" fill="#48AE4D"/>
<path d="M230.903 214.07C230.903 214.07 230.813 214.07 230.768 214.07C230.043 214.002 229.523 213.369 229.591 212.645C233.166 175.784 229.862 132.747 229.84 132.317C229.772 131.593 230.315 130.982 231.039 130.914C231.741 130.869 232.374 131.389 232.442 132.114C232.465 132.543 235.813 175.807 232.193 212.893C232.125 213.572 231.56 214.07 230.903 214.07Z" fill="#48AE4D"/>
<path d="M149.602 95.8191C148.402 95.3666 147.181 95.1403 146.072 95.1177C145.597 93.0586 142.542 91.3841 138.786 91.2257C135.437 91.09 132.563 92.2214 131.522 93.8732C130.142 92.4929 127.087 92.0177 123.852 92.8775C120.209 93.8505 117.607 96.1585 117.584 98.2629C116.498 98.5344 115.366 99.0322 114.28 99.7337C110.796 102.019 109.189 105.707 110.683 107.97C111.158 108.717 111.927 109.192 112.855 109.463L120.978 118.537L134.125 117.225L147.226 115.618L153.154 104.983C153.991 104.531 154.625 103.897 154.942 103.06C155.892 100.526 153.516 97.2899 149.624 95.8191H149.602Z" fill="#FAEA27"/>
<path d="M143.968 109.848L145.959 95.1177L146.005 94.9367C145.846 94.4389 145.552 93.9863 145.122 93.5564C145.032 93.4433 144.918 93.3528 144.783 93.2396C144.67 93.1491 144.556 93.0586 144.421 92.9681C144.421 92.9681 144.398 92.9681 144.375 92.9455C144.262 92.855 144.127 92.7871 143.991 92.6966C143.968 92.6966 143.945 92.674 143.923 92.6513C143.787 92.5834 143.674 92.4929 143.538 92.4251C143.516 92.4251 143.47 92.3798 143.448 92.3798C143.312 92.3119 143.199 92.244 143.063 92.1988C143.018 92.1988 142.973 92.1535 142.927 92.1309C142.814 92.0856 142.678 92.0178 142.543 91.9725C142.475 91.9499 142.407 91.9272 142.362 91.9046C142.248 91.8594 142.113 91.8141 142 91.7915C141.932 91.7689 141.841 91.7462 141.751 91.7236C141.637 91.6783 141.524 91.6557 141.411 91.6331C141.321 91.6105 141.208 91.5878 141.117 91.5652C141.004 91.5426 140.891 91.52 140.8 91.4973C140.687 91.4973 140.574 91.4521 140.438 91.4294C140.348 91.4294 140.257 91.3842 140.144 91.3842C140.008 91.3842 139.85 91.3389 139.714 91.3389C139.646 91.3389 139.556 91.3389 139.488 91.3163C139.262 91.3163 139.035 91.2711 138.809 91.2711C138.402 91.2711 137.994 91.2711 137.61 91.2711C137.429 91.2711 137.27 91.2937 137.112 91.3163C136.908 91.3163 136.682 91.3389 136.478 91.3842C136.252 91.4068 136.049 91.4521 135.822 91.4973C135.686 91.52 135.573 91.5426 135.438 91.5652C135.189 91.6331 134.94 91.701 134.691 91.7689C134.623 91.7689 134.555 91.8141 134.487 91.8367C134.216 91.9273 133.967 92.0404 133.718 92.1535C133.695 92.1535 133.65 92.1762 133.627 92.1988C133.356 92.3345 133.13 92.4703 132.881 92.6061C132.406 92.9002 132.021 93.2623 131.727 93.6469C131.659 93.828 131.614 93.9411 131.614 93.9411L133.152 109.124L139.126 116.41L122.97 112.677L117.562 98.2856C116.476 98.5571 115.344 99.0549 114.258 99.7563C110.774 102.042 109.167 105.73 110.661 107.993C111.136 108.739 111.905 109.215 112.833 109.486L120.956 118.56L134.103 117.247L141.728 116.32C142.769 113.333 143.991 109.871 143.991 109.871L143.968 109.848Z" fill="#FDC50A"/>
<path d="M146.503 110.369C145.62 110.029 144.715 109.871 143.9 109.848C143.561 108.332 141.298 107.11 138.538 106.997C136.071 106.907 133.944 107.721 133.175 108.943C132.157 107.925 129.894 107.585 127.518 108.219C124.826 108.943 122.902 110.64 122.902 112.179C122.11 112.382 121.273 112.744 120.481 113.265C117.924 114.939 116.725 117.655 117.834 119.329C118.105 119.759 118.512 120.053 118.988 120.257L129.6 128.742L135.279 128.38H135.347H135.415L141.027 127.475L149.512 116.885C149.942 116.568 150.259 116.184 150.44 115.709C151.141 113.853 149.399 111.455 146.525 110.369H146.503Z" fill="#F1842A"/>
<path d="M135.212 125.506L133.13 108.898C132.089 107.902 129.871 107.563 127.518 108.196C124.826 108.92 122.902 110.617 122.902 112.156H122.857L130.89 128.176L133.537 127.09L136.999 126.23L135.212 125.484V125.506Z" fill="#ED6F2D"/>
<path d="M146.502 110.369C145.643 110.052 144.76 109.871 143.968 109.848L140.054 125.619C140.054 125.619 137.972 124.646 138.085 125.054C138.176 125.461 138.153 126.502 138.741 126.706C139.035 126.796 140.438 126.706 141.796 126.547L149.534 116.885C149.964 116.568 150.281 116.184 150.462 115.709C151.164 113.853 149.421 111.455 146.548 110.369H146.502Z" fill="#ED6F2D"/>
<path d="M144.104 123.447C141.773 123.244 139.352 126.343 139.352 126.343C139.352 126.343 140.393 122.972 142.86 122.452C145.326 121.931 148.765 123.447 148.765 123.447C148.765 123.447 142.792 118.56 139.963 120.166C137.587 121.524 135.574 124.714 134.985 125.687C134.171 124.895 131.433 122.293 128.785 121.546C125.663 120.664 121.069 126.887 121.069 126.887C121.069 126.887 124.056 124.579 126.568 124.465C129.079 124.352 130.935 127.362 130.935 127.362C130.935 127.362 127.835 124.941 125.617 125.71C123.4 126.479 122.45 131.14 122.45 131.14C123.242 129.081 125.685 128.493 125.685 128.493C126.59 135.666 136.049 134.67 136.049 134.67C136.049 134.67 136.071 134.67 136.117 134.67C136.162 134.67 136.184 134.67 136.184 134.67C137.112 134.421 145.62 133.29 144.715 126.117C144.715 126.117 147.227 126.095 148.516 127.882C148.516 127.882 146.435 123.583 144.104 123.379V123.447Z" fill="#39A14A"/>
<g style="mix-blend-mode:multiply" opacity="0.3">
<path d="M123.649 102.449C124.26 104.463 124.599 106.16 124.441 106.205C124.282 106.25 123.649 104.666 123.038 102.63C122.427 100.616 122.087 98.9191 122.246 98.8738C122.404 98.8286 123.038 100.412 123.649 102.449Z" fill="#F49523"/>
<path d="M127.835 101.204C128.446 103.218 128.786 104.915 128.627 104.961C128.446 105.006 127.835 103.422 127.224 101.385C126.613 99.3716 126.274 97.6745 126.432 97.6293C126.591 97.584 127.224 99.1906 127.835 101.204Z" fill="#F49523"/>
<path d="M125.686 101.634C126.455 104.169 126.93 106.273 126.749 106.341C126.591 106.386 125.821 104.372 125.075 101.815C124.305 99.2811 123.83 97.1768 124.011 97.1089C124.17 97.0636 124.939 99.0775 125.686 101.634Z" fill="#F49523"/>
</g>
<g style="mix-blend-mode:multiply" opacity="0.3">
<path d="M128.287 116.319C128.739 117.836 129.011 119.103 128.875 119.125C128.739 119.171 128.287 117.971 127.834 116.455C127.382 114.939 127.11 113.672 127.246 113.649C127.382 113.604 127.834 114.803 128.287 116.319Z" fill="#F49523"/>
<path d="M131.432 115.369C131.885 116.885 132.156 118.152 132.021 118.175C131.885 118.22 131.432 117.021 130.98 115.505C130.527 113.989 130.256 112.722 130.392 112.699C130.527 112.654 130.98 113.853 131.432 115.369Z" fill="#F49523"/>
<path d="M129.826 115.686C130.392 117.587 130.754 119.171 130.618 119.216C130.482 119.261 129.916 117.745 129.351 115.822C128.785 113.921 128.423 112.337 128.559 112.292C128.695 112.247 129.26 113.763 129.826 115.686Z" fill="#F49523"/>
</g>
<g style="mix-blend-mode:multiply" opacity="0.3">
<path d="M140.597 100.571C140.438 102.675 140.483 104.395 140.642 104.418C140.823 104.418 141.072 102.743 141.23 100.616C141.366 98.5118 141.343 96.7921 141.185 96.7695C141.004 96.7695 140.755 98.4665 140.597 100.571Z" fill="#F49523"/>
<path d="M136.252 100.277C136.116 102.381 136.139 104.101 136.297 104.123C136.478 104.123 136.727 102.449 136.885 100.322C137.021 98.2177 136.998 96.498 136.84 96.4753C136.659 96.4753 136.41 98.1724 136.252 100.277Z" fill="#F49523"/>
<path d="M138.446 100.209C138.265 102.856 138.265 105.006 138.446 105.028C138.627 105.028 138.921 102.901 139.103 100.254C139.284 97.6066 139.284 95.457 139.103 95.4344C138.921 95.4344 138.627 97.5614 138.446 100.209Z" fill="#F49523"/>
</g>
<g style="mix-blend-mode:multiply" opacity="0.3">
<path d="M139.715 114.645C139.601 116.229 139.624 117.519 139.76 117.519C139.896 117.519 140.077 116.252 140.19 114.668C140.303 113.084 140.28 111.794 140.144 111.794C140.009 111.794 139.828 113.061 139.715 114.645Z" fill="#F49523"/>
<path d="M136.433 114.419C136.32 116.003 136.342 117.293 136.478 117.293C136.614 117.293 136.795 116.025 136.908 114.441C137.021 112.858 136.998 111.568 136.863 111.568C136.727 111.568 136.546 112.835 136.433 114.419Z" fill="#F49523"/>
<path d="M138.084 114.374C137.948 116.365 137.948 117.971 138.084 117.994C138.22 117.994 138.424 116.41 138.582 114.419C138.718 112.428 138.718 110.821 138.582 110.821C138.446 110.821 138.22 112.405 138.084 114.396V114.374Z" fill="#F49523"/>
</g>
<path d="M253.643 99.8015C252.557 99.1227 251.426 98.6475 250.317 98.376C250.272 96.2716 247.625 94.0089 243.959 93.0812C240.701 92.2666 237.669 92.787 236.288 94.1899C235.225 92.5381 232.306 91.4746 228.98 91.6556C225.223 91.8593 222.191 93.6016 221.761 95.6607C220.63 95.7059 219.431 95.9548 218.232 96.43C214.362 97.9687 212.032 101.25 213.027 103.761C213.344 104.576 214 105.209 214.86 105.662L220.969 116.206L234.093 117.587L247.24 118.695L255.227 109.486C256.155 109.215 256.902 108.717 257.377 107.97C258.825 105.685 257.151 102.019 253.643 99.8015Z" fill="#FAEA27"/>
<path d="M245.248 112.382L250.204 98.3534L250.294 98.195C250.249 97.6746 250.045 97.1541 249.728 96.6563C249.638 96.5432 249.57 96.4074 249.48 96.2943C249.389 96.1811 249.299 96.068 249.185 95.9549C249.185 95.9549 249.185 95.9549 249.163 95.9096C249.05 95.7965 248.959 95.706 248.846 95.5928C248.846 95.5928 248.801 95.5702 248.801 95.5476C248.688 95.4571 248.574 95.3439 248.461 95.2534C248.439 95.2308 248.393 95.2082 248.371 95.1855C248.258 95.095 248.145 95.0045 248.031 94.914C247.986 94.8914 247.941 94.8688 247.896 94.8235C247.782 94.7556 247.669 94.6651 247.556 94.5972C247.511 94.552 247.443 94.5293 247.375 94.4841C247.262 94.4162 247.149 94.3483 247.036 94.2804C246.968 94.2352 246.9 94.2126 246.81 94.1673C246.696 94.122 246.606 94.0542 246.493 94.0089C246.402 93.9637 246.312 93.9184 246.221 93.8958C246.131 93.8505 246.018 93.8053 245.927 93.76C245.814 93.7148 245.701 93.6695 245.588 93.6242C245.497 93.579 245.407 93.5564 245.316 93.5111C245.18 93.4659 245.045 93.4206 244.886 93.3753C244.818 93.3527 244.75 93.3301 244.66 93.3075C244.434 93.2396 244.23 93.1717 244.004 93.1264C243.619 93.0359 243.212 92.9454 242.827 92.9002C242.669 92.8775 242.488 92.8549 242.329 92.8323C242.126 92.8097 241.899 92.787 241.718 92.7644C241.492 92.7644 241.266 92.7644 241.04 92.7644C240.904 92.7644 240.768 92.7644 240.632 92.7644C240.361 92.7644 240.112 92.787 239.863 92.8323C239.795 92.8323 239.704 92.8323 239.637 92.8323C239.342 92.8775 239.094 92.9228 238.822 92.9907C238.799 92.9907 238.754 92.9907 238.732 92.9907C238.46 93.0586 238.188 93.1491 237.94 93.2396C237.419 93.4432 236.967 93.6921 236.605 94.0089C236.514 94.1673 236.446 94.2578 236.446 94.2578L234.862 109.441L239.229 117.79L224.182 110.844L221.829 95.6607C220.697 95.706 219.498 95.9549 218.299 96.43C214.43 97.9687 212.099 101.25 213.095 103.761C213.411 104.576 214.068 105.209 214.927 105.662L221.037 116.206L234.161 117.587L241.809 118.243C243.438 115.55 245.339 112.382 245.339 112.382H245.248Z" fill="#FDC50A"/>
<path d="M247.625 113.423C246.833 112.925 245.996 112.563 245.182 112.382C245.159 110.821 243.19 109.169 240.498 108.49C238.099 107.902 235.859 108.264 234.863 109.305C234.071 108.106 231.944 107.314 229.478 107.45C226.718 107.608 224.477 108.875 224.161 110.391C223.346 110.414 222.441 110.617 221.559 110.957C218.707 112.088 216.988 114.509 217.712 116.342C217.893 116.817 218.232 117.202 218.662 117.496L227.306 127.95L232.94 128.765H233.008H233.076L238.755 129.036L249.209 120.393C249.684 120.166 250.069 119.849 250.341 119.442C251.404 117.768 250.182 115.075 247.58 113.423H247.625Z" fill="#F1842A"/>
<path d="M233.505 125.936L234.84 109.26C234.026 108.083 231.921 107.291 229.478 107.427C226.717 107.585 224.477 108.853 224.16 110.369C224.16 110.369 224.115 110.369 224.092 110.369L228.708 127.679L231.514 127.158L235.089 127.022L233.505 125.914V125.936Z" fill="#ED6F2D"/>
<path d="M247.625 113.423C246.856 112.925 246.018 112.586 245.249 112.405L238.212 127.045C238.212 127.045 236.379 125.665 236.379 126.072C236.379 126.502 236.13 127.52 236.673 127.837C236.945 127.995 238.325 128.154 239.683 128.289L249.232 120.415C249.707 120.189 250.091 119.872 250.363 119.465C251.426 117.79 250.205 115.098 247.602 113.446L247.625 113.423Z" fill="#ED6F2D"/>
<path d="M242.624 125.755C240.384 125.076 237.374 127.633 237.374 127.633C237.374 127.633 239.094 124.556 241.606 124.556C244.117 124.556 247.195 126.728 247.195 126.728C247.195 126.728 242.33 120.709 239.252 121.727C236.65 122.565 234.003 125.28 233.233 126.117C232.6 125.167 230.45 122.067 228.006 120.8C225.133 119.306 219.363 124.465 219.363 124.465C219.363 124.465 222.757 122.814 225.223 123.221C227.712 123.628 228.889 126.954 228.889 126.954C228.889 126.954 226.332 123.968 224.024 124.262C221.693 124.556 219.815 128.946 219.815 128.946C221.015 127.09 223.526 127.022 223.526 127.022C222.938 134.218 232.419 135.191 232.419 135.191C232.419 135.191 232.441 135.191 232.487 135.191C232.532 135.191 232.555 135.191 232.555 135.191C233.505 135.123 242.058 135.756 242.646 128.538C242.646 128.538 245.113 129.013 245.995 131.05C245.995 131.05 244.841 126.411 242.579 125.755H242.624Z" fill="#48AE4D"/>
<g style="mix-blend-mode:multiply" opacity="0.3">
<path d="M226.898 101.023C227.079 103.128 227.079 104.847 226.898 104.87C226.717 104.87 226.446 103.196 226.265 101.091C226.084 98.9869 226.084 97.2672 226.265 97.2446C226.446 97.2446 226.717 98.919 226.898 101.023Z" fill="#F49523"/>
<path d="M231.242 100.639C231.423 102.743 231.423 104.463 231.242 104.485C231.061 104.485 230.79 102.811 230.609 100.707C230.428 98.6023 230.428 96.8826 230.609 96.86C230.79 96.86 231.061 98.5344 231.242 100.639Z" fill="#F49523"/>
<path d="M229.047 100.616C229.273 103.263 229.319 105.413 229.138 105.436C228.957 105.436 228.64 103.309 228.414 100.684C228.187 98.0366 228.142 95.8869 228.323 95.8643C228.504 95.8643 228.821 97.9913 229.047 100.639V100.616Z" fill="#F49523"/>
</g>
<g style="mix-blend-mode:multiply" opacity="0.3">
<path d="M228.595 115.528C228.731 117.112 228.731 118.401 228.595 118.401C228.459 118.401 228.256 117.134 228.12 115.573C227.984 113.989 227.984 112.699 228.12 112.699C228.256 112.699 228.459 113.966 228.595 115.528Z" fill="#F49523"/>
<path d="M231.876 115.256C232.012 116.84 232.012 118.13 231.876 118.13C231.741 118.13 231.537 116.863 231.401 115.301C231.265 113.717 231.265 112.428 231.401 112.428C231.537 112.428 231.741 113.695 231.876 115.256Z" fill="#F49523"/>
<path d="M230.225 115.233C230.406 117.225 230.429 118.831 230.293 118.831C230.157 118.831 229.908 117.247 229.75 115.256C229.591 113.265 229.546 111.658 229.682 111.658C229.818 111.658 230.044 113.242 230.225 115.233Z" fill="#F49523"/>
</g>
<g style="mix-blend-mode:multiply" opacity="0.3">
<path d="M243.868 102.63C243.302 104.666 242.963 106.341 243.144 106.386C243.302 106.431 243.913 104.825 244.479 102.788C245.044 100.752 245.384 99.0774 245.203 99.0095C245.044 98.9643 244.433 100.571 243.868 102.607V102.63Z" fill="#F49523"/>
<path d="M239.66 101.453C239.094 103.49 238.755 105.164 238.936 105.232C239.094 105.277 239.705 103.671 240.271 101.634C240.836 99.5979 241.176 97.9234 240.995 97.8782C240.836 97.8329 240.225 99.4395 239.66 101.476V101.453Z" fill="#F49523"/>
<path d="M241.809 101.838C241.085 104.395 240.655 106.499 240.813 106.545C240.994 106.59 241.695 104.553 242.42 101.996C243.144 99.4395 243.596 97.3352 243.415 97.2899C243.234 97.2447 242.533 99.2811 241.809 101.838Z" fill="#F49523"/>
</g>
<g style="mix-blend-mode:multiply" opacity="0.3">
<path d="M240.113 116.229C239.683 117.745 239.434 119.012 239.57 119.057C239.706 119.103 240.158 117.881 240.588 116.365C241.018 114.849 241.267 113.582 241.131 113.536C240.995 113.491 240.543 114.713 240.136 116.229H240.113Z" fill="#F49523"/>
<path d="M236.967 115.346C236.537 116.863 236.289 118.13 236.424 118.175C236.56 118.22 236.99 116.998 237.42 115.482C237.85 113.966 238.099 112.699 237.963 112.654C237.827 112.609 237.397 113.83 236.945 115.346H236.967Z" fill="#F49523"/>
<path d="M238.574 115.641C238.031 117.564 237.692 119.125 237.827 119.171C237.963 119.216 238.483 117.677 239.027 115.776C239.57 113.853 239.909 112.292 239.773 112.247C239.637 112.201 239.094 113.74 238.574 115.641Z" fill="#F49523"/>
</g>
<path d="M202.844 87.99C201.736 87.3565 200.559 86.9265 199.473 86.7229C199.337 84.6185 196.577 82.4689 192.888 81.7449C189.607 81.0887 186.575 81.7449 185.285 83.2156C184.131 81.6317 181.19 80.6814 177.864 81.0434C174.108 81.4281 171.166 83.3061 170.827 85.3879C169.695 85.4784 168.519 85.7952 167.342 86.3156C163.541 88.0353 161.368 91.4068 162.477 93.8732C162.839 94.6877 163.518 95.2761 164.4 95.6833L170.985 105.934L184.177 106.703L197.369 107.201L204.903 97.6293C205.809 97.3125 206.533 96.7921 206.985 96.0228C208.32 93.6695 206.487 90.0944 202.867 88.0353L202.844 87.99Z" fill="#FAEA27"/>
<path d="M195.084 100.956L199.383 86.7229L199.451 86.5419C199.383 86.0441 199.157 85.5237 198.795 85.0259C198.704 84.9127 198.614 84.777 198.523 84.6638C198.433 84.5507 198.32 84.4376 198.206 84.3244C198.206 84.3244 198.206 84.3244 198.184 84.3018C198.071 84.1887 197.957 84.0981 197.844 84.0076C197.844 84.0076 197.799 83.985 197.776 83.9624C197.663 83.8719 197.55 83.7814 197.437 83.6908C197.414 83.6682 197.369 83.6456 197.347 83.623C197.233 83.5325 197.12 83.4646 196.985 83.3741C196.939 83.3514 196.894 83.3288 196.849 83.2836C196.736 83.2157 196.622 83.1478 196.487 83.0799C196.419 83.0573 196.374 83.012 196.306 82.9894C196.193 82.9215 196.079 82.8763 195.966 82.8084C195.898 82.7631 195.808 82.7405 195.74 82.6952C195.627 82.65 195.514 82.5821 195.401 82.5368C195.31 82.4916 195.22 82.469 195.129 82.4237C195.039 82.3785 194.925 82.3332 194.812 82.3106C194.699 82.2653 194.586 82.2427 194.473 82.1974C194.382 82.1748 194.292 82.1296 194.201 82.1069C194.066 82.0617 193.93 82.0164 193.771 81.9938C193.704 81.9938 193.636 81.9485 193.545 81.9259C193.319 81.858 193.093 81.8128 192.866 81.7675C192.482 81.6996 192.074 81.6318 191.69 81.5865C191.531 81.5865 191.35 81.5639 191.192 81.5639C190.988 81.5639 190.762 81.5412 190.558 81.5186C190.332 81.5186 190.106 81.5186 189.88 81.5186C189.744 81.5186 189.608 81.5186 189.472 81.5186C189.201 81.5186 188.952 81.5639 188.703 81.6091C188.635 81.6091 188.544 81.6091 188.477 81.6318C188.205 81.677 187.934 81.7449 187.662 81.8128C187.639 81.8128 187.594 81.8128 187.571 81.8354C187.3 81.9259 187.028 82.0164 186.78 82.1296C186.259 82.3558 185.829 82.6274 185.49 82.9668C185.399 83.1252 185.331 83.2383 185.331 83.2383L184.472 98.4666L189.223 106.612L173.859 100.39L170.805 85.3426C169.673 85.4332 168.497 85.7499 167.32 86.2704C163.519 87.9901 161.346 91.3615 162.455 93.8279C162.817 94.6425 163.496 95.2308 164.378 95.6381L170.963 105.888L184.155 106.658L191.825 106.952C193.319 104.169 195.061 100.933 195.061 100.933L195.084 100.956Z" fill="#FDC50A"/>
<path d="M197.505 101.883C196.69 101.408 195.83 101.114 195.016 100.956C194.903 99.4168 192.889 97.8329 190.151 97.2899C187.73 96.8147 185.512 97.2899 184.562 98.376C183.725 97.1994 181.553 96.5205 179.086 96.7694C176.326 97.041 174.153 98.4212 173.904 99.9599C173.09 100.028 172.207 100.254 171.348 100.639C168.564 101.906 166.958 104.395 167.772 106.205C167.976 106.658 168.316 107.042 168.768 107.314L177.887 117.36L183.544 117.903H183.612H183.68H189.382L199.428 108.762C199.881 108.536 200.265 108.196 200.514 107.744C201.51 106.024 200.152 103.377 197.482 101.861L197.505 101.883Z" fill="#F1842A"/>
<path d="M183.974 115.052L184.54 98.3308C183.68 97.1768 181.53 96.5206 179.109 96.7695C176.348 97.041 174.176 98.4213 173.927 99.96C173.927 99.96 173.882 99.96 173.859 99.96L179.267 117.044L182.051 116.387L185.603 116.093L183.974 115.075V115.052Z" fill="#ED6F2D"/>
<path d="M197.505 101.883C196.713 101.431 195.876 101.114 195.084 100.978L188.725 115.935C188.725 115.935 186.825 114.645 186.87 115.052C186.892 115.482 186.689 116.501 187.254 116.795C187.526 116.93 188.929 117.044 190.287 117.112L199.451 108.785C199.903 108.558 200.288 108.219 200.537 107.766C201.532 106.047 200.175 103.399 197.505 101.883Z" fill="#ED6F2D"/>
<path d="M193.07 114.419C190.785 113.853 187.911 116.546 187.911 116.546C187.911 116.546 189.472 113.378 191.984 113.265C194.496 113.152 197.664 115.166 197.664 115.166C197.664 115.166 192.527 109.396 189.495 110.55C186.938 111.523 184.427 114.351 183.702 115.234C183.024 114.306 180.716 111.319 178.249 110.165C175.308 108.807 169.787 114.215 169.787 114.215C169.787 114.215 173.09 112.405 175.579 112.699C178.068 112.993 179.426 116.252 179.426 116.252C179.426 116.252 176.733 113.378 174.425 113.785C172.117 114.193 170.443 118.65 170.443 118.65C171.552 116.75 174.063 116.546 174.063 116.546C173.814 123.764 183.34 124.284 183.34 124.284C183.34 124.284 183.363 124.284 183.408 124.284C183.454 124.284 183.476 124.284 183.476 124.284C184.427 124.171 193.002 124.398 193.251 117.179C193.251 117.179 195.74 117.541 196.713 119.533C196.713 119.533 195.333 114.962 193.07 114.396V114.419Z" fill="#48AE4D"/>
<g style="mix-blend-mode:multiply" opacity="0.3">
<path d="M176.19 90.4564C176.462 92.5381 176.552 94.2578 176.371 94.2804C176.19 94.3031 175.828 92.6286 175.556 90.5243C175.285 88.4199 175.194 86.7229 175.375 86.7002C175.556 86.6776 175.918 88.352 176.19 90.4564Z" fill="#F49523"/>
<path d="M180.512 89.8907C180.784 91.995 180.874 93.6921 180.693 93.7147C180.512 93.7147 180.15 92.0629 179.879 89.9585C179.607 87.8542 179.517 86.1571 179.698 86.1345C179.879 86.1119 180.241 87.7863 180.512 89.8907Z" fill="#F49523"/>
<path d="M178.339 89.9586C178.678 92.5834 178.837 94.733 178.656 94.7556C178.475 94.7783 178.068 92.6739 177.706 90.0265C177.366 87.4017 177.208 85.2521 177.389 85.2295C177.57 85.2069 177.977 87.3112 178.339 89.9586Z" fill="#F49523"/>
</g>
<g style="mix-blend-mode:multiply" opacity="0.3">
<path d="M178.588 104.87C178.791 106.431 178.859 107.721 178.724 107.744C178.588 107.744 178.316 106.499 178.113 104.938C177.909 103.377 177.841 102.087 177.977 102.064C178.113 102.064 178.384 103.309 178.588 104.87Z" fill="#F49523"/>
<path d="M181.846 104.44C182.05 106.001 182.118 107.291 181.982 107.314C181.846 107.314 181.575 106.069 181.371 104.508C181.167 102.947 181.099 101.657 181.235 101.634C181.371 101.634 181.642 102.879 181.846 104.44Z" fill="#F49523"/>
<path d="M180.194 104.508C180.466 106.477 180.556 108.083 180.42 108.106C180.285 108.106 179.968 106.544 179.719 104.576C179.447 102.607 179.357 101.001 179.47 100.978C179.606 100.978 179.923 102.539 180.171 104.508H180.194Z" fill="#F49523"/>
</g>
<g style="mix-blend-mode:multiply" opacity="0.3">
<path d="M193.227 91.271C192.752 93.3301 192.503 95.0272 192.684 95.0724C192.865 95.1177 193.386 93.4659 193.861 91.4294C194.336 89.3703 194.585 87.6732 194.404 87.628C194.223 87.5827 193.702 89.2345 193.227 91.2936V91.271Z" fill="#F49523"/>
<path d="M188.974 90.298C188.499 92.3571 188.25 94.0542 188.431 94.0994C188.612 94.1447 189.132 92.4929 189.607 90.4338C190.083 88.3747 190.331 86.6776 190.15 86.6324C189.969 86.5871 189.449 88.2389 188.974 90.2754V90.298Z" fill="#F49523"/>
<path d="M191.145 90.5695C190.557 93.1491 190.195 95.276 190.376 95.3213C190.557 95.3666 191.168 93.3075 191.779 90.7053C192.367 88.1258 192.729 85.9988 192.548 85.9536C192.367 85.9083 191.756 87.9674 191.145 90.5695Z" fill="#F49523"/>
</g>
<g style="mix-blend-mode:multiply" opacity="0.3">
<path d="M190.129 105.029C189.767 106.567 189.586 107.834 189.721 107.88C189.857 107.902 190.242 106.68 190.604 105.142C190.966 103.603 191.147 102.336 191.011 102.291C190.875 102.268 190.491 103.49 190.129 105.029Z" fill="#F49523"/>
<path d="M186.938 104.282C186.576 105.82 186.395 107.088 186.53 107.133C186.666 107.155 187.051 105.934 187.413 104.395C187.775 102.856 187.956 101.589 187.82 101.544C187.684 101.521 187.3 102.743 186.938 104.282Z" fill="#F49523"/>
<path d="M188.567 104.508C188.115 106.454 187.866 108.038 187.979 108.061C188.115 108.083 188.567 106.545 189.02 104.599C189.472 102.653 189.721 101.069 189.608 101.046C189.472 101.023 189.02 102.562 188.567 104.508Z" fill="#F49523"/>
</g>
<path d="M225.903 191.126C225.903 191.126 228.754 163.837 214.996 138.132C214.996 138.132 229.025 152.433 232.917 167.752C232.917 167.752 236.809 146.437 249.028 139.173C249.028 139.173 238.37 156.053 238.121 189.067L238.37 205.698H228.233L225.903 191.148V191.126Z" fill="#48AE4D"/>
<path d="M177.049 179.337C177.049 179.337 179.901 152.048 166.143 126.344C166.143 126.344 180.172 140.644 184.064 155.963C184.064 155.963 187.956 134.648 200.175 127.384C200.175 127.384 189.517 144.264 189.268 177.278L189.517 193.909H179.38L177.049 179.36V179.337Z" fill="#48AE4D"/>
<path d="M206.149 148.767L201.986 181.238C194.971 160.963 195.741 141.753 195.741 141.753C185.875 153.7 186.644 180.197 186.644 180.197L178.34 145.894L177.299 179.925C170.805 166.417 169.764 137.069 169.764 137.069C163.587 145.079 164.492 160.511 165.94 170.512C162.343 156.619 155.735 149.288 155.735 149.288C162.75 170.082 156.776 201.512 156.776 201.512L210.562 201.761C212.892 182.007 206.149 148.767 206.149 148.767Z" fill="#4FB04D"/>
<path d="M175.195 200.72C175.195 200.72 172.909 170.852 169.176 154.469C169.176 154.469 179.358 167.48 182.571 181.894L184.924 151.098L189.789 183.319C189.789 183.319 195.514 152.41 206.126 143.563C206.126 143.563 198.094 177.866 200.107 200.199L175.172 200.72H175.195Z" fill="#69B53F"/>
<path d="M45.3128 207.395C45.3128 207.395 43.0275 177.527 39.2939 161.145C39.2939 161.145 49.4763 174.155 52.6894 188.569L55.0426 157.773L59.9075 189.994C59.9075 189.994 65.6323 159.085 76.2445 150.238C76.2445 150.238 68.2118 184.541 70.2256 206.875L45.2902 207.395H45.3128Z" fill="#69B53F"/>
<path d="M241.357 202.077C241.357 202.077 239.071 172.209 235.338 155.827C235.338 155.827 245.52 168.838 248.733 183.251L251.087 152.456L255.951 184.677C255.951 184.677 261.676 153.768 272.288 144.921C272.288 144.921 264.256 179.224 266.27 201.557L241.334 202.077H241.357Z" fill="#69B53F"/>
<path d="M134.012 202.462C134.012 202.462 131.251 159.515 114.62 143.925C114.62 143.925 130.21 149.808 136.795 172.684C136.795 172.684 140.257 154.334 151.344 147.749C151.344 147.749 143.38 164.471 144.76 204.295C145.507 225.768 142.678 220.496 142.678 220.496L134.012 218.414V202.485V202.462Z" fill="#48AE4D"/>
<path d="M122.224 203.073C122.224 203.073 119.101 182.278 104.031 166.711C104.031 166.711 117.019 171.915 125.844 188.026C125.844 188.026 125.844 171.395 114.576 143.948C114.576 143.948 131.026 162.05 133.107 180.762L134.329 145.079L142.475 187.505L148.404 154.424L151.3 189.565C151.3 189.565 158.043 163.588 170.533 153.7C170.533 153.7 158.586 184.36 159.106 201.512L122.224 203.073Z" fill="#9CC547"/>
<path d="M263.44 202.055C263.44 202.055 260.318 181.26 245.248 165.693C245.248 165.693 258.236 170.897 267.061 187.008C267.061 187.008 267.061 170.377 255.792 142.93C255.792 142.93 272.243 161.031 274.324 179.744L275.546 144.061L283.692 186.487L289.62 153.406L292.517 188.546C292.517 188.546 299.26 162.57 311.75 152.682C311.75 152.682 299.803 183.342 300.323 200.494L263.44 202.055Z" fill="#9CC547"/>
<path d="M61.1971 207.395C61.1971 207.395 58.0745 186.6 43.0046 171.033C43.0046 171.033 55.9928 176.237 64.8175 192.348C64.8175 192.348 64.8175 175.717 53.549 148.27C53.549 148.27 69.9992 166.371 72.0809 185.084L73.3028 149.401L81.4486 191.827L87.377 158.746L90.2733 193.886C90.2733 193.886 97.0163 167.91 109.507 158.022C109.507 158.022 97.5594 188.682 98.0798 205.834L61.1971 207.395Z" fill="#9CC547"/>
<path d="M245.905 203.073C245.905 203.073 249.028 182.279 264.098 166.711C264.098 166.711 251.11 171.915 242.285 188.026C242.285 188.026 239.162 173.997 253.191 146.98C253.191 146.98 238.121 166.733 235.519 183.862L232.917 145.418L225.654 187.505L219.725 154.424L216.829 189.565C216.829 189.565 210.086 163.588 197.596 153.7C197.596 153.7 209.543 184.36 209.023 201.512L245.905 203.073Z" fill="#39A14A"/>
<path d="M130.754 202.462C130.754 202.462 131.071 181.441 143.923 163.996C143.923 163.996 131.75 170.874 125.143 188.026C125.143 188.026 120.187 174.54 130.483 145.894C130.483 145.894 118.173 167.48 117.902 184.813L110.186 147.048L108.602 189.723L98.3064 157.75L100.117 192.981C100.117 192.981 89.9569 168.136 76.2673 160.013C76.2673 160.013 92.197 188.795 93.9846 205.856L130.754 202.485V202.462Z" fill="#39A14A"/>
<path d="M93.6677 67.8289L89.1875 97.946C88.8028 100.48 86.2006 102.042 83.7795 101.136L55.1784 90.5469C51.988 89.3702 51.6033 85.0031 54.5222 83.2835L87.6035 63.756C90.5225 62.0363 94.1655 64.4574 93.6677 67.8289Z" fill="#C17BB2"/>
<path d="M80.3631 103.354L61.0846 97.8103C59.8174 97.4482 58.4824 98.127 58.0299 99.3489L53.6854 111.07C52.9839 112.971 54.7036 114.894 56.6722 114.374L80.2726 108.219C82.739 107.563 82.7843 104.078 80.3405 103.354H80.3631Z" fill="#C17BB2"/>
<path d="M97.2656 93.8731C96.9262 96.1132 95.6138 103.015 89.6175 108.807C82.6935 115.482 74.3893 116.025 72.3528 116.093" stroke="black" stroke-miterlimit="10"/>
<path d="M98.9175 88.9856C98.3292 81.6317 103.013 74.9566 109.756 73.1011C117.155 71.0647 125.278 75.3186 127.926 83.012" stroke="black" stroke-miterlimit="10"/>
<path d="M108.511 59.1401C106.158 60.8598 102.425 64.1181 99.5962 69.345C95.2292 77.3778 95.6817 85.0937 96.0437 88.1032" stroke="black" stroke-miterlimit="10"/>
</g>
</svg>
