<svg width="344" height="241" viewBox="0 0 344 241" fill="none" xmlns="http://www.w3.org/2000/svg">
<rect x="0.137695" y="0.558594" width="343.438" height="239.623" rx="23" fill="white"/>
<path d="M230.811 195.9C232.076 195.959 234.348 195.781 235.435 196.117C235.514 196.137 235.613 196.176 235.692 196.216C235.771 196.255 235.85 196.295 235.929 196.354C236.008 196.394 236.087 196.453 236.147 196.512C236.226 196.572 236.285 196.631 236.344 196.71C236.404 196.769 236.443 196.828 236.502 196.888C236.562 196.947 236.601 197.026 236.641 197.085C236.68 197.145 236.72 197.224 236.759 197.303C236.799 197.382 236.819 197.441 236.858 197.52C236.878 197.599 236.918 197.678 236.918 197.738C236.918 197.817 236.957 197.896 236.957 197.975C236.957 198.054 236.957 198.133 236.977 198.212C236.977 198.291 236.977 198.37 236.977 198.449C236.957 199.062 236.7 199.674 236.226 200.07C235.89 200.346 235.514 200.465 235.099 200.544C233.696 200.761 232.076 200.564 230.653 200.583C225.653 200.623 220.633 200.623 215.633 200.583L168.696 200.623L126.798 200.544H114.486C112.786 200.544 110.355 200.663 108.735 200.465C108.083 200.386 107.589 200.168 107.193 199.635C106.798 199.081 106.66 198.429 106.778 197.757C106.877 197.184 107.292 196.611 107.786 196.315C108.834 195.662 111.64 195.939 112.944 195.939C112.767 196.374 112.272 197.52 112.49 197.955C112.49 197.955 112.51 197.995 112.529 198.014C116.442 198.093 120.395 198.014 124.328 198.034C127.529 198.034 130.79 198.153 133.992 197.995C133.893 197.283 133.715 196.651 133.419 195.979H210.158C209.921 196.413 209.625 196.927 209.506 197.421C209.447 197.639 209.447 197.738 209.566 197.915C210.573 198.093 211.72 197.975 212.747 197.975H218.834H226.799C228.301 197.975 229.842 198.054 231.344 197.915C231.344 197.896 231.364 197.856 231.384 197.836C231.562 197.342 231.048 196.334 230.85 195.86L230.811 195.9Z" fill="#FBBD48"/>
<path d="M121.581 190.939V86.2745V55.2862V45.7802C121.581 44.0806 121.462 42.3216 121.62 40.622C121.62 40.4244 121.62 40.3058 121.758 40.1872C122.411 40.0687 124.604 40.0291 125.177 40.2663C125.533 40.7011 125.355 43.5667 125.355 44.2387H218.32C218.32 43.1517 218.241 42.0054 218.32 40.8987C218.32 40.6616 218.32 40.543 218.518 40.3849C219.131 40.207 221.403 40.2268 222.016 40.4244C222.154 40.6616 222.115 41.0766 222.135 41.3335C222.194 45.958 222.154 50.5826 222.154 55.2071V83.7646L222.115 190.781C222.648 190.84 223.162 190.919 223.676 191.038C226.7 191.71 229.131 193.291 230.81 195.9C231.008 196.374 231.522 197.382 231.344 197.876C231.344 197.896 231.324 197.935 231.305 197.955C229.803 198.093 228.261 198.014 226.759 198.014H218.795H212.708C211.68 198.014 210.534 198.133 209.526 197.955C209.407 197.757 209.407 197.659 209.466 197.461C209.585 196.967 209.881 196.453 210.119 195.999H133.399C133.695 196.69 133.853 197.323 133.972 198.034C130.77 198.172 127.529 198.074 124.308 198.074C120.375 198.074 116.442 198.133 112.509 198.054C112.509 198.054 112.49 198.014 112.47 197.995C112.252 197.56 112.766 196.414 112.924 195.979C113.142 195.603 113.359 195.248 113.616 194.912C115.553 192.323 118.517 191.433 121.561 190.979L121.581 190.939Z" fill="#232B56"/>
<path d="M121.66 191.71C123.952 191.512 126.383 191.809 128.498 192.738C130.632 193.686 132.292 195.03 133.142 197.244C130.415 197.303 127.648 197.244 124.921 197.244H113.221C113.537 196.433 113.873 195.702 114.446 195.01C116.186 192.915 119.012 191.927 121.66 191.69V191.71Z" fill="white"/>
<path d="M219.269 191.552C221.64 191.275 224.348 191.73 226.463 192.817C228.281 193.765 229.802 195.208 230.435 197.184H221.759H210.375C210.692 196.493 211.028 195.86 211.502 195.267C213.419 192.935 216.344 191.848 219.269 191.552Z" fill="white"/>
<path d="M122.312 40.8394H124.605L124.545 190.979C123.794 190.959 123.043 190.979 122.312 190.959V40.8394Z" fill="white"/>
<path d="M219.091 41.037C219.862 41.037 220.653 41.037 221.443 41.037L221.384 190.742C220.633 190.742 219.882 190.761 219.151 190.781L219.111 41.037H219.091Z" fill="white"/>
<path d="M125.297 190.03C133.716 189.931 142.174 190.03 150.593 190.03H197.767C200.258 190.03 217.036 190.188 217.511 189.971L217.55 190.149C217.807 190.149 218.143 190.188 218.38 190.109C218.479 190.267 218.44 190.485 218.44 190.663C217.926 191.117 216.681 191.255 216.028 191.433C213.677 192.105 211.404 193.864 210.139 195.959H133.399C131.779 193.429 129.388 191.967 126.463 191.334C126.067 191.255 125.672 191.176 125.277 191.097V190.05L125.297 190.03Z" fill="white"/>
<path d="M125.336 44.9501C128.953 44.8513 132.589 44.9501 136.206 44.9501H156.779H218.321L218.36 160.366V181.196C218.36 182.421 218.499 188.765 218.34 189.22L218.163 189.279H125.296C125.217 184.655 125.296 180.03 125.296 175.445V141.571L125.336 44.9501Z" fill="white"/>
<path d="M180.672 127.065C181.225 127.599 181.66 128.31 182.114 128.923C181.818 129.219 181.403 129.378 181.106 129.674C181.087 129.694 181.047 129.733 181.027 129.753C180.691 130.069 180.514 130.484 180.316 130.899H180.237C179.565 130.623 178.676 130.326 178.379 129.595C178.261 129.298 178.28 128.982 178.419 128.686C178.814 127.796 179.842 127.401 180.672 127.065Z" fill="#A82C2A"/>
<path d="M150.316 141.018C149.723 140.959 148.261 141.057 147.846 140.662C147.53 140.366 147.411 139.832 147.391 139.437C147.352 138.963 147.411 138.172 147.787 137.816C148.36 137.263 148.874 137.935 149.486 137.915L149.743 137.579H149.901C150.297 137.777 150.553 138.725 150.87 139.101C150.889 139.121 150.909 139.14 150.929 139.18C150.712 139.733 150.514 140.287 150.376 140.88L150.336 141.038L150.316 141.018Z" fill="#A82C2A"/>
<path d="M155.257 122.836C155.257 122.836 155.257 122.955 155.257 123.014C155.257 123.073 155.257 123.133 155.257 123.192C155.257 123.251 155.257 123.31 155.257 123.37C155.257 123.429 155.257 123.488 155.257 123.548C155.257 123.607 155.257 123.666 155.257 123.725C155.257 123.785 155.257 123.844 155.277 123.903C155.277 123.963 155.296 124.022 155.316 124.081C155.336 124.14 155.336 124.2 155.356 124.259C155.356 124.318 155.395 124.378 155.415 124.437C155.415 124.496 155.455 124.555 155.474 124.615C155.494 124.674 155.514 124.733 155.534 124.773C155.553 124.832 155.593 124.891 155.613 124.931C155.632 124.99 155.672 125.03 155.692 125.089C155.711 125.148 155.751 125.188 155.791 125.247C155.83 125.306 155.85 125.346 155.889 125.405C155.929 125.445 155.968 125.504 155.988 125.544C156.818 126.611 158.636 127.125 158.913 127.54C158.913 128.488 159.229 129.575 159.743 130.366C159.19 130.366 158.656 130.405 158.103 130.524C157.787 130.603 156.957 131.018 156.719 130.959L156.66 130.524C156.601 130.01 156.502 129.516 156.364 129.022C156.047 129.061 155.711 129.101 155.395 129.081C154.842 129.061 154.269 128.824 153.913 128.389C153.478 127.876 153.419 127.243 153.498 126.591C153.676 125.129 154.032 123.765 155.237 122.836H155.257Z" fill="#A82C2A"/>
<path d="M202.905 168.469C203.716 168.567 204.467 169.121 205.198 169.417C205.83 169.239 206.403 168.884 207.016 168.686C207.214 168.627 207.293 168.627 207.49 168.726C207.747 169.279 207.431 170.386 207.332 170.979C207.747 171.453 208.656 172.164 208.755 172.777C208.498 173.192 206.976 173.33 206.463 173.469L206.364 173.508C206.107 173.963 205.652 175.148 205.158 175.307C204.625 175.05 204.21 173.982 203.953 173.449C203.083 173.133 202.174 173.133 201.324 172.737C201.858 172.006 202.609 171.512 203.162 170.801C203.004 170.05 202.806 169.22 202.925 168.429L202.905 168.469Z" fill="#FBBD48"/>
<path d="M171.62 102.5C172.49 102.559 173.28 103.053 173.992 103.528C174.525 103.271 175.434 102.658 176.008 102.717C176.146 102.717 176.166 102.796 176.245 102.895C176.383 103.587 176.146 104.437 176.027 105.128C176.462 105.504 177.707 106.393 177.786 107.006C177.272 107.5 176.027 107.203 175.355 107.48C175.316 107.48 175.296 107.5 175.257 107.52C175 108.053 174.703 108.824 174.288 109.259C174.13 109.417 174.071 109.437 173.853 109.437C173.3 109.101 172.925 108.014 172.628 107.441C172.016 107.362 171.205 107.362 170.632 107.124C170.415 107.045 170.355 106.986 170.276 106.769C170.434 106.156 171.462 105.405 171.917 104.97C171.739 104.16 171.581 103.35 171.62 102.52V102.5Z" fill="#FBBD48"/>
<path d="M189.743 109.2C189.348 108.745 188.458 109.101 187.786 108.132C187.292 107.421 187.193 106.512 187.371 105.662C187.371 105.583 187.411 105.504 187.431 105.405C187.45 105.326 187.47 105.247 187.49 105.168C187.51 105.089 187.549 105.01 187.569 104.931C187.589 104.852 187.628 104.773 187.668 104.694C187.707 104.614 187.727 104.535 187.767 104.456C187.806 104.377 187.846 104.298 187.885 104.219C187.925 104.14 187.964 104.061 188.004 104.002C188.043 103.923 188.102 103.863 188.142 103.784C188.182 103.705 188.241 103.646 188.28 103.567C188.34 103.508 188.379 103.429 188.438 103.369C188.498 103.31 188.557 103.231 188.616 103.172C188.676 103.113 188.735 103.053 188.794 102.994C188.853 102.935 188.913 102.875 188.972 102.816C189.031 102.757 189.11 102.697 189.17 102.658C189.229 102.599 189.308 102.559 189.367 102.5C189.427 102.441 189.506 102.401 189.585 102.362C189.822 102.875 190.039 103.389 190.276 103.883C191.106 104.437 191.403 104.753 191.66 105.721C192.016 105.721 192.45 105.701 192.707 105.998C192.806 106.116 192.806 106.334 192.786 106.492C192.747 106.709 192.668 106.887 192.589 107.085C192.549 107.203 192.529 107.302 192.51 107.421V107.777C192.51 108.369 192.549 108.943 192.628 109.516C192.134 109.615 190.593 110.188 190.178 110.445C189.98 110.069 189.881 109.615 189.743 109.2Z" fill="#A82C2A"/>
<path d="M138.379 135.306C139.348 134.338 140.514 133.627 141.482 132.638C145.158 128.903 147.095 123.864 147.134 118.666C147.134 118.488 147.134 118.33 147.134 118.152C147.134 117.974 147.134 117.816 147.134 117.658C147.134 117.5 147.134 117.322 147.095 117.164C147.095 117.006 147.075 116.828 147.055 116.67C147.055 116.512 147.016 116.334 146.996 116.176C146.976 116.018 146.956 115.84 146.937 115.682C146.917 115.524 146.877 115.346 146.858 115.188C146.838 115.03 146.798 114.852 146.759 114.694C146.719 114.536 146.7 114.358 146.66 114.2C146.621 114.042 146.581 113.864 146.541 113.706C146.502 113.547 146.462 113.389 146.423 113.211C146.383 113.053 146.324 112.895 146.285 112.737C146.245 112.579 146.186 112.421 146.126 112.263C146.067 112.105 146.028 111.947 145.968 111.789C145.909 111.63 145.85 111.472 145.79 111.314C145.731 111.156 145.672 110.998 145.613 110.84C145.553 110.682 145.474 110.524 145.415 110.385C145.356 110.227 145.277 110.069 145.198 109.931C145.119 109.773 145.059 109.634 144.98 109.476C144.901 109.318 144.822 109.18 144.743 109.022C144.664 108.864 144.585 108.725 144.506 108.587C144.427 108.449 144.348 108.29 144.249 108.152C144.17 108.014 144.071 107.856 143.992 107.717C143.893 107.579 143.814 107.441 143.715 107.302C143.617 107.164 143.537 107.026 143.439 106.887C143.34 106.749 143.241 106.611 143.142 106.472C143.043 106.334 142.945 106.196 142.846 106.077C142.747 105.939 142.648 105.82 142.53 105.682C142.431 105.543 142.312 105.425 142.213 105.287C142.115 105.148 141.996 105.03 141.877 104.911C141.759 104.792 141.66 104.654 141.541 104.536C141.423 104.417 141.304 104.298 141.186 104.18C138.083 101.077 134.111 99.1798 129.802 98.5078C129.367 98.4288 128.399 98.5078 128.221 98.1126C128.28 97.8952 128.261 97.8359 128.478 97.7371C129.249 97.3616 133.32 98.6462 134.249 99.0019C135.059 99.2983 135.85 99.6541 136.62 100.049C141.561 102.599 145.158 107.164 146.818 112.421C146.877 112.579 146.917 112.757 146.976 112.915C147.036 113.073 147.075 113.251 147.115 113.409C147.154 113.567 147.194 113.745 147.233 113.903C147.273 114.081 147.312 114.239 147.352 114.417C147.391 114.595 147.431 114.753 147.451 114.931C147.49 115.109 147.51 115.267 147.549 115.445C147.569 115.623 147.609 115.781 147.628 115.959C147.648 116.136 147.668 116.294 147.688 116.472C147.688 116.65 147.727 116.808 147.747 116.986C147.747 117.164 147.767 117.322 147.787 117.5C147.787 117.678 147.787 117.836 147.806 118.014C147.806 118.192 147.806 118.37 147.806 118.528C147.806 118.706 147.806 118.883 147.806 119.042C147.806 119.219 147.806 119.397 147.806 119.555C147.806 119.733 147.806 119.891 147.787 120.069C147.787 120.247 147.767 120.405 147.747 120.583C147.747 120.761 147.707 120.919 147.688 121.097C147.688 121.275 147.648 121.433 147.628 121.611C147.609 121.789 147.569 121.947 147.549 122.125C147.53 122.302 147.49 122.461 147.451 122.638C147.411 122.816 147.391 122.974 147.352 123.152C147.312 123.33 147.273 123.488 147.233 123.666C147.194 123.844 147.154 124.002 147.095 124.16C147.055 124.318 146.996 124.496 146.956 124.654C146.917 124.812 146.858 124.99 146.798 125.148C146.739 125.306 146.68 125.484 146.64 125.642C146.581 125.8 146.522 125.959 146.462 126.136C146.403 126.295 146.344 126.453 146.265 126.611C146.205 126.769 146.126 126.927 146.067 127.085C145.988 127.243 145.929 127.401 145.85 127.559C145.771 127.717 145.692 127.876 145.632 128.034C145.553 128.192 145.474 128.35 145.395 128.488C145.198 128.844 145 129.219 144.783 129.555C144.565 129.911 144.348 130.247 144.111 130.583C143.873 130.919 143.617 131.255 143.36 131.571C143.103 131.887 142.826 132.204 142.549 132.52C142.273 132.836 141.996 133.133 141.7 133.409C141.403 133.706 141.107 133.982 140.79 134.259C140.474 134.536 140.158 134.793 139.842 135.05C139.506 135.306 139.19 135.544 138.834 135.781C138.696 135.623 138.557 135.484 138.419 135.346L138.379 135.306Z" fill="#E94742"/>
<path d="M205.198 147.322C205.198 147.322 205.198 147.224 205.257 147.145C205.455 146.809 206.957 145.148 207.273 145.069C207.629 145.484 208.083 145.722 208.498 146.077C208.755 145.82 208.972 145.583 209.348 145.603C209.803 145.603 211.799 146.67 212.115 147.006C212.233 147.145 212.253 147.204 212.233 147.382C212.154 148.311 209.704 153.587 209.052 154.042C208.913 154.141 208.577 154.101 208.419 154.042C208.142 153.963 207.945 153.765 207.826 153.508C207.47 152.777 207.629 151.947 207.569 151.156C207.569 150.88 207.451 150.643 207.411 150.366C207.352 150.01 207.372 149.635 207.372 149.279C206.897 148.488 205.988 147.777 205.198 147.303V147.322Z" fill="#E14647"/>
<path d="M211.404 146.71C211.68 146.848 211.878 147.026 212.096 147.243C211.76 148.725 210.91 150.287 210.297 151.67C210.02 152.283 209.526 153.706 208.835 153.884C208.637 153.943 208.459 153.943 208.301 153.804C207.945 153.548 207.807 152.974 207.767 152.559C207.688 151.927 207.827 151.492 208.222 150.998C208.341 150.88 208.439 150.761 208.578 150.662C208.795 150.504 209.052 150.405 209.329 150.484C209.467 150.524 209.467 150.583 209.526 150.702C209.487 151.453 208.854 152.263 208.518 152.935C208.439 153.093 208.38 153.212 208.439 153.37L208.558 153.31C209.704 151.393 210.594 148.804 211.404 146.69V146.71Z" fill="white"/>
<path d="M209.21 145.721C209.941 145.88 210.574 146.295 211.206 146.67C210.752 147.935 210.297 149.219 209.724 150.445C209.685 150.445 209.645 150.405 209.605 150.385C208.617 149.951 208.519 150.801 207.787 151.057C207.629 150.84 207.649 150.662 207.609 150.405C207.609 149.674 207.748 149.14 207.273 148.528C207.432 148.133 207.807 148.113 208.024 147.777C208.222 147.48 208.321 146.789 208.598 146.591C208.637 146.67 208.677 146.789 208.696 146.868C208.716 147.243 208.459 147.559 208.242 147.816C208.143 147.935 208.064 148.014 208.005 148.152C208.123 148.093 208.262 148.034 208.36 147.955C209.171 147.382 208.598 146.789 208.716 146.057C208.854 145.86 209.013 145.8 209.23 145.702L209.21 145.721Z" fill="white"/>
<path d="M187.016 150.148C187.333 150.05 189.862 150.563 190.317 150.702C190.178 151.235 190.06 151.769 189.941 152.322C189.605 152.441 189.269 152.579 188.933 152.678H188.854C189.546 152.836 190.139 152.698 190.811 152.579C190.633 153.844 190.455 155.089 190.258 156.334C189.704 156.571 189.171 156.749 188.578 156.868C187.491 157.085 183.242 157.006 182.313 156.374C182.273 156.176 182.254 156.018 182.293 155.801C182.55 154.239 184.704 153.884 185.811 153.054C186.878 152.243 186.839 151.354 186.997 150.148H187.016Z" fill="#A82C2A"/>
<path d="M186.798 152.322C187.51 152.362 187.945 152.678 188.597 152.856C189.229 153.034 189.941 152.856 190.593 152.777C190.454 153.923 190.277 155.05 190.099 156.176C187.786 157.243 184.842 156.73 182.431 156.295C182.529 155.86 182.648 155.405 182.905 155.03C183.221 154.556 183.597 154.378 184.15 154.239C184.209 154.654 184.308 155.089 184.387 155.504C184.664 155.504 184.941 155.484 185.217 155.465C186.581 155.366 188.873 155.03 189.802 153.923C189.644 153.844 189.486 153.923 189.348 154.022C188.972 154.239 188.577 154.556 188.182 154.714C187.075 155.148 185.711 155.228 184.526 155.326C184.446 154.892 184.367 154.496 184.249 154.081C185.356 153.686 186.067 153.212 186.838 152.322H186.798Z" fill="white"/>
<path d="M143.201 74.8317C143.517 75.1677 143.853 76.3337 143.893 76.808L143.34 76.8475C143.063 76.8475 142.885 76.8871 142.668 76.729C142.49 76.2151 143.004 75.3456 143.201 74.8317Z" fill="white"/>
<path d="M179.467 83.3101H181.878V85.82H179.071C179.071 88.1125 179.071 90.4248 179.091 92.7173C178.439 92.7173 176.463 92.8951 175.988 92.6382L175.949 92.4208V85.7212C175.02 85.7014 174.071 85.7014 173.143 85.7212V83.2903H179.486L179.467 83.3101Z" fill="#E94742"/>
<path d="M189.605 102.362C189.605 102.362 189.723 102.302 189.783 102.263C189.842 102.243 189.901 102.203 189.96 102.184C190.02 102.164 190.079 102.124 190.158 102.105C190.217 102.085 190.296 102.065 190.356 102.045C190.415 102.045 190.494 102.006 190.553 101.986C190.613 101.966 190.692 101.946 190.751 101.946C190.81 101.946 190.889 101.927 190.949 101.907C191.008 101.907 191.087 101.907 191.146 101.887C191.205 101.887 191.285 101.887 191.344 101.887C191.403 101.887 191.482 101.887 191.541 101.887C191.601 101.887 191.68 101.887 191.739 101.887C191.798 101.887 191.877 101.887 191.937 101.887C191.996 101.887 192.075 101.887 192.134 101.907C192.194 101.927 192.273 101.927 192.332 101.946C192.391 101.946 192.47 101.986 192.53 101.986C192.589 101.986 192.668 102.026 192.727 102.045C193.577 102.322 194.15 102.836 194.624 103.587C195.296 103.686 195.791 103.864 196.206 104.417C196.739 105.109 196.917 105.978 197.569 106.611C199.862 106.887 201.759 105.326 203.498 107.48C204.032 108.132 204.368 109.041 204.229 109.891C204.17 110.326 203.953 110.701 203.577 110.958C203.241 111.196 202.747 111.354 202.332 111.255C201.581 111.097 201.028 110.464 200.316 110.227C198.478 109.575 196.996 110.603 195.652 108.409C195.356 107.915 195.04 107.164 194.486 106.927C193.834 106.927 193.123 107.243 192.47 107.362C192.47 107.243 192.51 107.144 192.549 107.026C192.628 106.828 192.707 106.65 192.747 106.433C192.767 106.275 192.767 106.057 192.668 105.939C192.411 105.642 191.976 105.682 191.621 105.662C191.364 104.694 191.067 104.377 190.237 103.824C190 103.33 189.783 102.816 189.545 102.302L189.605 102.362Z" fill="#232B56"/>
<path d="M166.858 83.152C168.301 83.1717 169.506 83.4484 170.811 84.0808C170.475 84.7725 170.178 85.484 169.862 86.1955C169.151 85.8397 168.321 85.5433 167.51 85.484C167.016 85.4445 166.285 85.3654 165.909 85.7409C165.771 85.8793 165.732 85.9583 165.732 86.1362C166.325 87.0057 169.348 86.8279 170.672 88.152C171.087 88.567 171.305 89.0611 171.285 89.654C171.285 90.484 170.989 91.1362 170.396 91.7093C169.388 92.6777 167.906 92.8753 166.562 92.8556C165.139 92.7765 163.736 92.4208 162.51 91.6698C162.886 90.9781 163.241 90.2666 163.597 89.5749C163.755 89.6737 163.913 89.7923 164.072 89.8714C164.23 89.9702 164.408 90.0492 164.585 90.1283C164.763 90.2073 164.941 90.2666 165.119 90.3259C165.297 90.3852 165.475 90.4247 165.672 90.4643C166.245 90.5828 167.609 90.7607 168.083 90.3457C168.242 90.2073 168.222 90.0888 168.242 89.8911C167.886 89.1006 164.763 89.0611 163.657 88.0927C163.123 87.6382 162.886 87.0453 162.826 86.3536C162.767 85.563 162.965 84.9899 163.498 84.397C164.388 83.4089 165.633 83.2113 166.898 83.1322L166.858 83.152Z" fill="#E94742"/>
<path d="M184.645 83.3101H192.392V85.6224C190.831 85.6224 189.289 85.6224 187.728 85.6224C187.728 86.0374 187.708 86.4524 187.688 86.8675C189.111 86.8872 190.554 86.8675 191.977 86.8675V89.1007H187.985C187.925 89.1007 187.866 89.1402 187.807 89.16C187.688 89.5552 187.748 90.0098 187.767 90.4248H192.629V92.7568H184.625V83.3101H184.645Z" fill="#E94742"/>
<path d="M137.826 83.3495C139.644 83.3495 143.616 83.0333 145.197 83.7843C146.008 84.1796 146.679 84.9306 146.936 85.8001C147.213 86.6895 147.154 87.7567 146.719 88.5867C146.225 89.5156 145.415 89.9504 144.466 90.2468C143.359 90.4642 142.193 90.3851 141.067 90.3654V92.7962C139.98 92.7962 138.913 92.7962 137.845 92.7962V83.3495H137.826Z" fill="#E94742"/>
<path d="M141.047 85.6223C141.818 85.6223 142.688 85.5235 143.399 85.8792C143.676 86.0175 143.893 86.2152 143.972 86.5511C144.071 86.9662 143.854 87.4405 143.636 87.7764C142.905 88.31 141.917 88.1915 141.047 88.1915V85.6223Z" fill="white"/>
<path d="M198.953 83.31C199.724 83.31 200.534 83.2507 201.305 83.3495C202.352 83.4681 203.38 83.9029 204.032 84.7725C204.585 85.5037 204.783 86.4918 204.645 87.4009C204.467 88.5274 203.795 89.1994 202.925 89.812C203.637 90.7804 204.309 91.7883 204.961 92.7962C204.388 92.7962 201.917 92.895 201.542 92.7172C201.463 92.6776 201.423 92.5986 201.364 92.5393L200 90.3456H198.815C198.815 91.1559 198.795 91.9464 198.775 92.7369H195.771L195.712 83.31H198.953Z" fill="#E94742"/>
<path d="M198.795 85.6619C199.605 85.6421 200.593 85.5631 201.285 86.0571C201.502 86.2152 201.621 86.4129 201.641 86.6698C201.68 87.0255 201.483 87.401 201.285 87.6777C200.534 88.0927 199.605 87.9939 198.795 87.9939V85.6619Z" fill="white"/>
<path d="M160.731 123.903C161.581 122.717 162.55 121.769 164.071 121.532C164.131 121.532 164.19 121.532 164.249 121.512C164.309 121.512 164.368 121.512 164.427 121.512C164.486 121.512 164.546 121.512 164.605 121.512C164.664 121.512 164.724 121.512 164.783 121.512C164.842 121.512 164.901 121.512 164.961 121.512C165.02 121.512 165.079 121.512 165.139 121.532C165.198 121.532 165.257 121.532 165.316 121.571C165.376 121.571 165.435 121.591 165.494 121.611C165.554 121.611 165.613 121.65 165.672 121.65C165.731 121.65 165.791 121.69 165.85 121.709C165.909 121.709 165.969 121.749 166.008 121.769C166.067 121.789 166.127 121.808 166.166 121.848C166.226 121.868 166.265 121.907 166.324 121.927C166.384 121.947 166.423 121.986 166.482 122.006C166.542 122.045 166.581 122.065 166.641 122.105C166.7 122.144 166.739 122.164 166.779 122.204C167.392 122.658 167.866 123.33 167.965 124.101C167.965 124.18 167.965 124.259 167.965 124.338C167.965 124.417 167.965 124.496 167.965 124.575C167.965 124.654 167.965 124.733 167.925 124.812C167.925 124.891 167.886 124.97 167.866 125.03C167.846 125.109 167.826 125.168 167.787 125.247C167.747 125.326 167.728 125.385 167.688 125.464C167.648 125.524 167.609 125.603 167.569 125.662C167.53 125.721 167.471 125.781 167.431 125.84C167.293 125.998 167.135 126.136 166.977 126.275C167.886 126.492 168.676 126.848 169.19 127.678C169.23 127.757 169.269 127.816 169.309 127.895C169.348 127.974 169.388 128.053 169.407 128.132C169.427 128.211 169.467 128.291 169.486 128.37C169.506 128.449 169.526 128.528 169.546 128.627C169.546 128.706 169.565 128.785 169.565 128.883C169.565 128.962 169.565 129.061 169.565 129.14C169.565 129.219 169.565 129.318 169.546 129.397C169.546 129.476 169.506 129.555 169.486 129.654C169.289 130.405 168.755 131.038 168.083 131.393C167.313 131.808 166.443 131.808 165.613 131.551C163.558 130.899 161.917 128.864 161.008 126.986C160.969 126.907 160.929 126.808 160.89 126.71C160.297 127.283 159.783 127.579 158.933 127.579C158.637 127.164 156.838 126.65 156.008 125.583C155.969 125.543 155.929 125.484 155.909 125.445C155.87 125.405 155.85 125.346 155.81 125.287C155.771 125.227 155.751 125.188 155.712 125.128C155.692 125.069 155.652 125.03 155.633 124.97C155.613 124.911 155.573 124.872 155.554 124.812C155.534 124.753 155.514 124.694 155.494 124.654C155.474 124.615 155.455 124.536 155.435 124.476C155.435 124.417 155.395 124.358 155.376 124.298C155.376 124.239 155.336 124.18 155.336 124.121C155.336 124.061 155.316 124.002 155.297 123.943C155.297 123.883 155.297 123.824 155.277 123.765C155.277 123.706 155.277 123.646 155.277 123.587C155.277 123.528 155.277 123.468 155.277 123.409C155.277 123.35 155.277 123.291 155.277 123.231C155.277 123.172 155.277 123.113 155.277 123.053C155.277 122.994 155.277 122.935 155.277 122.875C156.206 122.302 157.194 122.006 158.281 122.263C159.328 122.52 160 123.231 160.751 123.943L160.731 123.903Z" fill="#232B56"/>
<path d="M154.387 83.152C155.79 83.0531 157.292 83.3891 158.439 84.2191C158.498 84.2587 158.557 84.318 158.617 84.3575C158.676 84.397 158.735 84.4563 158.794 84.5156C158.854 84.5749 158.913 84.6144 158.972 84.6737C159.032 84.733 159.091 84.7923 159.13 84.8516C159.19 84.9109 159.229 84.9701 159.289 85.0294C159.348 85.0887 159.387 85.148 159.427 85.2073C159.466 85.2666 159.526 85.3259 159.565 85.4049C159.605 85.4642 159.644 85.5433 159.684 85.6026C159.723 85.6618 159.763 85.7409 159.802 85.8002C159.842 85.8792 159.881 85.9385 159.901 86.0176C159.941 86.0966 159.96 86.1559 160 86.235C160.02 86.314 160.059 86.3733 160.079 86.4524C160.099 86.5314 160.138 86.6105 160.158 86.6698C160.178 86.7488 160.198 86.8279 160.217 86.8872C160.217 86.9662 160.257 87.0453 160.257 87.1243C160.257 87.2034 160.277 87.2824 160.296 87.3615C160.296 87.4405 160.316 87.5196 160.316 87.5986C160.316 87.6777 160.316 87.7567 160.316 87.8358C160.316 87.9148 160.316 87.9939 160.316 88.0729C160.316 88.152 160.316 88.231 160.316 88.3101C160.316 88.3891 160.316 88.4682 160.316 88.5472C160.316 88.6263 160.316 88.7053 160.277 88.7844C160.277 88.8634 160.257 88.9425 160.237 89.0216C160.237 89.1006 160.198 89.1797 160.178 89.2587C160.158 89.3378 160.138 89.4168 160.119 89.4761C160.099 89.5552 160.079 89.6342 160.039 89.6935C160.02 89.7725 159.98 89.8318 159.96 89.9109C159.921 89.9899 159.901 90.0492 159.862 90.1283C159.822 90.2073 159.783 90.2666 159.743 90.3457C159.704 90.405 159.664 90.484 159.624 90.5433C159.585 90.6026 159.545 90.6816 159.486 90.7409C159.447 90.8002 159.387 90.8595 159.348 90.9386C158.34 92.2232 156.917 92.6975 155.336 92.8556C153.735 92.9149 152.174 92.6579 150.909 91.6105C150.85 91.571 150.79 91.5117 150.731 91.4524C150.672 91.3931 150.613 91.3536 150.573 91.2943C150.514 91.235 150.474 91.1757 150.415 91.1362C150.356 91.0769 150.316 91.0176 150.277 90.9583C150.237 90.899 150.178 90.8397 150.138 90.7805C150.099 90.7212 150.059 90.6619 150 90.6026C149.96 90.5433 149.921 90.484 149.881 90.405C149.842 90.3457 149.802 90.2666 149.763 90.2073C149.723 90.148 149.703 90.069 149.664 90.0097C149.624 89.9504 149.605 89.8714 149.565 89.7923C149.545 89.7133 149.506 89.654 149.486 89.5749C149.466 89.4959 149.447 89.4366 149.407 89.3575C149.387 89.2785 149.367 89.2192 149.348 89.1401C149.348 89.0611 149.308 89.0018 149.308 88.9227C149.308 88.8437 149.288 88.7646 149.269 88.7053C149.269 88.6263 149.269 88.5472 149.249 88.488C149.13 87.2231 149.506 85.8595 150.356 84.8911C151.423 83.6855 152.806 83.2903 154.348 83.1717L154.387 83.152Z" fill="#E94742"/>
<path d="M154.585 85.563C155.04 85.563 155.475 85.6223 155.89 85.8199C156.483 86.1163 156.878 86.6104 157.056 87.2231C157.253 87.8753 157.174 88.6065 156.838 89.1994C156.423 89.8911 155.811 90.148 155.06 90.3456C154.506 90.3852 153.973 90.2666 153.498 89.9701C153.439 89.9306 153.36 89.8713 153.301 89.8318C153.241 89.7725 153.182 89.733 153.123 89.6737C153.064 89.6144 153.004 89.5551 152.965 89.4958C152.905 89.4365 152.866 89.3772 152.826 89.2982C152.787 89.2389 152.747 89.1598 152.708 89.1006C152.668 89.0215 152.629 88.9622 152.609 88.8832C152.569 88.8041 152.55 88.7251 152.53 88.6658C152.51 88.5867 152.49 88.5077 152.471 88.4286C152.471 88.3496 152.451 88.2705 152.431 88.1915C152.431 88.1124 152.431 88.0334 152.431 87.9543C152.431 87.8753 152.431 87.7962 152.431 87.7172C152.431 87.6381 152.431 87.559 152.471 87.48C152.471 87.4009 152.51 87.3219 152.53 87.2428C152.55 87.1638 152.589 87.0847 152.609 87.0254C152.649 86.9464 152.668 86.8871 152.708 86.8081C152.747 86.729 152.787 86.6697 152.826 86.6104C153.261 85.978 153.854 85.7013 154.585 85.563Z" fill="white"/>
<path d="M145.85 47.9738H152.628C153.755 47.9738 154.96 47.8947 156.067 47.9935C155.158 48.9619 154.466 50.2663 153.715 51.3533L150.039 56.6497C149.032 58.0924 148.043 59.5746 146.917 60.9185C145.039 60.5233 143.142 60.0292 141.285 59.5351C140.296 59.2782 139.288 58.9422 138.3 58.7841C138.913 57.7565 139.664 56.7881 140.336 55.7999C142.134 53.1517 143.972 50.543 145.87 47.9738H145.85Z" fill="#ADC1AE"/>
<path d="M128.32 47.9739H145.85C143.952 50.5431 142.114 53.1518 140.316 55.8C139.644 56.7882 138.893 57.7565 138.28 58.7842C135.019 57.8356 131.66 57.2032 128.399 56.2546C128.399 53.5075 128.399 50.7407 128.359 47.9936L128.32 47.9739Z" fill="#E94742"/>
<path d="M156.067 47.9937C159.447 47.9146 162.866 47.8948 166.245 47.9937C165.969 48.7051 164.467 50.6024 163.933 51.3929C161.206 55.3257 158.518 59.3574 155.613 63.1716C152.767 62.3218 149.803 61.6103 146.897 60.9384C148.044 59.5945 149.012 58.1123 150.02 56.6696L153.696 51.3731C154.447 50.2862 155.139 48.9818 156.048 48.0134L156.067 47.9937Z" fill="#E94742"/>
<path d="M128.241 103.528C132.372 104.2 135.969 106.136 138.439 109.575C138.518 109.674 138.597 109.792 138.656 109.891C138.735 109.99 138.795 110.109 138.874 110.227C138.953 110.346 139.012 110.445 139.091 110.563C139.15 110.682 139.229 110.781 139.289 110.899C139.348 111.018 139.427 111.136 139.486 111.235C139.546 111.354 139.605 111.472 139.664 111.591C139.723 111.709 139.783 111.828 139.842 111.947C139.901 112.065 139.961 112.184 140 112.302C140.059 112.421 140.099 112.54 140.158 112.658C140.218 112.777 140.257 112.895 140.297 113.014C140.336 113.132 140.395 113.251 140.435 113.389C140.474 113.508 140.514 113.646 140.573 113.765C140.613 113.883 140.652 114.022 140.692 114.14C140.731 114.259 140.771 114.397 140.81 114.516C140.85 114.634 140.89 114.773 140.909 114.891C140.949 115.01 140.969 115.148 141.008 115.267C141.028 115.385 141.067 115.524 141.087 115.642C141.107 115.781 141.146 115.899 141.166 116.038C141.186 116.176 141.206 116.294 141.225 116.433C141.225 116.571 141.265 116.69 141.285 116.828C141.285 116.966 141.324 117.085 141.324 117.223C141.324 117.362 141.344 117.48 141.364 117.619C141.364 117.757 141.364 117.876 141.384 118.014C141.384 118.152 141.384 118.271 141.384 118.409C141.384 118.547 141.384 118.666 141.384 118.804C141.384 118.943 141.384 119.061 141.384 119.2C141.384 119.338 141.384 119.457 141.384 119.595C141.384 119.733 141.384 119.852 141.364 119.99C141.364 120.128 141.344 120.247 141.324 120.385C141.324 120.524 141.305 120.642 141.285 120.781C141.285 120.919 141.245 121.038 141.225 121.176C141.225 121.314 141.186 121.433 141.166 121.571C140.534 125.247 138.281 128.804 135.237 130.919C134.229 131.611 133.202 132.144 132.075 132.599C133.617 133.093 135.079 133.488 136.542 134.219C136.897 134.397 138.123 135.287 138.419 135.306C138.557 135.445 138.696 135.583 138.834 135.741C141.818 138.923 143.597 142.204 143.459 146.69C143.36 150.109 141.878 153.587 139.368 155.939C136.976 158.172 133.439 159.951 130.119 159.793H130.02C132.826 159.437 135.395 158.488 137.51 156.591C137.589 156.512 137.688 156.433 137.767 156.354C137.846 156.275 137.925 156.196 138.004 156.117C138.083 156.038 138.162 155.959 138.241 155.88C138.32 155.801 138.399 155.722 138.478 155.623C138.557 155.544 138.637 155.445 138.716 155.366C138.795 155.287 138.874 155.188 138.933 155.109C139.012 155.03 139.071 154.931 139.15 154.832C139.229 154.733 139.289 154.654 139.368 154.556C139.427 154.457 139.506 154.378 139.565 154.279C139.625 154.18 139.704 154.101 139.763 154.002C139.822 153.903 139.882 153.805 139.941 153.706C140 153.607 140.059 153.508 140.119 153.409C140.178 153.311 140.237 153.212 140.297 153.113C140.356 153.014 140.415 152.915 140.455 152.816C140.494 152.718 140.554 152.619 140.613 152.52C140.672 152.421 140.712 152.322 140.771 152.204C140.81 152.105 140.87 152.006 140.909 151.888C140.949 151.789 141.008 151.67 141.048 151.571C141.087 151.473 141.127 151.354 141.166 151.255C141.206 151.156 141.245 151.038 141.285 150.939C141.324 150.84 141.364 150.722 141.403 150.623C141.443 150.504 141.482 150.405 141.502 150.287C141.542 150.168 141.561 150.069 141.601 149.951C141.641 149.832 141.66 149.733 141.68 149.615C141.7 149.496 141.739 149.397 141.759 149.279C141.779 149.16 141.799 149.061 141.838 148.943C141.858 148.824 141.878 148.726 141.897 148.607C141.897 148.488 141.937 148.39 141.957 148.271C141.957 148.152 141.996 148.054 141.996 147.935C141.996 147.816 142.016 147.718 142.036 147.599C142.036 147.48 142.036 147.362 142.056 147.263C142.056 147.144 142.056 147.026 142.056 146.927C142.214 143.33 141.008 139.951 138.557 137.303C135.771 134.299 132.352 133.192 128.34 133.053V130.188C130 130.188 131.739 129.516 133.123 128.646C135.81 126.947 137.589 124.417 138.281 121.314C138.301 121.215 138.32 121.117 138.34 121.018C138.36 120.919 138.38 120.82 138.399 120.721C138.399 120.623 138.439 120.524 138.459 120.425C138.459 120.326 138.478 120.227 138.498 120.128C138.498 120.03 138.518 119.931 138.538 119.832C138.538 119.733 138.538 119.634 138.557 119.536C138.557 119.437 138.557 119.338 138.557 119.219C138.557 119.121 138.557 119.022 138.557 118.903C138.557 118.804 138.557 118.706 138.557 118.587C138.557 118.488 138.557 118.389 138.557 118.271C138.557 118.172 138.557 118.073 138.557 117.955C138.557 117.856 138.557 117.757 138.557 117.638C138.557 117.54 138.557 117.441 138.538 117.322C138.538 117.223 138.518 117.125 138.498 117.026C138.498 116.927 138.478 116.828 138.459 116.729C138.459 116.63 138.419 116.532 138.419 116.433C138.419 116.334 138.38 116.235 138.36 116.136C138.34 116.038 138.32 115.939 138.301 115.84C138.281 115.741 138.261 115.642 138.222 115.543C138.202 115.445 138.162 115.346 138.142 115.247C138.123 115.148 138.083 115.049 138.063 114.951C138.044 114.852 138.004 114.753 137.965 114.654C137.925 114.555 137.905 114.457 137.866 114.358C137.826 114.259 137.787 114.16 137.747 114.061C137.708 113.962 137.668 113.864 137.629 113.785C137.589 113.686 137.55 113.587 137.51 113.508C137.471 113.409 137.431 113.33 137.372 113.231C137.332 113.132 137.273 113.053 137.233 112.955C137.194 112.856 137.135 112.777 137.095 112.678C137.055 112.579 136.996 112.5 136.937 112.401C136.878 112.322 136.838 112.223 136.779 112.144C136.72 112.065 136.68 111.966 136.621 111.887C134.684 108.864 131.759 107.243 128.3 106.472V103.547L128.241 103.528Z" fill="#FBBD48"/>
<path d="M166.245 47.9936C169.743 48.0134 173.261 48.0134 176.759 47.9936C173.873 52.2822 170.79 56.4324 167.826 60.6617C166.719 62.2427 165.454 63.804 164.486 65.4641L158.34 63.8435C157.45 63.6064 156.502 63.4483 155.612 63.1518C158.517 59.3376 161.205 55.3257 163.933 51.3731C164.486 50.5826 165.968 48.7051 166.245 47.9739V47.9936Z" fill="#FBBD48"/>
<path d="M128.261 106.452C131.699 107.223 134.644 108.824 136.581 111.868C136.64 111.947 136.7 112.045 136.739 112.124C136.798 112.203 136.838 112.302 136.897 112.381C136.956 112.46 136.996 112.559 137.055 112.658C137.095 112.757 137.154 112.836 137.194 112.935C137.233 113.034 137.292 113.113 137.332 113.211C137.371 113.31 137.411 113.389 137.47 113.488C137.51 113.587 137.549 113.666 137.589 113.765C137.628 113.864 137.668 113.962 137.707 114.041C137.747 114.14 137.786 114.239 137.826 114.338C137.866 114.437 137.885 114.536 137.925 114.634C137.964 114.733 137.984 114.832 138.024 114.931C138.063 115.03 138.083 115.128 138.103 115.227C138.122 115.326 138.162 115.425 138.182 115.524C138.202 115.622 138.241 115.721 138.261 115.82C138.281 115.919 138.3 116.018 138.32 116.117C138.34 116.215 138.36 116.314 138.379 116.413C138.379 116.512 138.419 116.611 138.419 116.709C138.419 116.808 138.439 116.907 138.458 117.006C138.458 117.105 138.478 117.204 138.498 117.302C138.498 117.401 138.498 117.5 138.518 117.619C138.518 117.717 138.518 117.816 138.518 117.935C138.518 118.034 138.518 118.132 138.518 118.251C138.518 118.35 138.518 118.449 138.518 118.567C138.518 118.666 138.518 118.765 138.518 118.883C138.518 118.982 138.518 119.081 138.518 119.2C138.518 119.298 138.518 119.397 138.518 119.516C138.518 119.615 138.518 119.713 138.498 119.812C138.498 119.911 138.478 120.01 138.458 120.109C138.458 120.207 138.439 120.306 138.419 120.405C138.419 120.504 138.379 120.603 138.36 120.702C138.36 120.8 138.32 120.899 138.3 120.998C138.281 121.097 138.261 121.196 138.241 121.294C137.549 124.397 135.771 126.927 133.083 128.627C131.699 129.496 129.96 130.168 128.3 130.168L128.261 106.452Z" fill="#E94742"/>
<path d="M187.174 47.9739C190.554 47.9343 193.953 47.9739 197.333 47.9739C196.265 49.6537 195.001 51.2348 193.854 52.8751L185.633 64.4957C184.902 65.5431 184.151 66.5708 183.419 67.5985C182.906 68.31 182.313 69.0214 181.878 69.7922C180.771 69.3969 179.585 69.1202 178.439 68.8238C176.72 68.3693 175.02 67.9345 173.301 67.4997C173.992 66.4127 174.803 65.385 175.534 64.3376C177.273 61.9463 178.973 59.555 180.672 57.1439L184.408 51.8276C185.297 50.5431 186.147 49.1596 187.174 47.9936V47.9739Z" fill="#E94742"/>
<path d="M197.313 47.9739C200.653 47.9739 204.013 47.9146 207.353 47.9739C204.388 51.8079 201.681 55.879 198.894 59.8514C196.048 63.9028 193.123 67.8949 190.376 72.0056C189.665 71.8871 188.953 71.6499 188.242 71.472C186.127 70.9187 184.013 70.2467 181.858 69.7724C182.293 69.0017 182.866 68.2902 183.4 67.5787C184.151 66.5511 184.882 65.5036 185.613 64.4759L193.835 52.8553C194.981 51.2348 196.246 49.6339 197.313 47.9541V47.9739Z" fill="#FBBD48"/>
<path d="M190.257 126.868C190.731 127.579 191.146 127.836 192.016 128.014C194.743 128.548 197.905 127.955 200.514 127.125C200.553 129.595 200.138 136.591 201.463 138.389C201.897 138.982 202.451 139.536 202.964 140.089C204.328 141.571 205.771 142.975 207.115 144.457C207.312 144.674 207.51 144.793 207.293 145.069C206.996 145.148 205.474 146.809 205.277 147.144C205.237 147.224 205.237 147.243 205.217 147.322C205.138 147.382 204.98 147.54 204.882 147.54C204.546 147.48 196.245 141.137 195.415 140.405C195 140.03 194.664 139.556 194.368 139.061C194.348 139.022 194.308 138.963 194.289 138.923C193.043 142.797 192.411 146.868 191.206 150.761H190.336C189.881 150.603 187.352 150.089 187.036 150.188C186.956 150.05 186.838 150.01 186.719 149.931C186.561 149.18 187.213 145.583 187.372 144.457C188.024 139.615 188.597 134.753 189.486 129.951C189.664 128.903 189.941 127.876 190.277 126.887L190.257 126.868Z" fill="#ADC1AE"/>
<path d="M190.178 110.445C190.593 110.168 192.135 109.595 192.629 109.516C193.241 109.654 193.775 109.733 194.328 110.03C196.265 111.077 203.874 117.026 204.882 118.725C205.06 119.002 205.139 119.318 205.218 119.634C205.04 120.326 204.823 120.978 204.506 121.63C204.941 122.006 205.257 122.48 205.317 123.053C205.396 123.765 205.119 124.259 204.763 124.832C204.487 125.227 204.151 125.484 203.736 125.741C203.024 126.472 201.463 126.907 200.494 127.124C197.886 127.955 194.724 128.567 191.996 128.014C191.127 127.836 190.712 127.579 190.237 126.868C190.336 126.354 190.376 125.86 190.396 125.346C189.763 125.86 189.111 126.314 188.4 126.729C187.471 127.263 183.34 129.14 182.471 129.121C182.352 129.061 182.233 129.002 182.115 128.923C181.641 128.31 181.226 127.599 180.672 127.065L180.435 126.67C180.435 126.156 181.7 125.148 182.095 124.773C183.795 123.132 185.376 121.472 186.779 119.575C187.234 118.962 187.609 118.31 188.044 117.678C188.123 117.5 188.202 117.342 188.301 117.164C188.32 116.097 188.834 114.219 189.052 113.093C189.151 112.599 189.111 112.065 189.269 111.571C189.407 111.136 189.664 110.939 190.06 110.741L190.198 110.425L190.178 110.445Z" fill="#FBBD48"/>
<path d="M188.3 117.164C188.557 117.678 188.32 118.745 188.3 119.338C188.202 120.603 188.241 121.789 188.379 123.053C188.419 123.528 188.676 124.338 188.557 124.773H188.458C187.806 123.963 187.984 118.943 188.083 117.658C188.162 117.48 188.241 117.322 188.34 117.144L188.3 117.164Z" fill="#131010"/>
<path d="M196.028 114.615L196.107 114.575C196.107 114.575 196.186 114.536 196.226 114.516C196.522 114.377 196.7 114.279 197.036 114.298C196.937 114.397 196.819 114.496 196.7 114.595C196.463 114.812 196.443 115.227 196.463 115.543C196.463 116.117 196.582 116.69 196.522 117.283C196.305 119.654 195.139 122.876 197.194 124.753C198.242 125.721 199.862 126.077 201.265 125.978C201.681 125.959 202.194 125.899 202.609 125.781C203.005 125.662 204.526 124.733 204.783 124.832C204.507 125.227 204.171 125.484 203.756 125.741C202.708 126.077 201.72 126.334 200.613 126.314C199.289 126.295 197.807 125.86 196.898 124.852C196.028 123.903 191.641 116.433 191.68 115.425C192.095 115.721 195.178 121.848 195.732 122.796C195.732 119.951 196.384 117.441 196.048 114.615H196.028Z" fill="#232B56"/>
<path d="M190.178 110.445C190.594 110.168 192.135 109.595 192.629 109.516C193.242 109.654 193.775 109.733 194.329 110.03C196.265 111.077 203.874 117.026 204.882 118.725C205.06 119.002 205.139 119.318 205.218 119.634C205.04 120.326 204.823 120.978 204.507 121.63C204.941 122.006 205.258 122.48 205.317 123.053C205.396 123.765 205.119 124.259 204.764 124.832C204.487 124.733 202.985 125.662 202.59 125.781C202.194 125.899 201.681 125.958 201.246 125.978C199.843 126.077 198.242 125.721 197.175 124.753C195.119 122.875 196.285 119.654 196.503 117.283C196.562 116.709 196.463 116.136 196.443 115.543C196.443 115.227 196.443 114.812 196.68 114.595C196.779 114.496 196.898 114.397 197.016 114.298L196.898 113.982C195.139 113.073 193.518 111.611 191.384 111.67C190.198 111.709 189.783 112.283 189.032 113.073C189.131 112.579 189.092 112.045 189.25 111.551C189.388 111.116 189.645 110.919 190.04 110.721L190.178 110.405V110.445Z" fill="#E94742"/>
<path d="M190.178 110.445C190.593 110.168 192.135 109.595 192.629 109.516C193.241 109.654 193.775 109.733 194.328 110.03C196.265 111.077 203.874 117.026 204.882 118.725C205.06 119.002 205.139 119.318 205.218 119.634C205.04 120.326 204.823 120.978 204.506 121.63C204.19 121.393 204.091 120.998 203.736 120.761C202.945 120.682 200.415 116.057 199.724 115.148C199.012 114.219 198.202 113.449 197.273 112.777C194.803 110.978 193.143 110.286 190.06 110.761L190.198 110.445H190.178Z" fill="#FBBD48"/>
<path d="M128.281 133.034C132.293 133.172 135.712 134.279 138.498 137.283C140.949 139.931 142.154 143.31 141.996 146.907C141.996 147.026 141.996 147.144 141.996 147.243C141.996 147.362 141.996 147.48 141.976 147.579C141.976 147.698 141.957 147.816 141.937 147.915C141.917 148.014 141.917 148.133 141.897 148.251C141.897 148.37 141.858 148.469 141.838 148.587C141.838 148.706 141.799 148.805 141.779 148.923C141.759 149.042 141.739 149.141 141.7 149.259C141.68 149.378 141.641 149.476 141.621 149.595C141.601 149.714 141.561 149.812 141.542 149.931C141.502 150.05 141.482 150.148 141.443 150.267C141.403 150.386 141.384 150.484 141.344 150.603C141.305 150.702 141.265 150.82 141.225 150.919C141.186 151.018 141.146 151.137 141.107 151.235C141.067 151.334 141.028 151.453 140.988 151.552C140.949 151.65 140.909 151.769 140.85 151.868C140.81 151.967 140.751 152.085 140.712 152.184C140.672 152.283 140.613 152.382 140.554 152.5C140.494 152.599 140.455 152.698 140.395 152.797C140.336 152.895 140.277 152.994 140.237 153.093C140.178 153.192 140.119 153.291 140.059 153.39C140 153.488 139.941 153.587 139.882 153.686C139.822 153.785 139.763 153.884 139.704 153.982C139.644 154.081 139.585 154.18 139.506 154.259C139.427 154.338 139.368 154.437 139.308 154.536C139.249 154.635 139.17 154.714 139.091 154.812C139.012 154.911 138.953 154.99 138.874 155.089C138.795 155.168 138.735 155.267 138.656 155.346C138.577 155.425 138.498 155.524 138.419 155.603C138.34 155.682 138.261 155.761 138.182 155.86C138.103 155.939 138.024 156.018 137.945 156.097C137.866 156.176 137.787 156.255 137.708 156.334C137.629 156.413 137.55 156.492 137.451 156.571C135.336 158.488 132.767 159.417 129.961 159.773C129.387 159.773 128.814 159.773 128.241 159.773C128.34 156.67 128.281 153.528 128.281 150.425V133.053V133.034Z" fill="#E94742"/>
<path d="M207.352 47.9936C210.059 47.9936 212.747 47.9739 215.455 47.9936V78.7646L199.625 74.4958C196.621 73.7053 193.3 72.974 190.375 72.0254C193.123 67.9147 196.067 63.9226 198.893 59.8712C201.68 55.8988 204.387 51.8277 207.352 47.9936Z" fill="#E94742"/>
<path d="M159.763 130.366C162.53 131.828 163.499 134.714 164.902 137.303C165.89 139.14 166.918 141.018 167.965 142.836C167.372 144.081 166.7 145.01 165.554 145.82C165.771 146.749 165.929 147.461 165.653 148.39L167.945 154.081C169.289 157.382 170.653 160.801 172.866 163.627C174.329 165.485 176.167 167.125 178.005 168.587C177.807 169.081 177.609 169.575 177.392 170.05C177.945 170.485 178.518 170.939 179.092 171.315C179.072 171.334 179.052 171.374 179.032 171.394C178.42 172.184 178.044 173.805 176.918 173.923C176.601 173.963 176.246 173.864 175.929 173.824V174.2C175.297 174.2 174.526 174.259 173.953 174.002L173.182 174.714C172.629 174.319 172.135 173.805 171.601 173.35C171.008 173.429 156.917 169.852 155.811 169.437C155.534 170.425 154.131 175.662 153.597 176.137C152.431 176.236 150.91 175.643 149.763 175.366C148.815 174.911 147.57 174.753 146.562 174.457C146.344 174.358 146.166 174.259 146.008 174.101C145.91 173.232 147.332 168.706 147.668 167.54C148.321 164.674 149.17 161.828 149.902 158.983C150.692 155.88 151.364 152.698 152.313 149.635C152.649 148.567 153.064 147.54 153.439 146.492C152.352 145.662 152.036 144.556 151.799 143.291C151.463 143.093 151.087 142.915 150.751 142.737L151.127 141.334C150.87 141.216 150.574 141.117 150.297 141.018L150.336 140.86C150.475 140.267 150.692 139.733 150.89 139.16C151.799 139.773 152.451 139.674 153.439 139.99C153.538 140.03 153.617 140.03 153.736 140.01C153.914 139.516 153.657 138.251 153.657 137.658C153.676 136.789 153.874 135.88 154.151 135.05C154.506 133.963 155.08 132.836 155.771 131.907C155.989 131.611 156.463 131.176 156.601 130.86C156.641 130.781 156.641 130.603 156.641 130.524L156.7 130.959C156.937 131.018 157.767 130.603 158.083 130.524C158.617 130.405 159.17 130.385 159.724 130.366H159.763Z" fill="#E94742"/>
<path d="M174.941 172.915L175.929 173.844V174.22C175.297 174.22 174.526 174.279 173.953 174.022L174.941 172.915Z" fill="white"/>
<path d="M162.154 142.5C162.293 140.484 162.115 138.31 161.601 136.354C161.502 135.998 161.107 134.891 161.265 134.654C161.364 134.654 161.443 134.654 161.502 134.733C162.233 135.741 162.708 141.631 162.49 142.895C162.391 142.737 162.332 142.579 162.154 142.52V142.5Z" fill="#3C2051"/>
<path d="M157.352 139.279C157.233 138.291 157.075 136.018 157.569 135.129C157.826 135.603 157.668 136.67 157.648 137.223C157.668 138.706 157.767 140.168 157.945 141.65C156.917 141.334 154.585 140.781 153.794 140.129V140.03C154.289 139.891 156.858 140.978 157.549 141.235C157.49 140.583 157.352 139.951 157.352 139.279Z" fill="#3C2051"/>
<path d="M162.154 142.5C162.332 142.559 162.391 142.718 162.49 142.876L162.371 143.765C163.122 144.793 164.605 146.413 164.822 147.638C164.447 147.223 164.13 146.69 163.814 146.235C163.32 145.544 162.806 144.891 162.233 144.279C162.115 144.476 162.016 144.674 161.877 144.852C161.482 145.405 160.949 145.741 160.277 145.84C158.854 146.057 155.178 145.267 154.051 144.417C154.209 144.378 154.328 144.338 154.486 144.378C155.889 144.635 157.174 145.326 158.794 145.544C159.585 145.642 160.494 145.662 161.146 145.148C161.937 144.516 162.095 143.488 162.194 142.54L162.154 142.5Z" fill="#232B56"/>
<path d="M162.707 149.694C162.826 150.168 161.996 151.393 161.739 151.808C161.264 152.559 160.395 154.022 159.565 154.417H159.446C159.446 153.666 159.624 152.856 159.723 152.085C159.822 151.334 159.881 150.583 159.901 149.812C160.849 149.951 161.759 149.852 162.707 149.714V149.694Z" fill="#232B56"/>
<path d="M151.818 143.271C152.549 143.646 153.32 143.982 154.032 144.378C155.158 145.227 158.834 146.018 160.257 145.801C160.929 145.702 161.443 145.366 161.858 144.812C161.996 144.635 162.095 144.437 162.213 144.239C162.787 144.852 163.32 145.504 163.794 146.196C164.111 146.65 164.427 147.204 164.802 147.599C164.96 147.836 165.119 148.053 165.237 148.291C164.565 149.042 163.636 149.437 162.688 149.654C161.739 149.793 160.83 149.911 159.881 149.753C157.411 149.22 155.277 148.152 153.439 146.433C152.352 145.603 152.035 144.496 151.798 143.231L151.818 143.271Z" fill="#FBBD48"/>
<path d="M159.566 154.417C159.941 154.892 160.554 157.698 160.771 158.469C162.787 165.583 166.147 168.726 171.601 173.37C171.008 173.449 156.917 169.872 155.811 169.457C156.245 168.093 156.562 166.67 156.898 165.287C157.411 163.271 157.925 161.235 158.36 159.2C158.696 157.678 158.854 155.899 159.407 154.477H159.526L159.566 154.417Z" fill="white"/>
<path d="M153.458 146.492C155.316 148.212 157.451 149.279 159.901 149.812C159.862 150.583 159.822 151.334 159.723 152.085C159.625 152.856 159.427 153.686 159.447 154.457C158.874 155.899 158.735 157.658 158.399 159.18C157.964 161.216 157.431 163.251 156.937 165.267C156.581 166.65 156.285 168.073 155.85 169.437C155.573 170.425 154.17 175.662 153.636 176.137C152.47 176.236 150.949 175.643 149.802 175.366C148.854 174.911 147.609 174.753 146.601 174.457C146.383 174.358 146.205 174.259 146.047 174.101C145.949 173.232 147.372 168.706 147.707 167.54C148.36 164.674 149.209 161.828 149.941 158.982C150.731 155.88 151.403 152.698 152.352 149.635C152.688 148.567 153.103 147.54 153.478 146.492H153.458Z" fill="#E94742"/>
<path d="M128.261 162.777C134.763 164.18 141.225 165.86 147.668 167.54C147.352 168.706 145.929 173.232 146.008 174.101C146.186 174.259 146.364 174.358 146.561 174.457C147.589 174.753 148.814 174.931 149.763 175.366C150.909 175.643 152.431 176.235 153.597 176.137C154.131 175.662 155.534 170.425 155.811 169.437C156.917 169.852 171.008 173.429 171.601 173.35C172.115 173.805 172.609 174.318 173.182 174.714L173.953 174.002C174.526 174.259 175.297 174.2 175.909 174.2V173.824C176.226 173.864 176.581 173.963 176.898 173.923C178.044 173.805 178.419 172.184 179.012 171.394C179.032 171.374 179.052 171.334 179.072 171.315C179.19 171.255 179.348 171.117 179.487 171.156C180.159 171.334 181.087 172.283 181.542 172.797C181.048 173.864 180.079 174.911 179.348 175.82C184.309 176.809 189.21 178.152 194.111 179.398L215.277 184.852V186.394H128.241V162.757L128.261 162.777Z" fill="#FBBD48"/>
<path d="M179.091 171.334C179.21 171.275 179.368 171.137 179.506 171.176C180.178 171.354 181.107 172.303 181.561 172.817C181.067 173.884 180.099 174.931 179.368 175.84C178.775 176.571 176.601 179.496 175.771 179.536C175.613 179.536 175.573 179.477 175.474 179.398C175.119 178.706 175.494 177.599 175.474 176.828L175.415 176.512C175.494 176.394 175.534 176.334 175.573 176.176C175.435 176.235 175.415 176.255 175.257 176.255C175.237 176.196 175.198 176.137 175.198 176.058C175.138 175.564 175.711 175.129 176.008 174.773C175.909 174.615 175.909 174.358 175.889 174.18V173.805C176.206 173.844 176.561 173.943 176.877 173.903C178.024 173.785 178.399 172.164 178.992 171.374C179.012 171.354 179.032 171.315 179.051 171.295L179.091 171.334Z" fill="#232B56"/>
<path d="M176.028 174.832C176.225 174.813 176.364 174.773 176.581 174.832C176.64 174.931 176.7 174.951 176.68 175.07C176.64 175.287 176.522 175.485 176.423 175.662H176.502C176.66 175.623 176.759 175.524 176.937 175.564C176.957 175.801 176.937 175.959 176.759 176.156C176.403 176.572 176.028 176.73 175.514 176.848L175.455 176.532C175.534 176.413 175.573 176.354 175.613 176.196C175.474 176.255 175.455 176.275 175.296 176.275C175.277 176.216 175.237 176.156 175.237 176.077C175.178 175.583 175.751 175.149 176.047 174.793L176.028 174.832Z" fill="white"/>
<path d="M146.581 174.457C147.609 174.753 148.834 174.931 149.782 175.366C149.585 175.781 149.387 176.196 149.229 176.651C149.15 176.888 148.873 177.441 148.952 177.678C149.031 177.757 149.13 177.856 149.19 177.975C149.466 178.587 148.735 180.03 148.498 180.643C146.126 180.05 143.636 179.101 141.344 178.271C140.909 178.113 140.375 178.034 139.98 177.797C139.802 177.678 139.743 177.599 139.684 177.382C140.02 176.413 141.699 176.987 142.391 176.532C142.431 176.512 142.45 176.493 142.49 176.473C142.47 176.295 142.49 176.295 142.569 176.137C142.767 176.038 142.786 176.018 143.004 176.038L143.142 176.315C143.32 176.137 143.439 175.919 143.715 175.88C143.913 175.84 144.051 175.9 144.229 175.998H145.474L145.81 175.742C146.126 175.346 146.363 174.931 146.601 174.477L146.581 174.457Z" fill="#232B56"/>
<path d="M142.49 176.433C142.47 176.255 142.49 176.255 142.569 176.097C142.767 175.998 142.786 175.979 143.004 175.998L143.142 176.275C143.32 176.097 143.439 175.88 143.715 175.84C143.913 175.801 144.051 175.86 144.229 175.959C144.368 176.275 144.644 176.789 144.526 177.145C144.526 177.164 144.506 177.184 144.486 177.224H144.407L143.972 176.453L144.091 176.374L143.913 176.413C143.992 176.69 144.091 176.947 144.111 177.243C143.992 177.382 143.972 177.362 143.794 177.402C143.597 177.322 143.557 177.263 143.478 177.066C143.439 176.947 143.399 176.828 143.36 176.71H143.281L143.34 177.164L143.261 177.263C143.142 177.263 143.004 177.322 142.905 177.243C142.707 177.066 142.609 176.67 142.49 176.433Z" fill="white"/>
<path d="M146.581 174.457C147.609 174.753 148.834 174.931 149.783 175.366C149.585 175.781 149.387 176.196 149.229 176.651C149.15 176.888 148.874 177.441 148.953 177.678C148.38 177.915 147.787 177.994 147.174 178.054C146.66 177.342 145.87 176.769 145.455 175.998L145.791 175.742C146.107 175.346 146.344 174.931 146.581 174.477V174.457Z" fill="#E94742"/>
<path d="M146.581 174.457C147.608 174.753 148.834 174.931 149.782 175.366C149.585 175.781 149.387 176.196 149.229 176.651C148.043 176.453 146.996 175.781 145.771 175.722C146.087 175.326 146.324 174.911 146.561 174.457H146.581Z" fill="#E14647"/>
</svg>
