<svg width="344" height="241" viewBox="0 0 344 241" fill="none" xmlns="http://www.w3.org/2000/svg">
<rect x="0.137695" y="0.558594" width="343.438" height="239.623" rx="23" fill="white"/>
<path d="M106.522 196.251C70.4406 175.411 70.4406 141.649 106.522 120.81C142.603 99.97 201.111 99.97 237.192 120.81C273.273 141.649 273.273 175.411 237.192 196.251C201.111 217.09 142.603 217.09 106.522 196.251Z" fill="#F0F0F0"/>
<path d="M155.403 200.174L100.313 168.348C98.1683 167.11 98.1683 165.07 100.313 163.832L189.514 112.299C190.403 111.794 191.851 111.794 192.74 112.299L249.172 144.91C250.306 145.573 250.306 147.212 249.172 147.857L158.629 200.174C157.74 200.68 156.292 200.68 155.403 200.174Z" fill="#E0E0E0"/>
<path d="M105.999 149.863C105.999 149.863 105.877 141.562 102.441 134.796C99.0057 128.029 93.7914 123.495 88.5946 122.553C83.3978 121.612 78.7067 126.006 83.9733 129.878C89.2398 133.732 98.8487 138.092 102.197 150.909L106.016 149.845L105.999 149.863Z" fill="#5DBDB0"/>
<path opacity="0.15" d="M105.999 149.863C105.999 149.863 105.877 141.562 102.441 134.796C99.0057 128.029 93.7914 123.495 88.5946 122.553C83.3978 121.612 78.7067 126.006 83.9733 129.878C89.2398 133.732 98.8487 138.092 102.197 150.909L106.016 149.845L105.999 149.863Z" fill="black"/>
<path d="M104.691 147.578C104.691 147.578 104.726 147.578 104.743 147.578C104.9 147.544 104.97 147.387 104.935 147.23C100.767 133.087 90.8268 126.373 86.1532 124.786C86.0137 124.733 85.8393 124.821 85.8044 124.96C85.7521 125.1 85.8393 125.274 85.9788 125.309C90.5653 126.861 100.296 133.453 104.394 147.369C104.429 147.491 104.551 147.578 104.691 147.561V147.578Z" fill="white"/>
<path d="M106.539 157.676C104.621 158.792 103.505 159.507 99.9823 159.803C97.8722 159.978 95.0296 159.681 92.5707 158.792C91.908 158.548 90.8966 158.042 91.4721 157.414C91.7685 157.083 95.2389 156.542 96.4771 155.077C95.0296 155.461 93.1113 155.914 91.6116 155.932C90.1118 155.967 88.5423 155.6 87.3914 154.641C86.2404 153.682 85.63 152.252 85.0545 150.892C84.8627 150.421 84.6709 149.846 84.9673 149.444C85.1592 149.183 85.4905 149.078 85.8044 148.991C87.1123 148.625 88.4377 148.259 89.7456 147.892C90.6001 147.718 89.9898 147.142 89.6759 147.09C89.1178 147.003 88.5772 147.003 88.2459 147.02C86.7461 147.108 85.0894 147.387 83.8512 146.515C83.1188 145.992 82.6828 145.137 82.491 144.248C82.4212 143.934 82.1597 139.888 82.3515 139.836C83.3281 139.574 84.357 139.434 85.351 139.312C86.3101 139.208 87.2344 139.155 88.1761 139.033C89.2399 138.894 90.3211 138.824 91.4023 138.824C91.7685 138.824 92.1522 138.824 92.4661 139.033C92.8846 139.295 93.059 139.836 93.1113 140.341C93.1637 140.847 93.1462 141.353 93.3206 141.841C93.774 141.806 93.931 141.196 93.9135 140.742C93.9135 140.272 93.9135 139.696 94.3321 139.504C94.5413 139.4 94.7855 139.452 95.0296 139.504C96.4945 139.801 97.9245 140.289 99.2847 140.917C99.9125 141.213 100.523 141.545 100.976 142.068C101.639 142.835 101.831 143.899 101.831 144.91C101.831 145.922 101.674 146.933 101.744 147.945C102.528 147.23 103.627 145.085 103.714 144.038C105.423 145.137 106.417 147.387 106.749 150.473C106.958 152.514 106.906 155.182 106.627 157.257C106.627 157.327 106.609 157.693 106.539 157.728V157.676Z" fill="#5DBDB0"/>
<path opacity="0.3" d="M106.539 157.676C104.621 158.792 103.505 159.507 99.9823 159.803C97.8722 159.978 95.0296 159.681 92.5707 158.792C91.908 158.548 90.8966 158.042 91.4721 157.414C91.7685 157.083 95.2389 156.542 96.4771 155.077C95.0296 155.461 93.1113 155.914 91.6116 155.932C90.1118 155.967 88.5423 155.6 87.3914 154.641C86.2404 153.682 85.63 152.252 85.0545 150.892C84.8627 150.421 84.6709 149.846 84.9673 149.444C85.1592 149.183 85.4905 149.078 85.8044 148.991C87.1123 148.625 88.4377 148.259 89.7456 147.892C90.6001 147.718 89.9898 147.142 89.6759 147.09C89.1178 147.003 88.5772 147.003 88.2459 147.02C86.7461 147.108 85.0894 147.387 83.8512 146.515C83.1188 145.992 82.6828 145.137 82.491 144.248C82.4212 143.934 82.1597 139.888 82.3515 139.836C83.3281 139.574 84.357 139.434 85.351 139.312C86.3101 139.208 87.2344 139.155 88.1761 139.033C89.2399 138.894 90.3211 138.824 91.4023 138.824C91.7685 138.824 92.1522 138.824 92.4661 139.033C92.8846 139.295 93.059 139.836 93.1113 140.341C93.1637 140.847 93.1462 141.353 93.3206 141.841C93.774 141.806 93.931 141.196 93.9135 140.742C93.9135 140.272 93.9135 139.696 94.3321 139.504C94.5413 139.4 94.7855 139.452 95.0296 139.504C96.4945 139.801 97.9245 140.289 99.2847 140.917C99.9125 141.213 100.523 141.545 100.976 142.068C101.639 142.835 101.831 143.899 101.831 144.91C101.831 145.922 101.674 146.933 101.744 147.945C102.528 147.23 103.627 145.085 103.714 144.038C105.423 145.137 106.417 147.387 106.749 150.473C106.958 152.514 106.906 155.182 106.627 157.257C106.627 157.327 106.609 157.693 106.539 157.728V157.676Z" fill="black"/>
<path d="M106.208 157.292C106.208 157.292 106.051 157.24 105.998 157.17C100.488 146.584 88.2979 142.12 85.3333 141.51C85.2112 141.475 85.124 141.353 85.1589 141.231C85.1938 141.109 85.3158 141.021 85.4379 141.056C88.4548 141.684 100.819 146.201 106.417 156.961C106.469 157.083 106.417 157.222 106.312 157.275C106.277 157.292 106.243 157.309 106.208 157.309V157.292Z" fill="white"/>
<path d="M90.1989 151.206C90.0768 151.206 89.9722 151.119 89.9722 150.997C89.9722 150.875 90.0594 150.752 90.1814 150.752C96.2676 150.282 98.2382 147.892 98.2557 147.875C98.3429 147.77 98.4824 147.753 98.587 147.84C98.6917 147.927 98.7091 148.067 98.6219 148.171C98.5347 148.276 96.5292 150.735 90.2163 151.223C90.2163 151.223 90.2163 151.223 90.1989 151.223V151.206Z" fill="white"/>
<path d="M103.121 162.489C103.121 163.832 104.133 165.506 105.371 166.238L154.427 194.559C155.665 195.274 157.688 195.274 158.926 194.559L245.319 144.684C246.557 143.969 247.568 142.294 247.568 140.934C247.568 139.591 246.557 137.917 245.319 137.185L196.263 108.864C195.025 108.149 193.002 108.149 191.763 108.864L105.371 158.739C104.133 159.454 103.121 161.129 103.121 162.489Z" fill="#455A64"/>
<path d="M247.586 140.934C247.586 142.277 246.574 143.951 245.336 144.666L158.943 194.542C158.316 194.89 157.513 195.082 156.694 195.082V190.199C157.513 190.199 158.316 190.025 158.943 189.659L245.336 139.783C246.417 139.155 246.557 138.179 245.737 137.464C246.784 138.283 247.586 139.713 247.586 140.917V140.934Z" fill="#37474F"/>
<path d="M156.693 190.217V195.1C155.874 195.1 155.054 194.925 154.444 194.559L105.388 166.221C104.15 165.506 103.138 163.832 103.138 162.471C103.138 161.198 104.028 159.664 105.161 158.879C104.15 159.594 104.237 160.658 105.388 161.338L154.444 189.676C155.071 190.042 155.874 190.217 156.693 190.217Z" fill="#263239"/>
<path d="M101.011 158.827C99.9126 158.042 99.9126 157.013 99.9126 155.583V82.9845C99.9126 81.5545 100.924 79.7931 102.162 79.0781L188.555 29.2026C189.793 28.4876 190.944 29.0108 192.112 29.6735C193.281 30.3536 194.031 30.9291 194.031 32.3591V104.958C194.031 106.388 193.019 108.149 191.781 108.864L105.388 158.739C103.505 160.012 102.215 159.664 101.029 158.827H101.011Z" fill="#37474F"/>
<path d="M105.389 158.739C103.505 160.012 102.215 159.664 101.029 158.809C99.9302 158.042 99.9302 156.996 99.9302 155.566V82.9845C99.9302 82.2695 100.192 81.4673 100.593 80.7697L103.819 82.6357C103.418 83.3332 103.156 84.1354 103.156 84.8504V157.449C103.156 158.879 104.168 159.472 105.406 158.757L105.389 158.739Z" fill="#263239"/>
<path d="M194.03 32.3591C194.03 30.9291 193.019 30.3362 191.781 31.0512L105.388 80.9441C104.76 81.3103 104.202 81.9207 103.801 82.6357L100.592 80.7697C100.993 80.0547 101.569 79.4443 102.179 79.0781L188.555 29.2026C189.793 28.4876 190.944 29.0108 192.112 29.6735C193.28 30.3536 194.03 30.9291 194.03 32.3591Z" fill="#455A64"/>
<path d="M106.591 83.5425L189.88 35.4632C190.63 35.0272 191.24 35.376 191.24 36.248V102.83C191.24 103.684 190.63 104.748 189.88 105.167L106.591 153.246C105.841 153.682 105.231 153.333 105.231 152.461V85.8793C105.231 85.0248 105.841 83.961 106.591 83.5425Z" fill="#263239"/>
<path d="M106.591 83.5425C105.841 83.9785 105.231 85.0248 105.231 85.8793V152.06L188.031 104.277C188.781 103.841 189.391 102.795 189.391 101.941V35.7597L106.591 83.5425Z" fill="#5DBDB0"/>
<path opacity="0.65" d="M106.591 83.5425C105.841 83.9785 105.231 85.0248 105.231 85.8793V152.06L188.031 104.277C188.781 103.841 189.391 102.795 189.391 101.941V35.7597L106.591 83.5425Z" fill="white"/>
<path d="M111.614 158.879L191.798 112.578C192.426 112.212 193.438 112.212 194.048 112.578L196.385 113.799C197.013 114.165 197.013 114.741 196.385 115.107L116.183 161.39C115.555 161.756 114.544 161.756 113.933 161.39L111.614 160.169C110.986 159.803 110.986 159.228 111.614 158.861V158.879Z" fill="#37474F"/>
<path d="M117.909 162.611L198.094 116.31C198.722 115.944 199.646 115.909 200.152 116.206L221.026 128.256C221.549 128.553 221.462 129.093 220.834 129.442L140.737 175.673C140.109 176.039 139.185 176.091 138.679 175.795L117.718 163.797C117.194 163.5 117.282 162.977 117.909 162.611Z" fill="#263239"/>
<path d="M186.723 135.58L189.235 134.133C189.339 134.063 189.357 133.976 189.269 133.924L187.055 132.651C186.967 132.598 186.811 132.616 186.706 132.668L184.195 134.116C184.09 134.185 184.073 134.272 184.16 134.325L186.375 135.598C186.462 135.65 186.619 135.633 186.723 135.58ZM183.218 130.645L180.707 132.093C180.602 132.162 180.585 132.25 180.672 132.302L182.887 133.575C182.974 133.627 183.131 133.61 183.236 133.557L185.747 132.11C185.851 132.04 185.869 131.953 185.782 131.901L183.567 130.628C183.48 130.575 183.323 130.593 183.218 130.645ZM175.109 135.336L170.854 137.795C170.749 137.865 170.732 137.952 170.819 138.004L173.034 139.277C173.121 139.33 173.278 139.312 173.383 139.26L177.638 136.801C177.742 136.731 177.76 136.644 177.672 136.592L175.458 135.319C175.371 135.266 175.214 135.284 175.109 135.336ZM179.556 132.773L177.045 134.22C176.94 134.29 176.923 134.377 177.01 134.429L179.225 135.702C179.312 135.755 179.469 135.737 179.573 135.685L182.085 134.238C182.189 134.168 182.207 134.081 182.119 134.028L179.905 132.755C179.905 132.755 179.661 132.72 179.556 132.773ZM169.703 138.458L167.192 139.905C167.087 139.975 167.07 140.062 167.157 140.115L169.372 141.388C169.459 141.44 169.616 141.422 169.72 141.37L172.232 139.923C172.336 139.853 172.354 139.766 172.266 139.713L170.052 138.44C169.964 138.388 169.808 138.406 169.703 138.458ZM166.041 140.568L163.529 142.015C163.425 142.085 163.407 142.172 163.495 142.225L165.709 143.498C165.797 143.55 165.953 143.533 166.058 143.48L168.569 142.033C168.674 141.963 168.691 141.876 168.604 141.824L166.389 140.551C166.302 140.498 166.145 140.516 166.041 140.568ZM175.336 146.166L177.847 144.718C177.952 144.649 177.969 144.561 177.882 144.509L175.667 143.236C175.58 143.184 175.423 143.201 175.318 143.254L172.807 144.701C172.702 144.771 172.685 144.858 172.772 144.91L174.987 146.183C174.987 146.183 175.231 146.218 175.336 146.166ZM171.673 148.293L174.185 146.846C174.289 146.776 174.307 146.689 174.22 146.637L172.005 145.364C171.918 145.311 171.761 145.329 171.656 145.381L169.145 146.829C169.04 146.898 169.023 146.985 169.11 147.038L171.325 148.311C171.412 148.363 171.569 148.346 171.673 148.293ZM167.994 150.404L170.505 148.956C170.61 148.886 170.627 148.799 170.54 148.747L168.325 147.474C168.238 147.421 168.081 147.439 167.976 147.491L165.465 148.939C165.361 149.008 165.343 149.096 165.43 149.148L167.645 150.421C167.732 150.473 167.889 150.456 167.994 150.404ZM164.332 152.531L166.843 151.084C166.948 151.014 166.965 150.927 166.878 150.874L164.663 149.601C164.576 149.549 164.419 149.566 164.314 149.619L161.803 151.066C161.698 151.136 161.681 151.223 161.768 151.275L163.983 152.549C164.07 152.601 164.227 152.583 164.332 152.531ZM183.061 137.691L185.572 136.243C185.677 136.173 185.694 136.086 185.607 136.034L183.392 134.761C183.392 134.761 183.148 134.726 183.044 134.778L180.532 136.226C180.428 136.295 180.41 136.383 180.498 136.435L182.712 137.708C182.8 137.76 182.957 137.743 183.061 137.691ZM179.015 144.056L184.613 140.83C184.718 140.76 184.735 140.673 184.648 140.62L178.946 137.324C178.858 137.272 178.701 137.289 178.597 137.342L175.702 139.016C175.597 139.086 175.58 139.173 175.667 139.225L178.841 141.056C178.928 141.109 178.911 141.196 178.806 141.265L176.487 142.608C176.382 142.678 176.365 142.765 176.452 142.818L178.667 144.091C178.754 144.143 178.911 144.125 179.015 144.073V144.056ZM162.361 142.695L159.85 144.143C159.745 144.213 159.728 144.3 159.815 144.352L162.03 145.625C162.117 145.678 162.274 145.66 162.379 145.608L164.89 144.16C164.994 144.091 165.012 144.003 164.925 143.951L162.71 142.678C162.623 142.626 162.466 142.643 162.361 142.695ZM158.699 144.806L156.188 146.253C156.083 146.323 156.066 146.41 156.153 146.462L158.368 147.735C158.455 147.788 158.612 147.77 158.716 147.718L161.228 146.27C161.332 146.201 161.35 146.114 161.262 146.061L159.048 144.788C158.96 144.736 158.804 144.753 158.699 144.806ZM138.295 167.372C138.382 167.424 138.539 167.407 138.644 167.354L141.155 165.907C141.26 165.837 141.277 165.75 141.19 165.698L138.975 164.424C138.888 164.372 138.731 164.39 138.627 164.442L136.115 165.889C136.011 165.959 135.993 166.046 136.081 166.099L138.295 167.372ZM129.349 161.756L126.838 163.204C126.733 163.273 126.716 163.361 126.803 163.413L129.018 164.686C129.105 164.738 129.262 164.721 129.367 164.669L131.878 163.221C131.982 163.151 132 163.064 131.913 163.012L129.698 161.739C129.611 161.687 129.454 161.704 129.349 161.756ZM133.848 165.924C133.936 165.977 134.092 165.959 134.197 165.907L136.708 164.459C136.813 164.39 136.83 164.302 136.743 164.25L134.528 162.977C134.441 162.925 134.284 162.942 134.18 162.994L131.668 164.442C131.564 164.512 131.546 164.599 131.634 164.651L133.848 165.924ZM144.05 168.244L146.561 166.796C146.666 166.726 146.683 166.639 146.596 166.587L144.381 165.314C144.294 165.262 144.137 165.279 144.033 165.331L141.521 166.779C141.417 166.848 141.399 166.936 141.487 166.988L143.701 168.261C143.789 168.313 143.946 168.296 144.05 168.244ZM140.039 170.389C140.039 170.389 140.283 170.423 140.388 170.371L142.899 168.924C143.004 168.854 143.021 168.767 142.934 168.714L140.719 167.441C140.632 167.389 140.475 167.407 140.371 167.459L137.859 168.906C137.755 168.976 137.737 169.063 137.824 169.116L140.039 170.389ZM133.011 159.646L130.5 161.094C130.395 161.163 130.378 161.251 130.465 161.303L132.68 162.576C132.767 162.628 132.924 162.611 133.029 162.558L135.54 161.111C135.645 161.041 135.662 160.954 135.575 160.902L133.36 159.629C133.273 159.576 133.116 159.594 133.011 159.646ZM151.357 149.043L148.846 150.491C148.741 150.56 148.724 150.648 148.811 150.7L151.026 151.973C151.113 152.025 151.27 152.008 151.375 151.956L153.886 150.508C153.99 150.438 154.008 150.351 153.921 150.299L151.706 149.026C151.619 148.974 151.462 148.991 151.357 149.043ZM136.673 157.519L134.162 158.966C134.058 159.036 134.04 159.123 134.127 159.175L136.342 160.448C136.429 160.501 136.586 160.483 136.691 160.431L139.202 158.984C139.307 158.914 139.324 158.827 139.237 158.774L137.022 157.501C136.935 157.449 136.778 157.466 136.673 157.519ZM155.019 146.933L152.508 148.381C152.403 148.45 152.386 148.538 152.473 148.59L154.688 149.863C154.775 149.915 154.932 149.898 155.037 149.845L157.548 148.398C157.653 148.328 157.67 148.241 157.583 148.189L155.368 146.916C155.281 146.863 155.124 146.881 155.019 146.933ZM147.695 151.171L145.184 152.618C145.079 152.688 145.062 152.775 145.149 152.828L147.364 154.101C147.364 154.101 147.608 154.135 147.712 154.083L150.224 152.636C150.328 152.566 150.346 152.479 150.258 152.426L148.044 151.153C148.044 151.153 147.8 151.119 147.695 151.171ZM144.015 153.281L141.504 154.728C141.399 154.798 141.382 154.885 141.469 154.938L143.684 156.211C143.771 156.263 143.928 156.246 144.033 156.193L146.544 154.746C146.649 154.676 146.666 154.589 146.579 154.537L144.364 153.264C144.277 153.211 144.12 153.229 144.015 153.281ZM140.353 155.409L137.842 156.856C137.737 156.926 137.72 157.013 137.807 157.065L140.022 158.338C140.109 158.391 140.266 158.373 140.371 158.321L142.882 156.873C142.986 156.804 143.004 156.716 142.917 156.664L140.702 155.391C140.615 155.339 140.458 155.356 140.353 155.409ZM156.99 156.769L159.501 155.321C159.606 155.252 159.623 155.164 159.536 155.112L157.321 153.839C157.234 153.787 157.077 153.804 156.972 153.856L154.461 155.304C154.357 155.374 154.339 155.461 154.426 155.513L156.641 156.786C156.728 156.839 156.885 156.821 156.99 156.769ZM191.327 125.972L188.816 127.419C188.711 127.489 188.694 127.576 188.781 127.628L190.996 128.901C191.083 128.954 191.24 128.936 191.345 128.884L193.856 127.436C193.96 127.367 193.978 127.279 193.891 127.227L191.676 125.954C191.589 125.902 191.432 125.919 191.327 125.972ZM186.898 128.535L184.386 129.982C184.282 130.052 184.264 130.139 184.352 130.192L186.566 131.465C186.654 131.517 186.811 131.5 186.915 131.447L189.426 130C189.531 129.93 189.548 129.843 189.461 129.791L187.246 128.518C187.159 128.465 187.002 128.483 186.898 128.535ZM195.007 123.844L192.496 125.291C192.391 125.361 192.374 125.448 192.461 125.501L194.675 126.774C194.763 126.826 194.92 126.809 195.024 126.756L197.535 125.309C197.64 125.239 197.658 125.152 197.57 125.1L195.356 123.827C195.268 123.774 195.111 123.792 195.007 123.844ZM174.551 142.591L177.062 141.143C177.167 141.074 177.184 140.986 177.097 140.934L174.882 139.661C174.795 139.609 174.638 139.626 174.533 139.679L172.022 141.126C171.918 141.196 171.9 141.283 171.987 141.335L174.202 142.608C174.289 142.661 174.446 142.643 174.551 142.591ZM199.018 121.716C198.931 121.664 198.774 121.682 198.669 121.734L196.158 123.181C196.053 123.251 196.036 123.338 196.123 123.391L198.338 124.664C198.338 124.664 198.582 124.698 198.686 124.646L201.198 123.199C201.302 123.129 201.32 123.042 201.233 122.989L199.018 121.716ZM160.652 154.641L163.163 153.194C163.268 153.124 163.285 153.037 163.198 152.984L160.983 151.711C160.896 151.659 160.739 151.677 160.635 151.729L158.123 153.176C158.019 153.246 158.001 153.333 158.089 153.386L160.303 154.659C160.39 154.711 160.547 154.694 160.652 154.641ZM205.662 128.657L208.173 127.21C208.278 127.14 208.295 127.053 208.208 127L205.993 125.727C205.906 125.675 205.749 125.692 205.645 125.745L203.133 127.192C203.029 127.262 203.011 127.349 203.099 127.402L205.313 128.675C205.4 128.727 205.557 128.709 205.662 128.657ZM198.512 128.779L201.023 127.332C201.128 127.262 201.145 127.175 201.058 127.122L198.843 125.849C198.843 125.849 198.599 125.815 198.495 125.867L195.983 127.314C195.879 127.384 195.861 127.471 195.949 127.524L198.163 128.797C198.163 128.797 198.407 128.832 198.512 128.779ZM202.506 123.722C202.506 123.722 202.261 123.687 202.157 123.739L199.646 125.187C199.541 125.257 199.524 125.344 199.611 125.396L201.825 126.669C201.913 126.721 202.07 126.704 202.174 126.652L204.685 125.204C204.79 125.134 204.808 125.047 204.72 124.995L202.506 123.722ZM203.273 123.286L208.975 126.582C209.063 126.634 209.22 126.617 209.324 126.564L211.835 125.117C211.94 125.047 211.958 124.96 211.87 124.908L206.168 121.612C206.081 121.559 205.924 121.577 205.819 121.629L203.308 123.077C203.203 123.146 203.186 123.234 203.273 123.286ZM194.815 127.977L192.304 129.424C192.199 129.494 192.182 129.581 192.269 129.634L194.484 130.907C194.571 130.959 194.728 130.942 194.832 130.889L197.344 129.442C197.448 129.372 197.466 129.285 197.379 129.233L195.164 127.96C195.077 127.907 194.92 127.925 194.815 127.977ZM167.192 143.916L164.68 145.364C164.576 145.433 164.558 145.521 164.646 145.573L166.86 146.846C166.948 146.898 167.104 146.881 167.209 146.829L169.72 145.381C169.825 145.311 169.842 145.224 169.755 145.172L167.54 143.899C167.453 143.846 167.296 143.864 167.192 143.916ZM201.634 130.802C201.634 130.802 201.878 130.837 201.982 130.785L204.494 129.337C204.598 129.267 204.616 129.18 204.529 129.128L202.314 127.855C202.227 127.803 202.07 127.82 201.965 127.872L199.454 129.32C199.349 129.39 199.332 129.477 199.419 129.529L201.634 130.802ZM170.871 141.806L168.36 143.254C168.255 143.323 168.238 143.41 168.325 143.463L170.54 144.736C170.627 144.788 170.784 144.771 170.889 144.718L173.4 143.271C173.505 143.201 173.522 143.114 173.435 143.062L171.22 141.789C171.133 141.736 170.976 141.754 170.871 141.806ZM141.957 165.262C142.045 165.314 142.202 165.296 142.306 165.244L144.817 163.797C144.922 163.727 144.94 163.64 144.852 163.587L142.638 162.314C142.55 162.262 142.393 162.279 142.289 162.332L139.778 163.779C139.673 163.849 139.656 163.936 139.743 163.988L141.957 165.262ZM137.842 160.867L135.331 162.314C135.226 162.384 135.209 162.471 135.296 162.524L137.511 163.797C137.598 163.849 137.755 163.832 137.859 163.779L140.371 162.332C140.475 162.262 140.493 162.175 140.405 162.123L138.191 160.849C138.103 160.797 137.946 160.815 137.842 160.867ZM145.986 163.117L148.497 161.669C148.602 161.599 148.619 161.512 148.532 161.46L146.317 160.187C146.23 160.134 146.073 160.152 145.968 160.204L143.457 161.652C143.353 161.721 143.335 161.809 143.422 161.861L145.637 163.134C145.724 163.186 145.881 163.169 145.986 163.117ZM149.648 161.006L152.159 159.559C152.264 159.489 152.281 159.402 152.194 159.35L149.979 158.077C149.979 158.077 149.735 158.042 149.631 158.094L147.119 159.542C147.015 159.611 146.997 159.698 147.085 159.751L149.299 161.024C149.299 161.024 149.543 161.059 149.648 161.006ZM153.328 158.879L155.839 157.431C155.944 157.362 155.961 157.274 155.874 157.222L153.659 155.949C153.572 155.897 153.415 155.914 153.31 155.967L150.799 157.414C150.694 157.484 150.677 157.571 150.764 157.623L152.979 158.896C153.066 158.949 153.223 158.931 153.328 158.879ZM141.521 158.757L139.01 160.204C138.906 160.274 138.888 160.361 138.975 160.414L141.19 161.687C141.277 161.739 141.434 161.721 141.539 161.669L144.05 160.222C144.155 160.152 144.172 160.065 144.085 160.012L141.87 158.739C141.783 158.687 141.626 158.704 141.521 158.757ZM145.184 156.629L142.672 158.077C142.568 158.146 142.55 158.234 142.638 158.286L144.852 159.559C144.94 159.611 145.096 159.594 145.201 159.542L147.712 158.094C147.817 158.024 147.834 157.937 147.747 157.885L145.532 156.612C145.445 156.559 145.288 156.577 145.184 156.629ZM159.867 148.154L157.356 149.601C157.251 149.671 157.234 149.758 157.321 149.811L159.536 151.084C159.623 151.136 159.78 151.119 159.885 151.066L162.396 149.619C162.501 149.549 162.518 149.462 162.431 149.409L160.216 148.136C160.129 148.084 159.972 148.102 159.867 148.154ZM156.188 150.281L153.676 151.729C153.572 151.799 153.554 151.886 153.642 151.938L155.856 153.211C155.944 153.264 156.1 153.246 156.205 153.194L158.716 151.746C158.821 151.677 158.838 151.589 158.751 151.537L156.536 150.264C156.449 150.212 156.292 150.229 156.188 150.281ZM163.529 146.044L161.018 147.491C160.914 147.561 160.896 147.648 160.983 147.7L163.198 148.974C163.285 149.026 163.442 149.008 163.547 148.956L166.058 147.509C166.163 147.439 166.18 147.352 166.093 147.299L163.878 146.026C163.791 145.974 163.634 145.991 163.529 146.044ZM148.846 154.519L146.335 155.967C146.23 156.036 146.213 156.124 146.3 156.176L148.515 157.449C148.602 157.501 148.759 157.484 148.863 157.431L151.375 155.984C151.479 155.914 151.497 155.827 151.409 155.775L149.195 154.502C149.107 154.449 148.95 154.467 148.846 154.519ZM152.525 152.392L150.014 153.839C149.91 153.909 149.892 153.996 149.979 154.048L152.194 155.321C152.194 155.321 152.438 155.356 152.543 155.304L155.054 153.856C155.159 153.787 155.176 153.699 155.089 153.647L152.874 152.374C152.874 152.374 152.63 152.339 152.525 152.392ZM147.73 166.133L150.241 164.686C150.346 164.616 150.363 164.529 150.276 164.477L148.061 163.204C147.974 163.151 147.817 163.169 147.712 163.221L145.201 164.669C145.096 164.738 145.079 164.826 145.166 164.878L147.381 166.151C147.468 166.203 147.625 166.186 147.73 166.133ZM128.233 165.139L126.018 163.866C125.931 163.814 125.774 163.832 125.669 163.884L123.158 165.331C123.054 165.401 123.036 165.488 123.123 165.541L125.338 166.814C125.425 166.866 125.582 166.848 125.687 166.796L128.198 165.349C128.303 165.279 128.32 165.192 128.233 165.139ZM133.081 166.36L130.866 165.087C130.779 165.035 130.622 165.052 130.517 165.105L126.663 167.337C126.559 167.407 126.541 167.494 126.629 167.546L128.843 168.819C128.931 168.871 129.087 168.854 129.192 168.802L133.046 166.569C133.151 166.5 133.168 166.413 133.081 166.36ZM124.972 162.593L122.757 161.32C122.67 161.268 122.513 161.285 122.408 161.338L119.322 163.117C119.217 163.186 119.2 163.273 119.287 163.326L121.502 164.599C121.589 164.651 121.746 164.634 121.85 164.581L124.937 162.803C125.042 162.733 125.059 162.646 124.972 162.593ZM127.344 161.216C127.344 161.216 127.588 161.251 127.692 161.198L130.204 159.751C130.308 159.681 130.326 159.594 130.238 159.542L128.024 158.269C128.024 158.269 127.78 158.234 127.675 158.286L125.164 159.733C125.059 159.803 125.042 159.89 125.129 159.943L127.344 161.216ZM137.528 167.825L135.313 166.552C135.226 166.5 135.069 166.517 134.964 166.569L130.134 169.36C130.029 169.429 130.012 169.517 130.099 169.569L132.314 170.842C132.401 170.894 132.558 170.877 132.662 170.825L137.493 168.034C137.598 167.965 137.615 167.877 137.528 167.825ZM139.272 170.842L137.057 169.569C137.057 169.569 136.813 169.534 136.708 169.586L133.622 171.365C133.517 171.435 133.5 171.522 133.587 171.574L135.802 172.847C135.889 172.9 136.046 172.882 136.15 172.83L139.237 171.051C139.342 170.982 139.359 170.894 139.272 170.842ZM154.636 145.468C154.636 145.468 154.88 145.503 154.984 145.451L157.496 144.003C157.6 143.934 157.618 143.846 157.53 143.794L155.316 142.521C155.229 142.469 155.072 142.486 154.967 142.539L152.456 143.986C152.351 144.056 152.334 144.143 152.421 144.195L154.636 145.468ZM147.294 149.706C147.381 149.758 147.538 149.741 147.643 149.689L150.154 148.241C150.258 148.171 150.276 148.084 150.189 148.032L147.974 146.759C147.887 146.706 147.73 146.724 147.625 146.776L145.114 148.224C145.009 148.293 144.992 148.381 145.079 148.433L147.294 149.706ZM131.023 159.106C131.11 159.158 131.267 159.14 131.372 159.088L133.883 157.641C133.988 157.571 134.005 157.484 133.918 157.431L131.703 156.158C131.616 156.106 131.459 156.124 131.355 156.176L128.843 157.623C128.739 157.693 128.721 157.78 128.808 157.833L131.023 159.106ZM150.956 147.578C151.043 147.631 151.2 147.613 151.305 147.561L153.816 146.114C153.921 146.044 153.938 145.957 153.851 145.904L151.636 144.631C151.549 144.579 151.392 144.596 151.287 144.649L148.776 146.096C148.671 146.166 148.654 146.253 148.741 146.305L150.956 147.578ZM143.614 151.816C143.701 151.868 143.858 151.851 143.963 151.799L146.474 150.351C146.579 150.281 146.596 150.194 146.509 150.142L144.294 148.869C144.207 148.817 144.05 148.834 143.946 148.886L141.434 150.334C141.33 150.404 141.312 150.491 141.399 150.543L143.614 151.816ZM141.312 171.121C141.225 171.069 141.068 171.086 140.963 171.138L137.109 173.371C137.005 173.44 136.987 173.528 137.075 173.58L139.289 174.853C139.376 174.905 139.533 174.888 139.638 174.836L143.492 172.603C143.597 172.534 143.614 172.446 143.527 172.394L141.312 171.121ZM138.348 154.868C138.435 154.92 138.592 154.903 138.696 154.85L141.208 153.403C141.312 153.333 141.33 153.246 141.242 153.194L139.028 151.921C138.941 151.868 138.784 151.886 138.679 151.938L136.168 153.386C136.063 153.455 136.046 153.543 136.133 153.595L138.348 154.868ZM134.685 156.978C134.773 157.03 134.93 157.013 135.034 156.961L137.545 155.513C137.65 155.443 137.667 155.356 137.58 155.304L135.366 154.031C135.278 153.979 135.121 153.996 135.017 154.048L132.506 155.496C132.401 155.565 132.383 155.653 132.471 155.705L134.685 156.978ZM209.289 131.866C209.202 131.814 209.045 131.831 208.941 131.883L202.767 135.458C202.663 135.528 202.645 135.615 202.732 135.668L204.947 136.941C204.947 136.941 205.191 136.976 205.296 136.923L211.469 133.348C211.574 133.278 211.591 133.191 211.504 133.139L209.289 131.866ZM201.18 136.557C201.093 136.505 200.936 136.522 200.831 136.574L198.32 138.022C198.216 138.092 198.198 138.179 198.285 138.231L200.5 139.504C200.587 139.556 200.744 139.539 200.849 139.487L203.36 138.039C203.465 137.97 203.482 137.882 203.395 137.83L201.18 136.557ZM151.392 164.006L153.903 162.558C154.008 162.489 154.025 162.402 153.938 162.349L151.723 161.076C151.636 161.024 151.479 161.041 151.375 161.094L148.863 162.541C148.759 162.611 148.741 162.698 148.828 162.75L151.043 164.023C151.13 164.076 151.287 164.058 151.392 164.006ZM193.838 140.795C193.751 140.742 193.594 140.76 193.49 140.812L190.978 142.26C190.874 142.329 190.856 142.416 190.944 142.469L193.158 143.742C193.245 143.794 193.402 143.777 193.507 143.724L196.018 142.277C196.123 142.207 196.14 142.12 196.053 142.068L193.838 140.795ZM212.952 129.756C212.864 129.703 212.707 129.721 212.603 129.773L210.092 131.221C209.987 131.29 209.969 131.378 210.057 131.43L212.271 132.703C212.359 132.755 212.516 132.738 212.62 132.686L215.131 131.238C215.236 131.168 215.253 131.081 215.166 131.029L212.952 129.756ZM218.846 128.919L213.143 125.623C213.056 125.57 212.899 125.588 212.795 125.64L210.283 127.088C210.179 127.157 210.161 127.245 210.249 127.297L215.951 130.593C216.038 130.645 216.195 130.628 216.3 130.575L218.811 129.128C218.916 129.058 218.933 128.971 218.846 128.919ZM180.131 148.712C180.044 148.66 179.887 148.677 179.783 148.729L176.696 150.508C176.591 150.578 176.574 150.665 176.661 150.717L178.876 151.99C178.963 152.043 179.12 152.025 179.225 151.973L182.311 150.194C182.416 150.125 182.433 150.037 182.346 149.985L180.131 148.712ZM189.391 143.358C189.304 143.306 189.147 143.323 189.043 143.376L185.189 145.608C185.084 145.678 185.067 145.765 185.154 145.817L187.369 147.09C187.456 147.142 187.613 147.125 187.717 147.073L191.571 144.84C191.676 144.771 191.693 144.684 191.606 144.631L189.391 143.358ZM171.621 153.612C171.534 153.56 171.377 153.577 171.272 153.63L150.607 165.558C150.503 165.628 150.485 165.715 150.572 165.767L152.787 167.04C152.874 167.093 153.031 167.075 153.136 167.023L173.801 155.095C173.906 155.025 173.923 154.938 173.836 154.885L171.621 153.612ZM149.805 166.221C149.718 166.168 149.561 166.186 149.456 166.238L146.37 168.017C146.265 168.087 146.247 168.174 146.335 168.226L148.549 169.499C148.637 169.552 148.794 169.534 148.898 169.482L151.985 167.703C152.09 167.633 152.107 167.546 152.02 167.494L149.805 166.221ZM175.876 151.171C175.789 151.119 175.632 151.136 175.527 151.188L172.441 152.967C172.336 153.037 172.319 153.124 172.406 153.176L174.621 154.449C174.621 154.449 174.865 154.484 174.969 154.432L178.056 152.653C178.161 152.583 178.178 152.496 178.091 152.444L175.876 151.171ZM145.55 168.662C145.463 168.61 145.306 168.627 145.201 168.68L142.114 170.458C142.01 170.528 141.992 170.615 142.08 170.668L144.294 171.941C144.381 171.993 144.538 171.976 144.643 171.923L147.73 170.144C147.834 170.075 147.852 169.987 147.765 169.935L145.55 168.662ZM184.369 146.253C184.282 146.201 184.125 146.218 184.02 146.27L180.934 148.049C180.829 148.119 180.812 148.206 180.899 148.259L183.113 149.532C183.113 149.532 183.358 149.566 183.462 149.514L186.549 147.735C186.654 147.666 186.671 147.578 186.584 147.526L184.369 146.253ZM197.501 138.685C197.413 138.632 197.256 138.65 197.152 138.702L194.641 140.149C194.536 140.219 194.519 140.306 194.606 140.359L196.82 141.632C196.908 141.684 197.065 141.667 197.169 141.614L199.68 140.167C199.785 140.097 199.803 140.01 199.715 139.958L197.501 138.685ZM205.47 132.79L207.981 131.343C208.086 131.273 208.104 131.186 208.016 131.133L205.802 129.86C205.714 129.808 205.557 129.826 205.453 129.878L202.942 131.325C202.837 131.395 202.82 131.482 202.907 131.535L205.121 132.808C205.209 132.86 205.366 132.842 205.47 132.79ZM190.403 133.453L192.914 132.005C193.019 131.936 193.036 131.848 192.949 131.796L190.734 130.523C190.647 130.471 190.49 130.488 190.386 130.541L187.874 131.988C187.77 132.058 187.752 132.145 187.839 132.197L190.054 133.47C190.141 133.523 190.298 133.505 190.403 133.453ZM180.759 147.073L188.101 142.835C188.206 142.765 188.223 142.678 188.136 142.626L185.921 141.353C185.834 141.3 185.677 141.318 185.572 141.37L178.231 145.608C178.126 145.678 178.108 145.765 178.196 145.817L180.41 147.09C180.498 147.142 180.655 147.125 180.759 147.073ZM201.459 134.935C201.459 134.935 201.703 134.97 201.808 134.918L204.319 133.47C204.424 133.401 204.441 133.313 204.354 133.261L202.139 131.988C202.052 131.936 201.895 131.953 201.791 132.005L199.279 133.453C199.175 133.523 199.157 133.61 199.245 133.662L201.459 134.935ZM198.32 132.895L200.831 131.447C200.936 131.378 200.954 131.29 200.866 131.238L198.652 129.965C198.564 129.913 198.407 129.93 198.303 129.982L195.792 131.43C195.687 131.5 195.67 131.587 195.757 131.639L197.971 132.912C197.971 132.912 198.216 132.947 198.32 132.895ZM177.08 149.183L179.591 147.735C179.695 147.666 179.713 147.578 179.626 147.526L177.411 146.253C177.324 146.201 177.167 146.218 177.062 146.27L174.551 147.718C174.446 147.788 174.429 147.875 174.516 147.927L176.731 149.2C176.818 149.253 176.975 149.235 177.08 149.183ZM193.333 139.609C193.42 139.661 193.577 139.644 193.681 139.591L196.193 138.144C196.297 138.074 196.315 137.987 196.228 137.935L194.013 136.662C193.926 136.609 193.769 136.627 193.664 136.679L191.153 138.126C191.048 138.196 191.031 138.283 191.118 138.336L193.333 139.609ZM158.734 159.786L161.245 158.338C161.35 158.269 161.367 158.181 161.28 158.129L159.065 156.856C158.978 156.804 158.821 156.821 158.716 156.873L156.205 158.321C156.1 158.391 156.083 158.478 156.17 158.53L158.385 159.803C158.472 159.855 158.629 159.838 158.734 159.786ZM162.413 157.658L164.925 156.211C165.029 156.141 165.047 156.054 164.959 156.001L162.745 154.728C162.658 154.676 162.501 154.694 162.396 154.746L159.885 156.193C159.78 156.263 159.763 156.35 159.85 156.403L162.065 157.676C162.152 157.728 162.309 157.71 162.413 157.658ZM155.072 161.896L157.583 160.448C157.687 160.379 157.705 160.291 157.618 160.239L155.403 158.966C155.316 158.914 155.159 158.931 155.054 158.984L152.543 160.431C152.438 160.501 152.421 160.588 152.508 160.64L154.723 161.913C154.81 161.966 154.967 161.948 155.072 161.896ZM169.738 153.42L172.249 151.973C172.354 151.903 172.371 151.816 172.284 151.764L170.069 150.491C169.982 150.438 169.825 150.456 169.72 150.508L167.209 151.956C167.104 152.025 167.087 152.113 167.174 152.165L169.389 153.438C169.476 153.49 169.633 153.473 169.738 153.42ZM166.076 155.548L168.587 154.101C168.691 154.031 168.709 153.944 168.622 153.891L166.407 152.618C166.32 152.566 166.163 152.583 166.058 152.636L163.547 154.083C163.442 154.153 163.425 154.24 163.512 154.292L165.727 155.565C165.814 155.618 165.971 155.6 166.076 155.548ZM173.417 151.31L175.929 149.863C176.033 149.793 176.051 149.706 175.963 149.654L173.749 148.381C173.662 148.328 173.505 148.346 173.4 148.398L170.889 149.845C170.784 149.915 170.767 150.002 170.854 150.055L173.069 151.328C173.156 151.38 173.313 151.363 173.417 151.31ZM193.681 121.978C193.769 122.03 193.926 122.013 194.03 121.961L196.541 120.513C196.646 120.443 196.664 120.356 196.576 120.304L195.983 119.955C195.896 119.903 195.739 119.92 195.635 119.972L193.123 121.42C193.019 121.49 193.001 121.577 193.089 121.629L193.681 121.978ZM175.388 133.488C175.475 133.54 175.632 133.523 175.737 133.47L178.248 132.023C178.353 131.953 178.37 131.866 178.283 131.814L176.068 130.541C175.981 130.488 175.824 130.506 175.719 130.558L173.208 132.005C173.103 132.075 173.086 132.162 173.173 132.215L175.388 133.488ZM182.712 129.25C182.712 129.25 182.957 129.285 183.061 129.233L185.572 127.785C185.677 127.715 185.694 127.628 185.607 127.576L183.392 126.303C183.305 126.251 183.148 126.268 183.044 126.32L180.532 127.768C180.428 127.837 180.41 127.925 180.498 127.977L182.712 129.25ZM170.906 136.069C170.993 136.121 171.15 136.104 171.255 136.051L173.766 134.604C173.871 134.534 173.888 134.447 173.801 134.395L171.586 133.121C171.499 133.069 171.342 133.087 171.238 133.139L168.726 134.586C168.622 134.656 168.604 134.743 168.691 134.796L170.906 136.069ZM179.05 131.36C179.05 131.36 179.294 131.395 179.399 131.343L181.91 129.895C182.015 129.826 182.032 129.738 181.945 129.686L179.73 128.413C179.643 128.361 179.486 128.378 179.382 128.43L176.87 129.878C176.766 129.948 176.748 130.035 176.835 130.087L179.05 131.36ZM163.564 140.306C163.652 140.359 163.809 140.341 163.913 140.289L166.424 138.841C166.529 138.772 166.546 138.685 166.459 138.632L164.244 137.359C164.157 137.307 164 137.324 163.896 137.377L161.384 138.824C161.28 138.894 161.262 138.981 161.35 139.033L163.564 140.306ZM167.227 138.196C167.314 138.249 167.471 138.231 167.575 138.179L170.087 136.731C170.191 136.662 170.209 136.574 170.121 136.522L167.907 135.249C167.819 135.197 167.663 135.214 167.558 135.266L165.047 136.714C164.942 136.784 164.925 136.871 165.012 136.923L167.227 138.196ZM186.357 126.216C186.444 126.268 186.601 126.251 186.706 126.198L189.217 124.751C189.322 124.681 189.339 124.594 189.252 124.542L188.659 124.193C188.572 124.14 188.415 124.158 188.31 124.21L185.799 125.658C185.694 125.727 185.677 125.815 185.764 125.867L186.357 126.216ZM197.361 119.868C197.448 119.92 197.605 119.903 197.71 119.85L200.221 118.403C200.326 118.333 200.343 118.246 200.256 118.194L199.663 117.845C199.576 117.793 199.419 117.81 199.314 117.862L196.803 119.31C196.698 119.38 196.681 119.467 196.768 119.519L197.361 119.868ZM202.017 122.553C202.104 122.606 202.261 122.588 202.366 122.536L204.877 121.089C204.982 121.019 204.999 120.932 204.912 120.879L202.697 119.606C202.697 119.606 202.453 119.571 202.349 119.624L199.837 121.071C199.733 121.141 199.715 121.228 199.803 121.28L202.017 122.553ZM209.132 130.68L211.644 129.233C211.748 129.163 211.766 129.076 211.679 129.023L209.464 127.75C209.464 127.75 209.22 127.715 209.115 127.768L206.604 129.215C206.499 129.285 206.482 129.372 206.569 129.424L208.784 130.697C208.871 130.75 209.028 130.732 209.132 130.68ZM190.019 124.088C190.106 124.14 190.263 124.123 190.368 124.071L192.879 122.623C192.984 122.553 193.001 122.466 192.914 122.414L192.321 122.065C192.234 122.013 192.077 122.03 191.972 122.083L189.461 123.53C189.357 123.6 189.339 123.687 189.426 123.739L190.019 124.088ZM159.902 142.434C159.989 142.486 160.146 142.469 160.251 142.416L162.762 140.969C162.867 140.899 162.884 140.812 162.797 140.76L160.582 139.487C160.495 139.434 160.338 139.452 160.234 139.504L157.722 140.952C157.618 141.021 157.6 141.109 157.687 141.161L159.902 142.434Z" fill="#455A64"/>
<path d="M171.133 161.373L171.639 161.669L185.311 169.569L209.639 155.531L210.144 155.234L195.949 147.055L171.133 161.373Z" fill="#263239"/>
<path d="M209.411 155.653L195.948 147.892L171.865 161.809L185.311 169.569L209.411 155.653Z" fill="#37474F"/>
<path d="M145.079 113.677C143.754 113.677 142.516 113.363 141.4 112.718C138.296 110.922 136.5 106.824 136.5 101.47C136.5 91.5993 142.499 80.0896 149.858 75.817C153.206 73.8639 156.485 73.6197 159.083 75.102C162.187 76.8982 163.983 80.9964 163.983 86.3502C163.983 96.2032 157.984 107.73 150.625 112.003C148.724 113.119 146.841 113.677 145.079 113.677ZM155.403 75.6252C153.921 75.6252 152.282 76.1135 150.608 77.0901C143.649 81.1359 137.982 92.0701 137.982 101.47C137.982 106.283 139.499 109.91 142.132 111.427C144.242 112.648 146.998 112.387 149.858 110.73C156.816 106.684 162.484 95.7498 162.484 86.3502C162.484 81.537 160.966 77.9097 158.333 76.3925C157.444 75.8868 156.45 75.6252 155.386 75.6252H155.403Z" fill="#263239"/>
<path d="M145.079 89.0183C143.44 89.0183 141.94 88.5125 140.65 87.4836L141.33 86.6117C143.597 88.3905 146.666 88.3207 149.962 86.385C153.38 84.3969 156.589 80.7173 159.013 76.0088L160.007 76.5145C157.496 81.3974 154.13 85.2514 150.538 87.3441C148.637 88.4428 146.788 89.0008 145.097 89.0008L145.079 89.0183Z" fill="#263239"/>
<path d="M141.469 111.794L140.475 111.288C142.986 106.405 146.352 102.551 149.944 100.458C153.659 98.2958 157.182 98.2435 159.832 100.319L159.152 101.191C156.885 99.4119 153.816 99.4817 150.52 101.417C147.102 103.405 143.893 107.085 141.469 111.794Z" fill="#263239"/>
<path d="M148.812 112.352C148.288 112.352 147.783 112.212 147.312 111.933C144.696 110.433 143.074 104.992 143.074 97.7726C143.074 87.7975 146.109 78.2235 149.98 75.9739C151.079 75.3287 152.195 75.3112 153.206 75.8867C155.822 77.3864 157.444 82.8274 157.444 90.0472C157.444 100.022 154.41 109.596 150.538 111.846C149.963 112.177 149.387 112.352 148.812 112.352ZM151.672 76.5843C151.305 76.5843 150.922 76.7063 150.521 76.933C147.068 78.9385 144.173 88.4776 144.173 97.7726C144.173 105.428 146.021 109.91 147.853 110.974C148.515 111.358 149.213 111.323 149.963 110.887C153.416 108.881 156.31 99.3421 156.31 90.0472C156.31 82.3914 154.462 77.9096 152.631 76.8458C152.317 76.6715 152.003 76.5843 151.672 76.5843Z" fill="#263239"/>
<path d="M150.8 76.4448H149.684V111.358H150.8V76.4448Z" fill="#263239"/>
<path d="M162.959 85.857L136.975 100.98L137.536 101.945L163.52 86.8216L162.959 85.857Z" fill="#263239"/>
</svg>
